<svg height="394pt" viewBox="0 -8 394 394" width="394pt" xmlns="http://www.w3.org/2000/svg"><path d="m73.929688 343.128906h-4.472657c-19.574219-.023437-35.433593-15.886718-35.457031-35.457031v-278.214844c0-4.445312.839844-8.851562 2.472656-12.984375-13.546875 5.347656-22.453125 18.421875-22.472656 32.984375v278.214844c.023438 19.570313 15.882812 35.433594 35.457031 35.457031h4.472657c14.5625-.019531 27.636718-8.925781 32.980468-22.472656-4.132812 1.632812-8.535156 2.472656-12.980468 2.472656zm0 0" fill="#d4e1f4"/><path d="m364.542969 343.128906h-256.167969c9.601562-9.296875 15.019531-22.09375 15.011719-35.457031v-178.214844c-.003907-4.445312.835937-8.851562 2.472656-12.984375-13.546875 5.347656-22.457031 18.421875-22.472656 32.984375v178.214844c.007812 13.363281-5.410157 26.160156-15.011719 35.457031h256.167969c14.5625-.019531 27.636719-8.925781 32.984375-22.472656-4.132813 1.632812-8.539063 2.472656-12.984375 2.472656zm0 0" fill="#d4e1f4"/><path d="m344.542969 100h-2.609375v-1.640625c-.03125-27.304687-22.15625-49.429687-49.457032-49.460937h-79.675781c-1.015625 0-1.984375-.425782-2.667969-1.175782l-28.914062-31.632812c-9.378906-10.238282-22.625-16.074219-36.507812-16.089844h-95.253907c-27.300781.03125-49.425781 22.15625-49.457031 49.457031v278.214844c.03125 27.300781 22.15625 49.425781 49.457031 49.457031h295.085938c27.300781-.03125 49.425781-22.15625 49.457031-49.457031v-178.214844c-.03125-27.300781-22.15625-49.425781-49.457031-49.457031zm-290.613281 263.128906h-4.472657c-19.574219-.023437-35.433593-15.886718-35.457031-35.457031v-278.214844c.023438-19.574219 15.882812-35.433593 35.457031-35.457031h95.253907c9.953124.007812 19.449218 4.195312 26.171874 11.535156l28.910157 31.628906c3.339843 3.648438 8.054687 5.726563 13 5.730469h79.679687c19.574219.023438 35.433594 15.886719 35.457032 35.460938v1.640625h-189.085938c-27.300781.03125-49.425781 22.15625-49.457031 49.457031v178.21875c-.023438 19.570313-15.886719 35.433594-35.457031 35.457031zm326.070312-35.457031c-.023438 19.570313-15.882812 35.433594-35.457031 35.457031h-256.167969c9.601562-9.296875 15.019531-22.09375 15.011719-35.457031v-178.214844c.023437-19.574219 15.882812-35.433593 35.457031-35.457031h205.699219c19.574219.023438 35.433593 15.886719 35.457031 35.457031zm0 0" fill="#0635c9"/><path d="m291.691406 231.5625h-43v-43c0-3.863281-3.132812-7-7-7-3.867187 0-7 3.136719-7 7v43h-43c-3.867187 0-7 3.136719-7 7 0 3.867188 3.132813 7 7 7h43v43c0 3.867188 3.132813 7 7 7 3.867188 0 7-3.132812 7-7v-43h43c3.867188 0 7-3.132812 7-7 0-3.863281-3.132812-7-7-7zm0 0" fill="#1ae5be"/></svg>