<svg height="394pt" viewBox="0 -8 394 394" width="394pt" xmlns="http://www.w3.org/2000/svg"><path d="m73.925781 343.128906h-4.46875c-19.574219-.023437-35.433593-15.886718-35.457031-35.457031v-278.214844c0-4.445312.835938-8.851562 2.472656-12.984375-13.546875 5.347656-22.453125 18.421875-22.472656 32.984375v278.214844c.023438 19.570313 15.882812 35.433594 35.457031 35.457031h4.46875c14.566407-.019531 27.640625-8.925781 32.984375-22.472656-4.132812 1.632812-8.539062 2.472656-12.984375 2.472656zm0 0" fill="#d4e1f4"/><path d="m364.542969 343.128906h-256.167969c9.601562-9.296875 15.015625-22.09375 15.011719-35.457031v-178.214844c-.003907-4.445312.835937-8.851562 2.472656-12.984375-13.546875 5.347656-22.457031 18.421875-22.472656 32.984375v178.214844c.003906 13.363281-5.410157 26.160156-15.011719 35.457031h256.167969c14.5625-.019531 27.636719-8.925781 32.984375-22.472656-4.132813 1.632812-8.539063 2.472656-12.984375 2.472656zm0 0" fill="#d4e1f4"/><path d="m344.542969 100h-2.609375v-1.640625c-.03125-27.304687-22.15625-49.429687-49.457032-49.460937h-79.675781c-1.015625 0-1.984375-.425782-2.667969-1.175782l-28.914062-31.632812c-9.378906-10.238282-22.625-16.074219-36.507812-16.089844h-95.253907c-27.300781.03125-49.425781 22.15625-49.457031 49.457031v278.214844c.03125 27.300781 22.15625 49.425781 49.457031 49.457031h295.085938c27.300781-.03125 49.425781-22.15625 49.457031-49.457031v-178.214844c-.03125-27.300781-22.15625-49.425781-49.457031-49.457031zm-290.617188 263.128906h-4.46875c-19.574219-.023437-35.433593-15.886718-35.457031-35.457031v-278.214844c.023438-19.574219 15.882812-35.433593 35.457031-35.457031h95.253907c9.953124.011719 19.449218 4.195312 26.171874 11.535156l28.910157 31.628906c3.339843 3.648438 8.054687 5.726563 13 5.730469h79.679687c19.574219.023438 35.433594 15.886719 35.457032 35.460938v1.640625h-189.085938c-27.300781.03125-49.429688 22.15625-49.457031 49.457031v178.21875c-.023438 19.570313-15.886719 35.433594-35.460938 35.457031zm326.074219-35.457031c-.023438 19.570313-15.882812 35.433594-35.457031 35.457031h-256.167969c9.601562-9.296875 15.015625-22.09375 15.011719-35.457031v-178.214844c.019531-19.574219 15.882812-35.433593 35.457031-35.457031h205.699219c19.574219.023438 35.433593 15.886719 35.457031 35.457031zm0 0" fill="#0635c9"/><g fill="#1ae5be"><path d="m227.582031 335.324219h.300781c45.707032-.09375 82.699219-37.207031 82.636719-82.914063 0-3.867187-3.132812-7-7-7h-68.910156v-68.914062c0-3.855469-3.117187-6.984375-6.972656-7h-.300781c-45.691407.210937-82.601563 37.347656-82.53125 83.039062.066406 45.691406 37.089843 82.71875 82.78125 82.789063zm-48.726562-131.691407c11.222656-11.210937 25.96875-18.203124 41.753906-19.796874v68.578124c0 3.863282 3.132813 7 7 7h68.558594c-3.523438 35.101563-33.027344 61.847657-68.308594 61.914063h-.25c-27.878906-.019531-53-16.816406-63.671875-42.570313-10.667969-25.753906-4.78125-55.398437 14.917969-75.125zm0 0"/><path d="m250.699219 229.558594c.175781.171875.359375.335937.550781.492187 1.261719 1.078125 2.867188 1.667969 4.527344 1.667969h75.914062c3.867188 0 7-3.136719 7-7-.019531-21.96875-8.722656-43.039062-24.207031-58.621094l-.085937-.085937c-6.214844-6.117188-13.332032-11.242188-21.101563-15.199219-.21875-.125-.445313-.238281-.675781-.339844-11.445313-5.707031-24.054688-8.675781-36.84375-8.671875-3.867188 0-7 3.132813-7 7v41.421875c-.058594.523438-.058594 1.054688 0 1.578125v31.472657c-.441406 2.285156.277344 4.640624 1.921875 6.285156zm12.078125-35.695313 28.300781-28.300781c2.824219 1.6875 5.523437 3.570312 8.085937 5.628906l-36.382812 36.386719zm51.972656-4.738281-28.59375 28.59375h-13.71875l36.652344-36.648438c2.070312 2.550782 3.960937 5.242188 5.660156 8.054688zm-8.792969 28.59375 15.082031-15.085938c1.667969 4.886719 2.773438 9.949219 3.300782 15.085938zm-28.449219-58.382812-14.730468 14.726562v-17.898438c5.011718.511719 9.953125 1.574219 14.730468 3.167969zm0 0"/></g></svg>