<svg height="426pt" viewBox="0 -18 426.93414 426" width="426pt" xmlns="http://www.w3.org/2000/svg"><path d="m71.449219 324.476562h-4.226563c-18.339844-.019531-33.203125-14.878906-33.222656-33.21875v-263.570312c-.003906-3.835938.664062-7.640625 1.964844-11.25-13.167969 4.757812-21.949219 17.253906-21.964844 31.253906v263.566406c.019531 18.339844 14.882812 33.199219 33.21875 33.21875h4.230469c14.003906-.015624 26.503906-8.796874 31.265625-21.964843-3.613282 1.304687-7.425782 1.96875-11.265625 1.964843zm0 0" fill="#d4e1f4"/><path d="m261.9375 324.476562h-156.960938c8.78125-8.824218 13.710938-20.769531 13.703126-33.21875v-168.832031c-.003907-3.835937.660156-7.644531 1.964843-11.25-13.167969 4.757813-21.949219 17.25-21.964843 31.25v168.832031c.007812 12.449219-4.921876 24.394532-13.703126 33.21875h196.027344l-13.453125-13.453124c-2.035156-2.035157-3.910156-4.222657-5.613281-6.546876zm0 0" fill="#d4e1f4"/><path d="m51.449219 358.476562h246.550781v-14h-213.023438c8.78125-8.824218 13.710938-20.769531 13.703126-33.21875v-168.832031c.019531-18.335937 14.878906-33.199219 33.21875-33.21875h194.871093c18.339844.019531 33.203125 14.878907 33.226563 33.21875v140.050781h14v-140.050781c-.03125-26.066406-21.160156-47.191406-47.226563-47.21875h-2.101562v-1.191406c-.027344-26.066406-21.152344-47.195313-47.21875-47.226563h-75.484375c-.859375 0-1.675782-.363281-2.253906-1l-27.390626-29.953124c-8.953124-9.777344-21.597656-15.351563-34.855468-15.367188h-90.242188c-26.070312.027344-47.191406 21.152344-47.222656 47.21875v263.570312c.03125 26.066407 21.152344 47.191407 47.222656 47.21875zm-37.449219-47.21875v-263.570312c.019531-18.339844 14.882812-33.199219 33.222656-33.21875h90.242188c9.328125.011719 18.222656 3.933594 24.519531 10.8125l27.378906 29.945312c3.234375 3.542969 7.804688 5.5625 12.601563 5.5625h75.488281c18.34375.023438 33.203125 14.886719 33.222656 33.226563v1.191406h-178.773437c-26.066406.03125-47.191406 21.152344-47.222656 47.21875v168.832031c-.023438 18.339844-14.886719 33.203126-33.230469 33.21875h-4.226563c-18.339844-.019531-33.203125-14.878906-33.222656-33.21875zm0 0" fill="#0635c9"/><path d="m346.746094 251.824219c-21.871094-21.867188-57.328125-21.867188-79.199219 0-21.871094 21.871093-21.871094 57.332031 0 79.203125l47.859375 47.859375c2.734375 2.734375 7.167969 2.734375 9.902344 0 2.730468-2.734375 2.730468-7.164063 0-9.898438l-47.863282-47.863281c-16.402343-16.402344-16.402343-42.996094 0-59.398438 16.402344-16.402343 42.996094-16.402343 59.398438 0l67.882812 67.882813c10.9375 10.933594 10.9375 28.664063 0 39.597656-10.933593 10.9375-28.664062 10.9375-39.597656 0l-57.8125-57.8125c-5.5625-5.5625-5.5625-14.582031 0-20.144531 5.566406-5.566406 14.585938-5.566406 20.148438 0l37.789062 37.785156c2.734375 2.734375 7.167969 2.734375 9.902344 0 2.734375-2.730468 2.734375-7.164062 0-9.898437l-37.792969-37.789063c-11.027343-11.03125-28.914062-11.03125-39.941406 0-11.03125 11.03125-11.03125 28.914063 0 39.945313l57.808594 57.8125c16.40625 16.402343 43 16.402343 59.402343 0 16.402344-16.402344 16.402344-43 0-59.402344zm0 0" fill="#1ae5be"/></svg>