<svg height="438pt" viewBox="-7 0 438 438.887" width="438pt" xmlns="http://www.w3.org/2000/svg"><path d="m71.894531 324.003906h-4.230469c-18.339843-.019531-33.199218-14.878906-33.21875-33.21875v-263.570312c-.003906-3.835938.660157-7.644532 1.964844-11.253906-13.167968 4.757812-21.949218 17.253906-21.964844 31.253906v263.570312c.019532 18.339844 14.878907 33.199219 33.21875 33.21875h4.230469c14.003907-.015625 26.5-8.796875 31.261719-21.96875-3.609375 1.304688-7.421875 1.972656-11.261719 1.96875zm0 0" fill="#d4e1f4"/><path d="m105.421875 324.003906c8.78125-8.824218 13.707031-20.769531 13.699219-33.21875v-168.832031c-.003906-3.835937.664062-7.644531 1.964844-11.253906-13.167969 4.761719-21.949219 17.253906-21.964844 31.253906v168.832031c.007812 12.449219-4.917969 24.394532-13.699219 33.21875h180.210937c-2.105468-6.507812-3.578124-13.207031-4.398437-20zm0 0" fill="#d4e1f4"/><path d="m47.664062 358.003906h221.78125v-14h-184.023437c8.78125-8.824218 13.707031-20.769531 13.699219-33.21875v-168.832031c.019531-18.335937 14.882812-33.199219 33.21875-33.21875h194.875c18.339844.019531 33.207031 14.878906 33.230468 33.21875v59.050781h14v-59.050781c-.035156-26.066406-21.164062-47.191406-47.230468-47.21875h-2.101563v-1.1875c-.027343-26.070313-21.148437-47.199219-47.21875-47.230469h-75.492187c-.855469 0-1.675782-.359375-2.25-.996094l-27.390625-29.957031c-8.957031-9.777343-21.601563-15.3515622-34.859375-15.363281h-90.238282c-26.066406.03125-47.1875 21.152344-47.21875 47.214844v263.570312c.027344 26.066406 21.152344 47.191406 47.21875 47.21875zm-33.21875-310.789062c.019532-18.335938 14.882813-33.195313 33.21875-33.214844h90.238282c9.328125.011719 18.226562 3.933594 24.523437 10.8125l27.378907 29.945312c3.230468 3.542969 7.804687 5.5625 12.597656 5.5625h75.492187c18.339844.023438 33.203125 14.886719 33.21875 33.230469v1.1875h-178.769531c-26.066406.03125-47.191406 21.15625-47.21875 47.222657v168.828124c-.023438 18.34375-14.890625 33.203126-33.230469 33.222657h-4.230469c-18.339843-.023438-33.203124-14.886719-33.21875-33.226563zm0 0" fill="#0635c9"/><g fill="#1ae5be"><path d="m337.445312 357.878906c30.625-.035156 55.449219-24.855468 55.484376-55.484375v-63.78125c0-30.644531-24.84375-55.484375-55.484376-55.484375-30.644531 0-55.488281 24.839844-55.488281 55.484375v63.78125c.035157 30.628907 24.859375 55.449219 55.488281 55.484375zm-41.488281-119.265625c0-22.910156 18.574219-41.484375 41.488281-41.484375 22.910157 0 41.484376 18.574219 41.484376 41.484375v63.78125c0 22.910157-18.574219 41.484375-41.484376 41.484375-22.914062 0-41.488281-18.574218-41.488281-41.484375zm0 0"/><path d="m330.445312 391.285156v33.601563h-26.941406c-3.867187 0-7 3.132812-7 7 0 3.867187 3.132813 7 7 7h67.878906c3.867188 0 7-3.132813 7-7 0-3.867188-3.132812-7-7-7h-26.9375v-33.601563c44.710938-3.476562 80-39.957031 80-84.296875 0-3.867187-3.136718-7-7-7-3.867187 0-7 3.132813-7 7 0 38.914063-32.75 70.574219-73 70.574219-40.253906 0-73-31.660156-73-70.574219 0-3.867187-3.136718-7-7-7-3.867187 0-7 3.132813-7 7 0 44.339844 35.289063 80.820313 80 84.296875zm0 0"/></g></svg>