<svg height="439pt" viewBox="0 -22 439 438" width="439pt" xmlns="http://www.w3.org/2000/svg"><path d="m104.476562 325.003906c8.78125-8.824218 13.707032-20.769531 13.703126-33.21875v-168.832031c-.003907-3.835937.660156-7.644531 1.964843-11.253906-13.167969 4.761719-21.949219 17.253906-21.964843 31.253906v168.832031c.003906 12.449219-4.921876 24.394532-13.703126 33.21875h170.210938c-2.101562-6.507812-3.574219-13.207031-4.398438-20zm0 0" fill="#d4e1f4"/><path d="m71.949219 325.003906h-4.230469c-18.335938-.019531-33.199219-14.878906-33.21875-33.21875v-263.570312c-.003906-3.835938.664062-7.644532 1.964844-11.253906-13.167969 4.757812-21.949219 17.253906-21.964844 31.253906v263.570312c.019531 18.339844 14.882812 33.199219 33.21875 33.21875h4.230469c14.007812-.015625 26.503906-8.796875 31.265625-21.96875-3.613282 1.304688-7.425782 1.972656-11.265625 1.96875zm0 0" fill="#d4e1f4"/><path d="m47.21875 358.503906h215.78125v-14h-178.023438c8.78125-8.824218 13.707032-20.769531 13.703126-33.21875v-168.832031c.019531-18.335937 14.878906-33.199219 33.21875-33.21875h194.871093c18.339844.019531 33.207031 14.878906 33.230469 33.21875v59.050781h14v-59.050781c-.03125-26.066406-21.160156-47.191406-47.230469-47.21875h-2.097656v-1.1875c-.027344-26.070313-21.152344-47.199219-47.222656-47.230469h-75.488281c-.859376 0-1.675782-.359375-2.253907-.996094l-27.390625-29.957031c-8.953125-9.777343-21.597656-15.351562-34.855468-15.363281h-90.242188c-26.066406.03125-47.1875 21.152344-47.21875 47.21875v263.570312c.03125 26.066407 21.15625 47.1875 47.21875 47.214844zm-33.21875-310.789062c.023438-18.335938 14.882812-33.195313 33.21875-33.214844h90.242188c9.328124.011719 18.222656 3.933594 24.523437 10.8125l27.375 29.945312c3.234375 3.542969 7.808594 5.5625 12.601563 5.5625h75.488281c18.34375.023438 33.203125 14.886719 33.222656 33.230469v1.1875h-178.773437c-26.066407.03125-47.1875 21.15625-47.21875 47.222657v168.828124c-.023438 18.34375-14.886719 33.203126-33.230469 33.222657h-4.230469c-18.335938-.023438-33.199219-14.882813-33.21875-33.222657zm0 0" fill="#0635c9"/><path d="m235 291.503906c0 56.335938 45.667969 102 102 102s102-45.664062 102-102c0-56.332031-45.667969-102-102-102-56.304688.066406-101.9375 45.695313-102 102zm102-88c21.25-.015625 41.785156 7.6875 57.777344 21.679688l-125.34375 122.636718c-21.882813-26.21875-26.613282-62.730468-12.136719-93.65625 14.480469-30.925781 45.554687-50.675781 79.703125-50.660156zm0 176c-21.25.019532-41.78125-7.683594-57.777344-21.679687l125.34375-122.632813c21.882813 26.214844 26.613282 62.726563 12.136719 93.65625-14.480469 30.925782-45.554687 50.675782-79.703125 50.65625zm0 0" fill="#1ae5be"/></svg>