<svg height="427pt" viewBox="0 -6 427.858 427" width="427pt" xmlns="http://www.w3.org/2000/svg"><path d="m71.378906 324.050781h-4.230468c-18.335938-.019531-33.199219-14.878906-33.21875-33.21875v-263.570312c-.003907-3.835938.660156-7.644531 1.964843-11.253907-13.167969 4.757813-21.949219 17.253907-21.964843 31.253907v263.570312c.019531 18.339844 14.882812 33.199219 33.21875 33.21875h4.230468c14.003906-.015625 26.503906-8.796875 31.265625-21.964843-3.613281 1.300781-7.425781 1.96875-11.265625 1.964843zm0 0" fill="#d4e1f4"/><path d="m104.90625 324.050781c8.78125-8.824219 13.707031-20.769531 13.699219-33.21875v-168.828125c0-3.839844.664062-7.648437 1.96875-11.257812-13.167969 4.761718-21.949219 17.253906-21.96875 31.257812v168.828125c.007812 12.449219-4.917969 24.394531-13.699219 33.21875h226.210938c-2.101563-6.507812-3.578126-13.207031-4.398438-20zm0 0" fill="#d4e1f4"/><path d="m326.769531 95.167969h-2.097656v-1.1875c-.027344-26.070313-21.152344-47.199219-47.222656-47.230469h-75.488281c-.859376 0-1.675782-.359375-2.253907-.992188l-27.386719-29.960937c-8.953124-9.78125-21.601562-15.355469-34.859374-15.367187h-90.242188c-26.066406.027343-47.1875 21.152343-47.21875 47.21875v263.570312c.03125 26.066406 21.152344 47.1875 47.21875 47.21875h258.78125v-14h-221.023438c8.78125-8.824219 13.707032-20.769531 13.703126-33.21875v-168.828125c.019531-18.339844 14.878906-33.203125 33.21875-33.222656h194.871093c18.339844.019531 33.207031 14.878906 33.230469 33.222656v72.046875h14v-72.046875c-.03125-26.070313-21.160156-47.195313-47.230469-47.222656zm-16.097656 0h-178.769531c-26.066406.03125-47.191406 21.15625-47.222656 47.222656v168.828125c-.023438 18.339844-14.886719 33.203125-33.230469 33.21875h-4.230469c-18.335938-.019531-33.199219-14.878906-33.21875-33.21875v-263.570312c.019531-18.339844 14.882812-33.199219 33.21875-33.222657h90.242188c9.328124.011719 18.222656 3.933594 24.523437 10.8125l27.378906 29.949219c3.230469 3.542969 7.804688 5.558594 12.597657 5.558594h75.492187c18.339844.023437 33.203125 14.890625 33.21875 33.230468zm0 0" fill="#0635c9"/><path d="m303.960938 414.6875c3.339843 1.636719 7.320312 1.207031 10.230468-1.109375.121094-.09375.234375-.191406.347656-.292969l50.914063-45.792968 46.125 45.570312c.1875.183594.382813.355469.585937.515625 2.917969 2.300781 6.890626 2.730469 10.230469 1.109375 3.34375-1.621094 5.464844-5.007812 5.464844-8.71875v-171.753906c-.019531-14.90625-12.097656-26.984375-27-27h-75.359375c-14.90625.015625-26.984375 12.09375-27 27v171.753906c-.015625 3.71875 2.109375 7.113281 5.460938 8.71875zm8.539062-180.472656c.007812-7.179688 5.824219-12.992188 13-13h75.359375c7.175781.007812 12.992187 5.820312 13 13v161.417968l-43.261719-42.738281c-2.636718-2.601562-6.84375-2.699219-9.597656-.222656l-48.5 43.621094zm0 0" fill="#1ae5be"/></svg>