<svg height="444pt" viewBox="0 -12 444.00035 444" width="444pt" xmlns="http://www.w3.org/2000/svg"><path d="m71.449219 324.003906h-4.230469c-18.335938-.019531-33.199219-14.878906-33.21875-33.21875v-263.570312c-.003906-3.835938.664062-7.644532 1.964844-11.253906-13.167969 4.757812-21.949219 17.253906-21.964844 31.253906v263.570312c.019531 18.339844 14.882812 33.199219 33.21875 33.21875h4.230469c14.007812-.015625 26.503906-8.796875 31.265625-21.964844-3.613282 1.300782-7.425782 1.96875-11.265625 1.964844zm0 0" fill="#d4e1f4"/><path d="m104.976562 324.003906c8.78125-8.824218 13.707032-20.769531 13.703126-33.21875v-168.828125c-.003907-3.839843.660156-7.648437 1.964843-11.253906-13.167969 4.757813-21.949219 17.25-21.964843 31.253906v168.828125c.003906 12.449219-4.921876 24.394532-13.703126 33.21875h150.210938c-2.101562-6.507812-3.574219-13.207031-4.398438-20zm0 0" fill="#d4e1f4"/><path d="m47.21875 358.003906h198.78125v-14h-161.023438c8.78125-8.824218 13.707032-20.769531 13.703126-33.21875v-168.828125c.019531-18.339843 14.878906-33.203125 33.21875-33.222656h194.871093c18.339844.019531 33.207031 14.878906 33.230469 33.222656v72.046875h14v-72.046875c-.03125-26.070312-21.160156-47.195312-47.230469-47.222656h-2.097656v-1.1875c-.027344-26.070313-21.152344-47.199219-47.222656-47.230469h-75.488281c-.859376 0-1.675782-.359375-2.253907-.996094l-27.390625-29.957031c-8.953125-9.777343-21.597656-15.3515622-34.855468-15.363281h-90.242188c-26.0625.03125-47.1875 21.152344-47.21875 47.214844v263.570312c.03125 26.066406 21.152344 47.191406 47.21875 47.21875zm-33.21875-310.789062c.023438-18.335938 14.882812-33.195313 33.21875-33.214844h90.242188c9.328124.011719 18.222656 3.933594 24.523437 10.8125l27.375 29.945312c3.234375 3.542969 7.804687 5.5625 12.601563 5.5625h75.488281c18.34375.023438 33.203125 14.886719 33.222656 33.230469v1.1875h-178.773437c-26.066407.03125-47.1875 21.15625-47.21875 47.222657v168.828124c-.023438 18.34375-14.886719 33.203126-33.230469 33.222657h-4.230469c-18.339844-.023438-33.199219-14.886719-33.21875-33.226563zm0 0" fill="#0635c9"/><g fill="#1ae5be"><path d="m444 309.054688c.0625-46.660157-30.078125-87.996094-74.527344-102.203126-44.445312-14.203124-92.976562 1.988282-119.988281 40.039063-27.007813 38.046875-26.289063 89.203125 1.78125 126.476563 28.070313 37.273437 77.039063 52.09375 121.066406 36.644531l56.238281 9.839843c2.527344.441407 5.09375-.535156 6.6875-2.542968 1.597657-2.011719 1.964844-4.734375.960938-7.09375l-15-35.257813c14.8125-18.765625 22.84375-41.992187 22.78125-65.902343zm-20.355469 33.871093c-3.78125 9.597657-9.136719 18.5-15.851562 26.339844-1.71875 2.019531-2.148438 4.835937-1.109375 7.277344l11.609375 27.300781-45.378907-7.945312c-1.21875-.210938-2.476562-.097657-3.636718.332031-41.039063 15.109375-87.058594-.5-110.441406-37.457031-23.382813-36.953126-17.78125-85.222657 13.445312-115.839844 31.226562-30.617188 79.59375-35.269532 116.082031-11.164063 36.492188 24.101563 51.191407 70.417969 35.28125 111.152344zm0 0"/><path d="m370.890625 288.523438h-67.78125c-3.863281 0-7 3.136718-7 7 0 3.867187 3.136719 7 7 7h67.78125c3.863281 0 7-3.132813 7-7 0-3.863282-3.136719-7-7-7zm0 0"/><path d="m335.332031 329.230469h-32.222656c-3.863281 0-7 3.132812-7 7 0 3.863281 3.136719 7 7 7h32.222656c3.867188 0 7-3.136719 7-7 0-3.867188-3.132812-7-7-7zm0 0"/></g></svg>