<svg height="425pt" viewBox="0 -10 425.50051 425" width="425pt" xmlns="http://www.w3.org/2000/svg"><path d="m73.675781 343.535156h-4.46875c-19.574219-.023437-35.433593-15.886718-35.457031-35.457031v-278.214844c0-4.445312.835938-8.851562 2.472656-12.984375-13.546875 5.347656-22.453125 18.421875-22.472656 32.984375v278.214844c.023438 19.570313 15.882812 35.433594 35.457031 35.457031h4.46875c14.566407-.019531 27.640625-8.925781 32.984375-22.472656-4.132812 1.632812-8.539062 2.472656-12.984375 2.472656zm0 0" fill="#d4e1f4"/><path d="m322.6875 343.535156h-214.5625c9.601562-9.296875 15.015625-22.09375 15.011719-35.457031v-178.214844c-.003907-4.445312.835937-8.851562 2.472656-12.984375-13.546875 5.347656-22.457031 18.421875-22.472656 32.984375v178.214844c.003906 13.363281-5.410157 26.160156-15.011719 35.457031h256.167969zm0 0" fill="#d4e1f4"/><path d="m344.539062 100.25h-2.609374v-1.648438c-.03125-27.300781-22.160157-49.421874-49.460938-49.453124h-79.667969c-1.019531 0-1.988281-.429688-2.671875-1.179688l-28.910156-31.628906c-9.378906-10.242188-22.625-16.078125-36.507812-16.089844h-95.25c-27.300782.027344-49.4257818 22.148438-49.460938 49.449219v278.222656c.0351562 27.296875 22.160156 49.421875 49.460938 49.449219h295.078124c3.285157.003906 6.5625-.320313 9.78125-.96875l-2.78125-13.722656c-2.304687.464843-4.648437.695312-7 .691406h-256.175781c9.609375-9.292969 15.03125-22.085938 15.027344-35.449219v-178.222656c.023437-19.566407 15.878906-35.425781 35.449219-35.449219h205.699218c19.570313.023438 35.433594 15.878906 35.460938 35.449219v178.222656c0 .765625-.023438 1.535156-.074219 2.289063l13.96875.921874c.070313-1.058593.105469-2.136718.105469-3.210937v-178.222656c-.035156-27.300781-22.160156-49.421875-49.460938-49.449219zm-16.609374 0h-189.089844c-27.296875.03125-49.417969 22.152344-49.449219 49.449219v178.222656c-.027344 19.570313-15.890625 35.425781-35.460937 35.449219h-4.46875c-19.570313-.023438-35.433594-15.878906-35.460938-35.449219v-278.222656c.027344-19.570313 15.890625-35.425781 35.460938-35.449219h95.25c9.953124.007812 19.449218 4.191406 26.171874 11.53125l28.910157 31.628906c3.339843 3.652344 8.058593 5.734375 13.007812 5.738282h79.667969c19.570312.023437 35.433594 15.878906 35.460938 35.453124zm0 0" fill="#0635c9"/><path d="m382.070312 405.691406c1.855469 0 3.636719-.738281 4.949219-2.050781l36.429688-36.429687c2.734375-2.734376 2.734375-7.167969 0-9.902344l-82.777344-82.785156 26.601563-15.660157c2.488281-1.464843 3.824218-4.3125 3.355468-7.167969-.46875-2.851562-2.644531-5.125-5.472656-5.714843l-115.21875-24.152344c-2.3125-.484375-4.714844.230469-6.386719 1.902344s-2.386719 4.074219-1.902343 6.386719l24.152343 115.21875c.589844 2.828124 2.863281 5.003906 5.714844 5.472656 2.851563.464844 5.699219-.867188 7.167969-3.355469l15.660156-26.601563 82.777344 82.785157c1.3125 1.3125 3.09375 2.054687 4.949218 2.054687zm-89.171874-103.183594c-.296876 0-.589844.019532-.882813.058594-2.148437.273438-4.050781 1.523438-5.148437 3.390625l-11.078126 18.8125-18.238281-87.039062 87.035157 18.238281-18.808594 11.074219c-1.867188 1.101562-3.121094 3-3.394532 5.148437-.273437 2.148438.460938 4.304688 1.996094 5.835938l84.222656 84.230468-26.53125 26.527344-84.21875-84.226562c-1.316406-1.3125-3.09375-2.050782-4.953124-2.050782zm0 0" fill="#1ae5be"/></svg>