<svg height="459pt" viewBox="-15 0 459 459.54399" width="459pt" xmlns="http://www.w3.org/2000/svg"><path d="m158.96875 244.984375c6.898438-7.683594 10.710938-17.644531 10.699219-27.96875v-120.660156h-2.03125c-15.4375.019531-27.945313 12.527343-27.964844 27.960937v122.703125c.007813 10.320313-3.804687 20.285157-10.699219 27.964844h208.066406c15.441407-.015625 27.949219-12.527344 27.96875-27.964844v-2.035156zm0 0" fill="#d4e1f4"/><path d="m337.039062 82.355469h-.90625v-.117188c-.027343-23.167969-18.800781-41.941406-41.96875-41.964843h-65.621093c-.492188-.003907-.957031-.207032-1.289063-.570313l-23.808594-26.046875c-7.957031-8.691406-19.195312-13.6445312-30.976562-13.65625h-78.445312c-23.167969.0273438-41.941407 18.800781-41.964844 41.96875v205.050781c.023437 23.164063 18.800781 41.9375 41.964844 41.964844h243.015624c23.167969-.027344 41.941407-18.800781 41.96875-41.964844v-122.703125c-.027343-23.164062-18.800781-41.933594-41.96875-41.960937zm-211.367187 164.664062c-.019531 15.4375-12.53125 27.949219-27.96875 27.964844h-3.679687c-15.4375-.015625-27.949219-12.527344-27.964844-27.964844v-205.050781c.015625-15.441406 12.527344-27.949219 27.964844-27.96875h78.445312c7.851562.007812 15.339844 3.308594 20.644531 9.101562l23.808594 26.050782c2.984375 3.257812 7.199219 5.117187 11.621094 5.121094h65.617187c15.441406.015624 27.953125 12.527343 27.972656 27.964843v.117188h-154.496093c-23.164063.027343-41.9375 18.796875-41.964844 41.960937zm239.335937 0c-.019531 15.4375-12.527343 27.949219-27.96875 27.964844h-208.070312c6.898438-7.679687 10.710938-17.644531 10.699219-27.964844v-122.703125c.019531-15.4375 12.53125-27.945312 27.96875-27.964844h169.398437c15.441406.015626 27.953125 12.527344 27.972656 27.964844zm0 0" fill="#0635c9"/><g fill="#1ae5be"><path d="m220.933594 381.835938v-74.339844c0-3.867188-3.136719-7-7-7-3.867188 0-7 3.132812-7 7v74.960937c-18.542969 4.4375-30.671875 22.242188-28.019532 41.121094 2.65625 18.878906 19.226563 32.648437 38.273438 31.804687 19.046875-.847656 34.328125-16.03125 35.296875-35.074218.972656-19.039063-12.691406-35.699219-31.550781-38.472656zm-5.402344 59.597656c-12.703125 0-23-10.296875-23-23s10.296875-23 23-23 23 10.296875 23 23c-.011719 12.699218-10.300781 22.988281-23 23.003906zm0 0"/><path d="m393.6875 385.4375c-1.800781 0-3.59375.132812-5.375.394531l-38.292969-81.3125c-1.648437-3.5-5.816406-5-9.316406-3.351562-3.496094 1.648437-4.996094 5.816406-3.351563 9.316406l37.679688 80.015625c-15.996094 9.363281-22.589844 29.125-15.417969 46.21875 7.171875 17.089844 25.890625 26.230469 43.78125 21.375s29.417969-22.207031 26.960938-40.582031c-2.453125-18.375-18.136719-32.089844-36.671875-32.074219zm0 60c-12.703125 0-23-10.300781-23-23 0-12.703125 10.296875-23 23-23s23 10.296875 23 23c-.015625 12.695312-10.304688 22.984375-23 23zm0 0"/><path d="m90.359375 301.160156c-3.496094-1.644531-7.667969-.144531-9.3125 3.351563l-38.296875 81.320312c-18.890625-2.796875-36.808594 9.222657-41.394531 27.761719-4.585938 18.535156 5.667969 37.523438 23.683593 43.855469 18.015626 6.332031 37.894532-2.066407 45.917969-19.394531 8.019531-17.328126 1.558594-37.917969-14.925781-47.554688l37.683594-80.023438c1.648437-3.496093.144531-7.667968-3.355469-9.316406zm-52.980469 144.277344c-12.703125 0-23-10.300781-23-23 0-12.703125 10.296875-23 23-23s23 10.296875 23 23c-.015625 12.695312-10.304687 22.984375-23 23zm0 0"/></g></svg>