<svg height="431pt" viewBox="0 -13 431.00961 431" width="431pt" xmlns="http://www.w3.org/2000/svg"><path d="m115.574219 254.988281h-3.679688c-15.4375-.019531-27.949219-12.527343-27.964843-27.964843v-205.050782c-.003907-2.382812.296874-4.757812.898437-7.0625-12.300781 3.230469-20.882813 14.34375-20.898437 27.0625v205.050782c.015624 15.4375 12.527343 27.949218 27.964843 27.964843h3.679688c12.71875-.015625 23.832031-8.597656 27.0625-20.898437-2.304688.597656-4.679688.902344-7.0625.898437zm0 0" fill="#d4e1f4"/><path d="m354.910156 254.988281h-208.070312c6.898437-7.679687 10.707031-17.644531 10.699218-27.96875v-122.695312c-.003906-2.382813.300782-4.757813.898438-7.0625-12.300781 3.230469-20.882812 14.34375-20.898438 27.0625v122.699219c.007813 10.324218-3.800781 20.285156-10.699218 27.964843h208.070312c12.71875-.015625 23.832032-8.597656 27.0625-20.898437-2.304687.597656-4.679687.902344-7.0625.898437zm0 0" fill="#d4e1f4"/><path d="m394.003906 331.441406c-17.726562.023438-32.953125 12.597656-36.328125 30h-98.117187c-3.292969-14.601562-16.253906-24.980468-31.222656-25h-7.933594v-53.941406h-14v53.941406h-4.730469c-14.96875.019532-27.929687 10.398438-31.21875 25h-97.121094c-3.609375-18.730468-20.863281-31.644531-39.847656-29.832031-18.988281 1.8125-33.484375 17.757813-33.484375 36.832031 0 19.070313 14.496094 35.019532 33.484375 36.832032 18.984375 1.8125 36.238281-11.105469 39.847656-29.832032h97.121094c3.289063 14.601563 16.25 24.980469 31.21875 25h26.664063c14.96875-.019531 27.929687-10.398437 31.222656-25h98.121094c3.691406 19.171875 21.648437 32.171875 41.015624 29.703125 19.367188-2.472656 33.480469-19.566406 32.238282-39.054687-1.238282-19.484375-17.40625-34.652344-36.929688-34.648438zm-357 60c-12.703125 0-23-10.296875-23-23s10.296875-23 23-23 23 10.296875 23 23c-.015625 12.695313-10.304687 22.984375-23 23zm191.332032-5h-26.664063c-9.941406 0-18-8.058594-18-18s8.058594-18 18-18h26.664063c9.941406 0 18 8.058594 18 18s-8.058594 18-18 18zm165.667968 5c-12.703125 0-23-10.296875-23-23s10.296875-23 23-23 23 10.296875 23 23c-.015625 12.695313-10.304687 22.984375-23 23zm0 0" fill="#1ae5be"/><path d="m334.910156 82.359375h-.914062v-.117187c-.023438-23.164063-18.796875-41.941407-41.964844-41.964844h-65.621094c-.488281 0-.953125-.207032-1.285156-.566406l-23.808594-26.050782c-7.957031-8.691406-19.195312-13.644531-30.976562-13.65624975h-78.445313c-23.167969.02734375-41.941406 18.80078175-41.964843 41.96874975v205.050782c.023437 23.167968 18.796874 41.941406 41.964843 41.964843h243.015625c23.167969-.027343 41.941406-18.800781 41.96875-41.964843v-122.699219c-.03125-23.167969-18.800781-41.9375-41.96875-41.964844zm-211.367187 164.664063c-.019531 15.4375-12.53125 27.949218-27.96875 27.964843h-3.679688c-15.4375-.015625-27.949219-12.527343-27.964843-27.964843v-205.050782c.015624-15.4375 12.527343-27.949218 27.964843-27.96875h78.445313c7.851562.007813 15.339844 3.308594 20.644531 9.101563l23.808594 26.050781c2.984375 3.257812 7.199219 5.117188 11.617187 5.121094h65.621094c15.4375.019531 27.949219 12.527344 27.964844 27.964844v.117187h-154.492188c-23.164062.03125-41.933594 18.800781-41.960937 41.964844zm239.335937 0c-.019531 15.4375-12.527344 27.949218-27.96875 27.964843h-208.070312c6.898437-7.679687 10.707031-17.640625 10.699218-27.964843v-122.699219c.019532-15.4375 12.527344-27.945313 27.964844-27.964844h169.398438c15.441406.015625 27.953125 12.523437 27.976562 27.964844zm0 0" fill="#0635c9"/></svg>