<svg height="444pt" viewBox="0 -13 444 444" width="444pt" xmlns="http://www.w3.org/2000/svg"><path d="m71.449219 324.003906h-4.230469c-18.335938-.019531-33.199219-14.878906-33.21875-33.21875v-263.570312c-.003906-3.835938.664062-7.644532 1.964844-11.253906-13.167969 4.757812-21.949219 17.253906-21.964844 31.253906v263.570312c.019531 18.339844 14.882812 33.199219 33.21875 33.21875h4.230469c14.007812-.015625 26.503906-8.796875 31.265625-21.96875-3.613282 1.304688-7.425782 1.972656-11.265625 1.96875zm0 0" fill="#d4e1f4"/><path d="m104.976562 324.003906c8.78125-8.824218 13.707032-20.769531 13.703126-33.21875v-168.832031c-.003907-3.835937.660156-7.644531 1.964843-11.253906-13.167969 4.761719-21.949219 17.253906-21.964843 31.253906v168.832031c.003906 12.449219-4.921876 24.394532-13.703126 33.21875h150.238282c-2.113282-6.507812-3.59375-13.207031-4.421875-20zm0 0" fill="#d4e1f4"/><path d="m51.449219 358.003906h189.550781v-14h-156.023438c8.78125-8.824218 13.707032-20.769531 13.703126-33.21875v-168.832031c.019531-18.335937 14.878906-33.195313 33.21875-33.21875h194.871093c18.339844.019531 33.207031 14.878906 33.230469 33.21875v70.050781h14v-70.050781c-.03125-26.066406-21.160156-47.191406-47.230469-47.21875h-2.097656v-1.1875c-.027344-26.070313-21.152344-47.199219-47.222656-47.230469h-75.488281c-.859376 0-1.679688-.359375-2.253907-.996094l-27.390625-29.957031c-8.953125-9.777343-21.597656-15.3515622-34.855468-15.363281h-90.242188c-26.0625.03125-47.1875 21.152344-47.21875 47.214844v263.570312c.03125 26.066406 21.152344 47.191406 47.21875 47.21875zm-37.449219-47.21875v-263.570312c.023438-18.335938 14.882812-33.195313 33.21875-33.214844h90.242188c9.328124.007812 18.222656 3.933594 24.523437 10.8125l27.375 29.945312c3.230469 3.542969 7.804687 5.5625 12.601563 5.5625h75.488281c18.34375.023438 33.203125 14.886719 33.222656 33.230469v1.1875h-178.773437c-26.066407.03125-47.1875 21.15625-47.21875 47.222657v168.828124c-.023438 18.34375-14.886719 33.203126-33.230469 33.222657h-4.230469c-18.339844-.023438-33.199219-14.886719-33.21875-33.226563zm0 0" fill="#0635c9"/><path d="m417.238281 230.945312c-6.851562-6.742187-14.699219-12.390624-23.265625-16.75-.238281-.140624-.488281-.265624-.742187-.375-12.605469-6.28125-26.496094-9.550781-40.582031-9.550781-3.867188 0-7 3.136719-7 7v46.070313c-.0625.550781-.0625 1.109375 0 1.660156v35.097656c-.46875 2.300782.25 4.683594 1.910156 6.34375 1.355468 1.347656 3.179687 2.125 5.089844 2.171875h7.351562v16.773438h-31.648438v-77.347657c0-3.855468-3.117187-6.984374-6.972656-7h-.335937c-50.292969.300782-90.882813 41.195313-90.804688 91.488282.074219 50.296875 40.792969 91.066406 91.085938 91.210937h.332031c50.359375-.101562 91.113281-40.988281 91.042969-91.347656 0-3.867187-3.132813-7-7-7h-31.699219v-16.769531h63c3.867188 0 7-3.136719 7-7-.023438-24.207032-9.613281-47.421875-26.675781-64.589844zm-41.167969 150.1875c-14.445312 14.433594-34.015624 22.5625-54.4375 22.605469h-.28125c-41.375.023438-75.441406-32.519531-77.316406-73.851562-1.871094-41.332031 29.109375-76.824219 70.316406-80.546875v77.050781c0 3.867187 3.132813 7 7 7h77.03125c-1.671874 18.019531-9.558593 34.898437-22.3125 47.742187zm-6.785156-92.511718 42.667969-42.667969c2.664063 3.21875 5.070313 6.640625 7.199219 10.238281l-32.425782 32.429688zm-9.636718-27.605469 32.101562-32.101563c3.605469 2.117188 7.042969 4.511719 10.273438 7.167969l-42.375 42.371094zm18.574218-38.375-18.574218 18.574219v-22.628906c6.335937.578124 12.574218 1.941406 18.574218 4.054687zm28.300782 65.980469 18.964843-18.96875c2.195313 6.121094 3.601563 12.492187 4.191407 18.96875zm0 0" fill="#1ae5be"/></svg>