<svg height="446pt" viewBox="0 -5 446 446" width="446pt" xmlns="http://www.w3.org/2000/svg"><g fill="#d4e1f4"><path d="m270.640625 164.152344c-10.601563-.011719-19.195313-8.605469-19.207031-19.207032v-130.945312h-.792969c-10.601563.011719-19.195313 8.605469-19.207031 19.210938v131.734374c.011718 10.601563 8.605468 19.195313 19.207031 19.207032h2.757813c10.605468-.011719 19.199218-8.605469 19.210937-19.207032v-.792968zm0 0"/><path d="m300.476562 164.152344c3.996094-5.605469 6.140626-12.324219 6.128907-19.207032v-69.214843h-.789063c-10.605468.011719-19.199218 8.605469-19.210937 19.207031v70.007812c.011719 6.882813-2.132813 13.601563-6.128907 19.207032h132.3125c10.605469-.011719 19.199219-8.605469 19.210938-19.207032v-.792968zm0 0"/><path d="m53.210938 402c-10.605469-.011719-19.199219-8.605469-19.210938-19.210938v-130.941406h-.789062c-10.605469.011719-19.199219 8.605469-19.210938 19.207032v131.734374c.011719 10.605469 8.605469 19.199219 19.210938 19.210938h2.757812c10.601562-.011719 19.195312-8.605469 19.207031-19.210938v-.789062zm0 0"/><path d="m83.042969 402c3.996093-5.605469 6.140625-12.324219 6.132812-19.210938v-69.214843h-.789062c-10.605469.011719-19.199219 8.605469-19.210938 19.210937v70.003906c.007813 6.886719-2.136719 13.605469-6.132812 19.210938h132.316406c10.601563-.011719 19.195313-8.605469 19.207031-19.210938v-.789062zm0 0"/></g><path d="m346.675781 279.859375v-86.160156c0-3.863281-3.132812-7-7-7-3.867187 0-7 3.136719-7 7v86.167969c-14.949219 2.957031-26.421875 15.191406-27.65625 30.164062h-85.507812c-6.015625-6.410156-14.335938-10.164062-23.125-10.433594-.898438-17.671875-15.476563-31.539062-33.167969-31.5625h-28.988281l-17.710938-19.378906c-2.910156-3.179688-6.414062-5.761719-10.3125-7.601562v-91.617188c14.972657-1.234375 27.207031-12.707031 30.164063-27.660156h86.167968c3.863282 0 7-3.132813 7-7 0-3.863282-3.136718-7-7-7h-86.167968c-3.128906-15.832032-16.671875-27.777344-32.84375-27.777344-18.488282 0-33.527344 15.601562-33.527344 34.777344-.125 14.46875 8.71875 27.503906 22.207031 32.738281v90.335937c-.066406 0-.132812 0-.199219 0h-58.800781c-18.328125.023438-33.1835935 14.875-33.207031 33.203126v131.734374c.0195312 18.335938 14.875 33.191407 33.210938 33.210938h162.148437c18.332031-.019531 33.1875-14.875 33.207031-33.210938v-70.003906c0-2.960937-.398437-5.90625-1.179687-8.757812h79.554687c5.230469 13.488281 18.265625 22.332031 32.734375 22.207031 19.179688 0 34.777344-15.042969 34.777344-33.527344 0-16.175781-11.941406-29.714843-27.777344-32.847656zm-262.675781-165.082031c0-11.457032 8.761719-20.777344 19.527344-20.777344s19.527344 9.320312 19.527344 20.777344c0 11.460937-8.757813 20.78125-19.527344 20.78125-10.769532 0-19.527344-9.320313-19.527344-20.78125zm-28.824219 288.011718c-.011719 10.605469-8.605469 19.199219-19.207031 19.210938h-2.757812c-10.605469-.011719-19.199219-8.605469-19.210938-19.210938v-131.734374c.011719-10.601563 8.605469-19.195313 19.210938-19.207032h58.796874c5.394532.003906 10.539063 2.273438 14.179688 6.25l17.84375 19.523438c2.570312 2.804687 6.199219 4.40625 10 4.410156h29.1875c9.957031.011719 18.261719 7.625 19.136719 17.542969h-93.96875c-18.332031.023437-33.191407 14.878906-33.210938 33.210937zm159.390625 0c-.011718 10.605469-8.605468 19.199219-19.207031 19.210938h-132.316406c3.996093-5.605469 6.140625-12.324219 6.132812-19.210938v-70.003906c.011719-10.605468 8.605469-19.199218 19.210938-19.210937h106.972656c10.601563.011719 19.195313 8.605469 19.207031 19.210937zm125.109375-70.554687c-11.457031 0-20.78125-8.761719-20.78125-19.527344 0-10.769531 9.324219-19.527343 20.78125-19.527343s20.777344 8.757812 20.777344 19.527343c0 10.765625-9.320313 19.527344-20.777344 19.527344zm0 0" fill="#1ae5be"/><path d="m413.820312 61.742188c-.902343-17.667969-15.476562-31.535157-33.167968-31.554688h-28.988282l-17.714843-19.382812c-6.296875-6.875-15.1875-10.7968755-24.511719-10.804688h-58.800781c-18.332031.0195312-33.1875 14.875-33.207031 33.210938v131.734374c.019531 18.332032 14.875 33.1875 33.207031 33.207032h162.152343c18.332032-.019532 33.191407-14.875 33.210938-33.207032v-70.007812c-.019531-17.929688-14.257812-32.617188-32.179688-33.195312zm-141.210937 103.203124c-.011719 10.601563-8.605469 19.195313-19.210937 19.207032h-2.757813c-10.601563-.011719-19.195313-8.605469-19.207031-19.207032v-131.734374c.011718-10.605469 8.605468-19.199219 19.207031-19.210938h58.800781c5.394532.003906 10.535156 2.273438 14.179688 6.25l17.847656 19.527344c2.566406 2.804687 6.195312 4.402344 10 4.410156h29.183594c9.957031.011719 18.257812 7.621094 19.136718 17.542969h-93.972656c-18.332031.019531-33.1875 14.875-33.207031 33.207031zm159.390625 0c-.011719 10.601563-8.605469 19.195313-19.210938 19.207032h-132.3125c3.996094-5.605469 6.140626-12.324219 6.132813-19.207032v-70.007812c.011719-10.601562 8.605469-19.195312 19.207031-19.207031h106.972656c10.605469.011719 19.199219 8.605469 19.210938 19.207031zm0 0" fill="#0635c9"/></svg>