<svg height="446pt" viewBox="0 -5 446 446" width="446pt" xmlns="http://www.w3.org/2000/svg"><path d="m53.210938 402c-10.605469-.011719-19.199219-8.605469-19.210938-19.210938v-130.941406h-.789062c-10.605469.011719-19.199219 8.605469-19.210938 19.207032v131.734374c.011719 10.605469 8.605469 19.199219 19.210938 19.210938h2.757812c10.601562-.011719 19.195312-8.605469 19.207031-19.210938v-.789062zm0 0" fill="#d4e1f4"/><path d="m83.042969 402c3.996093-5.605469 6.140625-12.324219 6.132812-19.210938v-69.214843h-.789062c-10.605469.011719-19.199219 8.605469-19.210938 19.210937v70.003906c.007813 6.886719-2.136719 13.605469-6.132812 19.210938h132.316406c10.601563-.011719 19.195313-8.605469 19.207031-19.210938v-.789062zm0 0" fill="#d4e1f4"/><path d="m270.640625 164.152344c-10.601563-.011719-19.195313-8.605469-19.207031-19.207032v-130.945312h-.792969c-10.601563.011719-19.195313 8.605469-19.207031 19.210938v131.734374c.011718 10.601563 8.605468 19.195313 19.207031 19.207032h2.757813c10.605468-.011719 19.199218-8.605469 19.210937-19.207032v-.792968zm0 0" fill="#d4e1f4"/><path d="m300.476562 164.152344c3.996094-5.605469 6.140626-12.324219 6.128907-19.207032v-69.214843h-.789063c-10.605468.011719-19.199218 8.605469-19.210937 19.207031v70.007812c.011719 6.882813-2.132813 13.601563-6.128907 19.207032h132.3125c10.605469-.011719 19.199219-8.605469 19.210938-19.207032v-.792968zm0 0" fill="#d4e1f4"/><path d="m413.820312 61.742188c-.902343-17.667969-15.476562-31.535157-33.167968-31.554688h-28.988282l-17.714843-19.382812c-6.296875-6.875-15.1875-10.7968755-24.511719-10.804688h-58.800781c-18.332031.0195312-33.1875 14.875-33.207031 33.210938v131.734374c.019531 18.332032 14.875 33.1875 33.207031 33.207032h162.152343c18.332032-.019532 33.191407-14.875 33.210938-33.207032v-70.007812c-.019531-17.929688-14.257812-32.617188-32.179688-33.195312zm-141.210937 103.203124c-.011719 10.601563-8.605469 19.195313-19.210937 19.207032h-2.757813c-10.601563-.011719-19.195313-8.605469-19.207031-19.207032v-131.734374c.011718-10.605469 8.605468-19.199219 19.207031-19.210938h58.800781c5.394532.003906 10.535156 2.273438 14.179688 6.25l17.847656 19.527344c2.566406 2.804687 6.195312 4.402344 10 4.410156h29.183594c9.957031.011719 18.257812 7.621094 19.136718 17.542969h-93.972656c-18.332031.019531-33.1875 14.875-33.207031 33.207031zm159.390625 0c-.011719 10.601563-8.605469 19.195313-19.210938 19.207032h-132.3125c3.996094-5.605469 6.140626-12.324219 6.132813-19.207032v-70.007812c.011719-10.601562 8.605469-19.195312 19.207031-19.207031h106.972656c10.605469.011719 19.199219 8.605469 19.210938 19.207031zm0 0" fill="#0635c9"/><g fill="#1ae5be"><path d="m196.386719 299.589844c-.898438-17.667969-15.476563-31.535156-33.167969-31.558594h-28.988281l-17.710938-19.378906c-6.296875-6.875-15.191406-10.792969-24.511719-10.800782h-58.800781c-18.332031.019532-33.1835935 14.875-33.207031 33.203126v131.734374c.0195312 18.335938 14.875 33.191407 33.210938 33.210938h162.148437c18.332031-.019531 33.1875-14.875 33.207031-33.210938v-70.003906c-.019531-17.933594-14.257812-32.617187-32.179687-33.195312zm-141.210938 103.199218c-.011719 10.605469-8.605469 19.199219-19.207031 19.210938h-2.757812c-10.605469-.011719-19.199219-8.605469-19.210938-19.210938v-131.734374c.011719-10.601563 8.605469-19.195313 19.210938-19.207032h58.796874c5.394532.003906 10.539063 2.273438 14.179688 6.25l17.84375 19.523438c2.570312 2.804687 6.199219 4.40625 10 4.410156h29.1875c9.957031.011719 18.261719 7.625 19.136719 17.542969h-93.96875c-18.332031.023437-33.191407 14.878906-33.210938 33.210937zm159.390625 0c-.011718 10.605469-8.605468 19.199219-19.207031 19.210938h-132.316406c3.996093-5.605469 6.140625-12.324219 6.132812-19.210938v-70.003906c.011719-10.605468 8.605469-19.199218 19.210938-19.210937h106.972656c10.601563.011719 19.195313 8.605469 19.207031 19.210937zm0 0"/><path d="m42.207031 107.515625v36.054687c0 3.863282 3.132813 7 7 7 3.867188 0 7-3.136718 7-7v-34.132812c14.972657-1.234375 27.207031-12.707031 30.164063-27.660156h34.957031c3.867187 0 7-3.132813 7-7 0-3.863282-3.132813-7-7-7h-34.957031c-3.128906-15.832032-16.671875-27.777344-32.84375-27.777344-18.488282 0-33.527344 15.601562-33.527344 34.777344-.125 14.46875 8.71875 27.503906 22.207031 32.738281zm11.320313-53.515625c10.769531 0 19.527344 9.320312 19.527344 20.777344 0 11.460937-8.757813 20.78125-19.527344 20.78125-10.769532 0-19.527344-9.320313-19.527344-20.78125 0-11.457032 8.761719-20.777344 19.527344-20.777344zm0 0"/><path d="m161.328125 81.777344h11.210937c3.863282 0 7-3.132813 7-7 0-3.863282-3.136718-7-7-7h-11.210937c-3.867187 0-7 3.136718-7 7 0 3.867187 3.132813 7 7 7zm0 0"/><path d="m49.207031 176.570312c-3.867187 0-7 3.132813-7 7v13.429688c0 3.867188 3.132813 7 7 7 3.867188 0 7-3.132812 7-7v-13.429688c0-3.867187-3.132812-7-7-7zm0 0"/><path d="m397.332031 326.484375v-36.054687c0-3.863282-3.136719-7-7-7-3.867187 0-7 3.136718-7 7v34.132812c-14.972656 1.234375-27.210937 12.707031-30.167969 27.660156h-34.953124c-3.867188 0-7 3.132813-7 7 0 3.863282 3.132812 7 7 7h34.953124c3.136719 15.832032 16.671876 27.777344 32.847657 27.777344 18.484375 0 33.527343-15.601562 33.527343-34.777344.125-14.46875-8.71875-27.503906-22.207031-32.738281zm-11.320312 53.515625c-10.769531 0-19.527344-9.320312-19.527344-20.777344 0-11.460937 8.757813-20.78125 19.527344-20.78125 10.765625 0 19.527343 9.320313 19.527343 20.78125 0 11.457032-8.761718 20.777344-19.527343 20.777344zm0 0"/><path d="m278.210938 352.222656h-11.210938c-3.867188 0-7 3.132813-7 7 0 3.863282 3.132812 7 7 7h11.210938c3.863281 0 7-3.136718 7-7 0-3.867187-3.136719-7-7-7zm0 0"/><path d="m390.332031 257.429688c3.863281 0 7-3.132813 7-7v-13.429688c0-3.867188-3.136719-7-7-7-3.867187 0-7 3.132812-7 7v13.429688c0 3.867187 3.132813 7 7 7zm0 0"/></g></svg>