<svg height="444pt" viewBox="0 -13 444 444" width="444pt" xmlns="http://www.w3.org/2000/svg"><path d="m71.449219 324.003906h-4.230469c-18.335938-.019531-33.199219-14.878906-33.21875-33.21875v-263.570312c-.003906-3.835938.664062-7.644532 1.964844-11.253906-13.167969 4.757812-21.949219 17.253906-21.964844 31.253906v263.570312c.019531 18.339844 14.882812 33.199219 33.21875 33.21875h4.230469c14.007812-.015625 26.503906-8.796875 31.265625-21.96875-3.613282 1.304688-7.425782 1.972656-11.265625 1.96875zm0 0" fill="#d4e1f4"/><path d="m104.976562 324.003906c8.78125-8.824218 13.707032-20.769531 13.703126-33.21875v-168.832031c-.003907-3.835937.660156-7.644531 1.964843-11.253906-13.167969 4.761719-21.949219 17.253906-21.964843 31.253906v168.832031c.003906 12.449219-4.921876 24.394532-13.703126 33.21875h150.238282c-2.113282-6.507812-3.59375-13.207031-4.421875-20zm0 0" fill="#d4e1f4"/><path d="m326.769531 94.734375h-2.097656v-1.1875c-.027344-26.070313-21.152344-47.199219-47.222656-47.230469h-75.488281c-.859376 0-1.675782-.359375-2.253907-.996094l-27.390625-29.957031c-8.953125-9.777343-21.597656-15.3515622-34.855468-15.363281h-90.242188c-26.0625.03125-47.1875 21.152344-47.21875 47.214844v263.570312c.03125 26.066406 21.152344 47.191406 47.21875 47.21875h198.78125v-14h-161.023438c8.78125-8.824218 13.707032-20.769531 13.703126-33.21875v-168.832031c.019531-18.335937 14.878906-33.199219 33.21875-33.21875h194.871093c18.339844.019531 33.207031 14.878906 33.230469 33.21875v74.050781h14v-74.050781c-.03125-26.066406-21.160156-47.191406-47.230469-47.21875zm-16.097656 0h-178.773437c-26.066407.03125-47.1875 21.152344-47.21875 47.21875v168.832031c-.023438 18.339844-14.886719 33.203125-33.230469 33.21875h-4.230469c-18.335938-.019531-33.199219-14.878906-33.21875-33.21875v-263.570312c.023438-18.335938 14.882812-33.195313 33.21875-33.214844h90.242188c9.328124.011719 18.222656 3.933594 24.523437 10.8125l27.375 29.945312c3.234375 3.542969 7.804687 5.5625 12.601563 5.5625h75.488281c18.34375.023438 33.203125 14.886719 33.222656 33.230469zm0 0" fill="#0635c9"/><g fill="#1ae5be"><path d="m337 418.003906c59.09375 0 107-47.90625 107-107s-47.90625-107-107-107-107 47.90625-107 107c.066406 59.066406 47.933594 106.933594 107 107zm0-200c51.363281 0 93 41.636719 93 93 0 51.363282-41.636719 93-93 93s-93-41.636718-93-93c.058594-51.335937 41.660156-92.941406 93-93zm0 0"/><path d="m337.191406 357.800781c-.0625 0-.125-.011719-.191406-.011719s-.128906.007813-.191406.011719c-11.082032-.117187-20.003906-9.121093-20.023438-20.199219 0-3.867187-3.132812-7-7-7-3.863281 0-7 3.132813-7 7 .023438 16.1875 11.371094 30.15625 27.214844 33.488282v9.914062c0 3.867188 3.132812 7 7 7s7-3.132812 7-7v-9.914062c17.152344-3.59375 28.816406-19.570313 27.011719-37.003906-1.800781-17.433594-16.484375-30.683594-34.011719-30.695313-11.164062 0-20.214844-9.050781-20.214844-20.214844 0-11.164062 9.050782-20.210937 20.214844-20.210937s20.214844 9.046875 20.214844 20.210937c0 3.867188 3.132812 7 7 7 3.863281 0 7-3.132812 7-7-.019532-16.191406-11.371094-30.160156-27.214844-33.496093v-8.675782c0-3.863281-3.132812-7-7-7s-7 3.136719-7 7v8.675782c-17.164062 3.589843-28.835938 19.570312-27.03125 37.011718 1.800781 17.4375 16.496094 30.695313 34.03125 30.695313 11.160156-.054688 20.253906 8.949219 20.304688 20.113281.054687 11.160156-8.949219 20.25-20.113282 20.304688zm0 0"/></g></svg>