<svg height="445pt" viewBox="0 -13 445.94451 445" width="445pt" xmlns="http://www.w3.org/2000/svg"><path d="m71.449219 324.476562h-4.230469c-18.335938-.019531-33.199219-14.882812-33.21875-33.21875v-263.570312c-.003906-3.835938.664062-7.644531 1.964844-11.253906-13.167969 4.757812-21.949219 17.25-21.964844 31.253906v263.570312c.019531 18.335938 14.882812 33.199219 33.21875 33.21875h4.230469c14.007812-.015624 26.503906-8.796874 31.265625-21.96875-3.613282 1.304688-7.425782 1.972657-11.265625 1.96875zm0 0" fill="#d4e1f4"/><path d="m104.976562 324.476562c8.78125-8.824218 13.707032-20.769531 13.703126-33.21875v-168.832031c-.003907-3.835937.660156-7.644531 1.964843-11.253906-13.167969 4.761719-21.949219 17.253906-21.964843 31.253906v168.832031c.003906 12.449219-4.921876 24.394532-13.703126 33.21875h170.210938l15.601562-20zm0 0" fill="#d4e1f4"/><path d="m47.21875 358.476562h208.78125v-14h-171.023438c8.78125-8.824218 13.707032-20.769531 13.703126-33.21875v-168.832031c.019531-18.335937 14.878906-33.199219 33.21875-33.21875h194.871093c18.339844.019531 33.207031 14.878907 33.230469 33.21875v91.050781h14v-91.050781c-.03125-26.066406-21.160156-47.191406-47.230469-47.21875h-2.097656v-1.191406c-.027344-26.066406-21.152344-47.195313-47.222656-47.226563h-75.488281c-.859376 0-1.675782-.359374-2.253907-.996093l-27.390625-29.957031c-8.953125-9.777344-21.597656-15.351563-34.855468-15.363282h-90.242188c-26.0625.03125-47.1875 21.148438-47.21875 47.214844v263.570312c.03125 26.066407 21.152344 47.191407 47.21875 47.21875zm-33.21875-310.789062c.023438-18.335938 14.882812-33.195312 33.21875-33.214844h90.242188c9.328124.007813 18.222656 3.933594 24.523437 10.8125l27.375 29.945313c3.234375 3.542969 7.804687 5.5625 12.601563 5.5625h75.488281c18.34375.023437 33.203125 14.886719 33.222656 33.230469v1.1875h-178.773437c-26.066407.03125-47.1875 21.15625-47.21875 47.222656v168.828125c-.023438 18.339843-14.886719 33.203125-33.230469 33.21875h-4.230469c-18.339844-.019531-33.199219-14.882813-33.21875-33.222657zm0 0" fill="#0635c9"/><path d="m396.476562 204.582031c-2.730468-2.734375-7.164062-2.734375-9.898437 0l-132.765625 132.765625c-.089844.09375-.175781.195313-.261719.292969-.050781.054687-.105469.113281-.15625.171875-.175781.210938-.339843.429688-.492187.660156-.148438.230469-.28125.46875-.398438.714844-.027344.054688-.054687.109375-.078125.164062-.09375.203126-.179687.414063-.253906.625-.015625.035157-.03125.070313-.042969.101563l-23.707031 71.125c-.839844 2.511719-.183594 5.285156 1.691406 7.160156s4.648438 2.53125 7.160157 1.691407l71.125-23.707032c.046874-.015625.089843-.039062.136718-.054687.195313-.070313.382813-.148438.566406-.230469.078126-.035156.152344-.070312.226563-.105469.199219-.101562.390625-.210937.578125-.328125.039062-.027344.085938-.046875.125-.078125.226562-.144531.4375-.304687.644531-.476562.054688-.046875.097657-.101563.15625-.144531.101563-.089844.207031-.175782.300781-.273438l132.761719-132.757812c2.734375-2.734376 2.734375-7.164063 0-9.898438zm-31.027343 40.929688 37.515625 37.515625-96.785156 96.785156-37.515626-37.515625zm-119.324219 156.839843 15.699219-47.097656 31.398437 31.398438zm166.738281-129.222656-37.515625-37.515625 16.179688-16.179687 37.515625 37.515625zm0 0" fill="#1ae5be"/></svg>