<svg height="469pt" viewBox="0 -19 469 469" width="469pt" xmlns="http://www.w3.org/2000/svg"><path d="m71.449219 324.003906h-4.230469c-18.335938-.019531-33.199219-14.878906-33.21875-33.21875v-263.570312c-.003906-3.835938.664062-7.644532 1.964844-11.253906-13.167969 4.757812-21.949219 17.253906-21.964844 31.253906v263.570312c.019531 18.339844 14.882812 33.199219 33.21875 33.21875h4.230469c14.007812-.015625 26.503906-8.796875 31.265625-21.96875-3.613282 1.304688-7.425782 1.972656-11.265625 1.96875zm0 0" fill="#d4e1f4"/><path d="m104.976562 324.003906c8.78125-8.824218 13.707032-20.769531 13.703126-33.21875v-168.832031c-.003907-3.835937.660156-7.644531 1.964843-11.253906-13.167969 4.761719-21.949219 17.253906-21.964843 31.253906v168.832031c.003906 12.449219-4.921876 24.394532-13.703126 33.21875h192.210938c-2.101562-6.507812-3.574219-13.207031-4.398438-20zm0 0" fill="#d4e1f4"/><path d="m47.21875 358.003906h222.78125v-14h-185.023438c8.78125-8.824218 13.707032-20.769531 13.703126-33.21875v-168.832031c.019531-18.335937 14.878906-33.195313 33.21875-33.21875h194.871093c18.339844.019531 33.207031 14.878906 33.230469 33.21875v84.050781h14v-84.050781c-.03125-26.066406-21.160156-47.191406-47.230469-47.21875h-2.097656v-1.1875c-.027344-26.070313-21.152344-47.199219-47.222656-47.230469h-75.488281c-.859376 0-1.675782-.359375-2.253907-.996094l-27.390625-29.957031c-8.953125-9.777343-21.597656-15.3515622-34.855468-15.363281h-90.242188c-26.0625.03125-47.1875 21.152344-47.21875 47.214844v263.570312c.03125 26.066406 21.152344 47.191406 47.21875 47.21875zm-33.21875-310.789062c.023438-18.335938 14.882812-33.195313 33.21875-33.214844h90.242188c9.328124.007812 18.222656 3.933594 24.523437 10.8125l27.375 29.945312c3.230469 3.542969 7.804687 5.5625 12.601563 5.5625h75.488281c18.34375.023438 33.203125 14.886719 33.222656 33.230469v1.1875h-178.773437c-26.066407.03125-47.1875 21.15625-47.21875 47.222657v168.828124c-.023438 18.34375-14.886719 33.203126-33.230469 33.222657h-4.230469c-18.339844-.023438-33.199219-14.886719-33.21875-33.226563zm0 0" fill="#0635c9"/><g fill="#1ae5be"><path d="m422 219.339844h-4.152344v-8.335938c0-3.863281-3.132812-7-7-7-3.867187 0-7 3.136719-7 7v8.335938h-73.695312v-8.335938c0-3.863281-3.132813-7-7-7-3.863282 0-7 3.136719-7 7v8.335938h-4.152344c-25.945312.03125-46.972656 21.054687-47 47v117.308594c.027344 25.945312 21.054688 46.96875 47 47h110c25.945312-.03125 46.972656-21.054688 47-47v-117.308594c-.027344-25.945313-21.054688-46.96875-47-47zm-110 14h4.152344v15.335937c0 3.863281 3.136718 7 7 7 3.867187 0 7-3.136719 7-7v-15.335937h73.695312v15.335937c0 3.863281 3.132813 7 7 7 3.867188 0 7-3.136719 7-7v-15.335937h4.152344c18.214844.019531 32.980469 14.785156 33 33v14.699218h-176v-14.699218c.019531-18.214844 14.785156-32.980469 33-33zm110 183.308594h-110c-18.21875-.023438-32.980469-14.785157-33-33v-88.613282h176v88.613282c-.019531 18.214843-14.78125 32.976562-33 33zm0 0"/><path d="m421.808594 326.574219h-109.617188c-3.867187 0-7 3.132812-7 7 0 3.863281 3.132813 7 7 7h109.617188c3.867187 0 7-3.136719 7-7 0-3.867188-3.132813-7-7-7zm0 0"/><path d="m375.601562 373.109375h-63.410156c-3.867187 0-7 3.136719-7 7 0 3.867187 3.132813 7 7 7h63.410156c3.863282 0 7-3.132813 7-7 0-3.863281-3.136718-7-7-7zm0 0"/></g></svg>