<svg height="438pt" viewBox="0 -17 438.9858 438" width="438pt" xmlns="http://www.w3.org/2000/svg"><path d="m70.449219 325.496094h-4.230469c-18.335938-.019532-33.199219-14.878906-33.21875-33.21875v-263.570313c-.003906-3.835937.664062-7.644531 1.964844-11.253906-13.167969 4.757813-21.949219 17.253906-21.964844 31.253906v263.570313c.019531 18.339844 14.882812 33.199218 33.21875 33.21875h4.230469c14.007812-.011719 26.503906-8.796875 31.265625-21.964844-3.613282 1.304688-7.425782 1.96875-11.265625 1.964844zm0 0" fill="#d4e1f4"/><path d="m103.976562 325.496094c8.78125-8.824219 13.707032-20.769532 13.703126-33.21875v-168.828125c-.003907-3.839844.660156-7.644531 1.964843-11.253907-13.167969 4.757813-21.949219 17.25-21.964843 31.253907v168.828125c.003906 12.449218-4.921876 24.394531-13.703126 33.21875h174.210938c-2.101562-6.507813-3.574219-13.207032-4.398438-20zm0 0" fill="#d4e1f4"/><path d="m47.21875 358.496094h220.78125v-14h-183.023438c8.78125-8.824219 13.707032-20.769532 13.703126-33.21875v-168.828125c.019531-18.339844 14.878906-33.199219 33.21875-33.222657h194.871093c18.339844.019532 33.207031 14.878907 33.230469 33.222657v86.046875h14v-86.046875c-.03125-26.070313-21.160156-47.195313-47.230469-47.222657h-2.097656v-1.1875c-.027344-26.070312-21.152344-47.199218-47.222656-47.230468h-75.488281c-.859376 0-1.675782-.359375-2.253907-.992188l-27.390625-29.960937c-8.953125-9.777344-21.597656-15.351563-34.855468-15.363281h-90.242188c-26.0625.03125-47.1875 21.152343-47.21875 47.214843v263.570313c.03125 26.066406 21.152344 47.191406 47.21875 47.21875zm-33.21875-310.789063c.023438-18.335937 14.882812-33.195312 33.21875-33.214843h90.242188c9.328124.011718 18.222656 3.933593 24.523437 10.8125l27.375 29.945312c3.230469 3.542969 7.804687 5.5625 12.601563 5.5625h75.488281c18.34375.023438 33.203125 14.890625 33.222656 33.230469v1.191406h-178.773437c-26.066407.027344-47.1875 21.152344-47.21875 47.21875v168.828125c-.023438 18.34375-14.886719 33.203125-33.230469 33.222656h-4.230469c-18.339844-.019531-33.199219-14.886718-33.21875-33.226562zm0 0" fill="#0635c9"/><path d="m332.03125 402.691406c.121094.050782.242188.09375.367188.136719 2.964843 1.113281 6.230468 1.113281 9.195312 0 .136719-.046875.277344-.101563.414062-.152344 77.609376-31.445312 103.878907-89.160156 95.480469-132.414062l-.007812-.046875c-6.179688-30.621094-28.417969-50.402344-56.652344-50.402344-14.019531 0-29.0625 5.128906-43.769531 14.878906-14.894532-10.191406-29.722656-15.355468-44.132813-15.355468-28.40625 0-50.558593 20-56.425781 50.945312-8.386719 43.710938 17.898438 101.613281 95.53125 132.410156zm-81.777344-129.792968c4.628906-24.398438 20.976563-39.566407 42.671875-39.566407 12.65625 0 26.078125 5.226563 39.886719 15.527344 2.453125 1.832031 5.816406 1.855469 8.296875.054687 13.613281-9.882812 27.347656-15.101562 39.722656-15.101562 21.597657 0 38.039063 15 42.921875 39.144531 10.097656 52.113281-36.253906 96.101563-86.753906 116.644531l-.019531-.007812c-70.03125-27.871094-94.023438-78.667969-86.726563-116.695312zm0 0" fill="#1ae5be"/></svg>