<svg height="454pt" viewBox="0 -25 454.00011 454" width="454pt" xmlns="http://www.w3.org/2000/svg"><path d="m104.976562 324.050781c8.78125-8.824219 13.707032-20.769531 13.703126-33.21875v-168.828125c-.003907-3.839844.660156-7.648437 1.964843-11.253906-13.167969 4.757812-21.949219 17.25-21.964843 31.253906v168.828125c.003906 12.449219-4.921876 24.394531-13.703126 33.21875h236.210938c-2.101562-6.507812-3.574219-13.207031-4.398438-20zm0 0" fill="#d4e1f4"/><path d="m71.449219 324.050781h-4.230469c-18.335938-.019531-33.199219-14.878906-33.21875-33.21875v-263.570312c-.003906-3.835938.664062-7.644531 1.964844-11.253907-13.167969 4.757813-21.949219 17.253907-21.964844 31.253907v263.570312c.019531 18.339844 14.882812 33.199219 33.21875 33.21875h4.230469c14.007812-.015625 26.503906-8.796875 31.265625-21.964843-3.613282 1.304687-7.425782 1.96875-11.265625 1.964843zm0 0" fill="#d4e1f4"/><path d="m47.21875 358.011719h277.78125v-14h-240.023438c8.78125-8.828125 13.707032-20.773438 13.703126-33.222657v-168.828124c.019531-18.339844 14.878906-33.199219 33.21875-33.222657h194.871093c18.339844.019531 33.207031 14.878907 33.230469 33.222657v104.050781h14v-104.050781c-.03125-26.070313-21.160156-47.195313-47.230469-47.222657h-2.097656v-1.191406c-.027344-26.070313-21.152344-47.199219-47.222656-47.230469h-75.488281c-.859376.003906-1.675782-.359375-2.253907-.992187l-27.390625-29.957031c-8.953125-9.777344-21.597656-15.3554692-34.855468-15.367188h-90.242188c-26.066406.03125-47.1875 21.152344-47.21875 47.21875v263.570312c.03125 26.066407 21.152344 47.191407 47.21875 47.222657zm-33.21875-310.792969c.019531-18.335938 14.882812-33.199219 33.21875-33.21875h90.242188c9.328124.007812 18.222656 3.933594 24.523437 10.8125l27.375 29.945312c3.230469 3.542969 7.804687 5.5625 12.601563 5.5625h75.488281c18.34375.023438 33.203125 14.886719 33.222656 33.230469v1.1875h-178.773437c-26.066407.03125-47.1875 21.15625-47.21875 47.222657v168.828124c-.023438 18.34375-14.886719 33.203126-33.230469 33.222657h-4.230469c-18.335938-.023438-33.199219-14.882813-33.21875-33.222657zm0 0" fill="#0635c9"/><path d="m319.480469 344.484375-8.824219 51.425781c-.449219 2.628906.632812 5.28125 2.785156 6.847656 2.15625 1.566407 5.015625 1.773438 7.375.53125l46.183594-24.28125 46.183594 24.28125c2.359375 1.242188 5.21875 1.035157 7.375-.53125 2.152344-1.566406 3.234375-4.21875 2.785156-6.847656l-8.824219-51.425781 37.367188-36.421875c1.90625-1.859375 2.59375-4.644531 1.769531-7.175781-.820312-2.535157-3.011719-4.382813-5.648438-4.765625l-51.636718-7.5-23.09375-46.792969c-1.179688-2.390625-3.613282-3.902344-6.277344-3.902344s-5.097656 1.511719-6.277344 3.902344l-23.09375 46.789063-51.636718 7.5c-2.636719.382812-4.828126 2.230468-5.648438 4.765624-.824219 2.535157-.136719 5.316407 1.769531 7.175782zm23.804687-42.542969c2.28125-.328125 4.25-1.761718 5.269532-3.828125l18.445312-37.367187 18.445312 37.371094c1.019532 2.066406 2.988282 3.5 5.269532 3.832031l41.242187 5.992187-29.84375 29.089844c-1.648437 1.609375-2.402343 3.929688-2.011719 6.199219l7.042969 41.078125-36.886719-19.394532c-2.039062-1.074218-4.476562-1.074218-6.515624 0l-36.886719 19.394532 7.042969-41.078125c.390624-2.269531-.363282-4.589844-2.011719-6.199219l-29.84375-29.089844zm0 0" fill="#1ae5be"/></svg>