<svg height="394pt" viewBox="0 -8 394 394" width="394pt" xmlns="http://www.w3.org/2000/svg"><path d="m73.925781 343.128906h-4.46875c-19.574219-.023437-35.433593-15.886718-35.457031-35.457031v-278.214844c0-4.445312.835938-8.851562 2.472656-12.984375-13.546875 5.347656-22.453125 18.421875-22.472656 32.984375v278.214844c.023438 19.570313 15.882812 35.433594 35.457031 35.457031h4.46875c14.566407-.019531 27.640625-8.925781 32.984375-22.472656-4.132812 1.632812-8.539062 2.472656-12.984375 2.472656zm0 0" fill="#d4e1f4"/><path d="m364.542969 343.128906h-256.167969c9.601562-9.296875 15.015625-22.09375 15.011719-35.457031v-178.214844c-.003907-4.445312.835937-8.851562 2.472656-12.984375-13.546875 5.347656-22.457031 18.421875-22.472656 32.984375v178.214844c.003906 13.363281-5.410157 26.160156-15.011719 35.457031h256.167969c14.5625-.019531 27.636719-8.925781 32.984375-22.472656-4.132813 1.632812-8.539063 2.472656-12.984375 2.472656zm0 0" fill="#d4e1f4"/><path d="m341.933594 100v-1.640625c-.03125-27.304687-22.15625-49.429687-49.457032-49.460937h-79.675781c-1.015625 0-1.984375-.425782-2.667969-1.175782l-28.914062-31.632812c-9.378906-10.238282-22.625-16.074219-36.507812-16.089844h-95.253907c-27.300781.03125-49.425781 22.15625-49.457031 49.457031v278.214844c.03125 27.300781 22.15625 49.425781 49.457031 49.457031h295.085938c27.300781-.03125 49.425781-22.15625 49.457031-49.457031v-178.214844c-.03125-27.300781-22.15625-49.425781-49.457031-49.457031zm-288.007813 263.128906h-4.46875c-19.574219-.023437-35.433593-15.886718-35.457031-35.457031v-278.214844c.023438-19.574219 15.882812-35.433593 35.457031-35.457031h95.253907c9.953124.011719 19.449218 4.195312 26.171874 11.535156l28.910157 31.628906c3.339843 3.648438 8.054687 5.726563 13 5.730469h79.679687c19.574219.023438 35.433594 15.886719 35.457032 35.460938v1.640625h-189.085938c-27.300781.03125-49.429688 22.15625-49.457031 49.457031v178.21875c-.023438 19.570313-15.886719 35.433594-35.460938 35.457031zm326.074219-213.671875v178.214844c-.023438 19.570313-15.882812 35.433594-35.457031 35.457031h-256.167969c9.601562-9.296875 15.015625-22.09375 15.011719-35.457031v-178.214844c.019531-19.574219 15.882812-35.433593 35.457031-35.457031h205.699219c19.574219.023438 35.433593 15.886719 35.457031 35.457031zm0 0" fill="#0635c9"/><g fill="#1ae5be"><path d="m266.609375 141.820312c-.011719-.011718-.027344-.019531-.039063-.03125-1.3125-1.355468-3.121093-2.117187-5.007812-2.117187-.160156 0-.3125.015625-.464844.023437-.15625-.011718-.3125-.023437-.46875-.023437h-70.097656c-14.011719.015625-25.363281 11.367187-25.378906 25.378906v147.027344c.015625 14.007813 11.367187 25.363281 25.378906 25.378906h102.324219c14.007812-.015625 25.359375-11.371093 25.375-25.378906v-115.839844c0-1.855469-.738281-3.640625-2.054688-4.953125zm1.953125 21.726563 25.847656 25.800781h-14.472656c-6.28125-.007812-11.371094-5.101562-11.375-11.382812zm24.292969 159.910156h-102.324219c-6.28125-.007812-11.371094-5.097656-11.378906-11.378906v-147.027344c.007812-6.28125 5.097656-11.371093 11.378906-11.378906h64.03125v24.292969c.015625 14.007812 11.367188 25.359375 25.375 25.378906h24.292969v108.734375c-.003907 6.28125-5.09375 11.371094-11.375 11.378906zm0 0"/><path d="m196.988281 233.144531h49.671875c3.867188 0 7-3.132812 7-7 0-3.863281-3.132812-7-7-7h-49.671875c-3.867187 0-7 3.136719-7 7 0 3.867188 3.132813 7 7 7zm0 0"/><path d="m286.398438 253.917969h-89.410157c-3.867187 0-7 3.132812-7 7 0 3.863281 3.132813 7 7 7h89.410157c3.867187 0 7-3.136719 7-7 0-3.867188-3.132813-7-7-7zm0 0"/><path d="m286.398438 288.6875h-89.410157c-3.867187 0-7 3.132812-7 7 0 3.863281 3.132813 7 7 7h89.410157c3.867187 0 7-3.136719 7-7 0-3.867188-3.132813-7-7-7zm0 0"/></g></svg>