<svg height="393pt" viewBox="0 -8 393.98978 393" width="393pt" xmlns="http://www.w3.org/2000/svg"><path d="m336.730469 344.386719h-226.011719c8.054688-7.304688 13.722656-16.867188 16.269531-27.4375l41.191407-123.882813.171874-.597656c.183594-.78125.398438-1.546875.640626-2.300781-10.332032 3.277343-18.171876 11.75-20.640626 22.300781l-.171874.597656-41.191407 123.882813c-2.546875 10.570312-8.214843 20.132812-16.269531 27.4375h226.011719c13.417969-.027344 25.292969-8.699219 29.398437-21.472657-3.035156.976563-6.207031 1.472657-9.398437 1.472657zm0 0" fill="#d4e1f4"/><path d="m349.109375 174.71875h-170.71875c-20.699219-.0625-38.730469 14.089844-43.589844 34.210938l-2.859375 8.597656-14 42.109375-12.960937 38.980469-4.480469 13.472656-6.890625 20.726562-.167969.589844c-1.800781 7.582031-5.75 14.484375-11.371094 19.882812-11.671874 11.097657-28.832031 14.179688-43.640624 7.839844-14.804688-6.34375-24.410157-20.894531-24.429688-37v-240.359375c.019531-18.328125 14.871094-33.183593 33.199219-33.203125h34.859375c3.34375-6.839844 9.441406-11.933594 16.769531-14h-51.628906c-26.054688.027344-47.1718752 21.144532-47.199219 47.203125v240.359375c.0351562 28.851563 22.617188 52.648438 51.429688 54.1875v.070313h265.300781c21.304687-.039063 39.664062-15.023438 43.96875-35.890625l32.300781-113.648438.140625-.558594c2.601563-13.171874-.832031-26.816406-9.359375-37.1875-8.523438-10.375-21.246094-16.382812-34.671875-16.382812zm30.339844 50.589844-32.289063 113.628906-.140625.558594c-2.882812 14.453125-15.554687 24.867187-30.289062 24.890625h-226.011719c8.054688-7.304688 13.722656-16.867188 16.269531-27.4375l41.191407-123.882813.171874-.597656c3.261719-13.945312 15.71875-23.789062 30.039063-23.75h170.71875c9.191406-.003906 17.90625 4.085938 23.773437 11.160156 5.863282 7.078125 8.273438 16.398438 6.566407 25.429688zm0 0" fill="#0635c9"/><path d="m271.800781 59.289062c0 3.863282 3.132813 7 7 7h42.527344v108.429688h14v-115.449219c.003906-1.800781-.691406-3.53125-1.9375-4.832031l-49.53125-51.789062c-.019531-.027344-.042969-.050782-.070313-.070313-.007812-.011719-.019531-.015625-.03125-.027344-.066406-.066406-.136718-.125-.203124-.191406l-.019532-.011719c-.214844-.203125-.445312-.386718-.683594-.558594-.410156-.296874-.855468-.550781-1.324218-.746093-.3125-.128907-.632813-.238281-.960938-.320313-.121094-.03125-.234375-.066406-.351562-.089844-.222656-.046874-.449219-.078124-.675782-.101562h-.023437c-.238281-.023438-.472656-.035156-.710937-.035156h-134.175782c-14.730468.015625-26.671875 11.957031-26.6875 26.6875v8.390625h-11.890625c-2.441406 0-4.871093.335937-7.222656 1-7.328125 2.066406-13.425781 7.160156-16.769531 14-1.789063 3.636719-2.714844 7.636719-2.707032 11.691406v13.929687h-11.332031c-14.734375.015626-26.675781 11.953126-26.691406 26.691407v223.710937c.015625 14.734375 11.957031 26.675782 26.691406 26.691406h14.050781c4.128907-3.933593 7.367188-8.707031 9.488282-14h-23.539063c-7.003906-.007812-12.683593-5.683593-12.691406-12.691406v-223.71875c.007813-7.007812 5.6875-12.683594 12.691406-12.691406h11.332031v195.789062c.015626 12.601563 8.824219 23.480469 21.148438 26.113282l4.480469-13.472656c-6.570313-.554688-11.621094-6.046876-11.628907-12.640626v-223.71875c.007813-7.007812 5.691407-12.683593 12.699219-12.691406h11.890625v210.070313l14-42.109375v-190.347656c.007813-7.007813 5.683594-12.683594 12.6875-12.691407h127.171875zm14-34.363281 26.167969 27.359375h-26.167969zm0 0" fill="#1ae5be"/></svg>