<svg height="434pt" viewBox="0 -1 434 434" width="434pt" xmlns="http://www.w3.org/2000/svg"><path d="m71.449219 324.003906h-4.230469c-18.335938-.019531-33.199219-14.878906-33.21875-33.21875v-263.570312c-.003906-3.835938.664062-7.644532 1.964844-11.253906-13.167969 4.757812-21.949219 17.253906-21.964844 31.253906v263.570312c.019531 18.339844 14.882812 33.199219 33.21875 33.21875h4.230469c14.007812-.015625 26.503906-8.796875 31.265625-21.96875-3.613282 1.304688-7.425782 1.972656-11.265625 1.96875zm0 0" fill="#d4e1f4"/><path d="m104.976562 324.003906c8.78125-8.824218 13.707032-20.769531 13.703126-33.21875v-168.832031c-.003907-3.835937.660156-7.644531 1.964843-11.253906-13.167969 4.761719-21.949219 17.253906-21.964843 31.253906v168.832031c.003906 12.449219-4.921876 24.394532-13.703126 33.21875h230.210938c-2.101562-6.507812-3.574219-13.207031-4.398438-20zm0 0" fill="#d4e1f4"/><path d="m326.769531 94.734375h-2.097656v-1.1875c-.027344-26.070313-21.152344-47.199219-47.222656-47.230469h-75.488281c-.859376 0-1.675782-.359375-2.253907-.996094l-27.390625-29.957031c-8.953125-9.777343-21.597656-15.3515622-34.855468-15.363281h-90.242188c-26.0625.03125-47.1875 21.152344-47.21875 47.214844v263.570312c.03125 26.066406 21.152344 47.191406 47.21875 47.21875h267.78125v-14h-230.023438c8.78125-8.824218 13.707032-20.769531 13.703126-33.21875v-168.832031c.019531-18.335937 14.878906-33.199219 33.21875-33.21875h194.871093c18.339844.019531 33.207031 14.878906 33.230469 33.21875v69.050781h14v-69.050781c-.03125-26.066406-21.160156-47.191406-47.230469-47.21875zm-16.097656 0h-178.773437c-26.066407.03125-47.1875 21.152344-47.21875 47.21875v168.832031c-.023438 18.339844-14.886719 33.203125-33.230469 33.21875h-4.230469c-18.335938-.019531-33.199219-14.878906-33.21875-33.21875v-263.570312c.023438-18.335938 14.882812-33.195313 33.21875-33.214844h90.242188c9.328124.011719 18.222656 3.933594 24.523437 10.8125l27.375 29.945312c3.234375 3.542969 7.804687 5.5625 12.601563 5.5625h75.488281c18.34375.023438 33.203125 14.886719 33.222656 33.230469zm0 0" fill="#0635c9"/><path d="m242.445312 280.566406 67.867188 58.152344v86.152344c0 2.425781 1.253906 4.679687 3.320312 5.957031 2.0625 1.273437 4.636719 1.390625 6.808594.304687l39.375-19.671874c2.371094-1.183594 3.871094-3.609376 3.871094-6.261719v-66.480469l67.867188-58.152344c1.550781-1.332031 2.445312-3.273437 2.445312-5.316406v-64.246094c0-3.863281-3.132812-7-7-7h-180c-3.867188 0-7 3.136719-7 7v64.246094c0 2.042969.894531 3.984375 2.445312 5.316406zm109.6875 49.617188c-1.550781 1.332031-2.445312 3.273437-2.445312 5.316406v65.371094l-25.375 12.679687v-78.050781c0-2.042969-.894531-3.984375-2.445312-5.316406l-67.867188-58.15625v-23.566406h166v23.566406zm67.867188-112.179688v16.457032h-166v-16.457032zm0 0" fill="#1ae5be"/></svg>