<svg height="420pt" viewBox="-4 0 420 420.406" width="420pt" xmlns="http://www.w3.org/2000/svg"><path d="m71.652344 324.003906h-4.230469c-18.335937-.019531-33.199219-14.878906-33.21875-33.21875v-263.570312c-.003906-3.835938.664063-7.644532 1.964844-11.253906-13.167969 4.757812-21.949219 17.253906-21.964844 31.253906v263.570312c.019531 18.339844 14.882813 33.199219 33.21875 33.21875h4.230469c14.007812-.015625 26.503906-8.796875 31.265625-21.96875-3.613281 1.304688-7.425781 1.972656-11.265625 1.96875zm0 0" fill="#d4e1f4"/><path d="m105.179688 324.003906c8.78125-8.824218 13.707031-20.769531 13.703124-33.21875v-168.832031c-.003906-3.835937.660157-7.644531 1.964844-11.253906-13.167968 4.761719-21.949218 17.253906-21.964844 31.253906v168.832031c.003907 12.449219-4.921874 24.394532-13.703124 33.21875h150.210937c-2.101563-6.507812-3.574219-13.207031-4.398437-20zm0 0" fill="#d4e1f4"/><path d="m47.421875 358.003906h188.78125v-14h-151.023437c8.78125-8.824218 13.707031-20.769531 13.703124-33.21875v-168.832031c.019532-18.335937 14.878907-33.199219 33.21875-33.21875h194.871094c18.339844.019531 33.207032 14.878906 33.230469 33.21875v101.050781h14v-101.050781c-.03125-26.066406-21.160156-47.191406-47.230469-47.21875h-2.101562v-1.1875c-.023438-26.070313-21.148438-47.199219-47.21875-47.230469h-75.488282c-.859374 0-1.675781-.359375-2.253906-.996094l-27.390625-29.957031c-8.953125-9.777343-21.597656-15.3515622-34.855469-15.363281h-90.242187c-26.0625.03125-47.1875 21.152344-47.21875 47.214844v263.570312c.03125 26.066406 21.152344 47.191406 47.21875 47.21875zm-33.21875-310.789062c.023437-18.335938 14.882813-33.195313 33.21875-33.214844h90.242187c9.328126.011719 18.222657 3.933594 24.523438 10.8125l27.375 29.945312c3.230469 3.542969 7.804688 5.5625 12.601562 5.5625h75.488282c18.34375.023438 33.203125 14.886719 33.21875 33.230469v1.1875h-178.769532c-26.066406.03125-47.1875 21.15625-47.21875 47.222657v168.828124c-.023437 18.34375-14.886718 33.203126-33.230468 33.222657h-4.230469c-18.339844-.023438-33.203125-14.886719-33.21875-33.226563zm0 0" fill="#0635c9"/><path d="m238.703125 420.40625c3.867187 0 7-3.132812 7-7v-111.800781h47.101563v25.59375c0 3.867187 3.132812 7 7 7h105.898437c2.585937 0 4.960937-1.425781 6.179687-3.707031 1.214844-2.285157 1.074219-5.050782-.371093-7.199219l-24.609375-36.597657 24.734375-39.519531c1.351562-2.160156 1.421875-4.878906.191406-7.105469-1.234375-2.226562-3.578125-3.609374-6.125-3.609374h-58.214844v-27.859376c0-3.867187-3.132812-7-7-7h-101.785156c-3.867187 0-7 3.132813-7 7v204.796876c-.003906 3.871093 3.132813 7.007812 7 7.007812zm154.359375-169.945312-20.4375 32.65625c-1.464844 2.339843-1.414062 5.328124.125 7.617187l19.8125 29.464844h-85.757812v-18.59375h33.6875c3.867187 0 7-3.132813 7-7v-44.144531zm-147.359375-34.859376h87.785156v72h-87.785156zm0 0" fill="#1ae5be"/></svg>