<svg height="444pt" viewBox="0 -13 444.00153 444" width="444pt" xmlns="http://www.w3.org/2000/svg"><path d="m71.449219 324.003906h-4.230469c-18.335938-.019531-33.199219-14.878906-33.21875-33.21875v-263.570312c-.003906-3.835938.664062-7.644532 1.964844-11.253906-13.167969 4.757812-21.949219 17.253906-21.964844 31.253906v263.570312c.019531 18.339844 14.882812 33.199219 33.21875 33.21875h4.230469c14.007812-.011718 26.503906-8.796875 31.265625-21.964844-3.613282 1.304688-7.425782 1.96875-11.265625 1.964844zm0 0" fill="#d4e1f4"/><path d="m104.976562 324.003906c8.78125-8.824218 13.707032-20.769531 13.703126-33.21875v-168.828125c-.003907-3.839843.660156-7.648437 1.964843-11.253906-13.167969 4.757813-21.949219 17.25-21.964843 31.253906v168.828125c.003906 12.449219-4.921876 24.394532-13.703126 33.21875h150.238282c-2.113282-6.507812-3.59375-13.203125-4.421875-20zm0 0" fill="#d4e1f4"/><path d="m51.449219 358.003906h194.550781v-14h-161.023438c8.78125-8.824218 13.707032-20.769531 13.703126-33.21875v-168.828125c.019531-18.339843 14.878906-33.199219 33.21875-33.222656h194.871093c18.339844.019531 33.207031 14.878906 33.230469 33.222656v74.046875h14v-74.046875c-.03125-26.070312-21.160156-47.195312-47.230469-47.222656h-2.097656v-1.1875c-.027344-26.070313-21.152344-47.199219-47.222656-47.230469h-75.488281c-.859376 0-1.675782-.359375-2.253907-.992187l-27.390625-29.960938c-8.953125-9.777343-21.597656-15.3515622-34.855468-15.363281h-90.242188c-26.0625.03125-47.1875 21.152344-47.21875 47.214844v263.570312c.03125 26.066406 21.152344 47.191406 47.21875 47.21875zm-37.449219-47.21875v-263.570312c.023438-18.335938 14.882812-33.195313 33.21875-33.214844h90.242188c9.328124.011719 18.222656 3.933594 24.523437 10.8125l27.375 29.945312c3.230469 3.542969 7.804687 5.5625 12.601563 5.5625h75.488281c18.34375.023438 33.203125 14.890626 33.222656 33.230469v1.191407h-178.773437c-26.066407.027343-47.1875 21.152343-47.21875 47.21875v168.828124c-.023438 18.34375-14.886719 33.203126-33.230469 33.222657h-4.230469c-18.339844-.019531-33.199219-14.886719-33.21875-33.226563zm0 0" fill="#0635c9"/><g fill="#1ae5be"><path d="m346.339844 339.746094-16.238282 16.3125c-10.539062 10.539062-27.621093 10.539062-38.15625 0-10.535156-10.535156-10.535156-27.617188 0-38.152344l16.3125-16.238281c2.742188-2.726563 2.75-7.160157.023438-9.898438-2.726562-2.742187-7.160156-2.753906-9.898438-.023437l-16.316406 16.238281c-11.757812 11.703125-15.296875 29.34375-8.964844 44.679687 6.332032 15.335938 21.285157 25.339844 37.875 25.339844h.050782c10.890625.019532 21.335937-4.324218 29-12.066406l16.238281-16.316406c2.726563-2.738282 2.714844-7.171875-.023437-9.898438-2.738282-2.726562-7.171876-2.714844-9.898438.023438zm0 0"/><path d="m363.023438 244.003906h-.050782c-10.890625-.015625-21.335937 4.328125-29 12.070313l-16.234375 16.316406c-1.792969 1.765625-2.496093 4.359375-1.847656 6.789063.648437 2.433593 2.554687 4.328124 4.988281 4.96875 2.433594.636718 5.023438-.082032 6.78125-1.882813l16.238282-16.3125c5.046874-5.097656 11.921874-7.960937 19.089843-7.949219h.035157c10.921874 0 20.765624 6.589844 24.9375 16.683594 4.167968 10.097656 1.835937 21.710938-5.90625 29.417969l-16.316407 16.238281c-2.738281 2.726562-2.75 7.160156-.019531 9.898438 2.726562 2.742187 7.15625 2.753906 9.898438.023437l16.3125-16.238281c11.761718-11.703125 15.300781-29.34375 8.96875-44.679688-6.332032-15.335937-21.285157-25.339844-37.875-25.34375zm0 0"/><path d="m307.398438 340.601562c2.734374 2.734376 7.167968 2.734376 9.902343 0l49.300781-49.296874c2.730469-2.734376 2.730469-7.164063 0-9.898438-2.734374-2.734375-7.167968-2.734375-9.902343 0l-49.300781 49.292969c-2.734376 2.734375-2.734376 7.167969 0 9.902343zm0 0"/><path d="m337 204.003906c-59.09375 0-107 47.90625-107 107 0 59.097656 47.90625 107 107 107s107-47.902344 107-107c.152344-28.421875-11.070312-55.726562-31.171875-75.828125-20.097656-20.097656-47.402344-31.324219-75.828125-31.171875zm0 200c-51.363281 0-93-41.636718-93-93 0-51.359375 41.636719-93 93-93s93 41.640625 93 93c0 51.363282-41.636719 93-93 93zm0 0"/></g></svg>