<svg height="419pt" viewBox="-2 0 419 419.62953" width="419pt" xmlns="http://www.w3.org/2000/svg"><g fill="#d4e1f4"><path d="m200.515625 369.070312h-3.039063c-12.097656-.011718-21.902343-9.8125-21.917968-21.90625v-189.449218c0-.617188.03125-1.222656.082031-1.824219-11.34375.960937-20.0625 10.4375-20.082031 21.824219v161.257812l13.855468 13.929688-13.855468 14.261718c.015625 12.09375 9.820312 21.894532 21.917968 21.90625h3.039063c11.386719-.011718 20.871094-8.738281 21.832031-20.082031-.605468.050781-1.214844.082031-1.832031.082031zm0 0"/><path d="m398.40625 369.070312h-169.453125c.070313-.085937.132813-.175781.203125-.265624.105469-.144532.214844-.292969.324219-.4375.214843-.292969.421875-.585938.628906-.886719.101563-.152344.210937-.300781.3125-.457031.210937-.316407.417969-.640626.621094-.964844.082031-.132813.164062-.261719.246093-.402344.558594-.921875 1.074219-1.871094 1.550782-2.847656.0625-.132813.125-.273438.1875-.40625.167968-.355469.332031-.710938.488281-1.070313.070313-.171875.144531-.34375.214844-.515625.136719-.339844.273437-.675781.398437-1.019531.066406-.175781.132813-.355469.199219-.53125.132813-.363281.253906-.726563.371094-1.09375l.152343-.46875c.320313-1.046875.597657-2.113281.824219-3.199219.035157-.164062.0625-.328125.09375-.492187.074219-.378907.144531-.761719.203125-1.148438.03125-.199219.058594-.398437.085938-.597656.054687-.363281.097656-.726563.140625-1.085937.023437-.207032.046875-.410157.066406-.617188.035156-.382812.0625-.769531.085937-1.15625.011719-.183594.027344-.359375.035157-.542969.027343-.566406.042969-1.132812.042969-1.707031v-121.351562c0-.613282.03125-1.21875.082031-1.824219-11.34375.960937-20.066407 10.441406-20.082031 21.824219v121.359374c0 .570313-.015626 1.140626-.042969 1.707032-.007813.179687-.023438.359375-.035157.539062-.023437.390625-.050781.777344-.085937 1.160156-.019531.207032-.042969.410157-.066406.613282-.042969.363281-.089844.726562-.140625 1.085937-.027344.203125-.054688.402344-.085938.601563-.0625.386718-.132812.765625-.203125 1.148437-.03125.164063-.058593.328125-.09375.492188-.226562 1.082031-.5 2.148437-.824219 3.199219-.046874.15625-.101562.3125-.152343.46875-.117188.367187-.238281.730468-.371094 1.09375-.066406.175781-.132813.355468-.199219.53125-.128906.339843-.261718.679687-.398437 1.015624-.070313.171876-.144531.347657-.214844.519532-.15625.359375-.320313.714844-.488281 1.066406-.0625.136719-.125.273438-.1875.410156-.476563.972656-.992188 1.925782-1.550782 2.847656-.082031.136719-.164062.265626-.246093.402344-.203125.324219-.410157.648438-.621094.964844-.101563.152344-.207031.300781-.3125.457031-.203125.296875-.414063.59375-.628906.886719-.109375.144531-.21875.292969-.324219.4375-.066406.085938-.128906.175781-.203125.265625h169.453125c11.386719-.015625 20.867188-8.738281 21.828125-20.082031-.605469.042968-1.210937.074218-1.828125.074218zm0 0"/><path d="m59.269531 227.824219h-3.039062c-12.097657-.011719-21.902344-9.8125-21.914063-21.910157v-189.441406c0-.617187.03125-1.230468.082032-1.832031-11.347657.964844-20.070313 10.445313-20.082032 21.832031v189.441406c.011719 12.097657 9.816406 21.902344 21.914063 21.914063h3.039062c11.386719-.015625 20.863281-8.738281 21.824219-20.082031-.601562.046875-1.207031.078125-1.824219.078125zm0 0"/><path d="m87.6875 227.824219c4.863281-6.269531 7.496094-13.980469 7.492188-21.914063v-121.347656c0-.617188.03125-1.222656.078124-1.824219-11.339843.960938-20.0625 10.441407-20.078124 21.824219v121.351562c.003906 7.933594-2.628907 15.644532-7.492188 21.914063h73.871094v-20zm0 0"/></g><path d="m36.230469 261.269531h112.328125v-14h-80.871094c4.863281-6.273437 7.496094-13.980469 7.492188-21.917969v-121.347656c.015624-12.09375 9.820312-21.894531 21.914062-21.90625h140.070312c12.09375.015625 21.894532 9.816406 21.90625 21.90625v56.261719h14v-56.261719c-.023437-19.648437-15.820312-35.636718-35.464843-35.898437-.625-19.386719-16.507813-34.785157-35.902344-34.804688h-54.253906c-.0625 0-.125-.027343-.164063-.074219l-19.6875-21.535156c-6.808594-7.445312-16.425781-11.68749975-26.511718-11.691406h-64.855469c-19.824219.0234375-35.890625 16.085938-35.914063 35.914062v189.4375c.019532 19.828126 16.085938 35.894532 35.914063 35.917969zm-21.914063-225.355469c.011719-12.097656 9.816406-21.902343 21.914063-21.914062h64.855469c6.152343.003906 12.019531 2.589844 16.171874 7.132812l19.691407 21.535157c2.695312 2.945312 6.503906 4.625 10.5 4.628906h54.253906c11.667969.011719 21.28125 9.152344 21.886719 20.800781h-126.5c-19.820313.019532-35.886719 16.082032-35.914063 35.90625v121.347656c-.011719 12.097657-9.8125 21.902344-21.90625 21.917969h-3.039062c-12.097657-.015625-21.902344-9.820312-21.914063-21.917969zm0 0" fill="#0635c9"/><path d="m378.835938 209.351562c-.617188-19.382812-16.496094-34.785156-35.890626-34.804687h-54.25c-.0625-.003906-.117187-.03125-.160156-.070313l-19.703125-21.558593c-6.8125-7.421875-16.421875-11.648438-26.5-11.660157h-64.855469c-19.824218.015626-35.894531 16.074219-35.921874 35.898438v127.898438l-17.277344-17.363282c-2-2.007812-5.011719-2.613281-7.632813-1.535156-2.621093 1.082031-4.328125 3.636719-4.328125 6.46875v30.128906c-13.445312.472656-40.175781-3.734375-61.476562-39.152344l-3.609375-6.03125c-1.503907-2.507812-4.40625-3.816406-7.28125-3.285156-2.875.535156-5.113281 2.796875-5.617188 5.679688l-1.210937 6.9375c-.0625.363281-.097656.734375-.101563 1.101562.003907-.261718.023438-.519531.054688-.777344-1.199219 8.023438-5.347657 49.515626 31.203125 79.953126 5.660156 5.460937 22.222656 15.074218 48.042968 16.414062v29.035156c0 2.828125 1.699219 5.378906 4.3125 6.464844 2.609376 1.085938 5.621094.492188 7.625-1.503906l26.800782-26.664063c6.792968 7.390625 16.375 11.59375 26.417968 11.585938h3.039063.113281 197.777344c19.824219-.019531 35.886719-16.085938 35.910156-35.90625v-121.355469c-.027344-19.652344-15.828125-35.644531-35.480468-35.898438zm-259.519532 160.394532h-.910156c-30.160156 0-44.082031-12.351563-44.558594-12.785156-.136718-.136719-.273437-.261719-.417968-.375-21.441407-17.75-26.285157-40.429688-26.988282-54.5 28.589844 37.722656 63.324219 35.652343 73.988282 33.929687 3.390624-.546875 5.886718-3.472656 5.886718-6.910156v-19.519531l43.097656 43.316406-43.097656 42.882812v-19.039062c0-3.863282-3.136718-7-7-7zm58.160156 18.765625c-6.320312.003906-12.332031-2.722657-16.488281-7.476563l23.265625-23.148437c2.738282-2.730469 2.75-7.160157.023438-9.902344l-28.722656-28.859375v-141.96875c.019531-12.09375 9.824218-21.890625 21.921874-21.898438h64.859376c6.148437.003907 12.015624 2.585938 16.175781 7.117188l19.683593 21.539062c2.695313 2.945313 6.503907 4.625 10.5 4.628907h54.25c11.664063.011719 21.285157 9.148437 21.890626 20.800781h-126.5c-19.820313.023438-35.882813 16.085938-35.90625 35.90625v121.355469c-.015626 12.097656-9.820313 21.894531-21.914063 21.90625zm222.839844-21.90625c-.015625 12.09375-9.816406 21.894531-21.910156 21.90625h-169.453125c.042969-.050781.078125-.105469.117187-.15625.179688-.234375.351563-.46875.523438-.699219.136719-.191406.273438-.378906.40625-.574219.167969-.238281.335938-.480469.5-.726562.128906-.195313.253906-.390625.378906-.589844.160156-.25.316406-.5.46875-.75.117188-.199219.230469-.398437.34375-.59375.273438-.480469.539063-.96875.792969-1.460937.101563-.199219.210937-.398438.3125-.601563.128906-.265625.25-.535156.375-.804687.101563-.214844.199219-.425782.289063-.644532.121093-.269531.234374-.546875.34375-.820312.089843-.21875.179687-.4375.261718-.660156.105469-.277344.210938-.558594.3125-.839844.078125-.222656.152344-.445313.226563-.667969.09375-.285156.191406-.574219.28125-.863281.066406-.214844.121093-.429688.183593-.648438.15625-.554687.304688-1.121094.4375-1.691406.050782-.214844.097657-.433594.148438-.652344.066406-.300781.121094-.601562.175781-.910156.042969-.230469.085938-.464844.125-.699219.050781-.304687.09375-.609375.136719-.917969.03125-.234374.0625-.476562.089844-.714843.039062-.308594.070312-.617188.101562-.929688.023438-.238281.039063-.480469.054688-.71875.023437-.316406.046875-.632812.058594-.949219.011718-.230468.011718-.460937.019531-.6875.007812-.308593.023437-.613281.023437-.921874v-121.371094c.011719-12.089844 9.808594-21.886719 21.898438-21.898438h140.222656c12.03125.097656 21.738281 9.871094 21.753906 21.902344zm0 0" fill="#1ae5be"/></svg>