<svg height="415pt" viewBox="0 -6 415.84602 415" width="415pt" xmlns="http://www.w3.org/2000/svg"><g fill="#d4e1f4"><path d="m202.046875 368.9375h-3.039063c-12.097656-.011719-21.902343-9.8125-21.917968-21.90625v-189.453125c0-.613281.03125-1.21875.082031-1.820313-11.34375.960938-20.0625 10.4375-20.082031 21.820313v189.453125c.015625 12.09375 9.820312 21.894531 21.917968 21.90625h3.039063c11.386719-.011719 20.871094-8.738281 21.832031-20.082031-.605468.050781-1.214844.082031-1.832031.082031zm0 0"/><path d="m399.9375 368.9375h-169.453125c.070313-.085938.132813-.175781.203125-.265625.105469-.144531.214844-.292969.324219-.4375.214843-.292969.421875-.589844.628906-.886719.101563-.152344.210937-.300781.3125-.457031.210937-.316406.417969-.640625.621094-.964844.082031-.132812.164062-.265625.246093-.402343.558594-.921876 1.074219-1.871094 1.550782-2.847657.0625-.136719.125-.273437.1875-.40625.167968-.355469.332031-.710937.488281-1.070312.070313-.171875.144531-.34375.214844-.515625.136719-.339844.273437-.675782.398437-1.019532.066406-.175781.132813-.355468.199219-.53125.132813-.363281.253906-.726562.371094-1.09375.050781-.15625.101562-.3125.152343-.46875.320313-1.046874.597657-2.113281.824219-3.199218.035157-.164063.0625-.328125.09375-.492188.074219-.382812.144531-.761718.203125-1.148437.03125-.199219.058594-.398438.085938-.597657.054687-.363281.097656-.726562.140625-1.085937.023437-.207031.046875-.410156.066406-.617187.035156-.382813.0625-.769532.085937-1.15625.011719-.183594.027344-.363282.035157-.542969.027343-.566407.042969-1.132813.042969-1.707031v-121.351563c0-.613281.03125-1.222656.082031-1.824219-11.34375.960938-20.066407 10.441406-20.082031 21.824219v121.359375c0 .570312-.015626 1.140625-.042969 1.707031-.007813.179688-.023438.359375-.035157.539063-.023437.390625-.050781.777344-.085937 1.160156-.019531.207031-.042969.410156-.066406.613281-.042969.363281-.089844.726563-.140625 1.085938-.027344.203125-.054688.402343-.085938.601562-.0625.382813-.132812.765625-.203125 1.148438-.03125.164062-.058593.328125-.09375.492187-.226562 1.082032-.5 2.148438-.824219 3.199219-.046874.15625-.101562.3125-.152343.46875-.117188.363281-.238281.730469-.371094 1.09375-.066406.175781-.132813.355469-.199219.53125-.128906.339844-.261718.679687-.398437 1.015625-.070313.171875-.144531.347656-.214844.515625-.15625.363281-.320313.71875-.488281 1.070313-.0625.136718-.125.273437-.1875.410156-.476563.972656-.992188 1.921875-1.550782 2.847656-.082031.132812-.164062.265625-.246093.402344-.203125.324218-.40625.648437-.621094.964844-.101563.152343-.207031.300781-.3125.457031-.203125.296875-.414063.59375-.628906.886719-.109375.144531-.21875.292968-.324219.4375-.066406.085937-.128906.175781-.203125.265624h169.453125c11.386719-.015624 20.867188-8.738281 21.828125-20.082031-.605469.042969-1.210937.074219-1.828125.074219zm0 0"/><path d="m60.800781 227.691406h-3.039062c-12.097657-.011718-21.902344-9.8125-21.914063-21.910156v-189.441406c0-.617188.03125-1.230469.082032-1.832032-11.347657.960938-20.070313 10.445313-20.082032 21.832032v189.441406c.011719 12.097656 9.816406 21.902344 21.914063 21.914062h3.039062c11.386719-.015624 20.863281-8.738281 21.824219-20.082031-.601562.046875-1.207031.078125-1.824219.078125zm0 0"/><path d="m89.21875 227.691406c4.863281-6.269531 7.496094-13.980468 7.492188-21.914062v-121.347656c0-.617188.03125-1.222657.082031-1.824219-11.34375.960937-20.066407 10.441406-20.082031 21.824219v121.351562c.003906 7.933594-2.628907 15.644531-7.492188 21.914062h73.871094v-20zm0 0"/></g><path d="m37.761719 261.691406h112.328125v-14h-80.871094c4.863281-6.269531 7.496094-13.980468 7.492188-21.914062v-121.347656c.015624-12.097657 9.820312-21.894532 21.914062-21.90625h140.070312c12.09375.011718 21.894532 9.8125 21.90625 21.90625v56.261718h14v-56.261718c-.023437-19.648438-15.820312-35.636719-35.464843-35.902344-.625-19.382813-16.507813-34.78125-35.902344-34.804688h-54.253906c-.0625 0-.121094-.023437-.164063-.070312l-19.6875-21.539063c-6.808594-7.441406-16.425781-11.683593-26.511718-11.691406h-64.855469c-19.828125.023437-35.894531 16.089844-35.914063 35.917969v189.441406c.023438 19.824219 16.089844 35.886719 35.914063 35.910156zm-21.914063-225.351562c.011719-12.097656 9.816406-21.902344 21.914063-21.917969h64.855469c6.152343.003906 12.019531 2.59375 16.171874 7.132813l19.691407 21.539062c2.695312 2.945312 6.503906 4.625 10.5 4.625h54.253906c11.667969.015625 21.28125 9.152344 21.886719 20.800781h-126.5c-19.820313.019531-35.890625 16.082031-35.914063 35.90625v121.355469c-.011719 12.09375-9.8125 21.898438-21.90625 21.914062h-3.039062c-12.097657-.011718-21.902344-9.816406-21.914063-21.914062zm0 0" fill="#0635c9"/><path d="m380.367188 209.78125c-.617188-19.382812-16.496094-34.777344-35.886719-34.800781h-54.253907c-.0625-.003907-.125-.03125-.164062-.078125l-19.691406-21.546875c-6.808594-7.429688-16.421875-11.664063-26.5-11.675781h-64.863282c-19.824218.019531-35.890624 16.078124-35.917968 35.898437v189.453125c.027344 19.824219 16.09375 35.886719 35.917968 35.90625h200.929688c19.824219-.023438 35.886719-16.085938 35.910156-35.90625v-121.359375c-.027344-19.648437-15.832031-35.636719-35.480468-35.890625zm-201.359376 179.15625c-12.097656-.011719-21.902343-9.8125-21.917968-21.90625v-189.453125c.019531-12.089844 9.824218-21.886719 21.917968-21.898437h64.863282c6.148437.007812 12.015625 2.589843 16.171875 7.121093l19.679687 21.539063c2.695313 2.949218 6.507813 4.632812 10.5 4.636718h54.257813c11.660156.011719 21.277343 9.144532 21.886719 20.792969h-126.5c-19.824219.023438-35.886719 16.085938-35.90625 35.90625v121.355469c-.019532 12.09375-9.820313 21.894531-21.914063 21.90625zm222.839844-21.90625c-.015625 12.09375-9.816406 21.890625-21.910156 21.90625h-169.453125c.070313-.085938.132813-.175781.203125-.265625.105469-.144531.214844-.292969.324219-.4375.214843-.292969.421875-.589844.628906-.886719.101563-.152344.210937-.300781.3125-.457031.210937-.316406.417969-.640625.621094-.964844.082031-.132812.164062-.265625.246093-.402343.558594-.921876 1.074219-1.871094 1.550782-2.847657.0625-.136719.125-.273437.1875-.40625.167968-.355469.332031-.710937.488281-1.070312.070313-.171875.144531-.34375.214844-.515625.136719-.339844.273437-.675782.398437-1.019532.066406-.175781.132813-.355468.199219-.53125.132813-.363281.253906-.726562.371094-1.09375.050781-.15625.101562-.3125.152343-.46875.320313-1.046874.597657-2.113281.824219-3.199218.035157-.164063.0625-.328125.09375-.492188.074219-.382812.144531-.761718.203125-1.148437.03125-.199219.058594-.398438.085938-.597657.054687-.363281.097656-.726562.140625-1.085937.023437-.207031.046875-.410156.066406-.617187.035156-.382813.0625-.769532.085937-1.15625.011719-.183594.027344-.363282.035157-.542969.027343-.566407.042969-1.132813.042969-1.707031v-121.351563c.011718-12.09375 9.8125-21.894531 21.90625-21.90625h140.070312c12.09375.011719 21.894531 9.8125 21.910156 21.90625zm0 0" fill="#1ae5be"/><path d="m92.660156 308.128906c-2.6875-2.746094-7.089844-2.808594-9.855468-.140625-2.769532 2.667969-2.867188 7.066407-.222657 9.855469l17.398438 18.058594h-39.601563c-12.324218-.007813-24.140625-4.917969-32.839844-13.648438-8.699218-8.730468-13.570312-20.566406-13.539062-32.890625 0-1.851562-.742188-3.628906-2.054688-4.933593-1.3125-1.304688-3.09375-2.035157-4.945312-2.023438-3.871094.019531-7 3.160156-7 7.035156-.0117188 16.039063 6.351562 31.421875 17.691406 42.765625 11.34375 11.339844 26.726563 17.707031 42.765625 17.695313h40.53125l-18.386719 18.917968c-2.695312 2.773438-2.628906 7.207032.140626 9.902344 2.773437 2.695313 7.207031 2.628906 9.902343-.144531l29.378907-30.222656c2.632812-2.710938 2.640624-7.019531.019531-9.738281zm0 0" fill="#1ae5be"/></svg>