<svg height="424pt" viewBox="0 -3 424 423" width="424pt" xmlns="http://www.w3.org/2000/svg"><path d="m134.109375 208.957031h-3.058594c-12.171875-.015625-22.035156-9.878906-22.050781-22.050781v-170.355469c0-.660156.035156-1.3125.09375-1.960937-11.367188 1.027344-20.078125 10.546875-20.09375 21.960937v170.355469c.015625 12.171875 9.878906 22.035156 22.050781 22.050781h3.058594c11.410156-.015625 20.929687-8.726562 21.957031-20.09375-.644531.058594-1.296875.09375-1.957031.09375zm0 0" fill="#d4e1f4"/><path d="m332.949219 208.957031h-170.339844c4.902344-6.304687 7.558594-14.066406 7.546875-22.050781v-101.933594c0-.660156.035156-1.316406.09375-1.960937-11.367188 1.027343-20.078125 10.546875-20.09375 21.960937v101.933594c.011719 7.984375-2.644531 15.746094-7.546875 22.050781h170.339844c11.414062-.015625 20.933593-8.726562 21.957031-20.09375-.644531.058594-1.296875.09375-1.957031.09375zm0 0" fill="#d4e1f4"/><path d="m386.492188 324.34375v-40.117188c0-3.863281-3.136719-7-7-7h-160.492188v-45h-14v45h-157.832031c-3.863281 0-7 3.136719-7 7v39.707032c-22.582031 2.753906-40.167969 22.765625-40.167969 46.980468 0 26.089844 20.410156 47.3125 45.5 47.3125s45.5-21.222656 45.5-47.3125c0-23-15.871094-42.21875-36.824219-46.441406v-33.246094h318.316407v32.800782c-22.257813 3.070312-39.488282 22.921875-39.488282 46.890625 0 26.089843 20.410156 47.3125 45.5 47.3125s45.496094-21.226563 45.496094-47.316407c0-23.25-16.21875-42.632812-37.507812-46.570312zm-309.492188 46.570312c0 18.367188-14.128906 33.3125-31.5 33.3125s-31.5-14.945312-31.5-33.3125c0-18.371093 14.128906-33.316406 31.5-33.316406s31.5 14.945313 31.5 33.316406zm301.5 33.3125c-17.367188 0-31.5-14.945312-31.5-33.3125 0-18.371093 14.128906-33.316406 31.5-33.316406s31.5 14.945313 31.5 33.316406c0 18.367188-14.128906 33.3125-31.5 33.3125zm0 0" fill="#1ae5be"/><path d="m313.359375 68.921875c-.609375-19.46875-16.554687-34.941406-36.035156-34.964844h-54.515625c-.074219 0-.144532-.03125-.195313-.085937l-19.78125-21.640625c-6.835937-7.464844-16.488281-11.71875-26.609375-11.730469h-65.171875c-19.902343.023438-36.027343 16.148438-36.050781 36.050781v170.355469c.023438 19.898438 16.148438 36.027344 36.050781 36.050781h201.898438c19.902343-.023437 36.027343-16.152343 36.050781-36.050781v-101.933594c-.023438-19.742187-15.902344-35.804687-35.640625-36.050781zm-177.199219 137.984375c-.015625 12.171875-9.878906 22.035156-22.050781 22.050781h-3.058594c-12.171875-.015625-22.035156-9.878906-22.050781-22.050781v-170.355469c.011719-12.171875 9.878906-22.035156 22.050781-22.050781h65.171875c6.191406.007812 12.097656 2.609375 16.277344 7.175781l19.78125 21.640625c2.703125 2.953125 6.523438 4.636719 10.527344 4.640625h54.515625c11.75.015625 21.433593 9.230469 22.027343 20.964844h-127.140624c-19.902344.019531-36.03125 16.148437-36.054688 36.050781zm198.839844 0c-.011719 12.171875-9.878906 22.035156-22.050781 22.050781h-170.339844c4.902344-6.304687 7.558594-14.066406 7.546875-22.050781v-101.933594c.015625-12.175781 9.878906-22.039062 22.054688-22.050781h140.738281c12.171875.011719 22.035156 9.878906 22.050781 22.050781zm0 0" fill="#0635c9"/></svg>