<svg height="394pt" viewBox="0 -8 394 394" width="394pt" xmlns="http://www.w3.org/2000/svg"><path d="m374.542969 333.128906h-256.171875c9.605468-9.296875 15.019531-22.09375 15.015625-35.457031v-178.214844c0-1.703125.125-3.402343.371093-5.085937-17.425781 2.546875-30.347656 17.480468-30.371093 35.085937v178.214844c.003906 13.363281-5.410157 26.160156-15.015625 35.457031h256.171875c17.605469-.023437 32.539062-12.949218 35.085937-30.371094-1.683594.246094-3.382812.367188-5.085937.371094zm0 0" fill="#d4e1f4"/><path d="m83.925781 333.128906h-4.46875c-19.574219-.023437-35.433593-15.886718-35.457031-35.457031v-278.214844c0-1.703125.125-3.402343.371094-5.085937-17.425782 2.546875-30.347656 17.480468-30.371094 35.085937v278.214844c.023438 19.570313 15.882812 35.433594 35.457031 35.457031h4.46875c17.609375-.023437 32.539063-12.949218 35.089844-30.371094-1.6875.246094-3.386719.367188-5.089844.371094zm0 0" fill="#d4e1f4"/><path d="m344.542969 377.128906c27.300781-.03125 49.425781-22.15625 49.457031-49.457031v-178.214844c-.03125-27.300781-22.15625-49.425781-49.457031-49.457031h-2.609375v-1.644531c-.03125-27.300781-22.15625-49.425781-49.457032-49.457031h-79.675781c-1.015625 0-1.984375-.425782-2.667969-1.175782l-28.914062-31.632812c-9.378906-10.238282-22.625-16.074219-36.507812-16.089844h-95.253907c-27.300781.03125-49.425781 22.15625-49.457031 49.457031v278.214844c.03125 27.300781 22.15625 49.425781 49.457031 49.457031zm0-263.128906c19.574219.023438 35.433593 15.882812 35.457031 35.457031v178.214844c-.023438 19.570313-15.882812 35.433594-35.457031 35.457031h-256.171875c9.605468-9.296875 15.019531-22.09375 15.015625-35.457031v-178.214844c.019531-19.574219 15.882812-35.433593 35.457031-35.457031zm-330.542969 213.671875v-278.214844c.023438-19.574219 15.882812-35.433593 35.457031-35.457031h95.253907c9.953124.011719 19.449218 4.195312 26.171874 11.535156l28.910157 31.628906c3.339843 3.648438 8.054687 5.726563 13 5.730469h79.679687c19.574219.023438 35.433594 15.886719 35.457032 35.457031v1.644532h-189.085938c-27.300781.03125-49.425781 22.15625-49.457031 49.457031v178.21875c-.023438 19.570313-15.886719 35.433594-35.460938 35.457031h-4.46875c-19.574219-.023437-35.433593-15.886718-35.457031-35.457031zm0 0" fill="#0635c9"/></svg>