<svg height="437pt" viewBox="0 -11 437 437" width="437pt" xmlns="http://www.w3.org/2000/svg"><path d="m68.988281 380.347656h-4c-17.105469-.019531-30.96875-13.882812-30.988281-30.988281v-248.925781c0-3.226563.503906-6.429688 1.492188-9.5-12.796876 4.136718-21.476563 16.046875-21.492188 29.5v248.925781c.019531 17.105469 13.882812 30.96875 30.988281 30.988281h4c13.453125-.015625 25.363281-8.695312 29.5-21.492187-3.070312.992187-6.273437 1.496093-9.5 1.492187zm0 0" fill="#d4e1f4"/><path d="m329.011719 380.347656h-227.4375c7.964843-8.347656 12.40625-19.449218 12.398437-30.988281v-159.453125c0-3.226562.503906-6.429688 1.496094-9.5-12.800781 4.136719-21.480469 16.046875-21.496094 29.5v159.453125c.007813 11.539063-4.433594 22.640625-12.398437 30.988281h227.4375c13.449219-.015625 25.359375-8.695312 29.496093-21.492187-3.070312.988281-6.273437 1.492187-9.496093 1.492187zm0 0" fill="#d4e1f4"/><path d="m161.761719 93.210938v14h232.484375c15.875.015624 28.734375 12.878906 28.753906 28.753906v170.074218c-.019531 15.871094-12.882812 28.734376-28.753906 28.753907h-47.191406v14h47.191406c23.601562-.027344 42.730468-19.152344 42.753906-42.753907v-170.074218c-.023438-23.601563-19.152344-42.730469-42.753906-42.753906h-1.09375v-9.277344c-.019532-23.605469-19.148438-42.734375-42.753906-42.757813h-77.097657c-.546875 0-1.0625-.230469-1.433593-.632812l-24.34375-26.632813c-8.105469-8.851562-19.554688-13.8984372-31.558594-13.910156h-80.210938c-23.601562.0234375-42.730468 19.152344-42.753906 42.753906v40.019532h14v-40.019532c.019531-15.871094 12.882812-28.734375 28.753906-28.753906h80.210938c8.074218.007812 15.773437 3.402344 21.226562 9.355469l24.34375 26.636719c3.023438 3.296874 7.292969 5.179687 11.765625 5.183593h77.097657c15.875.015625 28.738281 12.878907 28.753906 28.753907v9.277343zm0 0" fill="#1ae5be"/><path d="m44.988281 414.347656h264.023438c24.835937-.027344 44.960937-20.152344 44.988281-44.988281v-159.453125c-.027344-24.835938-20.152344-44.960938-44.988281-44.988281h-1.601563v-.734375c-.027344-24.832032-20.152344-44.960938-44.988281-44.988282h-71.289063c-.699218 0-1.371093-.292968-1.84375-.8125l-25.867187-28.300781c-8.53125-9.3125-20.578125-14.625-33.207031-14.636719h-85.226563c-24.832031.027344-44.9609372 20.152344-44.988281 44.988282v248.925781c.0273438 24.835937 20.152344 44.960937 44.988281 44.988281zm264.023438-235.429687c17.105469.019531 30.96875 13.882812 30.988281 30.988281v159.453125c-.019531 17.105469-13.882812 30.96875-30.988281 30.988281h-227.4375c7.964843-8.347656 12.40625-19.449218 12.398437-30.988281v-159.453125c.019532-17.105469 13.882813-30.96875 30.988282-30.988281zm-295.011719-58.484375c.019531-17.109375 13.882812-30.972656 30.988281-30.988282h85.226563c8.699218.007813 17 3.664063 22.875 10.082032l25.867187 28.300781c3.125 3.414063 7.542969 5.363281 12.175781 5.367187h71.292969c17.105469.019532 30.96875 13.882813 30.988281 30.988282v.734375h-168.449218c-24.835938.027343-44.960938 20.152343-44.988282 44.988281v159.453125c-.019531 17.105469-13.882812 30.96875-30.988281 30.988281h-4c-17.105469-.019531-30.96875-13.882812-30.988281-30.988281zm0 0" fill="#0635c9"/></svg>