<svg height="452pt" viewBox="0 -37 452.43858 452" width="452pt" xmlns="http://www.w3.org/2000/svg"><path d="m73.148438 343.34375h-4.46875c-19.574219-.023438-35.4375-15.886719-35.460938-35.457031v-278.214844c0-4.445313.839844-8.851563 2.472656-12.984375-13.546875 5.347656-22.453125 18.421875-22.472656 32.984375v278.214844c.023438 19.570312 15.886719 35.433593 35.460938 35.457031h4.46875c14.5625-.019531 27.636718-8.925781 32.984374-22.472656-4.132812 1.636718-8.539062 2.472656-12.984374 2.472656zm0 0" fill="#d4e1f4"/><path d="m363.761719 343.34375h-256.167969c9.601562-9.296875 15.019531-22.09375 15.011719-35.457031v-178.214844c0-4.445313.835937-8.851563 2.472656-12.984375-13.546875 5.347656-22.453125 18.421875-22.472656 32.984375v178.214844c.007812 13.363281-5.410157 26.160156-15.011719 35.457031h256.167969c14.5625-.019531 27.640625-8.925781 32.984375-22.472656-4.132813 1.636718-8.539063 2.472656-12.984375 2.472656zm0 0" fill="#d4e1f4"/><path d="m344.539062 100.21875h-2.609374v-1.648438c-.035157-27.300781-22.160157-49.421874-49.460938-49.449218h-79.667969c-1.019531-.003906-1.988281-.433594-2.671875-1.183594l-28.910156-31.628906c-9.378906-10.242188-22.621094-16.078125-36.507812-16.089844h-95.25c-27.300782.027344-49.4257818 22.148438-49.460938 49.449219v278.222656c.0351562 27.300781 22.160156 49.421875 49.460938 49.449219h295.078124c27.300782-.027344 49.429688-22.148438 49.460938-49.449219v-50.921875h-14v50.921875c-.027344 19.570313-15.890625 35.425781-35.460938 35.449219h-256.175781c9.609375-9.292969 15.03125-22.085938 15.027344-35.449219v-178.222656c.019531-19.566407 15.878906-35.425781 35.449219-35.449219h205.699218c19.570313.023438 35.433594 15.878906 35.460938 35.449219v50.921875h14v-50.921875c-.035156-27.300781-22.160156-49.421875-49.460938-49.449219zm-16.609374 0h-189.089844c-27.296875.03125-49.417969 22.152344-49.449219 49.449219v178.222656c-.027344 19.570313-15.890625 35.425781-35.460937 35.449219h-4.46875c-19.570313-.023438-35.433594-15.878906-35.460938-35.449219v-278.222656c.027344-19.570313 15.890625-35.425781 35.460938-35.449219h95.25c9.953124.007812 19.449218 4.191406 26.171874 11.535156l28.910157 31.625c3.339843 3.652344 8.058593 5.730469 13.007812 5.738282h79.667969c19.570312.023437 35.433594 15.878906 35.460938 35.449218zm0 0" fill="#0635c9"/><path d="m332.851562 307.777344c0 2.570312 1.40625 4.933594 3.667969 6.15625 2.257813 1.222656 5.007813 1.109375 7.160157-.296875l105.589843-69c1.976563-1.292969 3.167969-3.496094 3.167969-5.859375 0-2.359375-1.191406-4.5625-3.167969-5.855469l-105.589843-69c-2.152344-1.40625-4.902344-1.519531-7.160157-.296875-2.261719 1.222656-3.667969 3.585938-3.667969 6.152344v34.402344h-117.410156c-3.867187 0-7 3.132812-7 7v55.199218c0 3.867188 3.132813 7 7 7h117.410156zm-110.410156-48.398438v-41.199218h117.410156c3.863282 0 7-3.132813 7-7v-28.464844l85.792969 56.0625-85.792969 56.066406v-28.464844c0-3.867187-3.136718-7-7-7zm0 0" fill="#1ae5be"/></svg>