<svg height="394pt" viewBox="0 -8 394 394" width="394pt" xmlns="http://www.w3.org/2000/svg"><path d="m73.929688 343.128906h-4.472657c-19.574219-.023437-35.433593-15.886718-35.457031-35.457031v-278.214844c0-4.445312.839844-8.851562 2.472656-12.984375-13.546875 5.347656-22.453125 18.421875-22.472656 32.984375v278.214844c.023438 19.570313 15.882812 35.433594 35.457031 35.457031h4.472657c14.5625-.019531 27.636718-8.925781 32.980468-22.472656-4.132812 1.632812-8.535156 2.472656-12.980468 2.472656zm0 0" fill="#d4e1f4"/><path d="m364.542969 343.128906h-256.167969c9.601562-9.296875 15.019531-22.09375 15.011719-35.457031v-178.214844c-.003907-4.445312.835937-8.851562 2.472656-12.984375-13.546875 5.347656-22.457031 18.421875-22.472656 32.984375v178.214844c.007812 13.363281-5.410157 26.160156-15.011719 35.457031h256.167969c14.5625-.019531 27.636719-8.925781 32.984375-22.472656-4.132813 1.632812-8.539063 2.472656-12.984375 2.472656zm0 0" fill="#d4e1f4"/><path d="m344.542969 100h-2.609375v-1.640625c-.03125-27.304687-22.15625-49.429687-49.457032-49.460937h-79.675781c-1.015625 0-1.984375-.425782-2.667969-1.175782l-28.914062-31.632812c-9.378906-10.238282-22.625-16.074219-36.507812-16.089844h-95.253907c-27.300781.03125-49.425781 22.15625-49.457031 49.457031v278.214844c.03125 27.300781 22.15625 49.425781 49.457031 49.457031h295.085938c27.300781-.03125 49.425781-22.15625 49.457031-49.457031v-178.214844c-.03125-27.300781-22.15625-49.425781-49.457031-49.457031zm-290.613281 263.128906h-4.472657c-19.574219-.023437-35.433593-15.886718-35.457031-35.457031v-278.214844c.023438-19.574219 15.882812-35.433593 35.457031-35.457031h95.253907c9.953124.007812 19.449218 4.195312 26.171874 11.535156l28.910157 31.628906c3.339843 3.648438 8.054687 5.726563 13 5.730469h79.679687c19.574219.023438 35.433594 15.886719 35.457032 35.460938v1.640625h-189.085938c-27.300781.03125-49.425781 22.15625-49.457031 49.457031v178.21875c-.023438 19.570313-15.886719 35.433594-35.457031 35.457031zm326.070312-35.457031c-.023438 19.570313-15.882812 35.433594-35.457031 35.457031h-256.167969c9.601562-9.296875 15.019531-22.09375 15.011719-35.457031v-178.214844c.023437-19.574219 15.882812-35.433593 35.457031-35.457031h205.699219c19.574219.023438 35.433593 15.886719 35.457031 35.457031zm0 0" fill="#0635c9"/><g fill="#1ae5be"><path d="m281.566406 201.136719c0-21.40625-17.351562-38.761719-38.757812-38.757813-21.40625 0-38.757813 17.351563-38.757813 38.757813s17.351563 38.757812 38.757813 38.757812c21.394531-.023437 38.734375-17.363281 38.757812-38.757812zm-63.515625 0c0-13.675781 11.085938-24.757813 24.757813-24.757813 13.675781 0 24.757812 11.082032 24.757812 24.757813 0 13.671875-11.082031 24.757812-24.757812 24.757812-13.667969-.015625-24.742188-11.09375-24.757813-24.757812zm0 0"/><path d="m345.5 211.34375c0-16.625-13.476562-30.101562-30.101562-30.101562-16.621094 0-30.097657 13.476562-30.097657 30.101562 0 16.621094 13.476563 30.097656 30.097657 30.097656 16.617187-.015625 30.085937-13.480468 30.101562-30.097656zm-46.191406 0c0-8.890625 7.207031-16.101562 16.097656-16.101562s16.101562 7.210937 16.101562 16.101562-7.210937 16.097656-16.101562 16.097656-16.097656-7.207031-16.105469-16.097656zm0 0"/><path d="m315.398438 245.585938c-14.28125.050781-27.628907 7.097656-35.726563 18.863281-21.773437-18.597657-53.988281-18.070313-75.140625 1.234375-10.320312-16.261719-30.136719-23.753906-48.628906-18.378906-18.496094 5.375-31.210938 22.320312-31.207032 41.578124 0 3.863282 3.132813 7 7 7h55.464844c-.832031 3.902344-1.253906 7.878907-1.253906 11.871094 0 3.863282 3.132812 7 7 7h99.808594c3.867187 0 7-3.136718 7-7 0-3.992187-.421875-7.96875-1.253906-11.871094h53.234374c3.863282 0 7-3.136718 7-7-.027343-23.902343-19.394531-43.269531-43.296874-43.296874zm-175.863282 36.296874c3.003906-12.203124 13.453125-21.128906 25.96875-22.1875 12.519532-1.0625 24.320313 5.980469 29.332032 17.5-.96875 1.515626-1.863282 3.078126-2.6875 4.6875zm60.9375 18.867188c3.429688-20.710938 21.339844-35.902344 42.335938-35.902344s38.90625 15.191406 42.335937 35.902344zm92.996094-18.867188c-1.179688-2.300781-2.511719-4.511718-3.988281-6.628906 5.660156-10.773437 17.390625-16.925781 29.472656-15.453125 12.078125 1.472657 21.988281 10.261719 24.894531 22.082031zm0 0"/><path d="m198.085938 211.34375c0-16.625-13.476563-30.101562-30.101563-30.101562s-30.101563 13.476562-30.101563 30.101562c0 16.621094 13.476563 30.097656 30.101563 30.097656 16.617187-.015625 30.082031-13.480468 30.101563-30.097656zm-46.195313 0c0-8.890625 7.207031-16.101562 16.101563-16.101562 8.890624 0 16.097656 7.210937 16.097656 16.101562s-7.207032 16.097656-16.097656 16.097656c-8.890626-.003906-16.09375-7.210937-16.101563-16.097656zm0 0"/></g></svg>