<svg height="401pt" viewBox="0 -11 401.90813 401" width="401pt" xmlns="http://www.w3.org/2000/svg"><g fill="#1ae5be"><path d="m228.199219 98.03125-49.976563 1.460938c-3.867187.054687-6.957031 3.234374-6.902344 7.097656.058594 3.867187 3.234376 6.957031 7.101563 6.902344h.210937l49.976563-1.460938c3.867187-.113281 6.910156-3.339844 6.796875-7.207031-.113281-3.863281-3.339844-6.90625-7.207031-6.792969zm0 0"/><path d="m95.660156 266.761719 1.460938 49.976562c.113281 3.785157 3.210937 6.792969 6.992187 6.796875h.210938c3.863281-.113281 6.902343-3.335937 6.792969-7.199218l-1.464844-49.980469c-.113282-3.863281-3.335938-6.90625-7.199219-6.792969-3.867187.113281-6.90625 3.339844-6.792969 7.203125zm0 0"/><path d="m99.820312 169.597656c-3.863281.109375-6.902343 3.335938-6.792968 7.199219l1.460937 49.980469c.113281 3.78125 3.210938 6.792968 6.996094 6.792968h.207031c3.863282-.113281 6.90625-3.335937 6.792969-7.199218l-1.460937-49.980469c-.128907-3.859375-3.34375-6.890625-7.203126-6.792969zm0 0"/><path d="m113.070312 364.640625-15.527343.453125c1.855469-1.902344 3.554687-3.957031 5.078125-6.136719 1.46875-2.046875 1.722656-4.730469.664062-7.015625-1.058594-2.289062-3.265625-3.832031-5.777344-4.039062-2.515624-.207032-4.945312.953125-6.363281 3.039062-6.390625 9.246094-16.816406 14.878906-28.050781 15.160156l-4.472656.132813c-1.652344.046875-3.300782-.019531-4.941406-.203125-3.84375-.417969-7.300782 2.355469-7.722657 6.199219-.417969 3.84375 2.355469 7.300781 6.199219 7.71875 1.796875.199219 3.601562.296875 5.410156.296875.488282 0 .980469-.007813 1.464844-.023438l4.472656-.128906h.019532l49.957031-1.460938c3.859375-.121093 6.890625-3.339843 6.777343-7.199218-.109374-3.859375-3.328124-6.898438-7.1875-6.792969zm0 0"/><path d="m92.675781 15.960938c3.859375-.121094 6.890625-3.34375 6.777344-7.203126-.113281-3.859374-3.328125-6.898437-7.1875-6.792968l-44.265625 1.296875c-2.214844.0625-4.425781.277343-6.617188.632812-3.8125.628907-6.398437 4.226563-5.773437 8.042969.625 3.8125 4.226563 6.398438 8.039063 5.773438 1.578124-.257813 3.167968-.410157 4.765624-.457032zm0 0"/><path d="m13.121094 269.859375h.210937c3.863281-.113281 6.902344-3.335937 6.789063-7.203125l-1.460938-49.980469c-.113281-3.867187-3.335937-6.90625-7.203125-6.792969-3.863281.113282-6.902343 3.335938-6.789062 7.203126l1.460937 49.976562c.109375 3.785156 3.207032 6.792969 6.992188 6.796875zm0 0"/><path d="m22.144531 331.828125-.851562-29.1875c-.113281-3.867187-3.339844-6.910156-7.207031-6.796875-3.863282.113281-6.90625 3.339844-6.792969 7.207031l.851562 29.1875c.238281 8.113281 2.464844 16.039063 6.484375 23.089844 1.921875 3.355469 6.199219 4.519531 9.554688 2.597656 3.351562-1.917969 4.515625-6.195312 2.597656-9.550781-2.878906-5.054688-4.46875-10.734375-4.636719-16.546875zm0 0"/><path d="m7.859375 89.929688h.207031c3.863282-.113282 6.90625-3.335938 6.792969-7.199219l-.847656-28.992188c-.007813-.359375-.011719-.710937-.011719-1.066406-.015625-5.511719 1.269531-10.949219 3.753906-15.871094 1.738282-3.457031.34375-7.664062-3.109375-9.402343-3.457031-1.734376-7.664062-.34375-9.402343 3.113281-3.46875 6.871093-5.2617192 14.464843-5.242188 22.160156 0 .488281.0078125.980469.0195312 1.472656l.8515628 29c.113281 3.777344 3.207031 6.78125 6.988281 6.785157zm0 0"/><path d="m10.488281 179.894531h.210938c3.863281-.109375 6.902343-3.335937 6.792969-7.199219l-1.464844-49.976562c-.113282-3.867188-3.335938-6.90625-7.199219-6.792969-3.867187.113281-6.90625 3.335938-6.792969 7.203125l1.464844 49.972656c.109375 3.78125 3.207031 6.789063 6.988281 6.792969zm0 0"/><path d="m137.914062 100.730469c-19.949218 1.492187-37.019531 14.894531-43.199218 33.921875-1.203125 3.675781.800781 7.628906 4.472656 8.832031 3.675781 1.203125 7.628906-.800781 8.832031-4.476563 4.429688-13.640624 16.664063-23.25 30.964844-24.320312 2.503906-.179688 4.714844-1.683594 5.804687-3.945312 1.085938-2.257813.882813-4.929688-.535156-6.996094-1.421875-2.066406-3.839844-3.21875-6.335937-3.015625zm0 0"/><path d="m292.996094 359.378906-49.980469 1.460938c-3.867187.054687-6.957031 3.234375-6.902344 7.101562.058594 3.863282 3.234375 6.953125 7.101563 6.898438h.207031l49.980469-1.460938c2.503906-.070312 4.777344-1.46875 5.96875-3.671875 1.1875-2.203125 1.109375-4.875-.207032-7.003906-1.3125-2.132813-3.667968-3.398437-6.171874-3.320313zm0 0"/><path d="m375.953125 348.800781c-6.207031 5.445313-14.117187 8.5625-22.371094 8.804688l-20.605469.601562c-3.867187.054688-6.953124 3.234375-6.898437 7.097657.054687 3.867187 3.234375 6.957031 7.097656 6.902343h.210938l20.605469-.601562c11.515624-.34375 22.550781-4.691407 31.207031-12.296875 2.902343-2.554688 3.183593-6.976563.632812-9.878906-2.554687-2.902344-6.980469-3.183594-9.878906-.628907zm0 0"/><path d="m383.816406 178.519531 1.460938 49.980469c.109375 3.78125 3.207031 6.796875 6.996094 6.796875h.207031c3.863281-.113281 6.90625-3.335937 6.792969-7.199219l-1.460938-49.976562c-.113281-3.867188-3.339844-6.910156-7.207031-6.796875-3.863281.113281-6.90625 3.339843-6.792969 7.207031zm0 0"/><path d="m212.777344 47.363281h-.175782c-.871093 0-1.710937-.316406-2.371093-.886719-2.917969-2.515624-7.324219-2.199218-9.855469.714844-2.527344 2.910156-2.222656 7.316406.675781 9.855469 3.207031 2.78125 7.308594 4.316406 11.550781 4.316406l42.601563-1.238281c3.855469-.121094 6.890625-3.34375 6.777344-7.203125s-3.328125-6.898437-7.1875-6.792969zm0 0"/><path d="m318.164062 95.402344-49.980468 1.460937c-3.867188.054688-6.953125 3.234375-6.898438 7.101563.054688 3.863281 3.234375 6.953125 7.097656 6.898437h.210938l49.976562-1.460937c2.503907-.070313 4.78125-1.46875 5.96875-3.671875 1.191407-2.203125 1.113282-4.875-.203124-7.007813-1.316407-2.128906-3.671876-3.394531-6.171876-3.316406zm0 0"/><path d="m360.023438 96.214844c-3.738282-.992188-7.570313 1.234375-8.558594 4.972656-.992188 3.734375 1.234375 7.566406 4.972656 8.558594 13.871094 3.640625 24.164062 15.3125 26.039062 29.53125.511719 3.832031 4.035157 6.523437 7.867188 6.011718 3.832031-.515624 6.523438-4.035156 6.011719-7.867187-2.617188-19.839844-16.976563-36.125-36.332031-41.207031zm0 0"/><path d="m393.242188 261.28125c-3.863282.113281-6.90625 3.335938-6.792969 7.199219l1.460937 49.976562c.109375 3.785157 3.207032 6.796875 6.992188 6.800781h.210937c3.863281-.113281 6.902344-3.335937 6.792969-7.199218l-1.464844-49.980469c-.125-3.855469-3.339844-6.890625-7.199218-6.796875zm0 0"/><path d="m295.167969 45.03125c-.070313 0-.132813 0-.195313 0-3.863281-.050781-7.039062 3.039062-7.089844 6.90625-.050781 3.867188 3.042969 7.042969 6.90625 7.09375 14.335938.359375 27.035157 9.351562 32.132813 22.757812 1.382813 3.609376 5.429687 5.414063 9.039063 4.03125 3.609374-1.382812 5.417968-5.429687 4.035156-9.039062-7.113282-18.703125-24.828125-31.246094-44.828125-31.75zm0 0"/><path d="m172.75 27.941406c1.726562 1.859375 4.324219 2.640625 6.789062 2.039063 2.464844-.601563 4.410157-2.488281 5.085938-4.933594.679688-2.445313-.019531-5.0625-1.824219-6.847656l-2.621093-2.707031c-9.335938-9.585938-22.136719-15.007813-35.515626-15.039063-.480468 0-.960937.007813-1.449218.023437l-10.972656.320313c-3.863282.113281-6.902344 3.335937-6.789063 7.203125.109375 3.863281 3.335937 6.902344 7.199219 6.789062l10.964844-.320312c9.949218-.261719 19.554687 3.640625 26.5 10.765625zm0 0"/><path d="m203.03125 362.007812-49.976562 1.464844c-3.867188.054688-6.957032 3.230469-6.902344 7.097656.058594 3.867188 3.234375 6.957032 7.101562 6.902344h.210938l49.976562-1.464844c2.503906-.066406 4.777344-1.46875 5.96875-3.671874 1.1875-2.203126 1.109375-4.875-.207031-7.003907-1.316406-2.128906-3.667969-3.394531-6.171875-3.316406zm0 0"/></g></svg>