<svg height="443pt" viewBox="0 -12 443.99398 443" width="443pt" xmlns="http://www.w3.org/2000/svg"><path d="m71.449219 324.503906h-4.230469c-18.335938-.023437-33.199219-14.882812-33.21875-33.222656v-263.570312c-.003906-3.835938.664062-7.644532 1.964844-11.253907-13.167969 4.757813-21.949219 17.253907-21.964844 31.253907v263.570312c.019531 18.339844 14.882812 33.199219 33.21875 33.222656h4.230469c14.007812-.015625 26.503906-8.796875 31.265625-21.96875-3.613282 1.304688-7.425782 1.96875-11.265625 1.96875zm0 0" fill="#d4e1f4"/><path d="m104.976562 324.503906c8.78125-8.828125 13.707032-20.773437 13.703126-33.222656v-168.828125c-.003907-3.839844.660156-7.644531 1.964843-11.253906-13.167969 4.757812-21.949219 17.25-21.964843 31.253906v168.828125c.003906 12.449219-4.921876 24.394531-13.703126 33.222656h150.238282c-2.113282-6.511718-3.59375-13.207031-4.421875-20zm0 0" fill="#d4e1f4"/><path d="m47.21875 358.503906h198.78125v-14h-161.023438c8.78125-8.828125 13.707032-20.773437 13.703126-33.222656v-168.828125c.019531-18.339844 14.878906-33.199219 33.21875-33.222656h194.871093c18.339844.019531 33.207031 14.878906 33.230469 33.222656v74.050781h14v-74.050781c-.03125-26.070313-21.160156-47.195313-47.230469-47.222656h-2.097656v-1.1875c-.027344-26.070313-21.152344-47.199219-47.222656-47.230469h-75.488281c-.859376 0-1.675782-.359375-2.253907-.992188l-27.390625-29.960937c-8.953125-9.777344-21.597656-15.351563-34.855468-15.363281h-90.242188c-26.0625.03125-47.1875 21.152344-47.21875 47.214844v263.570312c.03125 26.066406 21.152344 47.191406 47.21875 47.222656zm-33.21875-310.792968c.023438-18.335938 14.882812-33.195313 33.21875-33.214844h90.242188c9.328124.011718 18.222656 3.933594 24.523437 10.8125l27.375 29.945312c3.230469 3.542969 7.804687 5.5625 12.601563 5.5625h75.488281c18.34375.023438 33.203125 14.890625 33.222656 33.230469v1.191406h-178.773437c-26.066407.027344-47.1875 21.152344-47.21875 47.21875v168.828125c-.023438 18.34375-14.886719 33.203125-33.230469 33.222656h-4.230469c-18.339844-.019531-33.199219-14.886718-33.21875-33.226562zm0 0" fill="#0635c9"/><path d="m337 418.503906c50.042969-.003906 93.398438-34.691406 104.382812-83.511718 10.988282-48.820313-13.332031-98.734376-58.546874-120.171876-45.214844-21.441406-99.253907-8.675781-130.097657 30.726563-25.226562 32.230469-29.859375 76.023437-11.9375 112.820313 17.925781 36.792968 55.269531 60.136718 96.199219 60.136718zm93-107c-.058594 51.335938-41.660156 92.941406-93 93-22.035156.089844-43.375-7.734375-60.132812-22.042968l26.269531-26.644532c10.234375 5.148438 21.683593 8.671875 33.863281 8.671875 44.46875 0 79.199219-46.863281 80.652344-48.859375 1.796875-2.457031 1.796875-5.796875 0-8.253906-9.683594-12.664062-21.277344-23.746094-34.367188-32.847656l23.777344-24.113282c14.804688 16.90625 22.957031 38.617188 22.9375 61.089844zm-72 0c.019531 7.183594-3.648438 13.878906-9.714844 17.734375-6.066406 3.851563-13.6875 4.328125-20.183594 1.257813l27.761719-28.15625c1.402344 2.851562 2.132813 5.984375 2.136719 9.164062zm-42 0c-.015625-7.1875 3.652344-13.882812 9.71875-17.734375 6.066406-3.855469 13.683594-4.332031 20.179688-1.261719l-27.761719 28.15625c-1.402344-2.851562-2.132813-5.984374-2.136719-9.160156zm40.078125-29.320312c-13.929687-9.078125-32.328125-7.09375-44.003906 4.746094-11.675781 11.839843-13.402344 30.265624-4.128907 44.066406l-7.1875 7.292968c-13.882812-8.992187-24.652343-20.679687-29.792968-26.789062 9.082031-10.792969 35.710937-38.984375 66.035156-38.984375 8.085938.125 16.0625 1.914063 23.425781 5.257813zm-38.15625 58.636718c13.933594 9.082032 32.332031 7.097657 44.007813-4.742187 11.675781-11.84375 13.398437-30.269531 4.125-44.070313l7.1875-7.292968c13.886718 8.992187 24.65625 20.683594 29.800781 26.796875-9.058594 10.789062-35.625 38.976562-66.042969 38.976562-8.085938-.125-16.0625-1.914062-23.425781-5.257812zm-54.164063-86.636718c15.578126-19.925782 38.609376-32.636719 63.769532-35.203125 25.164062-2.566407 50.285156 5.234375 69.566406 21.605469l-26.230469 26.597656c-10.234375-5.148438-21.679687-8.667969-33.863281-8.667969-44.464844 0-79.199219 46.863281-80.652344 48.855469-1.796875 2.460937-1.796875 5.796875 0 8.257812 9.683594 12.664063 21.277344 23.742188 34.367188 32.847656l-23.800782 24.136719c-29.320312-33.613281-30.644531-83.308593-3.15625-118.429687zm0 0" fill="#1ae5be"/></svg>