<svg height="486pt" viewBox="-6 0 486 486.096" width="486pt" xmlns="http://www.w3.org/2000/svg"><path d="m103.484375 188.457031h-3.054687c-12.175782-.015625-22.039063-9.878906-22.050782-22.050781v-150.359375c0-.660156.03125-1.3125.089844-1.957031-11.363281 1.027344-20.074219 10.546875-20.089844 21.957031v150.359375c.011719 12.171875 9.875 22.035156 22.050782 22.050781h3.054687c11.414063-.015625 20.933594-8.726562 21.960937-20.09375-.640624.058594-1.300781.09375-1.960937.09375zm0 0" fill="#d4e1f4"/><path d="m302.328125 188.457031h-170.339844c4.902344-6.304687 7.558594-14.066406 7.546875-22.050781v-81.933594c0-.660156.035156-1.316406.09375-1.960937-11.367187 1.027343-20.078125 10.546875-20.09375 21.960937v81.933594c.011719 7.984375-2.644531 15.746094-7.546875 22.050781h170.339844c11.410156-.015625 20.933594-8.726562 21.957031-20.09375-.644531.058594-1.296875.09375-1.957031.09375zm0 0" fill="#d4e1f4"/><path d="m287.539062 263.726562h-90.492187v-45h-14v45h-107.828125c-14.90625.019532-26.984375 12.097657-27 27v26.371094h14v-26.371094c.007812-7.175781 5.820312-12.992187 13-13h212.320312c7.175782.007813 12.992188 5.824219 13 13v26.371094h14v-26.371094c-.019531-14.902343-12.097656-26.980468-27-27zm0 0" fill="#0635c9"/><g fill="#1ae5be"><path d="m246.703125 33.457031h-54.515625c-.074219 0-.144531-.03125-.195312-.085937l-19.78125-21.640625c-6.835938-7.464844-16.488282-11.7187502-26.609376-11.730469h-65.171874c-19.902344.0234375-36.027344 16.148438-36.050782 36.046875v150.359375c.023438 19.898438 16.148438 36.027344 36.050782 36.050781h201.898437c19.902344-.023437 36.027344-16.148437 36.050781-36.050781v-81.933594c-.023437-19.742187-15.902344-35.800781-35.640625-36.050781-.609375-19.46875-16.558593-34.941406-36.035156-34.964844zm-141.167969 152.949219c-.011718 12.171875-9.878906 22.035156-22.050781 22.050781h-3.054687c-12.175782-.015625-22.039063-9.878906-22.050782-22.050781v-150.359375c.011719-12.171875 9.878906-22.035156 22.050782-22.050781h65.171874c6.191407.007812 12.097657 2.609375 16.277344 7.175781l19.777344 21.644531c2.707031 2.953125 6.527344 4.636719 10.53125 4.640625h54.515625c11.75.011719 21.429687 9.226563 22.023437 20.960938h-127.140624c-19.902344.023437-36.027344 16.152343-36.050782 36.050781zm198.84375-81.933594v81.933594c-.015625 12.171875-9.878906 22.035156-22.050781 22.050781h-170.339844c4.902344-6.304687 7.558594-14.066406 7.546875-22.050781v-81.933594c.015625-12.171875 9.878906-22.039062 22.050782-22.050781h140.742187c12.171875.011719 22.035156 9.875 22.050781 22.050781zm0 0"/><path d="m186.546875 369.046875c-1.265625-15.214844-13.972656-26.929687-29.242187-26.949219h-41.320313l-14.796875-16.191406c-5.5625-6.074219-13.421875-9.539062-21.660156-9.546875h-50.132813c-16.199219.019531-29.3281248 13.148437-29.347656 29.347656v111.039063c.0195312 16.203125 13.148437 29.332031 29.347656 29.347656h155.308594c16.199219-.019531 29.328125-13.144531 29.34375-29.347656v-58.40625c-.015625-15.484375-12.046875-28.300782-27.5-29.292969zm-139.453125 29.292969v58.40625c-.011719 8.472656-6.875 15.339844-15.347656 15.347656h-2.351563c-8.472656-.007812-15.335937-6.875-15.347656-15.347656v-111.039063c.011719-8.472656 6.875-15.335937 15.347656-15.347656h50.132813c4.308594.003906 8.417968 1.816406 11.328125 4.996094l15.214843 16.648437c2.386719 2.605469 5.757813 4.089844 9.289063 4.09375h41.945313c7.527343.007813 13.9375 5.46875 15.148437 12.898438h-96.015625c-16.195312.019531-29.324219 13.144531-29.34375 29.34375zm152.953125 58.40625c-.007813 8.472656-6.871094 15.339844-15.34375 15.351562h-127.949219c2.84375-4.613281 4.347656-9.929687 4.339844-15.351562v-58.40625c.007812-8.472656 6.875-15.339844 15.34375-15.347656h108.265625c8.472656.007812 15.335937 6.875 15.347656 15.347656zm0 0"/><path d="m446.457031 369.046875c-1.265625-15.21875-13.976562-26.933594-29.25-26.953125h-41.3125l-14.792969-16.1875c-5.5625-6.074219-13.421874-9.539062-21.660156-9.546875h-50.136718c-16.203126.019531-29.328126 13.148437-29.347657 29.347656v111.039063c.015625 16.203125 13.144531 29.332031 29.347657 29.351562h155.308593c16.199219-.019531 29.328125-13.148437 29.34375-29.351562v-58.40625c-.015625-15.484375-12.046875-28.296875-27.5-29.292969zm-139.453125 29.292969v58.40625c-.011718 8.472656-6.875 15.339844-15.347656 15.347656h-2.351562c-8.472657-.011719-15.335938-6.875-15.347657-15.347656v-111.039063c.011719-8.472656 6.875-15.335937 15.347657-15.347656h50.132812c4.308594.003906 8.417969 1.816406 11.328125 4.996094l15.214844 16.648437c2.386719 2.605469 5.757812 4.089844 9.289062 4.09375h41.9375c7.527344.007813 13.941407 5.46875 15.148438 12.898438h-96.003907c-16.199218.019531-29.328124 13.144531-29.347656 29.34375zm152.953125 58.40625c-.007812 8.472656-6.875 15.339844-15.34375 15.347656h-127.953125c2.847656-4.613281 4.347656-9.925781 4.34375-15.347656v-58.40625c.007813-8.472656 6.875-15.339844 15.347656-15.347656h108.261719c8.46875.007812 15.335938 6.875 15.34375 15.347656zm0 0"/></g></svg>