<svg height="439pt" viewBox="0 -19 439.02739 439" width="439pt" xmlns="http://www.w3.org/2000/svg"><path d="m104.476562 324.554688c8.78125-8.828126 13.707032-20.773438 13.703126-33.222657v-168.828125c-.003907-3.835937.660156-7.644531 1.964843-11.253906-13.167969 4.757812-21.949219 17.25-21.964843 31.253906v168.828125c.003906 12.449219-4.921876 24.394531-13.703126 33.222657h197.933594l-2.90625-20zm0 0" fill="#d4e1f4"/><path d="m70.949219 324.554688h-4.230469c-18.335938-.019532-33.199219-14.882813-33.21875-33.222657v-263.566406c-.003906-3.839844.664062-7.648437 1.964844-11.257813-13.167969 4.761719-21.949219 17.253907-21.964844 31.257813v263.566406c.019531 18.339844 14.882812 33.203125 33.21875 33.222657h4.230469c14.007812-.015626 26.503906-8.796876 31.265625-21.96875-3.613282 1.304687-7.425782 1.96875-11.265625 1.96875zm0 0" fill="#d4e1f4"/><path d="m47.21875 358.023438h235.78125v-14h-198.023438c8.78125-8.824219 13.707032-20.769532 13.703126-33.21875v-168.828126c.019531-18.339843 14.878906-33.203124 33.21875-33.222656h194.871093c18.339844.019532 33.207031 14.878906 33.230469 33.222656v103.046876h14v-103.046876c-.03125-26.070312-21.160156-47.195312-47.230469-47.222656h-2.097656v-1.1875c-.027344-26.070312-21.152344-47.199218-47.222656-47.230468h-75.488281c-.859376 0-1.675782-.359376-2.253907-.996094l-27.390625-29.957032c-8.953125-9.78125-21.597656-15.3554682-34.855468-15.367187h-90.242188c-26.066406.0273438-47.1914062 21.152344-47.21875 47.21875v263.570313c.03125 26.066406 21.152344 47.191406 47.21875 47.21875zm-33.21875-310.789063c.019531-18.339844 14.882812-33.199219 33.21875-33.21875h90.242188c9.328124.007813 18.222656 3.929687 24.523437 10.8125l27.375 29.945313c3.234375 3.542968 7.808594 5.5625 12.601563 5.5625h75.488281c18.34375.023437 33.203125 14.886718 33.222656 33.230468v1.1875h-178.773437c-26.066407.03125-47.1875 21.152344-47.21875 47.222656v168.828126c-.023438 18.339843-14.886719 33.203124-33.230469 33.21875h-4.230469c-18.335938-.019532-33.199219-14.882813-33.21875-33.21875zm0 0" fill="#0635c9"/><path d="m282.433594 401.082031h129.132812c3.867188 0 7-3.132812 7-7v-95l8.828125 7.714844c1.878907 1.660156 4.507813 2.1875 6.882813 1.382813 2.375-.808594 4.140625-2.824219 4.621094-5.289063.480468-2.460937-.394532-4.996094-2.292969-6.636719l-84.183594-73.554687c-2.617187-2.289063-6.519531-2.308594-9.160156-.046875l-64.871094 55.601562c-.355469.25-.683594.535156-.988281.847656l-19.957032 17.105469c-2.9375 2.515625-3.277343 6.9375-.761718 9.871094 2.519531 2.933594 6.9375 3.277344 9.871094.757813l8.878906-7.605469v94.851562c0 3.867188 3.132812 7 7 7zm65.339844-163.859375 56.792968 49.625v100.234375h-115.132812v-99.851562zm0 0" fill="#1ae5be"/></svg>