<svg height="454pt" viewBox="0 0 454 454.48467" width="454pt" xmlns="http://www.w3.org/2000/svg"><path d="m105.21875 324.246094c8.78125-8.824219 13.707031-20.769532 13.703125-33.21875v-168.832032c-.003906-3.835937.660156-7.644531 1.964844-11.253906-13.167969 4.761719-21.949219 17.253906-21.964844 31.253906v168.832032c.003906 12.449218-4.921875 24.394531-13.703125 33.21875h209.210938c-2.101563-6.507813-3.574219-13.207032-4.398438-20zm0 0" fill="#d4e1f4"/><path d="m71.691406 324.246094h-4.230468c-18.335938-.019532-33.199219-14.878906-33.21875-33.21875v-263.570313c-.003907-3.835937.664062-7.644531 1.964843-11.253906-13.167969 4.757813-21.949219 17.25-21.964843 31.253906v263.570313c.019531 18.339844 14.882812 33.199218 33.21875 33.21875h4.230468c14.007813-.015625 26.503906-8.796875 31.265625-21.96875-3.613281 1.304687-7.425781 1.972656-11.265625 1.96875zm0 0" fill="#d4e1f4"/><path d="m51.691406 358.011719h254.550782v-14h-221.023438c8.78125-8.828125 13.707031-20.773438 13.703125-33.222657v-168.828124c.019531-18.339844 14.882813-33.199219 33.21875-33.21875h194.871094c18.339843.015624 33.207031 14.878906 33.230469 33.21875v81.050781h14v-81.050781c-.03125-26.070313-21.160157-47.195313-47.230469-47.222657h-2.097657v-1.1875c-.027343-26.070312-21.152343-47.199219-47.222656-47.230469h-75.488281c-.859375 0-1.675781-.359374-2.253906-.992187l-27.390625-29.960937c-8.953125-9.777344-21.597656-15.3554692-34.855469-15.367188h-90.242187c-26.066407.03125-47.1875 21.152344-47.21875 47.21875v263.570312c.03125 26.066407 21.152343 47.191407 47.21875 47.222657zm-37.449218-47.222657v-263.570312c.019531-18.335938 14.882812-33.199219 33.21875-33.21875h90.242187c9.328125.007812 18.222656 3.933594 24.523437 10.8125l27.375 29.945312c3.230469 3.542969 7.804688 5.5625 12.601563 5.5625h75.488281c18.34375.023438 33.203125 14.886719 33.222656 33.230469v1.1875h-178.773437c-26.066406.03125-47.1875 21.15625-47.21875 47.222657v168.828124c-.023437 18.34375-14.886719 33.203126-33.230469 33.222657h-4.230468c-18.335938-.023438-33.199219-14.882813-33.21875-33.222657zm0 0" fill="#0635c9"/><g fill="#1ae5be"><path d="m367.242188 216.15625c-47.972657 0-87 38.066406-87 84.855469 0 27.789062 13.769531 52.5 35 67.988281v78.484375c0 2.761719 1.625 5.269531 4.148437 6.394531s5.472656.660156 7.53125-1.1875l40.320313-36.222656 40.320312 36.222656c2.058594 1.847656 5.007812 2.3125 7.53125 1.1875s4.148438-3.632812 4.148438-6.394531v-78.484375c21.230468-15.488281 35-40.199219 35-67.988281 0-46.789063-39.027344-84.855469-87-84.855469zm38 215.628906-33.320313-29.933594c-2.664063-2.390624-6.695313-2.390624-9.359375 0l-33.320312 29.933594v-54.453125c24.054687 11.375 51.945312 11.375 76 0zm-38-59.921875c-40.25 0-73-31.785156-73-70.851562 0-39.070313 32.75-70.855469 73-70.855469 40.253906 0 73 31.785156 73 70.855469 0 39.066406-32.746094 70.851562-73 70.851562zm0 0"/><path d="m411.375 281.675781h-28.671875l-8.820313-26.417969c-.953124-2.859374-3.628906-4.785156-6.640624-4.785156-3.011719 0-5.6875 1.925782-6.640626 4.785156l-8.820312 26.417969h-28.671875c-3.046875 0-5.746094 1.972657-6.671875 4.878907-.921875 2.90625.140625 6.078124 2.632812 7.835937l23.027344 16.285156-8.769531 26.273438c-.957031 2.871093.035156 6.03125 2.464844 7.835937 2.429687 1.804688 5.746093 1.84375 8.214843.09375l23.234376-16.425781 23.234374 16.429687c2.472657 1.746094 5.785157 1.707032 8.214844-.097656 2.429688-1.804687 3.425782-4.964844 2.464844-7.835937l-8.769531-26.273438 23.027343-16.285156c2.492188-1.761719 3.554688-4.929687 2.628907-7.835937-.921875-2.90625-3.621094-4.878907-6.667969-4.878907zm-33.914062 28.5 3.648437 10.933594-9.824219-6.949219c-2.421875-1.710937-5.660156-1.710937-8.082031 0l-9.828125 6.949219 3.648438-10.933594c.980468-2.929687-.078126-6.152343-2.597657-7.933593l-9.292969-6.566407h11.691407c3.011719 0 5.683593-1.929687 6.636719-4.785156l3.78125-11.316406 3.777343 11.320312c.953125 2.855469 3.628907 4.78125 6.640625 4.78125h11.6875l-9.289062 6.566407c-2.523438 1.78125-3.578125 5.007812-2.597656 7.9375zm0 0"/></g></svg>