<svg height="424pt" viewBox="0 -26 424.005 424" width="424pt" xmlns="http://www.w3.org/2000/svg"><path d="m104.976562 324.007812c8.78125-8.824218 13.707032-20.769531 13.703126-33.21875v-168.832031c-.003907-3.835937.660156-7.644531 1.964843-11.253906-13.167969 4.757813-21.949219 17.253906-21.964843 31.253906v168.832031c.003906 12.449219-4.921876 24.394532-13.703126 33.21875h176.210938c-2.101562-6.511718-3.574219-13.207031-4.398438-20zm0 0" fill="#d4e1f4"/><path d="m71.449219 324.007812h-4.230469c-18.335938-.019531-33.199219-14.882812-33.21875-33.21875v-263.570312c-.003906-3.839844.664062-7.644531 1.964844-11.253906-13.167969 4.757812-21.949219 17.25-21.964844 31.253906v263.570312c.019531 18.335938 14.882812 33.199219 33.21875 33.21875h4.230469c14.007812-.015624 26.503906-8.796874 31.265625-21.96875-3.613282 1.304688-7.425782 1.972657-11.265625 1.96875zm0 0" fill="#d4e1f4"/><path d="m47.21875 358.007812h209.78125v-14h-172.023438c8.78125-8.824218 13.707032-20.769531 13.703126-33.21875v-168.832031c.019531-18.335937 14.878906-33.199219 33.21875-33.21875h194.871093c18.339844.015625 33.207031 14.878907 33.230469 33.21875v115.050781h14v-115.050781c-.03125-26.070312-21.160156-47.191406-47.230469-47.21875h-2.097656v-1.191406c-.027344-26.070313-21.152344-47.199219-47.222656-47.230469h-75.488281c-.859376.003906-1.675782-.359375-2.253907-.992187l-27.390625-29.957031c-8.953125-9.777344-21.597656-15.351563-34.855468-15.36328175h-90.242188c-26.0625.02734375-47.1875 21.14843775-47.21875 47.21484375v263.570312c.03125 26.066407 21.152344 47.1875 47.21875 47.21875zm-33.21875-310.789062c.023438-18.335938 14.882812-33.195312 33.21875-33.214844h90.242188c9.328124.007813 18.222656 3.929688 24.523437 10.8125l27.375 29.945313c3.230469 3.542969 7.804687 5.5625 12.601563 5.5625h75.488281c18.34375.019531 33.203125 14.886719 33.222656 33.226562v1.191407h-178.773437c-26.066407.03125-47.1875 21.152343-47.21875 47.21875v168.832031c-.023438 18.339843-14.886719 33.203125-33.230469 33.21875h-4.230469c-18.339844-.019531-33.199219-14.882813-33.21875-33.222657zm0 0" fill="#0635c9"/><path d="m250.023438 365.382812c.007812.101563.007812.195313.019531.289063.007812.097656.03125.207031.046875.3125.019531.125.035156.25.058594.375.007812.035156.019531.070313.027343.101563.128907.570312.332031 1.125.601563 1.648437.207031.40625.457031.792969.742187 1.148437.027344.039063.054688.078126.082031.113282.078126.09375.167969.183594.25.273437.085938.089844.144532.160157.21875.238281.078126.074219.144532.128907.214844.191407.097656.09375.199219.1875.3125.277343.011719.011719.023438.023438.039063.035157.011719.011719.042969.027343.0625.042969.292969.230468.605469.4375.929687.617187l.023438.011719c.3125.171875.636718.3125.972656.433594.058594.019531.109375.042968.167969.058593.316406.105469.640625.1875.96875.246094.074219.011719.140625.023437.214843.035156.332032.050781.664063.078125 1 .082031h160.035157c.34375-.003906.691406-.035156 1.035156-.089843.0625-.007813.128906-.015625.199219-.027344.335937-.058594.664062-.144531.988281-.253906.054687-.015625.109375-.039063.167969-.058594.335937-.121094.660156-.269531.972656-.4375.023438-.011719.039062-.023437.0625-.039063.328125-.183593.640625-.394531.933594-.628906.015625-.011718.027344-.015625.039062-.027344l.019532-.015624c.132812-.109376.257812-.226563.382812-.34375.042969-.042969.097656-.082032.140625-.128907.058594-.058593.113281-.125.167969-.1875.214844-.226562.414062-.46875.59375-.722656.03125-.046875.066406-.085937.101562-.132813.078125-.121093.148438-.246093.222656-.371093.042969-.070313.089844-.140625.128907-.214844.054687-.101563.101562-.207031.152343-.3125.046876-.105469.097657-.199219.144532-.3125.03125-.078125.058594-.160156.089844-.238281.050781-.132813.097656-.269532.144531-.40625.015625-.050782.027343-.101563.039062-.15625.09375-.335938.164063-.679688.207031-1.023438.007813-.050781.019532-.097656.023438-.144531.007812-.066406.007812-.136719.011719-.199219.011719-.167968.023437-.332031.023437-.5v-107.84375c0-.039062 0-.078125-.003906-.117187 0-.128907-.011719-.257813-.019531-.386719-.007813-.097656-.015625-.207031-.027344-.308594-.011719-.121094-.035156-.242187-.054687-.363281-.019532-.121094-.035157-.214844-.058594-.320313-.023438-.105468-.054688-.226562-.085938-.339843s-.058594-.214844-.089844-.320313c-.035156-.105468-.078124-.21875-.121093-.324218-.039063-.109376-.078125-.210938-.121094-.316407-.046875-.101562-.101563-.199219-.148437-.304687-.046876-.109375-.097657-.207032-.15625-.308594-.058594-.097656-.113282-.1875-.171876-.28125-.058593-.09375-.128906-.207031-.199218-.304688-.074219-.097656-.125-.167968-.1875-.253906-.078125-.097656-.160156-.199218-.242188-.296875-.023437-.03125-.046875-.0625-.074218-.09375-.042969-.050781-.09375-.097656-.136719-.140625-.085938-.09375-.171875-.179687-.261719-.265625-.085938-.085937-.167969-.15625-.253906-.230469-.085938-.074218-.167969-.144531-.253906-.214843-.089844-.066407-.195313-.148438-.292969-.21875-.097657-.070313-.171875-.117188-.261719-.175781-.089844-.054688-.207031-.128907-.308594-.1875-.105468-.0625-.191406-.101563-.285156-.152344-.09375-.054688-.207031-.101563-.3125-.152344s-.210938-.09375-.316406-.132812c-.109375-.042969-.203125-.078126-.308594-.113282s-.226562-.074218-.34375-.105468-.207031-.058594-.3125-.082032c-.101562-.023437-.230469-.050781-.347656-.070312-.117188-.023438-.222656-.039063-.339844-.050782-.113281-.015624-.21875-.03125-.332031-.039062s-.253907-.015625-.378907-.019531c-.066406 0-.128906-.007813-.195312-.007813h-160c-.0625 0-.117188.007813-.179688.007813-.132812 0-.265624.007812-.398437.019531-.105469.007812-.210937.023438-.3125.035156-.121094.015625-.242187.03125-.363281.054688-.117188.023437-.214844.042968-.324219.066406s-.226563.054688-.335937.085938c-.109376.035156-.214844.0625-.320313.101562-.105469.035156-.21875.078125-.328125.121094-.109375.042968-.199219.078125-.300781.121094-.113281.050781-.222657.101562-.332031.160156-.089844.046875-.179688.097656-.269532.144531-.109375.0625-.214844.128906-.320312.203125-.085938.054688-.171875.113281-.253906.167969-.101563.074219-.203126.144531-.296876.222656s-.171874.140625-.257812.214844c-.082031.070312-.167969.148437-.246094.226562-.082031.078125-.183594.179688-.269531.273438-.042969.046875-.089844.085937-.132813.132812-.023437.03125-.042968.058594-.070312.089844-.085938.097656-.171875.207031-.25.3125-.0625.082031-.125.160156-.179688.238281-.074218.101563-.140624.210938-.199218.320313-.054688.089843-.113282.175781-.164063.269531-.050781.089844-.109375.210938-.164062.316406-.050781.105469-.097657.199219-.144531.296875-.042969.101563-.082032.214844-.125.320313-.039063.109375-.082032.214844-.117188.320312-.035156.105469-.0625.214844-.089844.320313-.03125.109375-.0625.230469-.089844.34375-.023437.113281-.039062.210937-.054687.3125-.019531.125-.042969.246093-.058594.371093-.011719.101563-.015625.199219-.023437.300782-.007813.132812-.019532.261718-.019532.398437 0 .039063-.007812.078125-.007812.117188v107.8125.050781c0 .140625.015625.277344.023438.414062zm13.976562-92.722656 33.769531 29.941406-33.769531 42.320313zm146 72.5-34.234375-42.246094 34.234375-30.28125zm-77.738281-11.976562c2.648437 2.347656 6.632812 2.347656 9.28125 0l23.726562-20.988282 37.046875 45.714844h-130.777344l36.71875-46.007812zm30.472656-37.433594c-1.003906.523438-1.867187 1.289062-2.507813 2.222656l-23.316406 20.628906-61.464844-54.5h123.078126zm0 0" fill="#1ae5be"/></svg>