<svg height="419pt" viewBox="0 -3 419.552 419" width="419pt" xmlns="http://www.w3.org/2000/svg"><path d="m71.726562 324.46875h-4.230468c-18.335938-.019531-33.195313-14.882812-33.21875-33.21875v-263.574219c-.003906-3.835937.664062-7.644531 1.964844-11.253906-13.167969 4.757813-21.949219 17.253906-21.964844 31.253906v263.574219c.023437 18.335938 14.882812 33.199219 33.21875 33.21875h4.230468c14.007813-.015625 26.503907-8.796875 31.265626-21.96875-3.613282 1.304688-7.421876 1.972656-11.265626 1.96875zm0 0" fill="#d4e1f4"/><path d="m105.257812 324.46875c8.777344-8.824219 13.707032-20.769531 13.699219-33.21875v-168.832031c-.003906-3.835938.660157-7.644531 1.964844-11.253907-13.167969 4.757813-21.949219 17.253907-21.964844 31.253907v168.832031c.007813 12.449219-4.921875 24.394531-13.699219 33.21875h180.019532v-20zm0 0" fill="#d4e1f4"/><path d="m47.21875 358.28125h225.78125v-14h-188.023438c8.78125-8.824219 13.707032-20.769531 13.703126-33.21875v-168.832031c.019531-18.339844 14.878906-33.199219 33.21875-33.21875h194.871093c18.339844.015625 33.207031 14.878906 33.226563 33.21875v90.050781h14v-90.050781c-.03125-26.070313-21.160156-47.191407-47.226563-47.21875h-2.101562v-1.191407c-.027344-26.070312-21.152344-47.199218-47.21875-47.230468h-75.492188c-.855469.003906-1.675781-.359375-2.253906-.992188l-27.386719-29.957031c-8.953125-9.777344-21.597656-15.351563-34.855468-15.363281h-90.242188c-26.066406.027344-47.1875 21.152344-47.21875 47.21875v263.570312c.03125 26.0625 21.15625 47.183594 47.21875 47.214844zm-33.21875-310.789062c.023438-18.335938 14.882812-33.195313 33.21875-33.214844h90.242188c9.328124.007812 18.222656 3.929687 24.523437 10.8125l27.375 29.945312c3.234375 3.542969 7.808594 5.5625 12.601563 5.5625h75.488281c18.34375.023438 33.203125 14.886719 33.222656 33.226563v1.191406h-178.773437c-26.066407.03125-47.1875 21.152344-47.21875 47.21875v168.832031c-.023438 18.339844-14.886719 33.203125-33.230469 33.21875h-4.230469c-18.335938-.019531-33.199219-14.882812-33.21875-33.21875zm0 0" fill="#0635c9"/><g fill="#1ae5be"><path d="m415.847656 250.929688-76.617187-40.828126c-2.082031-1.109374-4.585938-1.09375-6.65625.039063l-74.5 40.828125c-2.238281 1.230469-3.632813 3.582031-3.632813 6.140625v47.105469c.046875 45.101562 26.769532 85.90625 68.09375 103.976562l10.339844 4.507813c1.773438.773437 3.792969.777343 5.570312.007812l11.640626-5.027343c42.085937-17.679688 69.464843-58.875 69.464843-104.527344v-46.042969c.003907-2.585937-1.421875-4.960937-3.703125-6.179687zm-10.292968 52.222656c-.007813 40.035156-24.027344 76.152344-60.941407 91.644531l-.046875.019531-8.878906 3.835938-7.542969-3.289063c-36.226562-15.839843-59.65625-51.609375-59.699219-91.148437v-42.960938l67.542969-37.015625 69.570313 37.070313zm0 0"/><path d="m330 266.28125v53.363281c0 3.867188 3.132812 7 7 7s7-3.132812 7-7v-53.363281c0-3.867188-3.132812-7-7-7s-7 3.132812-7 7zm0 0"/><path d="m337 341.710938c-3.867188 0-7 3.132812-7 7v7.570312c0 3.867188 3.132812 7 7 7s7-3.132812 7-7v-7.570312c0-3.867188-3.132812-7-7-7zm0 0"/></g></svg>