<svg height="464pt" viewBox="-5 0 464 464.685" width="464pt" xmlns="http://www.w3.org/2000/svg"><path d="m53.550781 204.148438c-10.601562-.011719-19.195312-8.605469-19.207031-19.207032v-170.945312h-.792969c-10.601562.011718-19.195312 8.605468-19.207031 19.207031v171.738281c.011719 10.601563 8.605469 19.195313 19.207031 19.207032h2.757813c10.605468-.011719 19.199218-8.605469 19.210937-19.207032v-.792968zm0 0" fill="#d4e1f4"/><path d="m83.386719 204.148438c3.996093-5.605469 6.140625-12.324219 6.132812-19.207032v-109.21875h-.792969c-10.601562.011719-19.195312 8.605469-19.207031 19.210938v110.007812c.007813 6.882813-2.136719 13.601563-6.132812 19.207032h152.316406c10.601563-.011719 19.195313-8.605469 19.207031-19.207032v-.792968zm0 0" fill="#d4e1f4"/><path d="m248.910156 204.941406v-110.007812c-.019531-17.933594-14.257812-32.617188-32.179687-33.195313-.902344-17.667969-15.476563-31.535156-33.167969-31.558593h-48.988281l-17.710938-19.378907c-6.300781-6.875-15.191406-10.7929685-24.515625-10.800781h-58.800781c-18.328125.0234375-33.179687 14.875-33.203125 33.203125v171.738281c.019531 18.332032 14.875 33.1875 33.207031 33.207032h182.152344c18.332031-.019532 33.1875-14.875 33.207031-33.207032zm-193.390625 0c-.011719 10.601563-8.605469 19.195313-19.210937 19.207032h-2.757813c-10.601562-.011719-19.195312-8.605469-19.207031-19.207032v-171.738281c.011719-10.601563 8.605469-19.195313 19.207031-19.207031h58.800781c5.394532.003906 10.535157 2.273437 14.179688 6.25l17.839844 19.523437c2.570312 2.804688 6.199218 4.40625 10 4.410157h49.1875c9.957031.011718 18.261718 7.625 19.136718 17.542968h-113.96875c-18.332031.023438-33.1875 14.878906-33.207031 33.210938zm179.390625 0c-.011718 10.601563-8.605468 19.195313-19.207031 19.207032h-152.316406c3.996093-5.605469 6.140625-12.324219 6.132812-19.207032v-110.007812c.011719-10.605469 8.605469-19.199219 19.207031-19.210938h126.976563c10.601563.011719 19.195313 8.605469 19.207031 19.210938zm0 0" fill="#0635c9"/><g fill="#1ae5be"><path d="m199.441406 292.5625c0-17.035156-14.363281-30.890625-32.015625-30.890625-17.65625 0-32.019531 13.855469-32.019531 30.890625 0 14.710938 10.71875 27.046875 25.019531 30.136719v73.289062c-14.300781 3.089844-25.019531 15.425781-25.019531 30.140625 0 17.03125 14.363281 30.890625 32.019531 30.890625 17.652344 0 32.015625-13.859375 32.015625-30.890625 0-14.714844-10.71875-27.050781-25.015625-30.140625v-73.289062c14.292969-3.089844 25.015625-15.425781 25.015625-30.136719zm-50.035156 0c0-9.316406 8.082031-16.890625 18.019531-16.890625 9.933594 0 18.015625 7.574219 18.015625 16.890625 0 9.3125-8.082031 16.886719-18.015625 16.886719-9.9375 0-18.019531-7.578125-18.019531-16.886719zm36.035156 133.566406c0 9.3125-8.082031 16.890625-18.015625 16.890625-9.9375 0-18.019531-7.578125-18.019531-16.890625 0-9.316406 8.082031-16.890625 18.015625-16.890625 9.9375 0 18.019531 7.578125 18.019531 16.890625zm0 0"/><path d="m410 379.011719h-125.464844c-3.863281 0-7 3.136719-7 7v71.671875c0 3.867187 3.136719 7 7 7h125.464844c3.867188 0 7-3.132813 7-7v-71.671875c0-3.863281-3.132812-7-7-7zm-7 71.671875h-111.464844v-57.671875h111.464844zm0 0"/><path d="m447.34375 261.671875h-162.808594c-3.863281 0-7 3.132813-7 7v71.667969c0 3.867187 3.136719 7 7 7h162.808594c3.863281 0 7-3.132813 7-7v-71.667969c0-3.867187-3.136719-7-7-7zm-7 71.667969h-148.808594v-57.667969h148.808594zm0 0"/><path d="m306.941406 300.808594h43.316406c3.867188 0 7-3.132813 7-7 0-3.867188-3.132812-7-7-7h-43.316406c-3.863281 0-7 3.132812-7 7 0 3.867187 3.136719 7 7 7zm0 0"/><path d="m306.941406 322.203125h80.65625c3.867188 0 7-3.136719 7-7 0-3.867187-3.132812-7-7-7h-80.65625c-3.863281 0-7 3.132813-7 7 0 3.863281 3.136719 7 7 7zm0 0"/><path d="m306.941406 418.152344h43.316406c3.867188 0 7-3.132813 7-7 0-3.867188-3.132812-7-7-7h-43.316406c-3.863281 0-7 3.132812-7 7 0 3.867187 3.136719 7 7 7zm0 0"/><path d="m306.941406 439.546875h80.65625c3.867188 0 7-3.136719 7-7 0-3.867187-3.132812-7-7-7h-80.65625c-3.863281 0-7 3.132813-7 7 0 3.863281 3.136719 7 7 7zm0 0"/></g></svg>