<svg height="432pt" viewBox="0 -9 432.805 432" width="432pt" xmlns="http://www.w3.org/2000/svg"><path d="m105.378906 324.90625c8.78125-8.824219 13.707032-20.769531 13.699219-33.21875v-168.828125c-.003906-3.839844.660156-7.648437 1.964844-11.257813-13.167969 4.761719-21.949219 17.253907-21.964844 31.257813v168.828125c.007813 12.449219-4.917969 24.394531-13.699219 33.21875h240.234375l5.578125-20zm0 0" fill="#d4e1f4"/><path d="m71.851562 324.90625h-4.230468c-18.339844-.019531-33.199219-14.878906-33.222656-33.21875v-263.570312c0-3.835938.664062-7.644532 1.96875-11.253907-13.167969 4.757813-21.949219 17.253907-21.96875 31.253907v263.570312c.023437 18.339844 14.882812 33.199219 33.222656 33.21875h4.230468c14.003907-.015625 26.5-8.796875 31.261719-21.964844-3.613281 1.300782-7.421875 1.96875-11.261719 1.964844zm0 0" fill="#d4e1f4"/><path d="m47.214844 358.40625h278.785156v-14h-241.027344c8.78125-8.824219 13.707032-20.769531 13.699219-33.21875v-168.828125c.023437-18.339844 14.882813-33.199219 33.222656-33.222656h194.867188c18.34375.019531 33.207031 14.878906 33.230469 33.222656v74.046875h14v-74.046875c-.03125-26.070313-21.160157-47.195313-47.230469-47.222656h-2.097657v-1.1875c-.027343-26.070313-21.152343-47.199219-47.222656-47.230469h-75.488281c-.859375 0-1.675781-.359375-2.253906-.996094l-27.386719-29.957031c-8.953125-9.777344-21.597656-15.351563-34.859375-15.363281h-90.238281c-26.0625.03125-47.183594 21.152344-47.214844 47.214844v263.570312c.03125 26.066406 21.152344 47.1875 47.214844 47.21875zm-33.214844-310.789062c.023438-18.335938 14.878906-33.191407 33.214844-33.214844h90.238281c9.332031.007812 18.226563 3.933594 24.527344 10.8125l27.375 29.945312c3.230469 3.542969 7.804687 5.5625 12.597656 5.5625h75.492187c18.339844.023438 33.203126 14.886719 33.21875 33.230469v1.1875h-178.765624c-26.066407.03125-47.1875 21.15625-47.21875 47.222656v168.828125c-.023438 18.34375-14.886719 33.203125-33.230469 33.222656h-4.230469c-18.335938-.023437-33.199219-14.882812-33.21875-33.222656zm0 0" fill="#0635c9"/><path d="m415.464844 270.441406v-47.035156h10.339844c3.867187 0 7-3.132812 7-7 0-3.863281-3.132813-7-7-7h-117.617188c-3.867188 0-7 3.136719-7 7 0 3.867188 3.132812 7 7 7h11.34375v47.035156c.007812 16.742188 8.742188 32.265625 23.042969 40.964844-14.300781 8.703125-23.035157 24.226562-23.042969 40.96875v47.03125h-11.34375c-3.867188 0-7 3.136719-7 7 0 3.867188 3.132812 7 7 7h117.617188c3.867187 0 7-3.132812 7-7 0-3.863281-3.132813-7-7-7h-10.339844v-47.03125c-.007813-16.742188-8.742188-32.265625-23.042969-40.96875 14.300781-8.699219 23.035156-24.222656 23.042969-40.964844zm-14 81.933594v47.03125h-67.933594v-47.03125c0-18.761719 15.207031-33.96875 33.964844-33.96875 18.761718 0 33.96875 15.207031 33.96875 33.96875zm-67.933594-81.933594v-47.035156h67.933594v47.035156c0 18.761719-15.207032 33.96875-33.96875 33.96875-18.757813 0-33.964844-15.207031-33.964844-33.96875zm0 0" fill="#1ae5be"/></svg>