<svg height="428pt" viewBox="0 -2 428.99502 428" width="428pt" xmlns="http://www.w3.org/2000/svg"><path d="m104.976562 324.503906c8.78125-8.828125 13.707032-20.773437 13.703126-33.222656v-168.828125c-.003907-3.835937.660156-7.644531 1.964843-11.253906-13.167969 4.757812-21.949219 17.25-21.964843 31.253906v168.828125c.003906 12.449219-4.921876 24.394531-13.703126 33.222656h180.210938c-2.101562-6.511718-3.574219-13.210937-4.398438-20zm0 0" fill="#d4e1f4"/><path d="m71.449219 324.503906h-4.230469c-18.335938-.023437-33.199219-14.882812-33.21875-33.222656v-263.570312c-.003906-3.835938.664062-7.644532 1.964844-11.253907-13.167969 4.761719-21.949219 17.253907-21.964844 31.253907v263.570312c.019531 18.339844 14.882812 33.199219 33.21875 33.222656h4.230469c14.007812-.015625 26.503906-8.796875 31.265625-21.96875-3.613282 1.304688-7.425782 1.96875-11.265625 1.96875zm0 0" fill="#d4e1f4"/><path d="m47.21875 358.503906h228.78125v-14h-191.023438c8.78125-8.828125 13.707032-20.773437 13.703126-33.222656v-168.828125c.019531-18.339844 14.878906-33.199219 33.21875-33.21875h194.871093c18.339844.015625 33.207031 14.875 33.230469 33.21875v69.050781h14v-69.050781c-.03125-26.070313-21.160156-47.195313-47.230469-47.21875h-2.097656v-1.191406c-.027344-26.070313-21.152344-47.199219-47.222656-47.230469h-75.488281c-.859376 0-1.675782-.359375-2.253907-.992188l-27.390625-29.960937c-8.953125-9.777344-21.597656-15.347656-34.855468-15.363281h-90.242188c-26.0625.03125-47.1875 21.152344-47.21875 47.214844v263.570312c.03125 26.066406 21.152344 47.191406 47.21875 47.222656zm-33.21875-310.792968c.023438-18.335938 14.882812-33.191407 33.21875-33.214844h90.242188c9.328124.011718 18.222656 3.933594 24.523437 10.8125l27.375 29.949218c3.234375 3.539063 7.804687 5.558594 12.601563 5.558594h75.488281c18.34375.023438 33.203125 14.890625 33.222656 33.230469v1.191406h-178.773437c-26.066407.027344-47.1875 21.152344-47.21875 47.21875v168.832031c-.023438 18.339844-14.886719 33.199219-33.230469 33.21875h-4.230469c-18.339844-.019531-33.199219-14.886718-33.21875-33.226562zm0 0" fill="#0635c9"/><g fill="#1ae5be"><path d="m337 330.535156c23.773438 0 43.113281-19.777344 43.113281-44.082031 0-24.308594-19.339843-44.082031-43.113281-44.082031s-43.113281 19.773437-43.113281 44.082031c0 24.304687 19.339843 44.082031 43.113281 44.082031zm0-74.164062c16.054688 0 29.113281 13.5 29.113281 30.082031s-13.058593 30.082031-29.113281 30.082031-29.113281-13.5-29.113281-30.082031 13.058593-30.082031 29.113281-30.082031zm0 0"/><path d="m271.570312 357.546875 60.328126 64.257813c1.324218 1.410156 3.171874 2.210937 5.105468 2.210937s3.78125-.800781 5.105469-2.210937l60.328125-64.257813c9.144531-9.535156 16.253906-20.828125 20.898438-33.199219 4.421874-11.925781 6.289062-24.648437 5.472656-37.339844-1.523438-23.152343-11.375-44.96875-27.734375-61.421874-16.976563-17.023438-40.027344-26.59375-64.070313-26.59375-24.042968 0-47.097656 9.570312-64.070312 26.59375-16.359375 16.453124-26.214844 38.269531-27.738282 61.421874-.8125 12.691407 1.050782 25.414063 5.476563 37.339844 4.640625 12.371094 11.75 23.664063 20.898437 33.199219zm-12.40625-69.605469c1.296876-19.777344 9.710938-38.417968 23.683594-52.472656 14.347656-14.390625 33.832032-22.480469 54.152344-22.480469s39.804688 8.089844 54.152344 22.480469c13.972656 14.054688 22.386718 32.695312 23.683594 52.472656.683593 10.746094-.902344 21.511719-4.652344 31.605469-4 10.59375-10.109375 20.261719-17.957032 28.417969l-55.226562 58.824218-55.222656-58.824218c-7.851563-8.15625-13.960938-17.824219-17.957032-28.417969-3.75-10.09375-5.335937-20.859375-4.65625-31.605469zm0 0"/></g></svg>