<svg height="407pt" viewBox="-1 0 407 407.446" width="407pt" xmlns="http://www.w3.org/2000/svg"><path d="m105.199219 323.726562c8.78125-8.824218 13.710937-20.769531 13.703125-33.21875v-168.828124c-.003906-3.839844.660156-7.648438 1.964844-11.253907-13.167969 4.757813-21.949219 17.25-21.964844 31.253907v168.828124c.007812 12.449219-4.921875 24.394532-13.703125 33.21875h196.210937c-2.101562-6.507812-3.574218-13.207031-4.398437-20zm0 0" fill="#d4e1f4"/><path d="m71.671875 323.726562h-4.230469c-18.335937-.019531-33.199218-14.878906-33.21875-33.21875v-263.570312c-.003906-3.835938.664063-7.644531 1.964844-11.253906-13.167969 4.757812-21.949219 17.253906-21.964844 31.253906v263.570312c.019532 18.339844 14.882813 33.199219 33.21875 33.21875h4.230469c14.007813-.015624 26.503906-8.796874 31.265625-21.964843-3.613281 1.304687-7.425781 1.96875-11.265625 1.964843zm0 0" fill="#d4e1f4"/><path d="m47.441406 358.011719h229.78125v-14h-192.023437c8.78125-8.828125 13.707031-20.773438 13.703125-33.222657v-168.828124c.019531-18.339844 14.878906-33.199219 33.21875-33.222657h194.871094c18.34375.019531 33.207031 14.878907 33.230468 33.222657v92.050781h14v-92.050781c-.03125-26.070313-21.160156-47.195313-47.230468-47.222657h-2.097657v-1.1875c-.03125-26.070312-21.152343-47.195312-47.222656-47.226562h-75.488281c-.859375 0-1.675782-.359375-2.253906-.996094l-27.390626-29.960937c-8.953124-9.777344-21.597656-15.3554692-34.855468-15.367188h-90.242188c-26.066406.0273438-47.191406 21.15625-47.21875 47.222656v263.570313c.03125 26.066406 21.15625 47.1875 47.21875 47.21875zm-33.21875-310.789063c.019532-18.339844 14.882813-33.199218 33.21875-33.21875h90.242188c9.328125.007813 18.222656 3.929688 24.523437 10.808594l27.375 29.945312c3.230469 3.542969 7.804688 5.5625 12.601563 5.5625h75.488281c18.339844.023438 33.203125 14.886719 33.21875 33.230469v1.1875h-178.769531c-26.066406.03125-47.1875 21.15625-47.21875 47.222657v168.828124c-.023438 18.34375-14.886719 33.203126-33.226563 33.222657h-4.230469c-18.339843-.023438-33.203124-14.882813-33.222656-33.222657zm0 0" fill="#0635c9"/><path d="m297.222656 407.445312h80c14.90625-.015624 26.984375-12.09375 27-27v-57.667968c-.011718-11.296875-7.046875-21.394532-17.640625-25.324219v-33.050781c0-27.476563-22.140625-49.828125-49.359375-49.828125-27.214844 0-49.359375 22.347656-49.359375 49.828125v33.050781c-10.589843 3.925781-17.628906 14.027344-17.640625 25.324219v57.667968c.015625 14.90625 12.09375 26.984376 27 27zm40-178.871093c19.5 0 35.359375 16.070312 35.359375 35.828125v31.375h-70.71875v-31.375c0-19.757813 15.859375-35.828125 35.359375-35.828125zm-53 94.199219c.007813-7.175782 5.824219-12.992188 13-13h80c7.175782.007812 12.992188 5.824218 13 13v57.667968c-.007812 7.175782-5.824218 12.992188-13 13h-80c-7.175781-.007812-12.992187-5.824218-13-13zm0 0" fill="#1ae5be"/></svg>