<svg height="474pt" viewBox="0 -33 474 474" width="474pt" xmlns="http://www.w3.org/2000/svg"><g fill="#d4e1f4"><path d="m34 357.480469v-148.261719h-3.792969c-8.945312.007812-16.195312 7.257812-16.207031 16.203125v152.058594c.011719 8.945312 7.261719 16.195312 16.207031 16.207031h2.441407c8.945312-.011719 16.195312-7.261719 16.207031-16.207031v-3.863281c-8.390625-.707032-14.84375-7.71875-14.855469-16.136719zm0 0"/><path d="m78.128906 373.6875c3.09375-4.839844 4.730469-10.464844 4.726563-16.207031v-93.609375h-3.796875c-8.945313.011718-16.195313 7.261718-16.203125 16.207031v97.398437c.003906 5.746094-1.632813 11.367188-4.726563 16.207032h133.355469c8.945313-.011719 16.195313-7.257813 16.207031-16.207032v-3.792968zm0 0"/><path d="m286.308594 170.824219v-148.265625h-3.792969c-8.945313.007812-16.195313 7.257812-16.207031 16.207031v152.058594c.011718 8.945312 7.261718 16.191406 16.207031 16.203125h2.441406c8.945313-.011719 16.191407-7.261719 16.199219-16.203125v-3.867188c-8.386719-.710937-14.832031-7.71875-14.847656-16.132812zm0 0"/><path d="m330.4375 187.027344c3.09375-4.835938 4.730469-10.460938 4.726562-16.199219v-93.613281h-3.796874c-8.945313.007812-16.195313 7.257812-16.203126 16.203125v97.402343c.007813 5.742188-1.632812 11.367188-4.726562 16.203126h133.355469c8.945312-.007813 16.195312-7.257813 16.207031-16.199219v-3.800781zm0 0"/></g><path d="m221.691406 377.480469v-97.398438c-.019531-16.027343-12.539062-29.257812-28.542968-30.160156-1.183594-15.765625-14.3125-27.960937-30.121094-27.976563h-43.019532l-15.445312-16.902343c-5.730469-6.253907-13.820312-9.820313-22.300781-9.828125h-52.054688c-16.675781.019531-30.1874998 13.535156-30.207031 30.207031v152.058594c.0195312 16.675781 13.53125 30.1875 30.207031 30.207031h161.277344c16.671875-.019531 30.1875-13.53125 30.207031-30.207031zm-172.835937-97.398438v97.398438c-.011719 8.945312-7.261719 16.195312-16.207031 16.207031h-2.441407c-8.945312-.011719-16.195312-7.261719-16.207031-16.207031v-152.058594c.011719-8.945313 7.261719-16.195313 16.207031-16.203125h52.058594c4.550781.003906 8.890625 1.917969 11.960937 5.273438l15.800782 17.285156c2.429687 2.652344 5.855468 4.164062 9.453125 4.167968h43.546875c8.066406.007813 14.902344 5.941407 16.046875 13.925782h-100.015625c-16.671875.019531-30.1875 13.53125-30.203125 30.207031zm14 97.398438v-97.398438c.007812-8.949219 7.257812-16.199219 16.203125-16.210937h112.425781c8.945313.011718 16.195313 7.261718 16.207031 16.207031v97.398437c-.011718 8.949219-7.261718 16.195313-16.207031 16.207032h-133.355469c3.09375-4.839844 4.730469-10.460938 4.726563-16.203125zm0 0" fill="#0635c9"/><path d="m408.800781 280.886719c-3.867187 0-7 3.136719-7 7v.117187c.03125 35.59375-28.800781 64.46875-64.390625 64.5h-58.542968l27.132812-28.160156c2.644531-2.789062 2.546875-7.191406-.222656-9.859375-2.765625-2.667969-7.167969-2.601563-9.855469.144531l-39.292969 40.773438c-2.621094 2.71875-2.613281 7.027344.019532 9.734375l39.292968 40.429687c2.691406 2.769532 7.125 2.835938 9.898438.140625 2.769531-2.695312 2.832031-7.128906.140625-9.898437l-28.480469-29.308594h59.910156c43.320313-.035156 78.417969-35.179688 78.386719-78.5v-.109375c0-3.867187-3.132813-7-6.996094-7.003906zm0 0" fill="#1ae5be"/><path d="m219.9375 42.550781-39.292969-40.429687c-2.695312-2.773438-7.125-2.835938-9.898437-.140625-2.773438 2.695312-2.835938 7.125-.140625 9.898437l28.039062 28.847656h-59.46875c-43.277343.082032-78.335937 35.164063-78.386719 78.445313v.355469c.105469 3.789062 3.203126 6.808594 6.996094 6.8125h.191406c3.8125-.105469 6.839844-3.242188 6.8125-7.054688v-.058594c.007813-35.574218 28.8125-64.429687 64.390626-64.5h58.980468l-27.574218 28.617188c-2.648438 2.789062-2.546876 7.191406.21875 9.855469 2.769531 2.667969 7.171874 2.605469 9.859374-.140625l39.292969-40.773438c2.621094-2.71875 2.613281-7.027344-.019531-9.734375zm0 0" fill="#1ae5be"/><path d="m445.460938 63.257812c-1.1875-15.761718-14.3125-27.953124-30.125-27.972656h-43.019532l-15.445312-16.902344c-5.726563-6.253906-13.816406-9.820312-22.300782-9.828124h-52.058593c-16.671875.023437-30.183594 13.535156-30.203125 30.210937v152.058594c.019531 16.671875 13.535156 30.183593 30.207031 30.203125h161.277344c16.675781-.019532 30.1875-13.53125 30.207031-30.203125v-97.402344c-.015625-16.027344-12.535156-29.257813-28.539062-30.164063zm-144.300782 30.160157v97.402343c-.007812 8.945313-7.257812 16.195313-16.203125 16.203126h-2.441406c-8.949219-.007813-16.195313-7.257813-16.207031-16.203126v-152.054687c.007812-8.949219 7.257812-16.199219 16.207031-16.207031h52.058594c4.550781.003906 8.890625 1.917968 11.960937 5.273437l15.800782 17.289063c2.425781 2.648437 5.855468 4.160156 9.445312 4.164062h43.550781c8.066407.007813 14.902344 5.941406 16.046875 13.929688h-100.011718c-16.671876.019531-30.183594 13.53125-30.203126 30.203125zm158.839844 97.40625c-.011719 8.945312-7.261719 16.191406-16.207031 16.203125h-133.355469c3.09375-4.839844 4.734375-10.460938 4.726562-16.203125v-97.402344c.011719-8.945313 7.257813-16.195313 16.203126-16.207031h112.425781c8.945312.011718 16.195312 7.257812 16.207031 16.203125zm0 0" fill="#1ae5be"/></svg>