<svg height="429pt" viewBox="0 -23 429 429" width="429pt" xmlns="http://www.w3.org/2000/svg"><path d="m71.449219 324.007812h-4.230469c-18.335938-.019531-33.199219-14.878906-33.21875-33.21875v-263.570312c-.003906-3.839844.664062-7.644531 1.964844-11.253906-13.167969 4.757812-21.949219 17.25-21.964844 31.253906v263.570312c.019531 18.339844 14.882812 33.199219 33.21875 33.21875h4.230469c14.007812-.015624 26.503906-8.796874 31.265625-21.96875-3.613282 1.308594-7.425782 1.972657-11.265625 1.96875zm0 0" fill="#d4e1f4"/><path d="m104.976562 324.007812c8.78125-8.824218 13.707032-20.769531 13.703126-33.21875v-168.828124c-.003907-3.839844.660156-7.648438 1.964843-11.257813-13.167969 4.761719-21.949219 17.253906-21.964843 31.257813v168.828124c.003906 12.449219-4.921876 24.394532-13.703126 33.21875h160.023438v-20zm0 0" fill="#d4e1f4"/><path d="m47.21875 358.007812h204.78125v-14h-167.023438c8.78125-8.824218 13.707032-20.769531 13.703126-33.21875v-168.828124c.019531-18.339844 14.878906-33.199219 33.21875-33.222657h194.871093c18.34375.019531 33.207031 14.878907 33.230469 33.222657v94.046874h14v-94.046874c-.03125-26.070313-21.160156-47.195313-47.230469-47.222657h-2.097656v-1.1875c-.027344-26.070312-21.152344-47.203125-47.222656-47.234375h-75.488281c-.859376.003906-1.675782-.359375-2.253907-.992187l-27.390625-29.957031c-8.953125-9.78125-21.597656-15.3554692-34.855468-15.367188h-90.242188c-26.0625.0273438-47.1875 21.152344-47.21875 47.21875v263.570312c.03125 26.066407 21.152344 47.191407 47.21875 47.21875zm-33.21875-310.789062c.023438-18.339844 14.882812-33.199219 33.21875-33.21875h90.242188c9.328124.011719 18.222656 3.933594 24.523437 10.816406l27.375 29.941406c3.230469 3.542969 7.804687 5.558594 12.601563 5.558594h75.488281c18.34375.023438 33.203125 14.890625 33.222656 33.230469v1.191406h-178.773437c-26.066407.027344-47.1875 21.152344-47.21875 47.21875v168.832031c-.023438 18.339844-14.890626 33.199219-33.230469 33.21875h-4.230469c-18.335938-.019531-33.195312-14.878906-33.21875-33.21875zm0 0" fill="#0635c9"/><g fill="#1ae5be"><path d="m410.957031 229.382812h-147.914062c-9.960938.011719-18.03125 8.082032-18.042969 18.042969v117.167969c.011719 9.957031 8.082031 18.027344 18.042969 18.039062h147.914062c9.960938-.007812 18.03125-8.082031 18.042969-18.039062v-117.167969c-.011719-9.960937-8.082031-18.03125-18.042969-18.042969zm-147.914062 14h147.914062c2.230469.003907 4.039063 1.8125 4.042969 4.042969v56.171875l-67.230469 34.949219-41.859375-30.039063-46.910156 21.390626v-82.472657c.003906-2.230469 1.8125-4.039062 4.042969-4.042969zm-4.042969 121.210938v-19.308594l45.339844-20.675781 61.34375 44.023437h-102.640625c-2.230469 0-4.039063-1.808593-4.042969-4.039062zm151.957031 4.039062h-21.257812l-29.175781-20.933593 54.476562-28.324219v45.21875c-.003906 2.230469-1.8125 4.039062-4.042969 4.039062zm0 0"/><path d="m352.433594 315.648438c13.253906 0 24-10.746094 24-24 0-13.257813-10.746094-24-24-24s-24 10.742187-24 24c.015625 13.246093 10.75 23.984374 24 24zm0-34c5.523437 0 10 4.476562 10 10 0 5.519531-4.476563 10-10 10-5.523438 0-10-4.480469-10-10 .007812-5.523438 4.480468-9.996094 10-10zm0 0"/></g></svg>