<svg height="444pt" viewBox="0 -4 444 443" width="444pt" xmlns="http://www.w3.org/2000/svg"><path d="m71.449219 324.503906h-4.230469c-18.335938-.019531-33.199219-14.878906-33.21875-33.21875v-263.570312c-.003906-3.835938.664062-7.644532 1.964844-11.253906-13.167969 4.757812-21.949219 17.253906-21.964844 31.253906v263.570312c.019531 18.339844 14.882812 33.199219 33.21875 33.21875h4.230469c14.007812-.015625 26.503906-8.796875 31.265625-21.96875-3.613282 1.304688-7.425782 1.972656-11.265625 1.96875zm0 0" fill="#d4e1f4"/><path d="m104.976562 324.503906c8.78125-8.824218 13.707032-20.769531 13.703126-33.21875v-168.832031c-.003907-3.835937.660156-7.644531 1.964843-11.253906-13.167969 4.761719-21.949219 17.253906-21.964843 31.253906v168.832031c.003906 12.449219-4.921876 24.394532-13.703126 33.21875h154.210938c-2.097656-6.476562-.566406-13.167968-1.398438-20zm0 0" fill="#d4e1f4"/><path d="m47.21875 358.503906h189.78125v-14h-152.023438c8.78125-8.824218 13.707032-20.769531 13.703126-33.21875v-168.832031c.019531-18.335937 14.878906-33.199219 33.21875-33.21875h194.871093c18.339844.019531 33.207031 14.878906 33.230469 33.21875v75.050781h14v-75.050781c-.03125-26.066406-21.160156-47.191406-47.230469-47.21875h-2.097656v-1.1875c-.027344-26.070313-21.152344-47.199219-47.222656-47.230469h-75.488281c-.859376 0-1.675782-.359375-2.253907-.996094l-27.390625-29.957031c-8.953125-9.777343-21.597656-15.351562-34.855468-15.363281h-90.242188c-26.0625.03125-47.1875 21.152344-47.21875 47.214844v263.570312c.03125 26.066406 21.152344 47.191406 47.21875 47.21875zm-33.21875-310.789062c.023438-18.335938 14.882812-33.195313 33.21875-33.214844h90.242188c9.328124.011719 18.222656 3.933594 24.523437 10.8125l27.375 29.945312c3.234375 3.542969 7.804687 5.5625 12.601563 5.5625h75.488281c18.34375.023438 33.203125 14.886719 33.222656 33.230469v1.1875h-178.773437c-26.066407.03125-47.1875 21.15625-47.21875 47.222657v168.828124c-.023438 18.34375-14.886719 33.203126-33.230469 33.222657h-4.230469c-18.339844-.023438-33.199219-14.886719-33.21875-33.226563zm0 0" fill="#0635c9"/><path d="m254.648438 385.683594h20.585937c3.867187 0 7-3.136719 7-7v-58.824219c0-3.867187-3.132813-7-7-7h-4.761719v-27.824219c.140625-36.644531 29.886719-66.273437 66.527344-66.273437 36.644531 0 66.386719 29.628906 66.53125 66.273437v27.824219h-4.765625c-3.867187 0-7 3.132813-7 7v58.824219c0 3.863281 3.132813 7 7 7h4.765625v8.277344c-.011719 7.882812-6.398438 14.269531-14.28125 14.28125h-10.289062c-2.484376-7.828126-9.75-13.148438-17.960938-13.15625h-18.527344c-10.398437.007812-18.828125 8.4375-18.839844 18.839843v2.632813c.011719 10.402344 8.441407 18.828125 18.839844 18.839844h18.527344c8.210938-.007813 15.476562-5.328126 17.960938-13.15625h10.289062c15.609375-.019532 28.261719-12.667969 28.28125-28.28125v-8.277344h1.820312c13.605469-.015625 24.632813-11.042969 24.648438-24.648438v-23.53125c-.015625-13.605468-11.042969-24.628906-24.648438-24.644531h-1.820312v-27.824219c-.15625-44.367187-36.167969-80.246094-80.53125-80.246094s-80.371094 35.878907-80.527344 80.246094v27.824219h-1.824218c-13.605469.015625-24.632813 11.039063-24.648438 24.644531v23.53125c.015625 13.605469 11.042969 24.632813 24.648438 24.648438zm111.199218 30.875c-.003906 2.675781-2.171875 4.839844-4.847656 4.839844h-18.527344c-2.671875 0-4.839844-2.167969-4.839844-4.839844v-2.632813c0-2.671875 2.167969-4.839843 4.839844-4.839843h18.527344c2.671875 0 4.839844 2.167968 4.84375 4.839843zm64.152344-79.054688v23.53125c-.007812 5.875-4.769531 10.640625-10.648438 10.648438h-13.585937v-44.824219h13.585937c5.878907.003906 10.640626 4.769531 10.648438 10.644531zm-186 0c.007812-5.875 4.769531-10.640625 10.648438-10.644531h13.585937v44.824219h-13.585937c-5.878907-.007813-10.640626-4.773438-10.648438-10.648438zm0 0" fill="#1ae5be"/></svg>