<svg height="439pt" viewBox="0 -1 439 439" width="439pt" xmlns="http://www.w3.org/2000/svg"><path d="m71.449219 324.003906h-4.230469c-18.335938-.019531-33.199219-14.878906-33.21875-33.21875v-263.570312c-.003906-3.835938.664062-7.644532 1.964844-11.253906-13.167969 4.757812-21.949219 17.253906-21.964844 31.253906v263.570312c.019531 18.339844 14.882812 33.199219 33.21875 33.21875h4.230469c14.007812-.015625 26.503906-8.796875 31.265625-21.96875-3.613282 1.304688-7.425782 1.972656-11.265625 1.96875zm0 0" fill="#d4e1f4"/><path d="m104.976562 324.003906c8.78125-8.824218 13.707032-20.769531 13.703126-33.21875v-168.832031c-.003907-3.835937.660156-7.644531 1.964843-11.253906-13.167969 4.761719-21.949219 17.253906-21.964843 31.253906v168.832031c.003906 12.449219-4.921876 24.394532-13.703126 33.21875h212.210938c-2.101562-6.507812-3.574219-13.207031-4.398438-20zm0 0" fill="#d4e1f4"/><path d="m47.21875 358.003906h248.78125v-14h-211.023438c8.78125-8.824218 13.707032-20.769531 13.703126-33.21875v-168.832031c.019531-18.335937 14.878906-33.195313 33.21875-33.21875h194.871093c18.371094.03125 33.246094 14.941406 33.230469 33.3125l1 75.050781 14-.1875-1-74.957031c-.03125-26.066406-21.160156-47.191406-47.230469-47.21875h-2.097656v-1.1875c-.027344-26.070313-21.152344-47.199219-47.222656-47.230469h-75.488281c-.859376 0-1.675782-.359375-2.253907-.996094l-27.390625-29.957031c-8.953125-9.777343-21.597656-15.3515622-34.855468-15.363281h-90.242188c-26.0625.03125-47.1875 21.152344-47.21875 47.214844v263.570312c.03125 26.066406 21.152344 47.191406 47.21875 47.21875zm-33.21875-310.789062c.023438-18.335938 14.882812-33.195313 33.21875-33.214844h90.242188c9.328124.007812 18.222656 3.933594 24.523437 10.8125l27.375 29.945312c3.230469 3.542969 7.804687 5.5625 12.601563 5.5625h75.488281c18.34375.023438 33.203125 14.886719 33.222656 33.230469v1.1875h-178.773437c-26.066407.03125-47.1875 21.15625-47.21875 47.222657v168.828124c-.023438 18.34375-14.886719 33.203126-33.230469 33.222657h-4.230469c-18.339844-.023438-33.199219-14.886719-33.21875-33.226563zm0 0" fill="#0635c9"/><path d="m269.691406 437.550781c19.152344-.023437 34.671875-15.542969 34.695313-34.691406 0-.386719-.019531-.769531-.03125-1.152344.015625-.191406.03125-.382812.03125-.578125v-151.21875c.007812-8.109375 5.734375-15.082031 13.6875-16.675781l86.53125-14.882813.148437-.027343c4.984375-.96875 10.140625.339843 14.058594 3.570312s6.1875 8.042969 6.1875 13.117188v107.25c-12.898438-9.582031-30.695312-9.046875-42.996094 1.292969-12.300781 10.339843-15.886718 27.777343-8.664062 42.132812s23.359375 21.867188 38.996094 18.152344c15.632812-3.710938 26.667968-17.679688 26.664062-33.75 0-.386719-.015625-.769532-.027344-1.152344.011719-.191406.027344-.382812.027344-.578125v-133.347656c0-9.242188-4.125-18.003907-11.25-23.894531-7.128906-5.890626-16.511719-8.289063-25.589844-6.550782l-86.542968 14.886719c-.050782.007813-.101563.019531-.148438.027344-14.554688 2.851562-25.0625 15.597656-25.082031 30.429687v125.121094c-12.097657-8.996094-28.621094-9.148438-40.878907-.378906-12.261718 8.773437-17.453124 24.457031-12.847656 38.8125 4.605469 14.351562 17.957032 24.085937 33.03125 24.085937zm134.617188-46.769531c-11.429688 0-20.695313-9.265625-20.695313-20.691406 0-11.429688 9.265625-20.695313 20.695313-20.695313 11.425781 0 20.691406 9.265625 20.691406 20.695313-.011719 11.421875-9.269531 20.679687-20.691406 20.691406zm-134.617188-8.617188c11.429688 0 20.691406 9.265626 20.691406 20.695313 0 11.425781-9.261718 20.691406-20.691406 20.691406-11.425781 0-20.691406-9.265625-20.691406-20.691406.011719-11.425781 9.269531-20.679687 20.691406-20.695313zm0 0" fill="#1ae5be"/></svg>