<svg height="450pt" viewBox="-18 0 450 450.198" width="450pt" xmlns="http://www.w3.org/2000/svg"><path d="m106.621094 285.785156h-3.761719c-15.875-.015625-28.738281-12.875-28.761719-28.75v-234.285156c.003906-2.601562.355469-5.1875 1.054688-7.691406-12.429688 3.46875-21.03125 14.785156-21.054688 27.691406v234.285156c.023438 15.875 12.886719 28.734375 28.761719 28.75h3.761719c12.910156-.015625 24.234375-8.621094 27.707031-21.058594-2.511719.703126-5.101563 1.058594-7.707031 1.058594zm0 0" fill="#d4e1f4"/><path d="m351.351562 285.785156h-213.109374l.007812-.015625c.050781-.050781.09375-.109375.140625-.160156.402344-.441406.789063-.886719 1.164063-1.34375.148437-.171875.28125-.355469.421874-.53125.277344-.339844.550782-.679687.8125-1.03125.164063-.214844.316407-.433594.472657-.648437.234375-.324219.464843-.644532.691406-.976563.160156-.234375.3125-.472656.46875-.710937.210937-.320313.417969-.640626.617187-.964844.15625-.25.300782-.507813.457032-.761719.1875-.320313.375-.640625.554687-.96875.148438-.261719.285157-.53125.425781-.800781.171876-.324219.34375-.648438.5-.980469.136719-.273437.265626-.550781.394532-.828125.15625-.332031.308594-.664062.457031-1 .121094-.28125.242187-.5625.359375-.847656.136719-.339844.273438-.683594.40625-1.027344.109375-.289062.214844-.578125.320312-.867188.121094-.351562.242188-.703124.355469-1.054687.097657-.292969.191407-.589844.28125-.882813.109375-.359374.207031-.722656.308594-1.085937.082031-.300781.164063-.589844.238281-.890625.089844-.371094.175782-.746094.257813-1.121094.066406-.296875.136719-.589844.195312-.890625.074219-.386719.140625-.777343.207031-1.167969.050782-.289062.101563-.582031.148438-.875.058594-.414062.109375-.828124.15625-1.246093.035156-.277344.074219-.550781.101562-.828125.046876-.464844.078126-.929688.109376-1.402344.015624-.234375.039062-.46875.050781-.707031.03125-.707031.050781-1.417969.050781-2.132813v-150.078125c0-2.601562.355469-5.191406 1.054688-7.695312-12.429688 3.46875-21.035157 14.789062-21.054688 27.695312v150.078125c0 .714844-.019531 1.425782-.050781 2.128906-.011719.238282-.035157.472657-.050781.710938-.03125.46875-.0625.933594-.109376 1.398438-.027343.28125-.066406.554687-.101562.832031-.046875.414062-.097656.832031-.15625 1.246093-.042969.292969-.101562.582032-.148438.875-.066406.390626-.132812.78125-.207031 1.167969-.058593.300781-.128906.59375-.195312.890625-.082031.375-.167969.75-.257813 1.121094-.074218.300781-.15625.601562-.238281.890625-.101563.363281-.199219.722656-.308594 1.082031-.089843.300782-.183593.589844-.28125.882813-.113281.355469-.234375.707031-.355469 1.054687-.101562.292969-.210937.582032-.320312.867188-.136719.347656-.269531.691406-.40625 1.03125-.117188.285156-.238281.566406-.359375.847656-.148437.339844-.300781.671875-.457031 1-.128906.277344-.257813.554688-.394532.828125-.160156.328125-.332031.65625-.5.980469-.140624.269531-.277343.535156-.425781.800781-.179687.324219-.367187.648437-.554687.96875-.152344.253906-.300782.511719-.457032.761719-.199218.324218-.40625.644531-.617187.960937-.15625.238281-.308594.480469-.46875.714844-.226563.328125-.457031.652344-.691406.972656-.15625.21875-.308594.4375-.472657.648438-.261718.351562-.535156.695312-.8125 1.035156-.140624.175781-.273437.355469-.421874.53125-.375.457031-.765626.898437-1.164063 1.34375-.046875.050781-.089844.109375-.140625.160156l-.007812.015625h213.109374c12.90625-.019531 24.222657-8.625 27.691407-21.054687-2.503907.699219-5.09375 1.054687-7.691407 1.054687zm0 0" fill="#d4e1f4"/><path d="m30.777344 434.410156c14.242187-.019531 26.597656-9.820312 29.863281-23.679687h100.496094c3.390625 22.679687 22.867187 39.464843 45.800781 39.46875h.519531c22.859375-.101563 42.226563-16.859375 45.613281-39.46875h100.488282c3.554687 15.167969 17.917968 25.265625 33.394531 23.476562 15.476563-1.789062 27.15625-14.894531 27.15625-30.476562s-11.679687-28.6875-27.15625-30.476563c-15.476563-1.789062-29.839844 8.304688-33.394531 23.476563h-100.496094c-3.019531-20.140625-18.824219-35.949219-38.964844-38.972657v-45.5h-14v45.507813c-20.136718 3.015625-35.949218 18.824219-38.964844 38.960937h-100.492187c-3.660156-15.605468-18.71875-25.761718-34.558594-23.308593-15.84375 2.453125-27.125 16.6875-25.890625 32.671875 1.230469 15.980468 14.558594 28.320312 30.585938 28.320312zm352.640625-47.359375c9.214843 0 16.683593 7.464844 16.683593 16.679688 0 9.210937-7.46875 16.679687-16.679687 16.679687s-16.679687-7.46875-16.679687-16.679687c.011718-9.207031 7.46875-16.667969 16.675781-16.679688zm-208.785157 16.648438c-.035156-8.574219 3.339844-16.808594 9.378907-22.894531 6.042969-6.082032 14.253906-9.515626 22.828125-9.542969h.289062c17.828125-.074219 32.347656 14.3125 32.4375 32.144531v.347656c.035156 8.574219-3.335937 16.8125-9.378906 22.898438-6.039062 6.085937-14.253906 9.519531-22.828125 9.546875h-.425781c-17.777344-.003907-32.210938-14.367188-32.300782-32.144531zm-143.855468-16.648438c9.214844 0 16.683594 7.46875 16.683594 16.679688 0 9.210937-7.46875 16.679687-16.683594 16.679687-9.210938 0-16.679688-7.46875-16.679688-16.679687.011719-9.207031 7.472656-16.667969 16.679688-16.679688zm0 0" fill="#1ae5be"/><path d="m331.351562 84.207031h-1.09375v-.28125c-.027343-23.601562-19.15625-42.722656-42.757812-42.746093h-67.101562c-.542969-.003907-1.058594-.234376-1.425782-.636719l-24.34375-26.644531c-8.109375-8.84375-19.554687-13.882813-31.550781-13.898438h-80.21875c-23.601563.0234375-42.734375 19.148438-42.761719 42.75v234.285156c.03125 23.601563 19.160156 42.726563 42.761719 42.75h248.492187c23.597657-.027344 42.71875-19.152344 42.746094-42.75v-150.078125c-.027344-23.597656-19.148437-42.722656-42.746094-42.75zm-248.492187 221.578125c-15.875-.015625-28.738281-12.875-28.761719-28.75v-234.285156c.023438-15.875 12.886719-28.734375 28.761719-28.75h80.21875c8.070313.011719 15.765625 3.402344 21.222656 9.351562l24.335938 26.632813c3.019531 3.304687 7.289062 5.1875 11.761719 5.195313h67.101562c15.871094.015624 28.738281 12.875 28.757812 28.746093v.28125h-158.128906c-23.597656.027344-42.722656 19.152344-42.75 42.75v150.078125c-.019531 15.875-12.886718 28.734375-28.757812 28.75zm277.238281-28.75c-.015625 15.871094-12.878906 28.730469-28.746094 28.75h-213.109374l.007812-.015625c.050781-.050781.09375-.109375.140625-.160156.402344-.441406.789063-.886719 1.164063-1.34375.148437-.171875.28125-.355469.421874-.53125.277344-.339844.550782-.679687.8125-1.03125.164063-.214844.316407-.433594.472657-.648437.234375-.324219.464843-.644532.691406-.976563.160156-.234375.3125-.472656.46875-.710937.210937-.320313.417969-.640626.617187-.964844.15625-.25.300782-.507813.457032-.761719.1875-.320313.375-.640625.554687-.96875.148438-.261719.285157-.53125.425781-.800781.171876-.324219.34375-.648438.5-.980469.136719-.273437.265626-.550781.394532-.828125.15625-.332031.308594-.664062.457031-1 .121094-.28125.242187-.5625.359375-.847656.136719-.339844.273438-.683594.40625-1.027344.109375-.289062.214844-.578125.320312-.867188.121094-.351562.242188-.703124.355469-1.054687.097657-.292969.191407-.589844.28125-.882813.109375-.359374.207031-.722656.308594-1.085937.082031-.300781.164063-.589844.238281-.890625.089844-.371094.175782-.746094.257813-1.121094.066406-.296875.136719-.589844.195312-.890625.074219-.386719.140625-.777343.207031-1.167969.050782-.289062.101563-.582031.148438-.875.058594-.414062.109375-.828124.15625-1.246093.035156-.277344.074219-.550781.101562-.828125.046876-.464844.078126-.929688.109376-1.402344.015624-.234375.039062-.46875.050781-.707031.03125-.707031.050781-1.417969.050781-2.132813v-150.078125c.019531-15.871093 12.878906-28.730469 28.75-28.75h173.226562c15.867188.019531 28.730469 12.878907 28.746094 28.75zm0 0" fill="#0635c9"/></svg>