<svg height="470pt" viewBox="0 -17 470.25741 470" width="470pt" xmlns="http://www.w3.org/2000/svg"><path d="m137.277344 255.113281h-3.679688c-15.4375-.019531-27.949218-12.527343-27.96875-27.964843v-205.050782c0-2.386718.304688-4.757812.90625-7.0625-12.300781 3.230469-20.882812 14.339844-20.902344 27.0625v205.050782c.019532 15.4375 12.53125 27.945312 27.96875 27.964843h3.679688c12.71875-.015625 23.832031-8.597656 27.0625-20.898437-2.308594.597656-4.683594.902344-7.066406.898437zm0 0" fill="#d4e1f4"/><path d="m376.613281 255.113281h-208.070312c6.894531-7.683593 10.707031-17.644531 10.699219-27.96875v-122.699219c-.003907-2.382812.300781-4.753906.898437-7.058593-12.300781 3.230469-20.882813 14.339843-20.898437 27.058593v122.703126c.007812 10.320312-3.804688 20.285156-10.699219 27.964843h208.070312c12.71875-.015625 23.832031-8.597656 27.0625-20.898437-2.308593.597656-4.679687.898437-7.0625.898437zm0 0" fill="#d4e1f4"/><path d="m356.613281 82.484375h-.910156v-.117187c-.023437-23.167969-18.796875-41.941407-41.964844-41.964844h-65.625c-.488281-.003906-.957031-.207032-1.285156-.570313l-23.808594-26.046875c-7.957031-8.691406-19.195312-13.644531-30.976562-13.65625h-78.445313c-23.167968.027344-41.941406 18.800782-41.96875 41.96875v205.050782c.027344 23.164062 18.800782 41.9375 41.96875 41.964843h243.015625c23.167969-.027343 41.941407-18.800781 41.964844-41.964843v-122.703126c-.027344-23.164062-18.800781-41.933593-41.964844-41.960937zm-211.371093 164.664063c-.015626 15.4375-12.527344 27.945312-27.964844 27.964843h-3.679688c-15.4375-.019531-27.949218-12.527343-27.96875-27.964843v-205.050782c.019532-15.441406 12.53125-27.949218 27.96875-27.96875h78.445313c7.851562.007813 15.339843 3.308594 20.640625 9.101563l23.8125 26.050781c2.984375 3.257812 7.199218 5.113281 11.617187 5.121094h65.621094c15.4375.015625 27.953125 12.523437 27.96875 27.964844v.117187h-154.492187c-23.164063.027344-41.9375 18.796875-41.96875 41.960937zm239.335937 0c-.015625 15.4375-12.527344 27.945312-27.964844 27.964843h-208.070312c6.894531-7.679687 10.707031-17.644531 10.699219-27.964843v-122.703126c.019531-15.4375 12.527343-27.945312 27.964843-27.964843h169.402344c15.4375.015625 27.953125 12.527343 27.96875 27.964843zm0 0" fill="#0635c9"/><g fill="#1ae5be"><path d="m240.503906 361.960938v-54.335938c0-3.867188-3.132812-7-7-7-3.863281 0-7 3.132812-7 7v54.960938c-18.539062 4.4375-30.671875 22.242187-28.015625 41.121093 2.65625 18.878907 19.222657 32.648438 38.269531 31.800781 19.046876-.84375 34.332032-16.027343 35.300782-35.070312.96875-19.039062-12.691406-35.699219-31.554688-38.476562zm-5.398437 59.601562c-12.703125 0-23-10.296875-23-23s10.296875-23 23-23 23 10.296875 23 23c-.015625 12.699219-10.304688 22.988281-23 23.003906zm0 0"/><path d="m433.257812 335.566406c-18.53125.023438-34.195312 13.742188-36.667968 32.109375h-39.640625c-18.214844-.019531-32.976563-14.785156-33-33v-27.050781c0-3.867188-3.132813-7-7-7-3.863281 0-7 3.132812-7 7v27.050781c.03125 25.945313 21.054687 46.972657 47 47h40.449219c4.738281 18.652344 22.984374 30.558594 41.96875 27.382813 18.980468-3.179688 32.355468-20.378906 30.761718-39.558594s-17.625-33.933594-36.871094-33.933594zm0 60c-12.703124 0-23-10.300781-23-23 0-12.703125 10.296876-23 23-23 12.703126 0 23 10.296875 23 23-.011718 12.695313-10.300781 22.984375-23 23zm0 0"/><path d="m153.257812 300.625c-3.863281 0-7 3.132812-7 7v27.050781c-.019531 18.214844-14.78125 32.980469-33 33h-39.640624c-2.53125-18.886719-19.003907-32.753906-38.046876-32.03125-19.042968.722657-34.414062 15.800781-35.507812 34.824219s12.449219 35.765625 31.28125 38.664062c18.832031 2.902344 36.789062-8.984374 41.46875-27.457031h40.445312c25.945313-.027343 46.972657-21.054687 47-47v-27.050781c0-3.867188-3.132812-7-7-7zm-116.308593 94.941406c-12.699219 0-23-10.300781-23-23 0-12.703125 10.300781-23 23-23 12.703125 0 23 10.296875 23 23-.011719 12.695313-10.300781 22.984375-23 23zm0 0"/></g></svg>