<svg height="448pt" viewBox="0 -17 448.7378 448" width="448pt" xmlns="http://www.w3.org/2000/svg"><path d="m105.347656 324.464844c8.78125-8.824219 13.707032-20.769532 13.699219-33.21875v-168.832032c0-3.835937.664063-7.644531 1.96875-11.253906-13.171875 4.761719-21.949219 17.253906-21.96875 31.253906v168.832032c.007813 12.449218-4.917969 24.394531-13.699219 33.21875h224.210938c-2.101563-6.507813-3.578125-13.207032-4.398438-20zm0 0" fill="#d4e1f4"/><path d="m71.820312 324.464844h-4.230468c-18.339844-.019532-33.199219-14.878906-33.21875-33.21875v-263.570313c-.003906-3.835937.660156-7.644531 1.964844-11.253906-13.167969 4.757813-21.949219 17.253906-21.964844 31.253906v263.570313c.019531 18.339844 14.878906 33.199218 33.21875 33.21875h4.230468c14.003907-.015625 26.503907-8.796875 31.265626-21.96875-3.613282 1.304687-7.425782 1.972656-11.265626 1.96875zm0 0" fill="#d4e1f4"/><path d="m47.21875 358.378906h245.78125v-14h-208.023438c8.78125-8.824218 13.707032-20.769531 13.703126-33.21875v-168.832031c.019531-18.335937 14.878906-33.199219 33.21875-33.21875h194.871093c18.339844.015625 33.207031 14.878906 33.230469 33.21875v73.050781h14v-73.050781c-.03125-26.070313-21.160156-47.191406-47.230469-47.21875h-2.097656v-1.191406c-.027344-26.070313-21.152344-47.195313-47.222656-47.230469h-75.488281c-.859376.003906-1.675782-.359375-2.253907-.992188l-27.390625-29.957031c-8.953125-9.78125-21.597656-15.355469-34.855468-15.371093h-90.242188c-26.066406.03125-47.1914062 21.15625-47.21875 47.222656v263.570312c.03125 26.066406 21.152344 47.191406 47.21875 47.21875zm-33.21875-310.789062c.019531-18.339844 14.882812-33.199219 33.21875-33.222656h90.242188c9.328124.011718 18.222656 3.933593 24.523437 10.816406l27.375 29.945312c3.234375 3.542969 7.808594 5.558594 12.601563 5.558594h75.488281c18.34375.023438 33.203125 14.890625 33.222656 33.230469v1.191406h-178.773437c-26.066407.027344-47.1875 21.152344-47.21875 47.21875v168.832031c-.023438 18.34375-14.886719 33.203125-33.230469 33.222656h-4.230469c-18.335938-.023437-33.199219-14.882812-33.21875-33.222656zm0 0" fill="#0635c9"/><path d="m429.96875 335.835938v-28.867188c.058594-28-17.898438-52.859375-44.5-61.609375 6.832031-9.851563 5.222656-23.253906-3.746094-31.210937-8.96875-7.957032-22.46875-7.957032-31.433594 0-8.96875 7.957031-10.578124 21.359374-3.75 31.210937-26.597656 8.746094-44.554687 33.609375-44.5 61.609375v28.867188c-12.671874 4.058593-20.503906 16.742187-18.449218 29.894531 2.050781 13.148437 13.378906 22.84375 26.6875 22.84375h23.5c3.292968 15.160156 16.707031 25.976562 32.222656 25.976562s28.933594-10.816406 32.226562-25.976562h23.5c13.308594 0 24.632813-9.695313 26.6875-22.84375 2.054688-13.148438-5.777343-25.835938-18.453124-29.894531zm-63.96875-113.632813c5.34375.011719 9.675781 4.339844 9.683594 9.6875 0 5.347656-4.335938 9.683594-9.683594 9.683594s-9.683594-4.335938-9.683594-9.683594c.007813-5.347656 4.339844-9.675781 9.683594-9.6875zm0 34.085937c27.550781 0 49.964844 22.734376 49.964844 50.679688v27.578125h-99.929688v-27.578125c0-27.945312 22.414063-50.679688 49.964844-50.679688zm0 144.265626c-7.8125.082031-14.855469-4.695313-17.675781-11.980469h35.351562c-2.820312 7.285156-9.863281 12.058593-17.675781 11.980469zm55.730469-25.980469h-111.460938c-7.140625-.0625-12.898437-5.871094-12.898437-13.015625 0-7.140625 5.757812-12.949219 12.898437-13.011719h111.460938c7.140625.0625 12.898437 5.871094 12.898437 13.011719 0 7.144531-5.757812 12.953125-12.898437 13.015625zm0 0" fill="#1ae5be"/></svg>