<svg height="404pt" viewBox="0 -9 404 404" width="404pt" xmlns="http://www.w3.org/2000/svg"><path d="m73.917969 354.257812h-4.652344c-20.378906-.023437-36.894531-16.539062-36.917969-36.914062v-289.65625c0-4.625.875-9.214844 2.578125-13.515625-14.105469 5.5625-23.382812 19.175781-23.402343 34.339844v289.652343c.023437 20.378907 16.539062 36.894532 36.917968 36.914063h4.660156c15.160157-.019531 28.773438-9.292969 34.339844-23.398437-4.304687 1.703124-8.894531 2.578124-13.523437 2.578124zm0 0" fill="#d4e1f4"/><path d="m376.480469 354.257812h-266.699219c9.996094-9.679687 15.636719-23 15.628906-36.914062v-185.542969c-.003906-4.628906.871094-9.214843 2.574219-13.519531-14.105469 5.566406-23.378906 19.179688-23.398437 34.34375v185.539062c.007812 13.914063-5.632813 27.238282-15.628907 36.914063h266.699219c15.164062-.015625 28.777344-9.289063 34.34375-23.394531-4.304688 1.703125-8.890625 2.574218-13.519531 2.574218zm0 0" fill="#d4e1f4"/><path d="m353.476562 102.816406h-2.859374v-1.867187c-.007813-27.910157-22.613282-50.546875-50.523438-50.601563l-81.746094-.058594c-1.09375-.003906-2.132812-.460937-2.871094-1.265624l-29.636718-32.472657c-9.578125-10.476562-23.113282-16.457031-37.308594-16.4804685l-97.726562-.0703125h-.039063c-27.894531.0351562-50.503906 22.628906-50.558594 50.523438l-.207031 285.4375c.0117188 27.910156 22.613281 50.546874 50.523438 50.597656h4.585937l298.160156.21875h.039063c27.894531-.035156 50.503906-22.628906 50.558594-50.523438l.132812-182.839844c-.011719-27.910156-22.613281-50.546874-50.523438-50.597656zm-298.332031 269.746094h-4.609375c-20.195312-.015625-36.550781-16.398438-36.535156-36.59375l.207031-285.433594c.039063-20.171875 16.390625-36.511718 36.5625-36.535156h.023438l97.726562.070312c10.265625.019532 20.054688 4.34375 26.980469 11.917969l29.636719 32.476563c3.390625 3.703125 8.179687 5.820312 13.203125 5.828125l81.746094.058593c20.183593.039063 36.527343 16.40625 36.535156 36.589844v1.863282l-194.183594-.140626h-.039062c-27.90625.003907-50.539063 22.617188-50.558594 50.527344l-.132813 182.839844c-.035156 20.171875-16.390625 36.507812-36.5625 36.53125zm334.722657-36.320312c-.015626 20.183593-16.378907 36.535156-36.558594 36.535156h-.027344l-263.238281-.1875c.277343-.265625.554687-.535156.828125-.808594 9.519531-9.453125 14.863281-22.324219 14.835937-35.742188l.132813-182.839843c.011718-20.179688 16.378906-36.53125 36.558594-36.535157h.027343l211.039063.15625c20.183594.035157 36.527344 16.402344 36.535156 36.585938zm0 0" fill="#0635c9"/><g fill="#1ae5be"><path d="m312.515625 235.539062c3.558594-2.640624 4.546875-7.546874 2.285156-11.355468l-13.230469-22.25c-2.175781-3.957032-7.144531-5.410156-11.109374-3.25l-11.898438 5.476562c-2.183594-1.46875-4.460938-2.789062-6.824219-3.949218l-1.246093-13.746094-.113282-.484375c-.851562-3.929688-4.296875-6.75-8.316406-6.808594h-25.816406c-4.390625-.011719-8.066406 3.328125-8.472656 7.699219l-1.207032 13.328125c-2.390625 1.140625-4.695312 2.453125-6.890625 3.933593l-12.054687-5.542968-.324219-.140625c-3.933594-1.578125-8.429687-.066407-10.613281 3.566406l-12.859375 22.136719c-2.28125 3.835937-1.28125 8.773437 2.304687 11.421875l10.933594 7.777343c-.292969 2.660157-.296875 5.34375-.007812 8l-11.320313 7.710938-.28125.199219c-3.480469 2.664062-4.453125 7.496093-2.273437 11.300781l12.902343 22.199219.050781.085937c1.039063 1.78125 2.667969 3.136719 4.609376 3.835938 2.144531.726562 4.496093.515625 6.476562-.585938l11.925781-5.484375c2.179688 1.46875 4.457031 2.789063 6.816407 3.949219l1.253906 13.75.113281.476562c.84375 3.929688 4.292969 6.757813 8.3125 6.8125h25.8125c4.390625.011719 8.0625-3.324218 8.472656-7.695312l1.207031-13.328125c2.390626-1.140625 4.695313-2.453125 6.890626-3.933594l12.050781 5.546875.355469.152344c3.925781 1.542969 8.390624.039062 10.582031-3.566406l12.898437-22.203125c2.234375-3.8125 1.246094-8.695313-2.292968-11.339844l-10.089844-7.6875c.308594-2.722656.3125-5.472656.011718-8.199219l10.820313-7.695312zm-26 1.3125.730469 5.140626c.683594 3.5625.683594 7.222656 0 10.785156l-.714844 4.957031 12.929688 9.84375-8.035157 13.828125-15.335937-7.058594-4.117188 3.371094c-2.855468 2.214844-6.011718 4.019531-9.367187 5.367188l-4.664063 2-1.5 16.523437h-15.777344l-1.5-16.523437-4.664062-2c-3.433594-1.464844-6.675781-3.339844-9.652344-5.589844l-4.058594-3.046875-15.109374 6.957031-7.902344-13.601562 9.949218-6.773438 4.363282-3.152344-.730469-5.121094c-.683594-3.554687-.683594-7.210937 0-10.765624l.734375-5.136719-13.769531-9.792969 7.949219-13.6875 15.34375 7.054688 4.113281-3.367188c2.859375-2.214844 6.011719-4.019531 9.367187-5.367188l4.671875-2 1.5-16.523437h15.777344l1.5 16.523437 4.667969 2c3.429687 1.460938 6.671875 3.339844 9.644531 5.585938l4.0625 3.050781 15.160156-6.976562 8.167969 13.742187zm0 0"/><path d="m249 215.125c-17.820312 0-32.265625 14.445312-32.265625 32.265625 0 17.816406 14.445313 32.261719 32.265625 32.261719s32.265625-14.445313 32.265625-32.261719c.089844-8.585937-3.277344-16.847656-9.347656-22.917969-6.070313-6.070312-14.332031-9.441406-22.917969-9.347656zm0 50.527344c-10.085938 0-18.265625-8.175782-18.265625-18.261719 0-10.089844 8.179687-18.265625 18.265625-18.265625s18.265625 8.175781 18.265625 18.265625c.050781 4.859375-1.855469 9.535156-5.292969 12.972656-3.4375 3.433594-8.113281 5.34375-12.972656 5.289063zm0 0"/><path d="m243.246094 141.707031c33.480468 0 60.695312 17.277344 77.386718 35.566407l-24.347656-.800782c-3.847656-.097656-7.050781 2.925782-7.175781 6.769532-.128906 3.84375 2.871094 7.070312 6.710937 7.222656l37.4375 1.238281c2.570313.960937 5.464844.332031 7.40625-1.609375 1.9375-1.945312 2.5625-4.839844 1.597657-7.410156l-1.234375-37.421875c-.15625-3.839844-3.382813-6.839844-7.226563-6.710938-3.839843.125-6.863281 3.328125-6.765625 7.171875l.609375 18.5c-19.269531-19.6875-48.410156-36.515625-84.398437-36.515625-69.550782 0-116.273438 60.121094-116.273438 116.273438 0 3.863281 3.132813 7 7 7 3.867188 0 7-3.136719 7-7 0-23.902344 10.328125-49.648438 27.625-68.867188 18.929688-21.339843 46.121094-33.507812 74.648438-33.40625zm0 0"/><path d="m353.972656 236.980469c-3.867187 0-7 3.132812-7 7 0 23.898437-10.324218 49.644531-27.621094 68.863281-18.933593 21.339844-46.125 33.507812-74.652343 33.40625-33.480469 0-60.699219-17.277344-77.386719-35.566406l24.351562.800781c3.863282.125 7.097657-2.902344 7.226563-6.765625.125-3.863281-2.902344-7.101562-6.765625-7.226562l-37.433594-1.234376c-2.570312-.960937-5.464844-.328124-7.402344 1.613282s-2.5625 4.835937-1.597656 7.402344l1.234375 37.421874c.152344 3.84375 3.378907 6.839844 7.222657 6.714844 3.84375-.128906 6.863281-3.332031 6.765624-7.175781l-.609374-18.5c19.269531 19.691406 48.410156 36.515625 84.402343 36.515625 69.550781 0 116.269531-60.121094 116.269531-116.269531 0-3.871094-3.136718-7.003907-7.003906-7zm0 0"/></g></svg>