<svg height="459pt" viewBox="0 -1 459.085 459" width="459pt" xmlns="http://www.w3.org/2000/svg"><path d="m152.558594 291.109375h-3.050782c-12.125-.015625-21.953124-9.839844-21.96875-21.964844v-169.871093c0-.636719.035157-1.261719.089844-1.882813-11.355468.988281-20.074218 10.484375-20.089844 21.882813v169.871093c.015626 12.125 9.84375 21.949219 21.96875 21.964844h3.050782c11.394531-.015625 20.894531-8.734375 21.882812-20.085937-.625.054687-1.25.085937-1.882812.085937zm0 0" fill="#d4e1f4"/><path d="m341.574219 291.109375h-160.554688c4.871094-6.289063 7.511719-14.015625 7.5-21.96875v-101.640625c0-.636719.035157-1.261719.085938-1.882812-11.351563.988281-20.070313 10.484374-20.085938 21.882812v101.644531c.011719 7.949219-2.628906 15.679688-7.5 21.964844h160.554688c11.394531-.015625 20.894531-8.734375 21.878906-20.085937-.617187.054687-1.246094.085937-1.878906.085937zm0 0" fill="#d4e1f4"/><path d="m322 151.535156c-.617188-19.417968-16.523438-34.847656-35.949219-34.867187h-45.101562c-.066407 0-.132813-.03125-.179688-.078125l-19.730469-21.582032c-6.816406-7.445312-16.449218-11.691406-26.546874-11.699218h-64.984376c-19.855468.019531-35.941406 16.109375-35.96875 35.964844v169.871093c.027344 19.851563 16.113282 35.941407 35.96875 35.964844h192.066407c19.851562-.023437 35.941406-16.113281 35.964843-35.964844v-101.644531c-.019531-19.691406-15.851562-35.710938-35.539062-35.964844zm-167.476562 137.609375c-.011719 12.125-9.839844 21.949219-21.964844 21.964844h-3.050782c-12.125-.015625-21.953124-9.839844-21.96875-21.964844v-169.871093c.015626-12.128907 9.84375-21.953126 21.96875-21.964844h64.988282c6.167968.003906 12.046875 2.597656 16.214844 7.144531l19.730468 21.582031c2.699219 2.945313 6.511719 4.628906 10.511719 4.632813h45.101563c11.695312.011719 21.335937 9.179687 21.9375 20.863281h-117.5c-19.855469.023438-35.945313 16.113281-35.96875 35.96875zm189.015624 0c-.011718 12.125-9.839843 21.949219-21.964843 21.964844h-160.554688c4.871094-6.289063 7.511719-14.015625 7.5-21.96875v-101.640625c.015625-12.128906 9.839844-21.957031 21.96875-21.96875h131.085938c12.125.011719 21.953125 9.839844 21.964843 21.96875zm0 0" fill="#0635c9"/><g fill="#1ae5be"><path d="m228.070312 14.042969c37.667969 0 75.382813 10.679687 109.058594 30.886719 24.363282 14.640624 45.855469 33.589843 63.433594 55.921874l-65.421875-2.15625c-2.511719-.101562-4.882813 1.152344-6.21875 3.28125-1.332031 2.132813-1.421875 4.8125-.230469 7.027344s3.476563 3.621094 5.988282 3.683594l77.117187 2.542969c2.726563 1.484375 6.101563.992187 8.292969-1.203125 2.195312-2.195313 2.679687-5.570313 1.195312-8.296875l-2.542968-77.101563c-.066407-2.515625-1.472657-4.800781-3.683594-5.988281-2.214844-1.191406-4.898438-1.101563-7.027344.230469-2.132812 1.332031-3.382812 3.707031-3.28125 6.21875l1.878906 57c-17.699218-21.03125-38.746094-38.992188-62.292968-53.164063-35.855469-21.511719-76.058594-32.8828122-116.265626-32.8828122-64.242187 0-123.464843 26.4882812-166.757812 74.5898432-19.332031 21.578126-34.707031 46.398438-45.414062 73.320313-10.398438 26.28125-15.898438 54-15.898438 80.164063 0 3.867187 3.132812 7 7 7s7-3.132813 7-7c0-50.082032 21.578125-103.957032 57.722656-144.117188 40.597656-45.113281 96.117188-69.957031 156.347656-69.957031zm0 0"/><path d="m452.089844 221.117188c-3.867188 0-7 3.132812-7 7 0 50.082031-21.582032 103.957031-57.726563 144.117187-40.597656 45.113281-96.125 69.957031-156.351562 69.957031-37.667969 0-75.382813-10.679687-109.058594-30.886718-24.363281-14.640626-45.855469-33.589844-63.433594-55.921876l65.425781 2.15625c2.511719.101563 4.882813-1.152343 6.214844-3.28125 1.335938-2.132812 1.421875-4.8125.234375-7.027343-1.191406-2.214844-3.476562-3.621094-5.988281-3.683594l-77.117188-2.539063c-2.726562-1.480468-6.101562-.992187-8.296874 1.203126-2.191407 2.195312-2.675782 5.570312-1.191407 8.296874l2.539063 77.101563c.066406 2.511719 1.472656 4.796875 3.683594 5.988281 2.214843 1.1875 4.898437 1.101563 7.027343-.234375 2.132813-1.332031 3.382813-3.707031 3.28125-6.214843l-1.878906-57c17.699219 21.027343 38.746094 38.988281 62.296875 53.160156 35.851562 21.511718 76.058594 32.882812 116.261719 32.882812 64.246093 0 123.46875-26.492187 166.757812-74.59375 19.335938-21.574218 34.710938-46.394531 45.414063-73.316406 10.402344-26.285156 15.902344-54 15.902344-80.164062-.003907-3.867188-3.132813-6.996094-6.996094-7zm0 0"/></g></svg>