<svg height="394pt" viewBox="0 -8 394 394" width="394pt" xmlns="http://www.w3.org/2000/svg"><path d="m73.925781 343.128906h-4.46875c-19.574219-.023437-35.433593-15.886718-35.457031-35.457031v-278.214844c0-4.445312.835938-8.851562 2.472656-12.984375-13.546875 5.347656-22.453125 18.421875-22.472656 32.984375v278.214844c.023438 19.570313 15.882812 35.433594 35.457031 35.457031h4.46875c14.566407-.019531 27.640625-8.925781 32.984375-22.472656-4.132812 1.632812-8.539062 2.472656-12.984375 2.472656zm0 0" fill="#d4e1f4"/><path d="m364.542969 343.128906h-256.167969c9.601562-9.296875 15.015625-22.09375 15.011719-35.457031v-178.214844c-.003907-4.445312.835937-8.851562 2.472656-12.984375-13.546875 5.347656-22.457031 18.421875-22.472656 32.984375v178.214844c.003906 13.363281-5.410157 26.160156-15.011719 35.457031h256.167969c14.5625-.019531 27.636719-8.925781 32.984375-22.472656-4.132813 1.632812-8.539063 2.472656-12.984375 2.472656zm0 0" fill="#d4e1f4"/><path d="m344.542969 100h-2.609375v-1.640625c-.03125-27.304687-22.15625-49.429687-49.457032-49.460937h-79.675781c-1.015625 0-1.984375-.425782-2.667969-1.175782l-28.914062-31.632812c-9.378906-10.238282-22.625-16.074219-36.507812-16.089844h-95.253907c-27.300781.03125-49.425781 22.15625-49.457031 49.457031v278.214844c.03125 27.300781 22.15625 49.425781 49.457031 49.457031h295.085938c27.300781-.03125 49.425781-22.15625 49.457031-49.457031v-178.214844c-.03125-27.300781-22.15625-49.425781-49.457031-49.457031zm-290.617188 263.128906h-4.46875c-19.574219-.023437-35.433593-15.886718-35.457031-35.457031v-278.214844c.023438-19.574219 15.882812-35.433593 35.457031-35.457031h95.253907c9.953124.011719 19.449218 4.195312 26.171874 11.535156l28.910157 31.628906c3.339843 3.648438 8.054687 5.726563 13 5.730469h79.679687c19.574219.023438 35.433594 15.886719 35.457032 35.460938v1.640625h-189.085938c-27.300781.03125-49.429688 22.15625-49.457031 49.457031v178.21875c-.023438 19.570313-15.886719 35.433594-35.460938 35.457031zm326.074219-35.457031c-.023438 19.570313-15.882812 35.433594-35.457031 35.457031h-256.167969c9.601562-9.296875 15.015625-22.09375 15.011719-35.457031v-178.214844c.019531-19.574219 15.882812-35.433593 35.457031-35.457031h205.699219c19.574219.023438 35.433593 15.886719 35.457031 35.457031zm0 0" fill="#0635c9"/><path d="m150.800781 244.617188c3.488281.449218 6.769531-1.757813 7.664063-5.160157.808594-3.070312 2.84375-8.480469 4.707031-10.601562 2.988281-2.828125 6.941406-4.410157 11.058594-4.433594h.074219c4.066406-.011719 7.972656 1.570313 10.886718 4.398437 2.863282 2.992188 4.472656 6.964844 4.5 11.101563 0 3.867187 3.136719 7 7 7 3.867188 0 7-3.132813 7-7-.078125-4.140625 1.535156-8.132813 4.46875-11.058594 2.929688-2.925781 6.925782-4.527343 11.066406-4.441406 4.089844-.035156 8.03125 1.546875 10.960938 4.398437 2.863281 2.992188 4.472656 6.964844 4.5 11.101563v67.074219c0 8.539062-6.921875 15.457031-15.457031 15.457031-8.539063 0-15.460938-6.917969-15.460938-15.457031 0-3.867188-3.132812-7-7-7-3.867187 0-7 3.132812-7 7 0 16.269531 13.1875 29.457031 29.460938 29.457031 16.269531 0 29.457031-13.1875 29.457031-29.457031v-67.070313c-.078125-4.140625 1.535156-8.136719 4.46875-11.058593 2.929688-2.925782 6.925781-4.53125 11.066406-4.441407 4.085938-.019531 8.023438 1.558594 10.960938 4.398438 2.863281 2.988281 4.472656 6.960937 4.5 11.101562 0 3.863281 3.136718 7 7 7 3.867187 0 7-3.136719 7-7-.078125-4.140625 1.535156-8.136719 4.46875-11.058593 2.929687-2.925782 6.925781-4.53125 11.066406-4.441407 4.082031-.027343 8.011719 1.546875 10.949219 4.386719 1.855469 2.066406 3.921875 7.542969 4.746093 10.644531.894532 3.40625 4.179688 5.617188 7.667969 5.164063 3.492188-.453125 6.105469-3.425782 6.101563-6.945313v-.121093c-.035156-53.515626-43.425782-96.878907-96.9375-96.882813h-.183594c-53.539062.035156-96.914062 43.46875-96.878906 97.007813.003906 3.523437 2.625 6.492187 6.117187 6.9375zm32.152344-65.613282c15.507813-15.613281 36.621094-24.375 58.625-24.332031h.117187.0625c36.242188.027344 68.285157 23.542969 79.175782 58.109375-11.078125-4.664062-23.871094-2.289062-32.535156 6.046875-.097657.097656-.199219.199219-.296876.300781-.488281.515625-.957031 1.046875-1.402343 1.585938-.445313-.539063-.914063-1.070313-1.398438-1.585938-.0625-.066406-.125-.132812-.191406-.195312-5.53125-5.464844-12.992187-8.523438-20.761719-8.507813h-.144531c-7.761719-.003906-15.21875 3.007813-20.800781 8.402344-.101563.097656-.199219.195313-.300782.300781-.488281.519532-.953124 1.046875-1.398437 1.585938-.449219-.539063-.914063-1.066406-1.402344-1.585938-.0625-.066406-.125-.132812-.191406-.199218-5.527344-5.464844-12.988281-8.523438-20.761719-8.507813-7.808594-.046875-15.324218 2.96875-20.941406 8.398437-.101562.097657-.203125.195313-.296875.300782-.488281.515625-.957031 1.046875-1.402344 1.585937-.445312-.539062-.914062-1.070312-1.398437-1.585937-.0625-.066406-.128906-.132813-.191406-.199219-8.65625-8.445313-21.539063-10.851563-32.65625-6.101563 3.988281-12.765624 11.019531-24.371093 20.488281-33.816406zm0 0" fill="#1ae5be"/></svg>