<svg height="442pt" viewBox="0 -32 442.44 442" width="442pt" xmlns="http://www.w3.org/2000/svg"><path d="m74.148438 343.34375h-4.46875c-19.574219-.023438-35.4375-15.882812-35.460938-35.457031v-278.210938c0-4.449219.839844-8.851562 2.472656-12.988281-13.546875 5.347656-22.453125 18.421875-22.472656 32.988281v278.210938c.023438 19.574219 15.886719 35.433593 35.460938 35.457031h4.46875c14.5625-.015625 27.636718-8.925781 32.984374-22.472656-4.132812 1.636718-8.539062 2.476562-12.984374 2.472656zm0 0" fill="#d4e1f4"/><path d="m364.761719 343.34375h-256.167969c9.601562-9.296875 15.019531-22.09375 15.011719-35.457031v-178.210938c0-4.449219.835937-8.851562 2.472656-12.988281-13.546875 5.347656-22.453125 18.421875-22.472656 32.988281v178.210938c.007812 13.363281-5.410157 26.160156-15.011719 35.457031h256.167969c14.5625-.015625 27.640625-8.925781 32.984375-22.472656-4.132813 1.636718-8.539063 2.472656-12.984375 2.472656zm0 0" fill="#d4e1f4"/><path d="m344.539062 100.21875h-2.609374v-1.648438c-.035157-27.300781-22.160157-49.421874-49.460938-49.449218h-79.667969c-1.019531-.003906-1.988281-.433594-2.671875-1.183594l-28.910156-31.628906c-9.378906-10.242188-22.621094-16.078125-36.507812-16.089844h-95.25c-27.300782.03125-49.4257818 22.152344-49.460938 49.453125v278.21875c.0351562 27.300781 22.160156 49.421875 49.460938 49.449219h295.078124c27.300782-.027344 49.429688-22.148438 49.460938-49.449219v-61.511719h-14v61.511719c-.027344 19.570313-15.890625 35.425781-35.460938 35.449219h-256.175781c9.609375-9.289063 15.03125-22.085938 15.027344-35.449219v-178.21875c.019531-19.570313 15.878906-35.429687 35.449219-35.453125h205.699218c19.570313.023438 35.433594 15.878906 35.460938 35.453125v61.507813h14v-61.507813c-.035156-27.300781-22.160156-49.421875-49.460938-49.453125zm-16.609374 0h-189.089844c-27.296875.03125-49.417969 22.152344-49.449219 49.453125v178.21875c-.027344 19.570313-15.890625 35.425781-35.460937 35.449219h-4.46875c-19.570313-.023438-35.433594-15.878906-35.460938-35.449219v-278.21875c.027344-19.574219 15.890625-35.429687 35.460938-35.453125h95.25c9.953124.007812 19.449218 4.191406 26.171874 11.535156l28.910157 31.625c3.339843 3.652344 8.058593 5.734375 13.007812 5.738282h79.667969c19.570312.023437 35.433594 15.878906 35.460938 35.449218zm0 0" fill="#0635c9"/><path d="m311.03125 314.78125c3.863281 0 7-3.136719 7-7v-34.402344h117.410156c3.863282 0 7-3.132812 7-7v-55.199218c0-3.867188-3.136718-7-7-7h-117.410156v-34.398438c0-2.570312-1.410156-4.933594-3.671875-6.15625-2.257813-1.222656-5.007813-1.109375-7.160156.296875l-105.589844 69c-1.976563 1.292969-3.167969 3.496094-3.167969 5.859375s1.191406 4.566406 3.167969 5.859375l105.589844 69c1.140625.742187 2.472656 1.140625 3.832031 1.140625zm-7-48.402344v28.464844l-85.796875-56.0625 85.796875-56.0625v28.460938c0 3.867187 3.132812 7 7 7h117.410156v41.199218h-117.410156c-3.867188 0-7 3.136719-7 7zm0 0" fill="#1ae5be"/></svg>