<svg height="444pt" viewBox="0 -13 444.00153 444" width="444pt" xmlns="http://www.w3.org/2000/svg"><path d="m71.449219 324.003906h-4.230469c-18.335938-.019531-33.199219-14.878906-33.21875-33.21875v-263.570312c-.003906-3.835938.664062-7.644532 1.964844-11.253906-13.167969 4.757812-21.949219 17.253906-21.964844 31.253906v263.570312c.019531 18.339844 14.882812 33.199219 33.21875 33.21875h4.230469c14.007812-.011718 26.503906-8.796875 31.265625-21.964844-3.613282 1.304688-7.425782 1.96875-11.265625 1.964844zm0 0" fill="#d4e1f4"/><path d="m104.976562 324.003906c8.78125-8.824218 13.707032-20.769531 13.703126-33.21875v-168.828125c-.003907-3.839843.660156-7.648437 1.964843-11.253906-13.167969 4.757813-21.949219 17.25-21.964843 31.253906v168.828125c.003906 12.449219-4.921876 24.394532-13.703126 33.21875h150.238282c-2.113282-6.507812-3.59375-13.203125-4.421875-20zm0 0" fill="#d4e1f4"/><path d="m326.769531 94.734375h-2.097656v-1.1875c-.027344-26.070313-21.152344-47.199219-47.222656-47.230469h-75.488281c-.859376 0-1.675782-.359375-2.253907-.992187l-27.390625-29.960938c-8.953125-9.777343-21.597656-15.3515622-34.855468-15.363281h-90.242188c-26.0625.03125-47.1875 21.152344-47.21875 47.214844v263.570312c.03125 26.066406 21.152344 47.191406 47.21875 47.21875h198.78125v-14h-161.023438c8.78125-8.824218 13.707032-20.769531 13.703126-33.21875v-168.828125c.019531-18.339843 14.878906-33.199219 33.21875-33.222656h194.871093c18.339844.019531 33.207031 14.878906 33.230469 33.222656v74.046875h14v-74.046875c-.03125-26.070312-21.160156-47.195312-47.230469-47.222656zm-16.097656 0h-178.773437c-26.066407.03125-47.1875 21.15625-47.21875 47.222656v168.828125c-.023438 18.34375-14.886719 33.203125-33.230469 33.21875h-4.230469c-18.335938-.019531-33.199219-14.878906-33.21875-33.21875v-263.570312c.023438-18.335938 14.882812-33.195313 33.21875-33.214844h90.242188c9.328124.011719 18.222656 3.933594 24.523437 10.8125l27.375 29.945312c3.230469 3.542969 7.804687 5.5625 12.601563 5.5625h75.488281c18.34375.023438 33.203125 14.890626 33.222656 33.230469zm0 0" fill="#0635c9"/><g fill="#1ae5be"><path d="m337 204.003906c-59.09375 0-107 47.90625-107 107 0 59.097656 47.90625 107 107 107s107-47.902344 107-107c.152344-28.421875-11.070312-55.726562-31.171875-75.828125-20.097656-20.097656-47.402344-31.324219-75.828125-31.171875zm0 200c-51.363281 0-93-41.636718-93-93 0-51.359375 41.636719-93 93-93s93 41.640625 93 93c0 51.363282-41.636719 93-93 93zm0 0"/><path d="m284 311.003906c0-22.050781 18.28125-52.597656 52.601562-52.597656 13.835938 0 25.601563 5.746094 34.15625 12.898438l-11.84375-.300782c-3.867187-.09375-7.078124 2.960938-7.175781 6.824219-.097656 3.867187 2.957031 7.082031 6.824219 7.175781l26.632812.671875c2.425782.660157 5.015626-.03125 6.789063-1.804687 1.777344-1.777344 2.464844-4.371094 1.800781-6.792969l-.667968-26.625c-.097657-3.867187-3.308594-6.921875-7.175782-6.824219-3.867187.097656-6.921875 3.308594-6.824218 7.175782l.234374 9.382812c-11.957031-10.113281-27.089843-15.699219-42.75-15.785156-39.84375 0-66.601562 34.4375-66.601562 66.597656 0 3.867188 3.132812 7 7 7s7-3.132812 7-7zm0 0"/><path d="m397 304.003906c-3.867188 0-7 3.136719-7 7 0 34.324219-30.550781 52.601563-52.601562 52.601563-13.835938 0-25.597657-5.746094-34.15625-12.898438l11.84375.296875h.179687c3.867187.050782 7.039063-3.046875 7.085937-6.910156.046876-3.867188-3.046874-7.039062-6.914062-7.089844l-26.632812-.667968c-2.425782-.660157-5.015626.03125-6.792969 1.808593-1.773438 1.777344-2.460938 4.367188-1.796875 6.792969l.667968 26.621094c.09375 3.796875 3.203126 6.828125 7 6.824218h.179688c3.863281-.097656 6.917969-3.308593 6.820312-7.171874l-.234374-9.382813c11.960937 10.109375 27.089843 15.695313 42.75 15.78125 39.839843 0 66.601562-34.441406 66.601562-66.601563 0-3.867187-3.132812-7.003906-7-7.003906zm0 0"/></g></svg>