<svg height="444pt" viewBox="0 -13 444 444" width="444pt" xmlns="http://www.w3.org/2000/svg"><path d="m71.449219 323.933594h-4.230469c-18.335938-.019532-33.199219-14.878906-33.21875-33.21875v-263.570313c-.003906-3.835937.664062-7.644531 1.964844-11.253906-13.167969 4.757813-21.949219 17.253906-21.964844 31.253906v263.570313c.019531 18.339844 14.882812 33.199218 33.21875 33.21875h4.230469c14.007812-.015625 26.503906-8.796875 31.265625-21.96875-3.613282 1.304687-7.425782 1.972656-11.265625 1.96875zm0 0" fill="#d4e1f4"/><path d="m238 323.933594h-133.023438c8.78125-8.824219 13.707032-20.769532 13.703126-33.21875v-168.828125c-.003907-3.839844.660156-7.648438 1.964843-11.257813-13.167969 4.761719-21.949219 17.253906-21.964843 31.257813v168.828125c.003906 12.449218-4.921876 24.394531-13.703126 33.21875h153.050782c-.015625-.34375-.027344-20-.027344-20zm0 0" fill="#d4e1f4"/><path d="m326.769531 94.734375h-2.097656v-1.1875c-.027344-26.070313-21.152344-47.199219-47.222656-47.230469h-75.488281c-.859376 0-1.675782-.359375-2.253907-.996094l-27.390625-29.957031c-8.953125-9.777343-21.597656-15.3515622-34.855468-15.363281h-90.242188c-26.0625.03125-47.1875 21.152344-47.21875 47.214844v263.570312c.03125 26.066406 21.152344 47.191406 47.21875 47.21875h198.78125v-14h-161.023438c8.78125-8.824218 13.707032-20.769531 13.703126-33.21875v-168.832031c.019531-18.335937 14.878906-33.195313 33.21875-33.21875h194.871093c18.339844.019531 33.207031 14.878906 33.230469 33.21875v74.050781h14v-74.050781c-.03125-26.066406-21.160156-47.191406-47.230469-47.21875zm-16.097656 0h-178.773437c-26.066407.03125-47.1875 21.152344-47.21875 47.21875v168.832031c-.023438 18.339844-14.886719 33.203125-33.230469 33.21875h-4.230469c-18.335938-.019531-33.199219-14.878906-33.21875-33.21875v-263.570312c.023438-18.335938 14.882812-33.195313 33.21875-33.214844h90.242188c9.328124.007812 18.222656 3.933594 24.523437 10.8125l27.375 29.945312c3.234375 3.542969 7.804687 5.5625 12.601563 5.5625h75.488281c18.34375.023438 33.203125 14.886719 33.222656 33.230469zm0 0" fill="#0635c9"/><g fill="#1ae5be"><path d="m350.550781 377.234375c2.8125 0 5.351563-1.683594 6.449219-4.277344 1.09375-2.589843.53125-5.585937-1.429688-7.601562l-9.410156-9.679688h23.472656c24.457032-.125 44.214844-19.992187 44.203126-44.449219-.007813-24.453124-19.777344-44.304687-44.234376-44.410156h-.035156c-3.867187 0-7 3.136719-6.996094 7 0 3.867188 3.132813 7 7 7h.03125c10.914063-.058594 21.019532 5.734375 26.488282 15.175782 5.472656 9.445312 5.464844 21.09375-.011719 30.53125-5.480469 9.4375-15.59375 15.21875-26.507813 15.152343h-22.738281l8.757813-9.089843c2.648437-2.789063 2.546875-7.191407-.21875-9.859376-2.769532-2.667968-7.171875-2.601562-9.859375.144532l-20.570313 21.34375c-2.621094 2.71875-2.609375 7.027344.023438 9.734375l20.566406 21.164062c1.316406 1.359375 3.128906 2.125 5.019531 2.121094zm0 0"/><path d="m328.488281 299.140625 20.570313-21.34375c2.621094-2.71875 2.613281-7.027344-.019532-9.738281l-20.570312-21.160156c-2.695312-2.769532-7.125-2.832032-9.898438-.140626-2.773437 2.695313-2.835937 7.128907-.140624 9.898438l9.175781 9.445312h-23.238281c-24.539063.007813-44.421876 19.90625-44.414063 44.445313.011719 24.535156 19.910156 44.421875 44.445313 44.410156h.035156c3.867187 0 7-3.132812 7-7 0-3.863281-3.132813-7-7-7h-.035156c-16.804688-.007812-30.421876-13.636719-30.414063-30.441406s13.640625-30.421875 30.445313-30.414063h22.96875l-8.988282 9.328126c-2.644531 2.789062-2.546875 7.1875.222656 9.855468 2.765626 2.667969 7.167969 2.605469 9.855469-.140625zm0 0"/><path d="m444 311.003906c0-59.09375-47.90625-107-107-107s-107 47.90625-107 107 47.90625 107 107 107c59.066406-.066406 106.933594-47.933594 107-107zm-200 0c0-51.363281 41.636719-93 93-93s93 41.636719 93 93c0 51.363282-41.636719 93-93 93-51.339844-.058594-92.941406-41.660156-93-93zm0 0"/></g></svg>