<svg height="414pt" viewBox="0 -33 414 414" width="414pt" xmlns="http://www.w3.org/2000/svg"><path d="m107.570312 254.976562h-3.679687c-15.4375-.019531-27.949219-12.527343-27.964844-27.964843v-205.050781c-.003906-2.382813.296875-4.753907.898438-7.0625-12.300781 3.230468-20.882813 14.34375-20.898438 27.0625v205.050781c.015625 15.4375 12.527344 27.945312 27.964844 27.964843h3.679687c12.722657-.015624 23.835938-8.601562 27.0625-20.90625-2.304687.601563-4.679687.90625-7.0625.90625zm0 0" fill="#d4e1f4"/><path d="m346.90625 254.976562h-208.070312c6.898437-7.679687 10.707031-17.640624 10.699218-27.964843v-122.695313c0-2.382812.304688-4.757812.90625-7.0625-12.300781 3.230469-20.882812 14.34375-20.902344 27.0625v122.699219c.011719 10.324219-3.800781 20.285156-10.699218 27.964844h208.066406c12.722656-.015625 23.835938-8.601563 27.0625-20.90625-2.304688.601562-4.679688.90625-7.0625.902343zm0 0" fill="#d4e1f4"/><path d="m407 333.078125h-194.601562v-50.589844h-14v50.589844h-191.398438c-3.867188 0-7 3.136719-7 7 0 3.867187 3.132812 7 7 7h400c3.867188 0 7-3.132813 7-7 0-3.863281-3.132812-7-7-7zm0 0" fill="#1ae5be"/><path d="m326.90625 82.347656h-.914062v-.109375c-.023438-23.167969-18.796876-41.941406-41.964844-41.96875h-65.621094c-.488281 0-.953125-.203125-1.285156-.566406l-23.808594-26.050781c-7.957031-8.6875-19.195312-13.6406252-30.976562-13.652344h-78.445313c-23.167969.0273438-41.941406 18.800781-41.964844 41.964844v205.050781c.023438 23.167969 18.800781 41.941406 41.964844 41.964844h243.015625c23.167969-.023438 41.941406-18.796875 41.96875-41.964844v-122.699219c-.027344-23.167968-18.800781-41.941406-41.96875-41.96875zm-211.367188 164.664063c-.019531 15.4375-12.53125 27.945312-27.96875 27.964843h-3.679687c-15.4375-.019531-27.949219-12.527343-27.964844-27.964843v-205.050781c.015625-15.4375 12.527344-27.949219 27.964844-27.964844h78.445313c7.851562.007812 15.339843 3.308594 20.644531 9.097656l23.808593 26.050781c2.984376 3.257813 7.199219 5.117188 11.617188 5.121094h65.621094c15.4375.019531 27.949218 12.53125 27.964844 27.972656v.117188h-154.492188c-23.167969.027343-41.941406 18.800781-41.964844 41.964843zm239.335938 0c-.019531 15.4375-12.53125 27.945312-27.96875 27.964843h-208.070312c6.898437-7.679687 10.707031-17.640624 10.699218-27.964843v-122.695313c.019532-15.4375 12.527344-27.949218 27.964844-27.96875h169.398438c15.441406.019532 27.949218 12.53125 27.96875 27.96875zm0 0" fill="#0635c9"/></svg>