<svg height="444pt" viewBox="0 -13 444 444" width="444pt" xmlns="http://www.w3.org/2000/svg"><path d="m71.449219 324.003906h-4.230469c-18.335938-.019531-33.199219-14.878906-33.21875-33.21875v-263.570312c-.003906-3.835938.664062-7.644532 1.964844-11.253906-13.167969 4.757812-21.949219 17.253906-21.964844 31.253906v263.570312c.019531 18.339844 14.882812 33.199219 33.21875 33.21875h4.230469c14.007812-.015625 26.503906-8.796875 31.265625-21.96875-3.613282 1.304688-7.425782 1.972656-11.265625 1.96875zm0 0" fill="#d4e1f4"/><path d="m104.976562 324.003906c8.78125-8.824218 13.707032-20.769531 13.703126-33.21875v-168.832031c-.003907-3.835937.660156-7.644531 1.964843-11.253906-13.167969 4.761719-21.949219 17.253906-21.964843 31.253906v168.832031c.003906 12.449219-4.921876 24.394532-13.703126 33.21875h150.238282c-2.113282-6.507812-3.59375-13.207031-4.421875-20zm0 0" fill="#d4e1f4"/><path d="m47.21875 358.003906h198.78125v-14h-161.023438c8.78125-8.824218 13.707032-20.769531 13.703126-33.21875v-168.832031c.019531-18.335937 14.878906-33.199219 33.21875-33.21875h194.871093c18.339844.019531 33.207031 14.878906 33.230469 33.21875v74.050781h14v-74.050781c-.03125-26.066406-21.160156-47.191406-47.230469-47.21875h-2.097656v-1.1875c-.027344-26.070313-21.152344-47.199219-47.222656-47.230469h-75.488281c-.859376 0-1.675782-.359375-2.253907-.996094l-27.390625-29.957031c-8.953125-9.777343-21.597656-15.3515622-34.855468-15.363281h-90.242188c-26.0625.03125-47.1875 21.152344-47.21875 47.214844v263.570312c.03125 26.066406 21.152344 47.191406 47.21875 47.21875zm-33.21875-310.789062c.023438-18.335938 14.882812-33.195313 33.21875-33.214844h90.242188c9.328124.011719 18.222656 3.933594 24.523437 10.8125l27.375 29.945312c3.234375 3.542969 7.804687 5.5625 12.601563 5.5625h75.488281c18.34375.023438 33.203125 14.886719 33.222656 33.230469v1.1875h-178.773437c-26.066407.03125-47.1875 21.15625-47.21875 47.222657v168.828124c-.023438 18.34375-14.886719 33.203126-33.230469 33.222657h-4.230469c-18.339844-.023438-33.199219-14.886719-33.21875-33.226563zm0 0" fill="#0635c9"/><g fill="#1ae5be"><path d="m337 418.003906c59.09375 0 107-47.90625 107-107s-47.90625-107-107-107-107 47.90625-107 107c.066406 59.066406 47.933594 106.933594 107 107zm0-200c51.363281 0 93 41.636719 93 93 0 51.363282-41.636719 93-93 93s-93-41.636718-93-93c.058594-51.335937 41.660156-92.941406 93-93zm0 0"/><path d="m295 287.351562c0 3.867188 3.132812 7 7 7h41.972656c-3.054687 9.542969-11.921875 16.019532-21.941406 16.03125h-20.03125c-2.867188 0-5.445312 1.75-6.503906 4.414063-1.0625 2.664063-.386719 5.707031 1.695312 7.675781l50.066406 47.308594c2.808594 2.65625 7.238282 2.53125 9.894532-.28125 2.65625-2.808594 2.53125-7.238281-.28125-9.894531l-37.269532-35.222657h2.429688c17.742188-.023437 32.984375-12.613281 36.359375-30.03125h13.609375c3.867188 0 7-3.132812 7-7 0-3.867187-3.132812-7-7-7h-13.609375c-1.128906-5.863281-3.664063-11.367187-7.390625-16.035156h21c3.867188 0 7-3.132812 7-7 0-3.867187-3.132812-7-7-7h-70c-3.867188 0-7 3.132813-7 7 0 3.867188 3.132812 7 7 7h20.03125c10.019531.011719 18.886719 6.492188 21.941406 16.035156h-41.972656c-3.867188 0-7 3.132813-7 7zm0 0"/></g></svg>