<svg height="443pt" viewBox="0 -12 443.99886 443" width="443pt" xmlns="http://www.w3.org/2000/svg"><path d="m71.449219 324.503906h-4.230469c-18.335938-.019531-33.199219-14.882812-33.21875-33.21875v-263.570312c-.003906-3.835938.664062-7.644532 1.964844-11.253906-13.167969 4.757812-21.949219 17.25-21.964844 31.253906v263.570312c.019531 18.335938 14.882812 33.199219 33.21875 33.21875h4.230469c14.007812-.015625 26.503906-8.796875 31.265625-21.96875-3.613282 1.304688-7.425782 1.972656-11.265625 1.96875zm0 0" fill="#d4e1f4"/><path d="m104.976562 324.503906c8.78125-8.824218 13.707032-20.769531 13.703126-33.21875v-168.832031c-.003907-3.835937.660156-7.644531 1.964843-11.253906-13.167969 4.757812-21.949219 17.253906-21.964843 31.253906v168.832031c.003906 12.449219-4.921876 24.394532-13.703126 33.21875h150.238282c-2.113282-6.507812-3.59375-13.207031-4.421875-20zm0 0" fill="#d4e1f4"/><path d="m326.769531 95.230469h-2.097656v-1.191407c-.027344-26.070312-21.152344-47.199218-47.222656-47.230468h-75.488281c-.859376.003906-1.675782-.355469-2.25-.988282l-27.390626-29.960937c-8.957031-9.773437-21.601562-15.34375-34.859374-15.359375h-90.242188c-26.0625.027344-47.1875 21.144531-47.21875 47.210938v263.578124c.03125 26.0625 21.15625 47.183594 47.21875 47.210938h4.230469c26.070312-.023438 47.199219-21.144531 47.230469-47.210938v-168.828124c.019531-18.34375 14.878906-33.207032 33.21875-33.230469h194.871093c18.34375.023437 33.207031 14.886719 33.230469 33.230469v64.527343c4.757812 1.042969 9.433594 2.417969 14 4.109375v-68.636718c-.03125-26.074219-21.160156-47.199219-47.230469-47.230469zm-16.097656 0h-178.773437c-26.066407.03125-47.191407 21.160156-47.21875 47.230469v168.828124c-.027344 18.339844-14.890626 33.191407-33.230469 33.210938h-4.230469c-18.335938-.019531-33.195312-14.875-33.21875-33.210938v-263.578124c.023438-18.335938 14.882812-33.195313 33.21875-33.210938h90.242188c9.324218.007812 18.222656 3.929688 24.519531 10.808594l27.378906 29.941406c3.230469 3.542969 7.804687 5.5625 12.601563 5.558594h75.488281c18.339843.023437 33.203125 14.890625 33.222656 33.230468zm0 0" fill="#0635c9"/><g fill="#1ae5be"><path d="m374 211.097656c-4.566406-1.691406-9.242188-3.066406-14-4.109375-40.191406-8.820312-81.882812 6.167969-107.261719 38.5625-14.808593 18.785157-22.824219 42.027344-22.738281 65.949219-.007812 11.203125 1.746094 22.339844 5.191406 33h-150.203125c-8.855469 8.964844-20.9375 14.007812-33.539062 14h189.402343c21.136719 43.246094 68.550782 67.054688 115.863282 58.179688 47.308594-8.871094 82.875-48.242188 86.90625-96.207032 4.035156-47.96875-24.457032-92.722656-69.621094-109.375zm-37 193.402344c-51.363281 0-93-41.636719-93-93s41.636719-93 93-93 93 41.636719 93 93-41.636719 93-93 93zm0 0"/><path d="m315.730469 338.789062c2.46875 2.890626 6.792969 3.28125 9.742187.882813l55.890625-45.472656c3-2.441407 3.453125-6.847657 1.015625-9.847657-2.441406-3-6.851562-3.453124-9.851562-1.011718l-50.589844 41.160156-19.5625-22.90625c-2.507812-2.941406-6.929688-3.289062-9.867188-.777344-2.941406 2.507813-3.289062 6.929688-.777343 9.867188zm0 0"/></g></svg>