<svg height="457pt" viewBox="0 -14 457.83536 457" width="457pt" xmlns="http://www.w3.org/2000/svg"><path d="m71.449219 324.421875h-4.230469c-18.335938-.019531-33.199219-14.878906-33.21875-33.21875v-263.570313c-.003906-3.835937.664062-7.644531 1.964844-11.253906-13.167969 4.757813-21.949219 17.25-21.964844 31.253906v263.570313c.019531 18.339844 14.882812 33.199219 33.21875 33.21875h4.230469c14.007812-.015625 26.503906-8.796875 31.265625-21.96875-3.613282 1.304687-7.425782 1.972656-11.265625 1.96875zm0 0" fill="#d4e1f4"/><path d="m104.976562 324.421875c8.78125-8.824219 13.707032-20.769531 13.703126-33.21875v-168.832031c-.003907-3.835938.660156-7.644532 1.964843-11.253906-13.167969 4.761718-21.949219 17.253906-21.964843 31.253906v168.832031c.003906 12.449219-4.921876 24.394531-13.703126 33.21875h150.210938c-2.101562-6.507813-3.574219-13.207031-4.398438-20zm0 0" fill="#d4e1f4"/><path d="m47.21875 358.421875h198.78125v-14h-161.023438c8.78125-8.824219 13.707032-20.769531 13.703126-33.21875v-168.832031c.019531-18.335938 14.878906-33.199219 33.21875-33.21875h194.871093c18.339844.019531 33.207031 14.878906 33.230469 33.21875v74.050781h14v-74.050781c-.03125-26.066406-21.160156-47.191406-47.230469-47.21875h-2.097656v-1.191406c-.027344-26.066407-21.152344-47.195313-47.222656-47.226563h-75.488281c-.859376 0-1.675782-.359375-2.253907-.996094l-27.390625-29.957031c-8.953125-9.777344-21.597656-15.351562-34.855468-15.363281h-90.242188c-26.0625.03125-47.1875 21.148437-47.21875 47.214843v263.570313c.03125 26.066406 21.152344 47.191406 47.21875 47.21875zm-33.21875-310.789063c.023438-18.335937 14.882812-33.195312 33.21875-33.214843h90.242188c9.328124.007812 18.222656 3.933593 24.523437 10.8125l27.375 29.945312c3.234375 3.542969 7.804687 5.5625 12.601563 5.5625h75.488281c18.34375.023438 33.203125 14.886719 33.222656 33.230469v1.1875h-178.773437c-26.066407.03125-47.1875 21.15625-47.21875 47.222656v168.828125c-.023438 18.34375-14.886719 33.203125-33.230469 33.21875h-4.230469c-18.339844-.019531-33.199219-14.882812-33.21875-33.222656zm0 0" fill="#0635c9"/><path d="m418.800781 380.316406c37.210938-44.199218 32.648438-109.945312-10.308593-148.582031-42.960938-38.636719-108.824219-36.230469-148.84375 5.441406-40.023438 41.671875-39.769532 107.578125.570312 148.941407 40.339844 41.363281 106.222656 43.265624 148.882812 4.300781l36.785157 36.785156c2.730469 2.734375 7.164062 2.734375 9.898437 0s2.734375-7.164063 0-9.898437zm-81.800781 24.105469c-51.363281 0-93-41.636719-93-93s41.636719-93 93-93 93 41.636719 93 93c-.058594 51.339844-41.660156 92.941406-93 93zm0 0" fill="#1ae5be"/></svg>