<svg height="394pt" viewBox="0 -8 394 394" width="394pt" xmlns="http://www.w3.org/2000/svg"><path d="m73.925781 343.128906h-4.46875c-19.574219-.023437-35.433593-15.886718-35.457031-35.457031v-278.214844c0-4.445312.835938-8.851562 2.472656-12.984375-13.546875 5.347656-22.453125 18.421875-22.472656 32.984375v278.214844c.023438 19.570313 15.882812 35.433594 35.457031 35.457031h4.46875c14.566407-.019531 27.640625-8.925781 32.984375-22.472656-4.132812 1.632812-8.539062 2.472656-12.984375 2.472656zm0 0" fill="#d4e1f4"/><path d="m364.542969 343.128906h-256.167969c9.601562-9.296875 15.015625-22.09375 15.011719-35.457031v-178.214844c-.003907-4.445312.835937-8.851562 2.472656-12.984375-13.546875 5.347656-22.457031 18.421875-22.472656 32.984375v178.214844c.003906 13.363281-5.410157 26.160156-15.011719 35.457031h256.167969c14.5625-.019531 27.636719-8.925781 32.984375-22.472656-4.132813 1.632812-8.539063 2.472656-12.984375 2.472656zm0 0" fill="#d4e1f4"/><path d="m344.542969 100h-2.609375v-1.640625c-.03125-27.304687-22.15625-49.429687-49.457032-49.460937h-79.675781c-1.015625 0-1.984375-.425782-2.667969-1.175782l-28.914062-31.632812c-9.378906-10.238282-22.625-16.074219-36.507812-16.089844h-95.253907c-27.300781.03125-49.425781 22.15625-49.457031 49.457031v278.214844c.03125 27.300781 22.15625 49.425781 49.457031 49.457031h295.085938c27.300781-.03125 49.425781-22.15625 49.457031-49.457031v-178.214844c-.03125-27.300781-22.15625-49.425781-49.457031-49.457031zm-290.617188 263.128906h-4.46875c-19.574219-.023437-35.433593-15.886718-35.457031-35.457031v-278.214844c.023438-19.574219 15.882812-35.433593 35.457031-35.457031h95.253907c9.953124.011719 19.449218 4.195312 26.171874 11.535156l28.910157 31.628906c3.339843 3.648438 8.054687 5.726563 13 5.730469h79.679687c19.574219.023438 35.433594 15.886719 35.457032 35.460938v1.640625h-189.085938c-27.300781.03125-49.429688 22.15625-49.457031 49.457031v178.21875c-.023438 19.570313-15.886719 35.433594-35.460938 35.457031zm326.074219-35.457031c-.023438 19.570313-15.882812 35.433594-35.457031 35.457031h-256.167969c9.601562-9.296875 15.015625-22.09375 15.011719-35.457031v-178.214844c.019531-19.574219 15.882812-35.433593 35.457031-35.457031h205.699219c19.574219.023438 35.433593 15.886719 35.457031 35.457031zm0 0" fill="#0635c9"/><g fill="#1ae5be"><path d="m240.367188 340.5625c.953124 0 1.898437-.191406 2.773437-.570312l11.644531-5.027344c42.085938-17.683594 69.460938-58.878906 69.460938-104.527344v-46.046875c.003906-2.585937-1.421875-4.960937-3.707032-6.179687l-76.613281-40.824219c-2.085937-1.109375-4.585937-1.097657-6.65625.039062l-74.496093 40.828125c-2.242188 1.226563-3.636719 3.578125-3.636719 6.136719v47.105469c.046875 45.105468 26.769531 85.910156 68.09375 103.976562l10.339843 4.507813c.882813.386719 1.835938.582031 2.796876.582031zm-67.230469-109.066406v-42.960938l67.542969-37.015625 69.566406 37.074219v41.84375c-.007813 40.03125-24.027344 76.152344-60.941406 91.640625l-.046876.023437-8.878906 3.832032-7.539062-3.289063c-36.230469-15.835937-59.660156-51.605469-59.703125-91.148437zm0 0"/><path d="m282.117188 212.5c-2.441407-3-6.847657-3.453125-9.847657-1.011719l-41.621093 33.859375-15.710938-18.398437c-1.617188-1.929688-4.144531-2.839844-6.617188-2.390625-2.476562.453125-4.519531 2.195312-5.351562 4.570312s-.328125 5.011719 1.324219 6.910156l20.148437 23.601563c2.46875 2.890625 6.792969 3.28125 9.738282.882813l46.925781-38.175782c3-2.441406 3.453125-6.851562 1.011719-9.847656zm0 0"/></g></svg>