<svg height="468pt" viewBox="0 -27 468.97367 468" width="468pt" xmlns="http://www.w3.org/2000/svg"><path d="m70.949219 324.960938h-4.230469c-18.335938-.023438-33.199219-14.882813-33.21875-33.222657v-263.570312c-.003906-3.835938.664062-7.644531 1.964844-11.253907-13.167969 4.761719-21.949219 17.253907-21.964844 31.253907v263.570312c.019531 18.339844 14.882812 33.199219 33.21875 33.222657h4.230469c14.007812-.015626 26.503906-8.796876 31.265625-21.96875-3.613282 1.304687-7.425782 1.96875-11.265625 1.96875zm0 0" fill="#d4e1f4"/><path d="m104.476562 324.960938c8.78125-8.828126 13.707032-20.773438 13.703126-33.222657v-168.828125c-.003907-3.835937.660156-7.644531 1.964843-11.253906-13.167969 4.757812-21.949219 17.25-21.964843 31.253906v168.828125c.003906 12.449219-4.921876 24.394531-13.703126 33.222657h190.238282l5.578125-20zm0 0" fill="#d4e1f4"/><path d="m51.449219 358.496094h226.550781v-14h-193.023438c8.78125-8.824219 13.707032-20.769532 13.703126-33.21875v-168.832032c.019531-18.335937 14.878906-33.199218 33.21875-33.21875h194.871093c18.339844.019532 33.207031 14.878907 33.230469 33.21875v72.050782h14v-72.050782c-.03125-26.066406-21.160156-47.191406-47.230469-47.21875h-2.097656v-1.191406c-.027344-26.066406-21.152344-47.195312-47.222656-47.226562h-75.488281c-.859376 0-1.675782-.359375-2.253907-.996094l-27.390625-29.957031c-8.953125-9.78125-21.597656-15.355469-34.855468-15.367188h-90.242188c-26.066406.027344-47.1875 21.152344-47.21875 47.21875v263.570313c.03125 26.066406 21.152344 47.191406 47.21875 47.21875zm-37.449219-47.21875v-263.570313c.019531-18.339843 14.882812-33.199219 33.21875-33.21875h90.242188c9.328124.007813 18.222656 3.929688 24.523437 10.8125l27.375 29.945313c3.230469 3.542968 7.804687 5.5625 12.601563 5.5625h75.488281c18.34375.019531 33.203125 14.886718 33.222656 33.226562v1.191406h-178.773437c-26.066407.03125-47.1875 21.152344-47.21875 47.21875v168.832032c-.023438 18.339844-14.886719 33.203125-33.230469 33.21875h-4.230469c-18.335938-.019532-33.199219-14.878906-33.21875-33.21875zm0 0" fill="#0635c9"/><g fill="#1ae5be"><path d="m465.105469 289.476562c3.921875-2.960937 5.019531-8.378906 2.566406-12.636718l-20.933594-35.199219c-3.105469-5.171875-8.449219-5.726563-12.234375-3.613281l-21.113281 9.710937c-4.484375-3.183593-9.253906-5.949219-14.25-8.253906l-2.160156-23.789063-.113281-.476562c-.910157-4.378906-4.722657-7.546875-9.191407-7.644531h-40.871093c-4.828126-.046875-8.890626 3.613281-9.34375 8.421875l-2.125 23.484375c-5.046876 2.238281-9.851563 4.992187-14.332032 8.21875l-21.226562-9.761719-.324219-.140625c-4.335937-1.773437-9.316406-.128906-11.742187 3.878906l-20.402344 35.125c-2.527344 4.28125-1.402344 9.78125 2.605468 12.726563l19.199219 13.652344c-.8125 5.496093-.816406 11.078124-.011719 16.574218l-19.976562 13.601563-.277344.199219c-3.882812 2.960937-4.96875 8.34375-2.535156 12.578124l20.429688 35.164063.054687.09375c1.152344 1.992187 2.964844 3.519531 5.128906 4.308594 2.355469.808593 4.945313.546875 7.09375-.71875l21.117188-9.714844c4.484375 3.183594 9.25 5.945313 14.246093 8.25l2.164063 23.800781.113281.476563c.910156 4.375 4.722656 7.542969 9.191406 7.640625h40.871094c4.828125.046875 8.886719-3.613282 9.339844-8.417969l2.128906-23.488281c5.046875-2.238282 9.851563-4.992188 14.332032-8.21875l21.222656 9.765625.355468.152343c4.328126 1.734376 9.273438.09375 11.707032-3.882812l20.4375-35.1875c2.492187-4.257812 1.378906-9.710938-2.582032-12.652344l-17.835937-13.582031c.828125-5.550781.832031-11.195313.015625-16.746094l19.109375-13.589843zm-34.316407 7.226563.808594 5.671875c1.136719 6.023438 1.136719 12.210938 0 18.234375l-.789062 5.472656 21.425781 16.320313-16.390625 28.214844-25.339844-11.65625-4.546875 3.71875c-4.820312 3.75-10.144531 6.808593-15.8125 9.089843l-5.148437 2.207031-2.484375 27.445313h-32.441407l-2.5-27.445313-5.144531-2.203124c-5.734375-2.441407-11.152343-5.578126-16.125-9.335938l-4.480469-3.359375-25.089843 11.542969-16.289063-28.035156 18.902344-12.859376 4.8125-3.484374-.804688-5.667969c-1.136718-6.011719-1.136718-12.1875.003907-18.199219l.808593-5.667969-22.808593-16.21875 16.324219-28.097656 25.34375 11.65625 4.542968-3.71875c4.820313-3.75 10.140625-6.808594 15.808594-9.089844l5.152344-2.207031 2.488281-27.449219h32.441406l2.492188 27.453125 5.152343 2.199219c5.734376 2.441406 11.148438 5.574219 16.121094 9.332031l4.476563 3.367188 25.128906-11.5625 16.734375 28.144531zm0 0"/><path d="m367 254.433594c-32 0-57.058594 25.066406-57.058594 57.0625s25.0625 57.0625 57.058594 57.0625 57.0625-25.0625 57.0625-57.0625c0-31.996094-25.0625-57.0625-57.0625-57.0625zm0 100.125c-23.78125 0-43.0625-19.277344-43.0625-43.0625 0-23.78125 19.28125-43.0625 43.0625-43.0625s43.0625 19.28125 43.0625 43.0625c.125 11.460937-4.371094 22.484375-12.472656 30.589844-8.105469 8.101562-19.132813 12.597656-30.589844 12.472656zm0 0"/><path d="m367 281.953125c-16.320312 0-29.546875 13.230469-29.546875 29.550781 0 16.316406 13.230469 29.546875 29.546875 29.546875 16.320312-.003906 29.546875-13.230469 29.546875-29.550781.085937-7.859375-3-15.425781-8.558594-20.984375-5.5625-5.558594-13.125-8.644531-20.988281-8.5625zm0 45.09375c-8.585938 0-15.546875-6.960937-15.546875-15.546875s6.960937-15.546875 15.546875-15.546875 15.546875 6.960937 15.546875 15.546875c.042969 4.136719-1.578125 8.117188-4.503906 11.042969-2.925781 2.921875-6.90625 4.546875-11.042969 4.5zm0 0"/></g></svg>