<svg height="424pt" viewBox="0 -15 424.06553 424" width="424pt" xmlns="http://www.w3.org/2000/svg"><path d="m105.011719 324.539062c8.777343-8.828124 13.703125-20.773437 13.699219-33.222656v-168.828125c-.003907-3.835937.660156-7.644531 1.964843-11.253906-13.167969 4.757813-21.949219 17.25-21.964843 31.253906v168.828125c.003906 12.449219-4.921876 24.394532-13.699219 33.222656h132.234375l5.578125-20zm0 0" fill="#d4e1f4"/><path d="m71.480469 324.539062h-4.226563c-18.339844-.023437-33.203125-14.882812-33.222656-33.222656v-263.570312c0-3.835938.664062-7.644532 1.964844-11.253906-13.167969 4.761718-21.949219 17.253906-21.964844 31.253906v263.570312c.019531 18.339844 14.882812 33.199219 33.222656 33.222656h4.226563c14.007812-.015624 26.503906-8.796874 31.265625-21.96875-3.613282 1.304688-7.421875 1.96875-11.265625 1.96875zm0 0" fill="#d4e1f4"/><path d="m51.449219 358.042969h166.550781v-14h-133.023438c8.78125-8.824219 13.707032-20.769531 13.699219-33.21875v-168.828125c.023438-18.339844 14.882813-33.199219 33.222657-33.222656h194.867187c18.34375.019531 33.207031 14.878906 33.230469 33.222656v93.046875h14v-93.046875c-.03125-26.070313-21.160156-47.195313-47.230469-47.222656h-2.097656v-1.1875c-.027344-26.070313-21.152344-47.199219-47.222657-47.230469h-75.484374c-.859376 0-1.675782-.359375-2.253907-.992188l-27.390625-29.960937c-8.953125-9.78125-21.597656-15.355469-34.855468-15.371094h-90.242188c-26.066406.03125-47.1914062 21.15625-47.21875 47.222656v263.570313c.0273438 26.066406 21.152344 47.191406 47.21875 47.21875zm-37.449219-47.21875v-263.570313c.019531-18.339844 14.882812-33.199218 33.21875-33.222656h90.242188c9.328124.011719 18.222656 3.933594 24.523437 10.816406l27.375 29.945313c3.230469 3.542969 7.804687 5.558593 12.601563 5.5625h75.488281c18.339843.019531 33.203125 14.886719 33.222656 33.226562v1.191407h-178.773437c-26.066407.03125-47.191407 21.152343-47.21875 47.21875v168.832031c-.023438 18.339843-14.890626 33.203125-33.230469 33.21875h-4.230469c-18.335938-.019531-33.195312-14.878907-33.21875-33.21875zm0 0" fill="#0635c9"/><path d="m336.285156 195.269531c-2.003906-1.996093-5.011718-2.589843-7.625-1.503906-2.609375 1.085937-4.3125 3.636719-4.3125 6.464844v44.351562c-44.464844 1.480469-66.441406 19.925781-69.507812 22.710938-21.902344 17.980469-36.855469 43.027343-42.289063 70.835937-2.71875 13.433594-3.203125 27.21875-1.441406 40.808594l.011719.058594c.011718.109375.027344.21875.046875.328125l1.722656 9.90625c.5 2.882812 2.742187 5.148437 5.617187 5.683593 2.875.535157 5.777344-.773437 7.28125-3.285156l5.167969-8.605468c32.804688-54.554688 74.6875-58.597657 93.390625-57.246094v45.886718c0 2.832032 1.710938 5.386719 4.332032 6.46875 2.617187 1.082032 5.632812.476563 7.632812-1.53125l85.714844-86.148437c2.726562-2.738281 2.714844-7.171875-.023438-9.898437zm2.0625 159.433594v-35.160156c0-3.433594-2.492187-6.363281-5.882812-6.910157-15.746094-2.242187-31.796875-.621093-46.773438 4.71875-24.023437 8.417969-44.691406 25.324219-61.546875 50.308594-.324219-8.992187.390625-17.988281 2.140625-26.8125 4.980469-25.183594 17.628906-46.332031 37.597656-62.863281.152344-.121094.296876-.25.433594-.386719.199219-.191406 20.597656-19.109375 65.742188-19.109375h1.292968c3.867188 0 7-3.132812 7-7v-34.417969l68.816407 68.46875zm0 0" fill="#1ae5be"/></svg>