<svg height="427pt" viewBox="-13 0 427 427.46217" width="427pt" xmlns="http://www.w3.org/2000/svg"><path d="m104.328125 324.660156c8.78125-8.824218 13.707031-20.769531 13.699219-33.21875v-168.832031c0-3.835937.664062-7.644531 1.96875-11.253906-13.167969 4.761719-21.949219 17.253906-21.96875 31.253906v168.832031c.007812 12.449219-4.917969 24.394532-13.699219 33.21875h170.210937l5.601563-20zm0 0" fill="#d4e1f4"/><path d="m71.800781 323.660156h-4.230469c-18.335937-.019531-33.199218-14.878906-33.21875-33.21875v-263.570312c-.003906-3.835938.664063-7.644532 1.964844-11.253906-13.167968 4.757812-21.949218 17.25-21.964844 31.253906v263.570312c.019532 18.339844 14.882813 33.199219 33.21875 33.21875h4.230469c14.003907-.015625 26.503907-8.796875 31.265625-21.96875-3.613281 1.304688-7.425781 1.972656-11.265625 1.96875zm0 0" fill="#d4e1f4"/><path d="m324.902344 94.738281v-1.1875c-.027344-26.070312-21.148438-47.199219-47.21875-47.230469h-75.492188c-.855468 0-1.675781-.359374-2.253906-.996093l-27.386719-29.957031c-8.953125-9.777344-21.597656-15.3554692-34.855469-15.367188h-90.246093c-26.066407.0273438-47.1875 21.152344-47.21875 47.21875v263.570312c.03125 26.066407 21.152343 47.191407 47.21875 47.222657h207.78125v-14h-170.019531c8.78125-8.828125 13.707031-20.773438 13.699218-33.222657v-168.832031c.019532-18.339843 14.882813-33.199219 33.222656-33.222656h194.867188c18.34375.019531 33.207031 14.878906 33.230469 33.222656v133.050781h14v-133.050781c-.03125-26.070312-21.160157-47.195312-47.230469-47.222656zm-14 0h-178.769532c-26.066406.03125-47.191406 21.15625-47.21875 47.222657v168.828124c-.023437 18.34375-14.890624 33.203126-33.230468 33.222657h-4.234375c-18.335938-.023438-33.195313-14.882813-33.21875-33.222657v-263.570312c.023437-18.335938 14.882812-33.199219 33.21875-33.21875h90.242187c9.328125.011719 18.222656 3.933594 24.523438 10.8125l27.378906 29.945312c3.230469 3.539063 7.804688 5.558594 12.597656 5.558594h75.492188c18.339844.023438 33.199218 14.890625 33.21875 33.230469zm0 0" fill="#0635c9"/><path d="m368.085938 333.472656c14.015624.003906 26.4375-9.007812 30.789062-22.328125 4.351562-13.324219-.355469-27.929687-11.667969-36.203125-11.3125-8.269531-26.664062-8.328125-38.035156-.140625-11.375 8.1875-16.195313 22.761719-11.941406 36.113281l-31.914063 16.460938c-8.511718-10.304688-22.480468-14.320312-35.167968-10.109375-12.683594 4.210937-21.480469 15.777344-22.144532 29.128906-.667968 13.347657 6.9375 25.734375 19.140625 31.183594s26.5 2.84375 35.996094-6.558594l33.507813 16.148438c-4 16.074219 4.746093 32.578125 20.292968 38.296875 15.542969 5.71875 32.902344-1.183594 40.273438-16.015625s2.390625-32.835938-11.554688-41.773438c-13.945312-8.9375-32.382812-5.941406-42.78125 6.953125l-32.097656-15.46875c2.269531-6.199218 2.59375-12.945312.929688-19.332031l32.574218-16.800781c6.121094 6.660156 14.753906 10.449218 23.800782 10.445312zm0 43.074219c10.152343 0 18.382812 8.230469 18.382812 18.382813 0 10.152343-8.230469 18.382812-18.382812 18.382812-10.152344 0-18.382813-8.230469-18.382813-18.382812.007813-10.148438 8.234375-18.375 18.382813-18.382813zm-87.707032-10.152344c-10.152344 0-18.382812-8.230469-18.382812-18.386719 0-10.152343 8.230468-18.382812 18.382812-18.382812s18.382813 8.230469 18.382813 18.386719c-.007813 10.148437-8.234375 18.371093-18.382813 18.382812zm87.707032-83.6875c10.152343 0 18.386718 8.230469 18.386718 18.382813s-8.230468 18.386718-18.386718 18.386718c-10.152344 0-18.382813-8.230468-18.382813-18.386718.007813-10.148438 8.234375-18.375 18.382813-18.382813zm0 0" fill="#1ae5be"/></svg>