<svg height="394pt" viewBox="0 -8 394 394" width="394pt" xmlns="http://www.w3.org/2000/svg"><path d="m73.925781 343.128906h-4.46875c-19.574219-.023437-35.433593-15.886718-35.457031-35.457031v-278.214844c0-4.445312.835938-8.851562 2.472656-12.984375-13.546875 5.347656-22.453125 18.421875-22.472656 32.984375v278.214844c.023438 19.570313 15.882812 35.433594 35.457031 35.457031h4.46875c14.566407-.019531 27.640625-8.925781 32.984375-22.472656-4.132812 1.632812-8.539062 2.472656-12.984375 2.472656zm0 0" fill="#d4e1f4"/><path d="m364.542969 343.128906h-256.167969c9.601562-9.296875 15.015625-22.09375 15.011719-35.457031v-178.214844c-.003907-4.445312.835937-8.851562 2.472656-12.984375-13.546875 5.347656-22.457031 18.421875-22.472656 32.984375v178.214844c.003906 13.363281-5.410157 26.160156-15.011719 35.457031h256.167969c14.5625-.019531 27.636719-8.925781 32.984375-22.472656-4.132813 1.632812-8.539063 2.472656-12.984375 2.472656zm0 0" fill="#d4e1f4"/><path d="m341.933594 100v-1.640625c-.03125-27.304687-22.15625-49.429687-49.457032-49.460937h-79.675781c-1.015625 0-1.984375-.425782-2.667969-1.175782l-28.914062-31.632812c-9.378906-10.238282-22.625-16.074219-36.507812-16.089844h-95.253907c-27.300781.03125-49.425781 22.15625-49.457031 49.457031v278.214844c.03125 27.300781 22.15625 49.425781 49.457031 49.457031h295.085938c27.300781-.03125 49.425781-22.15625 49.457031-49.457031v-178.214844c-.03125-27.300781-22.15625-49.425781-49.457031-49.457031zm-288.007813 263.128906h-4.46875c-19.574219-.023437-35.433593-15.886718-35.457031-35.457031v-278.214844c.023438-19.574219 15.882812-35.433593 35.457031-35.457031h95.253907c9.953124.011719 19.449218 4.195312 26.171874 11.535156l28.910157 31.628906c3.339843 3.648438 8.054687 5.726563 13 5.730469h79.679687c19.574219.023438 35.433594 15.886719 35.457032 35.460938v1.640625h-189.085938c-27.300781.03125-49.429688 22.15625-49.457031 49.457031v178.21875c-.023438 19.570313-15.886719 35.433594-35.460938 35.457031zm326.074219-213.671875v178.214844c-.023438 19.570313-15.882812 35.433594-35.457031 35.457031h-256.167969c9.601562-9.296875 15.015625-22.09375 15.011719-35.457031v-178.214844c.019531-19.574219 15.882812-35.433593 35.457031-35.457031h205.699219c19.574219.023438 35.433593 15.886719 35.457031 35.457031zm0 0" fill="#0635c9"/><g fill="#1ae5be"><path d="m156.691406 289.449219h43.425782c2.046874 0 3.988281-.894531 5.320312-2.449219l72.972656-85.320312h31.976563l-10.710938 11.273437c-1.742187 1.8125-2.382812 4.417969-1.675781 6.828125s2.652344 4.257812 5.09375 4.839844c2.445312.582031 5.011719-.191406 6.730469-2.023438l21.945312-23.101562c.054688-.058594.097657-.117188.152344-.179688.078125-.085937.15625-.175781.234375-.269531.074219-.09375.132812-.179687.199219-.269531.066406-.089844.132812-.179688.195312-.273438.058594-.09375.121094-.199218.179688-.300781.058593-.097656.109375-.1875.160156-.28125.050781-.097656.097656-.207031.148437-.3125.050782-.101563.09375-.199219.136719-.296875.042969-.101562.078125-.210938.113281-.316406.039063-.105469.078126-.214844.109376-.320313.03125-.109375.058593-.222656.085937-.332031s.054687-.210938.074219-.320312c.027344-.128907.042968-.257813.058594-.386719.015624-.09375.03125-.1875.039062-.28125.042969-.453125.042969-.90625 0-1.359375-.007812-.101563-.023438-.1875-.039062-.28125-.015626-.128906-.03125-.257813-.058594-.386719-.019532-.109375-.050782-.214844-.074219-.320313-.027344-.109374-.054687-.222656-.085937-.332031-.035157-.109375-.070313-.214843-.109376-.320312-.035156-.105469-.070312-.210938-.113281-.316407-.042969-.101562-.089843-.199218-.136719-.300781-.046874-.097656-.101562-.207031-.148437-.308593-.050781-.101563-.105469-.191407-.160156-.285157-.054688-.09375-.117188-.199219-.179688-.296875-.066406-.101562-.128906-.1875-.195312-.277344-.066407-.089843-.132813-.179687-.199219-.269531-.070312-.085937-.15625-.179687-.234375-.269531-.054687-.058594-.101563-.121094-.152344-.179688l-21.945312-23.097656c-2.660157-2.804687-7.09375-2.917968-9.894531-.253906-2.804688 2.664062-2.917969 7.09375-.253907 9.894531l10.710938 11.277344h-35.199219c-2.046875 0-3.992188.894531-5.320312 2.449219l-72.972657 85.324218h-40.199219c-3.867187 0-7 3.132813-7 7 0 3.863282 3.132813 7 7 7zm0 0"/><path d="m156.691406 201.679688h40.160156l24.230469 28.910156c2.484375 2.960937 6.898438 3.351562 9.863281.867187 2.960938-2.484375 3.351563-6.898437.867188-9.863281l-26.332031-31.414062c-1.328125-1.585938-3.292969-2.5-5.363281-2.5h-43.425782c-3.863281 0-7 3.136718-7 7 0 3.867187 3.136719 7 7 7zm0 0"/><path d="m299.929688 310.621094c2.800781 2.667968 7.234374 2.554687 9.898437-.253906l21.945313-23.097657c.054687-.058593.097656-.121093.152343-.179687.078125-.085938.160157-.175782.234375-.269532.074219-.09375.132813-.179687.199219-.269531.066406-.089843.132813-.179687.195313-.273437.058593-.09375.121093-.203125.179687-.300782.058594-.101562.109375-.1875.160156-.285156s.097657-.207031.148438-.308594c.050781-.105468.09375-.199218.136719-.300781.042968-.101562.078124-.210937.113281-.316406.039062-.105469.078125-.210937.109375-.320313.03125-.109374.058594-.21875.085937-.328124.027344-.109376.054688-.214844.074219-.324219.027344-.128907.042969-.257813.058594-.382813.015625-.09375.03125-.1875.039062-.28125.042969-.453125.042969-.910156 0-1.363281-.007812-.09375-.023437-.1875-.039062-.28125-.015625-.128906-.03125-.257813-.058594-.382813-.019531-.109374-.050781-.214843-.074219-.324218-.027343-.105469-.054687-.21875-.085937-.332032-.035156-.109374-.070313-.210937-.109375-.316406-.035157-.105468-.070313-.214844-.113281-.316406-.042969-.105469-.089844-.203125-.136719-.300781-.046875-.101563-.101563-.207031-.148438-.3125-.050781-.101563-.105469-.1875-.160156-.28125s-.117187-.199219-.179687-.300781c-.066407-.097657-.128907-.183594-.195313-.273438s-.132813-.183594-.199219-.269531c-.070312-.089844-.15625-.179688-.234375-.269531-.054687-.058594-.101562-.121094-.152343-.179688l-21.945313-23.101562c-1.71875-1.832032-4.285156-2.605469-6.730469-2.023438-2.441406.582031-4.386718 2.429688-5.09375 4.839844-.707031 2.414062-.066406 5.019531 1.675782 6.828125l10.710937 11.277343h-31.941406l-24.230469-28.910156c-2.484375-2.964844-6.898438-3.351562-9.863281-.871094-2.960938 2.484376-3.351563 6.902344-.867188 9.863282l26.332031 31.414062c1.332032 1.585938 3.292969 2.5 5.363282 2.5h35.203125l-10.714844 11.277344c-1.28125 1.34375-1.972656 3.144531-1.925781 5.003906s.832031 3.621094 2.183594 4.898438zm0 0"/></g></svg>