<svg height="394pt" viewBox="0 -8 394 394" width="394pt" xmlns="http://www.w3.org/2000/svg"><path d="m73.929688 343.128906h-4.472657c-19.574219-.023437-35.433593-15.886718-35.457031-35.457031v-278.214844c0-4.445312.839844-8.851562 2.472656-12.984375-13.546875 5.347656-22.453125 18.421875-22.472656 32.984375v278.214844c.023438 19.570313 15.882812 35.433594 35.457031 35.457031h4.472657c14.5625-.019531 27.636718-8.925781 32.980468-22.472656-4.132812 1.632812-8.535156 2.472656-12.980468 2.472656zm0 0" fill="#d4e1f4"/><path d="m364.542969 343.128906h-256.167969c9.601562-9.296875 15.019531-22.09375 15.011719-35.457031v-178.214844c-.003907-4.445312.835937-8.851562 2.472656-12.984375-13.546875 5.347656-22.457031 18.421875-22.472656 32.984375v178.214844c.007812 13.363281-5.410157 26.160156-15.011719 35.457031h256.167969c14.5625-.019531 27.636719-8.925781 32.984375-22.472656-4.132813 1.632812-8.539063 2.472656-12.984375 2.472656zm0 0" fill="#d4e1f4"/><path d="m344.542969 100h-2.609375v-1.640625c-.03125-27.304687-22.15625-49.429687-49.457032-49.460937h-79.675781c-1.015625 0-1.984375-.425782-2.667969-1.175782l-28.914062-31.632812c-9.378906-10.238282-22.625-16.074219-36.507812-16.089844h-95.253907c-27.300781.03125-49.425781 22.15625-49.457031 49.457031v278.214844c.03125 27.300781 22.15625 49.425781 49.457031 49.457031h295.085938c27.300781-.03125 49.425781-22.15625 49.457031-49.457031v-178.214844c-.03125-27.300781-22.15625-49.425781-49.457031-49.457031zm-290.613281 263.128906h-4.472657c-19.574219-.023437-35.433593-15.886718-35.457031-35.457031v-278.214844c.023438-19.574219 15.882812-35.433593 35.457031-35.457031h95.253907c9.953124.007812 19.449218 4.195312 26.171874 11.535156l28.910157 31.628906c3.339843 3.648438 8.054687 5.726563 13 5.730469h79.679687c19.574219.023438 35.433594 15.886719 35.457032 35.460938v1.640625h-189.085938c-27.300781.03125-49.425781 22.15625-49.457031 49.457031v178.21875c-.023438 19.570313-15.886719 35.433594-35.457031 35.457031zm326.070312-35.457031c-.023438 19.570313-15.882812 35.433594-35.457031 35.457031h-256.167969c9.601562-9.296875 15.019531-22.09375 15.011719-35.457031v-178.214844c.023437-19.574219 15.882812-35.433593 35.457031-35.457031h205.699219c19.574219.023438 35.433593 15.886719 35.457031 35.457031zm0 0" fill="#0635c9"/><g fill="#1ae5be"><path d="m147.152344 243.410156 45.296875 38.570313c1.898437 1.660156 4.542969 2.171875 6.921875 1.335937 2.382812-.835937 4.128906-2.886718 4.574218-5.367187.445313-2.484375-.480468-5.015625-2.421874-6.625l-39.035157-33.242188 39.035157-33.242187c2.882812-2.523438 3.207031-6.894532.722656-9.808594-2.484375-2.917969-6.851563-3.296875-9.796875-.851562l-45.296875 38.574218c-1.558594 1.328125-2.460938 3.277344-2.460938 5.328125s.902344 4 2.460938 5.328125zm0 0"/><path d="m281.070312 281.191406c2.503907 2.941406 6.921876 3.296875 9.867188.789063l45.292969-38.570313c1.5625-1.328125 2.460937-3.277344 2.460937-5.328125s-.898437-4-2.460937-5.328125l-45.292969-38.574218c-1.902344-1.644532-4.539062-2.148438-6.914062-1.3125-2.371094.835937-4.113282 2.882812-4.558594 5.355468-.449219 2.476563.464844 5.003906 2.394531 6.617188l39.039063 33.242187-39.039063 33.242188c-2.941406 2.507812-3.296875 6.921875-.789063 9.867187zm0 0"/><path d="m225.65625 312.582031c3.308594-.003906 6.160156-2.320312 6.839844-5.558593l28.234375-134.035157c.796875-3.78125-1.625-7.496093-5.410157-8.292969-3.78125-.796874-7.496093 1.625-8.292968 5.410157l-28.226563 134.035156c-.433593 2.0625.085938 4.214844 1.417969 5.851563 1.328125 1.640624 3.328125 2.589843 5.4375 2.589843zm0 0"/></g></svg>