<svg height="444pt" viewBox="0 -13 444 444" width="444pt" xmlns="http://www.w3.org/2000/svg"><path d="m71.449219 324.003906h-4.230469c-18.335938-.019531-33.199219-14.878906-33.21875-33.21875v-263.570312c-.003906-3.835938.664062-7.644532 1.964844-11.253906-13.167969 4.757812-21.949219 17.253906-21.964844 31.253906v263.570312c.019531 18.339844 14.882812 33.199219 33.21875 33.21875h4.230469c14.007812-.015625 26.503906-8.796875 31.265625-21.96875-3.613282 1.304688-7.425782 1.972656-11.265625 1.96875zm0 0" fill="#d4e1f4"/><path d="m104.976562 324.003906c8.78125-8.824218 13.707032-20.769531 13.703126-33.21875v-168.832031c-.003907-3.835937.660156-7.644531 1.964843-11.253906-13.167969 4.761719-21.949219 17.253906-21.964843 31.253906v168.832031c.003906 12.449219-4.921876 24.394532-13.703126 33.21875h150.238282c-2.113282-6.507812-3.59375-13.207031-4.421875-20zm0 0" fill="#d4e1f4"/><path d="m246 344.003906h-161.023438c8.78125-8.824218 13.707032-20.769531 13.703126-33.21875v-168.832031c.019531-18.335937 14.878906-33.195313 33.21875-33.21875h194.871093c18.339844.019531 33.207031 14.878906 33.230469 33.21875v74.050781h14v-74.050781c-.03125-26.066406-21.160156-47.191406-47.230469-47.21875h-2.097656v-1.1875c-.027344-26.070313-21.152344-47.199219-47.222656-47.230469h-75.488281c-.859376 0-1.679688-.359375-2.253907-.996094l-27.390625-29.957031c-8.953125-9.777343-21.597656-15.3515622-34.855468-15.363281h-90.242188c-26.0625.03125-47.1875 21.152344-47.21875 47.214844v263.570312c.03125 26.066406 21.152344 47.191406 47.21875 47.21875h198.78125zm-198.78125 0c-18.335938-.019531-33.199219-14.878906-33.21875-33.21875v-263.570312c.023438-18.335938 14.882812-33.195313 33.21875-33.214844h90.242188c9.328124.007812 18.222656 3.933594 24.523437 10.8125l27.375 29.945312c3.230469 3.542969 7.804687 5.5625 12.601563 5.5625h75.488281c18.34375.023438 33.203125 14.886719 33.222656 33.230469v1.1875h-178.773437c-26.066407.03125-47.1875 21.15625-47.21875 47.222657v168.828124c-.023438 18.34375-14.886719 33.203126-33.230469 33.222657zm0 0" fill="#0635c9"/><g fill="#1ae5be"><path d="m337 204.003906c-59.09375 0-107 47.90625-107 107s47.90625 107 107 107 107-47.90625 107-107c-.066406-59.066406-47.933594-106.933594-107-107zm0 200c-51.363281 0-93-41.636718-93-93 0-51.363281 41.636719-93 93-93s93 41.636719 93 93c-.058594 51.339844-41.660156 92.941406-93 93zm0 0"/><path d="m310.042969 278.261719c-2.507813-2.941407-6.925781-3.296875-9.867188-.789063l-32.714843 27.855469c-1.558594 1.328125-2.460938 3.277344-2.460938 5.328125s.902344 4 2.460938 5.328125l32.714843 27.859375c1.898438 1.660156 4.542969 2.167969 6.925781 1.335938 2.378907-.835938 4.125-2.886719 4.570313-5.371094s-.480469-5.011719-2.421875-6.625l-26.449219-22.527344 26.453125-22.527344c2.941406-2.507812 3.292969-6.925781.789063-9.867187zm0 0"/><path d="m363.960938 278.261719c-2.507813 2.945312-2.152344 7.359375.789062 9.867187l26.449219 22.527344-26.449219 22.527344c-1.941406 1.613281-2.867188 4.140625-2.421875 6.625s2.191406 4.535156 4.574219 5.371094c2.378906.832031 5.023437.324218 6.921875-1.335938l32.714843-27.859375c1.558594-1.328125 2.460938-3.277344 2.460938-5.328125s-.902344-4-2.460938-5.328125l-32.714843-27.855469c-2.941407-2.507812-7.359375-2.152344-9.863281.789063zm0 0"/><path d="m347.242188 255.753906c-3.78125-.796875-7.492188 1.625-8.289063 5.40625l-20.390625 96.800782c-.796875 3.785156 1.625 7.496093 5.40625 8.292968 3.785156.796875 7.496094-1.625 8.292969-5.40625l20.390625-96.800781c.796875-3.785156-1.625-7.496094-5.410156-8.292969zm0 0"/></g></svg>