<svg height="394pt" viewBox="0 -8 394 394" width="394pt" xmlns="http://www.w3.org/2000/svg"><path d="m73.925781 343.128906h-4.46875c-19.574219-.023437-35.433593-15.886718-35.457031-35.457031v-278.214844c0-4.445312.835938-8.851562 2.472656-12.984375-13.546875 5.347656-22.453125 18.421875-22.472656 32.984375v278.214844c.023438 19.570313 15.882812 35.433594 35.457031 35.457031h4.46875c14.566407-.019531 27.640625-8.925781 32.984375-22.472656-4.132812 1.632812-8.539062 2.472656-12.984375 2.472656zm0 0" fill="#d4e1f4"/><path d="m364.542969 343.128906h-256.167969c9.601562-9.296875 15.015625-22.09375 15.011719-35.457031v-178.214844c-.003907-4.445312.835937-8.851562 2.472656-12.984375-13.546875 5.347656-22.457031 18.421875-22.472656 32.984375v178.214844c.003906 13.363281-5.410157 26.160156-15.011719 35.457031h256.167969c14.5625-.019531 27.636719-8.925781 32.984375-22.472656-4.132813 1.632812-8.539063 2.472656-12.984375 2.472656zm0 0" fill="#d4e1f4"/><path d="m344.542969 100h-2.609375v-1.640625c-.03125-27.304687-22.15625-49.429687-49.457032-49.460937h-79.675781c-1.015625 0-1.984375-.425782-2.667969-1.175782l-28.914062-31.632812c-9.378906-10.238282-22.625-16.074219-36.507812-16.089844h-95.253907c-27.300781.03125-49.425781 22.15625-49.457031 49.457031v278.214844c.03125 27.300781 22.15625 49.425781 49.457031 49.457031h295.085938c27.300781-.03125 49.425781-22.15625 49.457031-49.457031v-178.214844c-.03125-27.300781-22.15625-49.425781-49.457031-49.457031zm-290.613281 263.128906h-4.472657c-19.574219-.023437-35.433593-15.886718-35.457031-35.457031v-278.214844c.023438-19.574219 15.882812-35.433593 35.457031-35.457031h95.253907c9.953124.007812 19.449218 4.195312 26.171874 11.535156l28.910157 31.628906c3.339843 3.648438 8.054687 5.726563 13 5.730469h79.679687c19.574219.023438 35.433594 15.886719 35.457032 35.460938v1.640625h-189.085938c-27.300781.03125-49.425781 22.15625-49.457031 49.457031v178.21875c-.023438 19.570313-15.886719 35.433594-35.457031 35.457031zm326.070312-35.457031c-.023438 19.570313-15.882812 35.433594-35.457031 35.457031h-256.167969c9.601562-9.296875 15.019531-22.09375 15.011719-35.457031v-178.214844c.023437-19.574219 15.882812-35.433593 35.457031-35.457031h205.699219c19.574219.023438 35.433593 15.886719 35.457031 35.457031zm0 0" fill="#0635c9"/><g fill="#1ae5be"><path d="m204.691406 190.851562c0 3.867188 3.132813 7 7 7h34.542969c-2.859375 7.085938-9.730469 11.730469-17.375 11.742188h-17.167969c-2.867187 0-5.445312 1.75-6.503906 4.414062-1.058594 2.664063-.386719 5.703126 1.699219 7.675782l42.910156 40.546875c2.8125 2.648437 7.234375 2.515625 9.886719-.289063 2.648437-2.804687 2.527344-7.226562-.273438-9.886718l-30.121094-28.464844c15.214844-.21875 28.28125-10.878906 31.554688-25.738282h10.847656c3.867188 0 7-3.132812 7-7 0-3.867187-3.132812-7-7-7h-10.847656c-.925781-4.21875-2.679688-8.210937-5.15625-11.742187h16.003906c3.867188 0 7-3.136719 7-7 0-3.867187-3.132812-7-7-7h-60c-3.867187 0-7 3.132813-7 7 0 3.863281 3.132813 7 7 7h17.167969c7.644531.007813 14.515625 4.652344 17.375 11.742187h-34.542969c-3.867187 0-7 3.132813-7 7zm0 0"/><path d="m316.230469 243.492188c-8.183594-.007813-15.71875 4.4375-19.671875 11.601562-3.953125 7.160156-3.695313 15.90625.671875 22.828125l-16.832031 18.304687c-8.308594-7.882812-21.226563-8.230468-29.945313-.800781l-14.273437-11.695312c-.316407-8.5-5.410157-16.089844-13.15625-19.605469-7.746094-3.519531-16.8125-2.359375-23.421876 2.996094-6.609374 5.355468-9.628906 13.984375-7.796874 22.289062l-16.628907 20.785156c-10.332031-3.964843-22.007812.160157-27.550781 9.738282-5.542969 9.574218-3.308594 21.757812 5.277344 28.738281 8.582031 6.980469 20.964844 6.691406 29.210937-.6875 8.246094-7.375 9.910157-19.652344 3.921875-28.957031l13.59375-16.984375c4.726563 3.832031 10.804688 5.578125 16.84375 4.835937 6.039063-.738281 11.515625-3.902344 15.179688-8.757812l11.445312 9.375c-2.03125 8.78125 1.378906 17.925781 8.664063 23.230468 7.285156 5.304688 17.035156 5.742188 24.765625 1.109376 7.730468-4.632813 11.945312-13.433594 10.703125-22.359376l20.800781-22.621093c8.410156 3.296875 17.976562 1.238281 24.28125-5.230469 6.304688-6.464844 8.121094-16.082031 4.613281-24.402344-3.507812-8.324218-11.660156-13.734375-20.695312-13.734375zm-149.078125 96.144531c-4.671875 0-8.460938-3.789063-8.460938-8.464844.003906-4.671875 3.789063-8.460937 8.464844-8.460937 4.671875 0 8.460938 3.789062 8.460938 8.464843-.003907 4.667969-3.792969 8.457031-8.464844 8.460938zm46.589844-46.585938c-4.675782 0-8.464844-3.789062-8.464844-8.460937 0-4.675782 3.789062-8.464844 8.464844-8.464844 4.671874 0 8.460937 3.789062 8.460937 8.464844-.003906 4.667968-3.789063 8.453125-8.460937 8.460937zm51.242187 27.953125c-4.671875 0-8.460937-3.789062-8.460937-8.464844 0-4.671874 3.789062-8.460937 8.460937-8.460937 4.675781 0 8.464844 3.789063 8.464844 8.460937-.007813 4.671876-3.792969 8.457032-8.464844 8.464844zm51.246094-46.589844c-4.675781 0-8.460938-3.785156-8.460938-8.460937 0-4.671875 3.785157-8.460937 8.460938-8.460937 4.671875 0 8.460937 3.789062 8.460937 8.460937-.003906 4.671875-3.789062 8.457031-8.460937 8.460937zm0 0"/></g></svg>