<svg height="402pt" viewBox="0 0 402 402.946" width="402pt" xmlns="http://www.w3.org/2000/svg"><path d="m105.449219 324.476562c8.78125-8.824218 13.707031-20.769531 13.703125-33.21875v-168.828124c-.003906-3.839844.660156-7.648438 1.964844-11.253907-13.167969 4.757813-21.949219 17.25-21.964844 31.253907v168.828124c.003906 12.449219-4.921875 24.394532-13.703125 33.21875h125.238281l5.578125-20zm0 0" fill="#d4e1f4"/><path d="m71.921875 324.476562h-4.230469c-18.335937-.019531-33.199218-14.878906-33.21875-33.21875v-263.570312c-.003906-3.835938.664063-7.644531 1.964844-11.253906-13.167969 4.757812-21.949219 17.253906-21.964844 31.253906v263.570312c.019532 18.339844 14.882813 33.199219 33.21875 33.21875h4.230469c14.007813-.015624 26.503906-8.796874 31.265625-21.964843-3.613281 1.304687-7.425781 1.96875-11.265625 1.964843zm0 0" fill="#d4e1f4"/><path d="m47.691406 358.011719h167.78125v-14h-130.023437c8.78125-8.828125 13.707031-20.773438 13.703125-33.222657v-168.828124c.019531-18.339844 14.878906-33.199219 33.21875-33.222657h194.871094c18.34375.019531 33.207031 14.878907 33.230468 33.222657v112.050781h14v-112.050781c-.03125-26.070313-21.160156-47.195313-47.230468-47.222657h-2.097657v-1.1875c-.027343-26.070312-21.152343-47.199219-47.222656-47.230469h-75.488281c-.859375 0-1.675782-.359374-2.253906-.992187l-27.390626-29.957031c-8.949218-9.78125-21.597656-15.355469-34.855468-15.371094h-90.242188c-26.066406.0273438-47.1875 21.152344-47.21875 47.21875v263.570312c.03125 26.066407 21.152344 47.191407 47.21875 47.222657zm-33.21875-310.792969c.019532-18.335938 14.882813-33.199219 33.21875-33.21875h90.242188c9.328125.007812 18.222656 3.933594 24.523437 10.8125l27.378907 29.945312c3.230468 3.542969 7.804687 5.5625 12.597656 5.5625h75.492187c18.339844.023438 33.199219 14.886719 33.21875 33.230469v1.1875h-178.773437c-26.066406.03125-47.1875 21.15625-47.21875 47.222657v168.828124c-.023438 18.34375-14.886719 33.203126-33.230469 33.222657h-4.230469c-18.335937-.023438-33.199218-14.882813-33.21875-33.222657zm0 0" fill="#0635c9"/><path d="m375.472656 247.359375h-32.878906c-3.75-16.9375-18.769531-28.996094-36.121094-28.996094-17.351562 0-32.371094 12.058594-36.117187 28.996094h-34.882813c-14.90625.019531-26.984375 12.097656-27 27v101.585937c.015625 14.90625 12.09375 26.984376 27 27h140c14.90625-.015624 26.984375-12.09375 27-27v-101.585937c-.015625-14.902344-12.09375-26.980469-27-27zm-69-15c9.613282.011719 18.210938 5.992187 21.5625 15h-43.125c3.355469-9.007813 11.949219-14.988281 21.5625-15zm-71 29h140c7.175782.007813 12.992188 5.824219 13 13v17.453125l-63.046875 22.765625v-4.460937c0-3.867188-3.136719-7-7-7h-25.683593c-3.867188 0-7 3.132812-7 7v4.542968l-63.269532-22.847656v-17.453125c.007813-7.175781 5.824219-12.992187 13-13zm64.269532 68.511719c2.351562-2.632813 2.351562-6.613282 0-9.246094v-3.507812h11.683593v3.28125c-2.644531 2.699218-2.644531 7.015624 0 9.714843v5.269531h-11.683593zm75.730468 59.074218h-140c-7.175781-.007812-12.992187-5.824218-13-13v-69.25l63.269532 22.847657v12.84375c0 3.863281 3.132812 7 7 7h25.683593c3.863281 0 7-3.136719 7-7v-12.921875l63.046875-22.769532v69.25c-.007812 7.175782-5.824218 12.992188-13 13zm0 0" fill="#1ae5be"/></svg>