<svg height="424pt" viewBox="0 -7 424 424" width="424pt" xmlns="http://www.w3.org/2000/svg"><path d="m104.976562 324.289062c8.78125-8.828124 13.707032-20.773437 13.703126-33.222656v-168.828125c-.003907-3.835937.660156-7.644531 1.964843-11.253906-13.167969 4.757813-21.949219 17.25-21.964843 31.253906v168.828125c.003906 12.449219-4.921876 24.394532-13.703126 33.222656h167.933594l-2.90625-20zm0 0" fill="#d4e1f4"/><path d="m71.449219 324.289062h-4.230469c-18.335938-.019531-33.199219-14.882812-33.21875-33.222656v-263.570312c-.003906-3.835938.664062-7.644532 1.964844-11.253906-13.167969 4.761718-21.949219 17.253906-21.964844 31.253906v263.570312c.019531 18.339844 14.882812 33.203125 33.21875 33.222656h4.230469c14.007812-.015624 26.503906-8.796874 31.265625-21.96875-3.613282 1.304688-7.425782 1.96875-11.265625 1.96875zm0 0" fill="#d4e1f4"/><path d="m324.671875 94.738281v-1.1875c-.027344-26.070312-21.152344-47.199219-47.222656-47.230469h-75.488281c-.859376 0-1.675782-.359374-2.253907-.996093l-27.390625-29.957031c-8.953125-9.777344-21.597656-15.3554692-34.855468-15.367188h-90.242188c-26.066406.0273438-47.1914062 21.152344-47.21875 47.21875v263.570312c.03125 26.066407 21.152344 47.191407 47.21875 47.222657h215.78125v-14h-178.023438c8.78125-8.828125 13.707032-20.773438 13.703126-33.222657v-168.828124c.019531-18.339844 14.878906-33.199219 33.21875-33.222657h194.871093c18.339844.019531 33.207031 14.878907 33.230469 33.222657v107.050781h14v-107.050781c-.03125-26.070313-21.160156-47.195313-47.230469-47.222657zm-14 0h-178.773437c-26.066407.03125-47.1875 21.15625-47.21875 47.222657v168.828124c-.023438 18.34375-14.890626 33.203126-33.230469 33.222657h-4.230469c-18.335938-.023438-33.199219-14.882813-33.21875-33.222657v-263.570312c.019531-18.335938 14.882812-33.199219 33.21875-33.21875h90.242188c9.328124.007812 18.222656 3.933594 24.523437 10.8125l27.375 29.945312c3.230469 3.542969 7.804687 5.5625 12.601563 5.5625h75.488281c18.34375.023438 33.203125 14.886719 33.222656 33.230469zm0 0" fill="#0635c9"/><path d="m337 396.566406c-20.355469.054688-39.75-8.648437-53.242188-23.894531-12.371093-13.761719-19.757812-32.117187-19.757812-49.105469 0-3.867187-3.132812-7-7-7s-7 3.132813-7 7c0 42.015625 34.960938 87 87 87s87-44.984375 87-87-34.957031-87-87-87c-25.5 0-46.558594 11.582032-61.039062 25.527344l.722656-43.523438c.066406-3.867187-3.015625-7.050781-6.882813-7.117187-3.863281-.066406-7.050781 3.015625-7.117187 6.882813l-1.035156 62.136718c-.03125 1.898438.710937 3.726563 2.050781 5.066406 1.347656 1.332032 3.175781 2.070313 5.070312 2.050782l.328125-.007813c.292969.011719.589844.007813.882813-.015625l59.371093-1.011718c3.867188-.066407 6.945313-3.253907 6.878907-7.121094-.066407-3.867188-3.253907-6.945313-7.117188-6.878906l-44.53125.761718c12.148438-12.046875 30.488281-22.75 52.414063-22.75 20.34375-.074218 39.738281 8.59375 53.25 23.796875 12.367187 13.730469 19.75 32.121094 19.75 49.203125 0 17.078125-7.382813 35.46875-19.75 49.199219-13.511719 15.203125-32.90625 23.875-53.246094 23.800781zm0 0" fill="#1ae5be"/></svg>