<svg height="414pt" viewBox="0 -4 414 414" width="414pt" xmlns="http://www.w3.org/2000/svg"><path d="m106.570312 255.984375h-3.679687c-15.4375-.019531-27.949219-12.527344-27.964844-27.964844v-205.050781c-.003906-2.382812.296875-4.757812.898438-7.0625-12.300781 3.230469-20.882813 14.339844-20.898438 27.0625v205.050781c.015625 15.4375 12.527344 27.949219 27.964844 27.964844h3.679687c12.71875-.015625 23.832032-8.597656 27.0625-20.898437-2.304687.597656-4.679687.898437-7.0625.898437zm0 0" fill="#d4e1f4"/><path d="m345.90625 255.984375h-208.070312c6.898437-7.683594 10.707031-17.644531 10.699218-27.96875v-122.699219c0-2.382812.304688-4.753906.90625-7.058594-12.300781 3.230469-20.882812 14.339844-20.902344 27.058594v122.703125c.011719 10.320313-3.800781 20.285157-10.699218 27.964844h208.066406c12.71875-.015625 23.832031-8.597656 27.0625-20.898437-2.304688.597656-4.679688.898437-7.0625.898437zm0 0" fill="#d4e1f4"/><g fill="#1ae5be"><path d="m407 361.4375h-163.671875c-3-15.421875-15.390625-27.28125-30.929687-29.601562v-54.339844h-14v54.960937c-14.117188 3.402344-24.953126 14.726563-27.726563 28.980469h-163.671875c-3.867188 0-7 3.132812-7 7 0 3.863281 3.132812 7 7 7h163.671875c3.355469 17.414062 18.59375 30 36.328125 30s32.972656-12.585938 36.328125-30h163.671875c3.867188 0 7-3.136719 7-7 0-3.867188-3.132812-7-7-7zm-200 30c-12.703125 0-23-10.300781-23-23 0-12.703125 10.296875-23 23-23s23 10.296875 23 23c-.015625 12.695312-10.304688 22.984375-23 23zm0 0"/><path d="m182.207031 192.71875c3.863281 0 7-3.132812 7-7 0-34.324219 30.550781-52.601562 52.597657-52.601562 13.839843 0 25.601562 5.75 34.15625 12.902343l-11.84375-.300781c-3.863282-.097656-7.078126 2.957031-7.171876 6.824219-.097656 3.867187 2.957032 7.078125 6.824219 7.175781l26.632813.667969c2.425781.660156 5.015625-.027344 6.789062-1.804688 1.777344-1.777343 2.464844-4.371093 1.800782-6.792969l-.667969-26.625c-.097657-3.796874-3.203125-6.828124-7-6.824218h-.179688c-3.867187.097656-6.917969 3.308594-6.824219 7.171875l.238282 9.382812c-11.960938-10.109375-27.089844-15.691406-42.75-15.777343-39.839844 0-66.597656 34.441406-66.597656 66.601562 0 3.863281 3.128906 6.996094 6.996093 7zm0 0"/><path d="m309.207031 185.71875c0-3.867188-3.136719-7-7-7-3.867187 0-7 3.132812-7 7 0 22.054688-18.28125 52.597656-52.601562 52.597656-13.839844 0-25.605469-5.746094-34.15625-12.898437l11.84375.300781h.179687c3.863282.046875 7.035156-3.046875 7.085938-6.914062.046875-3.867188-3.046875-7.039063-6.914063-7.085938l-26.636719-.671875c-2.425781-.660156-5.015624.03125-6.792968 1.808594-1.773438 1.78125-2.460938 4.375-1.796875 6.796875l.671875 26.621094c.09375 3.796874 3.199218 6.824218 7 6.824218h.175781c3.867187-.097656 6.921875-3.308594 6.824219-7.171875l-.238282-9.382812c11.960938 10.105469 27.089844 15.691406 42.75 15.773437 39.839844 0 66.605469-34.433594 66.605469-66.597656zm0 0"/></g><path d="m326.90625 82.355469h-.914062v-.117188c-.023438-23.167969-18.796876-41.941406-41.964844-41.964843h-65.621094c-.488281-.003907-.953125-.207032-1.285156-.570313l-23.808594-26.046875c-7.957031-8.691406-19.195312-13.6445312-30.976562-13.65625h-78.445313c-23.167969.0273438-41.941406 18.800781-41.964844 41.96875v205.050781c.023438 23.164063 18.796875 41.9375 41.964844 41.964844h243.015625c23.167969-.027344 41.941406-18.800781 41.96875-41.964844v-122.703125c-.03125-23.164062-18.804688-41.933594-41.96875-41.960937zm-211.367188 164.664062c-.019531 15.4375-12.53125 27.949219-27.96875 27.964844h-3.679687c-15.4375-.015625-27.949219-12.527344-27.964844-27.964844v-205.050781c.015625-15.441406 12.527344-27.949219 27.964844-27.96875h78.445313c7.851562.007812 15.339843 3.308594 20.644531 9.101562l23.808593 26.050782c2.984376 3.257812 7.199219 5.117187 11.617188 5.121094h65.621094c15.4375.015624 27.949218 12.527343 27.964844 27.964843v.117188h-154.492188c-23.164062.027343-41.933594 18.800781-41.960938 41.960937zm239.335938 0c-.019531 15.4375-12.53125 27.949219-27.96875 27.964844h-208.070312c6.898437-7.679687 10.707031-17.644531 10.699218-27.964844v-122.703125c.023438-15.433594 12.53125-27.941406 27.964844-27.960937h169.398438c15.441406.015625 27.953124 12.523437 27.976562 27.960937zm0 0" fill="#0635c9"/></svg>