<svg height="443pt" viewBox="0 -12 443.9942 443" width="443pt" xmlns="http://www.w3.org/2000/svg"><path d="m71.449219 324.503906h-4.230469c-18.335938-.023437-33.199219-14.882812-33.21875-33.222656v-263.570312c-.003906-3.835938.664062-7.644532 1.964844-11.253907-13.167969 4.761719-21.949219 17.253907-21.964844 31.253907v263.570312c.019531 18.339844 14.882812 33.199219 33.21875 33.222656h4.230469c14.007812-.015625 26.503906-8.796875 31.265625-21.96875-3.613282 1.304688-7.425782 1.96875-11.265625 1.96875zm0 0" fill="#d4e1f4"/><path d="m104.976562 324.503906c8.78125-8.828125 13.707032-20.773437 13.703126-33.222656v-168.828125c-.003907-3.839844.660156-7.644531 1.964843-11.253906-13.167969 4.757812-21.949219 17.25-21.964843 31.253906v168.828125c.003906 12.449219-4.921876 24.394531-13.703126 33.222656h150.210938c-2.101562-6.511718-3.574219-13.210937-4.398438-20zm0 0" fill="#d4e1f4"/><path d="m47.21875 358.503906h198.78125v-14h-161.023438c8.78125-8.828125 13.707032-20.773437 13.703126-33.222656v-168.828125c.019531-18.339844 14.878906-33.199219 33.21875-33.222656h194.871093c18.339844.019531 33.207031 14.878906 33.230469 33.222656v74.050781h14v-74.050781c-.03125-26.070313-21.160156-47.195313-47.230469-47.222656h-2.097656v-1.1875c-.027344-26.070313-21.152344-47.199219-47.222656-47.230469h-75.488281c-.859376 0-1.675782-.359375-2.253907-.992188l-27.390625-29.960937c-8.953125-9.777344-21.597656-15.351563-34.855468-15.363281h-90.242188c-26.0625.03125-47.1875 21.152344-47.21875 47.214844v263.570312c.03125 26.066406 21.152344 47.191406 47.21875 47.222656zm-33.21875-310.792968c.023438-18.335938 14.882812-33.195313 33.21875-33.214844h90.242188c9.328124.011718 18.222656 3.933594 24.523437 10.8125l27.375 29.949218c3.234375 3.539063 7.808594 5.558594 12.601563 5.558594h75.488281c18.34375.023438 33.203125 14.890625 33.222656 33.230469v1.191406h-178.773437c-26.066407.027344-47.1875 21.152344-47.21875 47.21875v168.828125c-.023438 18.34375-14.886719 33.203125-33.230469 33.222656h-4.230469c-18.339844-.019531-33.199219-14.886718-33.21875-33.226562zm0 0" fill="#0635c9"/><g fill="#1ae5be"><path d="m337 418.503906c50.042969-.003906 93.398438-34.691406 104.382812-83.511718 10.988282-48.820313-13.332031-98.734376-58.546874-120.171876-45.214844-21.441406-99.25-8.675781-130.097657 30.726563-25.226562 32.226563-29.859375 76.023437-11.9375 112.816406 17.925781 36.796875 55.269531 60.140625 96.199219 60.140625zm-73.242188-164.320312c28-35.785156 77.757813-46.101563 117.675782-24.402344 39.921875 21.703125 58.320312 69.074219 43.511718 112.03125-14.808593 42.957031-58.488281 68.925781-103.300781 61.421875-44.8125-7.507813-77.644531-46.292969-77.644531-91.730469-.039062-20.785156 6.921875-40.976562 19.757812-57.320312zm0 0"/><path d="m324.308594 326.195312 27.832031 17.832032c3.253906 2.085937 7.585937 1.140625 9.667969-2.117188 2.085937-3.253906 1.140625-7.582031-2.117188-9.667968l-24.605468-15.769532v-51.605468c0-3.863282-3.136719-7-7-7-3.867188 0-7 3.136718-7 7v55.4375c0 2.382812 1.214843 4.605468 3.222656 5.890624zm0 0"/></g></svg>