<svg height="464pt" viewBox="0 -10 464.00152 464" width="464pt" xmlns="http://www.w3.org/2000/svg"><path d="m71.449219 324.003906h-4.230469c-18.335938-.019531-33.199219-14.878906-33.21875-33.21875v-263.570312c-.003906-3.835938.664062-7.644532 1.964844-11.253906-13.167969 4.757812-21.949219 17.253906-21.964844 31.253906v263.570312c.019531 18.339844 14.882812 33.199219 33.21875 33.21875h4.230469c14.007812-.011718 26.503906-8.796875 31.265625-21.964844-3.613282 1.304688-7.425782 1.96875-11.265625 1.964844zm0 0" fill="#d4e1f4"/><path d="m104.976562 324.003906c8.78125-8.824218 13.707032-20.769531 13.703126-33.21875v-168.828125c-.003907-3.839843.660156-7.644531 1.964843-11.253906-13.167969 4.757813-21.949219 17.25-21.964843 31.253906v168.828125c.003906 12.449219-4.921876 24.394532-13.703126 33.21875h206.210938c-2.101562-6.507812-3.574219-13.207031-4.398438-20zm0 0" fill="#d4e1f4"/><path d="m47.21875 358.003906h245.78125v-14h-208.023438c8.78125-8.824218 13.707032-20.769531 13.703126-33.21875v-168.828125c.019531-18.339843 14.878906-33.199219 33.21875-33.222656h194.871093c18.339844.019531 33.207031 14.878906 33.230469 33.222656v69.046875h14v-69.046875c-.03125-26.070312-21.160156-47.195312-47.230469-47.222656h-2.097656v-1.1875c-.027344-26.070313-21.152344-47.199219-47.222656-47.230469h-75.488281c-.859376 0-1.675782-.359375-2.253907-.992187l-27.390625-29.960938c-8.953125-9.777343-21.597656-15.3515622-34.855468-15.363281h-90.242188c-26.0625.03125-47.1875 21.152344-47.21875 47.214844v263.570312c.03125 26.066406 21.152344 47.191406 47.21875 47.21875zm-33.21875-310.789062c.023438-18.335938 14.882812-33.195313 33.21875-33.214844h90.242188c9.328124.011719 18.222656 3.933594 24.523437 10.8125l27.375 29.945312c3.230469 3.542969 7.804687 5.5625 12.601563 5.5625h75.488281c18.34375.023438 33.203125 14.890626 33.222656 33.230469v1.191407h-178.773437c-26.066407.027343-47.1875 21.152343-47.21875 47.21875v168.828124c-.023438 18.34375-14.886719 33.203126-33.230469 33.222657h-4.230469c-18.339844-.019531-33.199219-14.886719-33.21875-33.226563zm0 0" fill="#0635c9"/><g fill="#1ae5be"><path d="m367 350.292969c-3.867188 0-7 3.132812-7 7v45.074219c0 3.867187 3.132812 7 7 7s7-3.132813 7-7v-45.074219c0-3.867188-3.132812-7-7-7zm0 0"/><path d="m401.136719 350.292969c-3.863281 0-7 3.132812-7 7v45.074219c0 3.867187 3.136719 7 7 7 3.867187 0 7-3.132813 7-7v-45.074219c0-3.867188-3.132813-7-7-7zm0 0"/><path d="m332.863281 350.292969c-3.867187 0-7 3.132812-7 7v45.074219c0 3.867187 3.132813 7 7 7 3.863281 0 7-3.132813 7-7v-45.074219c0-3.867188-3.136719-7-7-7zm0 0"/><path d="m438.253906 241.328125h-28.863281v-23.886719c-.007813-7.417968-6.019531-13.425781-13.433594-13.4375h-57.914062c-7.414063.011719-13.425781 6.019532-13.433594 13.4375v23.886719h-28.863281c-12.308594-.007813-22.898438 8.699219-25.273438 20.777344-2.371094 12.074219 4.132813 24.140625 15.527344 28.796875v125.070312c.019531 15.640625 12.695312 28.320313 28.335938 28.335938h105.324218c15.644532-.015625 28.320313-12.691406 28.339844-28.335938v-125.070312c11.390625-4.65625 17.890625-16.722656 15.519531-28.792969-2.375-12.074219-12.957031-20.78125-25.261719-20.777344zm-99.644531-23.324219h56.78125v23.324219h-56.78125zm81.050781 212.300782h-105.320312c-7.914063-.007813-14.328125-6.417969-14.339844-14.332032v-123.15625h134v123.15625c-.007812 7.914063-6.421875 14.328125-14.339844 14.335938zm18.59375-151.488282h-142.507812c-6.488282 0-11.746094-5.261718-11.746094-11.746094 0-6.488281 5.257812-11.746093 11.746094-11.746093h142.507812c6.488282 0 11.746094 5.257812 11.746094 11.746093 0 6.484376-5.257812 11.746094-11.746094 11.746094zm0 0"/></g></svg>