<svg height="433pt" viewBox="0 -13 433.99454 433" width="433pt" xmlns="http://www.w3.org/2000/svg"><path d="m104.976562 324.867188c8.78125-8.824219 13.707032-20.769532 13.703126-33.21875v-168.832032c-.003907-3.835937.660156-7.644531 1.964843-11.253906-13.167969 4.757812-21.949219 17.253906-21.964843 31.253906v168.832032c.003906 12.449218-4.921876 24.394531-13.703126 33.21875h162.238282l5.578125-20zm0 0" fill="#d4e1f4"/><path d="m71.449219 324.867188h-4.230469c-18.335938-.019532-33.199219-14.882813-33.21875-33.21875v-263.570313c-.003906-3.835937.664062-7.644531 1.964844-11.253906-13.167969 4.757812-21.949219 17.25-21.964844 31.253906v263.570313c.019531 18.335937 14.882812 33.199218 33.21875 33.21875h4.230469c14.007812-.015626 26.503906-8.796876 31.265625-21.96875-3.613282 1.304687-7.425782 1.972656-11.265625 1.96875zm0 0" fill="#d4e1f4"/><path d="m51.449219 358.507812h196.550781v-14h-163.023438c8.78125-8.824218 13.707032-20.769531 13.703126-33.21875v-168.828124c.019531-18.335938 14.878906-33.199219 33.21875-33.21875h194.871093c18.339844.019531 33.207031 14.878906 33.230469 33.21875v78.050781h14v-78.050781c-.03125-26.066407-21.160156-47.191407-47.230469-47.21875h-2.097656v-1.1875c-.027344-26.070313-21.152344-47.199219-47.222656-47.230469h-75.488281c-.859376 0-1.675782-.359375-2.253907-.996094l-27.390625-29.964844c-8.953125-9.78125-21.597656-15.355469-34.855468-15.367187h-90.242188c-26.066406.03125-47.1875 21.15625-47.21875 47.222656v263.570312c.03125 26.066407 21.152344 47.1875 47.21875 47.21875zm-37.449219-47.21875v-263.570312c.019531-18.339844 14.882812-33.199219 33.21875-33.222656h90.242188c9.328124.011718 18.222656 3.933594 24.523437 10.816406l27.375 29.949219c3.234375 3.542969 7.808594 5.5625 12.601563 5.5625h75.488281c18.34375.023437 33.203125 14.886719 33.222656 33.230469v1.1875h-178.773437c-26.066407.03125-47.1875 21.152343-47.21875 47.21875v168.832031c-.023438 18.339843-14.886719 33.203125-33.230469 33.21875h-4.230469c-18.339844-.019531-33.199219-14.882813-33.21875-33.222657zm0 0" fill="#0635c9"/><path d="m252.914062 323.261719c-14.558593 14.558593-16.921874 34.261719-6.171874 51.417969 1.128906 1.800781 3.015624 2.992187 5.125 3.238281 2.109374.246093 4.21875-.480469 5.730468-1.976563l15.503906-15.320312 4.207032.128906.195312 4.332031-15.457031 15.460938c-1.558594 1.554687-2.292969 3.753906-1.984375 5.933593.3125 2.179688 1.625 4.085938 3.554688 5.148438 6 3.339844 12.75 5.101562 19.621093 5.117188 10.917969 0 21.769531-4.5 30.417969-13.148438 12.472656-12.46875 16.253906-29.710938 10.285156-45.148438l15.914063-15.917968 14.902343 14.777344-22.769531 22.683593c-2.738281 2.726563-2.746093 7.160157-.019531 9.898438 2.730469 2.738281 7.160156 2.75 9.898438.019531l8.566406-8.53125 43.800781 43.796875c2.726563 2.730469 7.144531 2.738281 9.882813.019531l27.808593-27.597656c1.320313-1.3125 2.066407-3.09375 2.070313-4.957031 0-1.859375-.734375-3.648438-2.050782-4.960938l-43.835937-43.835937 7.714844-7.6875c2.738281-2.726563 2.746093-7.160156.019531-9.898438-2.730469-2.738281-7.160156-2.746094-9.902344-.019531l-21.269531 21.191406-14.917969-14.800781 15.121094-15.121094c12.832031 3.074219 29.488281.8125 41.359375-11.269531 14.410156-14.429687 16.953125-34.074219 6.628906-51.277344-1.105469-1.84375-2.992187-3.078125-5.125-3.34375-2.132812-.269531-4.269531.453125-5.796875 1.964844l-15.503906 15.324219-4.207031-.128906-.195313-4.335938 15.464844-15.453125c1.554688-1.558594 2.289062-3.753906 1.980469-5.933594-.308594-2.179687-1.625-4.085937-3.554688-5.148437-16.371093-9.019532-36-5.964844-50.039062 7.820312-12.472657 12.472656-16.25 29.710938-10.285157 45.152344l-13.820312 13.820312-27.691406-27.695312 1.683594-1.683594c2.734374-2.734375 2.734374-7.164062 0-9.898437l-24.945313-24.949219c-2.734375-2.734375-7.167969-2.734375-9.902344 0l-13.792969 13.792969c-2.734374 2.734375-2.734374 7.167969 0 9.902343l24.945313 24.945313c2.734375 2.734375 7.167969 2.734375 9.902344 0l2.207031-2.210937 27.695312 27.691406-17.429687 17.433594c-14.785156-3.5625-30.992187.695312-41.539063 11.238281zm164.167969 49.34375-17.871093 17.742187-38.855469-38.855468 8.609375-8.574219c.261718-.195313.511718-.410157.746094-.644531.214843-.21875.410156-.449219.59375-.691407l7.890624-7.859375zm-155.101562-133.390625 3.898437-3.898438 15.046875 15.050782-3.898437 3.894531zm39.433593 85.648437 47.523438-47.523437c2.183594-2.183594 2.679688-5.539063 1.21875-8.257813-5.992188-11.175781-3.835938-23.992187 5.585938-33.410156 6.949218-6.828125 15.5625-9.820313 23.949218-8.679687l-9.730468 9.730468c-1.390626 1.390625-2.132813 3.300782-2.042969 5.265625l.621093 13.898438c.164063 3.660156 3.121094 6.574219 6.78125 6.683593l13.699219.414063c1.914063.0625 3.769531-.667969 5.132813-2.015625l10.316406-10.199219c2.179688 9.039063-.601562 18.035157-8.152344 25.585938l-.046875.046875c-8.871093 9.050781-22.296875 9.777344-31.011719 6.621094-2.554687-.921876-5.410156-.289063-7.332031 1.632812l-47.316406 47.316406c-2.183594 2.183594-2.679687 5.539063-1.21875 8.257813 5.992187 11.171875 3.832031 23.992187-5.628906 33.457031-6.914063 6.910156-15.511719 9.960938-23.902344 8.835938l9.730469-9.730469c1.390625-1.390625 2.132812-3.300781 2.042968-5.261719l-.621093-13.902344c-.164063-3.65625-3.121094-6.570312-6.78125-6.679687l-13.703125-.417969c-1.914063-.066406-3.773438.664062-5.128906 2.019531l-10.5 10.367188c-2.421876-9.058594.273437-18.117188 7.910156-25.753907 7.726562-7.730468 20.597656-10.464843 31.300781-6.65625 2.546875.910157 5.390625.269532 7.304687-1.644531zm0 0" fill="#1ae5be"/></svg>