<svg height="442pt" viewBox="0 -36 442 442" width="442pt" xmlns="http://www.w3.org/2000/svg"><path d="m71.449219 324.011719h-4.230469c-18.335938-.023438-33.199219-14.882813-33.21875-33.222657v-263.570312c-.003906-3.835938.664062-7.644531 1.964844-11.253906-13.167969 4.757812-21.949219 17.253906-21.964844 31.253906v263.570312c.019531 18.339844 14.882812 33.199219 33.21875 33.222657h4.230469c14.007812-.019531 26.503906-8.800781 31.265625-21.972657-3.613282 1.308594-7.425782 1.972657-11.265625 1.972657zm0 0" fill="#d4e1f4"/><path d="m228 324.011719h-123.023438c8.78125-8.828125 13.707032-20.773438 13.703126-33.222657v-168.828124c-.003907-3.839844.660156-7.648438 1.964843-11.257813-13.167969 4.761719-21.949219 17.253906-21.964843 31.257813v168.828124c.003906 12.449219-4.921876 24.394532-13.703126 33.222657h143.050782c-.015625-.347657-.027344-.691407-.027344-1.039063zm0 0" fill="#d4e1f4"/><path d="m239 344.011719h-154.023438c8.78125-8.828125 13.707032-20.773438 13.703126-33.222657v-168.828124c.019531-18.339844 14.878906-33.203126 33.21875-33.222657h194.871093c18.34375.019531 33.207031 14.878907 33.230469 33.222657v114.050781h14v-114.050781c-.03125-26.070313-21.160156-47.195313-47.230469-47.222657h-2.097656v-1.1875c-.027344-26.070312-21.152344-47.199219-47.222656-47.230469h-75.488281c-.859376 0-1.675782-.359374-2.253907-.996093l-27.390625-29.957031c-8.953125-9.777344-21.597656-15.3554692-34.855468-15.367188h-90.242188c-26.066406.0273438-47.1914062 21.152344-47.21875 47.21875v263.570312c.03125 26.066407 21.152344 47.191407 47.21875 47.222657h191.78125zm-191.78125 0c-18.335938-.023438-33.199219-14.882813-33.21875-33.222657v-263.570312c.019531-18.335938 14.882812-33.199219 33.21875-33.21875h90.242188c9.328124.007812 18.222656 3.933594 24.523437 10.8125l27.375 29.945312c3.234375 3.542969 7.804687 5.5625 12.601563 5.5625h75.488281c18.34375.023438 33.203125 14.886719 33.222656 33.230469v1.1875h-178.773437c-26.066407.03125-47.1875 21.15625-47.21875 47.222657v168.828124c-.023438 18.34375-14.890626 33.203126-33.230469 33.222657zm0 0" fill="#0635c9"/><path d="m255 369.976562h97.386719c14.902343-.019531 26.980469-12.097656 27-27v-6.023437l51.929687 32.152344c2.15625 1.335937 4.871094 1.398437 7.089844.160156 2.21875-1.234375 3.59375-3.574219 3.59375-6.117187v-114.179688c0-2.453125-1.28125-4.726562-3.382812-5.996094-2.097657-1.265625-4.710938-1.34375-6.878907-.199218l-52.351562 27.570312v-1.476562c-.019531-14.902344-12.097657-26.984376-27-27h-97.386719c-14.90625.015624-26.984375 12.097656-27 27v74.109374c.015625 14.902344 12.09375 26.980469 27 27zm173-109.414062v90.023438l-48.613281-30.101563v-34.316406zm-186 8.300781c.007812-7.175781 5.824219-12.992187 13-13h97.386719c7.175781.007813 12.992187 5.824219 13 13v74.113281c-.007813 7.175782-5.824219 12.992188-13 13h-97.386719c-7.175781-.011718-12.992188-5.824218-13-13zm0 0" fill="#1ae5be"/></svg>