<svg height="444pt" viewBox="0 -13 444.00153 444" width="444pt" xmlns="http://www.w3.org/2000/svg"><path d="m71.449219 324.003906h-4.230469c-18.335938-.019531-33.199219-14.878906-33.21875-33.21875v-263.570312c-.003906-3.835938.664062-7.644532 1.964844-11.253906-13.167969 4.757812-21.949219 17.253906-21.964844 31.253906v263.570312c.019531 18.339844 14.882812 33.199219 33.21875 33.21875h4.230469c14.007812-.011718 26.503906-8.796875 31.265625-21.964844-3.613282 1.304688-7.425782 1.96875-11.265625 1.964844zm0 0" fill="#d4e1f4"/><path d="m104.976562 324.003906c8.78125-8.824218 13.707032-20.769531 13.703126-33.21875v-168.828125c-.003907-3.839843.660156-7.648437 1.964843-11.253906-13.167969 4.757813-21.949219 17.25-21.964843 31.253906v168.828125c.003906 12.449219-4.921876 24.394532-13.703126 33.21875h150.238282c-2.113282-6.507812-3.59375-13.203125-4.421875-20zm0 0" fill="#d4e1f4"/><path d="m47.21875 358.003906h198.78125v-14h-161.023438c8.78125-8.824218 13.707032-20.769531 13.703126-33.21875v-168.828125c.019531-18.339843 14.878906-33.199219 33.21875-33.222656h194.871093c18.339844.019531 33.207031 14.878906 33.230469 33.222656v74.046875h14v-74.046875c-.03125-26.070312-21.160156-47.195312-47.230469-47.222656h-2.097656v-1.1875c-.027344-26.070313-21.152344-47.199219-47.222656-47.230469h-75.488281c-.859376 0-1.675782-.359375-2.253907-.992187l-27.390625-29.960938c-8.953125-9.777343-21.597656-15.3515622-34.855468-15.363281h-90.242188c-26.0625.03125-47.1875 21.152344-47.21875 47.214844v263.570312c.03125 26.066406 21.152344 47.191406 47.21875 47.21875zm-33.21875-310.789062c.023438-18.335938 14.882812-33.195313 33.21875-33.214844h90.242188c9.328124.011719 18.222656 3.933594 24.523437 10.8125l27.375 29.945312c3.230469 3.542969 7.804687 5.5625 12.601563 5.5625h75.488281c18.34375.023438 33.203125 14.890626 33.222656 33.230469v1.191407h-178.773437c-26.066407.027343-47.1875 21.152343-47.21875 47.21875v168.828124c-.023438 18.34375-14.886719 33.203126-33.230469 33.222657h-4.230469c-18.339844-.019531-33.199219-14.886719-33.21875-33.226563zm0 0" fill="#0635c9"/><g fill="#1ae5be"><path d="m337 204.003906c-59.09375 0-107 47.90625-107 107 0 59.097656 47.90625 107 107 107s107-47.902344 107-107c.152344-28.421875-11.070312-55.726562-31.171875-75.828125-20.097656-20.097656-47.402344-31.324219-75.828125-31.171875zm0 200c-51.363281 0-93-41.636718-93-93 0-51.359375 41.636719-93 93-93s93 41.640625 93 93c0 51.363282-41.636719 93-93 93zm0 0"/><path d="m256.347656 306.878906c-1.796875 2.457032-1.796875 5.796875 0 8.253906 1.457032 2 36.1875 48.859376 80.652344 48.859376s79.199219-46.863282 80.652344-48.859376c1.796875-2.457031 1.796875-5.796874 0-8.253906-1.457032-2-36.183594-48.859375-80.652344-48.859375s-79.199219 46.863281-80.652344 48.859375zm146.691406 4.132813c-9.054687 10.792969-35.621093 38.980469-66.039062 38.980469-30.324219 0-56.957031-28.203126-66.035156-38.988282 9.082031-10.792968 35.710937-38.984375 66.035156-38.984375s56.964844 28.203125 66.039062 38.992188zm0 0"/><path d="m302 311.003906c0 19.332032 15.671875 35 35 35s35-15.667968 35-35c0-19.328125-15.671875-35-35-35-19.320312.023438-34.976562 15.679688-35 35zm56 0c0 11.601563-9.402344 21-21 21s-21-9.398437-21-21c0-11.597656 9.402344-21 21-21 11.59375.015625 20.988281 9.410156 21 21zm0 0"/></g></svg>