<svg height="455pt" viewBox="0 -29 455.98336 455" width="455pt" xmlns="http://www.w3.org/2000/svg"><path d="m71.457031 323.855469h-4.230469c-18.335937-.023438-33.199218-14.882813-33.21875-33.222657v-263.570312c-.003906-3.835938.660157-7.644531 1.964844-11.253906-13.167968 4.757812-21.949218 17.253906-21.964844 31.253906v263.570312c.019532 18.339844 14.882813 33.199219 33.21875 33.222657h4.230469c14.003907-.019531 26.503907-8.800781 31.265625-21.972657-3.613281 1.308594-7.425781 1.972657-11.265625 1.972657zm0 0" fill="#d4e1f4"/><path d="m308.007812 323.855469h-203.023437c8.78125-8.828125 13.707031-20.773438 13.699219-33.222657v-168.828124c0-3.839844.664062-7.648438 1.96875-11.257813-13.171875 4.761719-21.949219 17.253906-21.96875 31.257813v168.828124c.007812 12.449219-4.917969 24.394532-13.699219 33.222657h213.046875c-.011719-.347657 9.976562-20 9.976562-20zm0 0" fill="#d4e1f4"/><path d="m326.769531 95.230469h-2.097656v-1.1875c-.03125-26.070313-21.152344-47.199219-47.222656-47.230469h-75.488281c-.859376 0-1.679688-.363281-2.253907-1l-27.390625-29.953125c-8.953125-9.777344-21.597656-15.355469-34.855468-15.367187h-90.242188c-26.066406.027343-47.1875 21.152343-47.21875 47.21875v263.570312c.03125 26.066406 21.152344 47.191406 47.21875 47.21875h241.78125v-14h-204.023438c8.78125-8.824219 13.707032-20.769531 13.703126-33.21875v-168.828125c.019531-18.339844 14.878906-33.199219 33.21875-33.222656h194.871093c18.339844.019531 33.203125 14.878906 33.226563 33.222656v108.046875h14v-108.046875c-.03125-26.070313-21.15625-47.191406-47.226563-47.222656zm-16.097656 0h-178.773437c-26.066407.03125-47.1875 21.15625-47.21875 47.222656v168.828125c-.023438 18.339844-14.886719 33.203125-33.230469 33.21875h-4.230469c-18.335938-.019531-33.199219-14.878906-33.21875-33.21875v-263.570312c.019531-18.335938 14.882812-33.199219 33.21875-33.21875h90.242188c9.328124.007812 18.222656 3.933593 24.523437 10.8125l27.375 29.945312c3.230469 3.542969 7.804687 5.5625 12.601563 5.5625h75.488281c18.339843.023438 33.203125 14.886719 33.21875 33.230469zm0 0" fill="#0635c9"/><g fill="#1ae5be"><path d="m388.921875 254.917969c-4.90625-7.9375-13.585937-12.761719-22.921875-12.730469-9.332031-.03125-18.011719 4.792969-22.921875 12.730469l-62.980469 101.15625c-5.183594 8.324219-5.445312 18.804687-.683594 27.378906 4.761719 8.574219 13.796876 13.894531 23.605469 13.890625h125.964844c9.804687.003906 18.84375-5.316406 23.601563-13.890625 4.761718-8.574219 4.5-19.054687-.683594-27.378906zm51.425781 121.738281c-2.265625 4.152344-6.632812 6.722656-11.363281 6.6875h-125.964844c-4.722656.003906-9.074219-2.558594-11.367187-6.6875-2.292969-4.125-2.167969-9.171875.328125-13.179688l62.984375-101.15625c2.371094-3.8125 6.542968-6.128906 11.035156-6.128906 4.488281 0 8.660156 2.316406 11.035156 6.128906l62.984375 101.15625c2.527344 3.996094 2.65625 9.0625.328125 13.179688zm0 0"/><path d="m366 287.410156c-3.867188 0-7 3.132813-7 7v45.714844c0 3.867188 3.132812 7 7 7s7-3.132812 7-7v-45.714844c0-3.867187-3.132812-7-7-7zm0 0"/><path d="m366 350.992188c-3.867188 0-7 3.132812-7 7v5.132812c0 3.867188 3.132812 7 7 7s7-3.132812 7-7v-5.132812c0-3.867188-3.132812-7-7-7zm0 0"/></g></svg>