<svg height="431pt" viewBox="0 -13 431.684 431" width="431pt" xmlns="http://www.w3.org/2000/svg"><path d="m70.792969 324.882812h-4.230469c-18.339844-.023437-33.199219-14.882812-33.21875-33.222656v-263.570312c-.003906-3.835938.660156-7.644532 1.964844-11.253906-13.167969 4.757812-21.949219 17.25-21.964844 31.253906v263.570312c.019531 18.339844 14.878906 33.199219 33.21875 33.222656h4.230469c14.003906-.015624 26.5-8.796874 31.261719-21.96875-3.609376 1.304688-7.421876 1.96875-11.261719 1.96875zm0 0" fill="#d4e1f4"/><path d="m104.320312 324.882812c8.78125-8.828124 13.707032-20.773437 13.699219-33.222656v-168.828125c-.003906-3.835937.664063-7.644531 1.964844-11.253906-13.167969 4.757813-21.949219 17.25-21.964844 31.253906v168.828125c.007813 12.449219-4.917969 24.394532-13.699219 33.222656h170.023438v-20zm0 0" fill="#d4e1f4"/><path d="m51.449219 358.351562h207.550781v-14h-174.023438c8.78125-8.824218 13.707032-20.769531 13.703126-33.21875v-168.832031c.019531-18.335937 14.878906-33.199219 33.21875-33.21875h194.871093c18.339844.019531 33.207031 14.878907 33.226563 33.21875v86.050781h14v-86.050781c-.03125-26.066406-21.160156-47.191406-47.226563-47.21875h-2.101562v-1.191406c-.027344-26.070313-21.152344-47.199219-47.21875-47.230469h-75.492188c-.855469 0-1.675781-.359375-2.253906-.996094l-27.386719-29.953124c-8.953125-9.78125-21.597656-15.355469-34.855468-15.367188h-90.242188c-26.066406.027344-47.1875 21.152344-47.21875 47.21875v263.570312c.03125 26.066407 21.152344 47.1875 47.21875 47.21875zm-37.449219-47.21875v-263.570312c.019531-18.339844 14.882812-33.199219 33.21875-33.21875h90.242188c9.328124.007812 18.222656 3.929688 24.523437 10.8125l27.375 29.945312c3.230469 3.542969 7.804687 5.558594 12.601563 5.558594h75.488281c18.339843.027344 33.203125 14.890625 33.222656 33.230469v1.191406h-178.773437c-26.066407.03125-47.1875 21.152344-47.21875 47.21875v168.832031c-.023438 18.339844-14.886719 33.203126-33.230469 33.21875h-4.230469c-18.335938-.019531-33.199219-14.882812-33.21875-33.21875zm0 0" fill="#0635c9"/><path d="m337 216.667969c-52.292969 0-94.683594 42.390625-94.683594 94.683593 0 52.292969 42.390625 94.683594 94.683594 94.683594s94.683594-42.390625 94.683594-94.683594c-.058594-52.269531-42.414063-94.625-94.683594-94.683593zm64.414062 143.210937c-4.023437-3.78125-8.375-7.191406-13-10.203125 3.140626-10.167969 4.972657-20.695312 5.445313-31.328125h23.5c-1.292969 15.070313-6.824219 29.464844-15.945313 41.53125zm-144.773437-41.527344h23.5c.472656 10.558594 2.28125 21.015626 5.382813 31.121094-4.667969 2.992188-9.058594 6.394532-13.121094 10.167969-9.015625-12.015625-14.476563-26.324219-15.761719-41.289063zm15.761719-55.285156c4.0625 3.773438 8.453125 7.175782 13.121094 10.164063-3.101563 10.105469-4.910157 20.5625-5.378907 31.121093h-23.503906c1.285156-14.964843 6.746094-29.269531 15.757813-41.285156zm57.601562 10.871094c-9.375-.789062-18.539062-3.195312-27.089844-7.109375 6.179688-13.667969 15.390626-24.808594 27.089844-32.445313zm0 14.039062v16.375h-35.855468c.425781-8.230468 1.761718-16.386718 3.980468-24.324218 10.082032 4.472656 20.867188 7.160156 31.871094 7.949218zm0 30.375v16.375c-11.003906.789063-21.789062 3.480469-31.875 7.953126-2.21875-7.9375-3.550781-16.097657-3.976562-24.328126zm0 30.414063v39.554687c-11.699218-7.636718-20.910156-18.773437-27.089844-32.441406 8.550782-3.917968 17.714844-6.324218 27.085938-7.113281zm14 .007813c9.363282.808593 18.511719 3.257812 27.027344 7.230468-6.175781 13.609375-15.363281 24.699219-27.027344 32.316406zm0-14.042969v-16.378907h35.851563c-.429688 8.273438-1.773438 16.476563-4.011719 24.453126-10.0625-4.535157-20.839844-7.265626-31.84375-8.074219zm0-30.378907v-16.378906c11.003906-.808594 21.777344-3.539062 31.839844-8.074218 2.238281 7.976562 3.585938 16.179687 4.011719 24.453124zm0-30.421874v-39.546876c11.664063 7.613282 20.851563 18.707032 27.027344 32.316407-8.515625 3.972656-17.667969 6.421875-27.03125 7.230469zm24.347656-36.921876c8.738282 3.710938 16.753907 8.929688 23.683594 15.421876-2.765625 2.613281-5.714844 5.027343-8.824218 7.21875-3.824219-8.230469-8.832032-15.855469-14.859376-22.640626zm-77.664062 22.847657c-3.152344-2.183594-6.140625-4.597657-8.941406-7.21875 6.980468-6.585938 15.070312-11.875 23.902344-15.628907-6.082032 6.84375-11.121094 14.539063-14.960938 22.847657zm0 102.992187c3.839844 8.308594 8.878906 16.007813 14.960938 22.847656-8.832032-3.75-16.921876-9.042968-23.902344-15.628906 2.800781-2.621094 5.789062-5.03125 8.941406-7.21875zm92.523438.207032c3.109374 2.191406 6.058593 4.605468 8.824218 7.222656-6.929687 6.488281-14.945312 11.707031-23.683594 15.417968 6.027344-6.785156 11.035157-14.410156 14.859376-22.640624zm10.648437-58.699219c-.472656-10.632813-2.304687-21.160157-5.449219-31.328125 4.628906-3.011719 8.976563-6.425782 13-10.203125 9.125 12.0625 14.652344 26.457031 15.949219 41.527343zm0 0" fill="#1ae5be"/></svg>