<svg height="394pt" viewBox="0 -8 394.129 394" width="394pt" xmlns="http://www.w3.org/2000/svg"><path d="m73.984375 343.300781h-4.46875c-19.574219-.023437-35.433594-15.886719-35.457031-35.457031v-278.214844c-.003906-4.445312.835937-8.851562 2.472656-12.984375-13.546875 5.347657-22.457031 18.421875-22.472656 32.984375v278.214844c.023437 19.570312 15.882812 35.433594 35.457031 35.457031h4.46875c14.5625-.019531 27.640625-8.925781 32.984375-22.472656-4.132812 1.636719-8.539062 2.472656-12.984375 2.472656zm0 0" fill="#d4e1f4"/><path d="m364.601562 343.300781h-256.167968c9.601562-9.296875 15.015625-22.09375 15.007812-35.457031v-178.214844c0-4.445312.839844-8.851562 2.476563-12.984375-13.546875 5.347657-22.457031 18.421875-22.476563 32.984375v178.214844c.007813 13.363281-5.40625 26.160156-15.007812 35.457031h256.167968c14.5625-.019531 27.636719-8.925781 32.984376-22.472656-4.132813 1.636719-8.539063 2.472656-12.984376 2.472656zm0 0" fill="#d4e1f4"/><path d="m263.679688 155.160156c3.867187 0 7-3.132812 7-7 0-3.867187-3.132813-7-7-7l-13.839844-.011718.023437-32.625c0-3.867188-3.132812-7-7-7-3.863281 0-6.996093 3.132812-7 6.996093l-.011719 18.3125-14.160156-.011719c-3.867187 0-7 3.132813-7 7 0 3.867188 3.132813 7 7 7l14.160156.011719-.007812 12.3125-14.160156-.011719c-3.867188 0-7.003906 3.132813-7.003906 7 0 3.863282 3.132812 7 6.996093 7l14.164063.011719-.007813 12.3125-14.164062-.011719c-3.867188 0-7 3.136719-7 7 0 3.867188 3.132812 7 7 7l14.164062.011719-.007812 12.3125-14.167969-.011719c-3.863281 0-7 3.136719-7 7 0 3.867188 3.136719 7 7 7l14.167969.011719-.007813 12.3125-14.167968-.007812c-3.867188 0-7 3.132812-7 7 0 3.863281 3.132812 7 7 7l14.167968.007812-.007812 12.3125-14.167969-.007812h-.003906c-3.867188 0-7 3.132812-7 7 0 3.863281 3.132812 7 7 7l14.167969.007812-.011719 12.3125-14.167969-.007812c-3.863281-.003907-7 3.128906-7 6.996093-.003906 3.867188 3.128906 7 6.996094 7.003907h6.019531c-1.984375 3.363281-3.027344 7.195312-3.027344 11.097656l-.015625 20c-.007812 12.152344 9.835938 22.007813 21.984375 22.015625h.015625c12.136719-.015625 21.976563-9.847656 22-21.984375l.015625-20c-.007812-10.921875-8.011719-20.1875-18.816406-21.78125v-1.335937l13.832031.011718c3.863282 0 7-3.132812 7-7 0-3.867187-3.136718-7-7-7l-13.832031-.011718.007813-12.3125 13.832031.011718c3.867187 0 7-3.132812 7-7 0-3.867187-3.132813-7-7-7l-13.832031-.011718.007812-12.3125 13.835938.011718c3.863281 0 7-3.136718 7-7 0-3.867187-3.136719-7-7-7l-13.835938-.011718.007812-12.3125 13.835938.011718c3.867188 0 7-3.132812 7-7 0-3.867187-3.132812-7-7-7l-13.835938-.011718.007813-12.3125 13.835937.007812c3.867188 0 7-3.132812 7-7 0-3.863281-3.132812-7-7-7l-13.835937-.007812.007813-12.3125zm-9.113282 154.660156-.011718 20c-.011719 4.414063-3.585938 7.988282-8 7.992188h-.007813c-4.417969-.007812-7.992187-3.589844-7.992187-8.003906l.011718-20c.011719-4.414063 3.585938-7.988282 8-7.996094h.007813c4.414062.007812 7.992187 3.589844 7.992187 8.007812zm0 0" fill="#1ae5be"/><path d="m344.699219 100.28125h-2.605469v-1.644531c.019531-27.316407-22.109375-49.472657-49.421875-49.492188l-79.683594-.058593c-1.011719-.003907-1.980469-.429688-2.664062-1.179688l-28.886719-31.652344c-9.371094-10.25-22.613281-16.097656-36.5-16.121094l-95.253906-.0664058h-.027344c-27.285156.03125-49.40625 22.1328128-49.457031 49.4218748l-.199219 278.210938c.0117188 27.300781 22.121094 49.441406 49.421875 49.496093h4.46875l290.613281.210938h.035156c27.289063-.035156 49.40625-22.136719 49.460938-49.421875l.128906-178.214844c-.011718-27.300781-22.125-49.441406-49.429687-49.488281zm-290.777344 262.914062h-4.496094c-19.574219-.035156-35.425781-15.910156-35.433593-35.484374l.199218-278.210938c.035156-19.566406 15.898438-35.417969 35.464844-35.433594h.027344l95.25.066406c9.957031.019532 19.449218 4.210938 26.167968 11.558594l28.886719 31.648438c3.335938 3.652344 8.050781 5.734375 13 5.742187l79.679688.058594c19.582031.015625 35.445312 15.902344 35.429687 35.484375v1.640625l-189.085937-.136719h-.039063c-27.300781 0-49.4375 22.121094-49.457031 49.421875l-.128906 178.214844c-.015625 19.570313-15.886719 35.429687-35.457031 35.429687zm326.070313-35.21875c-.035157 19.5625-15.894532 35.410157-35.457032 35.433594h-.027344l-256.132812-.1875.492188-.484375c9.3125-9.25 14.539062-21.839843 14.511718-34.964843l.128906-178.210938c.015626-19.574219 15.886719-35.429688 35.457032-35.433594h.027344l205.699218.152344c19.574219.035156 35.425782 15.910156 35.433594 35.480469zm0 0" fill="#0635c9"/></svg>