<svg height="512" viewBox="0 0 74 74" width="512" xmlns="http://www.w3.org/2000/svg"><g id="color_styel" data-name="color styel"><path d="m61.953 14.035v57h-50v-68h39z" fill="#eeefee"/><path d="m62.453 71.535h-51v-69h39.707l11.293 11.293zm-50-1h49v-56.293l-10.707-10.707h-38.293z" fill="#323c6b"/><path d="m50.953 3.035h-3l11 11v57h3v-57z" fill="#dbd8dd"/><rect fill="#fed19a" height="32" rx="2" width="30" x="21.953" y="29.035"/><path d="m49.953 61.535h-26a2.5 2.5 0 0 1 -2.5-2.5v-28a2.5 2.5 0 0 1 2.5-2.5h26a2.5 2.5 0 0 1 2.5 2.5v28a2.5 2.5 0 0 1 -2.5 2.5zm-26-32a1.5 1.5 0 0 0 -1.5 1.5v28a1.5 1.5 0 0 0 1.5 1.5h26a1.5 1.5 0 0 0 1.5-1.5v-28a1.5 1.5 0 0 0 -1.5-1.5z" fill="#323c6b"/><g fill="#e6b17d"><path d="m22.455 49.535h28.996v1h-28.996z"/><path d="m41.453 50.035h1v10.498h-1z"/><path d="m31.453 50.035h1v10.498h-1z"/><path d="m41.453 29.532h1v10.525h-1z"/><path d="m51.441 40.535h-19.988v-11.003h1v10.047h18.988z"/></g><path d="m62.453 71.535h-51v-69h39.707l11.293 11.293zm-50-1h49v-56.293l-10.707-10.707h-38.293z" fill="#323c6b"/><g fill="#dbd8dd"><path d="m24.546 6.437a.593.593 0 0 0 -.593-.593h-.853a.593.593 0 1 0 0 1.187h.853a.593.593 0 0 0 .593-.594z"/><path d="m21.691 6.437a.593.593 0 0 0 -.593-.593h-5.823a.593.593 0 0 0 -.593.593v4.932a.593.593 0 1 0 1.187 0v-4.339h5.231a.593.593 0 0 0 .591-.593z"/></g></g></svg>