<svg height="512" viewBox="0 0 74 74" width="512" xmlns="http://www.w3.org/2000/svg"><g id="color_styel" data-name="color styel"><path d="m39.327 26.9a13.213 13.213 0 0 1 -26.424 0 13.008 13.008 0 0 1 1.245-5.517c2.184 1 5.335 1.331 9.855-.029 4.817-1.456 7.26-3.706 8.476-5.756a15 15 0 0 1 5.191 4.942 11.554 11.554 0 0 1 1.437 3.86 13.127 13.127 0 0 1 .22 2.5z" fill="#fed19a"/><path d="m26.11 40.421a13.494 13.494 0 0 1 -12.41-19.254.5.5 0 0 1 .66-.242c2.46 1.122 5.659 1.1 9.5-.053 3.968-1.2 6.723-3.061 8.19-5.533a.5.5 0 0 1 .658-.189 15.385 15.385 0 0 1 5.385 5.119 12.025 12.025 0 0 1 1.507 4.038 13.628 13.628 0 0 1 -13.49 16.114zm-11.71-18.39a12.494 12.494 0 0 0 11.71 17.39 12.63 12.63 0 0 0 12.506-14.93 11.024 11.024 0 0 0 -1.376-3.7 14.859 14.859 0 0 0 -4.593-4.522c-1.649 2.484-4.5 4.354-8.5 5.561-3.853 1.159-7.126 1.226-9.747.201z" fill="#323c6b"/><path d="m17.651 22.21a10.047 10.047 0 0 1 -3.5-.831c-.086.183-.153.379-.231.568a12.225 12.225 0 0 0 3.731.263z" fill="#f4bb87"/><path d="m39.107 24.4a11.554 11.554 0 0 0 -1.437-3.86 15 15 0 0 0 -5.191-4.942 9.3 9.3 0 0 1 -.58.858 15.267 15.267 0 0 1 3.855 4.084 11.554 11.554 0 0 1 1.437 3.86 13.11 13.11 0 0 1 -12.038 15.473c.317.023.634.048.957.048a13.128 13.128 0 0 0 13-15.525z" fill="#f4bb87"/><path d="m39.107 24.4a11.554 11.554 0 0 0 -1.437-3.86 15 15 0 0 0 -5.191-4.942c-1.216 2.05-3.659 4.3-8.476 5.756-4.521 1.36-7.672 1.025-9.855.029a8.634 8.634 0 0 1 -4.731-5.632s3.477 2.27 8.85-3.036 14.108-4.08 15.161.565a4.39 4.39 0 0 1 5.842 2.059c2.088 3.646.067 8.521-.163 9.061z" fill="#828a9e"/><path d="m39.107 24.9h-.056a.5.5 0 0 1 -.436-.408 11.016 11.016 0 0 0 -1.375-3.694 14.864 14.864 0 0 0 -4.593-4.522c-1.649 2.484-4.5 4.354-8.5 5.561-4.084 1.23-7.52 1.231-10.208.005a9.068 9.068 0 0 1 -5.013-5.984.5.5 0 0 1 .763-.521c.126.079 3.243 1.947 8.225-2.974a12.232 12.232 0 0 1 11.648-3.236 5.982 5.982 0 0 1 4.194 3.494 4.821 4.821 0 0 1 5.944 2.467c2.143 3.746.261 8.575-.138 9.505a.5.5 0 0 1 -.455.307zm-6.627-9.8a.5.5 0 0 1 .228.055 15.385 15.385 0 0 1 5.385 5.119 12.126 12.126 0 0 1 1.089 2.39c.507-1.783.994-4.732-.346-7.074a3.862 3.862 0 0 0 -5.185-1.86.5.5 0 0 1 -.711-.336 4.811 4.811 0 0 0 -3.658-3.3 11.208 11.208 0 0 0 -10.664 2.979c-3.9 3.848-6.886 3.89-8.393 3.525a8.112 8.112 0 0 0 4.127 4.332c2.462 1.124 5.66 1.105 9.506-.052 3.968-1.2 6.723-3.061 8.19-5.533a.5.5 0 0 1 .432-.251z" fill="#323c6b"/><path d="m10.555 16.142a3.526 3.526 0 0 1 -1.138-.395s.041.183.137.476a5.794 5.794 0 0 0 1.001-.081z" fill="#62667c"/><path d="m39.27 15.336a4.285 4.285 0 0 0 -4.856-2.375 4.516 4.516 0 0 1 2.941 2.375 8.93 8.93 0 0 1 .735 5.987 11.554 11.554 0 0 1 1.017 3.077c.23-.54 2.251-5.415.163-9.064z" fill="#62667c"/><path d="m30.305 64.775h-7.94l2.442-15.937a2.359 2.359 0 0 0 .642.086h2.03a2.29 2.29 0 0 0 .632-.086z" fill="#69b0ee"/><path d="m30.305 65.275h-7.939a.5.5 0 0 1 -.494-.576l2.442-15.937a.5.5 0 0 1 .632-.4 1.854 1.854 0 0 0 .5.066h2.03a1.807 1.807 0 0 0 .495-.066.492.492 0 0 1 .411.062.5.5 0 0 1 .222.351l2.196 15.932a.5.5 0 0 1 -.5.568zm-7.357-1h6.783l-2.044-14.858c-.068 0-.137.007-.207.007h-2.03c-.075 0-.15 0-.224-.008z" fill="#323c6b"/><path d="m25.45 48.924a2.359 2.359 0 0 1 -.642-.086l-.013.086z" fill="#419be9"/><path d="m28.112 48.838a2.29 2.29 0 0 1 -.632.086h-1.272l2.182 15.851h1.915z" fill="#419be9"/><path d="m24.808 48.838-2.442 15.937h-19.366v-7.988a12.258 12.258 0 0 1 12.384-12.125h7.729v1.963a2.319 2.319 0 0 0 1.695 2.213z" fill="#b6d2dd"/><path d="m22.366 65.275h-19.366a.5.5 0 0 1 -.5-.5v-7.988a12.771 12.771 0 0 1 12.884-12.625h7.729a.5.5 0 0 1 .5.5v1.963a1.82 1.82 0 0 0 1.332 1.731.5.5 0 0 1 .357.557l-2.442 15.938a.5.5 0 0 1 -.494.424zm-18.866-1h18.437l2.316-15.112a2.816 2.816 0 0 1 -1.64-2.538v-1.463h-7.229a11.77 11.77 0 0 0 -11.884 11.625z" fill="#323c6b"/><path d="m12.9 48.334a.479.479 0 0 1 -.122-.942q.371-.1.754-.168a.479.479 0 0 1 .172.942q-.346.063-.682.152a.479.479 0 0 1 -.122.016z" fill="#eeefee"/><path d="m5.873 57.266a.479.479 0 0 1 -.479-.479 9.741 9.741 0 0 1 4.89-8.365.479.479 0 0 1 .481.829 8.781 8.781 0 0 0 -4.413 7.537.479.479 0 0 1 -.479.478z" fill="#eeefee"/><path d="m52.381 55.164a.5.5 0 0 1 -.495-.429 14.082 14.082 0 0 0 -.428-1.963.5.5 0 0 1 .96-.282 15.284 15.284 0 0 1 .458 2.1.5.5 0 0 1 -.424.566.512.512 0 0 1 -.071.008z" fill="#323c6b"/><path d="m50.264 49.421a.5.5 0 0 1 -.424-.234 14.82 14.82 0 0 0 -9.728-6.63.5.5 0 1 1 .188-.982 15.826 15.826 0 0 1 10.386 7.08.5.5 0 0 1 -.423.766z" fill="#323c6b"/><path d="m49.661 56.787v7.988h-19.356l-2.193-15.937a2.3 2.3 0 0 0 1.7-2.212v-1.964h7.461a12.258 12.258 0 0 1 12.388 12.125z" fill="#b6d2dd"/><path d="m49.662 65.275h-19.357a.5.5 0 0 1 -.5-.432l-2.188-15.937a.5.5 0 0 1 .364-.551 1.8 1.8 0 0 0 1.336-1.73v-1.963a.5.5 0 0 1 .5-.5h7.461a12.771 12.771 0 0 1 12.884 12.625v7.988a.5.5 0 0 1 -.5.5zm-18.92-1h18.42v-7.488a11.77 11.77 0 0 0 -11.884-11.625h-6.961v1.463a2.8 2.8 0 0 1 -1.654 2.544z" fill="#323c6b"/><path d="m37.278 44.662h-2.878a12.258 12.258 0 0 1 12.388 12.125v7.988h2.873v-7.988a12.258 12.258 0 0 0 -12.383-12.125z" fill="#acc6cc"/><path d="m29.817 44.662v1.963a2.334 2.334 0 0 1 -2.337 2.3h-2.03a2.359 2.359 0 0 1 -.642-.086 2.319 2.319 0 0 1 -1.7-2.212v-1.965z" fill="#69b0ee"/><path d="m27.48 49.424h-2.03a2.87 2.87 0 0 1 -.78-.105 2.823 2.823 0 0 1 -2.057-2.693v-1.964a.5.5 0 0 1 .5-.5h6.7a.5.5 0 0 1 .5.5v1.963a2.832 2.832 0 0 1 -2.837 2.8zm-3.867-4.262v1.463a1.82 1.82 0 0 0 1.332 1.731 1.853 1.853 0 0 0 .5.067h2.03a1.831 1.831 0 0 0 1.837-1.8v-1.461z" fill="#323c6b"/><path d="m27.9 44.662v1.963a2.334 2.334 0 0 1 -2.337 2.3h1.917a2.334 2.334 0 0 0 2.337-2.3v-1.963z" fill="#419be9"/><g fill="#323c6b"><path d="m49.662 65.275h-19.357a.5.5 0 0 1 -.5-.432l-2.188-15.937a.5.5 0 0 1 .364-.551 1.8 1.8 0 0 0 1.336-1.73v-1.963a.5.5 0 0 1 .5-.5h7.461a12.771 12.771 0 0 1 12.884 12.625v7.988a.5.5 0 0 1 -.5.5zm-18.92-1h18.42v-7.488a11.77 11.77 0 0 0 -11.884-11.625h-6.961v1.463a2.8 2.8 0 0 1 -1.654 2.544z"/><path d="m26.11 40.421a13.494 13.494 0 0 1 -12.41-19.254.5.5 0 0 1 .66-.242c2.46 1.122 5.659 1.1 9.5-.053 3.968-1.2 6.723-3.061 8.19-5.533a.5.5 0 0 1 .658-.189 15.385 15.385 0 0 1 5.385 5.119 12.025 12.025 0 0 1 1.507 4.038 13.628 13.628 0 0 1 -13.49 16.114zm-11.71-18.39a12.494 12.494 0 0 0 11.71 17.39 12.63 12.63 0 0 0 12.506-14.93 11.024 11.024 0 0 0 -1.376-3.7 14.859 14.859 0 0 0 -4.593-4.522c-1.649 2.484-4.5 4.354-8.5 5.561-3.853 1.159-7.126 1.226-9.747.201z"/><path d="m39.107 24.9h-.056a.5.5 0 0 1 -.436-.408 11.016 11.016 0 0 0 -1.375-3.694 14.864 14.864 0 0 0 -4.593-4.522c-1.649 2.484-4.5 4.354-8.5 5.561-4.084 1.23-7.52 1.231-10.208.005a9.068 9.068 0 0 1 -5.013-5.984.5.5 0 0 1 .763-.521c.126.079 3.243 1.947 8.225-2.974a12.232 12.232 0 0 1 11.648-3.236 5.982 5.982 0 0 1 4.194 3.494 4.821 4.821 0 0 1 5.944 2.467c2.143 3.746.261 8.575-.138 9.505a.5.5 0 0 1 -.455.307zm-6.627-9.8a.5.5 0 0 1 .228.055 15.385 15.385 0 0 1 5.385 5.119 12.126 12.126 0 0 1 1.089 2.39c.507-1.783.994-4.732-.346-7.074a3.862 3.862 0 0 0 -5.185-1.86.5.5 0 0 1 -.711-.336 4.811 4.811 0 0 0 -3.658-3.3 11.208 11.208 0 0 0 -10.664 2.979c-3.9 3.848-6.886 3.89-8.393 3.525a8.112 8.112 0 0 0 4.127 4.332c2.462 1.124 5.66 1.105 9.506-.052 3.968-1.2 6.723-3.061 8.19-5.533a.5.5 0 0 1 .432-.251z"/><path d="m30.305 65.275h-7.939a.5.5 0 0 1 -.494-.576l2.442-15.937a.5.5 0 0 1 .632-.4 1.854 1.854 0 0 0 .5.066h2.03a1.807 1.807 0 0 0 .495-.066.492.492 0 0 1 .411.062.5.5 0 0 1 .222.351l2.196 15.932a.5.5 0 0 1 -.5.568zm-7.357-1h6.783l-2.044-14.858c-.068 0-.137.007-.207.007h-2.03c-.075 0-.15 0-.224-.008z"/><path d="m27.48 49.424h-2.03a2.87 2.87 0 0 1 -.78-.105 2.823 2.823 0 0 1 -2.057-2.693v-1.964a.5.5 0 0 1 .5-.5h6.7a.5.5 0 0 1 .5.5v1.963a2.832 2.832 0 0 1 -2.837 2.8zm-3.867-4.262v1.463a1.82 1.82 0 0 0 1.332 1.731 1.853 1.853 0 0 0 .5.067h2.03a1.831 1.831 0 0 0 1.837-1.8v-1.461z"/><path d="m57.591 14.514h-.958a.5.5 0 0 1 0-1h.958a.5.5 0 0 1 0 1z"/><path d="m71 19.3a.5.5 0 0 1 -.5-.5 4.293 4.293 0 0 0 -4.289-4.289h-5.511a.5.5 0 0 1 0-1h5.507a5.3 5.3 0 0 1 5.293 5.289.5.5 0 0 1 -.5.5z"/></g><path d="m68.127 18.8v12.454a1.921 1.921 0 0 1 -1.915 1.915h-9.578l-6.7 4.789v-4.789h-2.878a1.921 1.921 0 0 1 -1.915-1.915v-12.454a1.921 1.921 0 0 1 1.915-1.915h19.155a1.921 1.921 0 0 1 1.916 1.915z" fill="#b1dcc1"/><path d="m49.93 38.458a.5.5 0 0 1 -.5-.5v-4.289h-2.374a2.418 2.418 0 0 1 -2.416-2.416v-12.453a2.418 2.418 0 0 1 2.416-2.416h19.155a2.418 2.418 0 0 1 2.416 2.416v12.453a2.418 2.418 0 0 1 -2.416 2.416h-9.417l-6.574 4.7a.5.5 0 0 1 -.29.089zm-2.874-21.071a1.417 1.417 0 0 0 -1.415 1.413v12.453a1.417 1.417 0 0 0 1.416 1.416h2.873a.5.5 0 0 1 .5.5v3.817l5.914-4.224a.5.5 0 0 1 .291-.093h9.578a1.417 1.417 0 0 0 1.416-1.416v-12.453a1.417 1.417 0 0 0 -1.416-1.416z" fill="#323c6b"/><path d="m66.211 16.887h-1.911a1.921 1.921 0 0 1 1.911 1.913v12.454a1.921 1.921 0 0 1 -1.911 1.915h1.915a1.921 1.921 0 0 0 1.915-1.915v-12.454a1.921 1.921 0 0 0 -1.919-1.913z" fill="#9dceb2"/><g fill="#323c6b"><path d="m49.93 22.134h7.662v1h-7.662z"/><path d="m49.93 26.923h13.408v1h-13.408z"/><path d="m49.93 38.458a.5.5 0 0 1 -.5-.5v-4.289h-2.374a2.418 2.418 0 0 1 -2.416-2.416v-12.453a2.418 2.418 0 0 1 2.416-2.416h19.155a2.418 2.418 0 0 1 2.416 2.416v12.453a2.418 2.418 0 0 1 -2.416 2.416h-9.417l-6.574 4.7a.5.5 0 0 1 -.29.089zm-2.874-21.071a1.417 1.417 0 0 0 -1.415 1.413v12.453a1.417 1.417 0 0 0 1.416 1.416h2.873a.5.5 0 0 1 .5.5v3.817l5.914-4.224a.5.5 0 0 1 .291-.093h9.578a1.417 1.417 0 0 0 1.416-1.416v-12.453a1.417 1.417 0 0 0 -1.416-1.416z"/></g></g></svg>