<?xml version="1.0"?>
<svg xmlns="http://www.w3.org/2000/svg" viewBox="0 0 74 74" width="512" height="512"><g id="color_styel" data-name="color styel"><path d="M13.732,59.668a.5.5,0,0,1-.454-.288,25.945,25.945,0,0,1-2.254-7.855.5.5,0,1,1,.992-.121,24.958,24.958,0,0,0,2.168,7.552.5.5,0,0,1-.453.712Z" fill="#323c6b"/><path d="M16.081,63.691a.5.5,0,0,1-.408-.209c-.356-.5-.7-1.025-1.031-1.562A.5.5,0,1,1,15.5,61.4q.469.769.992,1.5a.5.5,0,0,1-.407.791Z" fill="#323c6b"/><path d="M37,48.33c12.5-7.66,22.67,0,22.67,0a22.67,22.67,0,0,1-45.34,0" fill="#69b0ee"/><path d="M37,71.5A23.2,23.2,0,0,1,13.83,48.33h1a22.17,22.17,0,0,0,44.338.26,20.225,20.225,0,0,0-21.907.166l-.522-.853a21.188,21.188,0,0,1,23.232.027l.2.15v.25A23.2,23.2,0,0,1,37,71.5Z" fill="#323c6b"/><path d="M57.65,47.134A22.659,22.659,0,0,1,20,63.325a22.665,22.665,0,0,0,39.665-15A14.8,14.8,0,0,0,57.65,47.134Z" fill="#419be9"/><path d="M61.413,40.952a.5.5,0,0,1-.475-.345,25.3,25.3,0,0,0-.924-2.4.5.5,0,0,1,.914-.405,26.264,26.264,0,0,1,.96,2.5.5.5,0,0,1-.32.63A.494.494,0,0,1,61.413,40.952Z" fill="#323c6b"/><path d="M58.87,35.455a.5.5,0,0,1-.427-.238,25.554,25.554,0,0,0-7.9-8.085.5.5,0,0,1,.541-.841,26.566,26.566,0,0,1,8.212,8.4.5.5,0,0,1-.426.762Z" fill="#323c6b"/><path d="M59.67,48.33S49.5,40.67,37,48.33l-.054.033a20.375,20.375,0,0,1-8.23,2.756l-1.728.207a18.708,18.708,0,0,1-10.935-1.948A13.789,13.789,0,0,1,14.33,48.33,22.674,22.674,0,0,1,30.52,26.61V7.32H43.48V26.61A22.674,22.674,0,0,1,59.67,48.33Z" fill="#eeefee"/><path d="M24.635,51.966a18.856,18.856,0,0,1-8.815-2.147,14.2,14.2,0,0,1-1.792-1.09l-.2-.15V48.33A23.3,23.3,0,0,1,30.02,26.24V6.82H43.98V26.24A23.3,23.3,0,0,1,60.17,48.33v1l-.8-.6c-.1-.075-10.059-7.356-22.108.026a20.819,20.819,0,0,1-8.485,2.859l-1.729.207A20.315,20.315,0,0,1,24.635,51.966Zm-9.8-3.895a15.385,15.385,0,0,0,1.455.863,18.116,18.116,0,0,0,10.642,1.894l1.729-.207a19.755,19.755,0,0,0,8.029-2.686A21.3,21.3,0,0,1,59.15,47.4,22.3,22.3,0,0,0,43.337,27.089l-.357-.106V7.82H31.02V26.983l-.357.106A22.291,22.291,0,0,0,14.832,48.072Z" fill="#323c6b"/><path d="M46.71,5.16a2.155,2.155,0,0,1-2.15,2.16H29.44a2.16,2.16,0,0,1,0-4.32H44.56a2.13,2.13,0,0,1,1.52.63A2.153,2.153,0,0,1,46.71,5.16Z" fill="#eeefee"/><path d="M44.56,7.82H29.44a2.66,2.66,0,0,1,0-5.32H44.56a2.66,2.66,0,0,1,0,5.32ZM29.44,3.5a1.66,1.66,0,0,0,0,3.32H44.56a1.664,1.664,0,0,0,1.166-2.836A1.639,1.639,0,0,0,44.56,3.5Z" fill="#323c6b"/><path d="M40.875,36a4,4,0,0,1-8,0,1.719,1.719,0,0,1,.02-.32,4,4,0,0,1,7.78-.93A3.944,3.944,0,0,1,40.875,36Z" fill="#dbd8dd"/><path d="M37,71.5A23.2,23.2,0,0,1,13.83,48.33h1a22.17,22.17,0,0,0,44.338.26,20.225,20.225,0,0,0-21.907.166l-.522-.853a21.188,21.188,0,0,1,23.232.027l.2.15v.25A23.2,23.2,0,0,1,37,71.5Z" fill="#323c6b"/><circle cx="48.812" cy="38" r="2" fill="#dbd8dd"/><circle cx="24.29" cy="43.5" r="3" fill="#dbd8dd"/><path d="M20.414,58.084c-.018.012-.036.024-.054.037a.95.95,0,0,0-.215,1.238,4.028,4.028,0,0,0,.492.707.755.755,0,0,0,1.14.088.953.953,0,0,0,.091-1.254,2.766,2.766,0,0,1-.385-.554A.761.761,0,0,0,20.414,58.084Z" fill="#419be9"/><path d="M23.024,61.006a.827.827,0,0,0-.233.194.951.951,0,0,0,.042,1.256A16.307,16.307,0,0,0,32.4,67.126a.848.848,0,0,0,.868-.826.857.857,0,0,0-.742-.948,15.017,15.017,0,0,1-8.593-4.209A.751.751,0,0,0,23.024,61.006Z" fill="#419be9"/></g></svg>
