<svg height="512" viewBox="0 0 74 74" width="512" xmlns="http://www.w3.org/2000/svg"><g id="color_styel" data-name="color styel"><g fill="#323c6b"><path d="m32.448 3.244a.5.5 0 0 1 -.314-.89 9.076 9.076 0 0 1 1.191-.814.5.5 0 1 1 .494.869 7.992 7.992 0 0 0 -1.059.724.5.5 0 0 1 -.312.111z"/><path d="m26.319 14.251a.5.5 0 0 1 -.142-.021.5.5 0 0 1 -.337-.622 29.538 29.538 0 0 1 3.919-8.677.5.5 0 0 1 .814.58 28.549 28.549 0 0 0 -3.773 8.382.5.5 0 0 1 -.481.358z"/><path d="m37 70.475c-6.268 0-11.178-14.717-11.178-33.5s4.908-33.51 11.178-33.51 11.176 14.717 11.176 33.505-4.91 33.505-11.176 33.505zm0-66.01c-5.517 0-10.178 14.886-10.178 32.505s4.661 32.5 10.178 32.5 10.176-14.88 10.176-32.5-4.661-32.505-10.176-32.505z"/><path d="m9.015 58.122a.493.493 0 0 1 -.209-.046 7.452 7.452 0 0 1 -3.447-3.067 7.321 7.321 0 0 1 -.946-3.855.49.49 0 0 1 .512-.488.5.5 0 0 1 .488.512 6.328 6.328 0 0 0 .814 3.335 6.471 6.471 0 0 0 3 2.656.5.5 0 0 1 -.21.954z"/><path d="m14.687 56.273c-3.443 0-5.782-.927-6.8-2.708-2.055-3.6 1.692-9.95 10.023-16.978a85.934 85.934 0 0 1 8.32-6.143c1.681-1.1 3.44-2.171 5.229-3.19s3.584-1.972 5.316-2.829a88.365 88.365 0 0 1 9.383-3.993 58.473 58.473 0 0 1 7.366-2.1l.2.979a57.4 57.4 0 0 0 -7.236 2.06 87.279 87.279 0 0 0 -9.273 3.947c-1.714.848-3.485 1.791-5.264 2.8s-3.512 2.071-5.177 3.158a85.05 85.05 0 0 0 -8.223 6.07c-7.695 6.491-11.542 12.66-9.8 15.717.92 1.613 3.328 2.368 6.976 2.175l.052 1c-.372.025-.738.035-1.092.035z"/><path d="m21.44 55.387-.221-.976a57.845 57.845 0 0 0 6.281-1.847 87.279 87.279 0 0 0 9.273-3.947c1.708-.845 3.48-1.787 5.264-2.8s3.512-2.072 5.177-3.159a84.949 84.949 0 0 0 8.222-6.07c7.7-6.491 11.542-12.661 9.8-15.717-.835-1.46-2.913-2.211-6.008-2.2l-.006-1c3.459 0 5.857.915 6.883 2.707 2.055 3.6-1.692 9.951-10.023 16.979a86 86 0 0 1 -8.32 6.143c-1.681 1.1-3.44 2.17-5.229 3.19s-3.59 1.975-5.316 2.829a88.365 88.365 0 0 1 -9.383 3.993 58.954 58.954 0 0 1 -6.394 1.875z"/><path d="m68.955 50.473a.5.5 0 0 1 -.493-.419 10.993 10.993 0 0 0 -.582-2.108.5.5 0 0 1 .935-.355 11.972 11.972 0 0 1 .634 2.3.5.5 0 0 1 -.412.574.463.463 0 0 1 -.082.008z"/><path d="m67.045 45.609a.5.5 0 0 1 -.431-.245 31.4 31.4 0 0 0 -3.82-5.021q-.662-.725-1.386-1.456a.5.5 0 0 1 .711-.7q.738.745 1.414 1.485a32.35 32.35 0 0 1 3.942 5.185.5.5 0 0 1 -.43.755z"/><path d="m59.327 56.266a29.378 29.378 0 0 1 -5.894-.688c-6.464-1.346-14.267-4.5-21.971-8.9-16.322-9.302-26.675-20.857-23.571-26.302s18.321-2.422 34.644 6.883c16.322 9.305 26.675 20.86 23.571 26.305-1.02 1.788-3.362 2.702-6.779 2.702zm-44.749-37.593c-2.9 0-4.967.705-5.818 2.2-2.732 4.793 7.891 16.215 23.2 24.941 7.615 4.341 15.314 7.462 21.679 8.787 6.094 1.268 10.323.711 11.6-1.53 2.732-4.793-7.891-16.215-23.2-24.941-10.539-6.01-21.046-9.457-27.461-9.457z"/></g><circle cx="56.413" cy="18.371" fill="#ef5261" r="2.825"/><path d="m56.413 21.7a3.325 3.325 0 1 1 3.325-3.325 3.329 3.329 0 0 1 -3.325 3.325zm0-5.649a2.325 2.325 0 1 0 2.325 2.325 2.327 2.327 0 0 0 -2.325-2.33z" fill="#323c6b"/><circle cx="18.554" cy="55.414" fill="#fad641" r="2.825"/><path d="m18.554 58.739a3.325 3.325 0 1 1 3.325-3.325 3.329 3.329 0 0 1 -3.325 3.325zm0-5.649a2.325 2.325 0 1 0 2.325 2.325 2.328 2.328 0 0 0 -2.325-2.326z" fill="#323c6b"/><circle cx="36.998" cy="36.97" fill="#69b0ee" r="4.854"/></g></svg>