<svg height="512" viewBox="0 0 74 74" width="512" xmlns="http://www.w3.org/2000/svg"><g id="color_styel" data-name="color styel"><g fill="#323c6b"><path d="m4.244 46.49h50.223v1h-50.223z" transform="matrix(.293 -.956 .956 .293 -24.174 61.289)"/><path d="m44.145 21.879h1v50.223h-1z" transform="matrix(.956 -.293 .293 .956 -11.805 15.137)"/><path d="m56.013 33.342-.707-.707a20.722 20.722 0 0 0 0-29.271l.707-.707a21.722 21.722 0 0 1 0 30.685z"/><path d="m51.292 29.621-.707-.707a15.452 15.452 0 0 0 0-21.827l.707-.707a16.452 16.452 0 0 1 0 23.241z"/><path d="m46.57 25.9-.707-.707a10.183 10.183 0 0 0 0-14.385l.707-.707a11.184 11.184 0 0 1 0 15.799z"/><path d="m17.987 33.342a21.722 21.722 0 0 1 0-30.685l.707.707a20.722 20.722 0 0 0 0 29.271z"/><path d="m22.708 29.621a16.452 16.452 0 0 1 0-23.241l.707.707a15.452 15.452 0 0 0 0 21.827z"/><path d="m27.43 25.9a11.184 11.184 0 0 1 0-15.8l.707.707a10.183 10.183 0 0 0 0 14.385z"/></g><circle cx="37" cy="18" fill="#828a9e" r="5"/><path d="m37 23.5a5.5 5.5 0 1 1 5.5-5.5 5.506 5.506 0 0 1 -5.5 5.5zm0-10a4.5 4.5 0 1 0 4.5 4.5 4.5 4.5 0 0 0 -4.5-4.5z" fill="#323c6b"/><path d="m38.147 13.145a4.971 4.971 0 0 1 -4.295 8.71 4.986 4.986 0 1 0 4.295-8.71z" fill="#62667c"/><g fill="#323c6b"><path d="m32.11 37.5h9.78v1h-9.78z"/><path d="m28.74 48.5h16.52v1h-16.52z"/><path d="m25.37 59.5h23.26v1h-23.26z"/><path d="m37 23.5a5.5 5.5 0 1 1 5.5-5.5 5.506 5.506 0 0 1 -5.5 5.5zm0-10a4.5 4.5 0 1 0 4.5 4.5 4.5 4.5 0 0 0 -4.5-4.5z"/></g></g></svg>