<svg height="512" viewBox="0 0 74 74" width="512" xmlns="http://www.w3.org/2000/svg"><g id="color_styel" data-name="color styel"><path d="m14.688 12.5h-.562a.5.5 0 0 1 0-1h.563a.5.5 0 0 1 0 1z" fill="#323c6b"/><path d="m4.8 12.853a.5.5 0 0 1 -.157-.975 7.467 7.467 0 0 1 2.357-.378h4.813a.5.5 0 0 1 0 1h-4.813a6.471 6.471 0 0 0 -2.038.327.509.509 0 0 1 -.162.026z" fill="#323c6b"/><path d="m71 19v16a4 4 0 0 1 -4 4h-9v-5h-8v5h-26v-5h-8v5h-9a4 4 0 0 1 -4-4v-16a4 4 0 0 1 4-4h60a4 4 0 0 1 4 4z" fill="#9a9eaf"/><path d="m67 39.5h-9a.5.5 0 0 1 -.5-.5v-4.5h-7v4.5a.5.5 0 0 1 -.5.5h-26a.5.5 0 0 1 -.5-.5v-4.5h-7v4.5a.5.5 0 0 1 -.5.5h-9a4.5 4.5 0 0 1 -4.5-4.5v-16a4.5 4.5 0 0 1 4.5-4.5h60a4.5 4.5 0 0 1 4.5 4.5v16a4.5 4.5 0 0 1 -4.5 4.5zm-8.5-1h8.5a3.5 3.5 0 0 0 3.5-3.5v-16a3.5 3.5 0 0 0 -3.5-3.5h-60a3.5 3.5 0 0 0 -3.5 3.5v16a3.5 3.5 0 0 0 3.5 3.5h8.5v-4.5a.5.5 0 0 1 .5-.5h8a.5.5 0 0 1 .5.5v4.5h25v-4.5a.5.5 0 0 1 .5-.5h8a.5.5 0 0 1 .5.5z" fill="#323c6b"/><path d="m67 15h-2a4 4 0 0 1 4 4v16a4 4 0 0 1 -4 4h2a4 4 0 0 0 4-4v-16a4 4 0 0 0 -4-4z" fill="#828a9e"/><path d="m59 69.5h-1.333a.5.5 0 0 1 0-1h1.333a.5.5 0 0 1 0 1z" fill="#323c6b"/><path d="m62 69.5a.5.5 0 0 1 0-1 6.508 6.508 0 0 0 6.5-6.5.5.5 0 0 1 1 0 7.508 7.508 0 0 1 -7.5 7.5z" fill="#323c6b"/><path d="m66 39v23a4 4 0 0 1 -4 4h-51a4 4 0 0 1 -4-4v-23h9v5h8v-5h26v5h8v-5z" fill="#828a9e"/><path d="m62 66.5h-51a4.5 4.5 0 0 1 -4.5-4.5v-23a.5.5 0 0 1 .5-.5h9a.5.5 0 0 1 .5.5v4.5h7v-4.5a.5.5 0 0 1 .5-.5h26a.5.5 0 0 1 .5.5v4.5h7v-4.5a.5.5 0 0 1 .5-.5h8a.5.5 0 0 1 .5.5v23a4.5 4.5 0 0 1 -4.5 4.5zm-54.5-27v22.5a3.5 3.5 0 0 0 3.5 3.5h51a3.5 3.5 0 0 0 3.5-3.5v-22.5h-7v4.5a.5.5 0 0 1 -.5.5h-8a.5.5 0 0 1 -.5-.5v-4.5h-25v4.5a.5.5 0 0 1 -.5.5h-8a.5.5 0 0 1 -.5-.5v-4.5z" fill="#323c6b"/><path d="m64 39v23a4 4 0 0 1 -4 4h2a4 4 0 0 0 4-4v-23z" fill="#62667c"/><path d="m48 15.5h-22a.5.5 0 0 1 -.479-.644l2.1-7a.5.5 0 0 1 .479-.356h17.8a.5.5 0 0 1 .479.356l2.1 7a.5.5 0 0 1 -.479.644zm-21.328-1h20.656l-1.8-6h-17.056z" fill="#323c6b"/><path d="m50 34h8v10h-8z" fill="#dbd8dd"/><path d="m58 44.5h-8a.5.5 0 0 1 -.5-.5v-10a.5.5 0 0 1 .5-.5h8a.5.5 0 0 1 .5.5v10a.5.5 0 0 1 -.5.5zm-7.5-1h7v-9h-7z" fill="#323c6b"/><path d="m53.5 34h1v4h-1z" fill="#323c6b"/><path d="m16 34h8v10h-8z" fill="#dbd8dd"/><g fill="#323c6b"><path d="m24 44.5h-8a.5.5 0 0 1 -.5-.5v-10a.5.5 0 0 1 .5-.5h8a.5.5 0 0 1 .5.5v10a.5.5 0 0 1 -.5.5zm-7.5-1h7v-9h-7z"/><path d="m19.5 34h1v4h-1z"/><path d="m67 39.5h-9a.5.5 0 0 1 -.5-.5v-4.5h-7v4.5a.5.5 0 0 1 -.5.5h-26a.5.5 0 0 1 -.5-.5v-4.5h-7v4.5a.5.5 0 0 1 -.5.5h-9a4.5 4.5 0 0 1 -4.5-4.5v-16a4.5 4.5 0 0 1 4.5-4.5h60a4.5 4.5 0 0 1 4.5 4.5v16a4.5 4.5 0 0 1 -4.5 4.5zm-8.5-1h8.5a3.5 3.5 0 0 0 3.5-3.5v-16a3.5 3.5 0 0 0 -3.5-3.5h-60a3.5 3.5 0 0 0 -3.5 3.5v16a3.5 3.5 0 0 0 3.5 3.5h8.5v-4.5a.5.5 0 0 1 .5-.5h8a.5.5 0 0 1 .5.5v4.5h25v-4.5a.5.5 0 0 1 .5-.5h8a.5.5 0 0 1 .5.5z"/><path d="m62 66.5h-51a4.5 4.5 0 0 1 -4.5-4.5v-23a.5.5 0 0 1 .5-.5h9a.5.5 0 0 1 .5.5v4.5h7v-4.5a.5.5 0 0 1 .5-.5h26a.5.5 0 0 1 .5.5v4.5h7v-4.5a.5.5 0 0 1 .5-.5h8a.5.5 0 0 1 .5.5v23a4.5 4.5 0 0 1 -4.5 4.5zm-54.5-27v22.5a3.5 3.5 0 0 0 3.5 3.5h51a3.5 3.5 0 0 0 3.5-3.5v-22.5h-7v4.5a.5.5 0 0 1 -.5.5h-8a.5.5 0 0 1 -.5-.5v-4.5h-25v4.5a.5.5 0 0 1 -.5.5h-8a.5.5 0 0 1 -.5-.5v-4.5z"/></g></g></svg>