<svg height="512" viewBox="0 0 74 74" width="512" xmlns="http://www.w3.org/2000/svg"><g id="color_styel" data-name="color styel"><g fill="#323c6b"><path d="m23 31.083a.5.5 0 0 1 -.5-.5v-1a.5.5 0 1 1 1 0v1a.5.5 0 0 1 -.5.5z"/><path d="m19.57 43.12a.5.5 0 0 1 -.379-.826 19.494 19.494 0 0 1 3.309-3.048v-5.246a.5.5 0 0 1 1 0v5.5a.5.5 0 0 1 -.211.408 18.5 18.5 0 0 0 -3.34 3.035.5.5 0 0 1 -.379.177z"/><path d="m48.344 67.947a.5.5 0 0 1 -.378-.828c.345-.4.677-.813.987-1.238a.5.5 0 1 1 .807.59c-.326.447-.676.885-1.038 1.3a.5.5 0 0 1 -.378.176z"/><path d="m50.7 64.549a.5.5 0 0 1 -.439-.739 18.485 18.485 0 0 0 2.239-8.81.5.5 0 0 1 1 0 19.489 19.489 0 0 1 -2.357 9.288.5.5 0 0 1 -.443.261z"/></g><path d="m50 55a16 16 0 1 1 -24-13.86v-30.14a8 8 0 0 1 8-8 8 8 0 0 1 8 8v30.14a15.994 15.994 0 0 1 8 13.86z" fill="#b6d2dd"/><path d="m34.008 71.5q-.366 0-.735-.016a16.628 16.628 0 0 1 -15.745-15.516 16.438 16.438 0 0 1 7.972-15.114v-29.854a8.5 8.5 0 0 1 17 0v29.854a16.55 16.55 0 0 1 8 14.146 16.5 16.5 0 0 1 -16.492 16.5zm-.008-68a7.508 7.508 0 0 0 -7.5 7.5v30.14a.5.5 0 0 1 -.25.433 15.446 15.446 0 0 0 -7.724 14.338 15.619 15.619 0 0 0 14.789 14.574 15.5 15.5 0 0 0 16.185-15.485 15.546 15.546 0 0 0 -7.75-13.427.5.5 0 0 1 -.25-.433v-30.14a7.508 7.508 0 0 0 -7.5-7.5z" fill="#323c6b"/><path d="m42 41.14v-30.14a7.953 7.953 0 0 0 -9-7.931 8 8 0 0 1 7 7.931v30.14a16 16 0 0 1 -6.947 29.823c.081 0 .159.018.24.022a16 16 0 0 0 8.707-29.845z" fill="#acc6cc"/><g fill="#323c6b"><path d="m50 5.5h6v1h-6z"/><path d="m50 11.5h4v1h-4z"/><path d="m50 17.5h6v1h-6z"/><path d="m50 23.5h4v1h-4z"/><path d="m50 29.5h6v1h-6z"/><path d="m50 35.5h4v1h-4z"/><path d="m50 41.5h6v1h-6z"/></g><path d="m43 55.011a9 9 0 1 1 -11.72-8.623v-25.01a2.648 2.648 0 0 1 2.72-2.569 2.648 2.648 0 0 1 2.72 2.569v25.01a9.055 9.055 0 0 1 6.28 8.623z" fill="#ef5261"/><path d="m34 64.549a9.548 9.548 0 0 1 -3.22-18.519v-24.652a3.223 3.223 0 0 1 6.439 0v24.652a9.548 9.548 0 0 1 -3.219 18.519zm0-45.24a2.151 2.151 0 0 0 -2.22 2.069v25.01a.5.5 0 0 1 -.348.477 8.5 8.5 0 1 0 5.135 0 .5.5 0 0 1 -.348-.477v-25.01a2.151 2.151 0 0 0 -2.219-2.069z" fill="#323c6b"/><path d="m27.814 56.526a.5.5 0 0 1 -.494-.428 6.85 6.85 0 0 1 -.07-.98.5.5 0 0 1 1 0 5.766 5.766 0 0 0 .061.836.5.5 0 0 1 -.424.566.442.442 0 0 1 -.073.006z" fill="#e42542"/><path d="m34 61.9a6.712 6.712 0 0 1 -6.054-3.785.5.5 0 1 1 .9-.441 5.72 5.72 0 0 0 5.154 3.226.5.5 0 0 1 0 1z" fill="#e42542"/><path d="m34.008 71.5q-.366 0-.735-.016a16.628 16.628 0 0 1 -15.745-15.516 16.438 16.438 0 0 1 7.972-15.114v-29.854a8.5 8.5 0 0 1 17 0v29.854a16.55 16.55 0 0 1 8 14.146 16.5 16.5 0 0 1 -16.492 16.5zm-.008-68a7.508 7.508 0 0 0 -7.5 7.5v30.14a.5.5 0 0 1 -.25.433 15.446 15.446 0 0 0 -7.724 14.338 15.619 15.619 0 0 0 14.789 14.574 15.5 15.5 0 0 0 16.185-15.485 15.546 15.546 0 0 0 -7.75-13.427.5.5 0 0 1 -.25-.433v-30.14a7.508 7.508 0 0 0 -7.5-7.5z" fill="#323c6b"/></g></svg>