<?xml version="1.0"?>
<svg xmlns="http://www.w3.org/2000/svg" viewBox="0 0 74 74" width="512" height="512"><g id="color_styel" data-name="color styel"><path d="M15.44,53.83a.5.5,0,0,1-.491-.413A25.472,25.472,0,0,1,14.564,49a22.659,22.659,0,0,1,.886-5.662.5.5,0,0,1,.967.258,21.7,21.7,0,0,0-.853,5.4,24.529,24.529,0,0,0,.369,4.246.5.5,0,0,1-.405.579A.486.486,0,0,1,15.44,53.83Z" fill="#323c6b"/><path d="M16.217,57a.5.5,0,0,1-.477-.349q-.161-.51-.3-1.029a.5.5,0,1,1,.965-.262q.135.5.29.989a.5.5,0,0,1-.326.627A.488.488,0,0,1,16.217,57Z" fill="#323c6b"/><path d="M58.042,28.954a.5.5,0,0,1-.449-.281l-.395-.8a.5.5,0,0,1,.9-.444l.4.806a.5.5,0,0,1-.449.719Z" fill="#323c6b"/><path d="M56.521,25.921a.5.5,0,0,1-.445-.272c-1.322-2.579-2.807-5.333-4.411-8.185a.5.5,0,1,1,.871-.49c1.611,2.863,3.1,5.628,4.431,8.219a.5.5,0,0,1-.445.728Z" fill="#323c6b"/><path d="M61.935,49a21.935,21.935,0,0,1-43.871,0C18.065,36.877,40,2.932,40,2.932S61.935,36.877,61.935,49Z" fill="#69b0ee"/><path d="M40,71.432A22.461,22.461,0,0,1,17.564,49c0-12.127,21.116-44.945,22.016-46.336a.519.519,0,0,1,.84,0C41.319,4.052,62.436,36.869,62.436,49A22.461,22.461,0,0,1,40,71.432ZM40,3.861C36.965,8.643,18.564,38.083,18.564,49a21.436,21.436,0,1,0,42.871,0C61.436,38.083,43.035,8.643,40,3.861Z" fill="#323c6b"/><path d="M40,2.932s-.562.87-1.5,2.371C43.443,13.212,58.936,38.81,58.936,49A21.926,21.926,0,0,1,38.5,70.875c.5.034,1,.057,1.5.057A21.929,21.929,0,0,0,61.936,49C61.936,36.877,40,2.932,40,2.932Z" fill="#419be9"/><path d="M40.988,64.419A15.837,15.837,0,0,1,29.378,59.3a17.971,17.971,0,0,1-4.827-12.35.5.5,0,0,1,.5-.5h0a.5.5,0,0,1,.5.5A16.974,16.974,0,0,0,30.107,58.61a14.849,14.849,0,0,0,10.882,4.809h.024a.5.5,0,1,1-.025,1Z" fill="#419be9"/><path d="M40,71.432A22.461,22.461,0,0,1,17.564,49c0-12.127,21.116-44.945,22.016-46.336a.519.519,0,0,1,.84,0C41.319,4.052,62.436,36.869,62.436,49A22.461,22.461,0,0,1,40,71.432ZM40,3.861C36.965,8.643,18.564,38.083,18.564,49a21.436,21.436,0,1,0,42.871,0C61.436,38.083,43.035,8.643,40,3.861Z" fill="#323c6b"/></g></svg>
