<svg height="512" viewBox="0 0 74 74" width="512" xmlns="http://www.w3.org/2000/svg"><g id="color_styel" data-name="color styel"><g fill="#323c6b"><path d="m62.722 42.874a.5.5 0 0 1 -.448-.722q.255-.515.488-1.041a.5.5 0 0 1 .914.407q-.243.545-.506 1.077a.5.5 0 0 1 -.448.279z"/><path d="m64.225 39.411a.5.5 0 0 1 -.47-.671 28.48 28.48 0 0 0 1.715-9.76.5.5 0 0 1 1 0 29.476 29.476 0 0 1 -1.775 10.1.5.5 0 0 1 -.47.331z"/><path d="m9.111 37.349a.5.5 0 0 1 -.481-.365 29.613 29.613 0 0 1 -1.1-8 .5.5 0 0 1 1 0 28.6 28.6 0 0 0 1.063 7.734.5.5 0 0 1 -.347.617.493.493 0 0 1 -.135.014z"/><path d="m10.1 40.275a.5.5 0 0 1 -.465-.315l-.2-.526a.5.5 0 1 1 .934-.356l.2.513a.5.5 0 0 1 -.465.685z"/></g><path d="m62.97 28.98a25.97 25.97 0 1 1 -38.1-22.97c-.11.49-2.09 9.65 3.76 13.78a12.435 12.435 0 1 0 16.73 0c5.92-4.19 3.8-13.54 3.74-13.79a25.935 25.935 0 0 1 13.87 22.98z" fill="#eeefee"/><path d="m36.99 55.47a26.487 26.487 0 0 1 -12.354-49.9.5.5 0 0 1 .721.552c-.085.378-2.023 9.32 3.561 13.262a.5.5 0 0 1 .049.778 11.934 11.934 0 1 0 16.058 0 .5.5 0 0 1 .047-.778c5.7-4.034 3.564-13.172 3.542-13.264a.5.5 0 0 1 .719-.56 26.476 26.476 0 0 1 -12.343 49.91zm-12.79-48.515a25.5 25.5 0 0 0 6.459 46.721 25.794 25.794 0 0 0 12.672 0 25.489 25.489 0 0 0 6.448-46.73c.386 2.583.859 9.236-3.648 12.887a12.925 12.925 0 1 1 -18.271 0c-4.49-3.633-4.04-10.291-3.66-12.878z" fill="#323c6b"/><path d="m49.1 6a18.146 18.146 0 0 1 .315 2.092 25.957 25.957 0 0 1 -13.925 46.831c.5.028 1 .047 1.5.047a25.983 25.983 0 0 0 12.11-48.97z" fill="#dbd8dd"/><path d="m45.36 19.79h-.01a12.377 12.377 0 0 0 -16.72 0c-5.85-4.13-3.87-13.29-3.76-13.78v-.01a26 26 0 0 1 24.23-.01v.01c.06.25 2.18 9.6-3.74 13.79z" fill="#9a9eaf"/><path d="m28.63 20.29a.5.5 0 0 1 -.288-.091c-6.066-4.283-4.089-13.716-3.963-14.285a.515.515 0 0 1 .257-.355 26.5 26.5 0 0 1 24.7-.01.5.5 0 0 1 .263.377c.159.713 2.09 10-3.946 14.273a.5.5 0 0 1 -.289.092h-.014a.5.5 0 0 1 -.337-.131 11.878 11.878 0 0 0 -16.046 0 .5.5 0 0 1 -.337.13zm8.36-4.25a12.857 12.857 0 0 1 8.392 3.111c4.857-3.787 3.552-11.471 3.276-12.827a25.5 25.5 0 0 0 -23.345.008c-.276 1.407-1.521 9.068 3.287 12.815a12.857 12.857 0 0 1 8.39-3.107z" fill="#323c6b"/><path d="m49.1 6v-.01a25.842 25.842 0 0 0 -12.11-2.99c-.5 0-1 .018-1.5.046a25.805 25.805 0 0 1 10.61 2.944v.01c.055.228 1.8 8-2.365 12.549a12.518 12.518 0 0 1 1.615 1.241h.01c5.92-4.19 3.8-13.54 3.74-13.79z" fill="#828a9e"/><path d="m49.43 28.98a12.48 12.48 0 1 1 -4.08-9.19h.01a12.384 12.384 0 0 1 4.07 9.19z" fill="#dbd8dd"/><path d="m36.99 41.93a12.945 12.945 0 1 1 8.642-22.559.43.43 0 0 1 .064.049 12.938 12.938 0 0 1 -8.706 22.51zm0-24.89a11.961 11.961 0 1 0 8.087 3.168.4.4 0 0 1 -.064-.049 11.869 11.869 0 0 0 -8.023-3.119z" fill="#323c6b"/><path d="m45.36 19.79h-.01a12.344 12.344 0 0 0 -8.36-3.25c-.337 0-.669.021-1 .048a12.344 12.344 0 0 1 7.36 3.2h.01a12.43 12.43 0 0 1 -7.369 21.589c.331.027.662.051 1 .051a12.438 12.438 0 0 0 8.37-21.64z" fill="#bbbbcd"/><path d="m36.991 34.308a5.323 5.323 0 1 1 5.323-5.323 5.32 5.32 0 0 1 -5.323 5.323z" fill="#b6d2dd"/><path d="m36.991 34.808a5.823 5.823 0 1 1 5.822-5.823 5.821 5.821 0 0 1 -5.822 5.823zm0-10.646a4.823 4.823 0 1 0 4.822 4.823 4.82 4.82 0 0 0 -4.822-4.823z" fill="#323c6b"/><path d="m39 10a2 2 0 1 1 -2-2 2 2 0 0 1 2 2z" fill="#dbd8dd"/><path d="m24.87 6.5a.5.5 0 0 1 -.354-.854l.354.344v-.49a.507.507 0 0 1 .466.311.513.513 0 0 1 -.112.553l-.35-.35zm-.354-.844.35.349z" fill="#323c6b"/><path d="m48.6 6v-.01h1z" fill="#323c6b"/><path d="m19.907 61.612a.5.5 0 0 1 -.237-.94q.217-.117.441-.224a.5.5 0 1 1 .432.9c-.134.064-.268.132-.4.2a.5.5 0 0 1 -.236.064z" fill="#323c6b"/><path d="m15 69.82a.5.5 0 0 1 -.5-.5 9.851 9.851 0 0 1 3.159-7.21.5.5 0 0 1 .68.734 8.845 8.845 0 0 0 -2.839 6.476.5.5 0 0 1 -.5.5z" fill="#323c6b"/><path d="m56 69.32v1.68h-38v-1.68a6.321 6.321 0 0 1 6.32-6.32h25.36a6.321 6.321 0 0 1 6.32 6.32z" fill="#9a9eaf"/><path d="m56 71.5h-38a.5.5 0 0 1 -.5-.5v-1.68a6.828 6.828 0 0 1 6.82-6.82h25.36a6.828 6.828 0 0 1 6.82 6.82v1.68a.5.5 0 0 1 -.5.5zm-37.5-1h37v-1.18a5.827 5.827 0 0 0 -5.82-5.82h-25.36a5.827 5.827 0 0 0 -5.82 5.82z" fill="#323c6b"/><path d="m49.68 63h-3a6.321 6.321 0 0 1 6.32 6.32v1.68h3v-1.68a6.321 6.321 0 0 0 -6.32-6.32z" fill="#828a9e"/><path d="m48.02 63h-22.06l4.57-8.84a26.165 26.165 0 0 0 12.92 0z" fill="#bbbbcd"/><path d="m48.02 63.5h-22.06a.5.5 0 0 1 -.444-.729l4.57-8.84a.5.5 0 0 1 .568-.255 25.794 25.794 0 0 0 12.672 0 .5.5 0 0 1 .568.255l4.569 8.84a.5.5 0 0 1 -.444.729zm-21.238-1h20.418l-4.011-7.76a26.806 26.806 0 0 1 -12.395 0z" fill="#323c6b"/><path d="m33.99 54.97c.5 0 1-.019 1.5-.047a25.907 25.907 0 0 1 -4.96-.763l-.276.533a26.119 26.119 0 0 0 3.736.277z" fill="#9a9eaf"/><path d="m43.45 54.16a25.866 25.866 0 0 1 -2.724.533l4.294 8.307h3z" fill="#9a9eaf"/><g fill="#323c6b"><path d="m36.99 55.47a26.487 26.487 0 0 1 -12.354-49.9.5.5 0 0 1 .721.552c-.085.378-2.023 9.32 3.561 13.262a.5.5 0 0 1 .049.778 11.934 11.934 0 1 0 16.058 0 .5.5 0 0 1 .047-.778c5.7-4.034 3.564-13.172 3.542-13.264a.5.5 0 0 1 .719-.56 26.476 26.476 0 0 1 -12.343 49.91zm-12.79-48.515a25.5 25.5 0 0 0 6.459 46.721 25.794 25.794 0 0 0 12.672 0 25.489 25.489 0 0 0 6.448-46.73c.386 2.583.859 9.236-3.648 12.887a12.925 12.925 0 1 1 -18.271 0c-4.49-3.633-4.04-10.291-3.66-12.878z"/><path d="m48.02 63.5h-22.06a.5.5 0 0 1 -.444-.729l4.57-8.84a.5.5 0 0 1 .568-.255 25.794 25.794 0 0 0 12.672 0 .5.5 0 0 1 .568.255l4.569 8.84a.5.5 0 0 1 -.444.729zm-21.238-1h20.418l-4.011-7.76a26.806 26.806 0 0 1 -12.395 0z"/><path d="m56 71.5h-38a.5.5 0 0 1 -.5-.5v-1.68a6.828 6.828 0 0 1 6.82-6.82h25.36a6.828 6.828 0 0 1 6.82 6.82v1.68a.5.5 0 0 1 -.5.5zm-37.5-1h37v-1.18a5.827 5.827 0 0 0 -5.82-5.82h-25.36a5.827 5.827 0 0 0 -5.82 5.82z"/><path d="m36.99 41.93a12.945 12.945 0 1 1 8.642-22.559.43.43 0 0 1 .064.049 12.938 12.938 0 0 1 -8.706 22.51zm0-24.89a11.961 11.961 0 1 0 8.087 3.168.4.4 0 0 1 -.064-.049 11.869 11.869 0 0 0 -8.023-3.119z"/><path d="m28.63 20.29a.5.5 0 0 1 -.288-.091c-6.066-4.283-4.089-13.716-3.963-14.285a.515.515 0 0 1 .257-.355 26.5 26.5 0 0 1 24.7-.01.5.5 0 0 1 .263.377c.159.713 2.09 10-3.946 14.273a.5.5 0 0 1 -.289.092h-.014a.5.5 0 0 1 -.337-.131 11.878 11.878 0 0 0 -16.046 0 .5.5 0 0 1 -.337.13zm8.36-4.25a12.857 12.857 0 0 1 8.392 3.111c4.857-3.787 3.552-11.471 3.276-12.827a25.5 25.5 0 0 0 -23.345.008c-.276 1.407-1.521 9.068 3.287 12.815a12.857 12.857 0 0 1 8.39-3.107z"/></g><path d="m19.3 35.676-.07.019a.92.92 0 0 0 -.605 1.152 4.246 4.246 0 0 0 .322.868.92.92 0 0 0 1.686-.735 2.916 2.916 0 0 1 -.251-.679.92.92 0 0 0 -1.082-.625z" fill="#dbd8dd"/><path d="m21.258 39.459a.921.921 0 0 0 -.643 1.371 13.657 13.657 0 0 0 9.562 6.314.92.92 0 0 0 .669-1.714 11.937 11.937 0 0 1 -8.646-5.53.921.921 0 0 0 -.942-.441z" fill="#dbd8dd"/></g></svg>