<svg height="512" viewBox="0 0 74 74" width="512" xmlns="http://www.w3.org/2000/svg"><g id="Numbers"><text fill="#f00" font-family="ArialMT, Arial" font-size="18" transform="translate(30.995 -1134.544)">1<tspan letter-spacing="-.074em" x="-4.337" y="124">1</tspan><tspan x="4.337" y="124">1</tspan><tspan x="-5.005" y="248">21</tspan><tspan x="-5.005" y="372">31</tspan><tspan x="-5.005" y="496">41</tspan><tspan x="-5.005" y="620">51</tspan><tspan x="-5.005" y="744">61</tspan><tspan x="-5.005" y="868">71</tspan><tspan x="-5.005" y="992">81</tspan><tspan x="-5.005" y="1116">91</tspan><tspan x="-10.011" y="1240">101</tspan><tspan letter-spacing="-.074em" x="-8.675" y="1364">11</tspan><tspan x="8.675" y="1364">1</tspan><tspan x="-10.011" y="1488">121</tspan><tspan x="-10.011" y="1612">131</tspan><tspan x="-10.011" y="1736">141</tspan><tspan x="-10.011" y="1860">151</tspan><tspan x="-10.011" y="1984">161</tspan><tspan x="-10.011" y="2108">171</tspan><tspan x="-10.011" y="2232">181</tspan><tspan x="-10.011" y="2356">191</tspan><tspan x="-10.011" y="2480">201</tspan><tspan x="-9.343" y="2604">2</tspan><tspan letter-spacing="-.074em" x=".668" y="2604">1</tspan><tspan x="9.343" y="2604">1</tspan><tspan x="-10.011" y="2728">221</tspan><tspan x="-10.011" y="2852">231</tspan><tspan x="-10.011" y="2976">241</tspan><tspan x="-10.011" y="3100">251</tspan><tspan x="-10.011" y="3224">261</tspan><tspan x="-10.011" y="3348">271</tspan><tspan x="-10.011" y="3472">281</tspan><tspan x="-10.011" y="3596">291</tspan></text></g><g id="color_styel" data-name="color styel"><path d="m53 17v54h-50v-68h36v14z" fill="#eeefee"/><path d="m53 71.5h-50a.5.5 0 0 1 -.5-.5v-68a.5.5 0 0 1 .5-.5h36a.5.5 0 0 1 .5.5v13.5h13.5a.5.5 0 0 1 .5.5v54a.5.5 0 0 1 -.5.5zm-49.5-1h49v-53h-13.5a.5.5 0 0 1 -.5-.5v-13.5h-35z" fill="#323c6b"/><path d="m51 17h2v54h-2z" fill="#dbd8dd"/><path d="m53 17h-14v-14z" fill="#dbd8dd"/><path d="m53 17.5h-14a.5.5 0 0 1 -.5-.5v-14a.5.5 0 0 1 .854-.354l14 14a.5.5 0 0 1 -.354.854zm-13.5-1h12.293l-12.293-12.293z" fill="#323c6b"/><path d="m39 3v3l11 11h3z" fill="#bbbbcd"/><path d="m10 10h13v13h-13z" fill="#b6d2dd"/><path d="m23 23.5h-13a.5.5 0 0 1 -.5-.5v-13a.5.5 0 0 1 .5-.5h13a.5.5 0 0 1 .5.5v13a.5.5 0 0 1 -.5.5zm-12.5-1h12v-12h-12z" fill="#323c6b"/><g fill="#bbbbcd"><path d="m9 32.5h38v1h-38z"/><path d="m9 42.5h38v1h-38z"/><path d="m9 52.5h38v1h-38z"/><path d="m9 62.5h38v1h-38z"/></g><path d="m53 71.5h-50a.5.5 0 0 1 -.5-.5v-68a.5.5 0 0 1 .5-.5h36a.5.5 0 0 1 .5.5v13.5h13.5a.5.5 0 0 1 .5.5v54a.5.5 0 0 1 -.5.5zm-49.5-1h49v-53h-13.5a.5.5 0 0 1 -.5-.5v-13.5h-35z" fill="#323c6b"/><path d="m53 17.5h-14a.5.5 0 0 1 -.5-.5v-14a.5.5 0 0 1 .854-.354l14 14a.5.5 0 0 1 -.354.854zm-13.5-1h12.293l-12.293-12.293z" fill="#323c6b"/><path d="m71 19.34v3.66h-9v-3.66a4.187 4.187 0 0 1 1.32-3.04 4.577 4.577 0 0 1 3.18-1.26 4.4 4.4 0 0 1 4.5 4.3z" fill="#9a9eaf"/><path d="m71 23.5h-9a.5.5 0 0 1 -.5-.5v-3.66a4.661 4.661 0 0 1 1.475-3.4 5.048 5.048 0 0 1 3.525-1.4 4.909 4.909 0 0 1 5 4.8v3.66a.5.5 0 0 1 -.5.5zm-8.5-1h8v-3.16a3.908 3.908 0 0 0 -4-3.8 4.055 4.055 0 0 0 -2.833 1.121 3.672 3.672 0 0 0 -1.167 2.679z" fill="#323c6b"/><path d="m66.5 15.04a4.682 4.682 0 0 0 -1 .115 4.345 4.345 0 0 1 3.5 4.185v3.66h2v-3.66a4.4 4.4 0 0 0 -4.5-4.3z" fill="#828a9e"/><path d="m62 23h9v4h-9z" fill="#eeefee"/><path d="m71 27.5h-9a.5.5 0 0 1 -.5-.5v-4a.5.5 0 0 1 .5-.5h9a.5.5 0 0 1 .5.5v4a.5.5 0 0 1 -.5.5zm-8.5-1h8v-3h-8z" fill="#323c6b"/><path d="m69 23h2v4h-2z" fill="#dbd8dd"/><path d="m62 27h9v35h-9z" fill="#9a9eaf"/><path d="m71 62.5h-9a.5.5 0 0 1 -.5-.5v-35a.5.5 0 0 1 .5-.5h9a.5.5 0 0 1 .5.5v35a.5.5 0 0 1 -.5.5zm-8.5-1h8v-34h-8z" fill="#323c6b"/><path d="m69 27h2v35h-2z" fill="#828a9e"/><path d="m71 62-4.5 9-4.5-9z" fill="#f4bb87"/><path d="m66.5 71.5a.5.5 0 0 1 -.447-.276l-4.5-9a.5.5 0 0 1 .447-.724h9a.5.5 0 0 1 .447.724l-4.5 9a.5.5 0 0 1 -.447.276zm-3.691-9 3.691 7.382 3.691-7.382z" fill="#323c6b"/><path d="m69 62-3.5 7 1 2 4.5-9z" fill="#e6b17d"/><g fill="#323c6b"><path d="m71 62.5h-9a.5.5 0 0 1 -.5-.5v-35a.5.5 0 0 1 .5-.5h9a.5.5 0 0 1 .5.5v35a.5.5 0 0 1 -.5.5zm-8.5-1h8v-34h-8z"/><path d="m71 27.5h-9a.5.5 0 0 1 -.5-.5v-4a.5.5 0 0 1 .5-.5h9a.5.5 0 0 1 .5.5v4a.5.5 0 0 1 -.5.5zm-8.5-1h8v-3h-8z"/><path d="m71 23.5h-9a.5.5 0 0 1 -.5-.5v-3.66a4.661 4.661 0 0 1 1.475-3.4 5.048 5.048 0 0 1 3.525-1.4 4.909 4.909 0 0 1 5 4.8v3.66a.5.5 0 0 1 -.5.5zm-8.5-1h8v-3.16a3.908 3.908 0 0 0 -4-3.8 4.055 4.055 0 0 0 -2.833 1.121 3.672 3.672 0 0 0 -1.167 2.679z"/><path d="m66.5 71.5a.5.5 0 0 1 -.447-.276l-4.5-9a.5.5 0 0 1 .447-.724h9a.5.5 0 0 1 .447.724l-4.5 9a.5.5 0 0 1 -.447.276zm-3.691-9 3.691 7.382 3.691-7.382z"/><path d="m58.5 35.84h-1v-12.84a.5.5 0 0 1 .5-.5h4v1h-3.5z"/></g><rect fill="#dbd8dd" height="1.264" rx=".632" width="9.321" x="26.971" y="5.393"/><rect fill="#dbd8dd" height="1.264" rx=".632" width="1.602" x="23.919" y="5.393"/></g></svg>