<?xml version="1.0"?>
<svg xmlns="http://www.w3.org/2000/svg" viewBox="0 0 74 74" width="512" height="512"><g id="Numbers"><text transform="translate(31.995 -1134.544)" font-size="18" fill="red" font-family="ArialMT, Arial">3<tspan x="-5.005" y="124">13</tspan><tspan x="-5.005" y="248">23</tspan><tspan x="-5.005" y="372">33</tspan><tspan x="-5.005" y="496">43</tspan><tspan x="-5.005" y="620">53</tspan><tspan x="-5.005" y="744">63</tspan><tspan x="-5.005" y="868">73</tspan><tspan x="-5.005" y="992">83</tspan><tspan x="-5.005" y="1116">93</tspan><tspan x="-10.011" y="1240">103</tspan><tspan x="-9.343" y="1364" letter-spacing="-0.074em">1</tspan><tspan x="-0.668" y="1364">13</tspan><tspan x="-10.011" y="1488">123</tspan><tspan x="-10.011" y="1612">133</tspan><tspan x="-10.011" y="1736">143</tspan><tspan x="-10.011" y="1860">153</tspan><tspan x="-10.011" y="1984">163</tspan><tspan x="-10.011" y="2108">173</tspan><tspan x="-10.011" y="2232">183</tspan><tspan x="-10.011" y="2356">193</tspan><tspan x="-10.011" y="2480">203</tspan><tspan x="-10.011" y="2604">213</tspan><tspan x="-10.011" y="2728">223</tspan><tspan x="-10.011" y="2852">233</tspan><tspan x="-10.011" y="2976">243</tspan><tspan x="-10.011" y="3100">253</tspan><tspan x="-10.011" y="3224">263</tspan><tspan x="-10.011" y="3348">273</tspan><tspan x="-10.011" y="3472">283</tspan><tspan x="-10.011" y="3596">293</tspan></text></g><g id="color_styel" data-name="color styel"><path d="M8.4,62.494a.5.5,0,0,1-.376-.171,38.522,38.522,0,0,1-6.343-10,.5.5,0,0,1,.917-.4,37.525,37.525,0,0,0,6.179,9.746.5.5,0,0,1-.376.829Z" fill="#323c6b"/><path d="M12.333,66.542a.5.5,0,0,1-.339-.133q-.787-.728-1.534-1.5a.5.5,0,0,1,.718-.7q.727.751,1.495,1.46a.5.5,0,0,1-.339.867Z" fill="#323c6b"/><path d="M69.182,17.31a.5.5,0,0,1-.424-.233c-.514-.817-1.07-1.628-1.651-2.41a.5.5,0,0,1,.8-.6c.6.8,1.167,1.635,1.695,2.473a.5.5,0,0,1-.423.767Z" fill="#323c6b"/><path d="M64.953,11.784a.5.5,0,0,1-.368-.161A37.718,37.718,0,0,0,55.831,4.58a.5.5,0,0,1,.5-.864,38.737,38.737,0,0,1,8.985,7.229.5.5,0,0,1-.368.839Z" fill="#323c6b"/><path d="M71,37A34,34,0,1,1,37,3,33.992,33.992,0,0,1,71,37Z" fill="#dbd8dd"/><path d="M37,71.5A34.5,34.5,0,1,1,71.5,37,34.539,34.539,0,0,1,37,71.5Zm0-68A33.5,33.5,0,1,0,70.5,37,33.538,33.538,0,0,0,37,3.5Z" fill="#323c6b"/><path d="M37,3c-.5,0-1,.016-1.5.038a33.995,33.995,0,0,1,0,67.924c.5.022,1,.038,1.5.038A34,34,0,0,0,37,3Z" fill="#bbbbcd"/><path d="M17.093,21.133l-.781-.624A26.357,26.357,0,0,1,37,10.533v1A25.362,25.362,0,0,0,17.093,21.133Z" fill="#eeefee"/><path d="M11.533,37h-1A26.273,26.273,0,0,1,12.4,27.234l.929.37A25.283,25.283,0,0,0,11.533,37Z" fill="#eeefee"/><circle cx="37" cy="37" r="11.318" fill="#bbbbcd"/><path d="M37,48.818A11.818,11.818,0,1,1,48.818,37,11.831,11.831,0,0,1,37,48.818Zm0-22.636A10.818,10.818,0,1,0,47.818,37,10.83,10.83,0,0,0,37,26.182Z" fill="#323c6b"/><circle cx="37" cy="37" r="5.955" fill="#eeefee"/><path d="M37,43.455A6.455,6.455,0,1,1,43.455,37,6.462,6.462,0,0,1,37,43.455Zm0-11.91A5.455,5.455,0,1,0,42.455,37,5.461,5.461,0,0,0,37,31.545Z" fill="#323c6b"/><path d="M37,71.5A34.5,34.5,0,1,1,71.5,37,34.539,34.539,0,0,1,37,71.5Zm0-68A33.5,33.5,0,1,0,70.5,37,33.538,33.538,0,0,0,37,3.5Z" fill="#323c6b"/><path d="M17.816,53.3c-.025.025-.05.051-.074.078a1.557,1.557,0,0,0,.067,2.058,6.6,6.6,0,0,0,1.026.971,1.238,1.238,0,0,0,1.859-.239,1.562,1.562,0,0,0-.271-2.044,4.535,4.535,0,0,1-.8-.761A1.248,1.248,0,0,0,17.816,53.3Z" fill="#eeefee"/><path d="M22.98,57.125a1.356,1.356,0,0,0-.309.39,1.559,1.559,0,0,0,.486,2,26.734,26.734,0,0,0,16.916,4.3,1.391,1.391,0,0,0,1.118-1.616,1.4,1.4,0,0,0-1.507-1.275,24.62,24.62,0,0,1-15.2-3.89A1.23,1.23,0,0,0,22.98,57.125Z" fill="#eeefee"/></g></svg>
