<?xml version="1.0"?>
<svg xmlns="http://www.w3.org/2000/svg" viewBox="0 0 74 74" width="512" height="512"><g id="Numbers"><text transform="translate(31.995 -1134.544)" font-size="18" fill="red" font-family="ArialMT, Arial">5<tspan x="-5.005" y="124">15</tspan><tspan x="-5.005" y="248">25</tspan><tspan x="-5.005" y="372">35</tspan><tspan x="-5.005" y="496">45</tspan><tspan x="-5.005" y="620">55</tspan><tspan x="-5.005" y="744">65</tspan><tspan x="-5.005" y="868">75</tspan><tspan x="-5.005" y="992">85</tspan><tspan x="-5.005" y="1116">95</tspan><tspan x="-10.011" y="1240">105</tspan><tspan x="-9.343" y="1364" letter-spacing="-0.074em">1</tspan><tspan x="-0.668" y="1364">15</tspan><tspan x="-10.011" y="1488">125</tspan><tspan x="-10.011" y="1612">135</tspan><tspan x="-10.011" y="1736">145</tspan><tspan x="-10.011" y="1860">155</tspan><tspan x="-10.011" y="1984">165</tspan><tspan x="-10.011" y="2108">175</tspan><tspan x="-10.011" y="2232">185</tspan><tspan x="-10.011" y="2356">195</tspan><tspan x="-10.011" y="2480">205</tspan><tspan x="-10.011" y="2604">215</tspan><tspan x="-10.011" y="2728">225</tspan><tspan x="-10.011" y="2852">235</tspan><tspan x="-10.011" y="2976">245</tspan><tspan x="-10.011" y="3100">255</tspan><tspan x="-10.011" y="3224">265</tspan><tspan x="-10.011" y="3348">275</tspan><tspan x="-10.011" y="3472">285</tspan><tspan x="-10.011" y="3596">295</tspan></text></g><g id="color_styel" data-name="color styel"><path d="M71,34.16A10.879,10.879,0,0,1,60.12,45.04H42V32H32V45.04H13.88a10.88,10.88,0,1,1,0-21.76,11.67,11.67,0,0,1,2.14.2,11.912,11.912,0,0,1-.78-4.28,12.235,12.235,0,0,1,23.99-3.4,9.518,9.518,0,0,1,16.81,6.12,8.881,8.881,0,0,1-.29,2.27,10.99,10.99,0,0,1,4.37-.91A10.878,10.878,0,0,1,71,34.16Z" fill="#b6d2dd"/><path d="M60.12,45.54H42a.5.5,0,0,1-.5-.5V32.5h-9V45.04a.5.5,0,0,1-.5.5H13.88a11.38,11.38,0,0,1,0-22.76,11.962,11.962,0,0,1,1.4.082A12.51,12.51,0,0,1,14.74,19.2a12.737,12.737,0,0,1,24.7-4.372,10.02,10.02,0,0,1,17.1,7.092,9.565,9.565,0,0,1-.113,1.473A11.381,11.381,0,1,1,60.12,45.54Zm-17.62-1H60.12a10.38,10.38,0,1,0-4.171-19.891.5.5,0,0,1-.682-.586,8.4,8.4,0,0,0,.273-2.143,9.018,9.018,0,0,0-15.927-5.8.5.5,0,0,1-.864-.184A11.735,11.735,0,0,0,15.74,19.2a11.4,11.4,0,0,0,.747,4.1.5.5,0,0,1-.558.671,11.1,11.1,0,0,0-2.049-.191,10.38,10.38,0,0,0,0,20.76H31.5V32a.5.5,0,0,1,.5-.5H42a.5.5,0,0,1,.5.5Z" fill="#323c6b"/><path d="M27.48,8.96A12.217,12.217,0,0,1,39.23,17.8a9.516,9.516,0,0,1,16.75,5.072,9.057,9.057,0,0,0,.06-.952A9.518,9.518,0,0,0,39.23,15.8a12.235,12.235,0,0,0-23.99,3.4c0,.357.018.71.047,1.059A12.233,12.233,0,0,1,27.48,8.96Z" fill="#acc6cc"/><path d="M55.75,26.19a10.99,10.99,0,0,1,4.37-.91,10.876,10.876,0,0,1,10.83,9.88c.03-.33.05-.662.05-1A10.866,10.866,0,0,0,56.029,24.085,8.874,8.874,0,0,1,55.75,26.19Z" fill="#acc6cc"/><path d="M13.88,25.28a11.67,11.67,0,0,1,2.14.2,11.669,11.669,0,0,1-.583-2.082,11.479,11.479,0,0,0-1.557-.118A10.878,10.878,0,0,0,3,34.16c0,.338.02.67.05,1A10.876,10.876,0,0,1,13.88,25.28Z" fill="#acc6cc"/><polygon points="47.8 53 37 66.87 26.2 53 32 53 32 32 42 32 42 53 47.8 53" fill="#b1dcc1"/><path d="M37,67.37a.5.5,0,0,1-.395-.193l-10.8-13.87A.5.5,0,0,1,26.2,52.5h5.3V32a.5.5,0,0,1,.5-.5H42a.5.5,0,0,1,.5.5V52.5h5.3a.5.5,0,0,1,.395.807l-10.8,13.87A.5.5,0,0,1,37,67.37ZM27.223,53.5,37,66.056,46.777,53.5H42a.5.5,0,0,1-.5-.5V32.5h-9V53a.5.5,0,0,1-.5.5Z" fill="#323c6b"/><rect x="40" y="32" width="2" height="21" fill="#9dceb2"/><polygon points="45.8 53 36 65.586 37 66.87 47.8 53 45.8 53" fill="#9dceb2"/><path d="M60.12,45.54H42a.5.5,0,0,1-.5-.5V32.5h-9V45.04a.5.5,0,0,1-.5.5H13.88a11.38,11.38,0,0,1,0-22.76,11.962,11.962,0,0,1,1.4.082A12.51,12.51,0,0,1,14.74,19.2a12.737,12.737,0,0,1,24.7-4.372,10.02,10.02,0,0,1,17.1,7.092,9.565,9.565,0,0,1-.113,1.473A11.381,11.381,0,1,1,60.12,45.54Zm-17.62-1H60.12a10.38,10.38,0,1,0-4.171-19.891.5.5,0,0,1-.682-.586,8.4,8.4,0,0,0,.273-2.143,9.018,9.018,0,0,0-15.927-5.8.5.5,0,0,1-.864-.184A11.735,11.735,0,0,0,15.74,19.2a11.4,11.4,0,0,0,.747,4.1.5.5,0,0,1-.558.671,11.1,11.1,0,0,0-2.049-.191,10.38,10.38,0,0,0,0,20.76H31.5V32a.5.5,0,0,1,.5-.5H42a.5.5,0,0,1,.5.5Z" fill="#323c6b"/><path d="M37,67.37a.5.5,0,0,1-.395-.193l-10.8-13.87A.5.5,0,0,1,26.2,52.5h5.3V32a.5.5,0,0,1,.5-.5H42a.5.5,0,0,1,.5.5V52.5h5.3a.5.5,0,0,1,.395.807l-10.8,13.87A.5.5,0,0,1,37,67.37ZM27.223,53.5,37,66.056,46.777,53.5H42a.5.5,0,0,1-.5-.5V32.5h-9V53a.5.5,0,0,1-.5.5Z" fill="#323c6b"/></g></svg>
