<svg height="512" viewBox="0 0 74 74" width="512" xmlns="http://www.w3.org/2000/svg"><g id="Numbers"><text fill="#f00" font-family="ArialMT, Arial" font-size="18" transform="translate(31.995 -1134.544)">6<tspan x="-5.005" y="124">16</tspan><tspan x="-5.005" y="248">26</tspan><tspan x="-5.005" y="372">36</tspan><tspan x="-5.005" y="496">46</tspan><tspan x="-5.005" y="620">56</tspan><tspan x="-5.005" y="744">66</tspan><tspan x="-5.005" y="868">76</tspan><tspan x="-5.005" y="992">86</tspan><tspan x="-5.005" y="1116">96</tspan><tspan x="-10.011" y="1240">106</tspan><tspan letter-spacing="-.074em" x="-9.343" y="1364">1</tspan><tspan x="-.668" y="1364">16</tspan><tspan x="-10.011" y="1488">126</tspan><tspan x="-10.011" y="1612">136</tspan><tspan x="-10.011" y="1736">146</tspan><tspan x="-10.011" y="1860">156</tspan><tspan x="-10.011" y="1984">166</tspan><tspan x="-10.011" y="2108">176</tspan><tspan x="-10.011" y="2232">186</tspan><tspan x="-10.011" y="2356">196</tspan><tspan x="-10.011" y="2480">206</tspan><tspan x="-10.011" y="2604">216</tspan><tspan x="-10.011" y="2728">226</tspan><tspan x="-10.011" y="2852">236</tspan><tspan x="-10.011" y="2976">246</tspan><tspan x="-10.011" y="3100">256</tspan><tspan x="-10.011" y="3224">266</tspan><tspan x="-10.011" y="3348">276</tspan><tspan x="-10.011" y="3472">286</tspan><tspan x="-10.011" y="3596">296</tspan></text></g><g id="color_styel" data-name="color styel"><path d="m71 37.9a33.925 33.925 0 0 1 -4.75 17.28 8.887 8.887 0 0 0 -2.54-5.36 29.47 29.47 0 0 0 2.58-11.92 29.107 29.107 0 0 0 -6.81-18.75c-.02-.03-.08-.11-.13-.18h.08a3.557 3.557 0 0 0 2.58-1.09 3.607 3.607 0 0 0 .96-1.89 33.973 33.973 0 0 1 8.03 21.91z" fill="#eeefee"/><path d="m66.25 55.68a.512.512 0 0 1 -.108-.012.5.5 0 0 1 -.39-.44 8.323 8.323 0 0 0 -2.4-5.058.5.5 0 0 1 -.1-.554 28.572 28.572 0 0 0 -4.152-30.145l-.1-.126a.579.579 0 0 1 -.071-.561.5.5 0 0 1 .417-.313 3.092 3.092 0 0 0 3.132-2.571.5.5 0 0 1 .874-.237 34.364 34.364 0 0 1 3.329 39.768.5.5 0 0 1 -.431.249zm-1.95-5.962a9.553 9.553 0 0 1 2.2 4.009 33.352 33.352 0 0 0 -3.322-36.7 4.1 4.1 0 0 1 -.8 1.2 4.011 4.011 0 0 1 -2.06 1.15 29.558 29.558 0 0 1 3.99 30.34z" fill="#323c6b"/><path d="m62.97 15.99a3.6 3.6 0 0 1 -.73 1.612 33.756 33.756 0 0 1 3.355 35.041 8.585 8.585 0 0 1 .655 2.537 33.863 33.863 0 0 0 -3.28-39.19z" fill="#dbd8dd"/><g fill="#323c6b"><path d="m62.612 16.339-.067-.079.725-.688.078.092z"/><path d="m1.343 28.526a.51.51 0 0 1 -.134-.018.5.5 0 0 1 -.348-.615 37.8 37.8 0 0 1 3.188-7.91.5.5 0 1 1 .879.477 36.886 36.886 0 0 0 -3.1 7.7.5.5 0 0 1 -.485.366z"/><path d="m.342 33.4a.536.536 0 0 1 -.068 0 .5.5 0 0 1 -.428-.563q.122-.9.288-1.786a.5.5 0 1 1 .982.184q-.161.865-.28 1.737a.5.5 0 0 1 -.494.428z"/></g><path d="m7.71 37.9a30.223 30.223 0 0 0 2.55 11.96 8.854 8.854 0 0 0 -2.51 5.33 33.985 33.985 0 0 1 3.29-39.28 3.55 3.55 0 0 0 3.72 2.94 29.256 29.256 0 0 0 -7.05 19.05z" fill="#eeefee"/><g fill="#323c6b"><path d="m7.75 55.69a.5.5 0 0 1 -.431-.247 34.483 34.483 0 0 1 3.339-39.855.5.5 0 0 1 .874.233 3.052 3.052 0 0 0 3.2 2.53.5.5 0 0 1 .412.824 28.791 28.791 0 0 0 -6.934 18.725 29.59 29.59 0 0 0 2.508 11.759.5.5 0 0 1 -.1.549 8.381 8.381 0 0 0 -2.37 5.028.5.5 0 0 1 -.39.441.482.482 0 0 1 -.108.013zm3.085-38.74a33.466 33.466 0 0 0 -3.335 36.777 9.53 9.53 0 0 1 2.169-3.97 30.574 30.574 0 0 1 -2.459-11.857 29.8 29.8 0 0 1 6.541-18.617 4.023 4.023 0 0 1 -2.312-1.371 3.8 3.8 0 0 1 -.604-.962z"/><path d="m11.402 16.255-.724-.69.392.315z"/><path d="m7.382 55.554.418-.274-.423.267-.103-.204.952-.306z"/></g><path d="m62.97 15.99a3.607 3.607 0 0 1 -.96 1.89 3.557 3.557 0 0 1 -2.58 1.09h-.1a3.43 3.43 0 0 1 -2.29-.93 29.673 29.673 0 0 0 -40.07-.11 3.6 3.6 0 0 1 -5.15-.34 3.51 3.51 0 0 1 -.78-1.68 3.691 3.691 0 0 1 1.13-3.34 36.838 36.838 0 0 1 49.68.13 3.618 3.618 0 0 1 1.12 3.29z" fill="#9a9eaf"/><path d="m59.43 19.47h-.111a3.91 3.91 0 0 1 -2.619-1.07 29.174 29.174 0 0 0 -39.392-.1 4.08 4.08 0 0 1 -2.521 1.05 4.053 4.053 0 0 1 -4.239-3.35 4.2 4.2 0 0 1 1.284-3.8 37.337 37.337 0 0 1 50.355.13 4.113 4.113 0 0 1 1.275 3.743 4.1 4.1 0 0 1 -1.092 2.151 4.037 4.037 0 0 1 -2.94 1.246zm-22.49-9.77a30.177 30.177 0 0 1 20.438 7.971 2.929 2.929 0 0 0 1.964.8 3.088 3.088 0 0 0 3.135-2.564 3.115 3.115 0 0 0 -.965-2.837 36.337 36.337 0 0 0 -49.006-.128 3.191 3.191 0 0 0 -.974 2.883 3.053 3.053 0 0 0 3.2 2.528 3.081 3.081 0 0 0 1.907-.792 30.09 30.09 0 0 1 20.301-7.861z" fill="#323c6b"/><path d="m33.94 10.2a29.584 29.584 0 0 0 -19.97 7.73 3.566 3.566 0 0 1 -.912.591 3.523 3.523 0 0 0 1.7.329 3.569 3.569 0 0 0 2.21-.92 29.581 29.581 0 0 1 18.471-7.691c-.495-.025-.996-.039-1.499-.039z" fill="#828a9e"/><path d="m61.85 12.7a36.769 36.769 0 0 0 -24.91-9.7c-.5 0-1 .016-1.5.036a36.77 36.77 0 0 1 23.41 9.664 3.619 3.619 0 0 1 .16 5.18 3.489 3.489 0 0 1 -1.077.752 3.484 3.484 0 0 0 1.4.338h.1a3.557 3.557 0 0 0 2.58-1.09 3.619 3.619 0 0 0 -.16-5.18z" fill="#828a9e"/><path d="m64.154 50.054-.42-.204h-.534l.056-.234.42.204h.534z" fill="#323c6b"/><path d="m58.933 19.246c-.039-.06-.078-.119-.1-.151l.725-.688a1.819 1.819 0 0 1 .213.289z" fill="#323c6b"/><path d="m9.84 50.146-.045-.103.914-.402z" fill="#323c6b"/><path d="m57.02 46.96v.04l-.02 20.85v.15a3 3 0 0 1 -3 3h-2a3 3 0 0 1 -3-3v-21a3 3 0 0 1 3-3h2.02a3 3 0 0 1 3 2.96z" fill="#9a9eaf"/><path d="m54 71.5h-2a3.5 3.5 0 0 1 -3.5-3.5v-21a3.5 3.5 0 0 1 3.5-3.5h2.02a3.51 3.51 0 0 1 3.5 3.454v.006l-.02 21.04a3.5 3.5 0 0 1 -3.5 3.5zm-2-27a2.5 2.5 0 0 0 -2.5 2.5v21a2.5 2.5 0 0 0 2.5 2.5h2a2.5 2.5 0 0 0 2.5-2.5l.02-21 .5-.04-.5.006a2.507 2.507 0 0 0 -2.5-2.466z" fill="#323c6b"/><path d="m62.806 69.863a.5.5 0 0 1 -.238-.94 12.154 12.154 0 0 0 4.311-3.923.5.5 0 0 1 .832.556 13.165 13.165 0 0 1 -4.667 4.244.5.5 0 0 1 -.238.063z" fill="#323c6b"/><path d="m68.349 64a.5.5 0 0 1 -.479-.646q.1-.316.174-.638a.5.5 0 1 1 .973.232q-.083.352-.189.7a.5.5 0 0 1 -.479.352z" fill="#323c6b"/><path d="m66.29 55.99v2.82a9.293 9.293 0 0 1 -9.29 9.04l.02-20.85v-.04a9.467 9.467 0 0 1 6.69 2.86 8.887 8.887 0 0 1 2.54 5.36 7.2 7.2 0 0 1 .04.81z" fill="#dbd8dd"/><path d="m57 68.35a.5.5 0 0 1 -.5-.5l.02-20.85a.545.545 0 0 1 .147-.374.522.522 0 0 1 .354-.166 9.982 9.982 0 0 1 7.046 3.011 9.444 9.444 0 0 1 2.681 5.661 7.641 7.641 0 0 1 .042.858v2.82a9.811 9.811 0 0 1 -9.79 9.54zm.52-20.874-.02 19.858a8.79 8.79 0 0 0 8.29-8.524v-2.82a6.578 6.578 0 0 0 -.037-.752 8.329 8.329 0 0 0 -2.4-5.068 9 9 0 0 0 -5.833-2.693z" fill="#323c6b"/><path d="m66.25 55.18a8.887 8.887 0 0 0 -2.54-5.36 9.467 9.467 0 0 0 -6.69-2.86v.525a9.572 9.572 0 0 1 3.69 2.335 8.887 8.887 0 0 1 2.54 5.36 7.2 7.2 0 0 1 .04.81v2.82a9.179 9.179 0 0 1 -6.29 8.52v.52a9.293 9.293 0 0 0 9.29-9.04v-2.82a7.2 7.2 0 0 0 -.04-.81z" fill="#bbbbcd"/><path d="m57 68.35a.5.5 0 0 1 -.5-.5l.02-20.85a.545.545 0 0 1 .147-.374.522.522 0 0 1 .354-.166 9.982 9.982 0 0 1 7.046 3.011 9.444 9.444 0 0 1 2.681 5.661 7.641 7.641 0 0 1 .042.858v2.82a9.811 9.811 0 0 1 -9.79 9.54zm.52-20.874-.02 19.858a8.79 8.79 0 0 0 8.29-8.524v-2.82a6.578 6.578 0 0 0 -.037-.752 8.329 8.329 0 0 0 -2.4-5.068 9 9 0 0 0 -5.833-2.693z" fill="#323c6b"/><path d="m54 71.5h-2a3.5 3.5 0 0 1 -3.5-3.5v-21a3.5 3.5 0 0 1 3.5-3.5h2.02a3.51 3.51 0 0 1 3.5 3.454v.006l-.02 21.04a3.5 3.5 0 0 1 -3.5 3.5zm-2-27a2.5 2.5 0 0 0 -2.5 2.5v21a2.5 2.5 0 0 0 2.5 2.5h2a2.5 2.5 0 0 0 2.5-2.5l.02-21 .5-.04-.5.006a2.507 2.507 0 0 0 -2.5-2.466z" fill="#323c6b"/><path d="m25 47v21a3 3 0 0 1 -3 3h-2a3 3 0 0 1 -3-3v-21.04a2.994 2.994 0 0 1 3-2.96h2a3 3 0 0 1 3 3z" fill="#9a9eaf"/><path d="m22 71.5h-2a3.5 3.5 0 0 1 -3.5-3.5v-21.04a3.512 3.512 0 0 1 3.5-3.46h2a3.5 3.5 0 0 1 3.5 3.5v21a3.5 3.5 0 0 1 -3.5 3.5zm-2-27a2.507 2.507 0 0 0 -2.5 2.466v21.034a2.5 2.5 0 0 0 2.5 2.5h2a2.5 2.5 0 0 0 2.5-2.5v-21a2.5 2.5 0 0 0 -2.5-2.5z" fill="#323c6b"/><path d="m17 46.96v20.89a9.307 9.307 0 0 1 -9.29-9.04v-2.82a7.02 7.02 0 0 1 .04-.8 8.854 8.854 0 0 1 2.51-5.33 9.479 9.479 0 0 1 6.74-2.9z" fill="#dbd8dd"/><path d="m17 68.35a9.825 9.825 0 0 1 -9.79-9.54v-2.82a7.522 7.522 0 0 1 .043-.858 9.384 9.384 0 0 1 2.647-5.621 9.995 9.995 0 0 1 7.1-3.051.807.807 0 0 1 .354.146.5.5 0 0 1 .147.354v20.89a.5.5 0 0 1 -.5.5zm-.5-20.874a9.013 9.013 0 0 0 -5.881 2.731 8.382 8.382 0 0 0 -2.371 5.029 6.524 6.524 0 0 0 -.038.754v2.82a8.8 8.8 0 0 0 8.29 8.523z" fill="#323c6b"/><path d="m66.25 55.68a.512.512 0 0 1 -.108-.012.5.5 0 0 1 -.39-.44 8.323 8.323 0 0 0 -2.4-5.058.5.5 0 0 1 -.1-.554 28.572 28.572 0 0 0 -4.152-30.145l-.1-.126a.579.579 0 0 1 -.071-.561.5.5 0 0 1 .417-.313 3.092 3.092 0 0 0 3.132-2.571.5.5 0 0 1 .874-.237 34.364 34.364 0 0 1 3.329 39.768.5.5 0 0 1 -.431.249zm-1.95-5.962a9.553 9.553 0 0 1 2.2 4.009 33.352 33.352 0 0 0 -3.322-36.7 4.1 4.1 0 0 1 -.8 1.2 4.011 4.011 0 0 1 -2.06 1.15 29.558 29.558 0 0 1 3.99 30.34z" fill="#323c6b"/><path d="m59.43 19.47h-.111a3.91 3.91 0 0 1 -2.619-1.07 29.174 29.174 0 0 0 -39.392-.1 4.08 4.08 0 0 1 -2.521 1.05 4.053 4.053 0 0 1 -4.239-3.35 4.2 4.2 0 0 1 1.284-3.8 37.337 37.337 0 0 1 50.355.13 4.113 4.113 0 0 1 1.275 3.743 4.1 4.1 0 0 1 -1.092 2.151 4.037 4.037 0 0 1 -2.94 1.246zm-22.49-9.77a30.177 30.177 0 0 1 20.438 7.971 2.929 2.929 0 0 0 1.964.8 3.088 3.088 0 0 0 3.135-2.564 3.115 3.115 0 0 0 -.965-2.837 36.337 36.337 0 0 0 -49.006-.128 3.191 3.191 0 0 0 -.974 2.883 3.053 3.053 0 0 0 3.2 2.528 3.081 3.081 0 0 0 1.907-.792 30.09 30.09 0 0 1 20.301-7.861z" fill="#323c6b"/><rect fill="#eeefee" height="6.814" rx=".53" width="1.06" x="22.049" y="49.686"/><rect fill="#eeefee" height="1.343" rx=".53" width="1.06" x="22.049" y="47.127"/></g></svg>