<svg height="512" viewBox="0 0 74 74" width="512" xmlns="http://www.w3.org/2000/svg"><g id="Numbers"><text fill="#f00" font-family="ArialMT, Arial" font-size="18" transform="translate(31.994 -1134.544)">7<tspan x="-5.005" y="124">17</tspan><tspan x="-5.005" y="248">27</tspan><tspan x="-5.005" y="372">37</tspan><tspan x="-5.005" y="496">47</tspan><tspan x="-5.005" y="620">57</tspan><tspan x="-5.005" y="744">67</tspan><tspan x="-5.005" y="868">77</tspan><tspan x="-5.005" y="992">87</tspan><tspan x="-5.005" y="1116">97</tspan><tspan x="-10.011" y="1240">107</tspan><tspan letter-spacing="-.074em" x="-9.343" y="1364">1</tspan><tspan x="-.668" y="1364">17</tspan><tspan x="-10.011" y="1488">127</tspan><tspan x="-10.011" y="1612">137</tspan><tspan x="-10.011" y="1736">147</tspan><tspan x="-10.011" y="1860">157</tspan><tspan x="-10.011" y="1984">167</tspan><tspan x="-10.011" y="2108">177</tspan><tspan x="-10.011" y="2232">187</tspan><tspan x="-10.011" y="2356">197</tspan><tspan x="-10.011" y="2480">207</tspan><tspan x="-10.011" y="2604">217</tspan><tspan x="-10.011" y="2728">227</tspan><tspan x="-10.011" y="2852">237</tspan><tspan x="-10.011" y="2976">247</tspan><tspan x="-10.011" y="3100">257</tspan><tspan x="-10.011" y="3224">267</tspan><tspan x="-10.011" y="3348">277</tspan><tspan x="-10.011" y="3472">287</tspan><tspan x="-10.011" y="3596">297</tspan></text></g><g id="color_styel" data-name="color styel"><path d="m55.25 74.5h-1.667a.5.5 0 0 1 0-1h1.667a.5.5 0 0 1 0 1z" fill="#323c6b"/><path d="m58.67 74.5a.5.5 0 0 1 0-1 6.838 6.838 0 0 0 6.83-6.83.5.5 0 0 1 1 0 7.839 7.839 0 0 1 -7.83 7.83z" fill="#323c6b"/><path d="m63 23v43.67a4.332 4.332 0 0 1 -4.33 4.33h-43.34a4.332 4.332 0 0 1 -4.33-4.33v-43.67z" fill="#fed19a"/><path d="m58.67 71.5h-43.34a4.836 4.836 0 0 1 -4.83-4.83v-43.67a.5.5 0 0 1 .5-.5h52a.5.5 0 0 1 .5.5v43.67a4.836 4.836 0 0 1 -4.83 4.83zm-47.17-48v43.17a3.834 3.834 0 0 0 3.83 3.83h43.34a3.834 3.834 0 0 0 3.83-3.83v-43.17z" fill="#323c6b"/><path d="m61 23v41.67a4.332 4.332 0 0 1 -4.33 4.33h-43.34a4.282 4.282 0 0 1 -1.882-.448 4.319 4.319 0 0 0 3.882 2.448h43.34a4.332 4.332 0 0 0 4.33-4.33v-43.67z" fill="#f4bb87"/><path d="m13 18h48v5h-48z" fill="#f4bb87"/><path d="m61 23.5h-48a.5.5 0 0 1 -.5-.5v-5a.5.5 0 0 1 .5-.5h48a.5.5 0 0 1 .5.5v5a.5.5 0 0 1 -.5.5zm-47.5-1h47v-4h-47z" fill="#323c6b"/><path d="m59 18h2v5h-2z" fill="#e6b17d"/><g fill="#323c6b"><path d="m58.67 71.5h-43.34a4.836 4.836 0 0 1 -4.83-4.83v-43.67a.5.5 0 0 1 .5-.5h52a.5.5 0 0 1 .5.5v43.67a4.836 4.836 0 0 1 -4.83 4.83zm-47.17-48v43.17a3.834 3.834 0 0 0 3.83 3.83h43.34a3.834 3.834 0 0 0 3.83-3.83v-43.17z"/><path d="m61 23.5h-48a.5.5 0 0 1 -.5-.5v-5a.5.5 0 0 1 .5-.5h48a.5.5 0 0 1 .5.5v5a.5.5 0 0 1 -.5.5zm-47.5-1h47v-4h-47z"/><path d="m53.743 12.731a.5.5 0 0 1 -.477-.348q-.1-.316-.214-.628a.5.5 0 0 1 .941-.34q.119.329.226.663a.5.5 0 0 1 -.477.652z"/><path d="m52.506 9.8a.5.5 0 0 1 -.44-.264 17.239 17.239 0 0 0 -3-4.042.5.5 0 0 1 .709-.706 18.241 18.241 0 0 1 3.174 4.276.5.5 0 0 1 -.44.736z"/><path d="m52.064 28.017h-1v-10.45a14.067 14.067 0 1 0 -28.134 0v10.45h-1v-10.45a15.067 15.067 0 1 1 30.134 0z"/></g><path d="m54.506 30.96a2.938 2.938 0 1 1 -2.943-2.943 2.937 2.937 0 0 1 2.943 2.943z" fill="#eeefee"/><path d="m51.563 34.394a3.438 3.438 0 1 1 3.442-3.434 3.438 3.438 0 0 1 -3.442 3.434zm0-5.877a2.438 2.438 0 1 0 2.442 2.443 2.441 2.441 0 0 0 -2.442-2.443z" fill="#323c6b"/><path d="m25.37 30.96a2.938 2.938 0 1 1 -2.943-2.943 2.937 2.937 0 0 1 2.943 2.943z" fill="#eeefee"/><path d="m22.428 34.394a3.438 3.438 0 1 1 3.442-3.434 3.438 3.438 0 0 1 -3.442 3.434zm0-5.877a2.438 2.438 0 1 0 2.442 2.443 2.441 2.441 0 0 0 -2.442-2.443z" fill="#323c6b"/><g fill="#eeefee"><rect height="12.661" rx=".858" width="1.717" x="14.322" y="49.976"/><rect height="2.177" rx=".858" width="1.717" x="14.322" y="45.83"/></g></g></svg>