<svg height="512" viewBox="0 0 74 74" width="512" xmlns="http://www.w3.org/2000/svg"><g id="Numbers"><text fill="#f00" font-family="ArialMT, Arial" font-size="18" transform="translate(31.995 -1134.544)">8<tspan x="-5.005" y="124">18</tspan><tspan x="-5.005" y="248">28</tspan><tspan x="-5.005" y="372">38</tspan><tspan x="-5.005" y="496">48</tspan><tspan x="-5.005" y="620">58</tspan><tspan x="-5.005" y="744">68</tspan><tspan x="-5.005" y="868">78</tspan><tspan x="-5.005" y="992">88</tspan><tspan x="-5.005" y="1116">98</tspan><tspan x="-10.011" y="1240">108</tspan><tspan letter-spacing="-.074em" x="-9.343" y="1364">1</tspan><tspan x="-.668" y="1364">18</tspan><tspan x="-10.011" y="1488">128</tspan><tspan x="-10.011" y="1612">138</tspan><tspan x="-10.011" y="1736">148</tspan><tspan x="-10.011" y="1860">158</tspan><tspan x="-10.011" y="1984">168</tspan><tspan x="-10.011" y="2108">178</tspan><tspan x="-10.011" y="2232">188</tspan><tspan x="-10.011" y="2356">198</tspan><tspan x="-10.011" y="2480">208</tspan><tspan x="-10.011" y="2604">218</tspan><tspan x="-10.011" y="2728">228</tspan><tspan x="-10.011" y="2852">238</tspan><tspan x="-10.011" y="2976">248</tspan><tspan x="-10.011" y="3100">258</tspan><tspan x="-10.011" y="3224">268</tspan><tspan x="-10.011" y="3348">278</tspan><tspan x="-10.011" y="3472">288</tspan><tspan x="-10.011" y="3596">298</tspan></text></g><g id="color_styel" data-name="color styel"><g fill="#323c6b"><path d="m12.688 52.579h-.044a14.326 14.326 0 0 1 -7.177-2.671.5.5 0 0 1 .586-.811 13.327 13.327 0 0 0 6.677 2.486.5.5 0 0 1 -.042 1z"/><path d="m16.625 52.63h-.937a.5.5 0 0 1 0-1h.938a.5.5 0 0 1 0 1z"/><path d="m56.893 19.5a.5.5 0 0 1 -.414-.219c-.188-.278-.387-.547-.6-.808a.5.5 0 0 1 .779-.627q.34.423.646.874a.5.5 0 0 1 -.414.781z"/><path d="m54.14 16.582a.5.5 0 0 1 -.3-.1 11.9 11.9 0 0 0 -7.32-2.492.5.5 0 0 1 0-1 12.893 12.893 0 0 1 7.925 2.695.5.5 0 0 1 -.3.9z"/></g><path d="m71 38.25a10.879 10.879 0 0 1 -10.88 10.88h-18.12v-7.18h5.8l-10.8-13.86-10.8 13.86h5.8v7.18h-18.12a10.88 10.88 0 0 1 0-21.76 11.659 11.659 0 0 1 2.14.2 11.912 11.912 0 0 1 -.78-4.28 12.235 12.235 0 0 1 23.99-3.4 9.518 9.518 0 0 1 16.81 6.12 8.881 8.881 0 0 1 -.29 2.27 10.892 10.892 0 0 1 15.25 9.97z" fill="#b6d2dd"/><path d="m60.12 49.63h-18.12a.5.5 0 0 1 -.5-.5v-7.18a.5.5 0 0 1 .5-.5h4.776l-9.776-12.55-9.776 12.55h4.776a.5.5 0 0 1 .5.5v7.18a.5.5 0 0 1 -.5.5h-18.12a11.38 11.38 0 0 1 0-22.76 11.941 11.941 0 0 1 1.4.082 12.51 12.51 0 0 1 -.538-3.662 12.737 12.737 0 0 1 24.7-4.372 10.02 10.02 0 0 1 17.1 7.092 9.556 9.556 0 0 1 -.113 1.473 11.381 11.381 0 1 1 3.691 22.147zm-17.62-1h17.62a10.38 10.38 0 1 0 -4.172-19.891.5.5 0 0 1 -.524-.08.5.5 0 0 1 -.157-.507 8.373 8.373 0 0 0 .273-2.142 9.018 9.018 0 0 0 -15.926-5.8.5.5 0 0 1 -.864-.184 11.736 11.736 0 0 0 -23.01 3.264 11.415 11.415 0 0 0 .746 4.1.5.5 0 0 1 -.559.67 11.008 11.008 0 0 0 -2.048-.192 10.38 10.38 0 0 0 0 20.76h17.621v-6.178h-5.3a.5.5 0 0 1 -.395-.807l10.8-13.86a.518.518 0 0 1 .789 0l10.8 13.86a.5.5 0 0 1 -.395.807h-5.299z" fill="#323c6b"/><g fill="#acc6cc"><path d="m27.48 13.05a12.217 12.217 0 0 1 11.75 8.84 9.516 9.516 0 0 1 16.75 5.072 9.057 9.057 0 0 0 .06-.952 9.518 9.518 0 0 0 -16.81-6.12 12.235 12.235 0 0 0 -23.99 3.4c0 .357.018.71.047 1.059a12.233 12.233 0 0 1 12.193-11.299z"/><path d="m55.75 30.28a10.988 10.988 0 0 1 4.37-.91 10.876 10.876 0 0 1 10.83 9.88c.03-.33.05-.662.05-1a10.866 10.866 0 0 0 -14.971-10.075 8.874 8.874 0 0 1 -.279 2.105z"/><path d="m13.88 29.37a11.659 11.659 0 0 1 2.14.2 11.674 11.674 0 0 1 -.583-2.082 11.479 11.479 0 0 0 -1.557-.118 10.879 10.879 0 0 0 -10.88 10.88c0 .338.02.67.05 1a10.876 10.876 0 0 1 10.83-9.88z"/></g><path d="m47.8 41.95h-5.8v21h-10v-21h-5.8l10.8-13.86z" fill="#b1dcc1"/><path d="m42 63.45h-10a.5.5 0 0 1 -.5-.5v-20.5h-5.3a.5.5 0 0 1 -.395-.807l10.8-13.86a.518.518 0 0 1 .789 0l10.8 13.86a.5.5 0 0 1 -.395.807h-5.299v20.5a.5.5 0 0 1 -.5.5zm-9.5-1h9v-20.5a.5.5 0 0 1 .5-.5h4.776l-9.776-12.55-9.776 12.55h4.776a.5.5 0 0 1 .5.5z" fill="#323c6b"/><path d="m37 28.09-1 1.283 9.8 12.577h2z" fill="#9dceb2"/><path d="m40 41.95h2v21h-2z" fill="#9dceb2"/><path d="m60.12 49.63h-18.12a.5.5 0 0 1 -.5-.5v-7.18a.5.5 0 0 1 .5-.5h4.776l-9.776-12.55-9.776 12.55h4.776a.5.5 0 0 1 .5.5v7.18a.5.5 0 0 1 -.5.5h-18.12a11.38 11.38 0 0 1 0-22.76 11.941 11.941 0 0 1 1.4.082 12.51 12.51 0 0 1 -.538-3.662 12.737 12.737 0 0 1 24.7-4.372 10.02 10.02 0 0 1 17.1 7.092 9.556 9.556 0 0 1 -.113 1.473 11.381 11.381 0 1 1 3.691 22.147zm-17.62-1h17.62a10.38 10.38 0 1 0 -4.172-19.891.5.5 0 0 1 -.524-.08.5.5 0 0 1 -.157-.507 8.373 8.373 0 0 0 .273-2.142 9.018 9.018 0 0 0 -15.926-5.8.5.5 0 0 1 -.864-.184 11.736 11.736 0 0 0 -23.01 3.264 11.415 11.415 0 0 0 .746 4.1.5.5 0 0 1 -.559.67 11.008 11.008 0 0 0 -2.048-.192 10.38 10.38 0 0 0 0 20.76h17.621v-6.178h-5.3a.5.5 0 0 1 -.395-.807l10.8-13.86a.518.518 0 0 1 .789 0l10.8 13.86a.5.5 0 0 1 -.395.807h-5.299z" fill="#323c6b"/><path d="m42 63.45h-10a.5.5 0 0 1 -.5-.5v-20.5h-5.3a.5.5 0 0 1 -.395-.807l10.8-13.86a.518.518 0 0 1 .789 0l10.8 13.86a.5.5 0 0 1 -.395.807h-5.299v20.5a.5.5 0 0 1 -.5.5zm-9.5-1h9v-20.5a.5.5 0 0 1 .5-.5h4.776l-9.776-12.55-9.776 12.55h4.776a.5.5 0 0 1 .5.5z" fill="#323c6b"/></g></svg>