<svg height="512" viewBox="0 0 74 74" width="512" xmlns="http://www.w3.org/2000/svg"><g id="Numbers"><text fill="#f00" font-family="ArialMT, Arial" font-size="18" transform="translate(30.995 -18.544)">1<tspan letter-spacing="-.074em" x="-4.337" y="124">1</tspan><tspan x="4.337" y="124">1</tspan><tspan x="-5.005" y="248">21</tspan><tspan x="-5.005" y="372">31</tspan><tspan x="-5.005" y="496">41</tspan><tspan x="-5.005" y="620">51</tspan><tspan x="-5.005" y="744">61</tspan><tspan x="-5.005" y="868">71</tspan><tspan x="-5.005" y="992">81</tspan><tspan x="-5.005" y="1116">91</tspan><tspan x="-10.011" y="1240">101</tspan><tspan letter-spacing="-.074em" x="-8.675" y="1364">11</tspan><tspan x="8.675" y="1364">1</tspan><tspan x="-10.011" y="1488">121</tspan><tspan x="-10.011" y="1612">131</tspan><tspan x="-10.011" y="1736">141</tspan><tspan x="-10.011" y="1860">151</tspan><tspan x="-10.011" y="1984">161</tspan><tspan x="-10.011" y="2108">171</tspan><tspan x="-10.011" y="2232">181</tspan><tspan x="-10.011" y="2356">191</tspan><tspan x="-10.011" y="2480">201</tspan><tspan x="-9.343" y="2604">2</tspan><tspan letter-spacing="-.074em" x=".668" y="2604">1</tspan><tspan x="9.343" y="2604">1</tspan><tspan x="-10.011" y="2728">221</tspan><tspan x="-10.011" y="2852">231</tspan><tspan x="-10.011" y="2976">241</tspan><tspan x="-10.011" y="3100">251</tspan><tspan x="-10.011" y="3224">261</tspan><tspan x="-10.011" y="3348">271</tspan><tspan x="-10.011" y="3472">281</tspan><tspan x="-10.011" y="3596">291</tspan></text></g><g id="color_styel" data-name="color styel"><path d="m10.4 42.7a.5.5 0 0 1 -.5-.5v-12.378a.5.5 0 1 1 1 0v12.378a.5.5 0 0 1 -.5.5z" fill="#323c6b"/><path d="m10.4 47.343a.5.5 0 0 1 -.5-.5v-1.805a.5.5 0 0 1 1 0v1.805a.5.5 0 0 1 -.5.5z" fill="#323c6b"/><path d="m46.68 64.9h-32.186a1.008 1.008 0 0 1 -1-1v-48.975a1 1 0 0 1 1-1h8.284v2.486h22.7v-2.486h8.284a1 1 0 0 1 1 1v41.894" fill="#eeefee"/><path d="m46.68 65.4h-32.186a1.5 1.5 0 0 1 -1.5-1.5v-48.975a1.5 1.5 0 0 1 1.5-1.5h8.784v2.486h21.7v-2.486h8.784a1.5 1.5 0 0 1 1.5 1.5v41.894h-1v-41.894a.5.5 0 0 0 -.5-.5h-7.789v2.486h-23.7v-2.486h-7.779a.5.5 0 0 0 -.5.5v48.975a.508.508 0 0 0 .5.5h32.186z" fill="#323c6b"/><path d="m53.757 13.925h-2.063a1 1 0 0 1 1 1v41.894l-8.077 8.081h2.063l8.077-8.077v-41.898a1 1 0 0 0 -1-1z" fill="#dbd8dd"/><path d="m45.473 13.925v2.486h-22.7v-2.486a3.641 3.641 0 0 1 3.642-3.642h3.157v-2.734a4.549 4.549 0 1 1 9.1 0v2.734h3.157a3.641 3.641 0 0 1 3.644 3.642z" fill="#9a9eaf"/><path d="m45.473 16.911h-22.7a.5.5 0 0 1 -.5-.5v-2.486a4.146 4.146 0 0 1 4.142-4.142h2.657v-2.234a5.049 5.049 0 1 1 10.1 0v2.234h2.657a4.146 4.146 0 0 1 4.142 4.142v2.486a.5.5 0 0 1 -.498.5zm-22.2-1h21.7v-1.986a3.145 3.145 0 0 0 -3.142-3.142h-3.156a.5.5 0 0 1 -.5-.5v-2.734a4.049 4.049 0 1 0 -8.1 0v2.734a.5.5 0 0 1 -.5.5h-3.156a3.145 3.145 0 0 0 -3.142 3.142z" fill="#323c6b"/><path d="m41.831 10.283h-2.063a3.641 3.641 0 0 1 3.642 3.642v2.486h2.063v-2.486a3.641 3.641 0 0 0 -3.642-3.642z" fill="#828a9e"/><path d="m35.281 4.331a4.547 4.547 0 0 1 1.331 3.219v2.734h2.063v-2.735a4.513 4.513 0 0 0 -5.582-4.421 4.6 4.6 0 0 1 2.188 1.203z" fill="#828a9e"/><g fill="#323c6b"><path d="m45.473 16.911h-22.7a.5.5 0 0 1 -.5-.5v-2.486a4.146 4.146 0 0 1 4.142-4.142h2.657v-2.234a5.049 5.049 0 1 1 10.1 0v2.234h2.657a4.146 4.146 0 0 1 4.142 4.142v2.486a.5.5 0 0 1 -.498.5zm-22.2-1h21.7v-1.986a3.145 3.145 0 0 0 -3.142-3.142h-3.156a.5.5 0 0 1 -.5-.5v-2.734a4.049 4.049 0 1 0 -8.1 0v2.734a.5.5 0 0 1 -.5.5h-3.156a3.145 3.145 0 0 0 -3.142 3.142z"/><path d="m46.68 65.4h-32.186a1.5 1.5 0 0 1 -1.5-1.5v-48.975a1.5 1.5 0 0 1 1.5-1.5h8.784v2.486h21.7v-2.486h8.784a1.5 1.5 0 0 1 1.5 1.5v41.894h-1v-41.894a.5.5 0 0 0 -.5-.5h-7.789v2.486h-23.7v-2.486h-7.779a.5.5 0 0 0 -.5.5v48.975a.508.508 0 0 0 .5.5h32.186z"/><path d="m63.6 64.106a.5.5 0 0 1 -.5-.5q0-.433-.04-.856a.5.5 0 0 1 .452-.544.507.507 0 0 1 .544.452q.043.469.044.949a.5.5 0 0 1 -.5.499z"/><path d="m63.132 61.136a.5.5 0 0 1 -.476-.345 9.027 9.027 0 0 0 -4.747-5.371.5.5 0 1 1 .423-.906 10.034 10.034 0 0 1 5.275 5.967.5.5 0 0 1 -.476.655z"/></g><path d="m60.861 63.865a7.133 7.133 0 0 1 -14.223.793 6.554 6.554 0 0 1 -.048-.793 7.136 7.136 0 0 1 7.135-7.135 6.544 6.544 0 0 1 .793.048 7.13 7.13 0 0 1 6.343 7.087z" fill="#fed19a"/><path d="m53.726 71.5a7.612 7.612 0 0 1 -7.585-6.788 7.064 7.064 0 0 1 -.05-.847 7.644 7.644 0 0 1 7.635-7.635 7.125 7.125 0 0 1 .853.051 7.634 7.634 0 0 1 -.853 15.22zm0-14.271a6.643 6.643 0 0 0 -6.635 6.635 5.967 5.967 0 0 0 .044.733 6.633 6.633 0 1 0 7.33-7.324 6.028 6.028 0 0 0 -.739-.044z" fill="#323c6b"/><path d="m58.219 58.329a7.127 7.127 0 0 1 -10.028 10.029 7.13 7.13 0 1 0 10.028-10.029z" fill="#f4bb87"/><g fill="#323c6b"><path d="m52.193 67.312-2.768-2.768.707-.707 2.061 2.061 5.126-5.127.707.707z"/><path d="m53.726 71.5a7.612 7.612 0 0 1 -7.585-6.788 7.064 7.064 0 0 1 -.05-.847 7.644 7.644 0 0 1 7.635-7.635 7.125 7.125 0 0 1 .853.051 7.634 7.634 0 0 1 -.853 15.22zm0-14.271a6.643 6.643 0 0 0 -6.635 6.635 5.967 5.967 0 0 0 .044.733 6.633 6.633 0 1 0 7.33-7.324 6.028 6.028 0 0 0 -.739-.044z"/><path d="m18.651 22.101h17.537v1h-17.537z"/><path d="m18.651 29.322h30.948v1h-30.948z"/><path d="m18.651 36.543h30.948v1h-30.948z"/><path d="m18.651 43.764h30.948v1h-30.948z"/><path d="m18.651 50.985h24.758v1h-24.758z"/><path d="m18.651 58.207h19.601v1h-19.601z"/></g><path d="m34.575 4.846a.356.356 0 0 1 -.35.318 2.446 2.446 0 0 0 -2.369 1.914.368.368 0 0 1 -.394.284.368.368 0 0 1 -.325-.448 3.227 3.227 0 0 1 3.081-2.464.357.357 0 0 1 .357.396z" fill="#eeefee"/></g></svg>