<svg height="512" viewBox="0 0 74 74" width="512" xmlns="http://www.w3.org/2000/svg"><g id="Numbers"><text fill="#f00" font-family="ArialMT, Arial" font-size="18" transform="translate(30.995 -1258.544)">1<tspan letter-spacing="-.074em" x="-4.337" y="124">1</tspan><tspan x="4.337" y="124">1</tspan><tspan x="-5.005" y="248">21</tspan><tspan x="-5.005" y="372">31</tspan><tspan x="-5.005" y="496">41</tspan><tspan x="-5.005" y="620">51</tspan><tspan x="-5.005" y="744">61</tspan><tspan x="-5.005" y="868">71</tspan><tspan x="-5.005" y="992">81</tspan><tspan x="-5.005" y="1116">91</tspan><tspan x="-10.011" y="1240">101</tspan><tspan letter-spacing="-.074em" x="-8.675" y="1364">11</tspan><tspan x="8.675" y="1364">1</tspan><tspan x="-10.011" y="1488">121</tspan><tspan x="-10.011" y="1612">131</tspan><tspan x="-10.011" y="1736">141</tspan><tspan x="-10.011" y="1860">151</tspan><tspan x="-10.011" y="1984">161</tspan><tspan x="-10.011" y="2108">171</tspan><tspan x="-10.011" y="2232">181</tspan><tspan x="-10.011" y="2356">191</tspan><tspan x="-10.011" y="2480">201</tspan><tspan x="-9.343" y="2604">2</tspan><tspan letter-spacing="-.074em" x=".668" y="2604">1</tspan><tspan x="9.343" y="2604">1</tspan><tspan x="-10.011" y="2728">221</tspan><tspan x="-10.011" y="2852">231</tspan><tspan x="-10.011" y="2976">241</tspan><tspan x="-10.011" y="3100">251</tspan><tspan x="-10.011" y="3224">261</tspan><tspan x="-10.011" y="3348">271</tspan><tspan x="-10.011" y="3472">281</tspan><tspan x="-10.011" y="3596">291</tspan></text></g><g id="color_styel" data-name="color styel"><path d="m26.375 67.5h-9.375a.5.5 0 0 1 0-1h9.375a.5.5 0 0 1 0 1z" fill="#323c6b"/><path d="m29.833 67.5h-1a.5.5 0 1 1 0-1h1a.5.5 0 0 1 0 1z" fill="#323c6b"/><path d="m71 30.12-9.09 33.88h-58.91l8.78-33.88z" fill="#fed19a"/><path d="m61.91 64.5h-58.91a.5.5 0 0 1 -.484-.625l8.78-33.88a.5.5 0 0 1 .484-.375h59.22a.5.5 0 0 1 .483.629l-9.09 33.88a.5.5 0 0 1 -.483.371zm-58.264-1h57.881l8.821-32.88h-58.181z" fill="#323c6b"/><path d="m68 30.12-9.09 33.88h3l9.09-33.88z" fill="#f4bb87"/><path d="m65.22 27.688a.5.5 0 0 1 -.5-.5v-1.125a.5.5 0 0 1 1 0v1.125a.5.5 0 0 1 -.5.5z" fill="#323c6b"/><path d="m65.22 23.625a.5.5 0 0 1 -.5-.5v-4.515a.5.5 0 0 1 1 0v4.515a.5.5 0 0 1 -.5.5z" fill="#323c6b"/><path d="m62.22 17.61v12.51h-50.44l-8.78 33.88v-54h16.06l6.02 7.61z" fill="#f4bb87"/><path d="m3 64.5a.554.554 0 0 1 -.063 0 .5.5 0 0 1 -.437-.5v-54a.5.5 0 0 1 .5-.5h16.06a.5.5 0 0 1 .392.19l5.87 7.42h36.9a.5.5 0 0 1 .5.5v12.51a.5.5 0 0 1 -.5.5h-50.055l-8.683 33.505a.5.5 0 0 1 -.484.375zm.5-54v49.578l7.8-30.083a.5.5 0 0 1 .484-.375h49.936v-11.51h-36.64a.5.5 0 0 1 -.392-.19l-5.87-7.42z" fill="#323c6b"/><path d="m59.22 17.61h3v12.51h-3z" fill="#e6b17d"/><path d="m61.91 64.5h-58.91a.5.5 0 0 1 -.484-.625l8.78-33.88a.5.5 0 0 1 .484-.375h59.22a.5.5 0 0 1 .483.629l-9.09 33.88a.5.5 0 0 1 -.483.371zm-58.264-1h57.881l8.821-32.88h-58.181z" fill="#323c6b"/><path d="m3 64.5a.554.554 0 0 1 -.063 0 .5.5 0 0 1 -.437-.5v-54a.5.5 0 0 1 .5-.5h16.06a.5.5 0 0 1 .392.19l5.87 7.42h36.9a.5.5 0 0 1 .5.5v12.51a.5.5 0 0 1 -.5.5h-50.055l-8.683 33.505a.5.5 0 0 1 -.484.375zm.5-54v49.578l7.8-30.083a.5.5 0 0 1 .484-.375h49.936v-11.51h-36.64a.5.5 0 0 1 -.392-.19l-5.87-7.42z" fill="#323c6b"/><g fill="#eeefee"><path d="m16.075 12.539h-1.147a.574.574 0 0 0 0 1.147h1.147a.574.574 0 0 0 0-1.147z"/><path d="m12.383 12.539h-6.1a.8.8 0 0 0 -.8.8v3.931a.574.574 0 1 0 1.147 0v-3.584h5.748a.574.574 0 0 0 0-1.147z"/></g></g></svg>