<svg height="512" viewBox="0 0 74 74" width="512" xmlns="http://www.w3.org/2000/svg"><g id="Numbers"><text fill="#f00" font-family="ArialMT, Arial" font-size="18" transform="translate(31.995 -1258.544)">3<tspan x="-5.005" y="124">13</tspan><tspan x="-5.005" y="248">23</tspan><tspan x="-5.005" y="372">33</tspan><tspan x="-5.005" y="496">43</tspan><tspan x="-5.005" y="620">53</tspan><tspan x="-5.005" y="744">63</tspan><tspan x="-5.005" y="868">73</tspan><tspan x="-5.005" y="992">83</tspan><tspan x="-5.005" y="1116">93</tspan><tspan x="-10.011" y="1240">103</tspan><tspan letter-spacing="-.074em" x="-9.343" y="1364">1</tspan><tspan x="-.668" y="1364">13</tspan><tspan x="-10.011" y="1488">123</tspan><tspan x="-10.011" y="1612">133</tspan><tspan x="-10.011" y="1736">143</tspan><tspan x="-10.011" y="1860">153</tspan><tspan x="-10.011" y="1984">163</tspan><tspan x="-10.011" y="2108">173</tspan><tspan x="-10.011" y="2232">183</tspan><tspan x="-10.011" y="2356">193</tspan><tspan x="-10.011" y="2480">203</tspan><tspan x="-10.011" y="2604">213</tspan><tspan x="-10.011" y="2728">223</tspan><tspan x="-10.011" y="2852">233</tspan><tspan x="-10.011" y="2976">243</tspan><tspan x="-10.011" y="3100">253</tspan><tspan x="-10.011" y="3224">263</tspan><tspan x="-10.011" y="3348">273</tspan><tspan x="-10.011" y="3472">283</tspan><tspan x="-10.011" y="3596">293</tspan></text></g><g id="color_styel" data-name="color styel"><g fill="#323c6b"><path d="m47.437 19.532a.5.5 0 0 1 -.449-.279l-4.19-8.49a.5.5 0 0 1 .9-.442l4.19 8.49a.5.5 0 0 1 -.448.721z"/><path d="m41.945 8.4a.5.5 0 0 1 -.449-.278l-.5-1.02a.5.5 0 0 1 .9-.443l.5 1.02a.5.5 0 0 1 -.448.722z"/><path d="m59.092 58.38a.5.5 0 0 1 -.492-.416l-.191-1.113a.5.5 0 1 1 .985-.169l.191 1.113a.5.5 0 0 1 -.493.584z"/><path d="m58.338 53.985a.5.5 0 0 1 -.492-.416l-1.115-6.5a.5.5 0 0 1 .144-.442l4.1-3.995a.5.5 0 1 1 .7.716l-3.91 3.812 1.07 6.241a.5.5 0 0 1 -.493.584z"/></g><path d="m37 4.664 10.507 21.289 23.493 3.414-17 16.57 4.013 23.399-21.013-11.047-21.013 11.047 4.013-23.399-17-16.57 23.493-3.414z" fill="#69b0ee"/><path d="m58.013 69.836a.5.5 0 0 1 -.233-.058l-20.78-10.924-20.78 10.924a.5.5 0 0 1 -.726-.527l3.969-23.14-16.812-16.386a.5.5 0 0 1 .277-.853l23.234-3.372 10.39-21.057a.52.52 0 0 1 .9 0l10.386 21.057 23.233 3.376a.5.5 0 0 1 .277.853l-16.811 16.383 3.969 23.14a.5.5 0 0 1 -.493.584zm-21.013-12.047a.5.5 0 0 1 .233.058l20.116 10.575-3.842-22.4a.5.5 0 0 1 .144-.442l16.274-15.864-22.49-3.269a.5.5 0 0 1 -.376-.273l-10.059-20.38-10.058 20.38a.5.5 0 0 1 -.376.273l-22.491 3.269 16.274 15.864a.5.5 0 0 1 .144.442l-3.842 22.4 20.116-10.576a.5.5 0 0 1 .233-.057z" fill="#323c6b"/><path d="m71 29.366-23.493-3.413-10.507-21.289-2 4.053 8.507 17.236 23.493 3.413-17 16.572 3.617 21.087 4.396 2.311-4.013-23.398z" fill="#419be9"/><path d="m33 58.289-16.617 8.736-.396 2.311 19.013-9.996z" fill="#419be9"/><path d="m58.013 69.836a.5.5 0 0 1 -.233-.058l-20.78-10.924-20.78 10.924a.5.5 0 0 1 -.726-.527l3.969-23.14-16.812-16.386a.5.5 0 0 1 .277-.853l23.234-3.372 10.39-21.057a.52.52 0 0 1 .9 0l10.386 21.057 23.233 3.376a.5.5 0 0 1 .277.853l-16.811 16.383 3.969 23.14a.5.5 0 0 1 -.493.584zm-21.013-12.047a.5.5 0 0 1 .233.058l20.116 10.575-3.842-22.4a.5.5 0 0 1 .144-.442l16.274-15.864-22.49-3.269a.5.5 0 0 1 -.376-.273l-10.059-20.38-10.058 20.38a.5.5 0 0 1 -.376.273l-22.491 3.269 16.274 15.864a.5.5 0 0 1 .144.442l-3.842 22.4 20.116-10.576a.5.5 0 0 1 .233-.057z" fill="#323c6b"/><g fill="#eeefee"><rect height="10.923" rx=".741" transform="matrix(.707 -.707 .707 .707 -21.934 22.742)" width="1.481" x="15.744" y="32.386"/><rect height="1.878" rx=".741" transform="matrix(.707 -.707 .707 .707 -19.562 17.014)" width="1.481" x="10.016" y="31.182"/></g></g></svg>