<?xml version="1.0"?>
<svg xmlns="http://www.w3.org/2000/svg" viewBox="0 0 74 74" width="512" height="512"><g id="Numbers"><text transform="translate(31.995 -1258.544)" font-size="18" fill="red" font-family="ArialMT, Arial">8<tspan x="-5.005" y="124">18</tspan><tspan x="-5.005" y="248">28</tspan><tspan x="-5.005" y="372">38</tspan><tspan x="-5.005" y="496">48</tspan><tspan x="-5.005" y="620">58</tspan><tspan x="-5.005" y="744">68</tspan><tspan x="-5.005" y="868">78</tspan><tspan x="-5.005" y="992">88</tspan><tspan x="-5.005" y="1116">98</tspan><tspan x="-10.011" y="1240">108</tspan><tspan x="-9.343" y="1364" letter-spacing="-0.074em">1</tspan><tspan x="-0.668" y="1364">18</tspan><tspan x="-10.011" y="1488">128</tspan><tspan x="-10.011" y="1612">138</tspan><tspan x="-10.011" y="1736">148</tspan><tspan x="-10.011" y="1860">158</tspan><tspan x="-10.011" y="1984">168</tspan><tspan x="-10.011" y="2108">178</tspan><tspan x="-10.011" y="2232">188</tspan><tspan x="-10.011" y="2356">198</tspan><tspan x="-10.011" y="2480">208</tspan><tspan x="-10.011" y="2604">218</tspan><tspan x="-10.011" y="2728">228</tspan><tspan x="-10.011" y="2852">238</tspan><tspan x="-10.011" y="2976">248</tspan><tspan x="-10.011" y="3100">258</tspan><tspan x="-10.011" y="3224">268</tspan><tspan x="-10.011" y="3348">278</tspan><tspan x="-10.011" y="3472">288</tspan><tspan x="-10.011" y="3596">298</tspan></text></g><g id="color_styel" data-name="color styel"><path d="M35.417,62.718a.5.5,0,0,1-.354-.854l1.282-1.284a.5.5,0,1,1,.707.707l-1.282,1.284A.5.5,0,0,1,35.417,62.718Z" fill="#323c6b"/><path d="M38.885,58.753a.5.5,0,0,1-.418-.774,16.061,16.061,0,0,0,2.642-9.04.5.5,0,0,1,.494-.506.514.514,0,0,1,.506.494,17.057,17.057,0,0,1-2.806,9.6A.5.5,0,0,1,38.885,58.753Z" fill="#323c6b"/><path d="M34.58,58.81l-8.19,8.2A13.7,13.7,0,0,1,7.01,47.63l8.2-8.19a13.722,13.722,0,0,1,16.88-1.98l-4.72,4.72a7.344,7.344,0,0,0-7.69,1.73l-8.2,8.2A7.375,7.375,0,0,0,21.91,62.54l8.2-8.2a7.364,7.364,0,0,0,1.73-7.69l4.72-4.72A13.722,13.722,0,0,1,34.58,58.81Z" fill="#9a9eaf"/><path d="M16.7,71.514A14.193,14.193,0,0,1,6.656,47.277l8.2-8.191a14.161,14.161,0,0,1,17.5-2.052.5.5,0,0,1,.092.78l-4.72,4.72a.5.5,0,0,1-.521.117,6.812,6.812,0,0,0-7.169,1.613l-8.2,8.2a6.875,6.875,0,1,0,9.723,9.723l8.2-8.2A6.869,6.869,0,0,0,31.37,46.82a.5.5,0,0,1,.116-.524l4.72-4.72a.492.492,0,0,1,.412-.143.5.5,0,0,1,.367.235,14.159,14.159,0,0,1-2.052,17.5l-8.19,8.2A14.179,14.179,0,0,1,16.7,71.514Zm8.19-35.6a13.144,13.144,0,0,0-9.323,3.879l-8.2,8.191A13.2,13.2,0,1,0,26.036,66.656l8.19-8.2h0a13.154,13.154,0,0,0,2.228-15.713l-4.041,4.041a7.874,7.874,0,0,1-1.95,7.911l-8.2,8.2A7.875,7.875,0,0,1,11.127,51.756l8.2-8.2a7.8,7.8,0,0,1,7.909-1.949l4.042-4.042A13.214,13.214,0,0,0,24.887,35.914Z" fill="#323c6b"/><path d="M11.48,62.54a7.376,7.376,0,0,1,0-10.43l8.2-8.2A7.328,7.328,0,0,1,23.389,41.9,7.335,7.335,0,0,0,16.68,43.91l-8.2,8.2A7.373,7.373,0,0,0,15.2,64.542,7.365,7.365,0,0,1,11.48,62.54Z" fill="#828a9e"/><path d="M36.56,41.93l-1.993,1.993A13.707,13.707,0,0,1,31.58,58.81l-8.19,8.2A13.651,13.651,0,0,1,15.2,70.926,13.7,13.7,0,0,0,26.39,67.01l8.19-8.2A13.722,13.722,0,0,0,36.56,41.93Z" fill="#828a9e"/><path d="M48.919,2.764a.5.5,0,0,1-.251-.932A17.146,17.146,0,0,1,50.278,1a.5.5,0,0,1,.408.913A16.322,16.322,0,0,0,49.17,2.7.5.5,0,0,1,48.919,2.764Z" fill="#323c6b"/><path d="M37.311,13.6a.5.5,0,0,1-.354-.854l8.188-8.2a.5.5,0,0,1,.707.707l-8.187,8.2A.5.5,0,0,1,37.311,13.6Z" fill="#323c6b"/><path d="M67,26.4l-8.2,8.19a13.724,13.724,0,0,1-16.88,1.98l4.72-4.72a7.344,7.344,0,0,0,7.69-1.73l8.2-8.19A7.382,7.382,0,0,0,52.09,11.49l-8.19,8.2a7.318,7.318,0,0,0-2.16,5.22,7.2,7.2,0,0,0,.43,2.46v.01L37.45,32.1a13.709,13.709,0,0,1,1.98-16.88l8.19-8.2A13.7,13.7,0,0,1,67,26.4Z" fill="#9a9eaf"/><path d="M49.117,39.115A14.223,14.223,0,0,1,41.658,37a.5.5,0,0,1-.092-.78l4.72-4.72a.5.5,0,0,1,.521-.117,6.808,6.808,0,0,0,7.169-1.613l8.2-8.19a6.882,6.882,0,1,0-9.734-9.732l-8.188,8.2A6.836,6.836,0,0,0,42.24,24.91a6.71,6.71,0,0,0,.4,2.29.484.484,0,0,1,.03.17.523.523,0,0,1-.146.363l-4.72,4.72a.505.505,0,0,1-.412.143.5.5,0,0,1-.367-.234,14.144,14.144,0,0,1,2.052-17.5l8.19-8.2A14.2,14.2,0,1,1,67.354,26.753h0l-8.2,8.19A14.165,14.165,0,0,1,49.117,39.115Zm-6.385-2.65a13.167,13.167,0,0,0,15.714-2.229l8.2-8.19A13.2,13.2,0,1,0,47.974,7.374l-8.19,8.2a13.142,13.142,0,0,0-2.229,15.714L41.6,27.244a7.7,7.7,0,0,1-.358-2.333,7.83,7.83,0,0,1,2.307-5.574l8.189-8.2A7.882,7.882,0,0,1,62.885,22.282l-8.2,8.192a7.8,7.8,0,0,1-7.909,1.949Z" fill="#323c6b"/><path d="M42.17,27.37a7.2,7.2,0,0,1-.43-2.46,7.318,7.318,0,0,1,2.16-5.22l8.19-8.2a7.364,7.364,0,0,1,3.72-2,7.379,7.379,0,0,0-6.72,2l-8.19,8.2a7.318,7.318,0,0,0-2.16,5.22,7.2,7.2,0,0,0,.43,2.46v0a13.512,13.512,0,0,0,1.063,1.947L42.17,27.38Z" fill="#828a9e"/><path d="M47.621,32.125a7.394,7.394,0,0,1-.981-.276l-.414.414A7.335,7.335,0,0,0,47.621,32.125Z" fill="#828a9e"/><path d="M67,7.02A13.687,13.687,0,0,0,55.81,3.1,13.685,13.685,0,0,1,64,26.4l-8.2,8.19a13.627,13.627,0,0,1-8.142,3.921A13.658,13.658,0,0,0,58.8,34.59L67,26.4A13.725,13.725,0,0,0,67,7.02Z" fill="#828a9e"/><path d="M49.117,39.115A14.223,14.223,0,0,1,41.658,37a.5.5,0,0,1-.092-.78l4.72-4.72a.5.5,0,0,1,.521-.117,6.808,6.808,0,0,0,7.169-1.613l8.2-8.19a6.882,6.882,0,1,0-9.734-9.732l-8.188,8.2A6.836,6.836,0,0,0,42.24,24.91a6.71,6.71,0,0,0,.4,2.29.484.484,0,0,1,.03.17.523.523,0,0,1-.146.363l-4.72,4.72a.505.505,0,0,1-.412.143.5.5,0,0,1-.367-.234,14.144,14.144,0,0,1,2.052-17.5l8.19-8.2A14.2,14.2,0,1,1,67.354,26.753h0l-8.2,8.19A14.165,14.165,0,0,1,49.117,39.115Zm-6.385-2.65a13.167,13.167,0,0,0,15.714-2.229l8.2-8.19A13.2,13.2,0,1,0,47.974,7.374l-8.19,8.2a13.142,13.142,0,0,0-2.229,15.714L41.6,27.244a7.7,7.7,0,0,1-.358-2.333,7.83,7.83,0,0,1,2.307-5.574l8.189-8.2A7.882,7.882,0,0,1,62.885,22.282l-8.2,8.192a7.8,7.8,0,0,1-7.909,1.949Z" fill="#323c6b"/><path d="M16.7,71.514A14.193,14.193,0,0,1,6.656,47.277l8.2-8.191a14.161,14.161,0,0,1,17.5-2.052.5.5,0,0,1,.092.78l-4.72,4.72a.5.5,0,0,1-.521.117,6.812,6.812,0,0,0-7.169,1.613l-8.2,8.2a6.875,6.875,0,1,0,9.723,9.723l8.2-8.2A6.869,6.869,0,0,0,31.37,46.82a.5.5,0,0,1,.116-.524l4.72-4.72a.492.492,0,0,1,.412-.143.5.5,0,0,1,.367.235,14.159,14.159,0,0,1-2.052,17.5l-8.19,8.2A14.179,14.179,0,0,1,16.7,71.514Zm8.19-35.6a13.144,13.144,0,0,0-9.323,3.879l-8.2,8.191A13.2,13.2,0,1,0,26.036,66.656l8.19-8.2h0a13.154,13.154,0,0,0,2.228-15.713l-4.041,4.041a7.874,7.874,0,0,1-1.95,7.911l-8.2,8.2A7.875,7.875,0,0,1,11.127,51.756l8.2-8.2a7.8,7.8,0,0,1,7.909-1.949l4.042-4.042A13.214,13.214,0,0,0,24.887,35.914Z" fill="#323c6b"/><path d="M48.92,28.26a3.158,3.158,0,0,1-.93,2.24L30.48,48.01a3.161,3.161,0,0,1-4.47-4.47L42.17,27.38v-.01l1.35-1.35a3.165,3.165,0,0,1,5.4,2.24Z" fill="#eeefee"/><path d="M28.249,49.43a3.661,3.661,0,0,1-2.6-6.241L41.766,27.078a.406.406,0,0,1,.051-.061l1.35-1.35a3.664,3.664,0,1,1,5.178,5.187l-17.51,17.51A3.644,3.644,0,0,1,28.249,49.43ZM42.574,27.672a.406.406,0,0,1-.051.061l-16.16,16.16a2.661,2.661,0,1,0,3.764,3.763l17.51-17.51a2.664,2.664,0,1,0-3.765-3.771Z" fill="#323c6b"/><path d="M47.99,26.02a3.113,3.113,0,0,0-1.243-.751A3.092,3.092,0,0,1,45.99,28.5L28.48,46.01a3.15,3.15,0,0,1-3.218.752A3.127,3.127,0,0,0,30.48,48.01L47.99,30.5a3.163,3.163,0,0,0,0-4.48Z" fill="#dbd8dd"/><path d="M28.249,49.43a3.661,3.661,0,0,1-2.6-6.241L41.766,27.078a.406.406,0,0,1,.051-.061l1.35-1.35a3.664,3.664,0,1,1,5.178,5.187l-17.51,17.51A3.644,3.644,0,0,1,28.249,49.43ZM42.574,27.672a.406.406,0,0,1-.051.061l-16.16,16.16a2.661,2.661,0,1,0,3.764,3.763l17.51-17.51a2.664,2.664,0,1,0-3.765-3.771Z" fill="#323c6b"/></g></svg>
