<svg height="512" viewBox="0 0 74 74" width="512" xmlns="http://www.w3.org/2000/svg"><g id="Numbers"><text fill="#f00" font-family="ArialMT, Arial" font-size="18" transform="translate(31.995 -18.544)">2<tspan x="-5.005" y="124">12</tspan><tspan x="-5.005" y="248">22</tspan><tspan x="-5.005" y="372">32</tspan><tspan x="-5.005" y="496">42</tspan><tspan x="-5.005" y="620">52</tspan><tspan x="-5.005" y="744">62</tspan><tspan x="-5.005" y="868">72</tspan><tspan x="-5.005" y="992">82</tspan><tspan x="-5.005" y="1116">92</tspan><tspan x="-10.011" y="1240">102</tspan><tspan letter-spacing="-.074em" x="-9.343" y="1364">1</tspan><tspan x="-.668" y="1364">12</tspan><tspan x="-10.011" y="1488">122</tspan><tspan x="-10.011" y="1612">132</tspan><tspan x="-10.011" y="1736">142</tspan><tspan x="-10.011" y="1860">152</tspan><tspan x="-10.011" y="1984">162</tspan><tspan x="-10.011" y="2108">172</tspan><tspan x="-10.011" y="2232">182</tspan><tspan x="-10.011" y="2356">192</tspan><tspan x="-10.011" y="2480">202</tspan><tspan x="-10.011" y="2604">212</tspan><tspan x="-10.011" y="2728">222</tspan><tspan x="-10.011" y="2852">232</tspan><tspan x="-10.011" y="2976">242</tspan><tspan x="-10.011" y="3100">252</tspan><tspan x="-10.011" y="3224">262</tspan><tspan x="-10.011" y="3348">272</tspan><tspan x="-10.011" y="3472">282</tspan><tspan x="-10.011" y="3596">292</tspan></text></g><g id="color_styel" data-name="color styel"><g fill="#323c6b"><path d="m53.083 59.54h-9.666a.5.5 0 0 1 0-1h9.667a.5.5 0 0 1 0 1z"/><path d="m57.833 59.54h-1.416a.5.5 0 0 1 0-1h1.417a.5.5 0 0 1 0 1z"/><path d="m13.4 24.868a.5.5 0 0 1 -.462-.692q.217-.521.469-1.021a.5.5 0 1 1 .894.449q-.236.469-.438.956a.5.5 0 0 1 -.463.308z"/><path d="m6.814 33.717a.5.5 0 0 1 -.256-.93 14.208 14.208 0 0 1 5.2-1.851q-.018-.366-.017-.736a15.782 15.782 0 0 1 .357-3.342.5.5 0 0 1 .978.212 14.755 14.755 0 0 0 -.334 3.13q0 .57.043 1.133a.5.5 0 0 1 -.441.535 13.228 13.228 0 0 0 -5.273 1.779.5.5 0 0 1 -.257.07z"/></g><path d="m60.12 56.04a10.88 10.88 0 1 0 -4.366-20.849 8.883 8.883 0 0 0 .286-2.271 9.518 9.518 0 0 0 -16.81-6.12 12.236 12.236 0 0 0 -23.99 3.4 12.093 12.093 0 0 0 .775 4.284 11.04 11.04 0 0 0 -2.135-.2 10.88 10.88 0 0 0 0 21.76z" fill="#b6d2dd"/><path d="m60.12 56.54h-46.24a11.38 11.38 0 0 1 0-22.76 11.713 11.713 0 0 1 1.4.082 12.744 12.744 0 0 1 12.2-16.4 12.77 12.77 0 0 1 11.961 8.369 10.02 10.02 0 0 1 17.1 7.091 9.714 9.714 0 0 1 -.11 1.471 11.382 11.382 0 1 1 3.689 22.147zm-46.24-21.76a10.38 10.38 0 0 0 0 20.76h46.24a10.38 10.38 0 1 0 -4.165-19.891.5.5 0 0 1 -.684-.585 8.4 8.4 0 0 0 .269-2.144 9.018 9.018 0 0 0 -15.926-5.8.5.5 0 0 1 -.864-.184 11.735 11.735 0 0 0 -23.01 3.264 11.591 11.591 0 0 0 .743 4.107.5.5 0 0 1 -.564.667 10.469 10.469 0 0 0 -2.039-.194z" fill="#323c6b"/><path d="m24.48 19.96a12.226 12.226 0 0 1 11.75 8.84 9.493 9.493 0 0 1 2.9-2.314 12.206 12.206 0 0 0 -19.85-5.354 12.168 12.168 0 0 1 5.2-1.172z" fill="#acc6cc"/><path d="m60.12 34.28a10.86 10.86 0 0 0 -4.366.911 8.885 8.885 0 0 0 .286-2.271 9.513 9.513 0 0 0 -16.209-6.764 9.5 9.5 0 0 1 13.209 8.764 8.885 8.885 0 0 1 -.286 2.271 10.875 10.875 0 0 1 11.8 17.9 10.877 10.877 0 0 0 -4.434-20.811z" fill="#acc6cc"/><g fill="#323c6b"><path d="m71 24.659a.5.5 0 0 1 -.5-.46 19.88 19.88 0 0 0 -7.486-13.973 22.2 22.2 0 0 0 -15.787-4.807.5.5 0 1 1 -.079-1 23.2 23.2 0 0 1 16.5 5.025 20.873 20.873 0 0 1 7.852 14.676.5.5 0 0 1 -.459.538z"/><path d="m64.816 25.854a.5.5 0 0 1 -.5-.46 14.822 14.822 0 0 0 -5.582-10.417 16.544 16.544 0 0 0 -11.778-3.587.5.5 0 1 1 -.079-1 17.553 17.553 0 0 1 12.489 3.8 15.816 15.816 0 0 1 5.95 11.116.5.5 0 0 1 -.459.538z"/><path d="m58.634 27.048a.5.5 0 0 1 -.5-.46c-.439-5.553-5.569-9.687-11.451-9.227a.5.5 0 0 1 -.079-1c6.424-.51 12.043 4.042 12.527 10.145a.5.5 0 0 1 -.459.538z"/><path d="m60.12 56.54h-46.24a11.38 11.38 0 0 1 0-22.76 11.713 11.713 0 0 1 1.4.082 12.744 12.744 0 0 1 12.2-16.4 12.77 12.77 0 0 1 11.961 8.369 10.02 10.02 0 0 1 17.1 7.091 9.714 9.714 0 0 1 -.11 1.471 11.382 11.382 0 1 1 3.689 22.147zm-46.24-21.76a10.38 10.38 0 0 0 0 20.76h46.24a10.38 10.38 0 1 0 -4.165-19.891.5.5 0 0 1 -.684-.585 8.4 8.4 0 0 0 .269-2.144 9.018 9.018 0 0 0 -15.926-5.8.5.5 0 0 1 -.864-.184 11.735 11.735 0 0 0 -23.01 3.264 11.591 11.591 0 0 0 .743 4.107.5.5 0 0 1 -.564.667 10.469 10.469 0 0 0 -2.039-.194z"/></g></g></svg>