<svg height="512" viewBox="0 0 74 74" width="512" xmlns="http://www.w3.org/2000/svg"><g id="Numbers"><text fill="#f00" font-family="ArialMT, Arial" font-size="18" transform="translate(26.989 -1258.544)">10<tspan x="0" y="124">20</tspan><tspan x="0" y="248">30</tspan><tspan x="0" y="372">40</tspan><tspan x="0" y="496">50</tspan><tspan x="0" y="620">60</tspan><tspan x="0" y="744">70</tspan><tspan x="0" y="868">80</tspan><tspan x="0" y="992">90</tspan><tspan x="-5.005" y="1116">100</tspan><tspan letter-spacing="-.074em" x="-4.337" y="1240">1</tspan><tspan x="4.337" y="1240">10</tspan><tspan x="-5.005" y="1364">120</tspan><tspan x="-5.005" y="1488">130</tspan><tspan x="-5.005" y="1612">140</tspan><tspan x="-5.005" y="1736">150</tspan><tspan x="-5.005" y="1860">160</tspan><tspan x="-5.005" y="1984">170</tspan><tspan x="-5.005" y="2108">180</tspan><tspan x="-5.005" y="2232">190</tspan><tspan x="-5.005" y="2356">200</tspan><tspan x="-5.005" y="2480">210</tspan><tspan x="-5.005" y="2604">220</tspan><tspan x="-5.005" y="2728">230</tspan><tspan x="-5.005" y="2852">240</tspan><tspan x="-5.005" y="2976">250</tspan><tspan x="-5.005" y="3100">260</tspan><tspan x="-5.005" y="3224">270</tspan><tspan x="-5.005" y="3348">280</tspan><tspan x="-5.005" y="3472">290</tspan><tspan x="-5.005" y="3596">300</tspan></text></g><g id="color_styel" data-name="color styel"><g fill="#323c6b"><path d="m19 43.5a.5.5 0 0 1 -.5-.5v-1.938a14.543 14.543 0 0 1 1.513-6.432.5.5 0 0 1 .9.445 13.523 13.523 0 0 0 -1.413 5.987v1.938a.5.5 0 0 1 -.5.5z"/><path d="m19 48.083a.5.5 0 0 1 -.5-.5v-1.166a.5.5 0 0 1 1 0v1.167a.5.5 0 0 1 -.5.499z"/><path d="m55 65.125a.5.5 0 0 1 -.5-.5v-1.062a.5.5 0 0 1 1 0v1.063a.5.5 0 0 1 -.5.499z"/><path d="m55 61a.5.5 0 0 1 -.5-.5v-7.062a.5.5 0 0 1 1 0v7.062a.5.5 0 0 1 -.5.5z"/></g><path d="m47.665 7.278a14.84 14.84 0 0 0 -25.265 10.662v1.323a4.084 4.084 0 0 0 4.111 4.057 4.084 4.084 0 0 0 4.111-4.057v-.176a6.679 6.679 0 0 1 6.723-6.634 6.679 6.679 0 0 1 6.723 6.634 5.8 5.8 0 0 1 -2.983 5.055l-13.394 7.275a11.065 11.065 0 0 0 -5.691 9.645v26.388a3.585 3.585 0 0 0 3.6 3.55h22.8a3.574 3.574 0 0 0 3.6-3.55v-49.85a14.436 14.436 0 0 0 -4.335-10.322z" fill="#b1dcc1"/><path d="m48.4 71.5h-22.8a4.079 4.079 0 0 1 -4.1-4.05v-26.388a11.584 11.584 0 0 1 5.947-10.081l13.4-7.28a5.306 5.306 0 0 0 2.722-4.615 6.224 6.224 0 0 0 -12.446 0v.176a4.611 4.611 0 0 1 -9.222 0v-1.323a15.442 15.442 0 0 1 15.02-15.439 15.262 15.262 0 0 1 11.1 4.419 14.885 14.885 0 0 1 4.479 10.681v49.85a4.079 4.079 0 0 1 -4.1 4.05zm-11.054-59.548a7.187 7.187 0 0 1 7.224 7.134 6.31 6.31 0 0 1 -3.239 5.491l-13.4 7.279a10.583 10.583 0 0 0 -5.43 9.206v26.388a3.078 3.078 0 0 0 3.1 3.05h22.799a3.078 3.078 0 0 0 3.1-3.05v-49.85a13.888 13.888 0 0 0 -4.186-9.967 14.276 14.276 0 0 0 -10.108-4.133h-.268a14.437 14.437 0 0 0 -14.038 14.439v1.323a3.611 3.611 0 0 0 7.222 0v-.176a7.187 7.187 0 0 1 7.224-7.134z" fill="#323c6b"/><rect fill="#eeefee" height="24" rx=".718" width="18" x="28" y="41"/><path d="m45.281 65.5h-16.562a1.22 1.22 0 0 1 -1.219-1.218v-22.564a1.22 1.22 0 0 1 1.219-1.218h16.562a1.22 1.22 0 0 1 1.219 1.218v22.564a1.22 1.22 0 0 1 -1.219 1.218zm-16.562-24a.219.219 0 0 0 -.219.218v22.564a.219.219 0 0 0 .219.218h16.562a.219.219 0 0 0 .219-.218v-22.564a.219.219 0 0 0 -.219-.218z" fill="#323c6b"/><g fill="#eeefee"><path d="m48.011 12.67c.017-.013.034-.026.051-.04a.94.94 0 0 0 .134-1.236 3.987 3.987 0 0 0 -.531-.667.747.747 0 0 0 -1.132-.014.943.943 0 0 0 -.01 1.245 2.738 2.738 0 0 1 .415.522.753.753 0 0 0 1.073.19z"/><path d="m45.5 9.949a.819.819 0 0 0 .218-.207.941.941 0 0 0 -.125-1.242 12.953 12.953 0 0 0 -9.749-3.157.84.84 0 0 0 -.805.872.848.848 0 0 0 .793.889 11.527 11.527 0 0 1 8.757 2.765.743.743 0 0 0 .911.08z"/></g></g></svg>