<svg height="512" viewBox="0 0 74 74" width="512" xmlns="http://www.w3.org/2000/svg"><g id="Numbers"><text fill="#f00" font-family="ArialMT, Arial" font-size="18" transform="translate(31.995 -18.544)">3<tspan x="-5.005" y="124">13</tspan><tspan x="-5.005" y="248">23</tspan><tspan x="-5.005" y="372">33</tspan><tspan x="-5.005" y="496">43</tspan><tspan x="-5.005" y="620">53</tspan><tspan x="-5.005" y="744">63</tspan><tspan x="-5.005" y="868">73</tspan><tspan x="-5.005" y="992">83</tspan><tspan x="-5.005" y="1116">93</tspan><tspan x="-10.011" y="1240">103</tspan><tspan letter-spacing="-.074em" x="-9.343" y="1364">1</tspan><tspan x="-.668" y="1364">13</tspan><tspan x="-10.011" y="1488">123</tspan><tspan x="-10.011" y="1612">133</tspan><tspan x="-10.011" y="1736">143</tspan><tspan x="-10.011" y="1860">153</tspan><tspan x="-10.011" y="1984">163</tspan><tspan x="-10.011" y="2108">173</tspan><tspan x="-10.011" y="2232">183</tspan><tspan x="-10.011" y="2356">193</tspan><tspan x="-10.011" y="2480">203</tspan><tspan x="-10.011" y="2604">213</tspan><tspan x="-10.011" y="2728">223</tspan><tspan x="-10.011" y="2852">233</tspan><tspan x="-10.011" y="2976">243</tspan><tspan x="-10.011" y="3100">253</tspan><tspan x="-10.011" y="3224">263</tspan><tspan x="-10.011" y="3348">273</tspan><tspan x="-10.011" y="3472">283</tspan><tspan x="-10.011" y="3596">293</tspan></text></g><g id="color_styel" data-name="color styel"><path d="m17.184 71.197h35.365v1h-35.365z" fill="#323c6b"/><path d="m19.655 71.695c0-2.746 2.226-5.958 4.972-5.958h20.478c2.746 0 4.972 3.212 4.972 5.958z" fill="#9a9eaf"/><path d="m50.078 72.195h-30.423a.5.5 0 0 1 -.5-.5c0-2.986 2.39-6.458 5.472-6.458h20.478c3.082 0 5.472 3.472 5.472 6.458a.5.5 0 0 1 -.499.5zm-29.9-1h29.37c-.242-2.357-2.134-4.958-4.446-4.958h-20.475c-2.312 0-4.204 2.601-4.445 4.958z" fill="#323c6b"/><path d="m45.105 65.737h-3c2.746 0 4.972 3.212 4.972 5.958h3c.001-2.746-2.226-5.958-4.972-5.958z" fill="#828a9e"/><path d="m10.257 44.608a.5.5 0 0 1 -.446-.273c-.326-.641-.631-1.3-.907-1.969a27.992 27.992 0 0 1 -2.042-8.238.5.5 0 1 1 1-.09 26.975 26.975 0 0 0 1.969 7.944c.267.643.561 1.282.875 1.9a.5.5 0 0 1 -.445.727z" fill="#323c6b"/><path d="m11.921 47.45a.5.5 0 0 1 -.416-.222q-.242-.362-.473-.731a.5.5 0 1 1 .848-.53q.223.357.456.706a.5.5 0 0 1 -.415.778z" fill="#323c6b"/><path d="m57.218 40.988a24.4 24.4 0 1 1 -13.225-31.876 24.407 24.407 0 0 1 13.225 31.876z" fill="#b6d2dd"/><path d="m34.64 56.567a24.9 24.9 0 1 1 23.04-15.388 24.933 24.933 0 0 1 -23.04 15.388zm.035-48.817a23.923 23.923 0 1 0 9.125 1.824 23.881 23.881 0 0 0 -9.125-1.824z" fill="#323c6b"/><path d="m43.993 9.112a24.3 24.3 0 0 0 -10.841-1.8 24.4 24.4 0 0 1 .034 48.71 24.4 24.4 0 0 0 10.807-46.91z" fill="#acc6cc"/><g fill="#323c6b"><path d="m44.081 54.157a23.864 23.864 0 0 0 -31.956-13.2l-.405-.914a24.865 24.865 0 0 1 33.294 13.757z"/><path d="m47.515 25.466a24.8 24.8 0 0 1 -9.489-1.9 24.684 24.684 0 0 1 -13.708-14.02l.933-.361a23.693 23.693 0 0 0 13.156 13.456 23.636 23.636 0 0 0 18.8-.255l.406.914a24.8 24.8 0 0 1 -10.098 2.166z"/><path d="m27.485 55.128a6.03 6.03 0 0 1 -2.322-.449c-3.01-1.243-4.8-4.841-5.047-10.131a42.269 42.269 0 0 1 3.528-17.431 42.317 42.317 0 0 1 9.808-14.852c3.907-3.576 7.715-4.865 10.727-3.617 6.075 2.509 6.75 14.879 1.5 27.575-4.604 11.156-12.279 18.905-18.194 18.905zm14.3-45.943c-2.268 0-4.914 1.306-7.659 3.818a41.314 41.314 0 0 0 -9.56 14.5 41.26 41.26 0 0 0 -3.453 17c.226 4.88 1.8 8.167 4.43 9.253 5.567 2.3 14.184-5.737 19.215-17.914s4.6-23.97-.963-26.269a5.232 5.232 0 0 0 -2.008-.388z"/><path d="m65.573 19.947a.5.5 0 0 1 -.459-.3q-.151-.352-.31-.7a.5.5 0 1 1 .91-.415q.163.358.319.72a.5.5 0 0 1 -.459.7z"/><path d="m63.967 16.5a.5.5 0 0 1 -.442-.266 32.521 32.521 0 0 0 -4.817-6.812.5.5 0 1 1 .735-.678 33.518 33.518 0 0 1 4.966 7.021.5.5 0 0 1 -.441.734z"/><path d="m34.649 62.241a30.6 30.6 0 0 1 -11.649-2.294.5.5 0 0 1 -.272-.654l23.039-55.787a.5.5 0 0 1 .654-.271 30.68 30.68 0 0 1 -11.772 59.006zm-10.805-3.033a29.679 29.679 0 0 0 22.656-54.854z"/><path d="m34.176 7.264h1v48.804h-1z" transform="matrix(.382 -.924 .924 .382 -7.831 51.624)"/><path d="m34.64 56.567a24.9 24.9 0 1 1 23.04-15.388 24.933 24.933 0 0 1 -23.04 15.388zm.035-48.817a23.923 23.923 0 1 0 9.125 1.824 23.881 23.881 0 0 0 -9.125-1.824z"/><path d="m34.149 61.741h1v3.996h-1z"/><path d="m50.078 72.195h-30.423a.5.5 0 0 1 -.5-.5c0-2.986 2.39-6.458 5.472-6.458h20.478c3.082 0 5.472 3.472 5.472 6.458a.5.5 0 0 1 -.499.5zm-29.9-1h29.37c-.242-2.357-2.134-4.958-4.446-4.958h-20.475c-2.312 0-4.204 2.601-4.445 4.958z"/></g></g></svg>