<svg height="512" viewBox="0 0 74 74" width="512" xmlns="http://www.w3.org/2000/svg"><g id="Numbers"><text fill="#f00" font-family="ArialMT, Arial" font-size="18" transform="translate(31.995 -18.544)">4<tspan x="-5.005" y="124">14</tspan><tspan x="-5.005" y="248">24</tspan><tspan x="-5.005" y="372">34</tspan><tspan x="-5.005" y="496">44</tspan><tspan x="-5.005" y="620">54</tspan><tspan x="-5.005" y="744">64</tspan><tspan x="-5.005" y="868">74</tspan><tspan x="-5.005" y="992">84</tspan><tspan x="-5.005" y="1116">94</tspan><tspan x="-10.011" y="1240">104</tspan><tspan letter-spacing="-.074em" x="-9.343" y="1364">1</tspan><tspan x="-.668" y="1364">14</tspan><tspan x="-10.011" y="1488">124</tspan><tspan x="-10.011" y="1612">134</tspan><tspan x="-10.011" y="1736">144</tspan><tspan x="-10.011" y="1860">154</tspan><tspan x="-10.011" y="1984">164</tspan><tspan x="-10.011" y="2108">174</tspan><tspan x="-10.011" y="2232">184</tspan><tspan x="-10.011" y="2356">194</tspan><tspan x="-10.011" y="2480">204</tspan><tspan x="-10.011" y="2604">214</tspan><tspan x="-10.011" y="2728">224</tspan><tspan x="-10.011" y="2852">234</tspan><tspan x="-10.011" y="2976">244</tspan><tspan x="-10.011" y="3100">254</tspan><tspan x="-10.011" y="3224">264</tspan><tspan x="-10.011" y="3348">274</tspan><tspan x="-10.011" y="3472">284</tspan><tspan x="-10.011" y="3596">294</tspan></text></g><g id="color_styel" data-name="color styel"><path d="m56.363 35a5.1 5.1 0 0 1 -1.064-.112.911.911 0 0 1 -.271-.063 1.753 1.753 0 0 1 -.264-.071 5.049 5.049 0 0 1 -1.405-.682 2.813 2.813 0 0 1 -.412-.312c-.115-.1-.246-.206-.367-.326a5.332 5.332 0 0 1 -1.58-3.794v-7.14a.5.5 0 0 1 .5-.5h9.72a.5.5 0 0 1 .5.5v7.14a5.366 5.366 0 0 1 -5.357 5.36zm-4.363-12v6.64a4.339 4.339 0 0 0 1.284 3.086c.1.1.208.189.317.279a1.973 1.973 0 0 0 .3.229 4.149 4.149 0 0 0 1.163.567 1.962 1.962 0 0 0 .243.068 1.108 1.108 0 0 1 .158.032 4.356 4.356 0 0 0 5.253-4.262v-6.639z" fill="#323c6b"/><path d="m12.643 22.5v7.14a4.85 4.85 0 0 1 -4.85 4.86 5.578 5.578 0 0 1 -1.01-.1 4.607 4.607 0 0 1 -.53-.15.773.773 0 0 1 -.19-.08 1.428 1.428 0 0 1 -.22-.08 4.788 4.788 0 0 1 -1.49-1.01 4.852 4.852 0 0 1 -1.42-3.44v-7.14z" fill="#eeefee"/><path d="m7.792 35a5.991 5.991 0 0 1 -1.1-.108 5.114 5.114 0 0 1 -.607-.17 1.379 1.379 0 0 1 -.22-.088 2.183 2.183 0 0 1 -.222-.085 5.322 5.322 0 0 1 -3.21-4.909v-7.14a.5.5 0 0 1 .5-.5h9.71a.5.5 0 0 1 .5.5v7.14a5.361 5.361 0 0 1 -5.351 5.36zm-4.359-12v6.64a4.323 4.323 0 0 0 2.607 3.99.943.943 0 0 0 .144.055.5.5 0 0 1 .156.069 5.015 5.015 0 0 0 .551.158 5.014 5.014 0 0 0 .9.088 4.36 4.36 0 0 0 4.35-4.36v-6.64z" fill="#323c6b"/><path d="m12.643 22.5v7.14a4.85 4.85 0 0 1 -4.85 4.86 5.578 5.578 0 0 1 -1.01-.1 4.861 4.861 0 0 0 3.86-4.76v-7.14z" fill="#dbd8dd"/><path d="m70.933 22.5v7.14a4.841 4.841 0 0 1 -3 4.49 4.785 4.785 0 0 1 -1.86.37c-.11 0-.22 0-.33-.01a.127.127 0 0 1 -.06-.01.487.487 0 0 1 -.12-.01h-.03a.108.108 0 0 1 -.05-.01 2.619 2.619 0 0 1 -.39-.06.037.037 0 0 1 -.03-.01.308.308 0 0 1 -.13-.03 4.957 4.957 0 0 1 -1.02-.37c-.08-.04-.15-.08-.22-.12a4.52 4.52 0 0 1 -1.05-.79 4.852 4.852 0 0 1 -1.42-3.44v-7.14z" fill="#eeefee"/><path d="m66.073 35c-.125 0-.25 0-.375-.012a.562.562 0 0 1 -.059-.009.842.842 0 0 1 -.162-.017h-.033a3.058 3.058 0 0 1 -.465-.072h-.006a.813.813 0 0 1 -.2-.05 5.36 5.36 0 0 1 -1.083-.4c-.085-.042-.16-.085-.235-.127a5.026 5.026 0 0 1 -1.166-.876 5.327 5.327 0 0 1 -1.566-3.793v-7.144a.5.5 0 0 1 .5-.5h9.71a.5.5 0 0 1 .5.5v7.14a5.337 5.337 0 0 1 -3.31 4.952 5.253 5.253 0 0 1 -2.05.408zm-.287-1.007c.118.007.2.007.288.007a4.259 4.259 0 0 0 1.666-.331 4.341 4.341 0 0 0 2.694-4.029v-6.64h-8.71v6.64a4.334 4.334 0 0 0 1.276 3.087 4.04 4.04 0 0 0 .934.7c.079.045.139.079.207.113a4.428 4.428 0 0 0 .917.332.552.552 0 0 1 .079.027.464.464 0 0 1 .074.012h.011a.23.23 0 0 1 .054.012 2.075 2.075 0 0 0 .249.034.523.523 0 0 1 .073.011.577.577 0 0 1 .094.013.592.592 0 0 1 .093.012zm-.045 0h.033z" fill="#323c6b"/><path d="m68.929 22.5v7.14a4.841 4.841 0 0 1 -3 4.49 4.692 4.692 0 0 1 -.862.264 4.876 4.876 0 0 0 1 .106 4.786 4.786 0 0 0 1.86-.37 4.841 4.841 0 0 0 3-4.49v-7.14z" fill="#dbd8dd"/><path d="m22.363 22.5v7.14a4.859 4.859 0 0 1 -4.863 4.86 4.646 4.646 0 0 1 -1-.11 4.75 4.75 0 0 1 -2.43-1.31 4.861 4.861 0 0 1 -1.43-3.44v-7.14z" fill="#ef5261"/><path d="m17.5 35a5.11 5.11 0 0 1 -1.106-.122 5.253 5.253 0 0 1 -2.677-1.445 5.331 5.331 0 0 1 -1.577-3.793v-7.14a.5.5 0 0 1 .5-.5h9.72a.5.5 0 0 1 .5.5v7.14a5.366 5.366 0 0 1 -5.36 5.36zm-4.36-12v6.64a4.338 4.338 0 0 0 1.284 3.086 4.263 4.263 0 0 0 2.176 1.174 4.321 4.321 0 0 0 5.261-4.26v-6.64z" fill="#323c6b"/><path d="m22.363 22.5v7.14a4.859 4.859 0 0 1 -4.863 4.86 4.646 4.646 0 0 1 -1-.11 4.85 4.85 0 0 0 3.86-4.75v-7.14z" fill="#e42542"/><path d="m32.073 22.5v7.14a4.85 4.85 0 0 1 -4.85 4.86 4.392 4.392 0 0 1 -.82-.07c-.06-.01-.12-.02-.17-.03a4.785 4.785 0 0 1 -2.45-1.32 4.852 4.852 0 0 1 -1.42-3.44v-7.14z" fill="#eeefee"/><path d="m27.223 35a4.894 4.894 0 0 1 -.914-.079l-.176-.032a5.347 5.347 0 0 1 -4.27-5.25v-7.139a.5.5 0 0 1 .5-.5h9.71a.5.5 0 0 1 .5.5v7.14a5.361 5.361 0 0 1 -5.35 5.36zm-4.36-12v6.64a4.334 4.334 0 0 0 1.273 3.086 4.285 4.285 0 0 0 2.194 1.183l.122.022a4.067 4.067 0 0 0 .77.068 4.36 4.36 0 0 0 4.35-4.36v-6.639z" fill="#323c6b"/><path d="m32.073 22.5v7.14a4.85 4.85 0 0 1 -4.85 4.86 5.557 5.557 0 0 1 -.82-.07c-.06-.01-.12-.02-.17-.03a4.87 4.87 0 0 0 3.84-4.76v-7.14z" fill="#dbd8dd"/><path d="m41.793 22.5v7.14a4.859 4.859 0 0 1 -4.86 4.86c-.15 0-.3-.01-.44-.02l-.42-.06a.5.5 0 0 1 -.12-.02 4.046 4.046 0 0 1 -.47-.12 2.461 2.461 0 0 1 -.38-.14 3.979 3.979 0 0 1 -.89-.47 3.272 3.272 0 0 1 -.37-.28c-.12-.1-.24-.2-.35-.31a4.852 4.852 0 0 1 -1.42-3.44v-7.14z" fill="#ef5261"/><path d="m36.933 35c-.162 0-.325-.01-.477-.021l-.456-.064a.812.812 0 0 1 -.173-.031 4.119 4.119 0 0 1 -.5-.127 2.921 2.921 0 0 1 -.454-.169 4.259 4.259 0 0 1 -.954-.508 3.616 3.616 0 0 1 -.4-.306c-.131-.109-.262-.219-.383-.34a5.327 5.327 0 0 1 -1.566-3.793v-7.141a.5.5 0 0 1 .5-.5h9.72a.5.5 0 0 1 .5.5v7.14a5.366 5.366 0 0 1 -5.357 5.36zm-4.36-12v6.64a4.334 4.334 0 0 0 1.273 3.086c.1.1.208.189.317.279a2.688 2.688 0 0 0 .312.238 3.581 3.581 0 0 0 .8.428 2.15 2.15 0 0 0 .35.129 3.453 3.453 0 0 0 .416.107.985.985 0 0 1 .1.017l.42.06c.094.006.231.015.369.015a4.365 4.365 0 0 0 4.36-4.36v-6.639z" fill="#323c6b"/><path d="m41.793 22.5v7.14a4.859 4.859 0 0 1 -4.86 4.86c-.15 0-.3-.01-.44-.02l-.42-.06a.5.5 0 0 1 -.12-.02 4.879 4.879 0 0 0 3.84-4.76v-7.14z" fill="#e42542"/><path d="m51.5 22.5v7.14a4.852 4.852 0 0 1 -4.86 4.86 4.914 4.914 0 0 1 -.86-.08.5.5 0 0 1 -.12-.02 4.847 4.847 0 0 1 -3.87-4.76v-7.14z" fill="#eeefee"/><path d="m46.643 35a5.446 5.446 0 0 1 -.947-.088.425.425 0 0 1 -.157-.028 5.346 5.346 0 0 1 -4.246-5.244v-7.14a.5.5 0 0 1 .5-.5h9.707a.5.5 0 0 1 .5.5v7.14a5.366 5.366 0 0 1 -5.357 5.36zm-4.35-12v6.64a4.346 4.346 0 0 0 3.469 4.27.749.749 0 0 1 .108.018 4.453 4.453 0 0 0 .772.072 4.365 4.365 0 0 0 4.358-4.36v-6.64z" fill="#323c6b"/><path d="m51.5 22.5v7.14a4.852 4.852 0 0 1 -4.86 4.86 4.74 4.74 0 0 1 -.86-.08.5.5 0 0 1 -.12-.02 4.87 4.87 0 0 0 3.84-4.76v-7.14z" fill="#dbd8dd"/><path d="m61.223 22.5v7.14a4.859 4.859 0 0 1 -4.86 4.86 4.645 4.645 0 0 1 -1-.11.4.4 0 0 1 -.15-.03 2.452 2.452 0 0 1 -.29-.08 4.6 4.6 0 0 1 -1.28-.62 2.417 2.417 0 0 1 -.36-.27c-.12-.1-.24-.2-.35-.31a4.861 4.861 0 0 1 -1.43-3.44v-7.14z" fill="#ef5261"/><path d="m56.363 35a5.1 5.1 0 0 1 -1.064-.112.911.911 0 0 1 -.271-.063 1.753 1.753 0 0 1 -.264-.071 5.049 5.049 0 0 1 -1.405-.682 2.813 2.813 0 0 1 -.412-.312c-.115-.1-.246-.206-.367-.326a5.332 5.332 0 0 1 -1.58-3.794v-7.14a.5.5 0 0 1 .5-.5h9.72a.5.5 0 0 1 .5.5v7.14a5.366 5.366 0 0 1 -5.357 5.36zm-4.363-12v6.64a4.339 4.339 0 0 0 1.284 3.086c.1.1.208.189.317.279a1.973 1.973 0 0 0 .3.229 4.149 4.149 0 0 0 1.163.567 1.962 1.962 0 0 0 .243.068 1.108 1.108 0 0 1 .158.032 4.356 4.356 0 0 0 5.253-4.262v-6.639z" fill="#323c6b"/><path d="m61.223 22.5v7.14a4.859 4.859 0 0 1 -4.86 4.86 4.645 4.645 0 0 1 -1-.11 4.85 4.85 0 0 0 3.86-4.75v-7.14z" fill="#e42542"/><path d="m66.069 34.5a4.848 4.848 0 0 1 -4.85-4.86 4.86 4.86 0 0 1 -9.72 0 4.855 4.855 0 1 1 -9.71 0 4.86 4.86 0 1 1 -9.72 0 4.855 4.855 0 1 1 -9.71 0 4.86 4.86 0 0 1 -9.72 0 4.85 4.85 0 0 1 -4.85 4.86 4.733 4.733 0 0 1 -1.95-.41v34.41h37.09v-28h17v28h8v-34.37a4.786 4.786 0 0 1 -1.86.37zm-31.14 26h-21v-20h21z" fill="#eeefee"/><path d="m67.929 69h-8a.5.5 0 0 1 -.5-.5v-27.5h-16v27.5a.5.5 0 0 1 -.5.5h-37.09a.5.5 0 0 1 -.5-.5v-34.41a.5.5 0 0 1 .705-.456 4.219 4.219 0 0 0 1.745.366 4.36 4.36 0 0 0 4.35-4.36.5.5 0 0 1 1 0 4.36 4.36 0 0 0 8.72 0 .5.5 0 0 1 1 0 4.355 4.355 0 1 0 8.71 0 .5.5 0 0 1 1 0 4.36 4.36 0 0 0 8.72 0 .5.5 0 0 1 1 0 4.355 4.355 0 1 0 8.71 0 .5.5 0 0 1 1 0 4.36 4.36 0 0 0 8.72 0 .5.5 0 0 1 1 0 4.334 4.334 0 0 0 1.273 3.086 4.424 4.424 0 0 0 4.742.942.5.5 0 0 1 .694.461v34.371a.5.5 0 0 1 -.499.5zm-7.5-1h7v-33.173a5.36 5.36 0 0 1 -6.213-2.919 5.365 5.365 0 0 1 -9.716-.008 5.358 5.358 0 0 1 -9.713.006 5.363 5.363 0 0 1 -9.719 0 5.358 5.358 0 0 1 -9.71 0 5.365 5.365 0 0 1 -9.717 0 5.36 5.36 0 0 1 -6.3 2.9v33.194h36.09v-27.5a.5.5 0 0 1 .5-.5h17a.5.5 0 0 1 .5.5zm-25.5-7h-21a.5.5 0 0 1 -.5-.5v-20a.5.5 0 0 1 .5-.5h21a.5.5 0 0 1 .5.5v20a.5.5 0 0 1 -.5.5zm-20.5-1h20v-19h-20z" fill="#323c6b"/><path d="m66.069 34.5a4.834 4.834 0 0 1 -1.14-.148v34.148h3v-34.37a4.786 4.786 0 0 1 -1.86.37z" fill="#dbd8dd"/><path d="m6.294 34.238a4.6 4.6 0 0 1 -.455-.148v.289a4.753 4.753 0 0 0 .455-.141z" fill="#f4bb87"/><path d="m42.929 68h17v1h-17z" fill="#323c6b"/><path d="m42.929 40.5h17v28h-17z" fill="#9a9eaf"/><path d="m59.929 69h-17a.5.5 0 0 1 -.5-.5v-28a.5.5 0 0 1 .5-.5h17a.5.5 0 0 1 .5.5v28a.5.5 0 0 1 -.5.5zm-16.5-1h16v-27h-16z" fill="#323c6b"/><path d="m11.021 40.5h26.817v20h-26.817z" fill="#b6d2dd"/><g fill="#323c6b"><path d="m37.837 61h-26.816a.5.5 0 0 1 -.5-.5v-20a.5.5 0 0 1 .5-.5h26.816a.5.5 0 0 1 .5.5v20a.5.5 0 0 1 -.5.5zm-26.316-1h25.816v-19h-25.816z"/><path d="m67.929 69h-8a.5.5 0 0 1 -.5-.5v-27.5h-16v27.5a.5.5 0 0 1 -.5.5h-37.09a.5.5 0 0 1 -.5-.5v-34.41a.5.5 0 0 1 .705-.456 4.219 4.219 0 0 0 1.745.366 4.36 4.36 0 0 0 4.35-4.36.5.5 0 0 1 1 0 4.36 4.36 0 0 0 8.72 0 .5.5 0 0 1 1 0 4.355 4.355 0 1 0 8.71 0 .5.5 0 0 1 1 0 4.36 4.36 0 0 0 8.72 0 .5.5 0 0 1 1 0 4.355 4.355 0 1 0 8.71 0 .5.5 0 0 1 1 0 4.36 4.36 0 0 0 8.72 0 .5.5 0 0 1 1 0 4.334 4.334 0 0 0 1.273 3.086 4.424 4.424 0 0 0 4.742.942.5.5 0 0 1 .694.461v34.371a.5.5 0 0 1 -.499.5zm-7.5-1h7v-33.173a5.36 5.36 0 0 1 -6.213-2.919 5.365 5.365 0 0 1 -9.716-.008 5.358 5.358 0 0 1 -9.713.006 5.363 5.363 0 0 1 -9.719 0 5.358 5.358 0 0 1 -9.71 0 5.365 5.365 0 0 1 -9.717 0 5.36 5.36 0 0 1 -6.3 2.9v33.194h36.09v-27.5a.5.5 0 0 1 .5-.5h17a.5.5 0 0 1 .5.5zm-22.592-7h-26.816a.5.5 0 0 1 -.5-.5v-20a.5.5 0 0 1 .5-.5h26.816a.5.5 0 0 1 .5.5v20a.5.5 0 0 1 -.5.5zm-26.316-1h25.816v-19h-25.816z"/><path d="m66.073 35c-.125 0-.25 0-.375-.012a.562.562 0 0 1 -.059-.009.842.842 0 0 1 -.162-.017h-.033a3.058 3.058 0 0 1 -.465-.072h-.006a.813.813 0 0 1 -.2-.05 5.36 5.36 0 0 1 -1.083-.4c-.085-.042-.16-.085-.235-.127a5.026 5.026 0 0 1 -1.166-.876 5.327 5.327 0 0 1 -1.566-3.793v-7.144a.5.5 0 0 1 .5-.5h9.71a.5.5 0 0 1 .5.5v7.14a5.337 5.337 0 0 1 -3.31 4.952 5.253 5.253 0 0 1 -2.05.408zm-.287-1.007c.118.007.2.007.288.007a4.259 4.259 0 0 0 1.666-.331 4.341 4.341 0 0 0 2.694-4.029v-6.64h-8.71v6.64a4.334 4.334 0 0 0 1.276 3.087 4.04 4.04 0 0 0 .934.7c.079.045.139.079.207.113a4.428 4.428 0 0 0 .917.332.552.552 0 0 1 .079.027.464.464 0 0 1 .074.012h.011a.23.23 0 0 1 .054.012 2.075 2.075 0 0 0 .249.034.523.523 0 0 1 .073.011.577.577 0 0 1 .094.013.592.592 0 0 1 .093.012zm-.045 0h.033z"/></g><path d="m16.503 8.5-3.86 14h-9.71l6-14z" fill="#eeefee"/><path d="m12.643 23h-9.71a.5.5 0 0 1 -.459-.7l6-14a.5.5 0 0 1 .459-.3h7.567a.5.5 0 0 1 .482.633l-3.86 14a.5.5 0 0 1 -.479.367zm-8.952-1h8.571l3.584-13h-6.584z" fill="#323c6b"/><path d="m24.393 8.5-2.03 14h-9.72l3.86-14z" fill="#ef5261"/><path d="m22.363 23h-9.72a.5.5 0 0 1 -.482-.633l3.86-14a.5.5 0 0 1 .479-.367h7.89a.5.5 0 0 1 .495.572l-2.03 14a.5.5 0 0 1 -.492.428zm-9.063-1h8.63l1.885-13h-6.932z" fill="#323c6b"/><path d="m32.763 8.5-.69 14h-9.71l2.03-14z" fill="#eeefee"/><path d="m32.073 23h-9.71a.5.5 0 0 1 -.495-.572l2.03-14a.5.5 0 0 1 .495-.428h8.37a.5.5 0 0 1 .5.524l-.69 14a.5.5 0 0 1 -.5.476zm-9.133-1h8.66l.641-13h-7.416z" fill="#323c6b"/><path d="m41.753 22.5h-9.68l.69-14h8.26z" fill="#ef5261"/><path d="m41.752 23h-9.68a.5.5 0 0 1 -.5-.524l.69-14a.5.5 0 0 1 .5-.476h8.26a.5.5 0 0 1 .5.474l.73 14a.5.5 0 0 1 -.5.526zm-9.152-1h8.627l-.679-13h-7.309z" fill="#323c6b"/><path d="m51.643 22.5h-9.89l-.73-14h8.51z" fill="#eeefee"/><path d="m51.643 23h-9.89a.5.5 0 0 1 -.5-.474l-.73-14a.5.5 0 0 1 .5-.526h8.51a.5.5 0 0 1 .495.425l2.11 14a.5.5 0 0 1 -.495.575zm-9.416-1h8.834l-1.961-13h-7.551z" fill="#323c6b"/><path d="m61.533 22.5h-9.89l-2.11-14h8.05z" fill="#ef5261"/><g fill="#323c6b"><path d="m61.533 23h-9.89a.5.5 0 0 1 -.495-.425l-2.11-14a.5.5 0 0 1 .495-.575h8.05a.5.5 0 0 1 .481.364l3.95 14a.5.5 0 0 1 -.481.636zm-9.46-1h8.8l-3.673-13h-7.09z"/><path d="m46.643 35a5.446 5.446 0 0 1 -.947-.088.425.425 0 0 1 -.157-.028 5.346 5.346 0 0 1 -4.246-5.244v-7.14a.5.5 0 0 1 .5-.5h9.707a.5.5 0 0 1 .5.5v7.14a5.366 5.366 0 0 1 -5.357 5.36zm-4.35-12v6.64a4.346 4.346 0 0 0 3.469 4.27.749.749 0 0 1 .108.018 4.453 4.453 0 0 0 .772.072 4.365 4.365 0 0 0 4.358-4.36v-6.64z"/><path d="m36.933 35c-.162 0-.325-.01-.477-.021l-.456-.064a.812.812 0 0 1 -.173-.031 4.119 4.119 0 0 1 -.5-.127 2.921 2.921 0 0 1 -.454-.169 4.259 4.259 0 0 1 -.954-.508 3.616 3.616 0 0 1 -.4-.306c-.131-.109-.262-.219-.383-.34a5.327 5.327 0 0 1 -1.566-3.793v-7.141a.5.5 0 0 1 .5-.5h9.72a.5.5 0 0 1 .5.5v7.14a5.366 5.366 0 0 1 -5.357 5.36zm-4.36-12v6.64a4.334 4.334 0 0 0 1.273 3.086c.1.1.208.189.317.279a2.688 2.688 0 0 0 .312.238 3.581 3.581 0 0 0 .8.428 2.15 2.15 0 0 0 .35.129 3.453 3.453 0 0 0 .416.107.985.985 0 0 1 .1.017l.42.06c.094.006.231.015.369.015a4.365 4.365 0 0 0 4.36-4.36v-6.639z"/><path d="m27.223 35a4.894 4.894 0 0 1 -.914-.079l-.176-.032a5.347 5.347 0 0 1 -4.27-5.25v-7.139a.5.5 0 0 1 .5-.5h9.71a.5.5 0 0 1 .5.5v7.14a5.361 5.361 0 0 1 -5.35 5.36zm-4.36-12v6.64a4.334 4.334 0 0 0 1.273 3.086 4.285 4.285 0 0 0 2.194 1.183l.122.022a4.067 4.067 0 0 0 .77.068 4.36 4.36 0 0 0 4.35-4.36v-6.639z"/><path d="m17.5 35a5.11 5.11 0 0 1 -1.106-.122 5.253 5.253 0 0 1 -2.677-1.445 5.331 5.331 0 0 1 -1.577-3.793v-7.14a.5.5 0 0 1 .5-.5h9.72a.5.5 0 0 1 .5.5v7.14a5.366 5.366 0 0 1 -5.36 5.36zm-4.36-12v6.64a4.338 4.338 0 0 0 1.284 3.086 4.263 4.263 0 0 0 2.176 1.174 4.321 4.321 0 0 0 5.261-4.26v-6.64z"/><path d="m7.792 35a5.991 5.991 0 0 1 -1.1-.108 5.114 5.114 0 0 1 -.607-.17 1.379 1.379 0 0 1 -.22-.088 2.183 2.183 0 0 1 -.222-.085 5.322 5.322 0 0 1 -3.21-4.909v-7.14a.5.5 0 0 1 .5-.5h9.71a.5.5 0 0 1 .5.5v7.14a5.361 5.361 0 0 1 -5.351 5.36zm-4.359-12v6.64a4.323 4.323 0 0 0 2.607 3.99.943.943 0 0 0 .144.055.5.5 0 0 1 .156.069 5.015 5.015 0 0 0 .551.158 5.014 5.014 0 0 0 .9.088 4.36 4.36 0 0 0 4.35-4.36v-6.64z"/></g><path d="m70.933 22.5h-9.4l-3.95-14h7.35z" fill="#eeefee"/><path d="m70.933 23h-9.4a.5.5 0 0 1 -.481-.364l-3.95-14a.5.5 0 0 1 .481-.636h7.35a.5.5 0 0 1 .459.3l6 14a.5.5 0 0 1 -.459.7zm-9.021-1h8.263l-5.575-13h-6.36z" fill="#323c6b"/><path d="m64.933 8.5h-2l6 14h2z" fill="#dbd8dd"/><path d="m70.933 23h-9.4a.5.5 0 0 1 -.481-.364l-3.95-14a.5.5 0 0 1 .481-.636h7.35a.5.5 0 0 1 .459.3l6 14a.5.5 0 0 1 -.459.7zm-9.021-1h8.263l-5.575-13h-6.36z" fill="#323c6b"/><rect fill="#eeefee" height="6.362" rx=".431" width=".863" x="57.6" y="60.689"/><rect fill="#eeefee" height="1.094" rx=".431" width=".863" x="57.6" y="58.95"/><path d="m47.088 54a1.092 1.092 0 1 1 -1.088-1.092 1.089 1.089 0 0 1 1.088 1.092z" fill="#62667c"/><path d="m24.707 59.976 11.818-18.976h-2.264l-11.818 18.976z" fill="#dbd8dd"/><path d="m13.517 59.976 11.818-18.976h-1.117l-11.818 18.976z" fill="#dbd8dd"/><path d="m18.798 59.976 11.818-18.976h-.637l-11.818 18.976z" fill="#dbd8dd"/></g></svg>