<?xml version="1.0"?>
<svg xmlns="http://www.w3.org/2000/svg" viewBox="0 0 74 74" width="512" height="512"><g id="Numbers"><text transform="translate(31.995 -18.544)" font-size="18" fill="red" font-family="ArialMT, Arial">5<tspan x="-5.005" y="124">15</tspan><tspan x="-5.005" y="248">25</tspan><tspan x="-5.005" y="372">35</tspan><tspan x="-5.005" y="496">45</tspan><tspan x="-5.005" y="620">55</tspan><tspan x="-5.005" y="744">65</tspan><tspan x="-5.005" y="868">75</tspan><tspan x="-5.005" y="992">85</tspan><tspan x="-5.005" y="1116">95</tspan><tspan x="-10.011" y="1240">105</tspan><tspan x="-9.343" y="1364" letter-spacing="-0.074em">1</tspan><tspan x="-0.668" y="1364">15</tspan><tspan x="-10.011" y="1488">125</tspan><tspan x="-10.011" y="1612">135</tspan><tspan x="-10.011" y="1736">145</tspan><tspan x="-10.011" y="1860">155</tspan><tspan x="-10.011" y="1984">165</tspan><tspan x="-10.011" y="2108">175</tspan><tspan x="-10.011" y="2232">185</tspan><tspan x="-10.011" y="2356">195</tspan><tspan x="-10.011" y="2480">205</tspan><tspan x="-10.011" y="2604">215</tspan><tspan x="-10.011" y="2728">225</tspan><tspan x="-10.011" y="2852">235</tspan><tspan x="-10.011" y="2976">245</tspan><tspan x="-10.011" y="3100">255</tspan><tspan x="-10.011" y="3224">265</tspan><tspan x="-10.011" y="3348">275</tspan><tspan x="-10.011" y="3472">285</tspan><tspan x="-10.011" y="3596">295</tspan></text></g><g id="color_styel" data-name="color styel"><path d="M71,30.53v1a4,4,0,0,1-4,4H7a4,4,0,0,1-4-4v-1a4,4,0,0,1,4-4H21.89l3.94,4.01a3.442,3.442,0,0,0,4.95,0,3.6,3.6,0,0,0,1.03-2.52,3.516,3.516,0,0,0-.33-1.49H42.52a3.516,3.516,0,0,0-.33,1.49,3.6,3.6,0,0,0,1.03,2.52,3.442,3.442,0,0,0,4.95,0l3.94-4.01H67A4,4,0,0,1,71,30.53Z" fill="#fed19a"/><path d="M67,36.03H7a4.5,4.5,0,0,1-4.5-4.5v-1A4.5,4.5,0,0,1,7,26.03H21.89a.5.5,0,0,1,.356.149l3.94,4.01a2.951,2.951,0,0,0,2.122.9h.005a2.925,2.925,0,0,0,2.108-.9,3.117,3.117,0,0,0,.888-2.172,3.033,3.033,0,0,0-.283-1.278.5.5,0,0,1,.453-.712H42.52a.5.5,0,0,1,.453.712,3.033,3.033,0,0,0-.283,1.278,3.115,3.115,0,0,0,.886,2.169,2.926,2.926,0,0,0,2.109.9h.006a2.949,2.949,0,0,0,2.121-.9l3.941-4.011a.5.5,0,0,1,.356-.149H67a4.5,4.5,0,0,1,4.5,4.5v1A4.5,4.5,0,0,1,67,36.03Zm-60-9a3.5,3.5,0,0,0-3.5,3.5v1A3.5,3.5,0,0,0,7,35.03H67a3.5,3.5,0,0,0,3.5-3.5v-1a3.5,3.5,0,0,0-3.5-3.5H52.319l-3.793,3.861a3.94,3.94,0,0,1-2.835,1.2h-.008a3.917,3.917,0,0,1-2.822-1.2A4.118,4.118,0,0,1,41.69,28.02a4.05,4.05,0,0,1,.124-.99H32.187a4.05,4.05,0,0,1,.124.99,4.123,4.123,0,0,1-1.173,2.871,3.917,3.917,0,0,1-2.821,1.2h-.007a3.941,3.941,0,0,1-2.836-1.2l-3.792-3.86Z" fill="#323c6b"/><path d="M67,26.53H64a4,4,0,0,1,4,4v1a4,4,0,0,1-4,4h3a4,4,0,0,0,4-4v-1A4,4,0,0,0,67,26.53Z" fill="#f4bb87"/><path d="M10.108,68.385a.5.5,0,0,1-.322-.118,7.46,7.46,0,0,1-2.62-5.007l-.343-3.546a.5.5,0,1,1,1-.1l.343,3.546a6.467,6.467,0,0,0,2.27,4.339.5.5,0,0,1-.323.882Z" fill="#323c6b"/><path d="M14.63,70.03a7.63,7.63,0,0,1-1.507-.15.5.5,0,1,1,.2-.98,6.64,6.64,0,0,0,1.31.13.5.5,0,0,1,0,1Z" fill="#323c6b"/><path d="M66,35.53,63.35,62.92a4,4,0,0,1-3.98,3.61H14.63a4,4,0,0,1-3.98-3.61L8,35.53Z" fill="#f4bb87"/><path d="M59.37,67.03H14.63a4.483,4.483,0,0,1-4.478-4.061L7.5,35.578A.5.5,0,0,1,8,35.03H66a.5.5,0,0,1,.5.548l-2.65,27.39A4.483,4.483,0,0,1,59.37,67.03Zm-50.819-31,2.6,26.842A3.486,3.486,0,0,0,14.63,66.03H59.37a3.486,3.486,0,0,0,3.482-3.159l2.6-26.841Z" fill="#323c6b"/><path d="M63,35.53,60.35,62.92a4,4,0,0,1-3.98,3.61h3a4,4,0,0,0,3.98-3.61L66,35.53Z" fill="#e6b17d"/><path d="M50.25,14.4a.5.5,0,0,1-.354-.854l6.438-6.435a.5.5,0,0,1,.707.707L50.6,14.258A.5.5,0,0,1,50.25,14.4Z" fill="#323c6b"/><path d="M47.39,17.417a.5.5,0,0,1-.357-.85l.849-.866a.5.5,0,0,1,.714.7l-.849.866A.5.5,0,0,1,47.39,17.417Z" fill="#323c6b"/><path d="M64.81,12.09a3.622,3.622,0,0,1-1.03,2.53L52.11,26.53l-3.94,4.01a3.442,3.442,0,0,1-4.95,0,3.6,3.6,0,0,1-1.03-2.52,3.516,3.516,0,0,1,.33-1.49,3.245,3.245,0,0,1,.7-1.03L58.83,9.57a3.459,3.459,0,0,1,4.95,0A3.617,3.617,0,0,1,64.81,12.09Z" fill="#f4bb87"/><path d="M45.691,32.09h-.008a3.919,3.919,0,0,1-2.822-1.2A4.121,4.121,0,0,1,41.69,28.02a4.033,4.033,0,0,1,.377-1.7,3.682,3.682,0,0,1,.8-1.172L58.473,9.22a3.953,3.953,0,0,1,2.835-1.192h.007A3.929,3.929,0,0,1,64.138,9.22a4.11,4.11,0,0,1,0,5.748L48.526,30.891A3.94,3.94,0,0,1,45.691,32.09ZM61.309,9.027a2.96,2.96,0,0,0-2.123.894L43.577,25.85a2.723,2.723,0,0,0-.6.874,3.053,3.053,0,0,0-.291,1.3,3.115,3.115,0,0,0,.886,2.169,2.926,2.926,0,0,0,2.109.9h.006a2.949,2.949,0,0,0,2.121-.9L63.423,14.27a3.11,3.11,0,0,0,0-4.352,2.937,2.937,0,0,0-2.107-.891Z" fill="#323c6b"/><path d="M63.78,9.57a3.442,3.442,0,0,0-3.973-.684,3.44,3.44,0,0,1,.973.684,3.61,3.61,0,0,1,0,5.05L49.11,26.53l-3.94,4.01a3.476,3.476,0,0,1-.977.689,3.434,3.434,0,0,0,3.977-.689l3.94-4.01L63.78,14.62a3.61,3.61,0,0,0,0-5.05Z" fill="#e6b17d"/><path d="M31.81,28.02a3.6,3.6,0,0,1-1.03,2.52,3.442,3.442,0,0,1-4.95,0l-3.94-4.01L10.22,14.62a3.61,3.61,0,0,1,0-5.05,3.459,3.459,0,0,1,4.95,0L30.78,25.5a3.245,3.245,0,0,1,.7,1.03A3.516,3.516,0,0,1,31.81,28.02Z" fill="#f4bb87"/><path d="M28.309,32.09a3.941,3.941,0,0,1-2.836-1.2L9.863,14.97a4.109,4.109,0,0,1,0-5.749,3.93,3.93,0,0,1,2.822-1.194h.008a3.952,3.952,0,0,1,2.834,1.191L31.137,25.15a3.723,3.723,0,0,1,.8,1.186,4.014,4.014,0,0,1,.369,1.684,4.123,4.123,0,0,1-1.173,2.871,3.917,3.917,0,0,1-2.821,1.2ZM12.691,9.027h-.006a2.937,2.937,0,0,0-2.108.892,3.109,3.109,0,0,0,0,4.352L26.187,30.189a2.951,2.951,0,0,0,2.122.9h.005a2.925,2.925,0,0,0,2.108-.9,3.117,3.117,0,0,0,.888-2.172,3.033,3.033,0,0,0-.283-1.278,2.768,2.768,0,0,0-.6-.888L14.813,9.92A2.959,2.959,0,0,0,12.691,9.027Z" fill="#323c6b"/><rect x="49" y="42.03" width="4" height="18" rx="2" ry="2" fill="#dda97a"/><rect x="35" y="42.03" width="4" height="18" rx="2" ry="2" fill="#dda97a"/><rect x="21" y="42.03" width="4" height="18" rx="2" ry="2" fill="#dda97a"/><path d="M59.37,67.03H14.63a4.483,4.483,0,0,1-4.478-4.061L7.5,35.578A.5.5,0,0,1,8,35.03H66a.5.5,0,0,1,.5.548l-2.65,27.39A4.483,4.483,0,0,1,59.37,67.03Zm-50.819-31,2.6,26.842A3.486,3.486,0,0,0,14.63,66.03H59.37a3.486,3.486,0,0,0,3.482-3.159l2.6-26.841Z" fill="#323c6b"/><path d="M67,36.03H7a4.5,4.5,0,0,1-4.5-4.5v-1A4.5,4.5,0,0,1,7,26.03H21.89a.5.5,0,0,1,.356.149l3.94,4.01a2.951,2.951,0,0,0,2.122.9h.005a2.925,2.925,0,0,0,2.108-.9,3.117,3.117,0,0,0,.888-2.172,3.033,3.033,0,0,0-.283-1.278.5.5,0,0,1,.453-.712H42.52a.5.5,0,0,1,.453.712,3.033,3.033,0,0,0-.283,1.278,3.115,3.115,0,0,0,.886,2.169,2.926,2.926,0,0,0,2.109.9h.006a2.949,2.949,0,0,0,2.121-.9l3.941-4.011a.5.5,0,0,1,.356-.149H67a4.5,4.5,0,0,1,4.5,4.5v1A4.5,4.5,0,0,1,67,36.03Zm-60-9a3.5,3.5,0,0,0-3.5,3.5v1A3.5,3.5,0,0,0,7,35.03H67a3.5,3.5,0,0,0,3.5-3.5v-1a3.5,3.5,0,0,0-3.5-3.5H52.319l-3.793,3.861a3.94,3.94,0,0,1-2.835,1.2h-.008a3.917,3.917,0,0,1-2.822-1.2A4.118,4.118,0,0,1,41.69,28.02a4.05,4.05,0,0,1,.124-.99H32.187a4.05,4.05,0,0,1,.124.99,4.123,4.123,0,0,1-1.173,2.871,3.917,3.917,0,0,1-2.821,1.2h-.007a3.941,3.941,0,0,1-2.836-1.2l-3.792-3.86Z" fill="#323c6b"/><path d="M45.691,32.09h-.008a3.919,3.919,0,0,1-2.822-1.2A4.121,4.121,0,0,1,41.69,28.02a4.033,4.033,0,0,1,.377-1.7,3.682,3.682,0,0,1,.8-1.172L58.473,9.22a3.953,3.953,0,0,1,2.835-1.192h.007A3.929,3.929,0,0,1,64.138,9.22a4.11,4.11,0,0,1,0,5.748L48.526,30.891A3.94,3.94,0,0,1,45.691,32.09ZM61.309,9.027a2.96,2.96,0,0,0-2.123.894L43.577,25.85a2.723,2.723,0,0,0-.6.874,3.053,3.053,0,0,0-.291,1.3,3.115,3.115,0,0,0,.886,2.169,2.926,2.926,0,0,0,2.109.9h.006a2.949,2.949,0,0,0,2.121-.9L63.423,14.27a3.11,3.11,0,0,0,0-4.352,2.937,2.937,0,0,0-2.107-.891Z" fill="#323c6b"/></g></svg>
