<svg height="512" viewBox="0 0 74 74" width="512" xmlns="http://www.w3.org/2000/svg"><g id="Numbers"><text fill="#f00" font-family="ArialMT, Arial" font-size="18" transform="translate(31.995 -18.544)">6<tspan x="-5.005" y="124">16</tspan><tspan x="-5.005" y="248">26</tspan><tspan x="-5.005" y="372">36</tspan><tspan x="-5.005" y="496">46</tspan><tspan x="-5.005" y="620">56</tspan><tspan x="-5.005" y="744">66</tspan><tspan x="-5.005" y="868">76</tspan><tspan x="-5.005" y="992">86</tspan><tspan x="-5.005" y="1116">96</tspan><tspan x="-10.011" y="1240">106</tspan><tspan letter-spacing="-.074em" x="-9.343" y="1364">1</tspan><tspan x="-.668" y="1364">16</tspan><tspan x="-10.011" y="1488">126</tspan><tspan x="-10.011" y="1612">136</tspan><tspan x="-10.011" y="1736">146</tspan><tspan x="-10.011" y="1860">156</tspan><tspan x="-10.011" y="1984">166</tspan><tspan x="-10.011" y="2108">176</tspan><tspan x="-10.011" y="2232">186</tspan><tspan x="-10.011" y="2356">196</tspan><tspan x="-10.011" y="2480">206</tspan><tspan x="-10.011" y="2604">216</tspan><tspan x="-10.011" y="2728">226</tspan><tspan x="-10.011" y="2852">236</tspan><tspan x="-10.011" y="2976">246</tspan><tspan x="-10.011" y="3100">256</tspan><tspan x="-10.011" y="3224">266</tspan><tspan x="-10.011" y="3348">276</tspan><tspan x="-10.011" y="3472">286</tspan><tspan x="-10.011" y="3596">296</tspan></text></g><g id="color_styel" data-name="color styel"><g fill="#323c6b"><path d="m53.188 62.5h-.625a.5.5 0 0 1 0-1h.625a.5.5 0 0 1 0 1z"/><path d="m64.28 62.5h-8.342a.5.5 0 0 1 0-1h8.342a.5.5 0 0 1 0 1z"/><path d="m20.722 16.277a.5.5 0 0 1 -.221-.949q.576-.283 1.163-.548a.5.5 0 1 1 .41.912q-.57.257-1.132.533a.5.5 0 0 1 -.22.052z"/><path d="m8.568 25.847a.5.5 0 0 1 -.384-.82 37.669 37.669 0 0 1 9.091-7.91.5.5 0 0 1 .527.85 36.711 36.711 0 0 0 -8.851 7.7.5.5 0 0 1 -.383.18z"/></g><path d="m71 49a33.712 33.712 0 0 1 -1.5 10h-65a34 34 0 1 1 66.5-10z" fill="#eeefee"/><path d="m69.868 59.5h-65.736l-.109-.352a34.5 34.5 0 1 1 67.477-10.148 34.221 34.221 0 0 1 -1.522 10.148zm-65-1h64.262a33.5 33.5 0 1 0 -65.63-9.5 33.259 33.259 0 0 0 1.37 9.5z" fill="#323c6b"/><path d="m37 15a33.907 33.907 0 0 0 -12.256 2.286 33.954 33.954 0 0 1 42.025 41.714h2.731a34.011 34.011 0 0 0 -32.5-44z" fill="#dbd8dd"/><g fill="#323c6b"><path d="m36.5 15h1v5h-1z"/><path d="m20.75 19.22h.999v5h-.999z" transform="matrix(.866 -.5 .5 .866 -8.013 13.535)"/><path d="m9.22 30.75h1v5.001h-1z" transform="matrix(.5 -.866 .866 .5 -23.936 25.046)"/><path d="m3 48.5h5v1h-5z"/><path d="m66 48.5h5v1h-5z"/><path d="m61.779 32.75h5.001v1h-5.001z" transform="matrix(.866 -.5 .5 .866 -8.013 36.588)"/><path d="m50.25 21.221h5v.999h-5z" transform="matrix(.5 -.866 .866 .5 7.551 56.525)"/></g><circle cx="37" cy="49" fill="#69b0ee" r="4"/><path d="m37 53.5a4.5 4.5 0 1 1 4.5-4.5 4.5 4.5 0 0 1 -4.5 4.5zm0-8a3.5 3.5 0 1 0 3.5 3.5 3.5 3.5 0 0 0 -3.5-3.5z" fill="#323c6b"/><path d="m27.816 32.034h1v16.563h-1z" fill="#323c6b" transform="matrix(.707 -.707 .707 .707 -20.214 31.831)"/><path d="m69.5 59.5h-65a.5.5 0 0 1 -.478-.352 34.5 34.5 0 1 1 67.478-10.148 34.221 34.221 0 0 1 -1.522 10.148.5.5 0 0 1 -.478.352zm-64.63-1h64.26a33.5 33.5 0 1 0 -65.63-9.5 33.259 33.259 0 0 0 1.37 9.5z" fill="#323c6b"/><path d="m54.779 45.565c.035-.005.07-.012.1-.02a1.355 1.355 0 0 0 1.021-1.623 6.253 6.253 0 0 0 -.374-1.311 1.355 1.355 0 1 0 -2.559.888 4.294 4.294 0 0 1 .292 1.026 1.355 1.355 0 0 0 1.52 1.04z" fill="#fff"/><path d="m52.336 39.788a1.357 1.357 0 0 0 1.1-1.94c-4.161-8.6-12.993-10.195-13.323-10.354a1.355 1.355 0 0 0 -1.177 2.441c.073.035 8.324 1.368 12.061 9.093a1.356 1.356 0 0 0 1.339.76z" fill="#fff"/></g></svg>