<svg height="512" viewBox="0 0 74 74" width="512" xmlns="http://www.w3.org/2000/svg"><g id="Numbers"><text fill="#f00" font-family="ArialMT, Arial" font-size="18" transform="translate(31.994 -18.544)">7<tspan x="-5.005" y="124">17</tspan><tspan x="-5.005" y="248">27</tspan><tspan x="-5.005" y="372">37</tspan><tspan x="-5.005" y="496">47</tspan><tspan x="-5.005" y="620">57</tspan><tspan x="-5.005" y="744">67</tspan><tspan x="-5.005" y="868">77</tspan><tspan x="-5.005" y="992">87</tspan><tspan x="-5.005" y="1116">97</tspan><tspan x="-10.011" y="1240">107</tspan><tspan letter-spacing="-.074em" x="-9.343" y="1364">1</tspan><tspan x="-.668" y="1364">17</tspan><tspan x="-10.011" y="1488">127</tspan><tspan x="-10.011" y="1612">137</tspan><tspan x="-10.011" y="1736">147</tspan><tspan x="-10.011" y="1860">157</tspan><tspan x="-10.011" y="1984">167</tspan><tspan x="-10.011" y="2108">177</tspan><tspan x="-10.011" y="2232">187</tspan><tspan x="-10.011" y="2356">197</tspan><tspan x="-10.011" y="2480">207</tspan><tspan x="-10.011" y="2604">217</tspan><tspan x="-10.011" y="2728">227</tspan><tspan x="-10.011" y="2852">237</tspan><tspan x="-10.011" y="2976">247</tspan><tspan x="-10.011" y="3100">257</tspan><tspan x="-10.011" y="3224">267</tspan><tspan x="-10.011" y="3348">277</tspan><tspan x="-10.011" y="3472">287</tspan><tspan x="-10.011" y="3596">297</tspan></text></g><g id="color_styel" data-name="color styel"><path d="m5 65a2.006 2.006 0 0 1 -2-2v-13a2.006 2.006 0 0 1 2-2h64a2.006 2.006 0 0 1 2 2v13a2.006 2.006 0 0 1 -2 2" fill="#828a9e"/><path d="m69 65.5v-1a1.5 1.5 0 0 0 1.5-1.5v-13a1.5 1.5 0 0 0 -1.5-1.5h-64a1.5 1.5 0 0 0 -1.5 1.5v13a1.5 1.5 0 0 0 1.5 1.5v1a2.5 2.5 0 0 1 -2.5-2.5v-13a2.5 2.5 0 0 1 2.5-2.5h64a2.5 2.5 0 0 1 2.5 2.5v13a2.5 2.5 0 0 1 -2.5 2.5z" fill="#323c6b"/><path d="m69 48h-2a2.006 2.006 0 0 1 2 2v13a2.006 2.006 0 0 1 -2 2h2a2.006 2.006 0 0 0 2-2v-13a2.006 2.006 0 0 0 -2-2z" fill="#62667c"/><path d="m13 43h10v5h-10z" fill="#9a9eaf"/><path d="m23 48.5h-10a.5.5 0 0 1 -.5-.5v-5a.5.5 0 0 1 .5-.5h10a.5.5 0 0 1 .5.5v5a.5.5 0 0 1 -.5.5zm-9.5-1h9v-4h-9z" fill="#323c6b"/><path d="m21 43h2v5h-2z" fill="#828a9e"/><path d="m21 43h-6l1.93-30a1.072 1.072 0 0 1 2.14 0z" fill="#bbbbcd"/><path d="m21 43.5h-6a.5.5 0 0 1 -.5-.532l1.93-30a1.573 1.573 0 0 1 3.139 0l1.93 30a.5.5 0 0 1 -.5.532zm-5.467-1h4.934l-1.9-29.468a.573.573 0 0 0 -1.143 0z" fill="#323c6b"/><path d="m19.07 13a1.079 1.079 0 0 0 -1.07-1 1.065 1.065 0 0 0 -1 .739 1.037 1.037 0 0 1 .07.261l1.93 30h2z" fill="#9a9eaf"/><g fill="#323c6b"><path d="m21 43.5h-6a.5.5 0 0 1 -.5-.532l1.93-30a1.573 1.573 0 0 1 3.139 0l1.93 30a.5.5 0 0 1 -.5.532zm-5.467-1h4.934l-1.9-29.468a.573.573 0 0 0 -1.143 0z"/><path d="m23 48.5h-10a.5.5 0 0 1 -.5-.5v-5a.5.5 0 0 1 .5-.5h10a.5.5 0 0 1 .5.5v5a.5.5 0 0 1 -.5.5zm-9.5-1h9v-4h-9z"/><path d="m69 65.5h-64a2.5 2.5 0 0 1 -2.5-2.5v-13a2.5 2.5 0 0 1 2.5-2.5h64a2.5 2.5 0 0 1 2.5 2.5v13a2.5 2.5 0 0 1 -2.5 2.5zm-64-17a1.5 1.5 0 0 0 -1.5 1.5v13a1.5 1.5 0 0 0 1.5 1.5h64a1.5 1.5 0 0 0 1.5-1.5v-13a1.5 1.5 0 0 0 -1.5-1.5z"/></g><rect fill="#eeefee" height="9.987" rx=".677" width="1.354" x="5.09" y="52.834"/><rect fill="#eeefee" height="1.717" rx=".677" width="1.354" x="5.09" y="50.104"/><g fill="#323c6b"><path d="m30.1 22.577-.7-.707a10.985 10.985 0 0 0 0-15.516l.707-.707a11.984 11.984 0 0 1 -.007 16.93z"/><path d="m26.676 20.563-.707-.707a8.133 8.133 0 0 0 0-11.488l.707-.707a9.133 9.133 0 0 1 0 12.902z"/><path d="m23.249 18.549-.707-.707a5.282 5.282 0 0 0 0-7.46l.707-.707a6.283 6.283 0 0 1 0 8.874z"/><path d="m5.9 22.577a11.984 11.984 0 0 1 0-16.93l.707.707a10.985 10.985 0 0 0 0 15.516z"/><path d="m9.324 20.563a9.133 9.133 0 0 1 0-12.9l.707.707a8.133 8.133 0 0 0 0 11.488z"/><path d="m12.751 18.549a6.283 6.283 0 0 1 0-8.875l.707.707a5.282 5.282 0 0 0 0 7.46z"/></g><path d="m57.5 53h7v7h-7z" fill="#bbbbcd"/><path d="m64.5 60.5h-7a.5.5 0 0 1 -.5-.5v-7a.5.5 0 0 1 .5-.5h7a.5.5 0 0 1 .5.5v7a.5.5 0 0 1 -.5.5zm-6.5-1h6v-6h-6z" fill="#323c6b"/><path d="m46 53h7v7h-7z" fill="#bbbbcd"/><path d="m53 60.5h-7a.5.5 0 0 1 -.5-.5v-7a.5.5 0 0 1 .5-.5h7a.5.5 0 0 1 .5.5v7a.5.5 0 0 1 -.5.5zm-6.5-1h6v-6h-6z" fill="#323c6b"/><path d="m34.5 53h7v7h-7z" fill="#bbbbcd"/><path d="m41.5 60.5h-7a.5.5 0 0 1 -.5-.5v-7a.5.5 0 0 1 .5-.5h7a.5.5 0 0 1 .5.5v7a.5.5 0 0 1 -.5.5zm-6.5-1h6v-6h-6z" fill="#323c6b"/><path d="m22 53h7v7h-7z" fill="#bbbbcd"/><path d="m29 60.5h-7a.5.5 0 0 1 -.5-.5v-7a.5.5 0 0 1 .5-.5h7a.5.5 0 0 1 .5.5v7a.5.5 0 0 1 -.5.5zm-6.5-1h6v-6h-6z" fill="#323c6b"/><path d="m64 65v2a1 1 0 0 1 -1 1h-7a1 1 0 0 1 -1-1v-2z" fill="#828a9e"/><path d="m63 68.5h-7a1.5 1.5 0 0 1 -1.5-1.5v-2.5h10v2.5a1.5 1.5 0 0 1 -1.5 1.5zm-7.5-3v1.5a.5.5 0 0 0 .5.5h7a.5.5 0 0 0 .5-.5v-1.5z" fill="#323c6b"/><path d="m19 65v2a1 1 0 0 1 -1 1h-7a1 1 0 0 1 -1-1v-2z" fill="#828a9e"/><path d="m18 68.5h-7a1.5 1.5 0 0 1 -1.5-1.5v-2.5h10v2.5a1.5 1.5 0 0 1 -1.5 1.5zm-7.5-3v1.5a.5.5 0 0 0 .5.5h7a.5.5 0 0 0 .5-.5v-1.5z" fill="#323c6b"/></g></svg>