<svg height="512" viewBox="0 0 74 74" width="512" xmlns="http://www.w3.org/2000/svg"><g id="Numbers"><text fill="#f00" font-family="ArialMT, Arial" font-size="18" transform="translate(31.994 -18.544)">9<tspan x="-5.005" y="124">19</tspan><tspan x="-5.005" y="248">29</tspan><tspan x="-5.005" y="372">39</tspan><tspan x="-5.005" y="496">49</tspan><tspan x="-5.005" y="620">59</tspan><tspan x="-5.005" y="744">69</tspan><tspan x="-5.005" y="868">79</tspan><tspan x="-5.005" y="992">89</tspan><tspan x="-5.005" y="1116">99</tspan><tspan x="-10.011" y="1240">109</tspan><tspan letter-spacing="-.074em" x="-9.343" y="1364">1</tspan><tspan x="-.668" y="1364">19</tspan><tspan x="-10.011" y="1488">129</tspan><tspan x="-10.011" y="1612">139</tspan><tspan x="-10.011" y="1736">149</tspan><tspan x="-10.011" y="1860">159</tspan><tspan x="-10.011" y="1984">169</tspan><tspan x="-10.011" y="2108">179</tspan><tspan x="-10.011" y="2232">189</tspan><tspan x="-10.011" y="2356">199</tspan><tspan x="-10.011" y="2480">209</tspan><tspan x="-10.011" y="2604">219</tspan><tspan x="-10.011" y="2728">229</tspan><tspan x="-10.011" y="2852">239</tspan><tspan x="-10.011" y="2976">249</tspan><tspan x="-10.011" y="3100">259</tspan><tspan x="-10.011" y="3224">269</tspan><tspan x="-10.011" y="3348">279</tspan><tspan x="-10.011" y="3472">289</tspan><tspan x="-10.011" y="3596">299</tspan></text></g><g id="color_styel" data-name="color styel"><g fill="#323c6b"><path d="m17.68 17.017a.5.5 0 0 1 -.3-.9c.286-.218.577-.432.87-.64a.5.5 0 0 1 .58.814q-.428.3-.845.622a.5.5 0 0 1 -.305.104z"/><path d="m9.379 26.4a.5.5 0 0 1 -.432-.753 32.793 32.793 0 0 1 6.709-8.116.5.5 0 1 1 .658.752 31.82 31.82 0 0 0 -6.5 7.87.5.5 0 0 1 -.435.247z"/><path d="m64.938 58.091a.5.5 0 0 1 -.437-.744c.17-.3.337-.612.5-.922a.5.5 0 1 1 .889.459q-.249.48-.513.952a.5.5 0 0 1 -.439.255z"/><path d="m66.527 54.835a.5.5 0 0 1 -.461-.693 31.221 31.221 0 0 0 2.434-12.142.5.5 0 0 1 1 0 32.214 32.214 0 0 1 -2.512 12.528.5.5 0 0 1 -.461.307z"/></g><path d="m66 42a29 29 0 1 1 -33-28.72 28.715 28.715 0 0 1 8 0 29.021 29.021 0 0 1 25 28.72z" fill="#9a9eaf"/><path d="m37 71.5a29.492 29.492 0 1 1 29.5-29.5 29.533 29.533 0 0 1 -29.5 29.5zm0-58a27.517 27.517 0 0 0 -3.929.274 28.448 28.448 0 1 0 7.86 0 27.316 27.316 0 0 0 -3.931-.274z" fill="#323c6b"/><path d="m57.48 21.48a29.1 29.1 0 0 0 -16.48-8.2 27.7 27.7 0 0 0 -4-.28c-.337 0-.666.023-1 .034a27.053 27.053 0 0 1 3 .246 28.994 28.994 0 0 1 -3 57.695c.333.011.665.025 1 .025a28.991 28.991 0 0 0 20.48-49.52z" fill="#828a9e"/><path d="m37 65a23 23 0 1 1 23-23 23.026 23.026 0 0 1 -23 23z" fill="#b6d2dd"/><path d="m37 65.5a23.5 23.5 0 1 1 23.5-23.5 23.527 23.527 0 0 1 -23.5 23.5zm0-46a22.5 22.5 0 1 0 22.5 22.5 22.526 22.526 0 0 0 -22.5-22.5z" fill="#323c6b"/><rect fill="#828a9e" height="5" rx="1" width="20" x="27" y="3"/><path d="m46 8.5h-18a1.5 1.5 0 0 1 -1.5-1.5v-3a1.5 1.5 0 0 1 1.5-1.5h18a1.5 1.5 0 0 1 1.5 1.5v3a1.5 1.5 0 0 1 -1.5 1.5zm-18-5a.5.5 0 0 0 -.5.5v3a.5.5 0 0 0 .5.5h18a.5.5 0 0 0 .5-.5v-3a.5.5 0 0 0 -.5-.5z" fill="#323c6b"/><path d="m46 3h-3a1 1 0 0 1 1 1v3a1 1 0 0 1 -1 1h3a1 1 0 0 0 1-1v-3a1 1 0 0 0 -1-1z" fill="#62667c"/><path d="m41 8v5.28a28.715 28.715 0 0 0 -8 0v-5.28z" fill="#828a9e"/><path d="m41.5 13.858-.572-.084a28.378 28.378 0 0 0 -7.856 0l-.571.083v-6.357h9zm-8-5.358v4.208a29.654 29.654 0 0 1 7 0v-4.208z" fill="#323c6b"/><path d="m38 8v5.034a27.056 27.056 0 0 1 3 .246v-5.28z" fill="#62667c"/><path d="m34 13c-.337 0-.667.023-1 .034v.246c.824-.12 1.659-.186 2.5-.229-.5-.025-1-.051-1.5-.051z" fill="#62667c"/><path d="m37 71.5a29.492 29.492 0 1 1 29.5-29.5 29.533 29.533 0 0 1 -29.5 29.5zm0-58a27.517 27.517 0 0 0 -3.929.274 28.448 28.448 0 1 0 7.86 0 27.316 27.316 0 0 0 -3.931-.274z" fill="#323c6b"/><path d="m61 16.5a2.5 2.5 0 0 1 -.58 1.6l-2.94 3.38a28.692 28.692 0 0 0 -3.83-3.21l2.93-3.37a2.5 2.5 0 0 1 4.42 1.6z" fill="#828a9e"/><path d="m57.506 22.212-.379-.379a28.4 28.4 0 0 0 -3.764-3.154l-.454-.318 3.291-3.789a2.958 2.958 0 0 1 2.024-1.057 3 3 0 0 1 2.577 4.9zm-3.117-4.029a29.4 29.4 0 0 1 3.063 2.568l2.592-2.979a2 2 0 0 0 -1.726-3.262 1.978 1.978 0 0 0 -1.353.709z" fill="#323c6b"/><path d="m60.1 14.58a2.5 2.5 0 0 0 -2.6-.358 2.43 2.43 0 0 1 1.5 2.278 2.5 2.5 0 0 1 -.58 1.6l-2.053 2.361c.374.336.757.663 1.114 1.019l2.94-3.38a2.5 2.5 0 0 0 -.32-3.52z" fill="#62667c"/><g fill="#323c6b"><path d="m57.506 22.212-.379-.379a28.4 28.4 0 0 0 -3.764-3.154l-.454-.318 3.291-3.789a2.958 2.958 0 0 1 2.024-1.057 3 3 0 0 1 2.577 4.9zm-3.117-4.029a29.4 29.4 0 0 1 3.063 2.568l2.592-2.979a2 2 0 0 0 -1.726-3.262 1.978 1.978 0 0 0 -1.353.709z"/><path d="m46 8.5h-18a1.5 1.5 0 0 1 -1.5-1.5v-3a1.5 1.5 0 0 1 1.5-1.5h18a1.5 1.5 0 0 1 1.5 1.5v3a1.5 1.5 0 0 1 -1.5 1.5zm-18-5a.5.5 0 0 0 -.5.5v3a.5.5 0 0 0 .5.5h18a.5.5 0 0 0 .5-.5v-3a.5.5 0 0 0 -.5-.5z"/><path d="m41.5 13.858-.572-.084a28.378 28.378 0 0 0 -7.856 0l-.571.083v-6.357h9zm-8-5.358v4.208a29.654 29.654 0 0 1 7 0v-4.208z"/></g><circle cx="37" cy="42" fill="#eeefee" r="3"/><path d="m37 45.5a3.5 3.5 0 1 1 3.5-3.5 3.5 3.5 0 0 1 -3.5 3.5zm0-6a2.5 2.5 0 1 0 2.5 2.5 2.5 2.5 0 0 0 -2.5-2.5z" fill="#323c6b"/><path d="m36.5 27h1v12h-1z" fill="#323c6b"/><path d="m24 41.5h10v1h-10z" fill="#323c6b"/><path d="m30.978 60.116c0 .023-.008.047-.01.072a.92.92 0 0 0 .825 1.006 4.246 4.246 0 0 0 .925.041.92.92 0 0 0 -.018-1.835 2.916 2.916 0 0 1 -.724-.033.92.92 0 0 0 -.998.749z" fill="#eeefee"/><path d="m35.225 59.788a.921.921 0 0 0 1.012 1.126 13.657 13.657 0 0 0 9.539-6.349.92.92 0 0 0 -1.318-1.284 11.937 11.937 0 0 1 -8.458 5.808.921.921 0 0 0 -.775.699z" fill="#eeefee"/></g></svg>