<?xml version="1.0"?>
<svg xmlns="http://www.w3.org/2000/svg" viewBox="0 0 74 74" width="512" height="512"><g id="Numbers"><text transform="translate(30.995 -142.544)" font-size="18" fill="red" font-family="ArialMT, Arial">1<tspan x="-4.337" y="124" letter-spacing="-0.074em">1</tspan><tspan x="4.337" y="124">1</tspan><tspan x="-5.005" y="248">21</tspan><tspan x="-5.005" y="372">31</tspan><tspan x="-5.005" y="496">41</tspan><tspan x="-5.005" y="620">51</tspan><tspan x="-5.005" y="744">61</tspan><tspan x="-5.005" y="868">71</tspan><tspan x="-5.005" y="992">81</tspan><tspan x="-5.005" y="1116">91</tspan><tspan x="-10.011" y="1240">101</tspan><tspan x="-8.675" y="1364" letter-spacing="-0.074em">11</tspan><tspan x="8.675" y="1364">1</tspan><tspan x="-10.011" y="1488">121</tspan><tspan x="-10.011" y="1612">131</tspan><tspan x="-10.011" y="1736">141</tspan><tspan x="-10.011" y="1860">151</tspan><tspan x="-10.011" y="1984">161</tspan><tspan x="-10.011" y="2108">171</tspan><tspan x="-10.011" y="2232">181</tspan><tspan x="-10.011" y="2356">191</tspan><tspan x="-10.011" y="2480">201</tspan><tspan x="-9.343" y="2604">2</tspan><tspan x="0.668" y="2604" letter-spacing="-0.074em">1</tspan><tspan x="9.343" y="2604">1</tspan><tspan x="-10.011" y="2728">221</tspan><tspan x="-10.011" y="2852">231</tspan><tspan x="-10.011" y="2976">241</tspan><tspan x="-10.011" y="3100">251</tspan><tspan x="-10.011" y="3224">261</tspan><tspan x="-10.011" y="3348">271</tspan><tspan x="-10.011" y="3472">281</tspan><tspan x="-10.011" y="3596">291</tspan></text></g><g id="color_styel" data-name="color styel"><path d="M70.7,19.161V54.839a3.948,3.948,0,0,1-1.348,2.973L48.994,35.6,70.243,17.328A3.924,3.924,0,0,1,70.7,19.161Z" fill="#f4bb87"/><path d="M69.351,58.312a.5.5,0,0,1-.369-.162L48.626,35.94a.5.5,0,0,1,.042-.717L69.917,16.949a.5.5,0,0,1,.769.146,4.449,4.449,0,0,1,.514,2.067V54.839a4.46,4.46,0,0,1-1.518,3.349A.5.5,0,0,1,69.351,58.312ZM49.712,35.645,69.365,57.088a3.457,3.457,0,0,0,.834-2.249V19.161a3.415,3.415,0,0,0-.152-1.005Z" fill="#323c6b"/><path d="M70.243,17.328l-2.1,2.165V54.839a1.749,1.749,0,0,0-.565,1.034l1.778,1.94A3.948,3.948,0,0,0,70.7,54.839V19.161A3.924,3.924,0,0,0,70.243,17.328Z" fill="#e6b17d"/><path d="M36.094,12.724H34.608a.5.5,0,0,1,0-1h1.486a.5.5,0,0,1,0,1Z" fill="#323c6b"/><path d="M31.387,12.724H17.76a.5.5,0,0,1,0-1H31.387a.5.5,0,0,1,0,1Z" fill="#323c6b"/><path d="M70.243,17.328,48.994,35.6,37,45.919,24.833,35.454,3.763,17.328A3.953,3.953,0,0,1,7.271,15.2H66.734A3.953,3.953,0,0,1,70.243,17.328Z" fill="#fed19a"/><path d="M37,46.419a.5.5,0,0,1-.326-.121L3.437,17.707A.5.5,0,0,1,3.32,17.1a4.451,4.451,0,0,1,3.951-2.4H66.734a4.451,4.451,0,0,1,3.951,2.4.5.5,0,0,1-.117.611L37.329,46.3A.5.5,0,0,1,37,46.419Zm-32.6-29.2L37,45.26,69.6,17.222A3.45,3.45,0,0,0,66.734,15.7H7.271A3.45,3.45,0,0,0,4.407,17.222Z" fill="#323c6b"/><path d="M24.833,35.454,4.486,57.663a3.994,3.994,0,0,1-1.179-2.824V19.161a3.924,3.924,0,0,1,.456-1.833Z" fill="#f4bb87"/><path d="M4.486,58.164a.5.5,0,0,1-.354-.146,4.471,4.471,0,0,1-1.326-3.178V19.161a4.451,4.451,0,0,1,.514-2.066.5.5,0,0,1,.769-.146l21.07,18.126a.5.5,0,0,1,.042.717L4.855,58a.5.5,0,0,1-.358.162ZM3.959,18.156a3.414,3.414,0,0,0-.152,1V54.839A3.455,3.455,0,0,0,4.5,56.913L24.115,35.5Z" fill="#323c6b"/><path d="M57.072,62.276h-1.4a.5.5,0,0,1,0-1h1.4a.5.5,0,0,1,0,1Z" fill="#323c6b"/><path d="M66.734,62.276h-5.7a.5.5,0,0,1,0-1h5.7a6.454,6.454,0,0,0,4.243-1.6.5.5,0,1,1,.658.753A7.452,7.452,0,0,1,66.734,62.276Z" fill="#323c6b"/><path d="M69.351,57.812a3.964,3.964,0,0,1-2.616.991H7.271a3.985,3.985,0,0,1-2.785-1.14l20.346-22.21L37,45.919,48.994,35.6Z" fill="#fed19a"/><path d="M66.734,59.3H7.271a4.474,4.474,0,0,1-3.133-1.281.5.5,0,0,1-.02-.7L24.464,35.116a.5.5,0,0,1,.695-.041L37,45.26,48.668,35.224a.5.5,0,0,1,.695.041L69.719,57.474a.5.5,0,0,1-.04.714A4.481,4.481,0,0,1,66.734,59.3ZM5.2,57.62a3.464,3.464,0,0,0,2.066.684H66.734a3.46,3.46,0,0,0,1.876-.558L48.954,36.3l-11.625,10a.5.5,0,0,1-.652,0l-11.8-10.149Z" fill="#323c6b"/><path d="M69.351,58.312a.5.5,0,0,1-.369-.162L48.626,35.94a.5.5,0,0,1,.042-.717L69.917,16.949a.5.5,0,0,1,.769.146,4.449,4.449,0,0,1,.514,2.067V54.839a4.46,4.46,0,0,1-1.518,3.349A.5.5,0,0,1,69.351,58.312ZM49.712,35.645,69.365,57.088a3.457,3.457,0,0,0,.834-2.249V19.161a3.415,3.415,0,0,0-.152-1.005Z" fill="#323c6b"/><path d="M37,46.419a.5.5,0,0,1-.326-.121L3.437,17.707A.5.5,0,0,1,3.32,17.1a4.451,4.451,0,0,1,3.951-2.4H66.734a4.451,4.451,0,0,1,3.951,2.4.5.5,0,0,1-.117.611L37.329,46.3A.5.5,0,0,1,37,46.419Zm-32.6-29.2L37,45.26,69.6,17.222A3.45,3.45,0,0,0,66.734,15.7H7.271A3.45,3.45,0,0,0,4.407,17.222Z" fill="#323c6b"/><rect x="5.362" y="29.506" width="1.207" height="8.9" rx="0.603" ry="0.603" fill="#eeefee"/><rect x="5.362" y="26.344" width="1.207" height="1.53" rx="0.603" ry="0.603" fill="#eeefee"/></g></svg>
