<svg height="512" viewBox="0 0 74 74" width="512" xmlns="http://www.w3.org/2000/svg"><g id="Numbers"><text fill="#f00" font-family="ArialMT, Arial" font-size="18" transform="translate(31.995 -142.544)">2<tspan x="-5.005" y="124">12</tspan><tspan x="-5.005" y="248">22</tspan><tspan x="-5.005" y="372">32</tspan><tspan x="-5.005" y="496">42</tspan><tspan x="-5.005" y="620">52</tspan><tspan x="-5.005" y="744">62</tspan><tspan x="-5.005" y="868">72</tspan><tspan x="-5.005" y="992">82</tspan><tspan x="-5.005" y="1116">92</tspan><tspan x="-10.011" y="1240">102</tspan><tspan letter-spacing="-.074em" x="-9.343" y="1364">1</tspan><tspan x="-.668" y="1364">12</tspan><tspan x="-10.011" y="1488">122</tspan><tspan x="-10.011" y="1612">132</tspan><tspan x="-10.011" y="1736">142</tspan><tspan x="-10.011" y="1860">152</tspan><tspan x="-10.011" y="1984">162</tspan><tspan x="-10.011" y="2108">172</tspan><tspan x="-10.011" y="2232">182</tspan><tspan x="-10.011" y="2356">192</tspan><tspan x="-10.011" y="2480">202</tspan><tspan x="-10.011" y="2604">212</tspan><tspan x="-10.011" y="2728">222</tspan><tspan x="-10.011" y="2852">232</tspan><tspan x="-10.011" y="2976">242</tspan><tspan x="-10.011" y="3100">252</tspan><tspan x="-10.011" y="3224">262</tspan><tspan x="-10.011" y="3348">272</tspan><tspan x="-10.011" y="3472">282</tspan><tspan x="-10.011" y="3596">292</tspan></text></g><g id="color_styel" data-name="color styel"><g fill="#323c6b"><path d="m13.1 24.713a.49.49 0 0 1 -.166-.028.5.5 0 0 1 -.306-.637 26.681 26.681 0 0 1 7.97-11.623.5.5 0 1 1 .643.766 25.691 25.691 0 0 0 -7.669 11.188.5.5 0 0 1 -.472.334z"/><path d="m12.311 27.377a.485.485 0 0 1 -.118-.014.5.5 0 0 1 -.369-.6q.084-.349.177-.694a.5.5 0 0 1 .966.259q-.089.333-.171.67a.5.5 0 0 1 -.485.379z"/><path d="m66.453 53.323a.5.5 0 0 1 -.427-.239q-.3-.5-.6-1.042a.5.5 0 0 1 .875-.483c.194.35.388.686.583 1a.5.5 0 0 1 -.426.761z"/><path d="m64.737 50.073a.5.5 0 0 1 -.454-.29c-1.549-3.348-3.205-8.229-3.205-11.883a.5.5 0 0 1 1 0c0 2.921 1.193 7.314 3.112 11.463a.5.5 0 0 1 -.244.664.493.493 0 0 1 -.209.046z"/></g><path d="m65.547 58.31a4.678 4.678 0 0 1 -4.69 4.69h-48.62a4.69 4.69 0 0 1 -4.69-4.69 4.627 4.627 0 0 1 .85-2.69c3.03-4.32 6.12-12.44 6.12-17.72v-4.29c0-12.63 8.97-23.25 21.59-23.49 6.54-.12 11.46 2.48 15.72 6.74a22.968 22.968 0 0 1 6.75 16.29v4.75c0 5.28 3.09 13.4 6.12 17.72a4.627 4.627 0 0 1 .85 2.69z" fill="#fed19a"/><path d="m60.857 63.5h-48.62a5.2 5.2 0 0 1 -5.19-5.19 5.113 5.113 0 0 1 .942-2.979c2.91-4.149 6.028-12.146 6.028-17.431v-4.29c0-13.437 9.493-23.75 22.081-23.99 6.135-.1 11.271 2.075 16.083 6.886a23.423 23.423 0 0 1 6.9 16.644v4.75c0 5.286 3.117 13.281 6.029 17.433a5.184 5.184 0 0 1 -4.253 8.167zm-24.312-52.884c-.142 0-.285 0-.428 0-12.028.229-21.1 10.112-21.1 22.99v4.294c0 5.474-3.211 13.73-6.211 18.007a4.121 4.121 0 0 0 -.759 2.4 4.194 4.194 0 0 0 4.19 4.19h48.62a4.178 4.178 0 0 0 4.19-4.19 4.117 4.117 0 0 0 -.758-2.4c-3-4.279-6.212-12.535-6.212-18.01v-4.747a22.428 22.428 0 0 0 -6.6-15.937c-4.497-4.493-9.251-6.597-14.932-6.597z" fill="#323c6b"/><path d="m64.7 55.62c-3.03-4.32-6.12-12.44-6.12-17.72v-4.75a22.968 22.968 0 0 0 -6.75-16.29c-4.26-4.26-9.18-6.86-15.72-6.74-.523.01-1.037.044-1.547.089 5.345.492 9.557 2.941 13.267 6.651a22.968 22.968 0 0 1 6.75 16.29v4.75c0 5.28 3.09 13.4 6.12 17.72a4.627 4.627 0 0 1 .85 2.69 4.678 4.678 0 0 1 -4.693 4.69h4a4.678 4.678 0 0 0 4.69-4.69 4.627 4.627 0 0 0 -.847-2.69z" fill="#f4bb87"/><path d="m20.836 25.876a.5.5 0 0 1 -.467-.678q.234-.614.5-1.2a.5.5 0 1 1 .91.414q-.256.562-.478 1.145a.5.5 0 0 1 -.465.319z" fill="#eeefee"/><path d="m22.378 22.7a.5.5 0 0 1 -.427-.759 18.508 18.508 0 0 1 6.349-6.341.5.5 0 1 1 .51.86 17.507 17.507 0 0 0 -6 6 .5.5 0 0 1 -.432.24z" fill="#eeefee"/><path d="m36.547 10.618a4.059 4.059 0 1 1 4.059-4.059 4.063 4.063 0 0 1 -4.059 4.059zm0-7.118a3.059 3.059 0 1 0 3.059 3.059 3.062 3.062 0 0 0 -3.059-3.059z" fill="#323c6b"/><path d="m44.547 63a8 8 0 1 1 -16 0z" fill="#f4bb87"/><path d="m36.547 71.5a8.51 8.51 0 0 1 -8.5-8.5.5.5 0 0 1 .5-.5h16a.5.5 0 0 1 .5.5 8.51 8.51 0 0 1 -8.5 8.5zm-7.483-8a7.5 7.5 0 0 0 14.967 0z" fill="#323c6b"/><path d="m41.478 63a7.945 7.945 0 0 1 -8.911 6.934 7.992 7.992 0 0 0 11.98-6.934z" fill="#e6b17d"/><g fill="#323c6b"><path d="m60.857 63.5h-48.62a5.2 5.2 0 0 1 -5.19-5.19 5.113 5.113 0 0 1 .942-2.979c2.91-4.149 6.028-12.146 6.028-17.431v-4.29c0-13.437 9.493-23.75 22.081-23.99 6.135-.1 11.271 2.075 16.083 6.886a23.423 23.423 0 0 1 6.9 16.644v4.75c0 5.286 3.117 13.281 6.029 17.433a5.184 5.184 0 0 1 -4.253 8.167zm-24.312-52.884c-.142 0-.285 0-.428 0-12.028.229-21.1 10.112-21.1 22.99v4.294c0 5.474-3.211 13.73-6.211 18.007a4.121 4.121 0 0 0 -.759 2.4 4.194 4.194 0 0 0 4.19 4.19h48.62a4.178 4.178 0 0 0 4.19-4.19 4.117 4.117 0 0 0 -.758-2.4c-3-4.279-6.212-12.535-6.212-18.01v-4.747a22.428 22.428 0 0 0 -6.6-15.937c-4.497-4.493-9.251-6.597-14.932-6.597z"/><path d="m36.547 71.5a8.51 8.51 0 0 1 -8.5-8.5.5.5 0 0 1 .5-.5h16a.5.5 0 0 1 .5.5 8.51 8.51 0 0 1 -8.5 8.5zm-7.483-8a7.5 7.5 0 0 0 14.967 0z"/></g></g></svg>