<svg height="512" viewBox="0 0 74 74" width="512" xmlns="http://www.w3.org/2000/svg"><g id="Numbers"><text fill="#f00" font-family="ArialMT, Arial" font-size="18" transform="translate(31.995 -142.544)">3<tspan x="-5.005" y="124">13</tspan><tspan x="-5.005" y="248">23</tspan><tspan x="-5.005" y="372">33</tspan><tspan x="-5.005" y="496">43</tspan><tspan x="-5.005" y="620">53</tspan><tspan x="-5.005" y="744">63</tspan><tspan x="-5.005" y="868">73</tspan><tspan x="-5.005" y="992">83</tspan><tspan x="-5.005" y="1116">93</tspan><tspan x="-10.011" y="1240">103</tspan><tspan letter-spacing="-.074em" x="-9.343" y="1364">1</tspan><tspan x="-.668" y="1364">13</tspan><tspan x="-10.011" y="1488">123</tspan><tspan x="-10.011" y="1612">133</tspan><tspan x="-10.011" y="1736">143</tspan><tspan x="-10.011" y="1860">153</tspan><tspan x="-10.011" y="1984">163</tspan><tspan x="-10.011" y="2108">173</tspan><tspan x="-10.011" y="2232">183</tspan><tspan x="-10.011" y="2356">193</tspan><tspan x="-10.011" y="2480">203</tspan><tspan x="-10.011" y="2604">213</tspan><tspan x="-10.011" y="2728">223</tspan><tspan x="-10.011" y="2852">233</tspan><tspan x="-10.011" y="2976">243</tspan><tspan x="-10.011" y="3100">253</tspan><tspan x="-10.011" y="3224">263</tspan><tspan x="-10.011" y="3348">273</tspan><tspan x="-10.011" y="3472">283</tspan><tspan x="-10.011" y="3596">293</tspan></text></g><g id="color_styel" data-name="color styel"><g fill="#323c6b"><path d="m9.226 29.9a.5.5 0 0 1 -.5-.5v-10.653a.5.5 0 0 1 1 0v10.653a.5.5 0 0 1 -.5.5z"/><path d="m9.226 34.211a.5.5 0 0 1 -.5-.5v-.958a.5.5 0 0 1 1 0v.958a.5.5 0 0 1 -.5.5z"/><path d="m53.88 73h-.958a.5.5 0 0 1 0-1h.958a.5.5 0 0 1 0 1z"/><path d="m64.774 73h-7.861a.5.5 0 0 1 0-1h7.361v-4.768a.5.5 0 0 1 1 0v5.268a.5.5 0 0 1 -.5.5z"/></g><path d="m61.901 17.908v51.719h-49.802v-65.127h36.394v13.408z" fill="#eeefee"/><path d="m61.9 70.127h-49.8a.5.5 0 0 1 -.5-.5v-65.127a.5.5 0 0 1 .5-.5h36.393a.5.5 0 0 1 .5.5v12.909h12.907a.5.5 0 0 1 .5.5v51.718a.5.5 0 0 1 -.5.5zm-49.3-1h48.8v-50.718h-12.907a.5.5 0 0 1 -.5-.5v-12.909h-35.393z" fill="#323c6b"/><path d="m59.986 17.908h1.915v51.718h-1.915z" fill="#dbd8dd"/><path d="m61.901 17.908h-13.408v-13.408z" fill="#dbd8dd"/><path d="m61.9 18.409h-13.407a.5.5 0 0 1 -.5-.5v-13.409a.5.5 0 0 1 .854-.354l13.408 13.409a.5.5 0 0 1 -.354.854zm-12.908-1h11.7l-11.7-11.7z" fill="#323c6b"/><path d="m59.028 17.908h2.873l-13.408-13.408v2.873z" fill="#bbbbcd"/><path d="m61.9 70.127h-49.8a.5.5 0 0 1 -.5-.5v-65.127a.5.5 0 0 1 .5-.5h36.393a.5.5 0 0 1 .5.5v12.909h12.907a.5.5 0 0 1 .5.5v51.718a.5.5 0 0 1 -.5.5zm-49.3-1h48.8v-50.718h-12.907a.5.5 0 0 1 -.5-.5v-12.909h-35.393z" fill="#323c6b"/><path d="m61.9 18.409h-13.407a.5.5 0 0 1 -.5-.5v-13.409a.5.5 0 0 1 .854-.354l13.408 13.409a.5.5 0 0 1 -.354.854zm-12.908-1h11.7l-11.7-11.7z" fill="#323c6b"/><path d="m18.803 11.204h13.408v11.493h-13.408z" fill="#fff"/><g fill="#323c6b"><path d="m32.211 23.2h-13.411a.5.5 0 0 1 -.5-.5v-11.5a.5.5 0 0 1 .5-.5h13.411a.5.5 0 0 1 .5.5v11.5a.5.5 0 0 1 -.5.5zm-12.911-1h12.411v-10.5h-12.411z"/><path d="m16.887 29.859h33.521v1h-33.521z"/><path d="m16.887 37.521h40.226v1h-40.226z"/><path d="m16.887 45.183h40.226v1h-40.226z"/><path d="m16.887 52.845h40.226v1h-40.226z"/><path d="m16.887 60.507h40.226v1h-40.226z"/></g></g></svg>