<svg height="512" viewBox="0 0 74 74" width="512" xmlns="http://www.w3.org/2000/svg"><g id="Numbers"><text fill="#f00" font-family="ArialMT, Arial" font-size="18" transform="translate(31.995 -142.544)">4<tspan x="-5.005" y="124">14</tspan><tspan x="-5.005" y="248">24</tspan><tspan x="-5.005" y="372">34</tspan><tspan x="-5.005" y="496">44</tspan><tspan x="-5.005" y="620">54</tspan><tspan x="-5.005" y="744">64</tspan><tspan x="-5.005" y="868">74</tspan><tspan x="-5.005" y="992">84</tspan><tspan x="-5.005" y="1116">94</tspan><tspan x="-10.011" y="1240">104</tspan><tspan letter-spacing="-.074em" x="-9.343" y="1364">1</tspan><tspan x="-.668" y="1364">14</tspan><tspan x="-10.011" y="1488">124</tspan><tspan x="-10.011" y="1612">134</tspan><tspan x="-10.011" y="1736">144</tspan><tspan x="-10.011" y="1860">154</tspan><tspan x="-10.011" y="1984">164</tspan><tspan x="-10.011" y="2108">174</tspan><tspan x="-10.011" y="2232">184</tspan><tspan x="-10.011" y="2356">194</tspan><tspan x="-10.011" y="2480">204</tspan><tspan x="-10.011" y="2604">214</tspan><tspan x="-10.011" y="2728">224</tspan><tspan x="-10.011" y="2852">234</tspan><tspan x="-10.011" y="2976">244</tspan><tspan x="-10.011" y="3100">254</tspan><tspan x="-10.011" y="3224">264</tspan><tspan x="-10.011" y="3348">274</tspan><tspan x="-10.011" y="3472">284</tspan><tspan x="-10.011" y="3596">294</tspan></text></g><g id="color_styel" data-name="color styel"><path d="m56.25 59.5h-1.312a.5.5 0 0 1 0-1h1.312a.5.5 0 0 1 0 1z" fill="#323c6b"/><path d="m59 59.5a.5.5 0 0 1 0-1 6.508 6.508 0 0 0 6.5-6.5.5.5 0 0 1 1 0 7.508 7.508 0 0 1 -7.5 7.5z" fill="#323c6b"/><path d="m63 20v32a4 4 0 0 1 -4 4h-35l-12 10v-10h-5a4 4 0 0 1 -4-4v-32a4 4 0 0 1 4-4h52a4 4 0 0 1 4 4z" fill="#b6d2dd"/><path d="m12 66.5a.5.5 0 0 1 -.5-.5v-9.5h-4.5a4.5 4.5 0 0 1 -4.5-4.5v-32a4.5 4.5 0 0 1 4.5-4.5h52a4.5 4.5 0 0 1 4.5 4.5v32a4.5 4.5 0 0 1 -4.5 4.5h-34.819l-11.861 9.884a.5.5 0 0 1 -.32.116zm-5-50a3.5 3.5 0 0 0 -3.5 3.5v32a3.5 3.5 0 0 0 3.5 3.5h5a.5.5 0 0 1 .5.5v8.933l11.18-9.317a.5.5 0 0 1 .32-.116h35a3.5 3.5 0 0 0 3.5-3.5v-32a3.5 3.5 0 0 0 -3.5-3.5z" fill="#323c6b"/><path d="m59 16h-3a4 4 0 0 1 4 4v32a4 4 0 0 1 -4 4h3a4 4 0 0 0 4-4v-32a4 4 0 0 0 -4-4z" fill="#acc6cc"/><path d="m38.375 5.5h-.812a.5.5 0 0 1 0-1h.813a.5.5 0 0 1 0 1z" fill="#323c6b"/><path d="m34.688 5.5h-9.625a.5.5 0 0 1 0-1h9.625a.5.5 0 0 1 0 1z" fill="#323c6b"/><path d="m71 12v31a4 4 0 0 1 -4 4h-4v-27a4 4 0 0 0 -4-4h-47v-4a4 4 0 0 1 4-4h51a4 4 0 0 1 4 4z" fill="#fed19a"/><path d="m67 47.5h-4a.5.5 0 0 1 -.5-.5v-27a3.5 3.5 0 0 0 -3.5-3.5h-47a.5.5 0 0 1 -.5-.5v-4a4.5 4.5 0 0 1 4.5-4.5h51a4.5 4.5 0 0 1 4.5 4.5v31a4.5 4.5 0 0 1 -4.5 4.5zm-3.5-1h3.5a3.5 3.5 0 0 0 3.5-3.5v-31a3.5 3.5 0 0 0 -3.5-3.5h-51a3.5 3.5 0 0 0 -3.5 3.5v3.5h46.5a4.5 4.5 0 0 1 4.5 4.5z" fill="#323c6b"/><path d="m67 8h-51a3.993 3.993 0 0 0 -3.641 2.359 3.973 3.973 0 0 1 1.641-.359h51a4 4 0 0 1 4 4v31a3.973 3.973 0 0 1 -.359 1.641 3.993 3.993 0 0 0 2.359-3.641v-31a4 4 0 0 0 -4-4z" fill="#f4bb87"/><g fill="#323c6b"><path d="m9 23.5h35.745v1h-35.745z"/><path d="m9 31.5h48v1h-48z"/><path d="m9 39.5h48v1h-48z"/><path d="m9 47.5h48v1h-48z"/><path d="m12 66.5a.5.5 0 0 1 -.5-.5v-9.5h-4.5a4.5 4.5 0 0 1 -4.5-4.5v-32a4.5 4.5 0 0 1 4.5-4.5h52a4.5 4.5 0 0 1 4.5 4.5v32a4.5 4.5 0 0 1 -4.5 4.5h-34.819l-11.861 9.884a.5.5 0 0 1 -.32.116zm-5-50a3.5 3.5 0 0 0 -3.5 3.5v32a3.5 3.5 0 0 0 3.5 3.5h5a.5.5 0 0 1 .5.5v8.933l11.18-9.317a.5.5 0 0 1 .32-.116h35a3.5 3.5 0 0 0 3.5-3.5v-32a3.5 3.5 0 0 0 -3.5-3.5z"/><path d="m67 47.5h-4a.5.5 0 0 1 -.5-.5v-27a3.5 3.5 0 0 0 -3.5-3.5h-47a.5.5 0 0 1 -.5-.5v-4a4.5 4.5 0 0 1 4.5-4.5h51a4.5 4.5 0 0 1 4.5 4.5v31a4.5 4.5 0 0 1 -4.5 4.5zm-3.5-1h3.5a3.5 3.5 0 0 0 3.5-3.5v-31a3.5 3.5 0 0 0 -3.5-3.5h-51a3.5 3.5 0 0 0 -3.5 3.5v3.5h46.5a4.5 4.5 0 0 1 4.5 4.5z"/></g></g></svg>