<svg height="512" viewBox="0 0 74 74" width="512" xmlns="http://www.w3.org/2000/svg"><g id="Numbers"><text fill="#f00" font-family="ArialMT, Arial" font-size="18" transform="translate(31.995 -142.544)">6<tspan x="-5.005" y="124">16</tspan><tspan x="-5.005" y="248">26</tspan><tspan x="-5.005" y="372">36</tspan><tspan x="-5.005" y="496">46</tspan><tspan x="-5.005" y="620">56</tspan><tspan x="-5.005" y="744">66</tspan><tspan x="-5.005" y="868">76</tspan><tspan x="-5.005" y="992">86</tspan><tspan x="-5.005" y="1116">96</tspan><tspan x="-10.011" y="1240">106</tspan><tspan letter-spacing="-.074em" x="-9.343" y="1364">1</tspan><tspan x="-.668" y="1364">16</tspan><tspan x="-10.011" y="1488">126</tspan><tspan x="-10.011" y="1612">136</tspan><tspan x="-10.011" y="1736">146</tspan><tspan x="-10.011" y="1860">156</tspan><tspan x="-10.011" y="1984">166</tspan><tspan x="-10.011" y="2108">176</tspan><tspan x="-10.011" y="2232">186</tspan><tspan x="-10.011" y="2356">196</tspan><tspan x="-10.011" y="2480">206</tspan><tspan x="-10.011" y="2604">216</tspan><tspan x="-10.011" y="2728">226</tspan><tspan x="-10.011" y="2852">236</tspan><tspan x="-10.011" y="2976">246</tspan><tspan x="-10.011" y="3100">256</tspan><tspan x="-10.011" y="3224">266</tspan><tspan x="-10.011" y="3348">276</tspan><tspan x="-10.011" y="3472">286</tspan><tspan x="-10.011" y="3596">296</tspan></text></g><g id="color_styel" data-name="color styel"><path d="m68.014 28.392-5.973 21.392h-.009a8.477 8.477 0 0 0 -2.058-.257 8.271 8.271 0 0 0 -8.274 8.273h-45.943l8.043-29.408z" fill="#fed19a"/><path d="m51.7 58.3h-45.943a.5.5 0 0 1 -.482-.632l8.04-29.405a.5.5 0 0 1 .482-.368h54.217a.5.5 0 0 1 .481.634l-5.973 21.389a.516.516 0 0 1 -.612.351 8 8 0 0 0 -1.937-.243 7.779 7.779 0 0 0 -7.773 7.774.5.5 0 0 1 -.5.5zm-45.291-1h44.8a8.781 8.781 0 0 1 8.756-8.271 8.927 8.927 0 0 1 1.714.168l5.668-20.3h-53.168z" fill="#323c6b"/><path d="m65.257 28.392-5.91 21.167c.207-.016.415-.032.626-.032a8.477 8.477 0 0 1 2.058.257h.009l5.973-21.392z" fill="#f4bb87"/><path d="m70.041 62.795a.5.5 0 0 1 -.456-.7 10.618 10.618 0 0 0 .576-1.636.5.5 0 0 1 .967.254 11.492 11.492 0 0 1 -.628 1.787.5.5 0 0 1 -.459.295z" fill="#323c6b"/><path d="m71 58.3a.5.5 0 0 1 -.5-.5 10.55 10.55 0 0 0 -4.447-8.6.5.5 0 1 1 .578-.816 11.554 11.554 0 0 1 4.869 9.416.5.5 0 0 1 -.5.5z" fill="#323c6b"/><path d="m68.243 57.8a8.27 8.27 0 1 1 -8.27-8.27 8.477 8.477 0 0 1 2.058.257h.009a8.283 8.283 0 0 1 6.203 8.013z" fill="#b6d2dd"/><path d="m59.973 66.567a8.77 8.77 0 0 1 0-17.541 9.009 9.009 0 0 1 2.146.264l.048.009a8.773 8.773 0 0 1 -2.193 17.268zm0-16.541a7.747 7.747 0 1 0 1.978.25l-.04-.008a8 8 0 0 0 -1.938-.241z" fill="#323c6b"/><path d="m62.711 49.989a8.264 8.264 0 0 1 -7.353 14.671 8.272 8.272 0 1 0 7.352-14.672z" fill="#acc6cc"/><path d="m3 28.892a.5.5 0 0 1 -.5-.5v-10.852a.5.5 0 0 1 1 0v10.852a.5.5 0 0 1 -.5.5z" fill="#323c6b"/><path d="m3 33.85a.5.5 0 0 1 -.5-.5v-1.512a.5.5 0 0 1 1 0v1.512a.5.5 0 0 1 -.5.5z" fill="#323c6b"/><path d="m59.973 17.539v10.853h-46.176l-8.04 29.405v-46.865h14.702l5.514 6.607z" fill="#f4bb87"/><path d="m5.757 58.3a.517.517 0 0 1 -.066 0 .5.5 0 0 1 -.434-.5v-46.867a.5.5 0 0 1 .5-.5h14.7a.5.5 0 0 1 .384.18l5.364 6.427h33.768a.5.5 0 0 1 .5.5v10.852a.5.5 0 0 1 -.5.5h-45.794l-7.94 29.037a.5.5 0 0 1 -.482.371zm.5-46.865v42.64l7.057-25.815a.5.5 0 0 1 .482-.368h45.677v-9.852h-33.5a.5.5 0 0 1 -.384-.18l-5.364-6.427z" fill="#323c6b"/><path d="m57.216 17.539h2.757v10.852h-2.757z" fill="#e6b17d"/><g fill="#323c6b"><path d="m59.473 53.203h1v9.189h-1z"/><path d="m55.378 57.297h9.189v1h-9.189z"/><path d="m51.7 58.3h-45.943a.5.5 0 0 1 -.482-.632l8.04-29.405a.5.5 0 0 1 .482-.368h54.217a.5.5 0 0 1 .481.634l-5.973 21.389a.516.516 0 0 1 -.612.351 8 8 0 0 0 -1.937-.243 7.779 7.779 0 0 0 -7.773 7.774.5.5 0 0 1 -.5.5zm-45.291-1h44.8a8.781 8.781 0 0 1 8.756-8.271 8.927 8.927 0 0 1 1.714.168l5.668-20.3h-53.168z"/><path d="m59.973 66.567a8.77 8.77 0 0 1 0-17.541 9.009 9.009 0 0 1 2.146.264l.048.009a8.773 8.773 0 0 1 -2.193 17.268zm0-16.541a7.747 7.747 0 1 0 1.978.25l-.04-.008a8 8 0 0 0 -1.938-.241z"/><path d="m5.757 58.3a.517.517 0 0 1 -.066 0 .5.5 0 0 1 -.434-.5v-46.867a.5.5 0 0 1 .5-.5h14.7a.5.5 0 0 1 .384.18l5.364 6.427h33.768a.5.5 0 0 1 .5.5v10.852a.5.5 0 0 1 -.5.5h-45.794l-7.94 29.037a.5.5 0 0 1 -.482.371zm.5-46.865v42.64l7.057-25.815a.5.5 0 0 1 .482-.368h45.677v-9.852h-33.5a.5.5 0 0 1 -.384-.18l-5.364-6.427z"/></g><g fill="#eeefee"><rect height="1.471" rx=".736" width="10.848" x="13.272" y="54.468"/><rect height="1.471" rx=".736" width="1.865" x="9.719" y="54.468"/></g></g></svg>