<svg height="512" viewBox="0 0 74 74" width="512" xmlns="http://www.w3.org/2000/svg"><g id="Numbers"><text fill="#f00" font-family="ArialMT, Arial" font-size="18" transform="translate(31.994 -142.544)">7<tspan x="-5.005" y="124">17</tspan><tspan x="-5.005" y="248">27</tspan><tspan x="-5.005" y="372">37</tspan><tspan x="-5.005" y="496">47</tspan><tspan x="-5.005" y="620">57</tspan><tspan x="-5.005" y="744">67</tspan><tspan x="-5.005" y="868">77</tspan><tspan x="-5.005" y="992">87</tspan><tspan x="-5.005" y="1116">97</tspan><tspan x="-10.011" y="1240">107</tspan><tspan letter-spacing="-.074em" x="-9.343" y="1364">1</tspan><tspan x="-.668" y="1364">17</tspan><tspan x="-10.011" y="1488">127</tspan><tspan x="-10.011" y="1612">137</tspan><tspan x="-10.011" y="1736">147</tspan><tspan x="-10.011" y="1860">157</tspan><tspan x="-10.011" y="1984">167</tspan><tspan x="-10.011" y="2108">177</tspan><tspan x="-10.011" y="2232">187</tspan><tspan x="-10.011" y="2356">197</tspan><tspan x="-10.011" y="2480">207</tspan><tspan x="-10.011" y="2604">217</tspan><tspan x="-10.011" y="2728">227</tspan><tspan x="-10.011" y="2852">237</tspan><tspan x="-10.011" y="2976">247</tspan><tspan x="-10.011" y="3100">257</tspan><tspan x="-10.011" y="3224">267</tspan><tspan x="-10.011" y="3348">277</tspan><tspan x="-10.011" y="3472">287</tspan><tspan x="-10.011" y="3596">297</tspan></text></g><g id="color_styel" data-name="color styel"><path d="m70.5 14.856a9.359 9.359 0 1 1 -9.356-9.356 9.355 9.355 0 0 1 9.356 9.356z" fill="#fed19a"/><path d="m61.145 24.715a9.835 9.835 0 0 1 -6.56-2.5 9.857 9.857 0 1 1 6.56 2.5zm0-18.715a8.859 8.859 0 1 0 8.855 8.855 8.869 8.869 0 0 0 -8.855-8.855z" fill="#323c6b"/><path d="m62.616 5.623a9.346 9.346 0 0 1 -5.866 17.487 9.352 9.352 0 1 0 5.866-17.487z" fill="#f4bb87"/><path d="m61.145 72a.5.5 0 1 1 0-1 11.808 11.808 0 0 0 7.669-2.834.5.5 0 1 1 .65.76 12.807 12.807 0 0 1 -8.319 3.074z" fill="#323c6b"/><path d="m71.008 67.054a.5.5 0 0 1 -.4-.8q.253-.338.482-.695a.5.5 0 1 1 .842.54q-.249.387-.525.755a.5.5 0 0 1 -.399.2z" fill="#323c6b"/><path d="m70.5 59.189a9.357 9.357 0 1 1 -9.359-9.359 9.355 9.355 0 0 1 9.359 9.359z" fill="#2cbfae"/><path d="m61.145 69.048a9.859 9.859 0 1 1 9.855-9.859 9.87 9.87 0 0 1 -9.855 9.859zm0-18.718a8.859 8.859 0 1 0 8.855 8.859 8.839 8.839 0 0 0 -8.855-8.859z" fill="#323c6b"/><path d="m61.145 24.715a9.835 9.835 0 0 1 -6.56-2.5 9.857 9.857 0 1 1 6.56 2.5zm0-18.715a8.859 8.859 0 1 0 8.855 8.855 8.869 8.869 0 0 0 -8.855-8.855z" fill="#323c6b"/><path d="m64.757 50.553a9.36 9.36 0 0 1 -10.181 15.3 9.359 9.359 0 1 0 10.181-15.3z" fill="#16a897"/><g fill="#323c6b"><path d="m61.145 69.048a9.859 9.859 0 1 1 9.855-9.859 9.87 9.87 0 0 1 -9.855 9.859zm0-18.718a8.859 8.859 0 1 0 8.855 8.859 8.839 8.839 0 0 0 -8.855-8.859z"/><path d="m21.714 21.36a.488.488 0 0 1 -.131-.018c-.279-.076-.562-.144-.845-.205a.5.5 0 0 1 .211-.978c.3.065.6.137.9.218a.5.5 0 0 1 -.131.982z"/><path d="m6.524 24.713a.5.5 0 0 1 -.322-.882 17.253 17.253 0 0 1 11.1-4.057.5.5 0 1 1 0 1 16.25 16.25 0 0 0 -10.455 3.826.5.5 0 0 1 -.323.113z"/></g><path d="m31.1 37.022a13.72 13.72 0 0 1 -.463 3.566 13.817 13.817 0 1 1 0-7.133 13.719 13.719 0 0 1 .463 3.567z" fill="#fca495"/><path d="m17.3 51.315a14.272 14.272 0 1 1 11-5.147 14.308 14.308 0 0 1 -11 5.147zm0-27.585a13.273 13.273 0 1 0 10.225 4.783 13.308 13.308 0 0 0 -10.225-4.784z" fill="#323c6b"/><path d="m30.633 33.456a13.7 13.7 0 0 0 -7.178-8.774c.173.186.356.363.519.558a13.894 13.894 0 0 1 2.719 5.26 13.967 13.967 0 0 1 0 7.133 13.771 13.771 0 0 1 -13.33 10.226 13.73 13.73 0 0 1 -6.163-1.459 13.79 13.79 0 0 0 20.713-.547 13.893 13.893 0 0 0 2.719-5.261 13.967 13.967 0 0 0 0-7.133z" fill="#ea8d81"/><path d="m54.918 21.841-24.285 11.615a13.894 13.894 0 0 0 -2.719-5.261l24.049-11.495a9.37 9.37 0 0 0 2.955 5.141z" fill="#dbd8dd"/><path d="m30.306 34.167-.155-.582a13.314 13.314 0 0 0 -2.622-5.072l-.407-.493 25.2-12.049.128.628a8.917 8.917 0 0 0 2.8 4.868l.563.5zm-1.611-5.791a14.266 14.266 0 0 1 2.255 4.374l23.1-11.05a9.953 9.953 0 0 1 -2.431-4.285z" fill="#323c6b"/><path d="m51.963 16.7-.177.085c.527 1.007.321 2.341 1.163 3.087l-23.249 11.119a13.643 13.643 0 0 1 .936 2.465l24.282-11.615a9.37 9.37 0 0 1 -2.955-5.141z" fill="#bbbbcd"/><path d="m54.918 52.2a9.37 9.37 0 0 0 -2.956 5.143l-24.048-11.5a13.893 13.893 0 0 0 2.719-5.261z" fill="#dbd8dd"/><path d="m52.325 58.074-25.2-12.049.407-.493a13.311 13.311 0 0 0 2.622-5.072l.155-.582 25.508 12.2-.563.5a8.922 8.922 0 0 0 -2.8 4.869zm-23.631-12.406 22.926 10.96a9.957 9.957 0 0 1 2.431-4.285l-23.101-11.049a14.277 14.277 0 0 1 -2.256 4.374z" fill="#323c6b"/><path d="m30.633 40.589a13.893 13.893 0 0 1 -2.719 5.261l.715.342a13.668 13.668 0 0 0 1.018-2.647l23.3 11.142a9.316 9.316 0 0 1 1.971-2.487z" fill="#bbbbcd"/><path d="m17.3 51.315a14.272 14.272 0 1 1 11-5.147 14.308 14.308 0 0 1 -11 5.147zm0-27.585a13.273 13.273 0 1 0 10.225 4.783 13.308 13.308 0 0 0 -10.225-4.784z" fill="#323c6b"/><path d="m30.306 34.167-.155-.582a13.314 13.314 0 0 0 -2.622-5.072l-.407-.493 25.2-12.049.128.628a8.917 8.917 0 0 0 2.8 4.868l.563.5zm-1.611-5.791a14.266 14.266 0 0 1 2.255 4.374l23.1-11.05a9.953 9.953 0 0 1 -2.431-4.285z" fill="#323c6b"/><path d="m52.325 58.074-25.2-12.049.407-.493a13.311 13.311 0 0 0 2.622-5.072l.155-.582 25.508 12.2-.563.5a8.922 8.922 0 0 0 -2.8 4.869zm-23.631-12.406 22.926 10.96a9.957 9.957 0 0 1 2.431-4.285l-23.101-11.049a14.277 14.277 0 0 1 -2.256 4.374z" fill="#323c6b"/><g fill="#fff"><path d="m11.375 28.394c-.013-.015-.027-.03-.041-.044a.767.767 0 0 0 -1.085 0 3.54 3.54 0 0 0 -.515.575.767.767 0 1 0 1.2.958 2.431 2.431 0 0 1 .4-.449.767.767 0 0 0 .041-1.04z"/><path d="m9.343 31.306a.768.768 0 0 0 -1.261.058 11.385 11.385 0 0 0 -.945 9.505.767.767 0 0 0 1.525-.169 9.951 9.951 0 0 1 .721-8.52.767.767 0 0 0 -.04-.874z"/><path d="m57.161 9.334-.026-.028a.478.478 0 0 0 -.677 0 2.208 2.208 0 0 0 -.321.358.478.478 0 1 0 .747.6 1.516 1.516 0 0 1 .252-.28.479.479 0 0 0 .025-.65z"/><path d="m55.894 11.151a.479.479 0 0 0 -.787.036 7.1 7.1 0 0 0 -.589 5.93.479.479 0 0 0 .951-.107 6.208 6.208 0 0 1 .45-5.315.479.479 0 0 0 -.025-.544z"/><path d="m57.144 53.79-.026-.028a.478.478 0 0 0 -.677 0 2.208 2.208 0 0 0 -.321.358.478.478 0 0 0 .747.6 1.516 1.516 0 0 1 .252-.28.479.479 0 0 0 .025-.65z"/><path d="m55.877 55.607a.479.479 0 0 0 -.787.036 7.1 7.1 0 0 0 -.589 5.93.479.479 0 0 0 .951-.107 6.208 6.208 0 0 1 .45-5.315.479.479 0 0 0 -.025-.544z"/></g></g></svg>