<svg height="512" viewBox="0 0 74 74" width="512" xmlns="http://www.w3.org/2000/svg"><g id="Numbers"><text fill="#f00" font-family="ArialMT, Arial" font-size="18" transform="translate(31.994 -142.544)">9<tspan x="-5.005" y="124">19</tspan><tspan x="-5.005" y="248">29</tspan><tspan x="-5.005" y="372">39</tspan><tspan x="-5.005" y="496">49</tspan><tspan x="-5.005" y="620">59</tspan><tspan x="-5.005" y="744">69</tspan><tspan x="-5.005" y="868">79</tspan><tspan x="-5.005" y="992">89</tspan><tspan x="-5.005" y="1116">99</tspan><tspan x="-10.011" y="1240">109</tspan><tspan letter-spacing="-.074em" x="-9.343" y="1364">1</tspan><tspan x="-.668" y="1364">19</tspan><tspan x="-10.011" y="1488">129</tspan><tspan x="-10.011" y="1612">139</tspan><tspan x="-10.011" y="1736">149</tspan><tspan x="-10.011" y="1860">159</tspan><tspan x="-10.011" y="1984">169</tspan><tspan x="-10.011" y="2108">179</tspan><tspan x="-10.011" y="2232">189</tspan><tspan x="-10.011" y="2356">199</tspan><tspan x="-10.011" y="2480">209</tspan><tspan x="-10.011" y="2604">219</tspan><tspan x="-10.011" y="2728">229</tspan><tspan x="-10.011" y="2852">239</tspan><tspan x="-10.011" y="2976">249</tspan><tspan x="-10.011" y="3100">259</tspan><tspan x="-10.011" y="3224">269</tspan><tspan x="-10.011" y="3348">279</tspan><tspan x="-10.011" y="3472">289</tspan><tspan x="-10.011" y="3596">299</tspan></text></g><g id="color_styel" data-name="color styel"><circle cx="38.5" cy="37" fill="#eeefee" r="6"/><g fill="#323c6b"><path d="m38.5 43.5a6.5 6.5 0 1 1 6.5-6.5 6.508 6.508 0 0 1 -6.5 6.5zm0-12a5.5 5.5 0 1 0 5.5 5.5 5.507 5.507 0 0 0 -5.5-5.5z"/><path d="m38 3h1v28h-1z"/><path d="m38.5 11.364-5.011-5.01.707-.708 4.304 4.304 4.304-4.304.707.708z"/><path d="m38.5 19.707-5.011-5.01.707-.707 4.304 4.303 4.304-4.303.707.707z"/><path d="m38 43h1v28h-1z"/><path d="m42.804 68.354-4.304-4.304-4.304 4.304-.707-.708 5.011-5.01 5.011 5.01z"/><path d="m42.804 60.01-4.304-4.303-4.304 4.303-.707-.707 5.011-5.01 5.011 5.01z"/><path d="m4.5 36.5h28v1h-28z"/><path d="m7.854 42.01-.708-.707 4.304-4.303-4.304-4.303.708-.707 5.01 5.01z"/><path d="m16.196 42.01-.707-.707 4.304-4.303-4.304-4.303.707-.707 5.011 5.01z"/><path d="m44.5 36.5h28v1h-28z"/><path d="m69.146 42.01-5.01-5.01 5.01-5.01.708.707-4.304 4.303 4.304 4.303z"/><path d="m60.804 42.01-5.011-5.01 5.011-5.01.707.707-4.304 4.303 4.304 4.303z"/><path d="m23.858 8.858h1v28h-1z" transform="matrix(.707 -.707 .707 .707 -9.029 23.919)"/><path d="m20.373 18.873h-7.086v-1h6.086v-6.086h1z"/><path d="m26.272 24.772h-7.085v-1h6.085v-6.085h1z"/><path d="m52.142 37.142h1v28h-1z" transform="matrix(.707 -.707 .707 .707 -20.744 52.205)"/><path d="m57.627 62.213h-1v-7.086h7.086v1h-6.086z"/><path d="m51.728 56.313h-1v-7.085h7.085v1h-6.085z"/><path d="m38.642 22.358h28v1h-28z" transform="matrix(.707 -.707 .707 .707 -.744 43.919)"/><path d="m63.713 18.873h-7.086v-7.086h1v6.086h6.086z"/><path d="m57.813 24.772h-7.085v-7.085h1v6.085h6.085z"/><path d="m10.358 50.642h28v1h-28z" transform="matrix(.707 -.707 .707 .707 -29.029 32.203)"/><path d="m20.373 62.213h-1v-6.086h-6.086v-1h7.086z"/><path d="m26.272 56.313h-1v-6.085h-6.085v-1h7.085z"/></g></g></svg>