<svg height="512" viewBox="0 0 74 74" width="512" xmlns="http://www.w3.org/2000/svg"><g id="Numbers"><text fill="#f00" font-family="ArialMT, Arial" font-size="18" transform="translate(26.989 -142.544)">10<tspan x="0" y="124">20</tspan><tspan x="0" y="248">30</tspan><tspan x="0" y="372">40</tspan><tspan x="0" y="496">50</tspan><tspan x="0" y="620">60</tspan><tspan x="0" y="744">70</tspan><tspan x="0" y="868">80</tspan><tspan x="0" y="992">90</tspan><tspan x="-5.005" y="1116">100</tspan><tspan letter-spacing="-.074em" x="-4.337" y="1240">1</tspan><tspan x="4.337" y="1240">10</tspan><tspan x="-5.005" y="1364">120</tspan><tspan x="-5.005" y="1488">130</tspan><tspan x="-5.005" y="1612">140</tspan><tspan x="-5.005" y="1736">150</tspan><tspan x="-5.005" y="1860">160</tspan><tspan x="-5.005" y="1984">170</tspan><tspan x="-5.005" y="2108">180</tspan><tspan x="-5.005" y="2232">190</tspan><tspan x="-5.005" y="2356">200</tspan><tspan x="-5.005" y="2480">210</tspan><tspan x="-5.005" y="2604">220</tspan><tspan x="-5.005" y="2728">230</tspan><tspan x="-5.005" y="2852">240</tspan><tspan x="-5.005" y="2976">250</tspan><tspan x="-5.005" y="3100">260</tspan><tspan x="-5.005" y="3224">270</tspan><tspan x="-5.005" y="3348">280</tspan><tspan x="-5.005" y="3472">290</tspan><tspan x="-5.005" y="3596">300</tspan></text></g><g id="color_styel" data-name="color styel"><path d="m51 17v11h-28v-11a14 14 0 1 1 28 0z" fill="#bbbbcd"/><path d="m46.9 7.1a13.957 13.957 0 0 0 -11.4-4.017 13.993 13.993 0 0 1 12.5 13.917v11h3v-11a13.994 13.994 0 0 0 -4.1-9.9z" fill="#9a9eaf"/><path d="m51 28v11a14 14 0 1 1 -28 0v-11" fill="#9a9eaf"/><path d="m37 53.5a14.5 14.5 0 0 1 -14.5-14.5v-11h1v11a13.5 13.5 0 0 0 27 0v-11h1v11a14.517 14.517 0 0 1 -14.5 14.5z" fill="#323c6b"/><path d="m48 28v10a14 14 0 0 1 -16.835 13.711 13.973 13.973 0 0 0 19.835-12.711v-11z" fill="#828a9e"/><g fill="#323c6b"><path d="m37 59.5a20.523 20.523 0 0 1 -20.5-20.5v-6h1v6a19.5 19.5 0 0 0 39 0v-6h1v6a20.523 20.523 0 0 1 -20.5 20.5z"/><path d="m36.5 59h1v12h-1z"/><path d="m28 70.5h18v1h-18z"/></g><g fill="#828a9e"><path d="m29.5 4.88h1v9.7h-1z"/><path d="m36.5 3h1v15.58h-1z"/><path d="m43.5 4.88h1v9.7h-1z"/></g><path d="m37 53.5a14.5 14.5 0 0 1 -14.5-14.5v-11h1v11a13.5 13.5 0 0 0 27 0v-11h1v11a14.517 14.517 0 0 1 -14.5 14.5z" fill="#323c6b"/><path d="m51.5 28h-1v-11a13.5 13.5 0 0 0 -27 0v11h-1v-11a14.5 14.5 0 1 1 29 0z" fill="#323c6b"/><path d="m26.556 32.988h-.067a.888.888 0 0 0 -.876.94 4.118 4.118 0 0 0 .027.881.805.805 0 0 0 .928.712.972.972 0 0 0 .779-1.023 6.268 6.268 0 0 0 -.02-.689.791.791 0 0 0 -.771-.821z" fill="#bbbbcd"/><path d="m26.818 37.013a.846.846 0 0 0 -.31 0 1.006 1.006 0 0 0 -.8 1.007 12.78 12.78 0 0 0 4.377 9.968.867.867 0 0 0 1.224-.071.876.876 0 0 0 .048-1.23c-.035-.035-3.693-2.748-3.921-8.964a.752.752 0 0 0 -.618-.71z" fill="#bbbbcd"/></g></svg>