<svg height="512" viewBox="0 0 74 74" width="512" xmlns="http://www.w3.org/2000/svg"><g id="Numbers"><text fill="#f00" font-family="ArialMT, Arial" font-size="18" transform="translate(30.995 -266.544)">1<tspan letter-spacing="-.074em" x="-4.337" y="124">1</tspan><tspan x="4.337" y="124">1</tspan><tspan x="-5.005" y="248">21</tspan><tspan x="-5.005" y="372">31</tspan><tspan x="-5.005" y="496">41</tspan><tspan x="-5.005" y="620">51</tspan><tspan x="-5.005" y="744">61</tspan><tspan x="-5.005" y="868">71</tspan><tspan x="-5.005" y="992">81</tspan><tspan x="-5.005" y="1116">91</tspan><tspan x="-10.011" y="1240">101</tspan><tspan letter-spacing="-.074em" x="-8.675" y="1364">11</tspan><tspan x="8.675" y="1364">1</tspan><tspan x="-10.011" y="1488">121</tspan><tspan x="-10.011" y="1612">131</tspan><tspan x="-10.011" y="1736">141</tspan><tspan x="-10.011" y="1860">151</tspan><tspan x="-10.011" y="1984">161</tspan><tspan x="-10.011" y="2108">171</tspan><tspan x="-10.011" y="2232">181</tspan><tspan x="-10.011" y="2356">191</tspan><tspan x="-10.011" y="2480">201</tspan><tspan x="-9.343" y="2604">2</tspan><tspan letter-spacing="-.074em" x=".668" y="2604">1</tspan><tspan x="9.343" y="2604">1</tspan><tspan x="-10.011" y="2728">221</tspan><tspan x="-10.011" y="2852">231</tspan><tspan x="-10.011" y="2976">241</tspan><tspan x="-10.011" y="3100">251</tspan><tspan x="-10.011" y="3224">261</tspan><tspan x="-10.011" y="3348">271</tspan><tspan x="-10.011" y="3472">281</tspan><tspan x="-10.011" y="3596">291</tspan></text></g><g id="color_styel" data-name="color styel"><path d="m64.674 21.234-4.911 4.921-5.901-5.901-5.902-5.902 4.922-4.91z" fill="#eeefee"/><path d="m59.763 26.655a.5.5 0 0 1 -.354-.146l-11.8-11.8a.5.5 0 0 1 0-.708l4.921-4.911a.5.5 0 0 1 .707 0l11.79 11.79a.5.5 0 0 1 0 .707l-4.911 4.921a.5.5 0 0 1 -.354.147zm-11.1-12.3 11.1 11.095 4.2-4.213-11.082-11.089z" fill="#323c6b"/><path d="m62.52 19.08-4.911 4.922-4.824-4.825 1.077 1.077 5.901 5.901 4.911-4.921z" fill="#dbd8dd"/><path d="m53.862 20.254-40.579 40.578a13.439 13.439 0 0 0 -7.872-3.932l42.549-42.548z" fill="#9dceb2"/><g fill="#323c6b"><path d="m13.283 61.333a.5.5 0 0 1 -.353-.146 12.879 12.879 0 0 0 -7.574-3.787.5.5 0 0 1 -.3-.851l42.55-42.549a.5.5 0 0 1 .707 0l5.9 5.9a.5.5 0 0 1 0 .707l-40.576 40.579a.5.5 0 0 1 -.354.147zm-6.82-4.776a14.034 14.034 0 0 1 6.814 3.575l39.877-39.878-5.194-5.194z"/><path d="m31.571 59.417a.5.5 0 0 1 -.354-.854l6.465-6.463a.5.5 0 0 1 .707.707l-6.464 6.464a.5.5 0 0 1 -.354.146z"/><path d="m40.523 50.465a.5.5 0 0 1 -.354-.854l1.212-1.211a.5.5 0 0 1 .707.707l-1.211 1.212a.5.5 0 0 1 -.354.146z"/></g><path d="m59.763 26.155-42.549 42.545a13.44 13.44 0 0 0 -3.931-7.872l40.579-40.574z" fill="#b1dcc1"/><path d="m17.214 69.2a.5.5 0 0 1 -.5-.445 12.882 12.882 0 0 0 -3.788-7.574.5.5 0 0 1 0-.706l40.582-40.575a.5.5 0 0 1 .707 0l5.9 5.9a.5.5 0 0 1 0 .707l-42.548 42.551a.5.5 0 0 1 -.353.142zm-3.23-8.366a14.031 14.031 0 0 1 3.575 6.813l41.5-41.5-5.195-5.194z" fill="#323c6b"/><path d="m57.609 24-41.3 41.3a12.115 12.115 0 0 1 .907 3.4l42.547-42.545z" fill="#9dceb2"/><path d="m17.214 68.7-16.714 4.915 4.911-16.715a13.439 13.439 0 0 1 7.872 3.931 13.44 13.44 0 0 1 3.931 7.869z" fill="#fed19a"/><path d="m.5 74.116a.5.5 0 0 1 -.479-.641l4.91-16.714a.506.506 0 0 1 .534-.356 13.881 13.881 0 0 1 8.171 4.073 13.886 13.886 0 0 1 4.075 8.172.5.5 0 0 1 -.356.534l-16.714 4.916a.5.5 0 0 1 -.141.016zm5.27-16.664-4.532 15.426 15.426-4.533a13 13 0 0 0 -3.735-7.16 12.989 12.989 0 0 0 -7.159-3.733z" fill="#323c6b"/><path d="m1.539 70.079-1.039 3.536 16.714-4.915a12.005 12.005 0 0 0 -.75-3.01z" fill="#f4bb87"/><path d="m56.9 2.139a.5.5 0 0 1 -.228-.945 12.268 12.268 0 0 1 8.11-1.027.5.5 0 1 1 -.216.977 11.141 11.141 0 0 0 -7.436.941.5.5 0 0 1 -.23.054z" fill="#323c6b"/><path d="m52.785 5.47a.5.5 0 0 1 -.354-.854l1.194-1.194a.5.5 0 0 1 .707.707l-1.194 1.195a.5.5 0 0 1 -.353.146z" fill="#323c6b"/><path d="m70.5 11.951a8.317 8.317 0 0 1 -2.445 5.9l-3.381 3.382-11.792-11.791 3.381-3.382a8.341 8.341 0 0 1 14.237 5.891z" fill="#fca495"/><path d="m64.674 21.734a.5.5 0 0 1 -.354-.146l-11.792-11.793a.5.5 0 0 1 0-.707l3.382-3.381a8.838 8.838 0 1 1 12.5 12.5l-3.381 3.381a.5.5 0 0 1 -.355.146zm-11.086-12.293 11.086 11.086 3.026-3.027a7.838 7.838 0 1 0 -11.083-11.087z" fill="#323c6b"/><path d="m68.055 6.06a8.316 8.316 0 0 0 -7.512-2.289 8.34 8.34 0 0 1 4.281 14.081l-1.766 1.766 1.615 1.615 3.381-3.382a8.333 8.333 0 0 0 0-11.792z" fill="#ea8d81"/><g fill="#323c6b"><path d="m64.674 21.734a.5.5 0 0 1 -.354-.146l-11.792-11.793a.5.5 0 0 1 0-.707l3.382-3.381a8.838 8.838 0 1 1 12.5 12.5l-3.381 3.381a.5.5 0 0 1 -.355.146zm-11.086-12.293 11.086 11.086 3.026-3.027a7.838 7.838 0 1 0 -11.083-11.087z"/><path d="m59.763 26.655a.5.5 0 0 1 -.354-.146l-11.8-11.8a.5.5 0 0 1 0-.708l4.921-4.911a.5.5 0 0 1 .707 0l11.79 11.79a.5.5 0 0 1 0 .707l-4.911 4.921a.5.5 0 0 1 -.354.147zm-11.1-12.3 11.1 11.095 4.2-4.213-11.082-11.089z"/><path d="m17.214 69.2a.5.5 0 0 1 -.5-.445 12.882 12.882 0 0 0 -3.788-7.574.5.5 0 0 1 0-.706l40.582-40.575a.5.5 0 0 1 .707 0l5.9 5.9a.5.5 0 0 1 0 .707l-42.548 42.551a.5.5 0 0 1 -.353.142zm-3.23-8.366a14.031 14.031 0 0 1 3.575 6.813l41.5-41.5-5.195-5.194z"/><path d="m.5 74.116a.5.5 0 0 1 -.479-.641l4.91-16.714a.506.506 0 0 1 .534-.356 13.881 13.881 0 0 1 8.171 4.073 13.886 13.886 0 0 1 4.075 8.172.5.5 0 0 1 -.356.534l-16.714 4.916a.5.5 0 0 1 -.141.016zm5.27-16.664-4.532 15.426 15.426-4.533a13 13 0 0 0 -3.735-7.16 12.989 12.989 0 0 0 -7.159-3.733z"/></g><rect fill="#eeefee" height="1.357" rx=".679" transform="matrix(.707 -.707 .707 .707 -3.995 37.296)" width="10.007" x="38.018" y="22.792"/><rect fill="#eeefee" height="1.357" rx=".679" transform="matrix(.707 -.707 .707 .707 .87 39.311)" width="1.72" x="47.027" y="17.927"/></g></svg>