<svg height="512" viewBox="0 0 74 74" width="512" xmlns="http://www.w3.org/2000/svg"><g id="Numbers"><text fill="#f00" font-family="ArialMT, Arial" font-size="18" transform="translate(31.995 -266.544)">2<tspan x="-5.005" y="124">12</tspan><tspan x="-5.005" y="248">22</tspan><tspan x="-5.005" y="372">32</tspan><tspan x="-5.005" y="496">42</tspan><tspan x="-5.005" y="620">52</tspan><tspan x="-5.005" y="744">62</tspan><tspan x="-5.005" y="868">72</tspan><tspan x="-5.005" y="992">82</tspan><tspan x="-5.005" y="1116">92</tspan><tspan x="-10.011" y="1240">102</tspan><tspan letter-spacing="-.074em" x="-9.343" y="1364">1</tspan><tspan x="-.668" y="1364">12</tspan><tspan x="-10.011" y="1488">122</tspan><tspan x="-10.011" y="1612">132</tspan><tspan x="-10.011" y="1736">142</tspan><tspan x="-10.011" y="1860">152</tspan><tspan x="-10.011" y="1984">162</tspan><tspan x="-10.011" y="2108">172</tspan><tspan x="-10.011" y="2232">182</tspan><tspan x="-10.011" y="2356">192</tspan><tspan x="-10.011" y="2480">202</tspan><tspan x="-10.011" y="2604">212</tspan><tspan x="-10.011" y="2728">222</tspan><tspan x="-10.011" y="2852">232</tspan><tspan x="-10.011" y="2976">242</tspan><tspan x="-10.011" y="3100">252</tspan><tspan x="-10.011" y="3224">262</tspan><tspan x="-10.011" y="3348">272</tspan><tspan x="-10.011" y="3472">282</tspan><tspan x="-10.011" y="3596">292</tspan></text></g><g id="color_styel" data-name="color styel"><path d="m71 35v4a1 1 0 0 1 -1 1h-4v-6h4a1 1 0 0 1 1 1z" fill="#dbd8dd"/><path d="m70 40.5h-4a.5.5 0 0 1 -.5-.5v-6a.5.5 0 0 1 .5-.5h4a1.5 1.5 0 0 1 1.5 1.5v4a1.5 1.5 0 0 1 -1.5 1.5zm-3.5-1h3.5a.5.5 0 0 0 .5-.5v-4a.5.5 0 0 0 -.5-.5h-3.5z" fill="#323c6b"/><path d="m71 35v4a1 1 0 0 1 -1 1h-4v-6h4a1 1 0 0 1 1 1z" fill="#dbd8dd"/><path d="m70 40.5h-4a.5.5 0 0 1 -.5-.5v-6a.5.5 0 0 1 .5-.5h4a1.5 1.5 0 0 1 1.5 1.5v4a1.5 1.5 0 0 1 -1.5 1.5zm-3.5-1h3.5a.5.5 0 0 0 .5-.5v-4a.5.5 0 0 0 -.5-.5h-3.5z" fill="#323c6b"/><path d="m71 35v4a1 1 0 0 1 -1 1h-4v-6h4a1 1 0 0 1 1 1z" fill="#dbd8dd"/><path d="m70 40.5h-4a.5.5 0 0 1 -.5-.5v-6a.5.5 0 0 1 .5-.5h4a1.5 1.5 0 0 1 1.5 1.5v4a1.5 1.5 0 0 1 -1.5 1.5zm-3.5-1h3.5a.5.5 0 0 0 .5-.5v-4a.5.5 0 0 0 -.5-.5h-3.5z" fill="#323c6b"/><path d="m71 35v4a1 1 0 0 1 -1 1h-4v-6h4a1 1 0 0 1 1 1z" fill="#dbd8dd"/><path d="m70 40.5h-4a.5.5 0 0 1 -.5-.5v-6a.5.5 0 0 1 .5-.5h4a1.5 1.5 0 0 1 1.5 1.5v4a1.5 1.5 0 0 1 -1.5 1.5zm-3.5-1h3.5a.5.5 0 0 0 .5-.5v-4a.5.5 0 0 0 -.5-.5h-3.5z" fill="#323c6b"/><path d="m70 37h-4v3h4a1 1 0 0 0 1-1v-3a1 1 0 0 1 -1 1z" fill="#bbbbcd"/><path d="m20 34h34v6h-34z" fill="#dbd8dd"/><path d="m54 40.5h-34a.5.5 0 0 1 -.5-.5v-6a.5.5 0 0 1 .5-.5h34a.5.5 0 0 1 .5.5v6a.5.5 0 0 1 -.5.5zm-33.5-1h33v-5h-33z" fill="#323c6b"/><path d="m20 37h34v3h-34z" fill="#bbbbcd"/><path d="m8 34v6h-4a1 1 0 0 1 -1-1v-4a1 1 0 0 1 1-1z" fill="#eeefee"/><path d="m8 40.5h-4a1.5 1.5 0 0 1 -1.5-1.5v-4a1.5 1.5 0 0 1 1.5-1.5h4a.5.5 0 0 1 .5.5v6a.5.5 0 0 1 -.5.5zm-4-6a.5.5 0 0 0 -.5.5v4a.5.5 0 0 0 .5.5h3.5v-5z" fill="#323c6b"/><path d="m3 36v3a1 1 0 0 0 1 1h4v-3h-4a1 1 0 0 1 -1-1z" fill="#bbbbcd"/><rect fill="#828a9e" height="15.28" rx="1" width="6" x="8" y="29.36"/><path d="m13 45.14h-4a1.5 1.5 0 0 1 -1.5-1.5v-13.28a1.5 1.5 0 0 1 1.5-1.5h4a1.5 1.5 0 0 1 1.5 1.5v13.28a1.5 1.5 0 0 1 -1.5 1.5zm-4-15.28a.5.5 0 0 0 -.5.5v13.28a.5.5 0 0 0 .5.5h4a.5.5 0 0 0 .5-.5v-13.28a.5.5 0 0 0 -.5-.5z" fill="#323c6b"/><rect fill="#828a9e" height="24" rx="1" width="6" x="14" y="25"/><g fill="#323c6b"><path d="m19 49.5h-4a1.5 1.5 0 0 1 -1.5-1.5v-22a1.5 1.5 0 0 1 1.5-1.5h4a1.5 1.5 0 0 1 1.5 1.5v22a1.5 1.5 0 0 1 -1.5 1.5zm-4-24a.5.5 0 0 0 -.5.5v22a.5.5 0 0 0 .5.5h4a.5.5 0 0 0 .5-.5v-22a.5.5 0 0 0 -.5-.5z"/><path d="m19 49.5h-4a1.5 1.5 0 0 1 -1.5-1.5v-22a1.5 1.5 0 0 1 1.5-1.5h4a1.5 1.5 0 0 1 1.5 1.5v22a1.5 1.5 0 0 1 -1.5 1.5zm-4-24a.5.5 0 0 0 -.5.5v22a.5.5 0 0 0 .5.5h4a.5.5 0 0 0 .5-.5v-22a.5.5 0 0 0 -.5-.5z"/><path d="m13 45.14h-4a1.5 1.5 0 0 1 -1.5-1.5v-13.28a1.5 1.5 0 0 1 1.5-1.5h4a1.5 1.5 0 0 1 1.5 1.5v13.28a1.5 1.5 0 0 1 -1.5 1.5zm-4-15.28a.5.5 0 0 0 -.5.5v13.28a.5.5 0 0 0 .5.5h4a.5.5 0 0 0 .5-.5v-13.28a.5.5 0 0 0 -.5-.5z"/></g><rect fill="#828a9e" height="15.28" rx="1" width="6" x="60" y="29.36"/><path d="m65 45.14h-4a1.5 1.5 0 0 1 -1.5-1.5v-13.28a1.5 1.5 0 0 1 1.5-1.5h4a1.5 1.5 0 0 1 1.5 1.5v13.28a1.5 1.5 0 0 1 -1.5 1.5zm-4-15.28a.5.5 0 0 0 -.5.5v13.28a.5.5 0 0 0 .5.5h4a.5.5 0 0 0 .5-.5v-13.28a.5.5 0 0 0 -.5-.5z" fill="#323c6b"/><rect fill="#828a9e" height="24" rx="1" width="6" x="54" y="25"/><g fill="#323c6b"><path d="m59 49.5h-4a1.5 1.5 0 0 1 -1.5-1.5v-22a1.5 1.5 0 0 1 1.5-1.5h4a1.5 1.5 0 0 1 1.5 1.5v22a1.5 1.5 0 0 1 -1.5 1.5zm-4-24a.5.5 0 0 0 -.5.5v22a.5.5 0 0 0 .5.5h4a.5.5 0 0 0 .5-.5v-22a.5.5 0 0 0 -.5-.5z"/><path d="m65 45.14h-4a1.5 1.5 0 0 1 -1.5-1.5v-13.28a1.5 1.5 0 0 1 1.5-1.5h4a1.5 1.5 0 0 1 1.5 1.5v13.28a1.5 1.5 0 0 1 -1.5 1.5zm-4-15.28a.5.5 0 0 0 -.5.5v13.28a.5.5 0 0 0 .5.5h4a.5.5 0 0 0 .5-.5v-13.28a.5.5 0 0 0 -.5-.5z"/><path d="m59 49.5h-4a1.5 1.5 0 0 1 -1.5-1.5v-22a1.5 1.5 0 0 1 1.5-1.5h4a1.5 1.5 0 0 1 1.5 1.5v22a1.5 1.5 0 0 1 -1.5 1.5zm-4-24a.5.5 0 0 0 -.5.5v22a.5.5 0 0 0 .5.5h4a.5.5 0 0 0 .5-.5v-22a.5.5 0 0 0 -.5-.5z"/><path d="m54 40.5h-34a.5.5 0 0 1 -.5-.5v-6a.5.5 0 0 1 .5-.5h34a.5.5 0 0 1 .5.5v6a.5.5 0 0 1 -.5.5zm-33.5-1h33v-5h-33z"/><path d="m8 40.5h-4a1.5 1.5 0 0 1 -1.5-1.5v-4a1.5 1.5 0 0 1 1.5-1.5h4a.5.5 0 0 1 .5.5v6a.5.5 0 0 1 -.5.5zm-4-6a.5.5 0 0 0 -.5.5v4a.5.5 0 0 0 .5.5h3.5v-5z"/><path d="m70 40.5h-4a.5.5 0 0 1 -.5-.5v-6a.5.5 0 0 1 .5-.5h4a1.5 1.5 0 0 1 1.5 1.5v4a1.5 1.5 0 0 1 -1.5 1.5zm-3.5-1h3.5a.5.5 0 0 0 .5-.5v-4a.5.5 0 0 0 -.5-.5h-3.5z"/><path d="m8 40.5h-4a1.5 1.5 0 0 1 -1.5-1.5v-4a1.5 1.5 0 0 1 1.5-1.5h4a.5.5 0 0 1 .5.5v6a.5.5 0 0 1 -.5.5zm-4-6a.5.5 0 0 0 -.5.5v4a.5.5 0 0 0 .5.5h3.5v-5z"/></g></g></svg>