<svg height="512" viewBox="0 0 74 74" width="512" xmlns="http://www.w3.org/2000/svg"><g id="Numbers"><text fill="#f00" font-family="ArialMT, Arial" font-size="18" transform="translate(31.995 -266.544)">5<tspan x="-5.005" y="124">15</tspan><tspan x="-5.005" y="248">25</tspan><tspan x="-5.005" y="372">35</tspan><tspan x="-5.005" y="496">45</tspan><tspan x="-5.005" y="620">55</tspan><tspan x="-5.005" y="744">65</tspan><tspan x="-5.005" y="868">75</tspan><tspan x="-5.005" y="992">85</tspan><tspan x="-5.005" y="1116">95</tspan><tspan x="-10.011" y="1240">105</tspan><tspan letter-spacing="-.074em" x="-9.343" y="1364">1</tspan><tspan x="-.668" y="1364">15</tspan><tspan x="-10.011" y="1488">125</tspan><tspan x="-10.011" y="1612">135</tspan><tspan x="-10.011" y="1736">145</tspan><tspan x="-10.011" y="1860">155</tspan><tspan x="-10.011" y="1984">165</tspan><tspan x="-10.011" y="2108">175</tspan><tspan x="-10.011" y="2232">185</tspan><tspan x="-10.011" y="2356">195</tspan><tspan x="-10.011" y="2480">205</tspan><tspan x="-10.011" y="2604">215</tspan><tspan x="-10.011" y="2728">225</tspan><tspan x="-10.011" y="2852">235</tspan><tspan x="-10.011" y="2976">245</tspan><tspan x="-10.011" y="3100">255</tspan><tspan x="-10.011" y="3224">265</tspan><tspan x="-10.011" y="3348">275</tspan><tspan x="-10.011" y="3472">285</tspan><tspan x="-10.011" y="3596">295</tspan></text></g><g id="color_styel" data-name="color styel"><g fill="#323c6b"><path d="m11.019 62.783a.5.5 0 0 1 -.358-.15 35.307 35.307 0 0 1 -7.738-12.033.5.5 0 0 1 .933-.359 34.3 34.3 0 0 0 7.521 11.7.5.5 0 0 1 -.358.85z"/><path d="m15.235 66.463a.5.5 0 0 1 -.3-.1q-.512-.379-1.01-.777a.5.5 0 1 1 .624-.781q.483.386.981.754a.5.5 0 0 1 -.3.9z"/><path d="m58.7 8.339a.5.5 0 0 1 -.3-.1q-.741-.549-1.513-1.058a.5.5 0 1 1 .551-.835q.793.524 1.557 1.089a.5.5 0 0 1 -.3.9z"/><path d="m54.1 5.456a.5.5 0 0 1 -.231-.057 34.436 34.436 0 0 0 -15.9-3.9.5.5 0 0 1 0-1 35.442 35.442 0 0 1 16.362 4.014.5.5 0 0 1 -.232.943z"/></g><circle cx="36.978" cy="36.909" fill="#eeefee" r="32.091"/><path d="m36.978 69.5a32.592 32.592 0 1 1 32.591-32.591 32.628 32.628 0 0 1 -32.591 32.591zm0-64.183a31.592 31.592 0 1 0 31.591 31.592 31.627 31.627 0 0 0 -31.591-31.592z" fill="#323c6b"/><path d="m42.923 5.376a32.092 32.092 0 0 1 -15.666 62.124 32.092 32.092 0 1 0 15.666-62.124z" fill="#dbd8dd"/><path d="m43.846 15.2-22.224 24.246 13.222 2.79-5.986 16.617 23.475-24.203-14.468-2.194z" fill="#fed19a"/><path d="m28.858 59.354a.5.5 0 0 1 -.47-.669l5.791-16.078-12.66-2.672a.5.5 0 0 1 -.266-.827l22.225-24.246a.5.5 0 0 1 .841.5l-5.784 16.69 13.874 2.1a.5.5 0 0 1 .284.842l-23.476 24.206a.5.5 0 0 1 -.359.154zm-6.275-20.217 12.365 2.609a.5.5 0 0 1 .367.659l-5.2 14.435 21.185-21.84-13.51-2.05a.5.5 0 0 1 -.4-.658l5.19-14.975z" fill="#323c6b"/><path d="m36.978 69.5a32.592 32.592 0 1 1 32.591-32.591 32.628 32.628 0 0 1 -32.591 32.591zm0-64.183a31.592 31.592 0 1 0 31.591 31.592 31.627 31.627 0 0 0 -31.591-31.592z" fill="#323c6b"/><g fill="#dbd8dd"><path d="m27.583 11.736c-.014-.033-.03-.065-.048-.1a1.572 1.572 0 0 0 -1.971-.661 6.663 6.663 0 0 0 -1.279.629 1.249 1.249 0 0 0 -.428 1.843 1.577 1.577 0 0 0 2.029.462 4.577 4.577 0 0 1 1-.491 1.259 1.259 0 0 0 .697-1.682z"/><path d="m22.152 15.278a1.369 1.369 0 0 0 -.26-.43 1.574 1.574 0 0 0 -2.065-.245 26.979 26.979 0 0 0 -10.019 14.488 1.4 1.4 0 0 0 1.136 1.626 1.418 1.418 0 0 0 1.736-.977 24.845 24.845 0 0 1 9.02-13.008 1.242 1.242 0 0 0 .452-1.454z"/></g></g></svg>