<svg height="512" viewBox="0 0 74 74" width="512" xmlns="http://www.w3.org/2000/svg"><g id="Numbers"><text fill="#f00" font-family="ArialMT, Arial" font-size="18" transform="translate(31.994 -266.544)">7<tspan x="-5.005" y="124">17</tspan><tspan x="-5.005" y="248">27</tspan><tspan x="-5.005" y="372">37</tspan><tspan x="-5.005" y="496">47</tspan><tspan x="-5.005" y="620">57</tspan><tspan x="-5.005" y="744">67</tspan><tspan x="-5.005" y="868">77</tspan><tspan x="-5.005" y="992">87</tspan><tspan x="-5.005" y="1116">97</tspan><tspan x="-10.011" y="1240">107</tspan><tspan letter-spacing="-.074em" x="-9.343" y="1364">1</tspan><tspan x="-.668" y="1364">17</tspan><tspan x="-10.011" y="1488">127</tspan><tspan x="-10.011" y="1612">137</tspan><tspan x="-10.011" y="1736">147</tspan><tspan x="-10.011" y="1860">157</tspan><tspan x="-10.011" y="1984">167</tspan><tspan x="-10.011" y="2108">177</tspan><tspan x="-10.011" y="2232">187</tspan><tspan x="-10.011" y="2356">197</tspan><tspan x="-10.011" y="2480">207</tspan><tspan x="-10.011" y="2604">217</tspan><tspan x="-10.011" y="2728">227</tspan><tspan x="-10.011" y="2852">237</tspan><tspan x="-10.011" y="2976">247</tspan><tspan x="-10.011" y="3100">257</tspan><tspan x="-10.011" y="3224">267</tspan><tspan x="-10.011" y="3348">277</tspan><tspan x="-10.011" y="3472">287</tspan><tspan x="-10.011" y="3596">297</tspan></text></g><g id="color_styel" data-name="color styel"><path d="m71 9.917v4.902l-16.4 18.264h-14l20.8-23.166z" fill="#fed19a"/><path d="m54.6 33.583h-14a.5.5 0 0 1 -.372-.834l20.8-23.167a.5.5 0 0 1 .372-.166h9.6a.5.5 0 0 1 .5.5v4.9a.5.5 0 0 1 -.128.334l-16.4 18.265a.5.5 0 0 1 -.372.168zm-12.879-1h12.656l16.123-17.956v-4.21h-8.877z" fill="#323c6b"/><path d="m69 10v7.046l-14.4 16.037 16.4-18.264v-4.902" fill="#f4bb87"/><path d="m61.4 9.917-20.8 23.166h-14l20.8-23.166z" fill="#828a9e"/><path d="m40.6 33.583h-14a.5.5 0 0 1 -.372-.834l20.8-23.167a.5.5 0 0 1 .372-.166h14a.5.5 0 0 1 .372.834l-20.8 23.167a.5.5 0 0 1 -.372.166zm-12.879-1h12.656l19.9-22.167h-12.654z" fill="#323c6b"/><path d="m47.4 9.917-20.8 23.166h-14l20.8-23.166z" fill="#fed19a"/><path d="m26.6 33.583h-14a.5.5 0 0 1 -.372-.834l20.8-23.167a.5.5 0 0 1 .372-.166h14a.5.5 0 0 1 .372.834l-20.8 23.167a.5.5 0 0 1 -.372.166zm-12.879-1h12.656l19.9-22.167h-12.654z" fill="#323c6b"/><path d="m33.4 9.917-20.8 23.166h-9.6v-4.902l16.4-18.264z" fill="#828a9e"/><path d="m12.6 33.583h-9.6a.5.5 0 0 1 -.5-.5v-4.9a.5.5 0 0 1 .128-.334l16.4-18.265a.5.5 0 0 1 .372-.166h14a.5.5 0 0 1 .372.834l-20.8 23.167a.5.5 0 0 1 -.372.164zm-9.1-1h8.877l19.9-22.167h-12.654l-16.123 17.957z" fill="#323c6b"/><path d="m19.4 9.917-16.4 18.264v-18.264z" fill="#fed19a"/><path d="m3 28.681a.491.491 0 0 1 -.179-.033.5.5 0 0 1 -.321-.467v-18.264a.5.5 0 0 1 .5-.5h16.4a.5.5 0 0 1 .372.834l-16.4 18.264a.5.5 0 0 1 -.372.166zm.5-18.265v16.46l14.779-16.459z" fill="#323c6b"/><path d="m8 33.083h6v31h-6z" fill="#dbd8dd"/><path d="m14 64.583h-6a.5.5 0 0 1 -.5-.5v-31a.5.5 0 0 1 .5-.5h6a.5.5 0 0 1 .5.5v31a.5.5 0 0 1 -.5.5zm-5.5-1h5v-30h-5z" fill="#323c6b"/><path d="m11 33.083h3v31h-3z" fill="#bbbbcd"/><g fill="#323c6b"><path d="m14 63.583h3v1h-3z"/><path d="m5 63.583h3v1h-3z"/><path d="m14 64.583h-6a.5.5 0 0 1 -.5-.5v-31a.5.5 0 0 1 .5-.5h6a.5.5 0 0 1 .5.5v31a.5.5 0 0 1 -.5.5zm-5.5-1h5v-30h-5z"/></g><path d="m60 33.083h6v31h-6z" fill="#dbd8dd"/><path d="m66 64.583h-6a.5.5 0 0 1 -.5-.5v-31a.5.5 0 0 1 .5-.5h6a.5.5 0 0 1 .5.5v31a.5.5 0 0 1 -.5.5zm-5.5-1h5v-30h-5z" fill="#323c6b"/><path d="m63 33.083h3v31h-3z" fill="#bbbbcd"/><g fill="#323c6b"><path d="m66 63.583h3v1h-3z"/><path d="m57 63.583h3v1h-3z"/><path d="m66 64.583h-6a.5.5 0 0 1 -.5-.5v-31a.5.5 0 0 1 .5-.5h6a.5.5 0 0 1 .5.5v31a.5.5 0 0 1 -.5.5zm-5.5-1h5v-30h-5z"/></g><path d="m71 14.819v18.264h-16.4z" fill="#828a9e"/><path d="m71 33.583h-16.4a.5.5 0 0 1 -.372-.834l16.4-18.265a.5.5 0 0 1 .872.334v18.265a.5.5 0 0 1 -.5.5zm-15.279-1h14.779v-16.459z" fill="#323c6b"/><path d="m69 17.046v16.037h2v-18.264z" fill="#62667c"/><path d="m71 33.583h-16.4a.5.5 0 0 1 -.372-.834l16.4-18.265a.5.5 0 0 1 .872.334v18.265a.5.5 0 0 1 -.5.5zm-15.279-1h14.779v-16.459z" fill="#323c6b"/><path d="m54.6 33.583h-14a.5.5 0 0 1 -.372-.834l20.8-23.167a.5.5 0 0 1 .372-.166h9.6a.5.5 0 0 1 .5.5v4.9a.5.5 0 0 1 -.128.334l-16.4 18.265a.5.5 0 0 1 -.372.168zm-12.879-1h12.656l16.123-17.956v-4.21h-8.877z" fill="#323c6b"/><rect fill="#eeefee" height="7.133" rx=".484" width=".967" x="4.614" y="13.159"/><rect fill="#eeefee" height="1.226" rx=".484" width=".967" x="4.614" y="11.208"/></g></svg>