<svg height="512" viewBox="0 0 74 74" width="512" xmlns="http://www.w3.org/2000/svg"><g id="Numbers"><text fill="#f00" font-family="ArialMT, Arial" font-size="18" transform="translate(31.995 -266.544)">8<tspan x="-5.005" y="124">18</tspan><tspan x="-5.005" y="248">28</tspan><tspan x="-5.005" y="372">38</tspan><tspan x="-5.005" y="496">48</tspan><tspan x="-5.005" y="620">58</tspan><tspan x="-5.005" y="744">68</tspan><tspan x="-5.005" y="868">78</tspan><tspan x="-5.005" y="992">88</tspan><tspan x="-5.005" y="1116">98</tspan><tspan x="-10.011" y="1240">108</tspan><tspan letter-spacing="-.074em" x="-9.343" y="1364">1</tspan><tspan x="-.668" y="1364">18</tspan><tspan x="-10.011" y="1488">128</tspan><tspan x="-10.011" y="1612">138</tspan><tspan x="-10.011" y="1736">148</tspan><tspan x="-10.011" y="1860">158</tspan><tspan x="-10.011" y="1984">168</tspan><tspan x="-10.011" y="2108">178</tspan><tspan x="-10.011" y="2232">188</tspan><tspan x="-10.011" y="2356">198</tspan><tspan x="-10.011" y="2480">208</tspan><tspan x="-10.011" y="2604">218</tspan><tspan x="-10.011" y="2728">228</tspan><tspan x="-10.011" y="2852">238</tspan><tspan x="-10.011" y="2976">248</tspan><tspan x="-10.011" y="3100">258</tspan><tspan x="-10.011" y="3224">268</tspan><tspan x="-10.011" y="3348">278</tspan><tspan x="-10.011" y="3472">288</tspan><tspan x="-10.011" y="3596">298</tspan></text></g><g id="color_styel" data-name="color styel"><path d="m27.169 44.04a16.458 16.458 0 1 1 11.639-4.818 16.341 16.341 0 0 1 -11.639 4.818zm0-31.919a15.458 15.458 0 1 0 10.931 4.528 15.341 15.341 0 0 0 -10.931-4.528zm-26.169 12.634a.554.554 0 0 1 -.063 0 .5.5 0 0 1 -.437-.563q.1-.757.232-1.508a.5.5 0 0 1 .984.18q-.133.724-.225 1.454a.5.5 0 0 1 -.491.437zm1.12-4.973a.5.5 0 0 1 -.475-.656 26.565 26.565 0 0 1 6.103-10.146.5.5 0 0 1 .723.691 25.578 25.578 0 0 0 -5.876 9.767.5.5 0 0 1 -.475.344z" fill="#323c6b"/><path d="m40.631 41.041a19.037 19.037 0 1 1 0-26.922 19.039 19.039 0 0 1 0 26.922zm-30.052-30.053a23.46 23.46 0 0 0 29.886 35.917c.269-.186.538-.373.807-.573l.007-.007c.428-.317.856-.662 1.263-1.028.393-.324.814-.718 1.221-1.125s.8-.828 1.125-1.221c.366-.407.711-.835 1.028-1.263l.007-.007c.2-.269.386-.538.573-.807a23.46 23.46 0 0 0 -35.917-29.886z" fill="#9a9eaf"/><path d="m27.162 51.539a23.96 23.96 0 0 1 -16.937-40.9 23.96 23.96 0 0 1 36.682 30.519c-.189.274-.38.547-.583.822-.352.471-.708.908-1.064 1.306-.3.361-.687.784-1.144 1.241s-.877.845-1.256 1.157c-.385.346-.821.7-1.283 1.044-.26.195-.514.371-.766.546a23.981 23.981 0 0 1 -13.649 4.265zm.006-46.924a22.807 22.807 0 0 0 -16.235 6.727 22.96 22.96 0 0 0 29.248 35.152c.3-.211.549-.381.794-.562.443-.331.856-.667 1.233-1.006.37-.306.769-.673 1.2-1.106s.8-.833 1.093-1.186c.351-.391.687-.8 1.013-1.243.2-.272.387-.537.57-.8a22.963 22.963 0 0 0 -18.916-35.976zm0 42.5a19.537 19.537 0 0 1 -13.813-33.35 19.537 19.537 0 0 1 27.629 27.635 19.393 19.393 0 0 1 -13.814 5.716zm0-38.071a18.536 18.536 0 0 0 -13.105 31.643 18.539 18.539 0 0 0 26.215 0 18.535 18.535 0 0 0 -13.109-31.642z" fill="#323c6b"/><path d="m43.756 10.988a23.37 23.37 0 0 0 -17.564-6.826 23.431 23.431 0 0 1 18.352 36.712c-.186.269-.373.538-.573.807l-.007.007c-.317.428-.662.856-1.028 1.263-.324.393-.718.814-1.125 1.221s-.828.8-1.221 1.125c-.407.366-.835.711-1.263 1.028l-.007.007c-.269.2-.538.386-.807.573a23.345 23.345 0 0 1 -12.322 4.089 23.383 23.383 0 0 0 14.274-4.089c.269-.186.538-.373.807-.573l.007-.007c.428-.317.856-.662 1.263-1.028.393-.324.814-.718 1.221-1.125s.8-.828 1.125-1.221c.366-.407.711-.835 1.028-1.263l.007-.007c.2-.269.386-.538.573-.807a23.463 23.463 0 0 0 -2.74-29.886z" fill="#828a9e"/><path d="m40.63 41.037a19.054 19.054 0 0 1 -23.2 2.9c-.287-.174-.564-.349-.841-.533a19.184 19.184 0 0 1 -5.27-5.28q-.554-.83-1.015-1.692a19.046 19.046 0 0 1 17.378-27.883 15.587 15.587 0 0 1 1.958.151 18.993 18.993 0 0 1 7.06 2.391c.287.174.574.349.851.533a19.033 19.033 0 0 1 3.076 2.491c.441.441.851.892 1.24 1.364a19.517 19.517 0 0 1 2.163 3.229 19.075 19.075 0 0 1 -3.4 22.329z" fill="#b6d2dd"/><path d="m27.161 47.123a19.475 19.475 0 0 1 -9.987-2.755c-.3-.18-.579-.358-.861-.547a19.675 19.675 0 0 1 -5.408-5.421c-.38-.569-.729-1.152-1.041-1.733a19.545 19.545 0 0 1 17.836-28.618 16.177 16.177 0 0 1 2.016.158 19.416 19.416 0 0 1 7.243 2.451c.318.193.6.367.878.55a19.557 19.557 0 0 1 3.151 2.554c.452.452.869.91 1.273 1.4a20.109 20.109 0 0 1 2.218 3.312 19.467 19.467 0 0 1 -3.491 22.918 19.522 19.522 0 0 1 -13.827 5.731zm0-38.081a18.546 18.546 0 0 0 -16.414 27.158c.295.55.628 1.1.989 1.646a18.677 18.677 0 0 0 5.131 5.141c.271.181.541.351.822.522a18.512 18.512 0 0 0 22.587-2.828 18.472 18.472 0 0 0 3.315-21.743 19.078 19.078 0 0 0 -2.105-3.138c-.385-.465-.78-.9-1.21-1.329a18.581 18.581 0 0 0 -2.994-2.426c-.268-.179-.541-.344-.813-.51a18.426 18.426 0 0 0 -6.893-2.335 15.123 15.123 0 0 0 -1.9-.149c-.176-.007-.343-.009-.512-.009z" fill="#323c6b"/><path d="m45.923 41.681 3.3 3.3-4.651 4.651-3.3-3.3.007-.007c.428-.317.856-.662 1.263-1.028.393-.324.814-.718 1.221-1.125s.8-.828 1.125-1.221c.366-.407.711-.835 1.028-1.263z" fill="#828a9e"/><path d="m44.57 50.131a.5.5 0 0 1 -.354-.146l-3.3-3.3a.5.5 0 0 1 0-.707c.5-.379.912-.715 1.289-1.054.37-.306.769-.673 1.2-1.106s.8-.833 1.093-1.186c.351-.391.687-.8 1.013-1.243a.574.574 0 0 1 .762-.062l3.3 3.3a.5.5 0 0 1 0 .707l-4.651 4.651a.5.5 0 0 1 -.352.146zm-2.542-3.749 2.542 2.542 3.944-3.944-2.543-2.543c-.225.287-.468.577-.712.849-.3.361-.687.784-1.144 1.241s-.877.845-1.256 1.157c-.259.23-.535.465-.831.698z" fill="#323c6b"/><path d="m41.279 46.326c.428-.317.856-.662 1.263-1.028.393-.324.814-.718 1.221-1.125s.8-.828 1.125-1.221c.366-.407.711-.835 1.028-1.263" fill="#9a9eaf"/><path d="m41.577 46.727-.6-.8c.437-.324.85-.66 1.227-1 .37-.306.769-.673 1.2-1.106s.8-.833 1.093-1.186c.351-.391.687-.8 1.013-1.243l.8.6c-.345.465-.7.9-1.058 1.3-.3.361-.687.784-1.144 1.241s-.877.845-1.256 1.157c-.376.339-.813.695-1.275 1.037z" fill="#323c6b"/><path d="m42.542 45.3c.393-.324.814-.718 1.221-1.125s.8-.828 1.125-1.221" fill="#9a9eaf"/><g fill="#323c6b"><path d="m42.86 45.683-.637-.771c.354-.292.753-.659 1.186-1.092s.8-.833 1.093-1.186l.771.636c-.311.378-.7.8-1.157 1.257s-.877.844-1.256 1.156z"/><path d="m46.139 41.225-.02-.019.707-.707z"/><path d="m40.107 47.256-.019-.019.707-.707z"/><path d="m73 63.514a.5.5 0 0 1 -.5-.5 10.059 10.059 0 0 0 -.175-1.869.5.5 0 0 1 .982-.186 11.042 11.042 0 0 1 .192 2.054.5.5 0 0 1 -.499.501z"/><path d="m71.895 58.841a.5.5 0 0 1 -.446-.275 9.916 9.916 0 0 0 -1.849-2.548l-4.25-4.25a.5.5 0 0 1 .707-.707l4.25 4.25a10.9 10.9 0 0 1 2.034 2.805.5.5 0 0 1 -.446.725z"/></g><path d="m67.883 68.294a7.468 7.468 0 0 1 -10.559 0l-15.706-15.706 2.264-2.264 6.031-6.031 2.264-2.264 15.706 15.706a7.463 7.463 0 0 1 0 10.559z" fill="#f4bb87"/><path d="m62.6 70.98a7.913 7.913 0 0 1 -5.633-2.333l-15.702-15.706a.5.5 0 0 1 0-.707l10.56-10.559a.5.5 0 0 1 .707 0l15.704 15.706a7.966 7.966 0 0 1 -5.636 13.599zm-20.275-18.392 15.353 15.352a6.966 6.966 0 1 0 9.852-9.852l-15.352-15.352z" fill="#323c6b"/><path d="m67.883 57.735-15.706-15.706-1.952 1.952 13.755 13.754a7.459 7.459 0 0 1 -3.328 12.481 7.514 7.514 0 0 0 1.952.264 7.465 7.465 0 0 0 5.28-12.745z" fill="#e6b17d"/><path d="m62.6 70.98a7.913 7.913 0 0 1 -5.633-2.333l-15.702-15.706a.5.5 0 0 1 0-.707l10.56-10.559a.5.5 0 0 1 .707 0l15.704 15.706a7.966 7.966 0 0 1 -5.636 13.599zm-20.275-18.392 15.353 15.352a6.966 6.966 0 1 0 9.852-9.852l-15.352-15.352z" fill="#323c6b"/><path d="m23.176 45.661 18.552-29.535a14.731 14.731 0 0 0 -2.528-2.635l-19.465 31.045a16.36 16.36 0 0 0 3.441 1.125z" fill="#dbd8dd"/><path d="m34.353 10.5-19.325 31.066c-.256-.213-.6-.557-.754-.681l19.126-30.76c.163.061.688.243.953.375z" fill="#dbd8dd"/><path d="m27.162 51.539a23.96 23.96 0 0 1 -16.937-40.9 23.96 23.96 0 0 1 36.682 30.519c-.189.274-.38.547-.583.822-.352.471-.708.908-1.064 1.306-.3.361-.687.784-1.144 1.241s-.877.845-1.256 1.157c-.385.346-.821.7-1.283 1.044-.26.195-.514.371-.766.546a23.981 23.981 0 0 1 -13.649 4.265zm.006-46.924a22.807 22.807 0 0 0 -16.235 6.727 22.96 22.96 0 0 0 29.248 35.152c.3-.211.549-.381.794-.562.443-.331.856-.667 1.233-1.006.37-.306.769-.673 1.2-1.106s.8-.833 1.093-1.186c.351-.391.687-.8 1.013-1.243.2-.272.387-.537.57-.8a22.963 22.963 0 0 0 -18.916-35.976zm0 42.5a19.537 19.537 0 0 1 -13.813-33.35 19.537 19.537 0 0 1 27.629 27.635 19.393 19.393 0 0 1 -13.814 5.716zm0-38.071a18.536 18.536 0 0 0 -13.105 31.643 18.539 18.539 0 0 0 26.215 0 18.535 18.535 0 0 0 -13.109-31.642z" fill="#323c6b"/><g fill="#dbd8dd"><path d="m19.218 14.973c-.014-.019-.029-.037-.045-.055a1.029 1.029 0 0 0 -1.355-.122 4.36 4.36 0 0 0 -.719.594.817.817 0 0 0 .007 1.238 1.032 1.032 0 0 0 1.362-.013 3 3 0 0 1 .563-.464.824.824 0 0 0 .187-1.178z"/><path d="m16.3 18.05a.9.9 0 0 0 -.231-.234 1.03 1.03 0 0 0 -1.352.157 17.655 17.655 0 0 0 -4.186 10.74.918.918 0 0 0 .969.863.928.928 0 0 0 .957-.885 16.259 16.259 0 0 1 3.776-9.647.813.813 0 0 0 .067-.994z"/></g></g></svg>