<svg height="512" viewBox="0 0 74 74" width="512" xmlns="http://www.w3.org/2000/svg"><g id="Numbers"><text fill="#f00" font-family="ArialMT, Arial" font-size="18" transform="translate(31.995 -390.544)">4<tspan x="-5.005" y="124">14</tspan><tspan x="-5.005" y="248">24</tspan><tspan x="-5.005" y="372">34</tspan><tspan x="-5.005" y="496">44</tspan><tspan x="-5.005" y="620">54</tspan><tspan x="-5.005" y="744">64</tspan><tspan x="-5.005" y="868">74</tspan><tspan x="-5.005" y="992">84</tspan><tspan x="-5.005" y="1116">94</tspan><tspan x="-10.011" y="1240">104</tspan><tspan letter-spacing="-.074em" x="-9.343" y="1364">1</tspan><tspan x="-.668" y="1364">14</tspan><tspan x="-10.011" y="1488">124</tspan><tspan x="-10.011" y="1612">134</tspan><tspan x="-10.011" y="1736">144</tspan><tspan x="-10.011" y="1860">154</tspan><tspan x="-10.011" y="1984">164</tspan><tspan x="-10.011" y="2108">174</tspan><tspan x="-10.011" y="2232">184</tspan><tspan x="-10.011" y="2356">194</tspan><tspan x="-10.011" y="2480">204</tspan><tspan x="-10.011" y="2604">214</tspan><tspan x="-10.011" y="2728">224</tspan><tspan x="-10.011" y="2852">234</tspan><tspan x="-10.011" y="2976">244</tspan><tspan x="-10.011" y="3100">254</tspan><tspan x="-10.011" y="3224">264</tspan><tspan x="-10.011" y="3348">274</tspan><tspan x="-10.011" y="3472">284</tspan><tspan x="-10.011" y="3596">294</tspan></text></g><g id="color_styel" data-name="color styel"><g fill="#323c6b"><path d="m1.5 62.12a.5.5 0 0 1 -.5-.5v-6.981a.5.5 0 0 1 1 0v6.981a.5.5 0 0 1 -.5.5z"/><path d="m1.5 65.674a.5.5 0 0 1 -.5-.5v-1.16a.5.5 0 0 1 1 0v1.16a.5.5 0 0 1 -.5.5z"/><path d="m58.448 42.289h-1.319a.5.5 0 0 1 0-1h1.319a.5.5 0 0 1 0 1z"/><path d="m47.611 48.035a.5.5 0 0 1 -.447-.724l2.873-5.747a.5.5 0 0 1 .447-.276h4.529a.5.5 0 0 1 0 1h-4.22l-2.735 5.47a.5.5 0 0 1 -.447.277z"/></g><path d="m69.5 44.662v24.901h-65.127v-24.901h17.24l2.873 5.746h24.901l2.874-5.746z" fill="#fed19a"/><path d="m69.5 70.063h-65.127a.5.5 0 0 1 -.5-.5v-24.9a.5.5 0 0 1 .5-.5h17.24a.5.5 0 0 1 .447.276l2.735 5.47h24.283l2.735-5.47a.5.5 0 0 1 .447-.276h17.24a.5.5 0 0 1 .5.5v24.9a.5.5 0 0 1 -.5.5zm-64.627-1h64.127v-23.9h-16.43l-2.735 5.47a.5.5 0 0 1 -.447.276h-24.9a.5.5 0 0 1 -.447-.276l-2.741-5.471h-16.427z" fill="#323c6b"/><path d="m66.627 44.662h2.873v24.901h-2.873z" fill="#f4bb87"/><path d="m45.683 22.922a.5.5 0 0 1 -.5-.5v-5.672a.5.5 0 0 1 1 0v5.672a.5.5 0 0 1 -.5.5z" fill="#323c6b"/><path d="m48.43 27.423-11.493 15.199-11.493-15.199h5.746v-22.986h11.493v22.986z" fill="#69b0ee"/><path d="m36.937 43.122a.5.5 0 0 1 -.4-.2l-11.493-15.2a.5.5 0 0 1 .4-.8h5.246v-22.485a.5.5 0 0 1 .5-.5h11.493a.5.5 0 0 1 .5.5v22.485h5.247a.5.5 0 0 1 .4.8l-11.493 15.2a.5.5 0 0 1 -.4.2zm-10.488-15.2 10.488 13.871 10.488-13.871h-4.742a.5.5 0 0 1 -.5-.5v-22.485h-10.493v22.485a.5.5 0 0 1 -.5.5z" fill="#323c6b"/><path d="m40.768 4.437h1.915v23.405h-1.915z" fill="#419be9"/><path d="m46.514 27.423-10.535 13.932.958 1.267 11.493-15.199z" fill="#419be9"/><g fill="#323c6b"><path d="m69.5 70.063h-65.127a.5.5 0 0 1 -.5-.5v-24.9a.5.5 0 0 1 .5-.5h17.24a.5.5 0 0 1 .447.276l2.735 5.47h24.283l2.735-5.47a.5.5 0 0 1 .447-.276h17.24a.5.5 0 0 1 .5.5v24.9a.5.5 0 0 1 -.5.5zm-64.627-1h64.127v-23.9h-16.43l-2.735 5.47a.5.5 0 0 1 -.447.276h-24.9a.5.5 0 0 1 -.447-.276l-2.741-5.471h-16.427z"/><path d="m36.937 43.122a.5.5 0 0 1 -.4-.2l-11.493-15.2a.5.5 0 0 1 .4-.8h5.246v-22.485a.5.5 0 0 1 .5-.5h11.493a.5.5 0 0 1 .5.5v22.485h5.247a.5.5 0 0 1 .4.8l-11.493 15.2a.5.5 0 0 1 -.4.2zm-10.488-15.2 10.488 13.871 10.488-13.871h-4.742a.5.5 0 0 1 -.5-.5v-22.485h-10.493v22.485a.5.5 0 0 1 -.5.5z"/><path d="m45.683 14.083a.5.5 0 0 1 -.5-.5v-.444a.5.5 0 0 1 1 0v.444a.5.5 0 0 1 -.5.5z"/></g><rect fill="#eeefee" height="1.38" rx=".69" width="10.175" x="6.772" y="47.052"/><rect fill="#eeefee" height="1.38" rx=".69" width="1.749" x="18.542" y="47.052"/></g></svg>