<svg height="512" viewBox="0 0 74 74" width="512" xmlns="http://www.w3.org/2000/svg"><g id="Numbers"><text fill="#f00" font-family="ArialMT, Arial" font-size="18" transform="translate(31.995 -390.544)">5<tspan x="-5.005" y="124">15</tspan><tspan x="-5.005" y="248">25</tspan><tspan x="-5.005" y="372">35</tspan><tspan x="-5.005" y="496">45</tspan><tspan x="-5.005" y="620">55</tspan><tspan x="-5.005" y="744">65</tspan><tspan x="-5.005" y="868">75</tspan><tspan x="-5.005" y="992">85</tspan><tspan x="-5.005" y="1116">95</tspan><tspan x="-10.011" y="1240">105</tspan><tspan letter-spacing="-.074em" x="-9.343" y="1364">1</tspan><tspan x="-.668" y="1364">15</tspan><tspan x="-10.011" y="1488">125</tspan><tspan x="-10.011" y="1612">135</tspan><tspan x="-10.011" y="1736">145</tspan><tspan x="-10.011" y="1860">155</tspan><tspan x="-10.011" y="1984">165</tspan><tspan x="-10.011" y="2108">175</tspan><tspan x="-10.011" y="2232">185</tspan><tspan x="-10.011" y="2356">195</tspan><tspan x="-10.011" y="2480">205</tspan><tspan x="-10.011" y="2604">215</tspan><tspan x="-10.011" y="2728">225</tspan><tspan x="-10.011" y="2852">235</tspan><tspan x="-10.011" y="2976">245</tspan><tspan x="-10.011" y="3100">255</tspan><tspan x="-10.011" y="3224">265</tspan><tspan x="-10.011" y="3348">275</tspan><tspan x="-10.011" y="3472">285</tspan><tspan x="-10.011" y="3596">295</tspan></text></g><g id="color_styel" data-name="color styel"><path d="m40.646 24.63-15.223 15.224-3.784-3.784-16.751-16.751 15.224-15.223z" fill="#eeefee"/><path d="m25.423 40.354a.5.5 0 0 1 -.354-.146l-20.534-20.535a.5.5 0 0 1 0-.707l15.223-15.224a.5.5 0 0 1 .707 0l20.535 20.535a.5.5 0 0 1 0 .707l-15.224 15.224a.5.5 0 0 1 -.353.146zm-19.823-21.035 19.823 19.828 14.516-14.517-19.827-19.83z" fill="#323c6b"/><path d="m28 .828h2.787v29.041h-2.787z" fill="#dbd8dd" transform="matrix(.707 -.707 .707 .707 -2.244 25.28)"/><path d="m63.056 69.392a.5.5 0 0 1 -.354-.854l.821-.821a.5.5 0 0 1 .707.707l-.821.821a.5.5 0 0 1 -.353.147z" fill="#323c6b"/><path d="m56.668 75.78a.5.5 0 0 1 -.354-.146l-3.579-3.578a.5.5 0 0 1 .707-.707l3.225 3.225 3.833-3.828a.5.5 0 0 1 .707.707l-4.181 4.181a.5.5 0 0 1 -.358.146z" fill="#323c6b"/><path d="m71.892 55.876-15.224 15.224-4.572-4.572-6.089-6.09-6.09-6.089-3.783-3.784 15.223-15.224z" fill="#eeefee"/><path d="m56.668 71.6a.5.5 0 0 1 -.354-.146l-20.534-20.536a.5.5 0 0 1 0-.707l15.22-15.223a.5.5 0 0 1 .707 0l20.539 20.534a.5.5 0 0 1 0 .707l-15.224 15.224a.5.5 0 0 1 -.354.147zm-19.828-21.035 19.828 19.828 14.517-14.517-19.828-19.828z" fill="#323c6b"/><path d="m51.357 35.341-1.97 1.971 18.564 18.564-13.253 13.253 1.97 1.971 15.224-15.224z" fill="#dbd8dd"/><g fill="#323c6b"><path d="m8.511 21.104h6.461v1h-6.461z" transform="matrix(.707 -.707 .707 .707 -11.837 14.63)"/><path d="m14.918 27.957h4.307v1h-4.307z" transform="matrix(.707 -.707 .707 .707 -15.122 20.406)"/><path d="m20.694 33.287h6.461v1h-6.461z" transform="matrix(.707 -.707 .707 .707 -16.884 26.813)"/><path d="m39.283 52.322h4.307v1h-4.307z" transform="matrix(.707 -.707 .707 .707 -25.214 44.771)"/><path d="m45.059 57.652h6.461v1h-6.461z" transform="matrix(.707 -.707 .707 .707 -26.976 51.178)"/><path d="m51.465 64.504h4.308v1h-4.308z" transform="matrix(.707 -.707 .707 .707 -30.26 56.954)"/><path d="m56.668 71.6a.5.5 0 0 1 -.354-.146l-20.534-20.536a.5.5 0 0 1 0-.707l15.22-15.223a.5.5 0 0 1 .707 0l20.539 20.534a.5.5 0 0 1 0 .707l-15.224 15.224a.5.5 0 0 1 -.354.147zm-19.828-21.035 19.828 19.828 14.517-14.517-19.828-19.828z"/><path d="m25.423 40.354a.5.5 0 0 1 -.354-.146l-20.534-20.535a.5.5 0 0 1 0-.707l15.223-15.224a.5.5 0 0 1 .707 0l20.535 20.535a.5.5 0 0 1 0 .707l-15.224 15.224a.5.5 0 0 1 -.353.146zm-19.823-21.035 19.823 19.828 14.516-14.517-19.827-19.83z"/></g><path d="m53.946 11.312h6.313v15.147h-6.313z" fill="#eeefee" transform="matrix(.707 -.707 .707 .707 3.37 45.908)"/><path d="m60.226 26.973a.5.5 0 0 1 -.354-.146l-10.711-10.711a.5.5 0 0 1 0-.707l4.464-4.464a.515.515 0 0 1 .707 0l10.71 10.711a.5.5 0 0 1 0 .707l-4.463 4.464a.5.5 0 0 1 -.353.146zm-10-11.211 10 10 3.756-3.757-10-10z" fill="#323c6b"/><path d="m58.316 21.862h6.313v2.787h-6.313z" fill="#dbd8dd" transform="matrix(.707 -.707 .707 .707 1.56 50.278)"/><path d="m54.875 21.122-38.375 38.37a12.185 12.185 0 0 0 -7.144-3.567l40.159-40.163z" fill="#b1dcc1"/><path d="m16.5 59.992a.5.5 0 0 1 -.353-.146 11.66 11.66 0 0 0 -6.847-3.424.5.5 0 0 1 -.3-.851l40.161-40.162a.5.5 0 0 1 .707 0l5.36 5.36a.5.5 0 0 1 0 .707l-38.379 38.37a.5.5 0 0 1 -.349.146zm-6.1-4.408a12.8 12.8 0 0 1 6.088 3.208l37.68-37.67-4.653-4.653z" fill="#323c6b"/><path d="m60.225 26.473-40.163 40.163a12.157 12.157 0 0 0 -3.562-7.144l38.38-38.37z" fill="#b1dcc1"/><path d="m20.063 67.136a.5.5 0 0 1 -.5-.445 11.612 11.612 0 0 0 -3.423-6.845.5.5 0 0 1 0-.707l38.379-38.37a.5.5 0 0 1 .707 0l5.351 5.351a.5.5 0 0 1 0 .707l-40.161 40.162a.5.5 0 0 1 -.353.147zm-2.863-7.636a12.74 12.74 0 0 1 3.2 6.087l39.119-39.114-4.644-4.643z" fill="#323c6b"/><path d="m58.255 24.5-39.024 39.026a11.066 11.066 0 0 1 .832 3.11l40.162-40.163z" fill="#9dceb2"/><path d="m20.062 66.636-15.174 4.464 4.464-15.175a12.185 12.185 0 0 1 7.148 3.567 12.157 12.157 0 0 1 3.562 7.144z" fill="#fed19a"/><path d="m4.888 71.6a.5.5 0 0 1 -.479-.641l4.463-15.175a.507.507 0 0 1 .534-.356 12.661 12.661 0 0 1 7.442 3.709 12.611 12.611 0 0 1 3.711 7.443.5.5 0 0 1 -.356.534l-15.174 4.465a.5.5 0 0 1 -.141.021zm4.822-15.123-4.084 13.884 13.885-4.084a11.708 11.708 0 0 0 -3.369-6.431 11.766 11.766 0 0 0 -6.432-3.369z" fill="#323c6b"/><path d="m18.957 62.925c.046.251.092.5.12.755l-13.144 3.866-1.045 3.554 15.174-4.464a11.229 11.229 0 0 0 -1.105-3.711z" fill="#f4bb87"/><path d="m49.174 12.421a.5.5 0 0 1 -.354-.854l.791-.79a.5.5 0 0 1 .707.707l-.791.79a.5.5 0 0 1 -.353.147z" fill="#323c6b"/><path d="m51.936 9.661a.5.5 0 0 1 -.354-.854l4.418-4.416a10.935 10.935 0 0 1 4.055-2.581.5.5 0 0 1 .338.941 9.942 9.942 0 0 0 -3.687 2.349l-4.417 4.414a.5.5 0 0 1 -.353.147z" fill="#323c6b"/><path d="m71.37 12.2a7.551 7.551 0 0 1 -2.217 5.35l-4.464 4.464-10.711-10.714 4.464-4.464a7.572 7.572 0 0 1 12.928 5.364z" fill="#fca495"/><path d="m64.689 22.509a.5.5 0 0 1 -.354-.146l-10.71-10.711a.5.5 0 0 1 0-.707l4.463-4.463a8.074 8.074 0 0 1 11.418 11.418l-4.464 4.464a.5.5 0 0 1 -.353.145zm-10-11.211 10 10 4.11-4.11a7.074 7.074 0 0 0 -10-10z" fill="#323c6b"/><path d="m64.935 4.716a7.458 7.458 0 0 1 1.458 1.133 7.577 7.577 0 0 1 0 10.711l-3.478 3.478 1.774 1.971 4.464-4.464a7.577 7.577 0 0 0 0-10.711c-.187-.187-.374-.355-.572-.522z" fill="#ea8d81"/><g fill="#323c6b"><path d="m64.689 22.509a.5.5 0 0 1 -.354-.146l-10.71-10.711a.5.5 0 0 1 0-.707l4.463-4.463a8.074 8.074 0 0 1 11.418 11.418l-4.464 4.464a.5.5 0 0 1 -.353.145zm-10-11.211 10 10 4.11-4.11a7.074 7.074 0 0 0 -10-10z"/><path d="m60.226 26.973a.5.5 0 0 1 -.354-.146l-10.711-10.711a.5.5 0 0 1 0-.707l4.464-4.464a.515.515 0 0 1 .707 0l10.71 10.711a.5.5 0 0 1 0 .707l-4.463 4.464a.5.5 0 0 1 -.353.146zm-10-11.211 10 10 3.756-3.757-10-10z"/><path d="m20.063 67.136a.5.5 0 0 1 -.5-.445 11.612 11.612 0 0 0 -3.423-6.845.5.5 0 0 1 0-.707l38.379-38.37a.5.5 0 0 1 .707 0l5.351 5.351a.5.5 0 0 1 0 .707l-40.161 40.162a.5.5 0 0 1 -.353.147zm-2.863-7.636a12.74 12.74 0 0 1 3.2 6.087l39.119-39.114-4.644-4.643z"/><path d="m4.888 71.6a.5.5 0 0 1 -.479-.641l4.463-15.175a.507.507 0 0 1 .534-.356 12.661 12.661 0 0 1 7.442 3.709 12.611 12.611 0 0 1 3.711 7.443.5.5 0 0 1 -.356.534l-15.174 4.465a.5.5 0 0 1 -.141.021zm4.822-15.123-4.084 13.884 13.885-4.084a11.708 11.708 0 0 0 -3.369-6.431 11.766 11.766 0 0 0 -6.432-3.369z"/><path d="m54.375 21.123v-.01h1z"/></g></g></svg>