<svg height="512" viewBox="0 0 74 74" width="512" xmlns="http://www.w3.org/2000/svg"><g id="Numbers"><text fill="#f00" font-family="ArialMT, Arial" font-size="18" transform="translate(31.995 -390.544)">6<tspan x="-5.005" y="124">16</tspan><tspan x="-5.005" y="248">26</tspan><tspan x="-5.005" y="372">36</tspan><tspan x="-5.005" y="496">46</tspan><tspan x="-5.005" y="620">56</tspan><tspan x="-5.005" y="744">66</tspan><tspan x="-5.005" y="868">76</tspan><tspan x="-5.005" y="992">86</tspan><tspan x="-5.005" y="1116">96</tspan><tspan x="-10.011" y="1240">106</tspan><tspan letter-spacing="-.074em" x="-9.343" y="1364">1</tspan><tspan x="-.668" y="1364">16</tspan><tspan x="-10.011" y="1488">126</tspan><tspan x="-10.011" y="1612">136</tspan><tspan x="-10.011" y="1736">146</tspan><tspan x="-10.011" y="1860">156</tspan><tspan x="-10.011" y="1984">166</tspan><tspan x="-10.011" y="2108">176</tspan><tspan x="-10.011" y="2232">186</tspan><tspan x="-10.011" y="2356">196</tspan><tspan x="-10.011" y="2480">206</tspan><tspan x="-10.011" y="2604">216</tspan><tspan x="-10.011" y="2728">226</tspan><tspan x="-10.011" y="2852">236</tspan><tspan x="-10.011" y="2976">246</tspan><tspan x="-10.011" y="3100">256</tspan><tspan x="-10.011" y="3224">266</tspan><tspan x="-10.011" y="3348">276</tspan><tspan x="-10.011" y="3472">286</tspan><tspan x="-10.011" y="3596">296</tspan></text></g><g id="color_styel" data-name="color styel"><path d="m12.009 2.367h-1.069a.5.5 0 0 1 0-1h1.068a.5.5 0 0 1 0 1z" fill="#323c6b"/><path d="m.5 8.533a.5.5 0 0 1 -.5-.5v-6.166a.5.5 0 0 1 .5-.5h6.741a.5.5 0 0 1 0 1h-6.241v5.666a.5.5 0 0 1 -.5.5z" fill="#323c6b"/><path d="m62.155 71.908h-50.8a7.89 7.89 0 0 1 -7.892-7.892v-59.189h50.307v58.7a8.386 8.386 0 0 0 8.385 8.385z" fill="#eeefee"/><path d="m62.155 72.408h-50.8a8.4 8.4 0 0 1 -8.393-8.392v-59.189a.5.5 0 0 1 .5-.5h50.309a.5.5 0 0 1 .5.5v58.7a7.885 7.885 0 0 0 7.885 7.885.5.5 0 1 1 0 1zm-58.196-67.081v58.689a7.4 7.4 0 0 0 7.393 7.392h46.7a8.928 8.928 0 0 1 -2.179-1.6 8.824 8.824 0 0 1 -2.6-6.282v-58.199z" fill="#323c6b"/><path d="m56.227 69.452a8.367 8.367 0 0 1 -2.456-5.929v-58.696h-1.971v58.7a8.386 8.386 0 0 0 8.385 8.385h1.973a8.367 8.367 0 0 1 -5.931-2.46z" fill="#dbd8dd"/><path d="m69.535 72.633a.5.5 0 0 1 -.326-.879 10.84 10.84 0 0 0 3.791-8.231.5.5 0 1 1 1 0 11.841 11.841 0 0 1 -4.139 8.989.5.5 0 0 1 -.326.121z" fill="#323c6b"/><path d="m73.5 61.063a.5.5 0 0 1 -.5-.5v-1.644a.5.5 0 0 1 1 0v1.645a.5.5 0 0 1 -.5.499z" fill="#323c6b"/><path d="m70.541 38.367v25.156a8.385 8.385 0 0 1 -16.77 0v-25.156z" fill="#dbd8dd"/><path d="m62.155 72.408a8.886 8.886 0 0 1 -8.885-8.885v-25.156a.5.5 0 0 1 .5-.5h16.771a.5.5 0 0 1 .5.5v25.156a8.9 8.9 0 0 1 -8.886 8.885zm-7.884-33.541v24.656a7.885 7.885 0 0 0 15.771 0v-24.656z" fill="#323c6b"/><path d="m67.581 38.367v25.156a8.388 8.388 0 0 1 -6.905 8.247 8.35 8.35 0 0 0 9.865-8.247v-25.156z" fill="#bbbbcd"/><path d="m62.155 72.408a8.886 8.886 0 0 1 -8.885-8.885v-25.156a.5.5 0 0 1 .5-.5h16.771a.5.5 0 0 1 .5.5v25.156a8.9 8.9 0 0 1 -8.886 8.885zm-7.884-33.541v24.656a7.885 7.885 0 0 0 15.771 0v-24.656z" fill="#323c6b"/><path d="m62.155 72.408h-50.8a8.4 8.4 0 0 1 -8.393-8.392v-59.189a.5.5 0 0 1 .5-.5h50.309a.5.5 0 0 1 .5.5v58.7a7.885 7.885 0 0 0 7.885 7.885.5.5 0 1 1 0 1zm-58.196-67.081v58.689a7.4 7.4 0 0 0 7.393 7.392h46.7a8.928 8.928 0 0 1 -2.179-1.6 8.824 8.824 0 0 1 -2.6-6.282v-58.199z" fill="#323c6b"/><path d="m9.378 10.746h38.473v12.824h-38.473z" fill="#b6d2dd"/><path d="m47.852 24.07h-38.474a.5.5 0 0 1 -.5-.5v-12.824a.5.5 0 0 1 .5-.5h38.474a.5.5 0 0 1 .5.5v12.824a.5.5 0 0 1 -.5.5zm-37.974-1h37.474v-11.824h-37.474z" fill="#323c6b"/><path d="m9.378 30.475h14.797v15.784h-14.797z" fill="#dbd8dd"/><path d="m24.176 46.759h-14.798a.5.5 0 0 1 -.5-.5v-15.783a.5.5 0 0 1 .5-.5h14.8a.5.5 0 0 1 .5.5v15.783a.5.5 0 0 1 -.502.5zm-14.3-1h13.8v-14.783h-13.798z" fill="#323c6b"/><g fill="#9a9eaf"><path d="m30.095 29.982h18.743v.986h-18.743z"/><path d="m30.095 37.874h18.743v.986h-18.743z"/><path d="m30.095 45.766h18.743v.986h-18.743z"/><path d="m8.392 53.658h40.446v.986h-40.446z"/><path d="m8.392 61.55h40.446v.986h-40.446z"/></g></g></svg>