<svg height="512" viewBox="0 0 74 74" width="512" xmlns="http://www.w3.org/2000/svg"><g id="Numbers"><text fill="#f00" font-family="ArialMT, Arial" font-size="18" transform="translate(31.994 -390.544)">7<tspan x="-5.005" y="124">17</tspan><tspan x="-5.005" y="248">27</tspan><tspan x="-5.005" y="372">37</tspan><tspan x="-5.005" y="496">47</tspan><tspan x="-5.005" y="620">57</tspan><tspan x="-5.005" y="744">67</tspan><tspan x="-5.005" y="868">77</tspan><tspan x="-5.005" y="992">87</tspan><tspan x="-5.005" y="1116">97</tspan><tspan x="-10.011" y="1240">107</tspan><tspan letter-spacing="-.074em" x="-9.343" y="1364">1</tspan><tspan x="-.668" y="1364">17</tspan><tspan x="-10.011" y="1488">127</tspan><tspan x="-10.011" y="1612">137</tspan><tspan x="-10.011" y="1736">147</tspan><tspan x="-10.011" y="1860">157</tspan><tspan x="-10.011" y="1984">167</tspan><tspan x="-10.011" y="2108">177</tspan><tspan x="-10.011" y="2232">187</tspan><tspan x="-10.011" y="2356">197</tspan><tspan x="-10.011" y="2480">207</tspan><tspan x="-10.011" y="2604">217</tspan><tspan x="-10.011" y="2728">227</tspan><tspan x="-10.011" y="2852">237</tspan><tspan x="-10.011" y="2976">247</tspan><tspan x="-10.011" y="3100">257</tspan><tspan x="-10.011" y="3224">267</tspan><tspan x="-10.011" y="3348">277</tspan><tspan x="-10.011" y="3472">287</tspan><tspan x="-10.011" y="3596">297</tspan></text></g><g id="color_styel" data-name="color styel"><path d="m7.76 28.76a.5.5 0 0 1 -.5-.5 30.5 30.5 0 0 1 2.866-13 .5.5 0 1 1 .906.423 29.512 29.512 0 0 0 -2.772 12.577.5.5 0 0 1 -.5.5z" fill="#323c6b"/><path d="m8.288 34.441a.5.5 0 0 1 -.49-.408q-.158-.838-.271-1.688a.5.5 0 0 1 .992-.132q.108.823.262 1.635a.5.5 0 0 1 -.4.583.508.508 0 0 1 -.093.01z" fill="#323c6b"/><path d="m58.92 45.84-1.67 1.67a27.234 27.234 0 0 1 -38.52-38.51l1.68-1.68 19.25 19.26z" fill="#dbd8dd"/><path d="m38.022 55.985c-.174 0-.348 0-.521 0a27.733 27.733 0 0 1 -19.124-47.338l1.68-1.681a.5.5 0 0 1 .354-.146.5.5 0 0 1 .354.146l38.51 38.52a.5.5 0 0 1 0 .707l-1.67 1.67a27.478 27.478 0 0 1 -19.583 8.122zm-17.612-47.958-1.326 1.327a26.728 26.728 0 0 0 18.434 45.626 26.429 26.429 0 0 0 19.382-7.824l1.316-1.316z" fill="#323c6b"/><path d="m37.51 50.48a27.213 27.213 0 0 1 -26.633-24.723c-.076.832-.117 1.667-.117 2.5a27.235 27.235 0 0 0 46.49 19.253l1.67-1.67-2.52-2.521a27.128 27.128 0 0 1 -18.89 7.161z" fill="#bbbbcd"/><circle cx="48.605" cy="17.64" fill="#69b0ee" r="2.918" transform="matrix(.707 -.707 .707 .707 1.763 39.536)"/><g fill="#323c6b"><path d="m48.6 21.06a3.42 3.42 0 0 1 -2.416-5.837 3.5 3.5 0 0 1 4.833 0 3.414 3.414 0 0 1 0 4.834 3.4 3.4 0 0 1 -2.417 1.003zm0-5.837a2.418 2.418 0 1 0 1.71 4.127 2.417 2.417 0 0 0 -1.71-4.127z"/><path d="m38.24 22.642h9.727v1h-9.727z" transform="matrix(.707 -.707 .707 .707 -3.739 37.257)"/><path d="m51.773 32.779v-1a10.984 10.984 0 0 0 10.972-10.971h1a11.985 11.985 0 0 1 -11.972 11.971z"/><path d="m50.774 28.932v-1a8.132 8.132 0 0 0 8.126-8.123h1a9.134 9.134 0 0 1 -9.126 9.123z"/><path d="m49.774 25.084v-1a5.281 5.281 0 0 0 5.275-5.275h1a6.283 6.283 0 0 1 -6.275 6.275z"/><path d="m34.466 14.472h-1a11.985 11.985 0 0 1 11.971-11.972v1a10.984 10.984 0 0 0 -10.971 10.972z"/><path d="m38.313 15.471h-1a9.134 9.134 0 0 1 9.124-9.123v1a8.133 8.133 0 0 0 -8.124 8.123z"/><path d="m42.16 16.47h-1a6.283 6.283 0 0 1 6.275-6.275v1a5.281 5.281 0 0 0 -5.275 5.275z"/><path d="m38.022 55.985c-.174 0-.348 0-.521 0a27.733 27.733 0 0 1 -19.124-47.338l1.68-1.681a.5.5 0 0 1 .354-.146.5.5 0 0 1 .354.146l38.51 38.52a.5.5 0 0 1 0 .707l-1.67 1.67a27.478 27.478 0 0 1 -19.583 8.122zm-17.612-47.958-1.326 1.327a26.728 26.728 0 0 0 18.434 45.626 26.429 26.429 0 0 0 19.382-7.824l1.316-1.316z"/></g><path d="m37.51 55.48v8.71h-14.59v-13.25a27.057 27.057 0 0 0 14.59 4.54z" fill="#9a9eaf"/><path d="m37.51 64.69h-14.59a.5.5 0 0 1 -.5-.5v-13.25a.5.5 0 0 1 .777-.416 26.512 26.512 0 0 0 14.32 4.456.5.5 0 0 1 .492.5v8.71a.5.5 0 0 1 -.499.5zm-14.09-1h13.59v-7.722a27.5 27.5 0 0 1 -13.59-4.112z" fill="#323c6b"/><path d="m34.51 55.48v8.71h3v-8.71a27.057 27.057 0 0 1 -14.59-4.54" fill="#828a9e"/><path d="m47.022 68.095a.5.5 0 0 1 -.5-.465 6.333 6.333 0 0 0 -.213-1.245.5.5 0 0 1 .965-.266 7.431 7.431 0 0 1 .246 1.441.5.5 0 0 1 -.464.534z" fill="#323c6b"/><path d="m45.017 63.71a.5.5 0 0 1 -.354-.146 6.359 6.359 0 0 0 -4.523-1.874.5.5 0 0 1 0-1 7.357 7.357 0 0 1 5.23 2.167.5.5 0 0 1 -.354.854z" fill="#323c6b"/><path d="m44.04 68.08v2.92h-27.65v-2.92a3.888 3.888 0 0 1 3.89-3.89h19.86a3.9 3.9 0 0 1 3.9 3.89z" fill="#828a9e"/><path d="m44.04 71.5h-27.65a.5.5 0 0 1 -.5-.5v-2.92a4.4 4.4 0 0 1 4.391-4.39h19.859a4.4 4.4 0 0 1 4.4 4.39v2.92a.5.5 0 0 1 -.5.5zm-27.15-1h26.65v-2.42a3.4 3.4 0 0 0 -3.4-3.39h-19.86a3.4 3.4 0 0 0 -3.391 3.39z" fill="#323c6b"/><path d="m40.14 64.19h-3a3.9 3.9 0 0 1 3.9 3.89v2.92h3v-2.92a3.9 3.9 0 0 0 -3.9-3.89z" fill="#62667c"/><path d="m37.51 64.69h-14.59v-1h14.09v-7.722a27.507 27.507 0 0 1 -14.367-4.612l.555-.832a26.512 26.512 0 0 0 14.32 4.456.5.5 0 0 1 .492.5v8.71a.5.5 0 0 1 -.5.5z" fill="#323c6b"/><path d="m44.04 71.5h-27.65a.5.5 0 0 1 -.5-.5v-2.92a4.4 4.4 0 0 1 4.391-4.39h19.859a4.4 4.4 0 0 1 4.4 4.39v2.92a.5.5 0 0 1 -.5.5zm-27.15-1h26.65v-2.42a3.4 3.4 0 0 0 -3.4-3.39h-19.86a3.4 3.4 0 0 0 -3.391 3.39z" fill="#323c6b"/><g fill="#bbbbcd"><path d="m20.753 12.9c-.016-.013-.033-.026-.051-.039a.925.925 0 0 0 -1.211.167 3.92 3.92 0 0 0 -.509.666.735.735 0 0 0 .257 1.083.928.928 0 0 0 1.19-.287 2.692 2.692 0 0 1 .4-.521.741.741 0 0 0 -.076-1.069z"/><path d="m18.459 15.995a.805.805 0 0 0 -.225-.192.926.926 0 0 0 -1.2.245 15.872 15.872 0 0 0 -2.914 9.945.826.826 0 0 0 .935.7.834.834 0 0 0 .788-.867 14.617 14.617 0 0 1 2.632-8.934.731.731 0 0 0 -.016-.897z"/></g></g></svg>