<svg height="512" viewBox="0 0 74 74" width="512" xmlns="http://www.w3.org/2000/svg"><g id="Numbers"><text fill="#f00" font-family="ArialMT, Arial" font-size="18" transform="translate(31.995 -390.544)">8<tspan x="-5.005" y="124">18</tspan><tspan x="-5.005" y="248">28</tspan><tspan x="-5.005" y="372">38</tspan><tspan x="-5.005" y="496">48</tspan><tspan x="-5.005" y="620">58</tspan><tspan x="-5.005" y="744">68</tspan><tspan x="-5.005" y="868">78</tspan><tspan x="-5.005" y="992">88</tspan><tspan x="-5.005" y="1116">98</tspan><tspan x="-10.011" y="1240">108</tspan><tspan letter-spacing="-.074em" x="-9.343" y="1364">1</tspan><tspan x="-.668" y="1364">18</tspan><tspan x="-10.011" y="1488">128</tspan><tspan x="-10.011" y="1612">138</tspan><tspan x="-10.011" y="1736">148</tspan><tspan x="-10.011" y="1860">158</tspan><tspan x="-10.011" y="1984">168</tspan><tspan x="-10.011" y="2108">178</tspan><tspan x="-10.011" y="2232">188</tspan><tspan x="-10.011" y="2356">198</tspan><tspan x="-10.011" y="2480">208</tspan><tspan x="-10.011" y="2604">218</tspan><tspan x="-10.011" y="2728">228</tspan><tspan x="-10.011" y="2852">238</tspan><tspan x="-10.011" y="2976">248</tspan><tspan x="-10.011" y="3100">258</tspan><tspan x="-10.011" y="3224">268</tspan><tspan x="-10.011" y="3348">278</tspan><tspan x="-10.011" y="3472">288</tspan><tspan x="-10.011" y="3596">298</tspan></text></g><g id="color_styel" data-name="color styel"><path d="m71 46v7a2.006 2.006 0 0 1 -2 2h-64a2.006 2.006 0 0 1 -2-2v-7z" fill="#9a9eaf"/><path d="m69 55.5h-64a2.5 2.5 0 0 1 -2.5-2.5v-7a.5.5 0 0 1 .5-.5h68a.5.5 0 0 1 .5.5v7a2.5 2.5 0 0 1 -2.5 2.5zm-65.5-9v6.5a1.5 1.5 0 0 0 1.5 1.5h64a1.5 1.5 0 0 0 1.5-1.5v-6.5z" fill="#323c6b"/><path d="m69 46v7a2.006 2.006 0 0 1 -2 2h2a2.006 2.006 0 0 0 2-2v-7z" fill="#828a9e"/><path d="m71 8v38h-68v-38a2.006 2.006 0 0 1 2-2h64a2.006 2.006 0 0 1 2 2z" fill="#b6d2dd"/><path d="m71 46.5h-68a.5.5 0 0 1 -.5-.5v-38a2.5 2.5 0 0 1 2.5-2.5h64a2.5 2.5 0 0 1 2.5 2.5v38a.5.5 0 0 1 -.5.5zm-67.5-1h67v-37.5a1.5 1.5 0 0 0 -1.5-1.5h-64a1.5 1.5 0 0 0 -1.5 1.5z" fill="#323c6b"/><path d="m69 6h-2a2.006 2.006 0 0 1 2 2v38h2v-38a2.006 2.006 0 0 0 -2-2z" fill="#acc6cc"/><path d="m50 66v3h-26v-3a4 4 0 0 1 4-4h18a4 4 0 0 1 4 4z" fill="#828a9e"/><path d="m50 69.5h-26a.5.5 0 0 1 -.5-.5v-3a4.5 4.5 0 0 1 4.5-4.5h18a4.5 4.5 0 0 1 4.5 4.5v3a.5.5 0 0 1 -.5.5zm-25.5-1h25v-2.5a3.5 3.5 0 0 0 -3.5-3.5h-18a3.5 3.5 0 0 0 -3.5 3.5z" fill="#323c6b"/><path d="m46 62h-3a4 4 0 0 1 4 4v3h3v-3a4 4 0 0 0 -4-4z" fill="#62667c"/><path d="m29 55h16v7h-16z" fill="#bbbbcd"/><path d="m45 62.5h-16a.5.5 0 0 1 -.5-.5v-7a.5.5 0 0 1 .5-.5h16a.5.5 0 0 1 .5.5v7a.5.5 0 0 1 -.5.5zm-15.5-1h15v-6h-15z" fill="#323c6b"/><path d="m42 55h3v7h-3z" fill="#9a9eaf"/><g fill="#323c6b"><path d="m45 62.5h-16a.5.5 0 0 1 -.5-.5v-7a.5.5 0 0 1 .5-.5h16a.5.5 0 0 1 .5.5v7a.5.5 0 0 1 -.5.5zm-15.5-1h15v-6h-15z"/><path d="m50 69.5h-26a.5.5 0 0 1 -.5-.5v-3a4.5 4.5 0 0 1 4.5-4.5h18a4.5 4.5 0 0 1 4.5 4.5v3a.5.5 0 0 1 -.5.5zm-25.5-1h25v-2.5a3.5 3.5 0 0 0 -3.5-3.5h-18a3.5 3.5 0 0 0 -3.5 3.5z"/><path d="m71 46.5h-68a.5.5 0 0 1 -.5-.5v-38a2.5 2.5 0 0 1 2.5-2.5h64a2.5 2.5 0 0 1 2.5 2.5v38a.5.5 0 0 1 -.5.5zm-67.5-1h67v-37.5a1.5 1.5 0 0 0 -1.5-1.5h-64a1.5 1.5 0 0 0 -1.5 1.5z"/><path d="m69 55.5h-64a2.5 2.5 0 0 1 -2.5-2.5v-7a.5.5 0 0 1 .5-.5h68a.5.5 0 0 1 .5.5v7a2.5 2.5 0 0 1 -2.5 2.5zm-65.5-9v6.5a1.5 1.5 0 0 0 1.5 1.5h64a1.5 1.5 0 0 0 1.5-1.5v-6.5z"/></g><path d="m9 12h19v21.28h-19z" fill="#eeefee"/><path d="m28 33.78h-19a.5.5 0 0 1 -.5-.5v-21.28a.5.5 0 0 1 .5-.5h19a.5.5 0 0 1 .5.5v21.28a.5.5 0 0 1 -.5.5zm-18.5-1h18v-20.28h-18z" fill="#323c6b"/><path d="m34 12h31v7.84h-31z" fill="#eeefee"/><path d="m65 20.34h-31a.5.5 0 0 1 -.5-.5v-7.84a.5.5 0 0 1 .5-.5h31a.5.5 0 0 1 .5.5v7.84a.5.5 0 0 1 -.5.5zm-30.5-1h30v-6.84h-30z" fill="#323c6b"/><g fill="#eeefee"><path d="m33 26.06h33v1h-33z"/><path d="m33 32.78h33v1h-33z"/><path d="m8 39.5h21v1h-21z"/><rect height="1.06" rx=".53" width="7.814" x="7.592" y="51.783"/><rect height="1.06" rx=".53" width="1.343" x="5.033" y="51.783"/></g></g></svg>