<svg height="512" viewBox="0 0 74 74" width="512" xmlns="http://www.w3.org/2000/svg"><g id="Numbers"><text fill="#f00" font-family="ArialMT, Arial" font-size="18" transform="translate(30.995 -514.544)">1<tspan letter-spacing="-.074em" x="-4.337" y="124">1</tspan><tspan x="4.337" y="124">1</tspan><tspan x="-5.005" y="248">21</tspan><tspan x="-5.005" y="372">31</tspan><tspan x="-5.005" y="496">41</tspan><tspan x="-5.005" y="620">51</tspan><tspan x="-5.005" y="744">61</tspan><tspan x="-5.005" y="868">71</tspan><tspan x="-5.005" y="992">81</tspan><tspan x="-5.005" y="1116">91</tspan><tspan x="-10.011" y="1240">101</tspan><tspan letter-spacing="-.074em" x="-8.675" y="1364">11</tspan><tspan x="8.675" y="1364">1</tspan><tspan x="-10.011" y="1488">121</tspan><tspan x="-10.011" y="1612">131</tspan><tspan x="-10.011" y="1736">141</tspan><tspan x="-10.011" y="1860">151</tspan><tspan x="-10.011" y="1984">161</tspan><tspan x="-10.011" y="2108">171</tspan><tspan x="-10.011" y="2232">181</tspan><tspan x="-10.011" y="2356">191</tspan><tspan x="-10.011" y="2480">201</tspan><tspan x="-9.343" y="2604">2</tspan><tspan letter-spacing="-.074em" x=".668" y="2604">1</tspan><tspan x="9.343" y="2604">1</tspan><tspan x="-10.011" y="2728">221</tspan><tspan x="-10.011" y="2852">231</tspan><tspan x="-10.011" y="2976">241</tspan><tspan x="-10.011" y="3100">251</tspan><tspan x="-10.011" y="3224">261</tspan><tspan x="-10.011" y="3348">271</tspan><tspan x="-10.011" y="3472">281</tspan><tspan x="-10.011" y="3596">291</tspan></text></g><g id="color_styel" data-name="color styel"><path d="m70.541 11.372v12.828h-67.082v-12.828a1.979 1.979 0 0 1 1.973-1.972h4.932v3.946a1.979 1.979 0 0 0 1.973 1.973h1.973a1.979 1.979 0 0 0 1.973-1.973v-3.946h9.865v3.946a1.979 1.979 0 0 0 1.973 1.973h1.973a1.979 1.979 0 0 0 1.973-1.973v-3.946h9.865v3.946a1.979 1.979 0 0 0 1.973 1.973h1.973a1.979 1.979 0 0 0 1.973-1.973v-3.946h9.865v3.946a1.979 1.979 0 0 0 1.973 1.973h1.973a1.979 1.979 0 0 0 1.973-1.973v-3.946h4.932a1.979 1.979 0 0 1 1.974 1.972z" fill="#ef5261"/><path d="m70.541 24.7h-67.082a.5.5 0 0 1 -.5-.5v-12.828a2.476 2.476 0 0 1 2.474-2.472h4.932a.5.5 0 0 1 .5.5v3.946a1.474 1.474 0 0 0 1.473 1.473h1.973a1.474 1.474 0 0 0 1.473-1.473v-3.946a.5.5 0 0 1 .5-.5h9.865a.5.5 0 0 1 .5.5v3.946a1.474 1.474 0 0 0 1.473 1.473h1.973a1.474 1.474 0 0 0 1.473-1.473v-3.946a.5.5 0 0 1 .5-.5h9.865a.5.5 0 0 1 .5.5v3.946a1.474 1.474 0 0 0 1.473 1.473h1.973a1.474 1.474 0 0 0 1.473-1.473v-3.946a.5.5 0 0 1 .5-.5h9.865a.5.5 0 0 1 .5.5v3.946a1.474 1.474 0 0 0 1.473 1.473h1.973a1.474 1.474 0 0 0 1.473-1.473v-3.946a.5.5 0 0 1 .5-.5h4.932a2.476 2.476 0 0 1 2.473 2.473v12.827a.5.5 0 0 1 -.5.5zm-66.581-1h66.081v-12.328a1.475 1.475 0 0 0 -1.474-1.472h-4.432v3.446a2.476 2.476 0 0 1 -2.473 2.473h-1.973a2.476 2.476 0 0 1 -2.473-2.473v-3.446h-8.864v3.446a2.476 2.476 0 0 1 -2.473 2.473h-1.974a2.476 2.476 0 0 1 -2.473-2.473v-3.446h-8.865v3.446a2.476 2.476 0 0 1 -2.473 2.473h-1.972a2.476 2.476 0 0 1 -2.473-2.473v-3.446h-8.865v3.446a2.476 2.476 0 0 1 -2.473 2.473h-1.973a2.476 2.476 0 0 1 -2.473-2.473v-3.446h-4.432a1.475 1.475 0 0 0 -1.473 1.473z" fill="#323c6b"/><path d="m68.568 9.4h-2.96a1.979 1.979 0 0 1 1.973 1.973v12.827h2.959v-12.828a1.979 1.979 0 0 0 -1.972-1.972z" fill="#e42542"/><g fill="#323c6b"><path d="m.5 38.014a.5.5 0 0 1 -.5-.5v-9.5a.5.5 0 0 1 1 0v9.5a.5.5 0 0 1 -.5.5z"/><path d="m.5 41.836a.5.5 0 0 1 -.5-.5v-1.109a.5.5 0 0 1 1 0v1.109a.5.5 0 0 1 -.5.5z"/><path d="m61.416 74.021h-.74a.5.5 0 0 1 0-1h.74a.5.5 0 1 1 0 1z"/><path d="m68.567 74.021h-3.945a.5.5 0 1 1 0-1h3.946a4.437 4.437 0 0 0 4.432-4.433.5.5 0 0 1 1 0 5.439 5.439 0 0 1 -5.433 5.433z"/></g><path d="m70.541 24.2v44.388a1.979 1.979 0 0 1 -1.973 1.973h-63.136a1.979 1.979 0 0 1 -1.973-1.973v-44.388z" fill="#eeefee"/><path d="m68.567 71.061h-63.134a2.476 2.476 0 0 1 -2.473-2.473v-44.388a.5.5 0 0 1 .5-.5h67.081a.5.5 0 0 1 .5.5v44.388a2.476 2.476 0 0 1 -2.474 2.473zm-64.608-46.361v43.888a1.475 1.475 0 0 0 1.473 1.473h63.135a1.475 1.475 0 0 0 1.473-1.473v-43.888z" fill="#323c6b"/><path d="m67.581 24.2v44.388a1.979 1.979 0 0 1 -1.973 1.973h2.959a1.979 1.979 0 0 0 1.973-1.973v-44.388z" fill="#dbd8dd"/><rect fill="#dbd8dd" height="11.838" rx="1.973" width="5.919" x="57.716" y="3.48"/><path d="m61.662 15.817h-1.973a2.476 2.476 0 0 1 -2.473-2.473v-7.891a2.476 2.476 0 0 1 2.473-2.473h1.973a2.476 2.476 0 0 1 2.473 2.473v7.892a2.476 2.476 0 0 1 -2.473 2.472zm-1.973-11.838a1.474 1.474 0 0 0 -1.473 1.473v7.892a1.474 1.474 0 0 0 1.473 1.473h1.973a1.474 1.474 0 0 0 1.473-1.473v-7.891a1.475 1.475 0 0 0 -1.473-1.473z" fill="#323c6b"/><path d="m61.662 3.48h-1.973a1.979 1.979 0 0 1 1.973 1.973v7.892a1.979 1.979 0 0 1 -1.973 1.973h1.973a1.979 1.979 0 0 0 1.973-1.973v-7.892a1.979 1.979 0 0 0 -1.973-1.973z" fill="#bbbbcd"/><rect fill="#dbd8dd" height="11.838" rx="1.973" width="5.919" x="41.932" y="3.48"/><path d="m45.878 15.817h-1.973a2.476 2.476 0 0 1 -2.473-2.473v-7.891a2.476 2.476 0 0 1 2.473-2.473h1.973a2.476 2.476 0 0 1 2.473 2.473v7.892a2.476 2.476 0 0 1 -2.473 2.472zm-1.973-11.838a1.474 1.474 0 0 0 -1.473 1.473v7.892a1.474 1.474 0 0 0 1.473 1.473h1.973a1.474 1.474 0 0 0 1.473-1.473v-7.891a1.475 1.475 0 0 0 -1.473-1.473z" fill="#323c6b"/><path d="m45.878 3.48h-1.973a1.979 1.979 0 0 1 1.973 1.973v7.892a1.979 1.979 0 0 1 -1.973 1.973h1.973a1.979 1.979 0 0 0 1.973-1.973v-7.892a1.979 1.979 0 0 0 -1.973-1.973z" fill="#bbbbcd"/><rect fill="#dbd8dd" height="11.838" rx="1.973" width="5.919" x="26.149" y="3.48"/><path d="m30.095 15.817h-1.973a2.476 2.476 0 0 1 -2.473-2.473v-7.891a2.476 2.476 0 0 1 2.473-2.473h1.973a2.476 2.476 0 0 1 2.473 2.473v7.892a2.476 2.476 0 0 1 -2.473 2.472zm-1.973-11.838a1.475 1.475 0 0 0 -1.473 1.473v7.892a1.474 1.474 0 0 0 1.473 1.473h1.973a1.474 1.474 0 0 0 1.473-1.473v-7.891a1.474 1.474 0 0 0 -1.473-1.473z" fill="#323c6b"/><path d="m30.095 3.48h-1.973a1.979 1.979 0 0 1 1.973 1.973v7.892a1.979 1.979 0 0 1 -1.973 1.973h1.973a1.979 1.979 0 0 0 1.973-1.973v-7.892a1.979 1.979 0 0 0 -1.973-1.973z" fill="#bbbbcd"/><rect fill="#dbd8dd" height="11.838" rx="1.973" width="5.919" x="10.365" y="3.48"/><path d="m14.311 15.817h-1.973a2.476 2.476 0 0 1 -2.473-2.473v-7.891a2.476 2.476 0 0 1 2.473-2.473h1.973a2.476 2.476 0 0 1 2.473 2.473v7.892a2.476 2.476 0 0 1 -2.473 2.472zm-1.973-11.838a1.475 1.475 0 0 0 -1.473 1.473v7.892a1.474 1.474 0 0 0 1.473 1.473h1.973a1.474 1.474 0 0 0 1.473-1.473v-7.891a1.474 1.474 0 0 0 -1.473-1.473z" fill="#323c6b"/><path d="m14.311 3.48h-1.973a1.979 1.979 0 0 1 1.973 1.973v7.892a1.979 1.979 0 0 1 -1.973 1.973h1.973a1.979 1.979 0 0 0 1.973-1.973v-7.892a1.979 1.979 0 0 0 -1.973-1.973z" fill="#bbbbcd"/><g fill="#323c6b"><path d="m61.662 15.817h-1.973a2.476 2.476 0 0 1 -2.473-2.473v-7.891a2.476 2.476 0 0 1 2.473-2.473h1.973a2.476 2.476 0 0 1 2.473 2.473v7.892a2.476 2.476 0 0 1 -2.473 2.472zm-1.973-11.838a1.474 1.474 0 0 0 -1.473 1.473v7.892a1.474 1.474 0 0 0 1.473 1.473h1.973a1.474 1.474 0 0 0 1.473-1.473v-7.891a1.475 1.475 0 0 0 -1.473-1.473z"/><path d="m45.878 15.817h-1.973a2.476 2.476 0 0 1 -2.473-2.473v-7.891a2.476 2.476 0 0 1 2.473-2.473h1.973a2.476 2.476 0 0 1 2.473 2.473v7.892a2.476 2.476 0 0 1 -2.473 2.472zm-1.973-11.838a1.474 1.474 0 0 0 -1.473 1.473v7.892a1.474 1.474 0 0 0 1.473 1.473h1.973a1.474 1.474 0 0 0 1.473-1.473v-7.891a1.475 1.475 0 0 0 -1.473-1.473z"/><path d="m30.095 15.817h-1.973a2.476 2.476 0 0 1 -2.473-2.473v-7.891a2.476 2.476 0 0 1 2.473-2.473h1.973a2.476 2.476 0 0 1 2.473 2.473v7.892a2.476 2.476 0 0 1 -2.473 2.472zm-1.973-11.838a1.475 1.475 0 0 0 -1.473 1.473v7.892a1.474 1.474 0 0 0 1.473 1.473h1.973a1.474 1.474 0 0 0 1.473-1.473v-7.891a1.474 1.474 0 0 0 -1.473-1.473z"/><path d="m14.311 15.817h-1.973a2.476 2.476 0 0 1 -2.473-2.473v-7.891a2.476 2.476 0 0 1 2.473-2.473h1.973a2.476 2.476 0 0 1 2.473 2.473v7.892a2.476 2.476 0 0 1 -2.473 2.472zm-1.973-11.838a1.475 1.475 0 0 0 -1.473 1.473v7.892a1.474 1.474 0 0 0 1.473 1.473h1.973a1.474 1.474 0 0 0 1.473-1.473v-7.891a1.474 1.474 0 0 0 -1.473-1.473z"/></g><path d="m25.162 30.115h7.892v7.892h-7.892z" fill="#b6d2dd"/><path d="m33.054 38.507h-7.892a.5.5 0 0 1 -.5-.5v-7.892a.5.5 0 0 1 .5-.5h7.892a.5.5 0 0 1 .5.5v7.892a.5.5 0 0 1 -.5.5zm-7.392-1h6.892v-6.892h-6.892z" fill="#323c6b"/><path d="m40.946 30.115h7.892v7.892h-7.892z" fill="#b6d2dd"/><path d="m48.838 38.507h-7.892a.5.5 0 0 1 -.5-.5v-7.892a.5.5 0 0 1 .5-.5h7.892a.5.5 0 0 1 .5.5v7.892a.5.5 0 0 1 -.5.5zm-7.392-1h6.892v-6.892h-6.892z" fill="#323c6b"/><path d="m56.73 30.115h7.892v7.892h-7.892z" fill="#b6d2dd"/><path d="m64.622 38.507h-7.893a.5.5 0 0 1 -.5-.5v-7.892a.5.5 0 0 1 .5-.5h7.892a.5.5 0 0 1 .5.5v7.892a.5.5 0 0 1 -.499.5zm-7.392-1h6.892v-6.892h-6.893z" fill="#323c6b"/><path d="m9.378 43.926h7.892v7.892h-7.892z" fill="#b6d2dd"/><path d="m17.271 52.317h-7.893a.5.5 0 0 1 -.5-.5v-7.891a.5.5 0 0 1 .5-.5h7.892a.5.5 0 0 1 .5.5v7.892a.5.5 0 0 1 -.499.499zm-7.392-1h6.892v-6.891h-6.893z" fill="#323c6b"/><path d="m25.162 43.926h7.892v7.892h-7.892z" fill="#b6d2dd"/><path d="m33.054 52.317h-7.892a.5.5 0 0 1 -.5-.5v-7.891a.5.5 0 0 1 .5-.5h7.892a.5.5 0 0 1 .5.5v7.892a.5.5 0 0 1 -.5.499zm-7.392-1h6.892v-6.891h-6.892z" fill="#323c6b"/><path d="m40.946 43.926h7.892v7.892h-7.892z" fill="#b6d2dd"/><path d="m48.838 52.317h-7.892a.5.5 0 0 1 -.5-.5v-7.891a.5.5 0 0 1 .5-.5h7.892a.5.5 0 0 1 .5.5v7.892a.5.5 0 0 1 -.5.499zm-7.392-1h6.892v-6.891h-6.892z" fill="#323c6b"/><path d="m56.73 43.926h7.892v7.892h-7.892z" fill="#b6d2dd"/><path d="m64.622 52.317h-7.893a.5.5 0 0 1 -.5-.5v-7.891a.5.5 0 0 1 .5-.5h7.892a.5.5 0 0 1 .5.5v7.892a.5.5 0 0 1 -.499.499zm-7.392-1h6.892v-6.891h-6.893z" fill="#323c6b"/><path d="m9.378 57.736h7.892v7.892h-7.892z" fill="#b6d2dd"/><path d="m17.271 66.128h-7.893a.5.5 0 0 1 -.5-.5v-7.892a.5.5 0 0 1 .5-.5h7.892a.5.5 0 0 1 .5.5v7.892a.5.5 0 0 1 -.499.5zm-7.392-1h6.892v-6.892h-6.893z" fill="#323c6b"/><path d="m25.162 57.736h7.892v7.892h-7.892z" fill="#b6d2dd"/><path d="m33.054 66.128h-7.892a.5.5 0 0 1 -.5-.5v-7.892a.5.5 0 0 1 .5-.5h7.892a.5.5 0 0 1 .5.5v7.892a.5.5 0 0 1 -.5.5zm-7.392-1h6.892v-6.892h-6.892z" fill="#323c6b"/><path d="m40.946 57.736h7.892v7.892h-7.892z" fill="#b6d2dd"/><path d="m48.838 66.128h-7.892a.5.5 0 0 1 -.5-.5v-7.892a.5.5 0 0 1 .5-.5h7.892a.5.5 0 0 1 .5.5v7.892a.5.5 0 0 1 -.5.5zm-7.392-1h6.892v-6.892h-6.892z" fill="#323c6b"/><path d="m70.541 24.7h-67.082a.5.5 0 0 1 -.5-.5v-12.828a2.476 2.476 0 0 1 2.474-2.472h4.932a.5.5 0 0 1 .5.5v3.946a1.474 1.474 0 0 0 1.473 1.473h1.973a1.474 1.474 0 0 0 1.473-1.473v-3.946a.5.5 0 0 1 .5-.5h9.865a.5.5 0 0 1 .5.5v3.946a1.474 1.474 0 0 0 1.473 1.473h1.973a1.474 1.474 0 0 0 1.473-1.473v-3.946a.5.5 0 0 1 .5-.5h9.865a.5.5 0 0 1 .5.5v3.946a1.474 1.474 0 0 0 1.473 1.473h1.973a1.474 1.474 0 0 0 1.473-1.473v-3.946a.5.5 0 0 1 .5-.5h9.865a.5.5 0 0 1 .5.5v3.946a1.474 1.474 0 0 0 1.473 1.473h1.973a1.474 1.474 0 0 0 1.473-1.473v-3.946a.5.5 0 0 1 .5-.5h4.932a2.476 2.476 0 0 1 2.473 2.473v12.827a.5.5 0 0 1 -.5.5zm-66.581-1h66.081v-12.328a1.475 1.475 0 0 0 -1.474-1.472h-4.432v3.446a2.476 2.476 0 0 1 -2.473 2.473h-1.973a2.476 2.476 0 0 1 -2.473-2.473v-3.446h-8.864v3.446a2.476 2.476 0 0 1 -2.473 2.473h-1.974a2.476 2.476 0 0 1 -2.473-2.473v-3.446h-8.865v3.446a2.476 2.476 0 0 1 -2.473 2.473h-1.972a2.476 2.476 0 0 1 -2.473-2.473v-3.446h-8.865v3.446a2.476 2.476 0 0 1 -2.473 2.473h-1.973a2.476 2.476 0 0 1 -2.473-2.473v-3.446h-4.432a1.475 1.475 0 0 0 -1.473 1.473z" fill="#323c6b"/><path d="m68.567 71.061h-63.134a2.476 2.476 0 0 1 -2.473-2.473v-44.388a.5.5 0 0 1 .5-.5h67.081a.5.5 0 0 1 .5.5v44.388a2.476 2.476 0 0 1 -2.474 2.473zm-64.608-46.361v43.888a1.475 1.475 0 0 0 1.473 1.473h63.135a1.475 1.475 0 0 0 1.473-1.473v-43.888z" fill="#323c6b"/><path d="m17.575 26.6h-1.232a.616.616 0 1 0 0 1.231h1.231a.616.616 0 1 0 0-1.231z" fill="#dbd8dd"/><path d="m13.611 26.786h-6.546a.856.856 0 0 0 -.856.856v4.224a.616.616 0 0 0 1.231 0v-3.848h6.171a.616.616 0 0 0 0-1.231z" fill="#dbd8dd"/></g></svg>