<svg height="512" viewBox="0 0 74 74" width="512" xmlns="http://www.w3.org/2000/svg"><g id="Numbers"><text fill="#f00" font-family="ArialMT, Arial" font-size="18" transform="translate(31.995 -514.544)">2<tspan x="-5.005" y="124">12</tspan><tspan x="-5.005" y="248">22</tspan><tspan x="-5.005" y="372">32</tspan><tspan x="-5.005" y="496">42</tspan><tspan x="-5.005" y="620">52</tspan><tspan x="-5.005" y="744">62</tspan><tspan x="-5.005" y="868">72</tspan><tspan x="-5.005" y="992">82</tspan><tspan x="-5.005" y="1116">92</tspan><tspan x="-10.011" y="1240">102</tspan><tspan letter-spacing="-.074em" x="-9.343" y="1364">1</tspan><tspan x="-.668" y="1364">12</tspan><tspan x="-10.011" y="1488">122</tspan><tspan x="-10.011" y="1612">132</tspan><tspan x="-10.011" y="1736">142</tspan><tspan x="-10.011" y="1860">152</tspan><tspan x="-10.011" y="1984">162</tspan><tspan x="-10.011" y="2108">172</tspan><tspan x="-10.011" y="2232">182</tspan><tspan x="-10.011" y="2356">192</tspan><tspan x="-10.011" y="2480">202</tspan><tspan x="-10.011" y="2604">212</tspan><tspan x="-10.011" y="2728">222</tspan><tspan x="-10.011" y="2852">232</tspan><tspan x="-10.011" y="2976">242</tspan><tspan x="-10.011" y="3100">252</tspan><tspan x="-10.011" y="3224">262</tspan><tspan x="-10.011" y="3348">272</tspan><tspan x="-10.011" y="3472">282</tspan><tspan x="-10.011" y="3596">292</tspan></text></g><g id="color_styel" data-name="color styel"><g fill="#323c6b"><path d="m14.68 4.425a.5.5 0 0 1 -.162-.973 22.252 22.252 0 0 1 12.98-.4.5.5 0 1 1 -.264.965 21.241 21.241 0 0 0 -12.392.383.492.492 0 0 1 -.162.025z"/><path d="m9.447 7.053a.5.5 0 0 1 -.283-.913q.5-.341 1.018-.657a.5.5 0 0 1 .519.854q-.5.3-.971.627a.5.5 0 0 1 -.283.089z"/><path d="m57.5 58.134a.5.5 0 0 1 -.36-.847q.457-.475.909-.957a.5.5 0 0 1 .73.683q-.457.489-.918.967a.5.5 0 0 1 -.361.154z"/><path d="m60.473 54.892a.5.5 0 0 1 -.377-.828 66.366 66.366 0 0 0 8.734-12.587.5.5 0 1 1 .886.464 67.339 67.339 0 0 1 -8.865 12.778.5.5 0 0 1 -.378.173z"/></g><path d="m71 24.437c0 19.007-21.333 38.663-34 45.32-12.667-6.657-34-26.17-34-45.32a18.664 18.664 0 0 1 34-10.637 18.664 18.664 0 0 1 34 10.64z" fill="#ef5261"/><path d="m37 70.257a.5.5 0 0 1 -.232-.057c-13.82-7.26-34.268-26.824-34.268-45.763a19.163 19.163 0 0 1 34.5-11.494 19.163 19.163 0 0 1 34.5 11.494c0 19.619-22.318 39.486-34.268 45.763a.5.5 0 0 1 -.232.057zm-15.333-63.987a18.187 18.187 0 0 0 -18.167 18.167c0 19.063 21.683 38.443 33.5 44.754 11.817-6.311 33.5-25.691 33.5-44.754a18.164 18.164 0 0 0 -33.089-10.355.518.518 0 0 1 -.821 0 18.186 18.186 0 0 0 -14.923-7.812z" fill="#323c6b"/><path d="m52.333 5.77a18.779 18.779 0 0 0 -2.552.179 18.661 18.661 0 0 1 16.219 18.488c0 17.806-18.721 36.183-31.5 43.905.863.521 1.7.994 2.5 1.415 12.667-6.657 34-26.313 34-45.32a18.67 18.67 0 0 0 -18.667-18.667z" fill="#e42542"/><path d="m37 70.257a.5.5 0 0 1 -.232-.057c-13.82-7.26-34.268-26.824-34.268-45.763a19.163 19.163 0 0 1 34.5-11.494 19.163 19.163 0 0 1 34.5 11.494c0 19.619-22.318 39.486-34.268 45.763a.5.5 0 0 1 -.232.057zm-15.333-63.987a18.187 18.187 0 0 0 -18.167 18.167c0 19.063 21.683 38.443 33.5 44.754 11.817-6.311 33.5-25.691 33.5-44.754a18.164 18.164 0 0 0 -33.089-10.355.518.518 0 0 1 -.821 0 18.186 18.186 0 0 0 -14.923-7.812z" fill="#323c6b"/><g fill="#e42542"><path d="m17.281 10.205c-.013-.022-.028-.045-.043-.066a1.145 1.145 0 0 0 -1.483-.3 4.853 4.853 0 0 0 -.868.569.91.91 0 0 0 -.144 1.37 1.148 1.148 0 0 0 1.508.153 3.333 3.333 0 0 1 .68-.445.917.917 0 0 0 .35-1.281z"/><path d="m13.673 13.251a1 1 0 0 0 -.226-.287 1.146 1.146 0 0 0 -1.514.008 19.648 19.648 0 0 0 -5.947 11.366 1.022 1.022 0 0 0 .966 1.074 1.032 1.032 0 0 0 1.167-.862 18.1 18.1 0 0 1 5.359-10.208.9.9 0 0 0 .195-1.091z"/></g></g></svg>