<svg height="512" viewBox="0 0 74 74" width="512" xmlns="http://www.w3.org/2000/svg"><g id="Numbers"><text fill="#f00" font-family="ArialMT, Arial" font-size="18" transform="translate(31.995 -514.544)">3<tspan x="-5.005" y="124">13</tspan><tspan x="-5.005" y="248">23</tspan><tspan x="-5.005" y="372">33</tspan><tspan x="-5.005" y="496">43</tspan><tspan x="-5.005" y="620">53</tspan><tspan x="-5.005" y="744">63</tspan><tspan x="-5.005" y="868">73</tspan><tspan x="-5.005" y="992">83</tspan><tspan x="-5.005" y="1116">93</tspan><tspan x="-10.011" y="1240">103</tspan><tspan letter-spacing="-.074em" x="-9.343" y="1364">1</tspan><tspan x="-.668" y="1364">13</tspan><tspan x="-10.011" y="1488">123</tspan><tspan x="-10.011" y="1612">133</tspan><tspan x="-10.011" y="1736">143</tspan><tspan x="-10.011" y="1860">153</tspan><tspan x="-10.011" y="1984">163</tspan><tspan x="-10.011" y="2108">173</tspan><tspan x="-10.011" y="2232">183</tspan><tspan x="-10.011" y="2356">193</tspan><tspan x="-10.011" y="2480">203</tspan><tspan x="-10.011" y="2604">213</tspan><tspan x="-10.011" y="2728">223</tspan><tspan x="-10.011" y="2852">233</tspan><tspan x="-10.011" y="2976">243</tspan><tspan x="-10.011" y="3100">253</tspan><tspan x="-10.011" y="3224">263</tspan><tspan x="-10.011" y="3348">273</tspan><tspan x="-10.011" y="3472">283</tspan><tspan x="-10.011" y="3596">293</tspan></text></g><g id="color_styel" data-name="color styel"><g fill="#323c6b"><path d="m20.2 5.122a.5.5 0 0 1 -.254-.931q.286-.168.58-.325a.5.5 0 0 1 .474.882q-.275.147-.544.305a.5.5 0 0 1 -.256.069z"/><path d="m13.153 14.955a.514.514 0 0 1 -.1-.01.5.5 0 0 1 -.389-.59 15.474 15.474 0 0 1 4.906-8.44.5.5 0 0 1 .661.75 14.473 14.473 0 0 0 -4.588 7.892.5.5 0 0 1 -.49.398z"/><path d="m71.831 26.747a.5.5 0 0 1 -.452-.285q-.206-.433-.443-.848a.5.5 0 0 1 .869-.5q.254.447.477.913a.5.5 0 0 1 -.451.715z"/><path d="m69.747 23.6a.5.5 0 0 1 -.375-.169 13.009 13.009 0 0 0 -6.616-4.035.5.5 0 1 1 .243-.97 14 14 0 0 1 7.123 4.342.5.5 0 0 1 -.375.831z"/></g><path d="m59.589 42.674a10.621 10.621 0 1 0 -4.262-20.352 8.671 8.671 0 0 0 .279-2.217 9.291 9.291 0 0 0 -16.406-5.975 11.944 11.944 0 0 0 -23.419 3.319 11.8 11.8 0 0 0 .757 4.182 10.777 10.777 0 0 0 -2.084-.2 10.621 10.621 0 0 0 0 21.241z" fill="#b6d2dd"/><path d="m59.589 43.173h-45.138a11.121 11.121 0 0 1 0-22.241 11.4 11.4 0 0 1 1.347.078 12.451 12.451 0 0 1 11.929-16.01 12.478 12.478 0 0 1 11.681 8.16 9.793 9.793 0 0 1 16.7 6.944 9.537 9.537 0 0 1 -.1 1.418 11.122 11.122 0 1 1 3.587 21.65zm-45.138-21.241a10.121 10.121 0 0 0 0 20.241h45.138a10.121 10.121 0 1 0 -4.061-19.393.5.5 0 0 1 -.685-.586 8.184 8.184 0 0 0 .262-2.089 8.791 8.791 0 0 0 -15.525-5.653.5.5 0 0 1 -.864-.184 11.444 11.444 0 0 0 -22.438 3.182 11.294 11.294 0 0 0 .722 4.005.5.5 0 0 1 -.564.667 10.2 10.2 0 0 0 -1.985-.19z" fill="#323c6b"/><path d="m65.491 23.223a10.621 10.621 0 0 1 -8.83 16.522h-45.139a10.572 10.572 0 0 1 -5.9-1.79 10.606 10.606 0 0 0 8.83 4.719h45.137a10.621 10.621 0 0 0 5.9-19.451z" fill="#acc6cc"/><path d="m36.269 11.2a9.254 9.254 0 0 1 .963-.974 11.981 11.981 0 0 0 -2.645-2.546 11.8 11.8 0 0 1 1.682 3.52z" fill="#acc6cc"/><path d="m59.589 43.173h-45.138a11.121 11.121 0 0 1 0-22.241 11.4 11.4 0 0 1 1.347.078 12.451 12.451 0 0 1 11.929-16.01 12.478 12.478 0 0 1 11.681 8.16 9.793 9.793 0 0 1 16.7 6.944 9.537 9.537 0 0 1 -.1 1.418 11.122 11.122 0 1 1 3.587 21.65zm-45.138-21.241a10.121 10.121 0 0 0 0 20.241h45.138a10.121 10.121 0 1 0 -4.061-19.393.5.5 0 0 1 -.685-.586 8.184 8.184 0 0 0 .262-2.089 8.791 8.791 0 0 0 -15.525-5.653.5.5 0 0 1 -.864-.184 11.444 11.444 0 0 0 -22.438 3.182 11.294 11.294 0 0 0 .722 4.005.5.5 0 0 1 -.564.667 10.2 10.2 0 0 0 -1.985-.19z" fill="#323c6b"/><path d="m63.376 52.435a2.929 2.929 0 1 1 -5.857 0c0-1.62 2.929-5.857 2.929-5.857s2.928 4.237 2.928 5.857z" fill="#69b0ee"/><path d="m60.448 55.864a3.432 3.432 0 0 1 -3.428-3.429c0-1.726 2.708-5.694 3.017-6.141a.518.518 0 0 1 .822 0c.309.447 3.018 4.415 3.018 6.141a3.433 3.433 0 0 1 -3.429 3.429zm0-8.389c-1.073 1.639-2.428 4.021-2.428 4.96a2.428 2.428 0 1 0 4.857 0c-.001-.935-1.356-3.321-2.429-4.96z" fill="#323c6b"/><path d="m47.758 52.435a2.929 2.929 0 1 1 -5.857 0c0-1.62 2.929-5.857 2.929-5.857s2.928 4.237 2.928 5.857z" fill="#69b0ee"/><path d="m44.829 55.864a3.433 3.433 0 0 1 -3.429-3.429c0-1.726 2.708-5.694 3.018-6.141a.518.518 0 0 1 .822 0c.309.447 3.018 4.415 3.018 6.141a3.433 3.433 0 0 1 -3.429 3.429zm0-8.389c-1.073 1.639-2.429 4.025-2.429 4.96a2.429 2.429 0 1 0 4.857 0c.001-.935-1.357-3.321-2.428-4.96z" fill="#323c6b"/><path d="m32.139 52.435a2.929 2.929 0 0 1 -5.857 0c0-1.62 2.929-5.857 2.929-5.857s2.928 4.237 2.928 5.857z" fill="#69b0ee"/><path d="m29.21 55.864a3.433 3.433 0 0 1 -3.429-3.429c0-1.726 2.708-5.694 3.018-6.141a.518.518 0 0 1 .822 0c.309.447 3.018 4.415 3.018 6.141a3.433 3.433 0 0 1 -3.429 3.429zm0-8.389c-1.073 1.639-2.429 4.021-2.429 4.96a2.429 2.429 0 1 0 4.857 0c.001-.935-1.354-3.321-2.428-4.96z" fill="#323c6b"/><path d="m16.52 52.435a2.929 2.929 0 0 1 -5.857 0c0-1.62 2.929-5.857 2.929-5.857s2.928 4.237 2.928 5.857z" fill="#69b0ee"/><path d="m13.592 55.864a3.433 3.433 0 0 1 -3.429-3.429c0-1.726 2.708-5.694 3.018-6.141a.518.518 0 0 1 .822 0c.309.447 3.017 4.415 3.017 6.141a3.432 3.432 0 0 1 -3.428 3.429zm0-8.389c-1.073 1.639-2.429 4.021-2.429 4.96a2.428 2.428 0 1 0 4.857 0c0-.941-1.355-3.322-2.428-4.96z" fill="#323c6b"/><path d="m55.567 65.291a2.929 2.929 0 0 1 -5.857 0c0-1.62 2.929-5.857 2.929-5.857s2.928 4.237 2.928 5.857z" fill="#69b0ee"/><path d="m52.639 68.72a3.432 3.432 0 0 1 -3.429-3.428c0-1.727 2.708-5.694 3.018-6.141a.518.518 0 0 1 .822 0c.309.447 3.017 4.415 3.017 6.141a3.432 3.432 0 0 1 -3.428 3.428zm0-8.389c-1.073 1.639-2.429 4.02-2.429 4.96a2.428 2.428 0 0 0 4.857 0c0-.941-1.355-3.322-2.428-4.96z" fill="#323c6b"/><path d="m39.948 65.291a2.929 2.929 0 0 1 -5.857 0c0-1.62 2.929-5.857 2.929-5.857s2.928 4.237 2.928 5.857z" fill="#69b0ee"/><path d="m37.02 68.72a3.432 3.432 0 0 1 -3.429-3.428c0-1.727 2.708-5.694 3.018-6.141a.518.518 0 0 1 .822 0c.309.447 3.017 4.415 3.017 6.141a3.432 3.432 0 0 1 -3.428 3.428zm0-8.389c-1.073 1.639-2.429 4.02-2.429 4.96a2.428 2.428 0 0 0 4.857 0c0-.941-1.355-3.322-2.428-4.96z" fill="#323c6b"/><path d="m24.33 65.291a2.929 2.929 0 1 1 -5.857 0c0-1.62 2.929-5.857 2.929-5.857s2.928 4.237 2.928 5.857z" fill="#69b0ee"/><path d="m21.4 68.72a3.432 3.432 0 0 1 -3.428-3.428c0-1.727 2.708-5.694 3.017-6.141a.518.518 0 0 1 .822 0c.309.447 3.018 4.415 3.018 6.141a3.432 3.432 0 0 1 -3.429 3.428zm0-8.389c-1.073 1.639-2.428 4.02-2.428 4.96a2.428 2.428 0 0 0 4.857 0c.001-.94-1.355-3.322-2.429-4.96z" fill="#323c6b"/></g></svg>