<svg height="512" viewBox="0 0 74 74" width="512" xmlns="http://www.w3.org/2000/svg"><g id="Numbers"><text fill="#f00" font-family="ArialMT, Arial" font-size="18" transform="translate(31.995 -514.544)">6<tspan x="-5.005" y="124">16</tspan><tspan x="-5.005" y="248">26</tspan><tspan x="-5.005" y="372">36</tspan><tspan x="-5.005" y="496">46</tspan><tspan x="-5.005" y="620">56</tspan><tspan x="-5.005" y="744">66</tspan><tspan x="-5.005" y="868">76</tspan><tspan x="-5.005" y="992">86</tspan><tspan x="-5.005" y="1116">96</tspan><tspan x="-10.011" y="1240">106</tspan><tspan letter-spacing="-.074em" x="-9.343" y="1364">1</tspan><tspan x="-.668" y="1364">16</tspan><tspan x="-10.011" y="1488">126</tspan><tspan x="-10.011" y="1612">136</tspan><tspan x="-10.011" y="1736">146</tspan><tspan x="-10.011" y="1860">156</tspan><tspan x="-10.011" y="1984">166</tspan><tspan x="-10.011" y="2108">176</tspan><tspan x="-10.011" y="2232">186</tspan><tspan x="-10.011" y="2356">196</tspan><tspan x="-10.011" y="2480">206</tspan><tspan x="-10.011" y="2604">216</tspan><tspan x="-10.011" y="2728">226</tspan><tspan x="-10.011" y="2852">236</tspan><tspan x="-10.011" y="2976">246</tspan><tspan x="-10.011" y="3100">256</tspan><tspan x="-10.011" y="3224">266</tspan><tspan x="-10.011" y="3348">276</tspan><tspan x="-10.011" y="3472">286</tspan><tspan x="-10.011" y="3596">296</tspan></text></g><g id="color_styel" data-name="color styel"><g fill="#323c6b"><path d="m59.511 65.274h-.658a.5.5 0 0 1 0-1h.658a.5.5 0 0 1 0 1z"/><path d="m65.8 65.274h-2.4a.5.5 0 0 1 0-1h2.4a6.211 6.211 0 0 0 6.2-6.2.5.5 0 0 1 1 0 7.212 7.212 0 0 1 -7.2 7.2z"/><path d="m30.539 9.726h-1.258a.5.5 0 0 1 0-1h1.258a.5.5 0 0 1 0 1z"/><path d="m25.69 9.726h-11.253a.5.5 0 0 1 0-1h11.253a.5.5 0 0 1 0 1z"/></g><rect fill="#828a9e" height="49.803" rx="3.831" width="65.127" x="4.5" y="12.099"/><path d="m65.8 62.4h-57.469a4.336 4.336 0 0 1 -4.331-4.33v-42.14a4.336 4.336 0 0 1 4.331-4.33h57.469a4.336 4.336 0 0 1 4.331 4.331v42.139a4.336 4.336 0 0 1 -4.331 4.33zm-57.469-49.8a3.335 3.335 0 0 0 -3.331 3.33v42.14a3.335 3.335 0 0 0 3.331 3.33h57.469a3.335 3.335 0 0 0 3.331-3.331v-42.139a3.335 3.335 0 0 0 -3.331-3.33z" fill="#323c6b"/><path d="m65.8 12.1h-2.877a3.831 3.831 0 0 1 3.831 3.831v42.139a3.831 3.831 0 0 1 -3.831 3.83h2.877a3.831 3.831 0 0 0 3.831-3.831v-42.139a3.831 3.831 0 0 0 -3.831-3.83z" fill="#62667c"/><path d="m10.246 17.845h53.634v33.521h-53.634z" fill="#b6d2dd"/><path d="m63.88 51.866h-53.634a.5.5 0 0 1 -.5-.5v-33.521a.5.5 0 0 1 .5-.5h53.634a.5.5 0 0 1 .5.5v33.521a.5.5 0 0 1 -.5.5zm-53.134-1h52.634v-32.521h-52.634z" fill="#323c6b"/><circle cx="37.063" cy="56.649" fill="#dbd8dd" r="2.409"/><path d="m37.063 59.558a2.909 2.909 0 1 1 2.909-2.909 2.912 2.912 0 0 1 -2.909 2.909zm0-4.819a1.909 1.909 0 1 0 1.909 1.91 1.911 1.911 0 0 0 -1.909-1.91z" fill="#323c6b"/><path d="m31.83 41.917 10.591-6.917a.467.467 0 0 0 0-.781l-10.591-6.925a.467.467 0 0 0 -.722.391v13.842a.467.467 0 0 0 .722.39z" fill="#ef5261"/><path d="m65.8 62.4h-57.469a4.336 4.336 0 0 1 -4.331-4.33v-42.14a4.336 4.336 0 0 1 4.331-4.33h57.469a4.336 4.336 0 0 1 4.331 4.331v42.139a4.336 4.336 0 0 1 -4.331 4.33zm-57.469-49.8a3.335 3.335 0 0 0 -3.331 3.33v42.14a3.335 3.335 0 0 0 3.331 3.33h57.469a3.335 3.335 0 0 0 3.331-3.331v-42.139a3.335 3.335 0 0 0 -3.331-3.33z" fill="#323c6b"/><g fill="#eeefee"><rect height="1.322" rx=".661" width="9.745" x="9.07" y="58.07"/><rect height="1.322" rx=".661" width="1.675" x="20.343" y="58.07"/></g></g></svg>