<svg height="512" viewBox="0 0 74 74" width="512" xmlns="http://www.w3.org/2000/svg"><g id="Numbers"><text fill="#f00" font-family="ArialMT, Arial" font-size="18" transform="translate(31.994 -514.544)">7<tspan x="-5.005" y="124">17</tspan><tspan x="-5.005" y="248">27</tspan><tspan x="-5.005" y="372">37</tspan><tspan x="-5.005" y="496">47</tspan><tspan x="-5.005" y="620">57</tspan><tspan x="-5.005" y="744">67</tspan><tspan x="-5.005" y="868">77</tspan><tspan x="-5.005" y="992">87</tspan><tspan x="-5.005" y="1116">97</tspan><tspan x="-10.011" y="1240">107</tspan><tspan letter-spacing="-.074em" x="-9.343" y="1364">1</tspan><tspan x="-.668" y="1364">17</tspan><tspan x="-10.011" y="1488">127</tspan><tspan x="-10.011" y="1612">137</tspan><tspan x="-10.011" y="1736">147</tspan><tspan x="-10.011" y="1860">157</tspan><tspan x="-10.011" y="1984">167</tspan><tspan x="-10.011" y="2108">177</tspan><tspan x="-10.011" y="2232">187</tspan><tspan x="-10.011" y="2356">197</tspan><tspan x="-10.011" y="2480">207</tspan><tspan x="-10.011" y="2604">217</tspan><tspan x="-10.011" y="2728">227</tspan><tspan x="-10.011" y="2852">237</tspan><tspan x="-10.011" y="2976">247</tspan><tspan x="-10.011" y="3100">257</tspan><tspan x="-10.011" y="3224">267</tspan><tspan x="-10.011" y="3348">277</tspan><tspan x="-10.011" y="3472">287</tspan><tspan x="-10.011" y="3596">297</tspan></text></g><g id="color_styel" data-name="color styel"><g fill="#323c6b"><path d="m56.718 17.79h-1.725a.5.5 0 0 1 0-1h1.725a.5.5 0 0 1 0 1z"/><path d="m25.551 57.21h-10.595a.5.5 0 0 1 0-1h10.595a.5.5 0 0 1 0 1z"/><path d="m30.17 57.21h-1.293a.5.5 0 0 1 0-1h1.293a.5.5 0 1 1 0 1z"/><path d="m67.457 22.717a.5.5 0 0 1 -.5-.5 4.447 4.447 0 0 0 -4.457-4.427h-1.348a.5.5 0 0 1 0-1h1.348a5.448 5.448 0 0 1 5.457 5.427.5.5 0 0 1 -.5.5z"/></g><path d="m64.5 22.217v29.566a1.992 1.992 0 0 1 -2 1.971h-57a1.992 1.992 0 0 1 -2-1.971v-29.566a1.991 1.991 0 0 1 2-1.971h57a1.991 1.991 0 0 1 2 1.971z" fill="#eeefee"/><path d="m62.5 54.253h-57a2.488 2.488 0 0 1 -2.5-2.47v-29.566a2.488 2.488 0 0 1 2.5-2.471h57a2.488 2.488 0 0 1 2.5 2.471v29.566a2.488 2.488 0 0 1 -2.5 2.47zm-57-33.506a1.487 1.487 0 0 0 -1.5 1.47v29.566a1.487 1.487 0 0 0 1.5 1.471h57a1.487 1.487 0 0 0 1.5-1.471v-29.566a1.487 1.487 0 0 0 -1.5-1.471z" fill="#323c6b"/><path d="m62.5 20.246h-2.956a1.991 1.991 0 0 1 2 1.971v29.566a1.991 1.991 0 0 1 -2 1.971h2.956a1.991 1.991 0 0 0 2-1.971v-29.566a1.991 1.991 0 0 0 -2-1.971z" fill="#dbd8dd"/><path d="m71.5 31.087v11.826a1.971 1.971 0 0 1 -1.971 1.971h-5.029v-15.768h5.029a1.971 1.971 0 0 1 1.971 1.971z" fill="#bbbbcd"/><path d="m69.529 45.384h-5.029a.5.5 0 0 1 -.5-.5v-15.768a.5.5 0 0 1 .5-.5h5.029a2.474 2.474 0 0 1 2.471 2.471v11.826a2.474 2.474 0 0 1 -2.471 2.471zm-4.529-1h4.529a1.473 1.473 0 0 0 1.471-1.471v-11.826a1.473 1.473 0 0 0 -1.471-1.471h-4.529z" fill="#323c6b"/><path d="m69.529 29.116h-1.971a1.971 1.971 0 0 1 1.971 1.971v11.826a1.971 1.971 0 0 1 -1.971 1.971h1.971a1.971 1.971 0 0 0 1.971-1.971v-11.826a1.971 1.971 0 0 0 -1.971-1.971z" fill="#9a9eaf"/><path d="m69.529 45.384h-5.029a.5.5 0 0 1 -.5-.5v-15.768a.5.5 0 0 1 .5-.5h5.029a2.474 2.474 0 0 1 2.471 2.471v11.826a2.474 2.474 0 0 1 -2.471 2.471zm-4.529-1h4.529a1.473 1.473 0 0 0 1.471-1.471v-11.826a1.473 1.473 0 0 0 -1.471-1.471h-4.529z" fill="#323c6b"/><path d="m62.5 54.253h-57a2.488 2.488 0 0 1 -2.5-2.47v-29.566a2.488 2.488 0 0 1 2.5-2.471h57a2.488 2.488 0 0 1 2.5 2.471v29.566a2.488 2.488 0 0 1 -2.5 2.47zm-57-33.506a1.487 1.487 0 0 0 -1.5 1.47v29.566a1.487 1.487 0 0 0 1.5 1.471h57a1.487 1.487 0 0 0 1.5-1.471v-29.566a1.487 1.487 0 0 0 -1.5-1.471z" fill="#323c6b"/><path d="m43.5 25.174 12 23.652h-47v-23.652z" fill="#2cbfae"/><path d="m55.5 49.326h-47a.5.5 0 0 1 -.5-.5v-23.652a.5.5 0 0 1 .5-.5h35a.5.5 0 0 1 .446.274l12 23.652a.5.5 0 0 1 -.446.726zm-46.5-1h45.686l-11.493-22.652h-34.193z" fill="#323c6b"/><g fill="#eeefee"><rect height="1.36" rx=".68" width="10.028" x="10.509" y="27.159"/><rect height="1.36" rx=".68" width="1.724" x="22.109" y="27.159"/></g></g></svg>