<svg height="512" viewBox="0 0 74 74" width="512" xmlns="http://www.w3.org/2000/svg"><g id="Numbers"><text fill="#f00" font-family="ArialMT, Arial" font-size="18" transform="translate(31.994 -514.544)">9<tspan x="-5.005" y="124">19</tspan><tspan x="-5.005" y="248">29</tspan><tspan x="-5.005" y="372">39</tspan><tspan x="-5.005" y="496">49</tspan><tspan x="-5.005" y="620">59</tspan><tspan x="-5.005" y="744">69</tspan><tspan x="-5.005" y="868">79</tspan><tspan x="-5.005" y="992">89</tspan><tspan x="-5.005" y="1116">99</tspan><tspan x="-10.011" y="1240">109</tspan><tspan letter-spacing="-.074em" x="-9.343" y="1364">1</tspan><tspan x="-.668" y="1364">19</tspan><tspan x="-10.011" y="1488">129</tspan><tspan x="-10.011" y="1612">139</tspan><tspan x="-10.011" y="1736">149</tspan><tspan x="-10.011" y="1860">159</tspan><tspan x="-10.011" y="1984">169</tspan><tspan x="-10.011" y="2108">179</tspan><tspan x="-10.011" y="2232">189</tspan><tspan x="-10.011" y="2356">199</tspan><tspan x="-10.011" y="2480">209</tspan><tspan x="-10.011" y="2604">219</tspan><tspan x="-10.011" y="2728">229</tspan><tspan x="-10.011" y="2852">239</tspan><tspan x="-10.011" y="2976">249</tspan><tspan x="-10.011" y="3100">259</tspan><tspan x="-10.011" y="3224">269</tspan><tspan x="-10.011" y="3348">279</tspan><tspan x="-10.011" y="3472">289</tspan><tspan x="-10.011" y="3596">299</tspan></text></g><g id="color_styel" data-name="color styel"><g fill="#323c6b"><path d="m33.818 2.174a.5.5 0 0 1 -.062-1q.762-.1 1.536-.148a.5.5 0 0 1 .066 1q-.746.049-1.478.143a.554.554 0 0 1 -.062.005z"/><path d="m22.732 6.444a.5.5 0 0 1 -.285-.911 25.358 25.358 0 0 1 8.185-3.756.5.5 0 0 1 .25.969 24.371 24.371 0 0 0 -7.864 3.609.5.5 0 0 1 -.286.089z"/><path d="m47.206 62.908a.5.5 0 0 1 -.394-.809q.425-.541.855-1.108a.5.5 0 1 1 .795.605q-.435.573-.863 1.12a.5.5 0 0 1 -.393.192z"/><path d="m49.648 59.653a.494.494 0 0 1 -.291-.094.5.5 0 0 1 -.115-.7 85.338 85.338 0 0 0 4.958-7.725.5.5 0 0 1 .871.492 86.438 86.438 0 0 1 -5.013 7.819.5.5 0 0 1 -.41.208z"/></g><path d="m59.176 26.525c0 22.156-22.176 43-22.176 43s-22.176-20.928-22.176-43a22.176 22.176 0 0 1 44.352 0z" fill="#b6d2dd"/><path d="m37 70.029a.5.5 0 0 1 -.343-.136c-.224-.211-22.333-21.331-22.333-43.367a22.676 22.676 0 1 1 45.352 0c0 22.116-22.11 43.158-22.333 43.368a.5.5 0 0 1 -.343.135zm0-65.18a21.7 21.7 0 0 0 -21.676 21.676c0 20.112 18.881 39.541 21.677 42.306 2.8-2.758 21.675-22.13 21.675-42.306a21.7 21.7 0 0 0 -21.676-21.676z" fill="#323c6b"/><path d="m17.7 23.65a22.084 22.084 0 0 1 5.123-14.177 22.127 22.127 0 0 0 -8 17.052c0 22.076 22.176 43 22.176 43s1.113-1.049 2.835-2.915c-.854-.81-22.134-21.328-22.134-42.96z" fill="#acc6cc"/><circle cx="37" cy="26.395" fill="#fcfcfc" r="13.06"/><path d="m37 39.955a13.56 13.56 0 1 1 13.56-13.555 13.575 13.575 0 0 1 -13.56 13.555zm0-26.12a12.56 12.56 0 1 0 12.56 12.565 12.574 12.574 0 0 0 -12.56-12.565z" fill="#323c6b"/><path d="m37 70.029a.5.5 0 0 1 -.343-.136c-.224-.211-22.333-21.331-22.333-43.367a22.676 22.676 0 1 1 45.352 0c0 22.116-22.11 43.158-22.333 43.368a.5.5 0 0 1 -.343.135zm0-65.18a21.7 21.7 0 0 0 -21.676 21.676c0 20.112 18.881 39.541 21.677 42.306 2.8-2.758 21.675-22.13 21.675-42.306a21.7 21.7 0 0 0 -21.676-21.676z" fill="#323c6b"/><g fill="#eeefee"><path d="m44.708 10.284c.013-.021.027-.043.042-.064a1.1 1.1 0 0 1 1.422-.289 4.652 4.652 0 0 1 .832.545.872.872 0 0 1 .138 1.313 1.1 1.1 0 0 1 -1.445.146 3.2 3.2 0 0 0 -.652-.426.879.879 0 0 1 -.337-1.225z"/><path d="m48.166 13.2a.956.956 0 0 1 .217-.275 1.1 1.1 0 0 1 1.451.007 18.833 18.833 0 0 1 5.7 10.9.98.98 0 0 1 -.926 1.029.99.99 0 0 1 -1.119-.826 17.344 17.344 0 0 0 -5.137-9.785.867.867 0 0 1 -.186-1.05z"/></g></g></svg>