<svg height="512" viewBox="0 0 74 74" width="512" xmlns="http://www.w3.org/2000/svg"><g id="Numbers"><text fill="#f00" font-family="ArialMT, Arial" font-size="18" transform="translate(30.995 -638.544)">1<tspan letter-spacing="-.074em" x="-4.337" y="124">1</tspan><tspan x="4.337" y="124">1</tspan><tspan x="-5.005" y="248">21</tspan><tspan x="-5.005" y="372">31</tspan><tspan x="-5.005" y="496">41</tspan><tspan x="-5.005" y="620">51</tspan><tspan x="-5.005" y="744">61</tspan><tspan x="-5.005" y="868">71</tspan><tspan x="-5.005" y="992">81</tspan><tspan x="-5.005" y="1116">91</tspan><tspan x="-10.011" y="1240">101</tspan><tspan letter-spacing="-.074em" x="-8.675" y="1364">11</tspan><tspan x="8.675" y="1364">1</tspan><tspan x="-10.011" y="1488">121</tspan><tspan x="-10.011" y="1612">131</tspan><tspan x="-10.011" y="1736">141</tspan><tspan x="-10.011" y="1860">151</tspan><tspan x="-10.011" y="1984">161</tspan><tspan x="-10.011" y="2108">171</tspan><tspan x="-10.011" y="2232">181</tspan><tspan x="-10.011" y="2356">191</tspan><tspan x="-10.011" y="2480">201</tspan><tspan x="-9.343" y="2604">2</tspan><tspan letter-spacing="-.074em" x=".668" y="2604">1</tspan><tspan x="9.343" y="2604">1</tspan><tspan x="-10.011" y="2728">221</tspan><tspan x="-10.011" y="2852">231</tspan><tspan x="-10.011" y="2976">241</tspan><tspan x="-10.011" y="3100">251</tspan><tspan x="-10.011" y="3224">261</tspan><tspan x="-10.011" y="3348">271</tspan><tspan x="-10.011" y="3472">281</tspan><tspan x="-10.011" y="3596">291</tspan></text></g><g id="color_styel" data-name="color styel"><g fill="#323c6b"><path d="m3.833 51.345a.5.5 0 0 1 -.461-.306 36.069 36.069 0 0 1 -2.743-11.539.5.5 0 1 1 1-.068 35.058 35.058 0 0 0 2.667 11.22.5.5 0 0 1 -.461.694z"/><path d="m5.5 54.775a.5.5 0 0 1 -.438-.258q-.286-.517-.555-1.038a.5.5 0 1 1 .89-.456q.261.51.538 1.011a.5.5 0 0 1 -.437.742z"/><path d="m61.95 11.839a.5.5 0 0 1 -.35-.139q-.232-.226-.469-.45a.5.5 0 0 1 .687-.727q.242.229.48.461a.5.5 0 0 1 -.349.858z"/><path d="m59.032 9.28a.5.5 0 0 1 -.309-.107 35.407 35.407 0 0 0 -8.071-4.773.5.5 0 1 1 .39-.921 36.4 36.4 0 0 1 8.3 4.906.5.5 0 0 1 -.31.893z"/></g><circle cx="36.902" cy="36.978" fill="#b6d2dd" r="32.226"/><path d="m36.9 69.7a32.726 32.726 0 1 1 32.728-32.722 32.763 32.763 0 0 1 -32.728 32.722zm0-64.452a31.726 31.726 0 1 0 31.728 31.73 31.762 31.762 0 0 0 -31.728-31.727z" fill="#323c6b"/><path d="m36.9 4.752c-.8 0-1.586.039-2.37.1a32.217 32.217 0 0 1 0 64.26c.783.057 1.572.1 2.37.1a32.226 32.226 0 1 0 0-64.452z" fill="#acc6cc"/><g fill="#323c6b"><path d="m59.829 59.6a31.723 31.723 0 0 0 -45.854 0l-.723-.691a32.723 32.723 0 0 1 47.3 0z"/><path d="m36.9 25.156a32.445 32.445 0 0 1 -23.647-10.107l.723-.691a31.452 31.452 0 0 0 22.927 9.8 31.452 31.452 0 0 0 22.927-9.8l.723.691a32.445 32.445 0 0 1 -23.653 10.107z"/><path d="m36.9 69.7c-9.683 0-17.561-14.681-17.561-32.726s7.88-32.723 17.561-32.723 17.563 14.681 17.563 32.727-7.878 32.722-17.563 32.722zm0-64.452c-9.132 0-16.561 14.232-16.561 31.726s7.432 31.726 16.561 31.726 16.563-14.229 16.563-31.722-7.429-31.727-16.563-31.727z"/><path d="m36.402 4.751h1v64.452h-1z"/><path d="m4.676 36.478h64.452v1h-64.452z"/><path d="m36.9 69.7a32.726 32.726 0 1 1 32.728-32.722 32.763 32.763 0 0 1 -32.728 32.722zm0-64.452a31.726 31.726 0 1 0 31.728 31.73 31.762 31.762 0 0 0 -31.728-31.727z"/></g><path d="m15.279 20.742c-.015-.015-.031-.03-.047-.045a.94.94 0 0 0 -1.243.04 3.987 3.987 0 0 0 -.586.619.747.747 0 0 0 .144 1.123.943.943 0 0 0 1.234-.164 2.738 2.738 0 0 1 .459-.484.753.753 0 0 0 .039-1.089z" fill="#dbd8dd"/><path d="m12.972 23.86a.819.819 0 0 0 -.235-.187.941.941 0 0 0 -1.209.293 16.141 16.141 0 0 0 -2.6 10.214.84.84 0 0 0 .976.675.848.848 0 0 0 .77-.91 14.865 14.865 0 0 1 2.349-9.176.743.743 0 0 0 -.051-.909z" fill="#dbd8dd"/></g></svg>