<svg height="512" viewBox="0 0 74 74" width="512" xmlns="http://www.w3.org/2000/svg"><g id="Numbers"><text fill="#f00" font-family="ArialMT, Arial" font-size="18" transform="translate(31.995 -638.544)">2<tspan x="-5.005" y="124">12</tspan><tspan x="-5.005" y="248">22</tspan><tspan x="-5.005" y="372">32</tspan><tspan x="-5.005" y="496">42</tspan><tspan x="-5.005" y="620">52</tspan><tspan x="-5.005" y="744">62</tspan><tspan x="-5.005" y="868">72</tspan><tspan x="-5.005" y="992">82</tspan><tspan x="-5.005" y="1116">92</tspan><tspan x="-10.011" y="1240">102</tspan><tspan letter-spacing="-.074em" x="-9.343" y="1364">1</tspan><tspan x="-.668" y="1364">12</tspan><tspan x="-10.011" y="1488">122</tspan><tspan x="-10.011" y="1612">132</tspan><tspan x="-10.011" y="1736">142</tspan><tspan x="-10.011" y="1860">152</tspan><tspan x="-10.011" y="1984">162</tspan><tspan x="-10.011" y="2108">172</tspan><tspan x="-10.011" y="2232">182</tspan><tspan x="-10.011" y="2356">192</tspan><tspan x="-10.011" y="2480">202</tspan><tspan x="-10.011" y="2604">212</tspan><tspan x="-10.011" y="2728">222</tspan><tspan x="-10.011" y="2852">232</tspan><tspan x="-10.011" y="2976">242</tspan><tspan x="-10.011" y="3100">252</tspan><tspan x="-10.011" y="3224">262</tspan><tspan x="-10.011" y="3348">272</tspan><tspan x="-10.011" y="3472">282</tspan><tspan x="-10.011" y="3596">292</tspan></text></g><g id="color_styel" data-name="color styel"><path d="m57.676 21.276a.5.5 0 0 1 -.259-.073q-.292-.177-.581-.342a.5.5 0 1 1 .5-.869q.3.171.6.356a.5.5 0 0 1 -.26.927z" fill="#323c6b"/><path d="m55.119 19.929a.49.49 0 0 1 -.2-.043 16.667 16.667 0 0 0 -6.789-1.522.5.5 0 0 1 0-1 17.644 17.644 0 0 1 7.195 1.609.5.5 0 0 1 -.2.957z" fill="#323c6b"/><path d="m71 40.9c-13.991-10.64-19.981-2.76-19.981-2.76l-9.349-15.311s13.281-10.76 29.33 18.071z" fill="#ef5261"/><path d="m71 41.4a.5.5 0 0 1 -.3-.1c-7.079-5.384-11.974-5.841-14.837-5.277a7.681 7.681 0 0 0 -4.443 2.422.5.5 0 0 1 -.825-.042l-9.352-15.313a.5.5 0 0 1 .112-.649 11.773 11.773 0 0 1 9.345-1.827c7.126 1.377 14.105 8.121 20.743 20.042a.5.5 0 0 1 -.443.744zm-13.105-6.574c3.442 0 7.3 1.445 11.522 4.315-7.617-12.897-14.443-16.682-18.911-17.541a11.233 11.233 0 0 0 -8.165 1.374l8.759 14.343a9.136 9.136 0 0 1 4.564-2.278 11.454 11.454 0 0 1 2.231-.213z" fill="#323c6b"/><path d="m65.238 37.278a34.757 34.757 0 0 1 5.762 3.622c-13.133-23.593-24.411-20.674-28.076-18.834 4.715-.877 12.907.583 22.314 15.212z" fill="#e42542"/><path d="m50.5 37.285.522.856a7.064 7.064 0 0 1 2.117-1.671 9.425 9.425 0 0 0 -2.639.815z" fill="#e42542"/><path d="m18.329 5.429-12.9 12.9a46.073 46.073 0 0 1 -2.41-15.31 46.074 46.074 0 0 1 15.31 2.41z" fill="#ef5261"/><path d="m5.429 18.829a.5.5 0 0 1 -.475-.344 46.116 46.116 0 0 1 -2.434-15.494.5.5 0 0 1 .471-.471 46.088 46.088 0 0 1 15.494 2.434.5.5 0 0 1 .2.829l-12.9 12.9a.5.5 0 0 1 -.356.146zm-1.924-15.329a47.1 47.1 0 0 0 2.151 13.89l11.739-11.734a46.879 46.879 0 0 0 -13.89-2.156z" fill="#323c6b"/><path d="m16.017 7.741 2.312-2.312a46.074 46.074 0 0 0 -15.31-2.41s-.059 1.119.051 3a45.35 45.35 0 0 1 12.947 1.722z" fill="#e42542"/><path d="m6.982 29.546a.5.5 0 0 1 -.431-.246 49.318 49.318 0 0 1 -3.069-6.15.5.5 0 1 1 .924-.383 48.243 48.243 0 0 0 3.006 6.024.5.5 0 0 1 -.43.754z" fill="#323c6b"/><path d="m8.778 32.359a.5.5 0 0 1 -.412-.216q-.209-.3-.415-.612a.5.5 0 0 1 .832-.555q.2.3.406.6a.5.5 0 0 1 -.411.784z" fill="#323c6b"/><path d="m54.381 43.65-10.731 10.731-5.51-3.36-15.311-9.351a44.481 44.481 0 0 1 -17.4-23.341l12.9-12.9a44.481 44.481 0 0 1 23.341 17.4l9.35 15.311z" fill="#dbd8dd"/><path d="m43.65 54.881a.5.5 0 0 1 -.26-.073l-20.821-12.708a44.65 44.65 0 0 1 -17.616-23.616.5.5 0 0 1 .122-.508l12.9-12.9a.5.5 0 0 1 .508-.122 44.635 44.635 0 0 1 23.6 17.595l12.725 20.841a.5.5 0 0 1 -.073.614l-10.735 10.73a.5.5 0 0 1 -.35.147zm-37.65-36.416a43.621 43.621 0 0 0 17.111 22.792l20.464 12.492 10.174-10.174-12.506-20.485a43.6 43.6 0 0 0 -22.778-17.09z" fill="#323c6b"/><path d="m51.021 38.14-9.351-15.311a44.481 44.481 0 0 0 -23.341-17.4l-12.9 12.9 10.9-10.9a44.481 44.481 0 0 1 23.341 17.4l9.35 15.311 3.36 5.51-8.73 8.73 10.73-10.73z" fill="#bbbbcd"/><path d="m40.9 71c-28.831-16.049-18.071-29.33-18.071-29.33l15.311 9.35s-7.88 5.991 2.76 19.98z" fill="#ef5261"/><g fill="#323c6b"><path d="m40.9 71.5a.5.5 0 0 1 -.243-.063c-11.922-6.637-18.665-13.615-20.043-20.737a11.785 11.785 0 0 1 1.827-9.341.5.5 0 0 1 .649-.112l15.31 9.347a.5.5 0 0 1 .043.824c-.3.234-7.327 5.894 2.854 19.281a.5.5 0 0 1 -.4.8zm-17.929-29.158a11.281 11.281 0 0 0 -1.37 8.193c.873 4.465 4.666 11.275 17.541 18.882-3.506-5.156-4.886-9.774-4.1-13.749a9.136 9.136 0 0 1 2.275-4.568z"/><path d="m18.294 4.844h.241v1h-.241z" transform="matrix(.708 -.706 .706 .708 1.602 14.563)"/><path d="m5.762 18.703-.707-.707.727.687z"/></g><path d="m25.49 25.47a6.4 6.4 0 0 1 -3.19 1.73 5.087 5.087 0 0 1 -1.02.13 6.1 6.1 0 0 1 -2.67-.42 3.067 3.067 0 0 1 -.49-.22 5.989 5.989 0 0 1 -1.73-1.22 6.44 6.44 0 0 1 0-9.1 6.2 6.2 0 0 1 3.02-1.68 2.28 2.28 0 0 1 .52-.1 6.133 6.133 0 0 1 2.59.12 5.843 5.843 0 0 1 .97.33 6.34 6.34 0 0 1 1.98 1.35 6.425 6.425 0 0 1 .02 9.08z" fill="#b6d2dd"/><g fill="#323c6b"><path d="m20.856 27.844a6.534 6.534 0 0 1 -2.432-.47 3.431 3.431 0 0 1 -.55-.249 6.4 6.4 0 0 1 -1.838-1.3 6.943 6.943 0 0 1 0-9.808 6.706 6.706 0 0 1 3.264-1.817 2.631 2.631 0 0 1 .6-.111 6.534 6.534 0 0 1 2.743.135 6.251 6.251 0 0 1 1.045.356 6.841 6.841 0 0 1 2.133 1.455 6.939 6.939 0 0 1 .021 9.787 6.882 6.882 0 0 1 -3.442 1.866 5.492 5.492 0 0 1 -1.11.141q-.216.015-.434.015zm.069-12.844a5.255 5.255 0 0 0 -.909.078 2.043 2.043 0 0 0 -.467.087 5.738 5.738 0 0 0 -2.807 1.554 5.942 5.942 0 0 0 0 8.394 5.5 5.5 0 0 0 1.585 1.119 2.883 2.883 0 0 0 .448.2 5.59 5.59 0 0 0 2.471.392 4.607 4.607 0 0 0 .938-.118 5.921 5.921 0 0 0 1.108-11.206 5.3 5.3 0 0 0 -.89-.3 5.914 5.914 0 0 0 -1.477-.2z"/><path d="m60.709 49.408h1v6.081h-1z" transform="matrix(.707 -.707 .707 .707 -19.159 58.643)"/><path d="m59.167 56.211h1v6.081h-1z" transform="matrix(.707 -.707 .707 .707 -24.421 59.541)"/><path d="m52.364 57.753h1v6.081h-1z" transform="matrix(.707 -.707 .707 .707 -27.504 55.186)"/></g><path d="m59.171 46.291-12.88 12.88-3.711-3.72 1.07-1.07 10.731-10.731 1.07-1.07z" fill="#9a9eaf"/><path d="m46.291 59.671a.5.5 0 0 1 -.354-.147l-3.71-3.72a.5.5 0 0 1 0-.707l12.873-12.87a.5.5 0 0 1 .707 0l3.72 3.71a.5.5 0 0 1 0 .708l-12.88 12.88a.5.5 0 0 1 -.356.146zm-3-4.22 3 3.012 12.172-12.172-3.012-3z" fill="#323c6b"/><path d="m21.329 26.82 1.14-11.6h.01l.05.02.82.29.03.01.02.01.02.01.02.01-1.09 11.1a3.929 3.929 0 0 1 -1.02.15z" fill="#dbd8dd"/><path d="m18.179 26.16 1.17-10.941.2-.05.32-.07h.01l-1.22 11.301z" fill="#dbd8dd"/><path d="m71 41.4a.5.5 0 0 1 -.3-.1c-7.079-5.384-11.974-5.841-14.837-5.277a7.681 7.681 0 0 0 -4.443 2.422.5.5 0 0 1 -.825-.042l-9.352-15.313a.5.5 0 0 1 .112-.649 11.773 11.773 0 0 1 9.345-1.827c7.126 1.377 14.105 8.121 20.743 20.042a.5.5 0 0 1 -.443.744zm-13.105-6.574c3.442 0 7.3 1.445 11.522 4.315-7.617-12.897-14.443-16.682-18.911-17.541a11.233 11.233 0 0 0 -8.165 1.374l8.759 14.343a9.136 9.136 0 0 1 4.564-2.278 11.454 11.454 0 0 1 2.231-.213z" fill="#323c6b"/><path d="m43.65 54.881a.5.5 0 0 1 -.26-.073l-20.821-12.708a44.65 44.65 0 0 1 -17.616-23.616.5.5 0 0 1 .122-.508l12.9-12.9a.5.5 0 0 1 .508-.122 44.635 44.635 0 0 1 23.6 17.595l12.725 20.841a.5.5 0 0 1 -.073.614l-10.735 10.73a.5.5 0 0 1 -.35.147zm-37.65-36.416a43.621 43.621 0 0 0 17.111 22.792l20.464 12.492 10.174-10.174-12.506-20.485a43.6 43.6 0 0 0 -22.778-17.09z" fill="#323c6b"/><path d="m5.429 18.829a.5.5 0 0 1 -.475-.344 46.116 46.116 0 0 1 -2.434-15.494.5.5 0 0 1 .471-.471 46.088 46.088 0 0 1 15.494 2.434.5.5 0 0 1 .2.829l-12.9 12.9a.5.5 0 0 1 -.356.146zm-1.924-15.329a47.1 47.1 0 0 0 2.151 13.89l11.739-11.734a46.879 46.879 0 0 0 -13.89-2.156z" fill="#323c6b"/><rect fill="#eeefee" height="10.176" rx=".69" transform="matrix(.519 -.855 .855 .519 -22.139 53.01)" width="1.38" x="35.324" y="41.081"/><rect fill="#eeefee" height="1.749" rx=".69" transform="matrix(.519 -.855 .855 .519 -22.381 60.421)" width="1.38" x="41.786" y="49.215"/></g></svg>