<svg height="512" viewBox="0 0 74 74" width="512" xmlns="http://www.w3.org/2000/svg"><g id="Numbers"><text fill="#f00" font-family="ArialMT, Arial" font-size="18" transform="translate(31.995 -638.544)">3<tspan x="-5.005" y="124">13</tspan><tspan x="-5.005" y="248">23</tspan><tspan x="-5.005" y="372">33</tspan><tspan x="-5.005" y="496">43</tspan><tspan x="-5.005" y="620">53</tspan><tspan x="-5.005" y="744">63</tspan><tspan x="-5.005" y="868">73</tspan><tspan x="-5.005" y="992">83</tspan><tspan x="-5.005" y="1116">93</tspan><tspan x="-10.011" y="1240">103</tspan><tspan letter-spacing="-.074em" x="-9.343" y="1364">1</tspan><tspan x="-.668" y="1364">13</tspan><tspan x="-10.011" y="1488">123</tspan><tspan x="-10.011" y="1612">133</tspan><tspan x="-10.011" y="1736">143</tspan><tspan x="-10.011" y="1860">153</tspan><tspan x="-10.011" y="1984">163</tspan><tspan x="-10.011" y="2108">173</tspan><tspan x="-10.011" y="2232">183</tspan><tspan x="-10.011" y="2356">193</tspan><tspan x="-10.011" y="2480">203</tspan><tspan x="-10.011" y="2604">213</tspan><tspan x="-10.011" y="2728">223</tspan><tspan x="-10.011" y="2852">233</tspan><tspan x="-10.011" y="2976">243</tspan><tspan x="-10.011" y="3100">253</tspan><tspan x="-10.011" y="3224">263</tspan><tspan x="-10.011" y="3348">273</tspan><tspan x="-10.011" y="3472">283</tspan><tspan x="-10.011" y="3596">293</tspan></text></g><g id="color_styel" data-name="color styel"><path d="m39.33 25.55v45.45h-4.66v-45.45a5.785 5.785 0 0 0 4.66 0z" fill="#eeefee"/><path d="m39.33 71.5h-4.66a.5.5 0 0 1 -.5-.5v-45.45a.5.5 0 0 1 .706-.456 5.306 5.306 0 0 0 4.249 0 .5.5 0 0 1 .706.456v45.45a.5.5 0 0 1 -.501.5zm-4.16-1h3.66v-44.229a6.381 6.381 0 0 1 -3.66 0z" fill="#323c6b"/><path d="m35 26.04a5.852 5.852 0 0 0 1-.092 5.52 5.52 0 0 1 -1.33-.4v.473c.11.008.219.019.33.019z" fill="#dbd8dd"/><path d="m37.33 26.023v44.977h2v-45.45a5.609 5.609 0 0 1 -2 .473z" fill="#dbd8dd"/><g fill="#323c6b"><path d="m58.863 37.91-.707-.707a23.962 23.962 0 0 0 0-33.85l.707-.707a24.961 24.961 0 0 1 0 35.264z"/><path d="m53.421 33.621-.707-.707a17.889 17.889 0 0 0 0-25.27l.707-.707a18.889 18.889 0 0 1 0 26.684z"/><path d="m47.979 29.331-.707-.707a11.816 11.816 0 0 0 0-16.69l.707-.707a12.816 12.816 0 0 1 0 18.104z"/><path d="m15.137 37.91a24.961 24.961 0 0 1 0-35.264l.707.707a23.962 23.962 0 0 0 0 33.85z"/><path d="m20.579 33.621a18.889 18.889 0 0 1 0-26.684l.707.707a17.889 17.889 0 0 0 0 25.27z"/><path d="m26.021 29.331a12.816 12.816 0 0 1 0-18.1l.707.707a11.816 11.816 0 0 0 0 16.69z"/></g><path d="m42.76 20.28a5.771 5.771 0 0 1 -3.43 5.27 5.785 5.785 0 0 1 -4.66 0 5.765 5.765 0 1 1 8.09-5.27z" fill="#9a9eaf"/><path d="m37 26.54a6.117 6.117 0 0 1 -2.536-.535 6.26 6.26 0 1 1 5.069 0 6.116 6.116 0 0 1 -2.533.535zm0-11.53a5.268 5.268 0 1 0 5.26 5.27 5.271 5.271 0 0 0 -5.26-5.27z" fill="#323c6b"/><path d="m37 14.51a5.753 5.753 0 0 0 -4.939 2.816 5.71 5.71 0 0 1 2.939-.816 5.77 5.77 0 0 1 5.76 5.77 5.709 5.709 0 0 1 -.827 2.948 5.76 5.76 0 0 0 -2.933-10.718z" fill="#828a9e"/><g fill="#323c6b"><path d="m37 26.54a6.117 6.117 0 0 1 -2.536-.535 6.26 6.26 0 1 1 5.069 0 6.116 6.116 0 0 1 -2.533.535zm0-11.53a5.268 5.268 0 1 0 5.26 5.27 5.271 5.271 0 0 0 -5.26-5.27z"/><path d="m39.33 71.5h-4.66a.5.5 0 0 1 -.5-.5v-45.45a.5.5 0 0 1 .706-.456 5.306 5.306 0 0 0 4.249 0 .5.5 0 0 1 .706.456v45.45a.5.5 0 0 1 -.501.5zm-4.16-1h3.66v-44.229a6.381 6.381 0 0 1 -3.66 0z"/></g></g></svg>