<svg height="512" viewBox="0 0 74 74" width="512" xmlns="http://www.w3.org/2000/svg"><g id="Numbers"><text fill="#f00" font-family="ArialMT, Arial" font-size="18" transform="translate(31.995 -638.544)">4<tspan x="-5.005" y="124">14</tspan><tspan x="-5.005" y="248">24</tspan><tspan x="-5.005" y="372">34</tspan><tspan x="-5.005" y="496">44</tspan><tspan x="-5.005" y="620">54</tspan><tspan x="-5.005" y="744">64</tspan><tspan x="-5.005" y="868">74</tspan><tspan x="-5.005" y="992">84</tspan><tspan x="-5.005" y="1116">94</tspan><tspan x="-10.011" y="1240">104</tspan><tspan letter-spacing="-.074em" x="-9.343" y="1364">1</tspan><tspan x="-.668" y="1364">14</tspan><tspan x="-10.011" y="1488">124</tspan><tspan x="-10.011" y="1612">134</tspan><tspan x="-10.011" y="1736">144</tspan><tspan x="-10.011" y="1860">154</tspan><tspan x="-10.011" y="1984">164</tspan><tspan x="-10.011" y="2108">174</tspan><tspan x="-10.011" y="2232">184</tspan><tspan x="-10.011" y="2356">194</tspan><tspan x="-10.011" y="2480">204</tspan><tspan x="-10.011" y="2604">214</tspan><tspan x="-10.011" y="2728">224</tspan><tspan x="-10.011" y="2852">234</tspan><tspan x="-10.011" y="2976">244</tspan><tspan x="-10.011" y="3100">254</tspan><tspan x="-10.011" y="3224">264</tspan><tspan x="-10.011" y="3348">274</tspan><tspan x="-10.011" y="3472">284</tspan><tspan x="-10.011" y="3596">294</tspan></text></g><g id="color_styel" data-name="color styel"><path d="m8.204 25.507h6.704v44.056h-6.704z" fill="#eeefee"/><path d="m14.909 70.063h-6.709a.5.5 0 0 1 -.5-.5v-44.056a.5.5 0 0 1 .5-.5h6.7a.5.5 0 0 1 .5.5v44.056a.5.5 0 0 1 -.491.5zm-6.2-1h5.7v-43.056h-5.709z" fill="#323c6b"/><path d="m12.035 25.507h2.873v44.056h-2.873z" fill="#dbd8dd"/><path d="m8.563 16.009v-10.535h6.705v10.535" fill="#eeefee"/><path d="m15.768 16.009h-1v-10.035h-5.7v10.035h-1v-10.535a.5.5 0 0 1 .5-.5h6.7a.5.5 0 0 1 .5.5z" fill="#323c6b"/><path d="m12.394 5.474h2.873v10.535h-2.873z" fill="#dbd8dd"/><path d="m1.5 17.387a.5.5 0 0 1 -.5-.5 5.289 5.289 0 0 1 2.333-4.387.5.5 0 1 1 .561.828 4.291 4.291 0 0 0 -1.894 3.559.5.5 0 0 1 -.5.5z" fill="#323c6b"/><path d="m1.5 20.7a.5.5 0 0 1 -.5-.5v-.758a.5.5 0 0 1 1 0v.758a.5.5 0 0 1 -.5.5z" fill="#323c6b"/><rect fill="#fed19a" height="10.535" rx="1.915" width="14.366" x="4.373" y="14.972"/><path d="m16.824 26.007h-10.535a2.418 2.418 0 0 1 -2.416-2.416v-6.7a2.418 2.418 0 0 1 2.416-2.416h10.535a2.418 2.418 0 0 1 2.416 2.416v6.7a2.418 2.418 0 0 1 -2.416 2.416zm-10.535-10.535a1.417 1.417 0 0 0 -1.416 1.416v6.7a1.417 1.417 0 0 0 1.416 1.416h10.535a1.417 1.417 0 0 0 1.416-1.416v-6.7a1.417 1.417 0 0 0 -1.416-1.416z" fill="#323c6b"/><path d="m16.824 14.972h-2.873a1.921 1.921 0 0 1 1.915 1.915v6.7a1.921 1.921 0 0 1 -1.915 1.915h2.873a1.921 1.921 0 0 0 1.915-1.915v-6.7a1.921 1.921 0 0 0 -1.915-1.915z" fill="#f4bb87"/><g fill="#323c6b"><path d="m15.772 14.972h-1v-9h-5.7v9h-1v-9.5a.5.5 0 0 1 .5-.5h6.7a.5.5 0 0 1 .5.5z"/><path d="m16.824 26.007h-10.535a2.418 2.418 0 0 1 -2.416-2.416v-6.7a2.418 2.418 0 0 1 2.416-2.416h10.535a2.418 2.418 0 0 1 2.416 2.416v6.7a2.418 2.418 0 0 1 -2.416 2.416zm-10.535-10.535a1.417 1.417 0 0 0 -1.416 1.416v6.7a1.417 1.417 0 0 0 1.416 1.416h10.535a1.417 1.417 0 0 0 1.416-1.416v-6.7a1.417 1.417 0 0 0 -1.416-1.416z"/><path d="m14.909 70.063h-6.709a.5.5 0 0 1 -.5-.5v-44.056a.5.5 0 0 1 .5-.5h6.7a.5.5 0 0 1 .5.5v44.056a.5.5 0 0 1 -.491.5zm-6.2-1h5.7v-43.056h-5.709z"/></g><path d="m33.585 56.155h6.704v13.408h-6.704z" fill="#eeefee"/><path d="m40.289 70.063h-6.7a.5.5 0 0 1 -.5-.5v-13.408a.5.5 0 0 1 .5-.5h6.7a.5.5 0 0 1 .5.5v13.408a.5.5 0 0 1 -.5.5zm-6.2-1h5.7v-12.408h-5.7z" fill="#323c6b"/><path d="m37.415 56.155h2.873v13.408h-2.873z" fill="#dbd8dd"/><path d="m33.585 4.437h6.704v41.183h-6.704z" fill="#eeefee"/><path d="m40.289 46.12h-6.7a.5.5 0 0 1 -.5-.5v-41.183a.5.5 0 0 1 .5-.5h6.7a.5.5 0 0 1 .5.5v41.183a.5.5 0 0 1 -.5.5zm-6.2-1h5.7v-40.183h-5.7z" fill="#323c6b"/><path d="m37.415 4.437h2.873v41.183h-2.873z" fill="#dbd8dd"/><path d="m26.88 50.609a.5.5 0 0 1 -.5-.5v-.18a.5.5 0 0 1 1 0v.18a.5.5 0 0 1 -.5.5z" fill="#323c6b"/><path d="m28.993 58.709a.5.5 0 0 1 -.28-.086 5.288 5.288 0 0 1 -2.333-4.384v-1.556a.5.5 0 0 1 1 0v1.556a4.29 4.29 0 0 0 1.894 3.556.5.5 0 0 1 -.281.914z" fill="#323c6b"/><rect fill="#b1dcc1" height="10.535" rx="1.915" width="14.366" x="29.754" y="45.62"/><path d="m42.2 56.655h-10.531a2.418 2.418 0 0 1 -2.416-2.416v-6.7a2.418 2.418 0 0 1 2.416-2.416h10.531a2.418 2.418 0 0 1 2.416 2.416v6.7a2.418 2.418 0 0 1 -2.416 2.416zm-10.531-10.535a1.417 1.417 0 0 0 -1.416 1.416v6.7a1.417 1.417 0 0 0 1.416 1.416h10.531a1.417 1.417 0 0 0 1.416-1.416v-6.7a1.417 1.417 0 0 0 -1.416-1.416z" fill="#323c6b"/><path d="m42.2 45.62h-2.869a1.915 1.915 0 0 1 1.915 1.915v6.7a1.915 1.915 0 0 1 -1.915 1.915h2.869a1.915 1.915 0 0 0 1.915-1.915v-6.7a1.915 1.915 0 0 0 -1.915-1.915z" fill="#9dceb2"/><path d="m40.289 46.12h-6.7a.5.5 0 0 1 -.5-.5v-41.183a.5.5 0 0 1 .5-.5h6.7a.5.5 0 0 1 .5.5v41.183a.5.5 0 0 1 -.5.5zm-6.2-1h5.7v-40.183h-5.7z" fill="#323c6b"/><path d="m42.2 56.655h-10.531a2.418 2.418 0 0 1 -2.416-2.416v-6.7a2.418 2.418 0 0 1 2.416-2.416h10.531a2.418 2.418 0 0 1 2.416 2.416v6.7a2.418 2.418 0 0 1 -2.416 2.416zm-10.531-10.535a1.417 1.417 0 0 0 -1.416 1.416v6.7a1.417 1.417 0 0 0 1.416 1.416h10.531a1.417 1.417 0 0 0 1.416-1.416v-6.7a1.417 1.417 0 0 0 -1.416-1.416z" fill="#323c6b"/><path d="m40.289 70.063h-6.7a.5.5 0 0 1 -.5-.5v-13.408a.5.5 0 0 1 .5-.5h6.7a.5.5 0 0 1 .5.5v13.408a.5.5 0 0 1 -.5.5zm-6.2-1h5.7v-12.408h-5.7z" fill="#323c6b"/><path d="m58.965 39.873h6.704v29.69h-6.704z" fill="#eeefee"/><path d="m65.669 70.063h-6.7a.5.5 0 0 1 -.5-.5v-29.69a.5.5 0 0 1 .5-.5h6.7a.5.5 0 0 1 .5.5v29.69a.5.5 0 0 1 -.5.5zm-6.2-1h5.7v-28.69h-5.7z" fill="#323c6b"/><path d="m62.796 39.873h2.873v29.69h-2.873z" fill="#dbd8dd"/><path d="m68.542 21.3a.5.5 0 0 1 -.5-.5v-.8a.5.5 0 0 1 1 0v.8a.5.5 0 0 1 -.5.5z" fill="#323c6b"/><path d="m68.542 17.467a.5.5 0 0 1 -.5-.5v-8.54a.5.5 0 1 1 1 0v8.54a.5.5 0 0 1 -.5.5z" fill="#323c6b"/><path d="m58.965 4.437h6.704v24.901h-6.704z" fill="#eeefee"/><path d="m65.669 29.838h-6.7a.5.5 0 0 1 -.5-.5v-24.901a.5.5 0 0 1 .5-.5h6.7a.5.5 0 0 1 .5.5v24.9a.5.5 0 0 1 -.5.501zm-6.2-1h5.7v-23.901h-5.7z" fill="#323c6b"/><path d="m62.796 4.437h2.873v24.901h-2.873z" fill="#dbd8dd"/><rect fill="#b6d2dd" height="10.535" rx="1.915" width="14.366" x="55.134" y="29.338"/><path d="m67.584 40.373h-10.535a2.418 2.418 0 0 1 -2.416-2.416v-6.7a2.418 2.418 0 0 1 2.416-2.416h10.535a2.418 2.418 0 0 1 2.416 2.412v6.7a2.418 2.418 0 0 1 -2.416 2.42zm-10.535-10.535a1.417 1.417 0 0 0 -1.416 1.416v6.7a1.417 1.417 0 0 0 1.416 1.416h10.535a1.417 1.417 0 0 0 1.416-1.412v-6.7a1.417 1.417 0 0 0 -1.416-1.416z" fill="#323c6b"/><path d="m67.585 29.338h-2.874a1.915 1.915 0 0 1 1.915 1.915v6.7a1.915 1.915 0 0 1 -1.915 1.915h2.873a1.915 1.915 0 0 0 1.916-1.91v-6.7a1.915 1.915 0 0 0 -1.915-1.92z" fill="#acc6cc"/><path d="m65.669 29.838h-6.7a.5.5 0 0 1 -.5-.5v-24.901a.5.5 0 0 1 .5-.5h6.7a.5.5 0 0 1 .5.5v24.9a.5.5 0 0 1 -.5.501zm-6.2-1h5.7v-23.901h-5.7z" fill="#323c6b"/><path d="m65.669 70.063h-6.7a.5.5 0 0 1 -.5-.5v-29.69a.5.5 0 0 1 .5-.5h6.7a.5.5 0 0 1 .5.5v29.69a.5.5 0 0 1 -.5.5zm-6.2-1h5.7v-28.69h-5.7z" fill="#323c6b"/><path d="m67.584 40.373h-10.535a2.418 2.418 0 0 1 -2.416-2.416v-6.7a2.418 2.418 0 0 1 2.416-2.416h10.535a2.418 2.418 0 0 1 2.416 2.412v6.7a2.418 2.418 0 0 1 -2.416 2.42zm-10.535-10.535a1.417 1.417 0 0 0 -1.416 1.416v6.7a1.417 1.417 0 0 0 1.416 1.416h10.535a1.417 1.417 0 0 0 1.416-1.412v-6.7a1.417 1.417 0 0 0 -1.416-1.416z" fill="#323c6b"/><g fill="#eeefee"><rect height="5.604" rx=".38" width=".76" x="6.099" y="18.47"/><rect height=".963" rx=".38" width=".76" x="6.099" y="16.628"/><rect height="5.604" rx=".38" width=".76" x="31.947" y="49.006"/><rect height=".963" rx=".38" width=".76" x="31.947" y="47.164"/><rect height="5.604" rx=".38" width=".76" x="57.229" y="32.725"/><rect height=".963" rx=".38" width=".76" x="57.229" y="30.883"/></g></g></svg>