<svg height="512" viewBox="0 0 74 74" width="512" xmlns="http://www.w3.org/2000/svg"><g id="Numbers"><text fill="#f00" font-family="ArialMT, Arial" font-size="18" transform="translate(31.995 -638.544)">5<tspan x="-5.005" y="124">15</tspan><tspan x="-5.005" y="248">25</tspan><tspan x="-5.005" y="372">35</tspan><tspan x="-5.005" y="496">45</tspan><tspan x="-5.005" y="620">55</tspan><tspan x="-5.005" y="744">65</tspan><tspan x="-5.005" y="868">75</tspan><tspan x="-5.005" y="992">85</tspan><tspan x="-5.005" y="1116">95</tspan><tspan x="-10.011" y="1240">105</tspan><tspan letter-spacing="-.074em" x="-9.343" y="1364">1</tspan><tspan x="-.668" y="1364">15</tspan><tspan x="-10.011" y="1488">125</tspan><tspan x="-10.011" y="1612">135</tspan><tspan x="-10.011" y="1736">145</tspan><tspan x="-10.011" y="1860">155</tspan><tspan x="-10.011" y="1984">165</tspan><tspan x="-10.011" y="2108">175</tspan><tspan x="-10.011" y="2232">185</tspan><tspan x="-10.011" y="2356">195</tspan><tspan x="-10.011" y="2480">205</tspan><tspan x="-10.011" y="2604">215</tspan><tspan x="-10.011" y="2728">225</tspan><tspan x="-10.011" y="2852">235</tspan><tspan x="-10.011" y="2976">245</tspan><tspan x="-10.011" y="3100">255</tspan><tspan x="-10.011" y="3224">265</tspan><tspan x="-10.011" y="3348">275</tspan><tspan x="-10.011" y="3472">285</tspan><tspan x="-10.011" y="3596">295</tspan></text></g><g id="color_styel" data-name="color styel"><rect fill="#9a9eaf" height="52.133" rx="2.267" width="52.133" x="10.933" y="10.933"/><path d="m60.8 63.567h-47.6a2.77 2.77 0 0 1 -2.767-2.767v-47.6a2.77 2.77 0 0 1 2.767-2.767h47.6a2.77 2.77 0 0 1 2.767 2.767v47.6a2.77 2.77 0 0 1 -2.767 2.767zm-47.6-52.134a1.769 1.769 0 0 0 -1.767 1.767v47.6a1.769 1.769 0 0 0 1.767 1.767h47.6a1.769 1.769 0 0 0 1.767-1.767v-47.6a1.769 1.769 0 0 0 -1.767-1.767z" fill="#323c6b"/><path d="m60.8 10.933h-.733v46.867a2.267 2.267 0 0 1 -2.267 2.267h-46.867v.733a2.267 2.267 0 0 0 2.267 2.267h47.6a2.267 2.267 0 0 0 2.267-2.267v-47.6a2.267 2.267 0 0 0 -2.267-2.267z" fill="#828a9e"/><path d="m18.867 55.133v-26.845l9.421-9.421h26.845v36.266z" fill="#dbd8dd"/><g fill="#323c6b"><path d="m55.133 55.633h-36.266a.5.5 0 0 1 -.5-.5v-26.845a.5.5 0 0 1 .146-.354l9.421-9.421a.5.5 0 0 1 .354-.146h26.845a.5.5 0 0 1 .5.5v36.266a.5.5 0 0 1 -.5.5zm-35.767-1h35.267v-35.266h-26.138l-9.128 9.128z"/><path d="m58.033 3h1v7.933h-1z"/><path d="m49.42 3h1v7.933h-1z"/><path d="m40.807 3h1v7.933h-1z"/><path d="m32.193 3h1v7.933h-1z"/><path d="m23.58 3h1v7.933h-1z"/><path d="m14.967 3h1v7.933h-1z"/><path d="m58.033 63.067h1v7.933h-1z"/><path d="m49.42 63.067h1v7.933h-1z"/><path d="m40.807 63.067h1v7.933h-1z"/><path d="m32.193 63.067h1v7.933h-1z"/><path d="m23.58 63.067h1v7.933h-1z"/><path d="m14.967 63.067h1v7.933h-1z"/><path d="m63.067 58.033h7.933v1h-7.933z"/><path d="m63.067 49.42h7.933v1h-7.933z"/><path d="m63.067 40.807h7.933v1h-7.933z"/><path d="m63.067 32.193h7.933v1h-7.933z"/><path d="m63.067 23.58h7.933v1h-7.933z"/><path d="m63.067 14.967h7.933v1h-7.933z"/><path d="m3 58.033h7.933v1h-7.933z"/><path d="m3 49.42h7.933v1h-7.933z"/><path d="m3 40.807h7.933v1h-7.933z"/><path d="m3 32.193h7.933v1h-7.933z"/><path d="m3 23.58h7.933v1h-7.933z"/><path d="m3 14.967h7.933v1h-7.933z"/><path d="m60.8 63.567h-47.6a2.77 2.77 0 0 1 -2.767-2.767v-47.6a2.77 2.77 0 0 1 2.767-2.767h47.6a2.77 2.77 0 0 1 2.767 2.767v47.6a2.77 2.77 0 0 1 -2.767 2.767zm-47.6-52.134a1.769 1.769 0 0 0 -1.767 1.767v47.6a1.769 1.769 0 0 0 1.767 1.767h47.6a1.769 1.769 0 0 0 1.767-1.767v-47.6a1.769 1.769 0 0 0 -1.767-1.767z"/></g><rect fill="#828a9e" height="6.643" rx=".655" width="15.128" x="34.792" y="43.607"/><g fill="#dbd8dd"><path d="m24.446 13.812h-1.146a.574.574 0 1 0 0 1.147h1.147a.574.574 0 1 0 0-1.147z"/><path d="m20.754 13.812h-6.1a.8.8 0 0 0 -.8.8v3.935a.574.574 0 1 0 1.147 0v-3.588h5.748a.574.574 0 1 0 0-1.147z"/></g></g></svg>