<svg height="512" viewBox="0 0 74 74" width="512" xmlns="http://www.w3.org/2000/svg"><g id="Numbers"><text fill="#f00" font-family="ArialMT, Arial" font-size="18" transform="translate(31.995 -638.544)">6<tspan x="-5.005" y="124">16</tspan><tspan x="-5.005" y="248">26</tspan><tspan x="-5.005" y="372">36</tspan><tspan x="-5.005" y="496">46</tspan><tspan x="-5.005" y="620">56</tspan><tspan x="-5.005" y="744">66</tspan><tspan x="-5.005" y="868">76</tspan><tspan x="-5.005" y="992">86</tspan><tspan x="-5.005" y="1116">96</tspan><tspan x="-10.011" y="1240">106</tspan><tspan letter-spacing="-.074em" x="-9.343" y="1364">1</tspan><tspan x="-.668" y="1364">16</tspan><tspan x="-10.011" y="1488">126</tspan><tspan x="-10.011" y="1612">136</tspan><tspan x="-10.011" y="1736">146</tspan><tspan x="-10.011" y="1860">156</tspan><tspan x="-10.011" y="1984">166</tspan><tspan x="-10.011" y="2108">176</tspan><tspan x="-10.011" y="2232">186</tspan><tspan x="-10.011" y="2356">196</tspan><tspan x="-10.011" y="2480">206</tspan><tspan x="-10.011" y="2604">216</tspan><tspan x="-10.011" y="2728">226</tspan><tspan x="-10.011" y="2852">236</tspan><tspan x="-10.011" y="2976">246</tspan><tspan x="-10.011" y="3100">256</tspan><tspan x="-10.011" y="3224">266</tspan><tspan x="-10.011" y="3348">276</tspan><tspan x="-10.011" y="3472">286</tspan><tspan x="-10.011" y="3596">296</tspan></text></g><g id="color_styel" data-name="color styel"><g fill="#323c6b"><path d="m32.39 74.657a.434.434 0 0 1 -.062 0c-.752-.092-1.51-.208-2.254-.344a.5.5 0 1 1 .18-.983q1.09.2 2.2.335a.5.5 0 0 1 -.06 1z"/><path d="m37 74.937a.5.5 0 0 1 0-1 36.679 36.679 0 0 0 14.74-3.049.5.5 0 0 1 .4.917 37.668 37.668 0 0 1 -15.14 3.132z"/><path d="m66.906 15.03a.5.5 0 0 1 -.4-.2q-.623-.825-1.294-1.619a.5.5 0 1 1 .764-.646q.688.814 1.329 1.662a.5.5 0 0 1 -.4.8z"/><path d="m62.645 10.279a.5.5 0 0 1 -.343-.136 36.72 36.72 0 0 0 -11.168-7.243.5.5 0 0 1 .383-.924 37.705 37.705 0 0 1 11.471 7.44.5.5 0 0 1 -.343.864z"/></g><circle cx="37" cy="37.022" fill="#eeefee" r="33.475" transform="matrix(.707 -.707 .707 .707 -15.342 37.006)"/><path d="m37 70.981a33.959 33.959 0 1 1 24.024-9.935 33.869 33.869 0 0 1 -24.024 9.935zm0-66.918a32.969 32.969 0 1 0 23.317 56.276 32.959 32.959 0 0 0 -23.317-56.276z" fill="#323c6b"/><path d="m60.67 13.352a33.476 33.476 0 0 0 -43.627-3.205 33.479 33.479 0 0 1 36.957 55.72 33.5 33.5 0 0 0 6.67-52.515z" fill="#dbd8dd"/><path d="m34.813 39.209c4.305 4.305 8.328 5.559 10.027 3.86l1.36-1.358a3.938 3.938 0 0 1 5.57 0l3.978 3.978a3.938 3.938 0 0 1 0 5.57l-4.421 4.421c-3.594 3.594-13.9-.877-23-9.981a46.452 46.452 0 0 1 -9.748-13.565c-1.811-4.161-2.029-7.641-.233-9.436l4.421-4.421a3.938 3.938 0 0 1 5.57 0l3.978 3.978a3.938 3.938 0 0 1 0 5.57l-1.358 1.358c-1.703 1.698-.449 5.717 3.856 10.026z" fill="#69b0ee"/><path d="m47.771 57.426c-4.993 0-12.673-4.246-19.8-11.374a46.862 46.862 0 0 1 -9.854-13.72c-1.978-4.545-2.023-8.092-.128-9.988l4.421-4.421a4.438 4.438 0 0 1 6.277 0l3.977 3.977a4.439 4.439 0 0 1 0 6.277l-1.357 1.357c-1.356 1.357-.466 4.994 3.86 9.32a17 17 0 0 0 5.808 4.065c1.564.569 2.812.5 3.512-.205l1.358-1.358a4.437 4.437 0 0 1 6.276 0l3.979 3.979a4.438 4.438 0 0 1 0 6.276l-4.421 4.421a5.326 5.326 0 0 1 -3.908 1.394zm-22.224-39.8a3.428 3.428 0 0 0 -2.432 1.005l-4.415 4.42c-1.562 1.562-1.438 4.8.338 8.882a45.848 45.848 0 0 0 9.644 13.412c8.749 8.748 18.959 13.319 22.294 9.981l4.416-4.426a3.442 3.442 0 0 0 0-4.862l-3.978-3.978a3.442 3.442 0 0 0 -4.862 0l-1.358 1.358c-.991.993-2.613 1.147-4.561.438a17.974 17.974 0 0 1 -6.173-4.3c-4.3-4.3-5.884-8.71-3.86-10.734l1.357-1.357a3.439 3.439 0 0 0 0-4.863l-3.978-3.972a3.428 3.428 0 0 0 -2.431-1.005z" fill="#323c6b"/><path d="m37 70.981a33.959 33.959 0 1 1 24.024-9.935 33.869 33.869 0 0 1 -24.024 9.935zm0-66.918a32.969 32.969 0 1 0 23.317 56.276 32.959 32.959 0 0 0 -23.317-56.276z" fill="#323c6b"/><g fill="#dbd8dd"><path d="m12.375 46.721c-.031.013-.063.028-.094.045a1.5 1.5 0 0 0 -.654 1.878 6.374 6.374 0 0 0 .587 1.23 1.2 1.2 0 0 0 1.758.429 1.508 1.508 0 0 0 .464-1.936 4.378 4.378 0 0 1 -.459-.963 1.2 1.2 0 0 0 -1.602-.683z"/><path d="m15.7 51.955a1.309 1.309 0 0 0 -.414.244 1.505 1.505 0 0 0 -.257 1.972 25.807 25.807 0 0 0 13.747 9.744 1.342 1.342 0 0 0 1.568-1.068 1.356 1.356 0 0 0 -.916-1.671 23.767 23.767 0 0 1 -12.339-8.776 1.188 1.188 0 0 0 -1.389-.445z"/></g></g></svg>