<svg height="512" viewBox="0 0 74 74" width="512" xmlns="http://www.w3.org/2000/svg"><g id="Numbers"><text fill="#f00" font-family="ArialMT, Arial" font-size="18" transform="translate(31.994 -638.544)">7<tspan x="-5.005" y="124">17</tspan><tspan x="-5.005" y="248">27</tspan><tspan x="-5.005" y="372">37</tspan><tspan x="-5.005" y="496">47</tspan><tspan x="-5.005" y="620">57</tspan><tspan x="-5.005" y="744">67</tspan><tspan x="-5.005" y="868">77</tspan><tspan x="-5.005" y="992">87</tspan><tspan x="-5.005" y="1116">97</tspan><tspan x="-10.011" y="1240">107</tspan><tspan letter-spacing="-.074em" x="-9.343" y="1364">1</tspan><tspan x="-.668" y="1364">17</tspan><tspan x="-10.011" y="1488">127</tspan><tspan x="-10.011" y="1612">137</tspan><tspan x="-10.011" y="1736">147</tspan><tspan x="-10.011" y="1860">157</tspan><tspan x="-10.011" y="1984">167</tspan><tspan x="-10.011" y="2108">177</tspan><tspan x="-10.011" y="2232">187</tspan><tspan x="-10.011" y="2356">197</tspan><tspan x="-10.011" y="2480">207</tspan><tspan x="-10.011" y="2604">217</tspan><tspan x="-10.011" y="2728">227</tspan><tspan x="-10.011" y="2852">237</tspan><tspan x="-10.011" y="2976">247</tspan><tspan x="-10.011" y="3100">257</tspan><tspan x="-10.011" y="3224">267</tspan><tspan x="-10.011" y="3348">277</tspan><tspan x="-10.011" y="3472">287</tspan><tspan x="-10.011" y="3596">297</tspan></text></g><g id="color_styel" data-name="color styel"><path d="m65.021 41.74a.5.5 0 0 1 -.457-.3c-.25-.562-.518-1.116-.8-1.661a.5.5 0 1 1 .889-.458q.435.844.823 1.713a.5.5 0 0 1 -.254.66.489.489 0 0 1 -.201.046z" fill="#323c6b"/><path d="m62.614 37.076a.5.5 0 0 1 -.429-.242 53.041 53.041 0 0 0 -5.543-7.447.5.5 0 0 1 .754-.657 54.083 54.083 0 0 1 5.646 7.589.5.5 0 0 1 -.429.758z" fill="#323c6b"/><path d="m63.175 52.394c-.11 16.88-11.855 18.6-26.312 18.505s-26.183-1.954-26.073-18.834c.08-11.865 7.966-19.582 16.5-28.037a1.613 1.613 0 0 0 .219.01l18.944.01a1.508 1.508 0 0 0 .3-.02c8.426 8.565 16.492 16.501 16.422 28.366z" fill="#fed19a"/><path d="m37.962 71.4q-.549 0-1.1 0c-6.79-.042-13.76-.457-18.736-3.182-5.323-2.915-7.886-8.2-7.834-16.156.081-11.976 8.028-19.849 16.443-28.185l.206-.2a.494.494 0 0 1 .424-.14.828.828 0 0 0 .147 0l18.944.01a.915.915 0 0 0 .2-.01.5.5 0 0 1 .455.14l.535.544c8.279 8.412 16.1 16.356 16.03 28.176-.113 17.239-12.098 19.003-25.714 19.003zm-10.476-46.862-.05.049c-8.262 8.186-16.068 15.918-16.146 27.481-.05 7.66 2.274 12.512 7.31 15.272 4.782 2.619 11.6 3.018 18.262 3.06 13.538.1 25.7-1.23 25.81-18.009.066-11.406-7.612-19.208-15.742-27.468l-.37-.376h-.108l-18.944-.01z" fill="#323c6b"/><path d="m46.754 24.028a1.508 1.508 0 0 1 -.3.02h-2.771c6.845 7.147 12.572 14.352 12.517 24.358-.11 16.88-11.855 18.6-26.312 18.505-5.5-.034-10.6-.328-14.807-1.6 4.664 4.772 12.682 5.536 21.787 5.592 14.457.09 26.2-1.625 26.312-18.505.065-11.869-8.001-19.805-16.426-28.37z" fill="#f4bb87"/><path d="m49.944 20.558a3.478 3.478 0 0 1 -3.191 3.47 1.508 1.508 0 0 1 -.3.02l-18.944-.01a1.613 1.613 0 0 1 -.219-.01 3.488 3.488 0 0 1 .2-6.969h.558l18.406.01c.13 0 .259.01.389.02a3.482 3.482 0 0 1 3.101 3.469z" fill="#eeefee"/><path d="m46.455 24.548-18.944-.01a2.09 2.09 0 0 1 -.292-.016 3.987 3.987 0 0 1 .272-7.964l18.964.01c.142 0 .284.01.426.021a3.987 3.987 0 0 1 -.088 7.937 1.727 1.727 0 0 1 -.338.022zm-18.944-1.01 18.944.01a.915.915 0 0 0 .2-.01 2.989 2.989 0 0 0 .135-5.952c-.1-.007-.219-.017-.335-.017l-18.944-.01a2.988 2.988 0 0 0 -.187 5.97 1.445 1.445 0 0 0 .187.009z" fill="#323c6b"/><path d="m46.844 17.089c-.13-.01-.259-.02-.389-.02l-18.406-.01h-.558-.018l14.994.008c.13 0 .259.01.389.02a3.487 3.487 0 0 1 -.09 6.94 1.368 1.368 0 0 1 -.268.018h3.957a1.508 1.508 0 0 0 .3-.02 3.487 3.487 0 0 0 .09-6.94z" fill="#dbd8dd"/><path d="m20.953 9.071a.5.5 0 0 1 -.456-.295l-1.914-4.255a.5.5 0 0 1 .174-.618l2.068-1.413a.5.5 0 0 1 .564.826l-1.722 1.176 1.742 3.874a.5.5 0 0 1 -.456.705z" fill="#323c6b"/><path d="m22.247 12.022a.5.5 0 0 1 -.456-.3l-.354-.788a.5.5 0 1 1 .912-.409l.354.788a.5.5 0 0 1 -.456.7z" fill="#323c6b"/><path d="m51.161 4.456-4.317 12.633c-.13-.01-.259-.02-.389-.02l-18.406-.01-5.254-11.686s8.086-5.524 16.362.479c7.318 5.314 11.814-1.107 12.004-1.396z" fill="#fed19a"/><path d="m46.844 17.588h-.037c-.118-.009-.235-.018-.352-.018l-18.406-.01a.5.5 0 0 1 -.456-.295l-5.254-11.687a.5.5 0 0 1 .174-.618c.087-.06 8.472-5.651 16.937.487 2.253 1.637 4.445 2.277 6.5 1.9a8.03 8.03 0 0 0 4.791-3.163.5.5 0 0 1 .891.436l-4.316 12.63a.5.5 0 0 1 -.472.338zm-18.472-1.03 18.083.01h.038l3.447-10.087a8.333 8.333 0 0 1 -3.808 1.847c-2.336.431-4.785-.268-7.271-2.072a13.91 13.91 0 0 0 -15.431-.691z" fill="#323c6b"/><path d="m35.168 5.852c3.064 2.225 5.631 2.39 7.6 1.812a11.218 11.218 0 0 1 -3.609-1.812 13.844 13.844 0 0 0 -10.346-2.652 14.212 14.212 0 0 1 6.355 2.652z" fill="#f4bb87"/><path d="m46.017 7.838-3.154 9.228h3.592c.13 0 .259.01.389.02l4.317-12.63a8.558 8.558 0 0 1 -5.144 3.382z" fill="#f4bb87"/><g fill="#323c6b"><path d="m51.523 4.801-.724-.69.734.68z"/><path d="m37.962 71.4q-.549 0-1.1 0c-6.79-.042-13.76-.457-18.736-3.182-5.323-2.915-7.886-8.2-7.834-16.156.081-11.976 8.028-19.849 16.443-28.185l.206-.2a.494.494 0 0 1 .424-.14.828.828 0 0 0 .147 0l18.944.01a.915.915 0 0 0 .2-.01.5.5 0 0 1 .455.14l.535.544c8.279 8.412 16.1 16.356 16.03 28.176-.113 17.239-12.098 19.003-25.714 19.003zm-10.476-46.862-.05.049c-8.262 8.186-16.068 15.918-16.146 27.481-.05 7.66 2.274 12.512 7.31 15.272 4.782 2.619 11.6 3.018 18.262 3.06 13.538.1 25.7-1.23 25.81-18.009.066-11.406-7.612-19.208-15.742-27.468l-.37-.376h-.108l-18.944-.01z"/><path d="m46.844 17.588h-.037c-.118-.009-.235-.018-.352-.018l-18.406-.01a.5.5 0 0 1 -.456-.295l-5.254-11.687a.5.5 0 0 1 .174-.618c.087-.06 8.472-5.651 16.937.487 2.253 1.637 4.445 2.277 6.5 1.9a8.03 8.03 0 0 0 4.791-3.163.5.5 0 0 1 .891.436l-4.316 12.63a.5.5 0 0 1 -.472.338zm-18.472-1.03 18.083.01h.038l3.447-10.087a8.333 8.333 0 0 1 -3.808 1.847c-2.336.431-4.785-.268-7.271-2.072a13.91 13.91 0 0 0 -15.431-.691z"/><path d="m46.455 24.548-18.944-.01a2.09 2.09 0 0 1 -.292-.016 3.987 3.987 0 0 1 .272-7.964l18.964.01c.142 0 .284.01.426.021a3.987 3.987 0 0 1 -.088 7.937 1.727 1.727 0 0 1 -.338.022zm-18.944-1.01 18.944.01a.915.915 0 0 0 .2-.01 2.989 2.989 0 0 0 .135-5.952c-.1-.007-.219-.017-.335-.017l-18.944-.01a2.988 2.988 0 0 0 -.187 5.97 1.445 1.445 0 0 0 .187.009z"/><path d="m36.957 60.43h-.046a6.726 6.726 0 0 1 -4.558-1.765 5.721 5.721 0 0 1 -1.885-4.259l1 .007a4.736 4.736 0 0 0 1.567 3.521 5.882 5.882 0 0 0 7.789.049 4.674 4.674 0 0 0 .045-7.022 5.732 5.732 0 0 0 -3.885-1.5 6.254 6.254 0 0 1 -6.443-6.024 6.251 6.251 0 0 1 6.47-5.937h.045a6.724 6.724 0 0 1 4.557 1.765 5.718 5.718 0 0 1 1.887 4.257l-1-.007a4.737 4.737 0 0 0 -1.567-3.521 5.732 5.732 0 0 0 -3.885-1.5h-.039a5.255 5.255 0 0 0 -5.477 4.951 5.259 5.259 0 0 0 5.452 5.02 6.726 6.726 0 0 1 4.558 1.765 5.671 5.671 0 0 1 -.055 8.492 6.721 6.721 0 0 1 -4.53 1.708z"/><path d="m23.024 48.466h27.918v.997h-27.918z" transform="matrix(.006 -1 1 .006 -12.215 85.636)"/></g><g fill="#eeefee"><path d="m20.511 39.092c-.02-.016-.042-.032-.064-.047a1.141 1.141 0 0 0 -1.489.243 4.839 4.839 0 0 0 -.609.837.907.907 0 0 0 .35 1.328 1.145 1.145 0 0 0 1.46-.391 3.323 3.323 0 0 1 .477-.655.914.914 0 0 0 -.125-1.315z"/><path d="m18.223 43.206a.994.994 0 0 0 -.313-.188 1.143 1.143 0 0 0 -1.409.542 19.59 19.59 0 0 0 -1.528 12.7 1.019 1.019 0 0 0 1.28.66 1.029 1.029 0 0 0 .784-1.216 18.041 18.041 0 0 1 1.39-11.411.9.9 0 0 0 -.204-1.087z"/></g></g></svg>