<?xml version="1.0"?>
<svg xmlns="http://www.w3.org/2000/svg" viewBox="0 0 74 74" width="512" height="512"><g id="Numbers"><text transform="translate(31.995 -638.544)" font-size="18" fill="red" font-family="ArialMT, Arial">8<tspan x="-5.005" y="124">18</tspan><tspan x="-5.005" y="248">28</tspan><tspan x="-5.005" y="372">38</tspan><tspan x="-5.005" y="496">48</tspan><tspan x="-5.005" y="620">58</tspan><tspan x="-5.005" y="744">68</tspan><tspan x="-5.005" y="868">78</tspan><tspan x="-5.005" y="992">88</tspan><tspan x="-5.005" y="1116">98</tspan><tspan x="-10.011" y="1240">108</tspan><tspan x="-9.343" y="1364" letter-spacing="-0.074em">1</tspan><tspan x="-0.668" y="1364">18</tspan><tspan x="-10.011" y="1488">128</tspan><tspan x="-10.011" y="1612">138</tspan><tspan x="-10.011" y="1736">148</tspan><tspan x="-10.011" y="1860">158</tspan><tspan x="-10.011" y="1984">168</tspan><tspan x="-10.011" y="2108">178</tspan><tspan x="-10.011" y="2232">188</tspan><tspan x="-10.011" y="2356">198</tspan><tspan x="-10.011" y="2480">208</tspan><tspan x="-10.011" y="2604">218</tspan><tspan x="-10.011" y="2728">228</tspan><tspan x="-10.011" y="2852">238</tspan><tspan x="-10.011" y="2976">248</tspan><tspan x="-10.011" y="3100">258</tspan><tspan x="-10.011" y="3224">268</tspan><tspan x="-10.011" y="3348">278</tspan><tspan x="-10.011" y="3472">288</tspan><tspan x="-10.011" y="3596">298</tspan></text></g><g id="color_styel" data-name="color styel"><path d="M61,38V23H20v7L3.13,18,20,6v7H65a6,6,0,0,1,6,6V38Z" fill="#b1dcc1"/><path d="M71,38.5H61a.5.5,0,0,1-.5-.5V23.5h-40V30a.5.5,0,0,1-.79.407l-16.87-12a.5.5,0,0,1,0-.814l16.87-12A.5.5,0,0,1,20.5,6v6.5H65A6.508,6.508,0,0,1,71.5,19V38A.5.5,0,0,1,71,38.5Zm-9.5-1h9V19A5.507,5.507,0,0,0,65,13.5H20a.5.5,0,0,1-.5-.5V6.969L3.992,18,19.5,29.031V23a.5.5,0,0,1,.5-.5H61a.5.5,0,0,1,.5.5Z" fill="#323c6b"/><path d="M65,13H20V6L3.13,18l.406.289L18,8v7H63a6,6,0,0,1,6,6V38h2V19A6,6,0,0,0,65,13Z" fill="#9dceb2"/><path d="M13,36V51H54V44L71,56,54,68V61H9a6,6,0,0,1-6-6V36Z" fill="#b1dcc1"/><path d="M54,68.5a.5.5,0,0,1-.5-.5V61.5H9A6.508,6.508,0,0,1,2.5,55V36a.5.5,0,0,1,.5-.5H13a.5.5,0,0,1,.5.5V50.5h40V44a.5.5,0,0,1,.788-.409l17,12a.5.5,0,0,1,0,.817l-17,12A.5.5,0,0,1,54,68.5ZM3.5,36.5V55A5.507,5.507,0,0,0,9,60.5H54a.5.5,0,0,1,.5.5v6.035L70.133,56,54.5,44.965V51a.5.5,0,0,1-.5.5H13a.5.5,0,0,1-.5-.5V36.5Z" fill="#323c6b"/><polygon points="68.583 57.706 71 56 54 44 54 47.412 68.583 57.706" fill="#9dceb2"/><polygon points="11 38 11 53 54 53 54 51 13 51 13 36 3 36 3 38 11 38" fill="#9dceb2"/><path d="M71,38.5H61a.5.5,0,0,1-.5-.5V23.5H20v-1H61a.5.5,0,0,1,.5.5V37.5h9V19A5.507,5.507,0,0,0,65,13.5H20a.5.5,0,0,1-.5-.5V6.969L3.992,18l16.3,11.593-.58.814-16.87-12a.5.5,0,0,1,0-.814l16.87-12A.5.5,0,0,1,20.5,6v6.5H65A6.508,6.508,0,0,1,71.5,19V38A.5.5,0,0,1,71,38.5Z" fill="#323c6b"/><path d="M54,68.5a.5.5,0,0,1-.5-.5V61.5H9A6.508,6.508,0,0,1,2.5,55V36a.5.5,0,0,1,.5-.5H13a.5.5,0,0,1,.5.5V50.5h40V44a.5.5,0,0,1,.788-.409l17,12a.5.5,0,0,1,0,.817l-17,12A.5.5,0,0,1,54,68.5ZM3.5,36.5V55A5.507,5.507,0,0,0,9,60.5H54a.5.5,0,0,1,.5.5v6.035L70.133,56,54.5,44.965V51a.5.5,0,0,1-.5.5H13a.5.5,0,0,1-.5-.5V36.5Z" fill="#323c6b"/></g></svg>
