<svg height="512" viewBox="0 0 74 74" width="512" xmlns="http://www.w3.org/2000/svg"><g id="Numbers"><text fill="#f00" font-family="ArialMT, Arial" font-size="18" transform="translate(26.989 -638.544)">10<tspan x="0" y="124">20</tspan><tspan x="0" y="248">30</tspan><tspan x="0" y="372">40</tspan><tspan x="0" y="496">50</tspan><tspan x="0" y="620">60</tspan><tspan x="0" y="744">70</tspan><tspan x="0" y="868">80</tspan><tspan x="0" y="992">90</tspan><tspan x="-5.005" y="1116">100</tspan><tspan letter-spacing="-.074em" x="-4.337" y="1240">1</tspan><tspan x="4.337" y="1240">10</tspan><tspan x="-5.005" y="1364">120</tspan><tspan x="-5.005" y="1488">130</tspan><tspan x="-5.005" y="1612">140</tspan><tspan x="-5.005" y="1736">150</tspan><tspan x="-5.005" y="1860">160</tspan><tspan x="-5.005" y="1984">170</tspan><tspan x="-5.005" y="2108">180</tspan><tspan x="-5.005" y="2232">190</tspan><tspan x="-5.005" y="2356">200</tspan><tspan x="-5.005" y="2480">210</tspan><tspan x="-5.005" y="2604">220</tspan><tspan x="-5.005" y="2728">230</tspan><tspan x="-5.005" y="2852">240</tspan><tspan x="-5.005" y="2976">250</tspan><tspan x="-5.005" y="3100">260</tspan><tspan x="-5.005" y="3224">270</tspan><tspan x="-5.005" y="3348">280</tspan><tspan x="-5.005" y="3472">290</tspan><tspan x="-5.005" y="3596">300</tspan></text></g><g id="color_styel" data-name="color styel"><path d="m70.14 26.06-6.5 23.28h-.01a9.227 9.227 0 0 0 -2.24-.28 9 9 0 0 0 -9 9h-50l8.75-32z" fill="#fed19a"/><path d="m52.39 58.56h-50a.5.5 0 0 1 -.482-.632l8.75-32a.5.5 0 0 1 .482-.368h59a.5.5 0 0 1 .481.634l-6.5 23.28a.517.517 0 0 1 -.612.351 8.761 8.761 0 0 0 -2.119-.265 8.51 8.51 0 0 0 -8.5 8.5.5.5 0 0 1 -.5.5zm-49.345-1h48.855a9.513 9.513 0 0 1 9.487-9 9.689 9.689 0 0 1 1.9.19l6.2-22.19h-57.966z" fill="#323c6b"/><path d="m67.14 26.06-6.432 23.034c.226-.017.451-.034.682-.034a9.227 9.227 0 0 1 2.24.28h.01l6.5-23.28z" fill="#f4bb87"/><path d="m70.39 58.06a9 9 0 1 1 -9-9 9.227 9.227 0 0 1 2.24.28h.01a9.014 9.014 0 0 1 6.75 8.72z" fill="#b6d2dd"/><path d="m61.39 67.56a9.5 9.5 0 0 1 0-19 9.749 9.749 0 0 1 2.327.286l.048.009a9.5 9.5 0 0 1 -2.375 18.7zm0-18a8.474 8.474 0 1 0 2.159.273l-.04-.008a8.761 8.761 0 0 0 -2.119-.265z" fill="#323c6b"/><path d="m64.369 49.562a8.993 8.993 0 0 1 -8 15.967 9 9 0 1 0 8-15.967z" fill="#acc6cc"/><path d="m61.39 14.25v11.81h-50.25l-8.75 32v-51h16l6 7.19z" fill="#f4bb87"/><path d="m2.39 58.56a.517.517 0 0 1 -.066 0 .5.5 0 0 1 -.434-.5v-51a.5.5 0 0 1 .5-.5h16a.5.5 0 0 1 .384.18l5.851 7.01h36.765a.5.5 0 0 1 .5.5v11.81a.5.5 0 0 1 -.5.5h-49.869l-8.649 31.632a.5.5 0 0 1 -.482.368zm.5-51v46.776l7.768-28.408a.5.5 0 0 1 .482-.368h49.75v-10.81h-36.5a.5.5 0 0 1 -.384-.18l-5.851-7.01z" fill="#323c6b"/><path d="m58.39 14.25h3v11.81h-3z" fill="#e6b17d"/><g fill="#323c6b"><path d="m63.581 60.914-.707-.707 2.142-2.142-2.29-2.291.707-.707 2.644 2.644a.5.5 0 0 1 0 .707z"/><path d="m56.167 57.565h9.556v1h-9.556z"/><path d="m61.39 67.56a9.5 9.5 0 0 1 0-19 9.749 9.749 0 0 1 2.327.286l.048.009a9.5 9.5 0 0 1 -2.375 18.7zm0-18a8.474 8.474 0 1 0 2.159.273l-.04-.008a8.761 8.761 0 0 0 -2.119-.265z"/><path d="m52.39 58.56h-50a.5.5 0 0 1 -.482-.632l8.75-32a.5.5 0 0 1 .482-.368h59a.5.5 0 0 1 .481.634l-6.5 23.28a.517.517 0 0 1 -.612.351 8.761 8.761 0 0 0 -2.119-.265 8.51 8.51 0 0 0 -8.5 8.5.5.5 0 0 1 -.5.5zm-49.345-1h48.855a9.513 9.513 0 0 1 9.487-9 9.689 9.689 0 0 1 1.9.19l6.2-22.19h-57.966z"/><path d="m2.39 58.56a.517.517 0 0 1 -.066 0 .5.5 0 0 1 -.434-.5v-51a.5.5 0 0 1 .5-.5h16a.5.5 0 0 1 .384.18l5.851 7.01h36.765a.5.5 0 0 1 .5.5v11.81a.5.5 0 0 1 -.5.5h-49.869l-8.649 31.632a.5.5 0 0 1 -.482.368zm.5-51v46.776l7.768-28.408a.5.5 0 0 1 .482-.368h49.75v-10.81h-36.5a.5.5 0 0 1 -.384-.18l-5.851-7.01z"/></g><g fill="#eeefee"><rect height="10.563" rx=".716" width="1.432" x="4.481" y="12.595"/><rect height="1.816" rx=".716" width="1.432" x="4.481" y="9.123"/></g></g></svg>