<svg height="512" viewBox="0 0 74 74" width="512" xmlns="http://www.w3.org/2000/svg"><g id="Numbers"><text fill="#f00" font-family="ArialMT, Arial" font-size="18" transform="translate(30.995 -762.544)">1<tspan letter-spacing="-.074em" x="-4.337" y="124">1</tspan><tspan x="4.337" y="124">1</tspan><tspan x="-5.005" y="248">21</tspan><tspan x="-5.005" y="372">31</tspan><tspan x="-5.005" y="496">41</tspan><tspan x="-5.005" y="620">51</tspan><tspan x="-5.005" y="744">61</tspan><tspan x="-5.005" y="868">71</tspan><tspan x="-5.005" y="992">81</tspan><tspan x="-5.005" y="1116">91</tspan><tspan x="-10.011" y="1240">101</tspan><tspan letter-spacing="-.074em" x="-8.675" y="1364">11</tspan><tspan x="8.675" y="1364">1</tspan><tspan x="-10.011" y="1488">121</tspan><tspan x="-10.011" y="1612">131</tspan><tspan x="-10.011" y="1736">141</tspan><tspan x="-10.011" y="1860">151</tspan><tspan x="-10.011" y="1984">161</tspan><tspan x="-10.011" y="2108">171</tspan><tspan x="-10.011" y="2232">181</tspan><tspan x="-10.011" y="2356">191</tspan><tspan x="-10.011" y="2480">201</tspan><tspan x="-9.343" y="2604">2</tspan><tspan letter-spacing="-.074em" x=".668" y="2604">1</tspan><tspan x="9.343" y="2604">1</tspan><tspan x="-10.011" y="2728">221</tspan><tspan x="-10.011" y="2852">231</tspan><tspan x="-10.011" y="2976">241</tspan><tspan x="-10.011" y="3100">251</tspan><tspan x="-10.011" y="3224">261</tspan><tspan x="-10.011" y="3348">271</tspan><tspan x="-10.011" y="3472">281</tspan><tspan x="-10.011" y="3596">291</tspan></text></g><g id="color_styel" data-name="color styel"><path d="m66 55.813a.5.5 0 0 1 -.5-.5v-1a.5.5 0 0 1 1 0v1a.5.5 0 0 1 -.5.5z" fill="#323c6b"/><path d="m66 51.5a.5.5 0 0 1 -.5-.5v-10.375a.5.5 0 0 1 1 0v10.375a.5.5 0 0 1 -.5.5z" fill="#323c6b"/><rect fill="#828a9e" height="38" rx="2" width="52" x="11" y="33"/><path d="m61 71.5h-48a2.5 2.5 0 0 1 -2.5-2.5v-34a2.5 2.5 0 0 1 2.5-2.5h48a2.5 2.5 0 0 1 2.5 2.5v34a2.5 2.5 0 0 1 -2.5 2.5zm-48-38a1.5 1.5 0 0 0 -1.5 1.5v34a1.5 1.5 0 0 0 1.5 1.5h48a1.5 1.5 0 0 0 1.5-1.5v-34a1.5 1.5 0 0 0 -1.5-1.5z" fill="#323c6b"/><path d="m61 33h-3a2.006 2.006 0 0 1 2 2v34a2.006 2.006 0 0 1 -2 2h3a2.006 2.006 0 0 0 2-2v-34a2.006 2.006 0 0 0 -2-2z" fill="#62667c"/><path d="m22.782 5.434a.5.5 0 0 1 -.31-.893q.5-.4 1.027-.766a.5.5 0 1 1 .576.817q-.5.354-.984.734a.5.5 0 0 1 -.309.108z" fill="#323c6b"/><path d="m14.892 17.148a.5.5 0 0 1 -.48-.638 23.617 23.617 0 0 1 5.433-9.555.5.5 0 1 1 .73.684 22.6 22.6 0 0 0 -5.2 9.147.5.5 0 0 1 -.483.362z" fill="#323c6b"/><path d="m57 23v10h-8v-10a12 12 0 0 0 -24 0v10h-8v-10a20 20 0 0 1 40 0z" fill="#eeefee"/><path d="m57 33.5h-8a.5.5 0 0 1 -.5-.5v-10a11.5 11.5 0 0 0 -23 0v10a.5.5 0 0 1 -.5.5h-8a.5.5 0 0 1 -.5-.5v-10a20.5 20.5 0 0 1 41 0v10a.5.5 0 0 1 -.5.5zm-7.5-1h7v-9.5a19.5 19.5 0 0 0 -39 0v9.5h7v-9.5a12.5 12.5 0 0 1 25 0z" fill="#323c6b"/><path d="m34 11a12.01 12.01 0 0 0 -12 12v10h3v-10a12.006 12.006 0 0 1 10.5-11.9 12.018 12.018 0 0 0 -1.5-.1z" fill="#dbd8dd"/><path d="m37 3c-.506 0-1 .039-1.5.076a20.01 20.01 0 0 1 18.5 19.924v10h3v-10a20.02 20.02 0 0 0 -20-20z" fill="#dbd8dd"/><path d="m39.68 52.22 1.6 8.78h-8.56l1.6-8.78a5 5 0 1 1 5.36 0z" fill="#eeefee"/><g fill="#323c6b"><path d="m41.28 61.5h-8.56a.5.5 0 0 1 -.492-.59l1.542-8.461a5.5 5.5 0 1 1 6.461 0l1.542 8.461a.5.5 0 0 1 -.492.59zm-7.961-1h7.362l-1.493-8.19a.5.5 0 0 1 .222-.511 4.5 4.5 0 1 0 -4.821 0 .5.5 0 0 1 .222.511z"/><path d="m57 33.5h-8a.5.5 0 0 1 -.5-.5v-10a11.5 11.5 0 0 0 -23 0v10a.5.5 0 0 1 -.5.5h-8a.5.5 0 0 1 -.5-.5v-10a20.5 20.5 0 0 1 41 0v10a.5.5 0 0 1 -.5.5zm-7.5-1h7v-9.5a19.5 19.5 0 0 0 -39 0v9.5h7v-9.5a12.5 12.5 0 0 1 25 0z"/><path d="m61 71.5h-48a2.5 2.5 0 0 1 -2.5-2.5v-34a2.5 2.5 0 0 1 2.5-2.5h48a2.5 2.5 0 0 1 2.5 2.5v34a2.5 2.5 0 0 1 -2.5 2.5zm-48-38a1.5 1.5 0 0 0 -1.5 1.5v34a1.5 1.5 0 0 0 1.5 1.5h48a1.5 1.5 0 0 0 1.5-1.5v-34a1.5 1.5 0 0 0 -1.5-1.5z"/></g><g fill="#dbd8dd"><path d="m24.3 35.645h-1.147a.574.574 0 0 0 0 1.147h1.147a.574.574 0 0 0 0-1.147z"/><path d="m20.608 35.645h-6.1a.8.8 0 0 0 -.8.8v3.935a.574.574 0 0 0 1.147 0v-3.588h5.748a.574.574 0 0 0 0-1.147z"/></g></g></svg>