<svg height="512" viewBox="0 0 74 74" width="512" xmlns="http://www.w3.org/2000/svg"><g id="Numbers"><text fill="#f00" font-family="ArialMT, Arial" font-size="18" transform="translate(31.995 -762.544)">2<tspan x="-5.005" y="124">12</tspan><tspan x="-5.005" y="248">22</tspan><tspan x="-5.005" y="372">32</tspan><tspan x="-5.005" y="496">42</tspan><tspan x="-5.005" y="620">52</tspan><tspan x="-5.005" y="744">62</tspan><tspan x="-5.005" y="868">72</tspan><tspan x="-5.005" y="992">82</tspan><tspan x="-5.005" y="1116">92</tspan><tspan x="-10.011" y="1240">102</tspan><tspan letter-spacing="-.074em" x="-9.343" y="1364">1</tspan><tspan x="-.668" y="1364">12</tspan><tspan x="-10.011" y="1488">122</tspan><tspan x="-10.011" y="1612">132</tspan><tspan x="-10.011" y="1736">142</tspan><tspan x="-10.011" y="1860">152</tspan><tspan x="-10.011" y="1984">162</tspan><tspan x="-10.011" y="2108">172</tspan><tspan x="-10.011" y="2232">182</tspan><tspan x="-10.011" y="2356">192</tspan><tspan x="-10.011" y="2480">202</tspan><tspan x="-10.011" y="2604">212</tspan><tspan x="-10.011" y="2728">222</tspan><tspan x="-10.011" y="2852">232</tspan><tspan x="-10.011" y="2976">242</tspan><tspan x="-10.011" y="3100">252</tspan><tspan x="-10.011" y="3224">262</tspan><tspan x="-10.011" y="3348">272</tspan><tspan x="-10.011" y="3472">282</tspan><tspan x="-10.011" y="3596">292</tspan></text></g><g id="color_styel" data-name="color styel"><g fill="#323c6b"><path d="m42.975 72.248a7.258 7.258 0 0 1 -5.168-2.141.5.5 0 0 1 .707-.707 6.308 6.308 0 0 0 8.922 0 .5.5 0 0 1 .707.707 7.261 7.261 0 0 1 -5.168 2.141z"/><path d="m49.956 68.088a.5.5 0 0 1 -.354-.854l.643-.644a.5.5 0 0 1 .707.707l-.643.644a.5.5 0 0 1 -.353.147z"/><path d="m48.265 17.3a.5.5 0 0 1 -.354-.146l-.958-.958a.5.5 0 1 1 .707-.707l.958.958a.5.5 0 0 1 -.354.854z"/><path d="m45.033 14.063a.5.5 0 0 1 -.354-.146l-6.779-6.784a.5.5 0 0 1 .707-.707l6.784 6.784a.5.5 0 0 1 -.354.854z"/></g><path d="m32.307 4.9 35.353 35.354a3.936 3.936 0 0 1 0 5.566l-21.9 21.9a3.936 3.936 0 0 1 -5.566 0l-35.355-35.351a3.936 3.936 0 0 1 -1.139-3.14l1.827-20.076a3.936 3.936 0 0 1 3.564-3.564l20.076-1.825a3.936 3.936 0 0 1 3.14 1.136z" fill="#b1dcc1"/><path d="m42.976 69.375a4.407 4.407 0 0 1 -3.137-1.3l-35.354-35.353a4.424 4.424 0 0 1 -1.285-3.537l1.829-20.078a4.435 4.435 0 0 1 4.016-4.016l20.077-1.825a4.431 4.431 0 0 1 3.538 1.281l35.354 35.353a4.435 4.435 0 0 1 0 6.273l-21.9 21.9a4.406 4.406 0 0 1 -3.138 1.302zm-13.451-65.127c-.1 0-.208 0-.313.014l-20.076 1.825a3.435 3.435 0 0 0 -3.111 3.113l-1.825 20.075a3.427 3.427 0 0 0 .992 2.74l35.354 35.354a3.519 3.519 0 0 0 4.859 0l21.9-21.9a3.436 3.436 0 0 0 0-4.859l-35.352-35.356a3.429 3.429 0 0 0 -2.428-1.006z" fill="#323c6b"/><path d="m67.66 40.254-35.353-35.354a3.936 3.936 0 0 0 -3.139-1.137l-2.209.2a3.925 3.925 0 0 1 1.518.936l35.352 35.355a3.936 3.936 0 0 1 0 5.566l-21.9 21.9a3.9 3.9 0 0 1 -.867.636 3.924 3.924 0 0 0 4.7-.636l21.9-21.9a3.936 3.936 0 0 0 -.002-5.566z" fill="#9dceb2"/><g fill="#323c6b"><path d="m44.859 14.613h1.045v34.196h-1.045z" transform="matrix(.707 -.707 .707 .707 -9.131 41.378)"/><path d="m37.993 21.479h1.045v34.196h-1.045z" transform="matrix(.707 -.707 .707 .707 -15.997 38.533)"/><path d="m31.126 28.346h1.045v34.196h-1.045z" transform="matrix(.707 -.707 .707 .707 -22.864 35.688)"/><path d="m42.976 69.375a4.407 4.407 0 0 1 -3.137-1.3l-35.354-35.353a4.424 4.424 0 0 1 -1.285-3.537l1.829-20.078a4.435 4.435 0 0 1 4.016-4.016l20.077-1.825a4.431 4.431 0 0 1 3.538 1.281l35.354 35.353a4.435 4.435 0 0 1 0 6.273l-21.9 21.9a4.406 4.406 0 0 1 -3.138 1.302zm-13.451-65.127c-.1 0-.208 0-.313.014l-20.076 1.825a3.435 3.435 0 0 0 -3.111 3.113l-1.825 20.075a3.427 3.427 0 0 0 .992 2.74l35.354 35.354a3.519 3.519 0 0 0 4.859 0l21.9-21.9a3.436 3.436 0 0 0 0-4.859l-35.352-35.356a3.429 3.429 0 0 0 -2.428-1.006z"/></g><circle cx="16.267" cy="16.329" fill="#eeefee" r="4.316" transform="matrix(.707 -.707 .707 .707 -6.782 16.286)"/><path d="m16.267 21.143a4.815 4.815 0 1 1 3.406-8.219 4.814 4.814 0 0 1 -3.406 8.219zm0-8.628a3.814 3.814 0 1 0 2.7 1.116 3.8 3.8 0 0 0 -2.7-1.116z" fill="#323c6b"/></g></svg>