<svg height="512" viewBox="0 0 74 74" width="512" xmlns="http://www.w3.org/2000/svg"><g id="Numbers"><text fill="#f00" font-family="ArialMT, Arial" font-size="18" transform="translate(31.995 -762.544)">3<tspan x="-5.005" y="124">13</tspan><tspan x="-5.005" y="248">23</tspan><tspan x="-5.005" y="372">33</tspan><tspan x="-5.005" y="496">43</tspan><tspan x="-5.005" y="620">53</tspan><tspan x="-5.005" y="744">63</tspan><tspan x="-5.005" y="868">73</tspan><tspan x="-5.005" y="992">83</tspan><tspan x="-5.005" y="1116">93</tspan><tspan x="-10.011" y="1240">103</tspan><tspan letter-spacing="-.074em" x="-9.343" y="1364">1</tspan><tspan x="-.668" y="1364">13</tspan><tspan x="-10.011" y="1488">123</tspan><tspan x="-10.011" y="1612">133</tspan><tspan x="-10.011" y="1736">143</tspan><tspan x="-10.011" y="1860">153</tspan><tspan x="-10.011" y="1984">163</tspan><tspan x="-10.011" y="2108">173</tspan><tspan x="-10.011" y="2232">183</tspan><tspan x="-10.011" y="2356">193</tspan><tspan x="-10.011" y="2480">203</tspan><tspan x="-10.011" y="2604">213</tspan><tspan x="-10.011" y="2728">223</tspan><tspan x="-10.011" y="2852">233</tspan><tspan x="-10.011" y="2976">243</tspan><tspan x="-10.011" y="3100">253</tspan><tspan x="-10.011" y="3224">263</tspan><tspan x="-10.011" y="3348">273</tspan><tspan x="-10.011" y="3472">283</tspan><tspan x="-10.011" y="3596">293</tspan></text></g><g id="color_styel" data-name="color styel"><circle cx="37" cy="37" fill="#fed19a" r="23"/><path d="m37 60.5a23.5 23.5 0 1 1 23.5-23.5 23.527 23.527 0 0 1 -23.5 23.5zm0-46a22.5 22.5 0 1 0 22.5 22.5 22.525 22.525 0 0 0 -22.5-22.5z" fill="#323c6b"/><path d="m37 14a22.954 22.954 0 0 0 -18.136 8.864 22.994 22.994 0 0 1 32.272 32.272 23 23 0 0 0 -14.136-41.136z" fill="#f4bb87"/><g fill="#323c6b"><path d="m36.5 3h1v6h-1z"/><path d="m36.5 65h1v6h-1z"/><path d="m25.897 4.869h1v6h-1z" transform="matrix(.94 -.342 .342 .94 -1.1 9.503)"/><path d="m47.103 63.131h1v6h-1z" transform="matrix(.94 -.342 .342 .94 -19.745 20.265)"/><path d="m16.574 10.253h1v6h-1z" transform="matrix(.766 -.643 .643 .766 -4.524 14.076)"/><path d="m56.427 57.747h1v6h-1z" transform="matrix(.766 -.643 .643 .766 -25.73 50.807)"/><path d="m9.653 18.5h1v6h-1z" transform="matrix(.5 -.866 .866 .5 -13.543 19.543)"/><path d="m63.347 49.5h1v6h-1z" transform="matrix(.5 -.866 .866 .5 -13.543 81.544)"/><path d="m5.971 28.617h1v6h-1z" transform="matrix(.174 -.985 .985 .174 -25.789 32.501)"/><path d="m67.029 39.383h1v6h-1z" transform="matrix(.174 -.985 .985 .174 14.062 101.526)"/><path d="m3.471 41.883h6v1h-6z" transform="matrix(.985 -.174 .174 .985 -7.272 1.771)"/><path d="m64.529 31.117h6v1h-6z" transform="matrix(.985 -.174 .174 .985 -4.469 12.225)"/><path d="m7.153 52h6v1h-6z" transform="matrix(.866 -.5 .5 .866 -24.886 12.107)"/><path d="m60.847 21h6v1h-6z" transform="matrix(.866 -.5 .5 .866 -2.197 34.798)"/><path d="m14.073 60.248h6v1h-6z" transform="matrix(.643 -.766 .766 .643 -40.433 34.772)"/><path d="m53.926 12.753h6v1h-6z" transform="matrix(.643 -.766 .766 .643 10.179 48.337)"/><path d="m23.398 65.631h6v1h-6z" transform="matrix(.342 -.94 .94 .342 -44.773 68.327)"/><path d="m44.603 7.37h6v1h-6z" transform="matrix(.342 -.94 .94 .342 23.932 49.913)"/><path d="m37 60.5a23.5 23.5 0 1 1 23.5-23.5 23.527 23.527 0 0 1 -23.5 23.5zm0-46a22.5 22.5 0 1 0 22.5 22.5 22.525 22.525 0 0 0 -22.5-22.5z"/></g><g fill="#f4bb87"><path d="m18.584 40.41c-.032.014-.064.029-.1.045a1.527 1.527 0 0 0 -.664 1.907 6.474 6.474 0 0 0 .6 1.25 1.214 1.214 0 0 0 1.785.436 1.532 1.532 0 0 0 .472-1.966 4.447 4.447 0 0 1 -.466-.979 1.223 1.223 0 0 0 -1.627-.693z"/><path d="m21.964 45.725a1.33 1.33 0 0 0 -.42.248 1.529 1.529 0 0 0 -.261 2 23.765 23.765 0 0 0 14.217 9.309 1.364 1.364 0 0 0 1.592-1.082 1.377 1.377 0 0 0 -.93-1.7 21.523 21.523 0 0 1 -12.79-8.322 1.206 1.206 0 0 0 -1.408-.453z"/></g></g></svg>