<?xml version="1.0"?>
<svg xmlns="http://www.w3.org/2000/svg" viewBox="0 0 74 74" width="512" height="512"><g id="Numbers"><text transform="translate(31.995 -762.544)" font-size="18" fill="red" font-family="ArialMT, Arial">5<tspan x="-5.005" y="124">15</tspan><tspan x="-5.005" y="248">25</tspan><tspan x="-5.005" y="372">35</tspan><tspan x="-5.005" y="496">45</tspan><tspan x="-5.005" y="620">55</tspan><tspan x="-5.005" y="744">65</tspan><tspan x="-5.005" y="868">75</tspan><tspan x="-5.005" y="992">85</tspan><tspan x="-5.005" y="1116">95</tspan><tspan x="-10.011" y="1240">105</tspan><tspan x="-9.343" y="1364" letter-spacing="-0.074em">1</tspan><tspan x="-0.668" y="1364">15</tspan><tspan x="-10.011" y="1488">125</tspan><tspan x="-10.011" y="1612">135</tspan><tspan x="-10.011" y="1736">145</tspan><tspan x="-10.011" y="1860">155</tspan><tspan x="-10.011" y="1984">165</tspan><tspan x="-10.011" y="2108">175</tspan><tspan x="-10.011" y="2232">185</tspan><tspan x="-10.011" y="2356">195</tspan><tspan x="-10.011" y="2480">205</tspan><tspan x="-10.011" y="2604">215</tspan><tspan x="-10.011" y="2728">225</tspan><tspan x="-10.011" y="2852">235</tspan><tspan x="-10.011" y="2976">245</tspan><tspan x="-10.011" y="3100">255</tspan><tspan x="-10.011" y="3224">265</tspan><tspan x="-10.011" y="3348">275</tspan><tspan x="-10.011" y="3472">285</tspan><tspan x="-10.011" y="3596">295</tspan></text></g><g id="color_styel" data-name="color styel"><path d="M62.148,42.733a25.275,25.275,0,0,1-3.318,8.008l4.7,7.808-4.983,4.983-7.808-4.7a25.276,25.276,0,0,1-8.008,3.318L40.517,71H33.483l-2.216-8.852a25.276,25.276,0,0,1-8.008-3.318l-7.808,4.7-4.983-4.983,4.7-7.808a25.275,25.275,0,0,1-3.318-8.008L3,40.517V33.483l8.852-2.216a25.274,25.274,0,0,1,3.318-8.008l-4.7-7.808,4.983-4.983,7.808,4.7a25.274,25.274,0,0,1,8.008-3.318L33.483,3h7.034l2.216,8.852a25.274,25.274,0,0,1,8.008,3.318l7.808-4.7,4.983,4.983-4.7,7.808a25.274,25.274,0,0,1,3.318,8.008L71,33.483v7.034Z" fill="#9a9eaf"/><path d="M40.517,71.5H33.483A.5.5,0,0,1,33,71.122l-2.142-8.555a25.726,25.726,0,0,1-7.6-3.15L15.709,63.96a.5.5,0,0,1-.611-.075L10.115,58.9a.5.5,0,0,1-.075-.611l4.543-7.545a25.726,25.726,0,0,1-3.15-7.6L2.878,41a.5.5,0,0,1-.378-.485V33.483A.5.5,0,0,1,2.878,33l8.555-2.142a25.726,25.726,0,0,1,3.15-7.6L10.04,15.709a.5.5,0,0,1,.075-.611L15.1,10.115a.5.5,0,0,1,.611-.075l7.545,4.543a25.726,25.726,0,0,1,7.6-3.15L33,2.878a.5.5,0,0,1,.485-.378h7.034A.5.5,0,0,1,41,2.878l2.142,8.555a25.726,25.726,0,0,1,7.6,3.15l7.545-4.543a.5.5,0,0,1,.611.075L63.885,15.1a.5.5,0,0,1,.075.611l-4.543,7.545a25.726,25.726,0,0,1,3.15,7.6L71.122,33a.5.5,0,0,1,.378.485v7.034a.5.5,0,0,1-.378.485l-8.555,2.142a25.726,25.726,0,0,1-3.15,7.6l4.543,7.545a.5.5,0,0,1-.075.611L58.9,63.885a.5.5,0,0,1-.611.075l-7.545-4.543a25.726,25.726,0,0,1-7.6,3.15L41,71.122A.5.5,0,0,1,40.517,71.5Zm-6.644-1h6.254l2.121-8.473a.5.5,0,0,1,.376-.366,24.748,24.748,0,0,0,7.849-3.252A.5.5,0,0,1,51,58.4l7.473,4.5,4.43-4.43L58.4,51a.5.5,0,0,1,.006-.525,24.748,24.748,0,0,0,3.252-7.849.5.5,0,0,1,.366-.376L70.5,40.127V33.873l-8.473-2.121a.5.5,0,0,1-.366-.376,24.748,24.748,0,0,0-3.252-7.849A.5.5,0,0,1,58.4,23l4.5-7.473-4.43-4.43L51,15.6a.5.5,0,0,1-.525-.006,24.748,24.748,0,0,0-7.849-3.252.5.5,0,0,1-.376-.366L40.127,3.5H33.873l-2.121,8.473a.5.5,0,0,1-.376.366,24.748,24.748,0,0,0-7.849,3.252A.5.5,0,0,1,23,15.6l-7.473-4.5-4.43,4.43L15.6,23a.5.5,0,0,1-.006.525,24.748,24.748,0,0,0-3.252,7.849.5.5,0,0,1-.366.376L3.5,33.873v6.254l8.473,2.121a.5.5,0,0,1,.366.376,24.748,24.748,0,0,0,3.252,7.849A.5.5,0,0,1,15.6,51l-4.5,7.473,4.43,4.43L23,58.4a.5.5,0,0,1,.525.006,24.748,24.748,0,0,0,7.849,3.252.5.5,0,0,1,.376.366Z" fill="#323c6b"/><path d="M20.259,15.17c.5-.315,1.014-.6,1.534-.883l-6.342-3.819L14.324,11.6Z" fill="#828a9e"/><path d="M49.079,14.218l.128.069a25.181,25.181,0,0,0-6.474-2.435L40.517,3h-3l2.216,8.852C42.617,12.5,46.652,12.682,49.079,14.218Z" fill="#828a9e"/><path d="M71,40.517V33.483l-8.852-2.216a25.275,25.275,0,0,0-3.318-8.008l4.7-7.808-4.983-4.983L56.676,11.6l3.855,3.855-4.7,7.808a25.275,25.275,0,0,1,3.318,8.008L68,33.483v7.034l-8.852,2.216a25.276,25.276,0,0,1-3.318,8.008l4.7,7.808L56.676,62.4l1.873,1.127,4.983-4.983-4.7-7.808a25.276,25.276,0,0,0,3.318-8.008Z" fill="#828a9e"/><path d="M20.259,58.83,14.324,62.4l1.127,1.127,6.342-3.819C21.274,59.432,20.757,59.145,20.259,58.83Z" fill="#828a9e"/><path d="M48.6,59.542c-2.427,1.536-5.978,1.962-8.862,2.607L37.517,71h3l2.216-8.852a25.18,25.18,0,0,0,6.474-2.435Z" fill="#828a9e"/><circle cx="37" cy="37" r="15.241" fill="#fff"/><path d="M37,52.741A15.741,15.741,0,1,1,52.741,37,15.759,15.759,0,0,1,37,52.741Zm0-30.482A14.741,14.741,0,1,0,51.741,37,14.758,14.758,0,0,0,37,22.259Z" fill="#323c6b"/><path d="M40.517,71.5H33.483A.5.5,0,0,1,33,71.122l-2.142-8.555a25.726,25.726,0,0,1-7.6-3.15L15.709,63.96a.5.5,0,0,1-.611-.075L10.115,58.9a.5.5,0,0,1-.075-.611l4.543-7.545a25.726,25.726,0,0,1-3.15-7.6L2.878,41a.5.5,0,0,1-.378-.485V33.483A.5.5,0,0,1,2.878,33l8.555-2.142a25.726,25.726,0,0,1,3.15-7.6L10.04,15.709a.5.5,0,0,1,.075-.611L15.1,10.115a.5.5,0,0,1,.611-.075l7.545,4.543a25.726,25.726,0,0,1,7.6-3.15L33,2.878a.5.5,0,0,1,.485-.378h7.034A.5.5,0,0,1,41,2.878l2.142,8.555a25.726,25.726,0,0,1,7.6,3.15l7.545-4.543a.5.5,0,0,1,.611.075L63.885,15.1a.5.5,0,0,1,.075.611l-4.543,7.545a25.726,25.726,0,0,1,3.15,7.6L71.122,33a.5.5,0,0,1,.378.485v7.034a.5.5,0,0,1-.378.485l-8.555,2.142a25.726,25.726,0,0,1-3.15,7.6l4.543,7.545a.5.5,0,0,1-.075.611L58.9,63.885a.5.5,0,0,1-.611.075l-7.545-4.543a25.726,25.726,0,0,1-7.6,3.15L41,71.122A.5.5,0,0,1,40.517,71.5Zm-6.644-1h6.254l2.121-8.473a.5.5,0,0,1,.376-.366,24.748,24.748,0,0,0,7.849-3.252A.5.5,0,0,1,51,58.4l7.473,4.5,4.43-4.43L58.4,51a.5.5,0,0,1,.006-.525,24.748,24.748,0,0,0,3.252-7.849.5.5,0,0,1,.366-.376L70.5,40.127V33.873l-8.473-2.121a.5.5,0,0,1-.366-.376,24.748,24.748,0,0,0-3.252-7.849A.5.5,0,0,1,58.4,23l4.5-7.473-4.43-4.43L51,15.6a.5.5,0,0,1-.525-.006,24.748,24.748,0,0,0-7.849-3.252.5.5,0,0,1-.376-.366L40.127,3.5H33.873l-2.121,8.473a.5.5,0,0,1-.376.366,24.748,24.748,0,0,0-7.849,3.252A.5.5,0,0,1,23,15.6l-7.473-4.5-4.43,4.43L15.6,23a.5.5,0,0,1-.006.525,24.748,24.748,0,0,0-3.252,7.849.5.5,0,0,1-.366.376L3.5,33.873v6.254l8.473,2.121a.5.5,0,0,1,.366.376,24.748,24.748,0,0,0,3.252,7.849A.5.5,0,0,1,15.6,51l-4.5,7.473,4.43,4.43L23,58.4a.5.5,0,0,1,.525.006,24.748,24.748,0,0,0,7.849,3.252.5.5,0,0,1,.376.366Z" fill="#323c6b"/><path d="M26.543,19.645c-.015-.023-.032-.047-.049-.07a1.23,1.23,0,0,0-1.605-.264,5.216,5.216,0,0,0-.91.646.978.978,0,0,0-.1,1.477,1.234,1.234,0,0,0,1.626.1,3.583,3.583,0,0,1,.712-.505A.985.985,0,0,0,26.543,19.645Z" fill="#828a9e"/><path d="M22.79,23.062a1.071,1.071,0,0,0-.255-.3,1.232,1.232,0,0,0-1.626.069,21.118,21.118,0,0,0-5.928,12.449A1.1,1.1,0,0,0,16.063,36.4a1.11,1.11,0,0,0,1.219-.973,19.449,19.449,0,0,1,5.344-11.181A.972.972,0,0,0,22.79,23.062Z" fill="#828a9e"/></g></svg>
