<svg height="512" viewBox="0 0 74 74" width="512" xmlns="http://www.w3.org/2000/svg"><g id="Numbers"><text fill="#f00" font-family="ArialMT, Arial" font-size="18" transform="translate(31.995 -762.544)">6<tspan x="-5.005" y="124">16</tspan><tspan x="-5.005" y="248">26</tspan><tspan x="-5.005" y="372">36</tspan><tspan x="-5.005" y="496">46</tspan><tspan x="-5.005" y="620">56</tspan><tspan x="-5.005" y="744">66</tspan><tspan x="-5.005" y="868">76</tspan><tspan x="-5.005" y="992">86</tspan><tspan x="-5.005" y="1116">96</tspan><tspan x="-10.011" y="1240">106</tspan><tspan letter-spacing="-.074em" x="-9.343" y="1364">1</tspan><tspan x="-.668" y="1364">16</tspan><tspan x="-10.011" y="1488">126</tspan><tspan x="-10.011" y="1612">136</tspan><tspan x="-10.011" y="1736">146</tspan><tspan x="-10.011" y="1860">156</tspan><tspan x="-10.011" y="1984">166</tspan><tspan x="-10.011" y="2108">176</tspan><tspan x="-10.011" y="2232">186</tspan><tspan x="-10.011" y="2356">196</tspan><tspan x="-10.011" y="2480">206</tspan><tspan x="-10.011" y="2604">216</tspan><tspan x="-10.011" y="2728">226</tspan><tspan x="-10.011" y="2852">236</tspan><tspan x="-10.011" y="2976">246</tspan><tspan x="-10.011" y="3100">256</tspan><tspan x="-10.011" y="3224">266</tspan><tspan x="-10.011" y="3348">276</tspan><tspan x="-10.011" y="3472">286</tspan><tspan x="-10.011" y="3596">296</tspan></text></g><g id="color_styel" data-name="color styel"><path d="m8 24.75a.5.5 0 0 1 -.5-.5v-10.375a.5.5 0 0 1 1 0v10.375a.5.5 0 0 1 -.5.5z" fill="#323c6b"/><path d="m8 29.292a.5.5 0 0 1 -.5-.5v-1.375a.5.5 0 0 1 1 0v1.375a.5.5 0 0 1 -.5.5z" fill="#323c6b"/><path d="m57 64v7h-46v-62h7v55z" fill="#dbd8dd"/><g fill="#323c6b"><path d="m57 71.5h-46a.5.5 0 0 1 -.5-.5v-62a.5.5 0 0 1 .5-.5h7a.5.5 0 0 1 .5.5v54.5h38.5a.5.5 0 0 1 .5.5v7a.5.5 0 0 1 -.5.5zm-45.5-1h45v-6h-38.5a.5.5 0 0 1 -.5-.5v-54.5h-6z"/><path d="m66 67.5h-4.062a.5.5 0 0 1 0-1h3.562v-5.812a.5.5 0 0 1 1 0v6.312a.5.5 0 0 1 -.5.5z"/><path d="m66 57.813a.5.5 0 0 1 -.5-.5v-1.188a.5.5 0 0 1 1 0v1.188a.5.5 0 0 1 -.5.5z"/></g><path d="m63 15v49h-45v-61h33v12z" fill="#eeefee"/><path d="m63 64.5h-45a.5.5 0 0 1 -.5-.5v-61a.5.5 0 0 1 .5-.5h33a.5.5 0 0 1 .5.5v11.5h11.5a.5.5 0 0 1 .5.5v49a.5.5 0 0 1 -.5.5zm-44.5-1h44v-48h-11.5a.5.5 0 0 1 -.5-.5v-11.5h-32z" fill="#323c6b"/><path d="m61 15h2v49h-2z" fill="#dbd8dd"/><path d="m63 15h-12v-12z" fill="#dbd8dd"/><path d="m63 15.5h-12a.5.5 0 0 1 -.5-.5v-12a.5.5 0 0 1 .854-.354l12 12a.5.5 0 0 1 -.354.854zm-11.5-1h10.293l-10.293-10.293z" fill="#323c6b"/><g fill="#bbbbcd"><path d="m51 3v2.375l10 9.625h2z"/><path d="m22.812 9.375h20.25v1h-20.25z"/><path d="m22.812 16.208h20.25v1h-20.25z"/><path d="m22.812 23.042h35.375v1h-35.375z"/><path d="m22.812 29.875h35.375v1h-35.375z"/><path d="m22.812 36.708h35.375v1h-35.375z"/><path d="m22.812 43.542h35.375v1h-35.375z"/><path d="m22.812 50.375h35.375v1h-35.375z"/><path d="m22.812 57.208h35.375v1h-35.375z"/></g><path d="m63 15.5h-12a.5.5 0 0 1 -.5-.5v-12a.5.5 0 0 1 .854-.354l12 12a.5.5 0 0 1 -.354.854zm-11.5-1h10.293l-10.293-10.293z" fill="#323c6b"/><path d="m63 64.5h-45a.5.5 0 0 1 -.5-.5v-61a.5.5 0 0 1 .5-.5h33a.5.5 0 0 1 .5.5v11.5h11.5a.5.5 0 0 1 .5.5v49a.5.5 0 0 1 -.5.5zm-44.5-1h44v-48h-11.5a.5.5 0 0 1 -.5-.5v-11.5h-32z" fill="#323c6b"/></g></svg>