<svg height="512" viewBox="0 0 74 74" width="512" xmlns="http://www.w3.org/2000/svg"><g id="Numbers"><text fill="#f00" font-family="ArialMT, Arial" font-size="18" transform="translate(31.994 -762.544)">7<tspan x="-5.005" y="124">17</tspan><tspan x="-5.005" y="248">27</tspan><tspan x="-5.005" y="372">37</tspan><tspan x="-5.005" y="496">47</tspan><tspan x="-5.005" y="620">57</tspan><tspan x="-5.005" y="744">67</tspan><tspan x="-5.005" y="868">77</tspan><tspan x="-5.005" y="992">87</tspan><tspan x="-5.005" y="1116">97</tspan><tspan x="-10.011" y="1240">107</tspan><tspan letter-spacing="-.074em" x="-9.343" y="1364">1</tspan><tspan x="-.668" y="1364">17</tspan><tspan x="-10.011" y="1488">127</tspan><tspan x="-10.011" y="1612">137</tspan><tspan x="-10.011" y="1736">147</tspan><tspan x="-10.011" y="1860">157</tspan><tspan x="-10.011" y="1984">167</tspan><tspan x="-10.011" y="2108">177</tspan><tspan x="-10.011" y="2232">187</tspan><tspan x="-10.011" y="2356">197</tspan><tspan x="-10.011" y="2480">207</tspan><tspan x="-10.011" y="2604">217</tspan><tspan x="-10.011" y="2728">227</tspan><tspan x="-10.011" y="2852">237</tspan><tspan x="-10.011" y="2976">247</tspan><tspan x="-10.011" y="3100">257</tspan><tspan x="-10.011" y="3224">267</tspan><tspan x="-10.011" y="3348">277</tspan><tspan x="-10.011" y="3472">287</tspan><tspan x="-10.011" y="3596">297</tspan></text></g><g id="color_styel" data-name="color styel"><path d="m45.452 12.099h-17.967l8.983-7.662z" fill="#f4bb87"/><path d="m45.452 12.6h-17.968a.5.5 0 0 1 -.324-.88l8.984-7.662a.5.5 0 0 1 .648 0l8.983 7.662a.5.5 0 0 1 -.324.88zm-16.611-1h15.259l-7.627-6.5z" fill="#323c6b"/><path d="m36.468 4.437-1.915 1.633 7.068 6.029h3.831z" fill="#e6b17d"/><path d="m71.905 51.787a.5.5 0 0 1 -.5-.5v-1.252a.5.5 0 0 1 1 0v1.251a.5.5 0 0 1 -.5.501z" fill="#323c6b"/><path d="m71.905 47a.5.5 0 0 1 -.5-.5v-8.46a.5.5 0 0 1 1 0v8.46a.5.5 0 0 1 -.5.5z" fill="#323c6b"/><path d="m69.032 32.211v37.352l-20.486-20.486 11.866-9.769z" fill="#fed19a"/><path d="m69.032 70.063a.5.5 0 0 1 -.354-.146l-20.486-20.486a.5.5 0 0 1 .036-.74l20.487-16.866a.5.5 0 0 1 .817.386v37.352a.5.5 0 0 1 -.309.462.494.494 0 0 1 -.191.038zm-19.743-20.95 19.243 19.243v-35.085z" fill="#323c6b"/><path d="m66.159 34.577v32.113l2.873 2.873v-37.352z" fill="#f4bb87"/><path d="m12.525 24.856v14.452l-8.62-7.097z" fill="#f4bb87"/><path d="m12.524 39.808a.5.5 0 0 1 -.317-.114l-8.619-7.094a.5.5 0 0 1 -.007-.767l8.619-7.357a.5.5 0 0 1 .824.38v14.452a.5.5 0 0 1 -.5.5zm-7.84-7.608 7.341 6.044v-12.304z" fill="#323c6b"/><path d="m69.032 32.211-8.62 7.097v-14.452z" fill="#f4bb87"/><path d="m60.412 39.808a.5.5 0 0 1 -.5-.5v-14.452a.5.5 0 0 1 .824-.38l8.62 7.355a.5.5 0 0 1 -.007.767l-8.62 7.1a.5.5 0 0 1 -.317.11zm.5-13.868v12.309l7.342-6.049z" fill="#323c6b"/><path d="m66.09 34.633 2.942-2.422-8.62-7.355v4.932z" fill="#e6b17d"/><path d="m69.032 69.563h-65.127l20.486-20.486 12.077 9.951 12.078-9.951z" fill="#fed19a"/><path d="m69.032 70.063h-65.127a.5.5 0 0 1 -.354-.854l20.487-20.485a.5.5 0 0 1 .672-.032l11.759 9.688 11.759-9.689a.5.5 0 0 1 .672.032l20.486 20.487a.5.5 0 0 1 -.354.854zm-63.92-1h62.713l-19.311-19.311-11.727 9.662a.5.5 0 0 1 -.637 0l-11.726-9.662z" fill="#323c6b"/><path d="m24.391 49.077-20.486 20.486v-37.352l8.62 7.097z" fill="#fed19a"/><g fill="#323c6b"><path d="m3.905 70.063a.494.494 0 0 1 -.191-.038.5.5 0 0 1 -.309-.462v-37.352a.5.5 0 0 1 .817-.386l20.487 16.866a.5.5 0 0 1 .036.74l-20.486 20.486a.5.5 0 0 1 -.354.146zm.5-36.792v35.085l19.243-19.243z"/><path d="m20.007 9.726h-1.2a.5.5 0 0 1 0-1h1.2a.5.5 0 0 1 0 1z"/><path d="m9.651 13.5a.5.5 0 0 1 -.5-.5v-3.774a.5.5 0 0 1 .5-.5h5.926a.5.5 0 0 1 0 1h-5.426v3.274a.5.5 0 0 1 -.5.5z"/></g><path d="m60.412 12.099v27.209l-23.944 19.72-23.943-19.72v-27.209z" fill="#eeefee"/><path d="m36.469 59.528a.5.5 0 0 1 -.317-.114l-23.945-19.72a.5.5 0 0 1 -.183-.386v-27.208a.5.5 0 0 1 .5-.5h47.888a.5.5 0 0 1 .5.5v27.208a.5.5 0 0 1 -.183.386l-23.943 19.72a.5.5 0 0 1 -.317.114zm-23.445-20.456 23.445 19.308 23.443-19.308v-26.472h-46.888z" fill="#323c6b"/><path d="m12.525 12.099v1.915h45.014v27.21l-21.344 17.579.273.225 23.944-19.72v-27.209z" fill="#dbd8dd"/><g fill="#323c6b"><path d="m69.032 70.063a.5.5 0 0 1 -.354-.146l-20.486-20.486a.5.5 0 0 1 .036-.74l20.487-16.866a.5.5 0 0 1 .817.386v37.352a.5.5 0 0 1 -.309.462.494.494 0 0 1 -.191.038zm-19.743-20.95 19.243 19.243v-35.085z"/><path d="m60.412 39.808a.5.5 0 0 1 -.5-.5v-14.452a.5.5 0 0 1 .824-.38l8.62 7.355a.5.5 0 0 1 -.007.767l-8.62 7.1a.5.5 0 0 1 -.317.11zm.5-13.868v12.309l7.342-6.049z"/><path d="m36.469 59.528a.5.5 0 0 1 -.317-.114l-23.945-19.72a.5.5 0 0 1 -.183-.386v-27.208a.5.5 0 0 1 .5-.5h47.888a.5.5 0 0 1 .5.5v27.208a.5.5 0 0 1 -.183.386l-23.943 19.72a.5.5 0 0 1 -.317.114zm-23.445-20.456 23.445 19.308 23.443-19.308v-26.472h-46.888z"/><path d="m45.452 12.6h-17.968a.5.5 0 0 1 -.324-.88l8.984-7.662a.5.5 0 0 1 .648 0l8.983 7.662a.5.5 0 0 1 -.324.88zm-16.611-1h15.259l-7.627-6.5z"/></g><path d="m44.382 33.169-7.914 10.411-7.914-10.411h4.083v-13.408h7.662v13.408z" fill="#69b0ee"/><path d="m36.469 44.08a.5.5 0 0 1 -.4-.2l-7.913-10.408a.5.5 0 0 1 .4-.8h3.583v-12.911a.5.5 0 0 1 .5-.5h7.661a.5.5 0 0 1 .5.5v12.908h3.583a.5.5 0 0 1 .4.8l-7.916 10.413a.5.5 0 0 1 -.398.198zm-6.906-10.411 6.906 9.084 6.906-9.084h-3.075a.5.5 0 0 1 -.5-.5v-12.908h-6.662v12.908a.5.5 0 0 1 -.5.5z" fill="#323c6b"/><rect fill="#eeefee" height="1.555" rx=".777" width="11.466" x="11.697" y="65.707"/><rect fill="#eeefee" height="1.555" rx=".777" width="1.971" x="24.96" y="65.707"/></g></svg>