<svg height="512" viewBox="0 0 74 74" width="512" xmlns="http://www.w3.org/2000/svg"><g id="Numbers"><text fill="#f00" font-family="ArialMT, Arial" font-size="18" transform="translate(31.995 -762.544)">8<tspan x="-5.005" y="124">18</tspan><tspan x="-5.005" y="248">28</tspan><tspan x="-5.005" y="372">38</tspan><tspan x="-5.005" y="496">48</tspan><tspan x="-5.005" y="620">58</tspan><tspan x="-5.005" y="744">68</tspan><tspan x="-5.005" y="868">78</tspan><tspan x="-5.005" y="992">88</tspan><tspan x="-5.005" y="1116">98</tspan><tspan x="-10.011" y="1240">108</tspan><tspan letter-spacing="-.074em" x="-9.343" y="1364">1</tspan><tspan x="-.668" y="1364">18</tspan><tspan x="-10.011" y="1488">128</tspan><tspan x="-10.011" y="1612">138</tspan><tspan x="-10.011" y="1736">148</tspan><tspan x="-10.011" y="1860">158</tspan><tspan x="-10.011" y="1984">168</tspan><tspan x="-10.011" y="2108">178</tspan><tspan x="-10.011" y="2232">188</tspan><tspan x="-10.011" y="2356">198</tspan><tspan x="-10.011" y="2480">208</tspan><tspan x="-10.011" y="2604">218</tspan><tspan x="-10.011" y="2728">228</tspan><tspan x="-10.011" y="2852">238</tspan><tspan x="-10.011" y="2976">248</tspan><tspan x="-10.011" y="3100">258</tspan><tspan x="-10.011" y="3224">268</tspan><tspan x="-10.011" y="3348">278</tspan><tspan x="-10.011" y="3472">288</tspan><tspan x="-10.011" y="3596">298</tspan></text></g><g id="color_styel" data-name="color styel"><path d="m4.5 31.167a.5.5 0 0 1 -.5-.5v-1.347a7.794 7.794 0 0 1 2.9-6.074.5.5 0 1 1 .631.776 6.8 6.8 0 0 0 -2.531 5.298v1.347a.5.5 0 0 1 -.5.5z" fill="#323c6b"/><path d="m4.5 35.25a.5.5 0 0 1 -.5-.5v-1.083a.5.5 0 0 1 1 0v1.083a.5.5 0 0 1 -.5.5z" fill="#323c6b"/><path d="m69.5 29.32v23.33a4.315 4.315 0 0 1 -4.32 4.32h-9.68v-7.97h-34v7.97h-9.68a4.315 4.315 0 0 1 -4.32-4.32v-23.33a4.315 4.315 0 0 1 4.32-4.32h53.36a4.315 4.315 0 0 1 4.32 4.32z" fill="#9a9eaf"/><path d="m65.18 57.47h-9.68a.5.5 0 0 1 -.5-.5v-7.47h-33v7.47a.5.5 0 0 1 -.5.5h-9.68a4.826 4.826 0 0 1 -4.82-4.82v-23.33a4.825 4.825 0 0 1 4.82-4.82h53.36a4.825 4.825 0 0 1 4.82 4.82v23.33a4.826 4.826 0 0 1 -4.82 4.82zm-9.18-1h9.18a3.825 3.825 0 0 0 3.82-3.82v-23.33a3.824 3.824 0 0 0 -3.82-3.82h-53.36a3.824 3.824 0 0 0 -3.82 3.82v23.33a3.825 3.825 0 0 0 3.82 3.82h9.18v-7.47a.5.5 0 0 1 .5-.5h34a.5.5 0 0 1 .5.5z" fill="#323c6b"/><path d="m65.18 25h-3a4.315 4.315 0 0 1 4.32 4.32v23.33a4.315 4.315 0 0 1 -4.32 4.32h3a4.315 4.315 0 0 0 4.32-4.32v-23.33a4.315 4.315 0 0 0 -4.32-4.32z" fill="#828a9e"/><path d="m54.5 11h-8v-8z" fill="#dbd8dd"/><path d="m54.5 11.5h-8a.5.5 0 0 1 -.5-.5v-8a.5.5 0 0 1 .854-.354l8 8a.5.5 0 0 1 -.354.854zm-7.5-1h6.293l-6.293-6.293z" fill="#323c6b"/><path d="m46.5 3v3l5 5h3z" fill="#bbbbcd"/><path d="m54.5 11v14h-32v-22h24v8z" fill="#eeefee"/><path d="m54.5 25.5h-32a.5.5 0 0 1 -.5-.5v-22a.5.5 0 0 1 .5-.5h24a.5.5 0 0 1 .5.5v7.5h7.5a.5.5 0 0 1 .5.5v14a.5.5 0 0 1 -.5.5zm-31.5-1h31v-13h-7.5a.5.5 0 0 1 -.5-.5v-7.5h-23z" fill="#323c6b"/><path d="m51.5 11h3v14h-3z" fill="#dbd8dd"/><path d="m15.5 18h7v7h-7z" fill="#bbbbcd"/><path d="m22.5 25.5h-7a.5.5 0 0 1 -.5-.5v-7a.5.5 0 0 1 .5-.5h7a.5.5 0 0 1 .5.5v7a.5.5 0 0 1 -.5.5zm-6.5-1h6v-6h-6z" fill="#323c6b"/><path d="m54.5 18h7v7h-7z" fill="#bbbbcd"/><path d="m61.5 25.5h-7a.5.5 0 0 1 -.5-.5v-7a.5.5 0 0 1 .5-.5h7a.5.5 0 0 1 .5.5v7a.5.5 0 0 1 -.5.5zm-6.5-1h6v-6h-6z" fill="#323c6b"/><path d="m59.5 18h2v7h-2z" fill="#9a9eaf"/><g fill="#323c6b"><path d="m61.5 25.5h-7a.5.5 0 0 1 -.5-.5v-7a.5.5 0 0 1 .5-.5h7a.5.5 0 0 1 .5.5v7a.5.5 0 0 1 -.5.5zm-6.5-1h6v-6h-6z"/><path d="m65.18 57.47h-9.68a.5.5 0 0 1 -.5-.5v-7.47h-33v7.47a.5.5 0 0 1 -.5.5h-9.68a4.826 4.826 0 0 1 -4.82-4.82v-23.33a4.825 4.825 0 0 1 4.82-4.82h53.36a4.825 4.825 0 0 1 4.82 4.82v23.33a4.826 4.826 0 0 1 -4.82 4.82zm-9.18-1h9.18a3.825 3.825 0 0 0 3.82-3.82v-23.33a3.824 3.824 0 0 0 -3.82-3.82h-53.36a3.824 3.824 0 0 0 -3.82 3.82v23.33a3.825 3.825 0 0 0 3.82 3.82h9.18v-7.47a.5.5 0 0 1 .5-.5h34a.5.5 0 0 1 .5.5z"/><path d="m54.5 25.5h-32a.5.5 0 0 1 -.5-.5v-22a.5.5 0 0 1 .5-.5h24a.5.5 0 0 1 .5.5v7.5h7.5a.5.5 0 0 1 .5.5v14a.5.5 0 0 1 -.5.5zm-31.5-1h31v-13h-7.5a.5.5 0 0 1 -.5-.5v-7.5h-23z"/><path d="m54.5 11.5h-8a.5.5 0 0 1 -.5-.5v-8a.5.5 0 0 1 .854-.354l8 8a.5.5 0 0 1 -.354.854zm-7.5-1h6.293l-6.293-6.293z"/><path d="m55.5 48.5h4.59v1h-4.59z"/><path d="m16.91 48.5h4.59v1h-4.59z"/><path d="m58.5 69.542a.5.5 0 0 1 -.5-.5v-.292a.5.5 0 0 1 1 0v.292a.5.5 0 0 1 -.5.5z"/><path d="m58.5 66.917a.5.5 0 0 1 -.5-.5v-5.375a.5.5 0 0 1 1 0v5.375a.5.5 0 0 1 -.5.5z"/></g><path d="m21.5 49h34v22h-34z" fill="#eeefee"/><path d="m55.5 71.5h-34a.5.5 0 0 1 -.5-.5v-22a.5.5 0 0 1 .5-.5h34a.5.5 0 0 1 .5.5v22a.5.5 0 0 1 -.5.5zm-33.5-1h33v-21h-33z" fill="#323c6b"/><path d="m52.5 49h3v22h-3z" fill="#dbd8dd"/><path d="m55.5 71.5h-34a.5.5 0 0 1 -.5-.5v-22a.5.5 0 0 1 .5-.5h34a.5.5 0 0 1 .5.5v22a.5.5 0 0 1 -.5.5zm-33.5-1h33v-21h-33z" fill="#323c6b"/><circle cx="60.5" cy="33" fill="#eeefee" r="3"/><g fill="#323c6b"><path d="m27.5 53.5h22v1h-22z"/><path d="m27.5 59.5h22v1h-22z"/><path d="m27.5 65.5h22v1h-22z"/></g><path d="m21.37 27.928h-1.147a.574.574 0 0 0 0 1.147h1.147a.574.574 0 0 0 0-1.147z" fill="#dbd8dd"/><path d="m17.678 28.1h-6.1a.8.8 0 0 0 -.8.8v3.935a.574.574 0 0 0 1.147 0v-3.588h5.748a.574.574 0 1 0 0-1.147z" fill="#dbd8dd"/></g></svg>