<svg height="512" viewBox="0 0 74 74" width="512" xmlns="http://www.w3.org/2000/svg"><g id="Numbers"><text fill="#f00" font-family="ArialMT, Arial" font-size="18" transform="translate(31.994 -762.544)">9<tspan x="-5.005" y="124">19</tspan><tspan x="-5.005" y="248">29</tspan><tspan x="-5.005" y="372">39</tspan><tspan x="-5.005" y="496">49</tspan><tspan x="-5.005" y="620">59</tspan><tspan x="-5.005" y="744">69</tspan><tspan x="-5.005" y="868">79</tspan><tspan x="-5.005" y="992">89</tspan><tspan x="-5.005" y="1116">99</tspan><tspan x="-10.011" y="1240">109</tspan><tspan letter-spacing="-.074em" x="-9.343" y="1364">1</tspan><tspan x="-.668" y="1364">19</tspan><tspan x="-10.011" y="1488">129</tspan><tspan x="-10.011" y="1612">139</tspan><tspan x="-10.011" y="1736">149</tspan><tspan x="-10.011" y="1860">159</tspan><tspan x="-10.011" y="1984">169</tspan><tspan x="-10.011" y="2108">179</tspan><tspan x="-10.011" y="2232">189</tspan><tspan x="-10.011" y="2356">199</tspan><tspan x="-10.011" y="2480">209</tspan><tspan x="-10.011" y="2604">219</tspan><tspan x="-10.011" y="2728">229</tspan><tspan x="-10.011" y="2852">239</tspan><tspan x="-10.011" y="2976">249</tspan><tspan x="-10.011" y="3100">259</tspan><tspan x="-10.011" y="3224">269</tspan><tspan x="-10.011" y="3348">279</tspan><tspan x="-10.011" y="3472">289</tspan><tspan x="-10.011" y="3596">299</tspan></text></g><g id="color_styel" data-name="color styel"><path d="m40.578 9.268a.5.5 0 0 1 -.24-.938l1.119-.614a.5.5 0 1 1 .48.877l-1.119.614a.494.494 0 0 1 -.24.061z" fill="#323c6b"/><path d="m31.861 14.05a.5.5 0 0 1 -.24-.938l6.322-3.469a.5.5 0 1 1 .48.877l-6.323 3.469a.5.5 0 0 1 -.239.061z" fill="#323c6b"/><path d="m57.33 3v68l-35.09-19.25v-29.5z" fill="#dbd8dd"/><path d="m57.33 71.5a.5.5 0 0 1 -.24-.062l-35.09-19.25a.5.5 0 0 1 -.26-.438v-29.5a.5.5 0 0 1 .26-.438l35.09-19.25a.5.5 0 0 1 .5.008.5.5 0 0 1 .24.43v68a.5.5 0 0 1 -.5.5zm-34.59-20.046 34.09 18.7v-66.309l-34.09 18.7z" fill="#323c6b"/><path d="m54.33 4.646v64.708l3 1.646v-68z" fill="#bbbbcd"/><path d="m9.079 54.765a.5.5 0 0 1 -.212-.047 5.717 5.717 0 0 1 -3.287-5.158v-3.435a.5.5 0 0 1 1 0v3.435a4.713 4.713 0 0 0 2.711 4.251.5.5 0 0 1 -.212.953z" fill="#323c6b"/><path d="m13.583 55.25h-1.5a.5.5 0 1 1 0-1h1.5a.5.5 0 0 1 0 1z" fill="#323c6b"/><path d="m22.24 22.26v29.49h-10.97a2.189 2.189 0 0 1 -2.19-2.19v-25.11a2.189 2.189 0 0 1 2.19-2.19z" fill="#9a9eaf"/><path d="m22.24 52.25h-10.97a2.692 2.692 0 0 1 -2.69-2.69v-25.11a2.693 2.693 0 0 1 2.689-2.69h10.971a.5.5 0 0 1 .5.5v29.49a.5.5 0 0 1 -.5.5zm-10.97-29.49a1.692 1.692 0 0 0 -1.69 1.69v25.11a1.692 1.692 0 0 0 1.689 1.69h10.471v-28.49z" fill="#323c6b"/><path d="m57.33 71.5a.5.5 0 0 1 -.24-.062l-35.09-19.25a.5.5 0 0 1 -.26-.438v-29.5a.5.5 0 0 1 .26-.438l35.09-19.25a.5.5 0 0 1 .5.008.5.5 0 0 1 .24.43v68a.5.5 0 0 1 -.5.5zm-34.59-20.046 34.09 18.7v-66.309l-34.09 18.7z" fill="#323c6b"/><path d="m64.92 36.73a7.592 7.592 0 0 1 -7.59 7.59v-15.18a7.592 7.592 0 0 1 7.59 7.59z" fill="#eeefee"/><path d="m57.33 44.82a.5.5 0 0 1 -.5-.5v-15.18a.5.5 0 0 1 .5-.5 8.09 8.09 0 1 1 0 16.18zm.5-15.162v14.142a7.09 7.09 0 0 0 0-14.145z" fill="#323c6b"/><path d="m59.677 29.514a7.579 7.579 0 0 1 -2.347 13.53v1.276a7.589 7.589 0 0 0 2.347-14.806z" fill="#dbd8dd"/><path d="m57.33 44.82a.5.5 0 0 1 -.5-.5v-15.18a.5.5 0 0 1 .5-.5 8.09 8.09 0 1 1 0 16.18zm.5-15.162v14.142a7.09 7.09 0 0 0 0-14.145z" fill="#323c6b"/><rect fill="#eeefee" height="12.731" rx=".863" transform="matrix(.526 -.851 .851 .526 -27.711 59.518)" width="1.726" x="38.645" y="48.239"/><rect fill="#eeefee" height="2.189" rx=".863" transform="matrix(.526 -.851 .851 .526 -28.122 68.719)" width="1.726" x="46.69" y="58.479"/><g fill="#dbd8dd"><path d="m17.027 24.434h-.634a.317.317 0 1 0 0 .634h.634a.317.317 0 1 0 0-.634z"/><path d="m14.985 24.434h-3.371a.441.441 0 0 0 -.441.441v2.175a.317.317 0 0 0 .634 0v-1.982h3.178a.317.317 0 0 0 0-.634z"/></g></g></svg>