<svg height="512" viewBox="0 0 74 74" width="512" xmlns="http://www.w3.org/2000/svg"><g id="Numbers"><text fill="#f00" font-family="ArialMT, Arial" font-size="18" transform="translate(31.995 -886.544)">5<tspan x="-5.005" y="124">15</tspan><tspan x="-5.005" y="248">25</tspan><tspan x="-5.005" y="372">35</tspan><tspan x="-5.005" y="496">45</tspan><tspan x="-5.005" y="620">55</tspan><tspan x="-5.005" y="744">65</tspan><tspan x="-5.005" y="868">75</tspan><tspan x="-5.005" y="992">85</tspan><tspan x="-5.005" y="1116">95</tspan><tspan x="-10.011" y="1240">105</tspan><tspan letter-spacing="-.074em" x="-9.343" y="1364">1</tspan><tspan x="-.668" y="1364">15</tspan><tspan x="-10.011" y="1488">125</tspan><tspan x="-10.011" y="1612">135</tspan><tspan x="-10.011" y="1736">145</tspan><tspan x="-10.011" y="1860">155</tspan><tspan x="-10.011" y="1984">165</tspan><tspan x="-10.011" y="2108">175</tspan><tspan x="-10.011" y="2232">185</tspan><tspan x="-10.011" y="2356">195</tspan><tspan x="-10.011" y="2480">205</tspan><tspan x="-10.011" y="2604">215</tspan><tspan x="-10.011" y="2728">225</tspan><tspan x="-10.011" y="2852">235</tspan><tspan x="-10.011" y="2976">245</tspan><tspan x="-10.011" y="3100">255</tspan><tspan x="-10.011" y="3224">265</tspan><tspan x="-10.011" y="3348">275</tspan><tspan x="-10.011" y="3472">285</tspan><tspan x="-10.011" y="3596">295</tspan></text></g><g id="color_styel" data-name="color styel"><path d="m26.958 5.5h-1.25a.5.5 0 0 1 0-1h1.25a.5.5 0 0 1 0 1z" fill="#323c6b"/><path d="m22.417 5.5h-8.959a.5.5 0 0 1 0-1h8.958a.5.5 0 0 1 0 1z" fill="#323c6b"/><rect fill="#dbd8dd" height="18" rx="2" width="68" x="3" y="8"/><path d="m69 26.5h-64a2.5 2.5 0 0 1 -2.5-2.5v-14a2.5 2.5 0 0 1 2.5-2.5h64a2.5 2.5 0 0 1 2.5 2.5v14a2.5 2.5 0 0 1 -2.5 2.5zm-64-18a1.5 1.5 0 0 0 -1.5 1.5v14a1.5 1.5 0 0 0 1.5 1.5h64a1.5 1.5 0 0 0 1.5-1.5v-14a1.5 1.5 0 0 0 -1.5-1.5z" fill="#323c6b"/><path d="m69 8h-64a2 2 0 0 0 -2 2h64a2 2 0 0 1 2 2v14a2 2 0 0 0 2-2v-14a2 2 0 0 0 -2-2z" fill="#bbbbcd"/><g fill="#323c6b"><path d="m10 16.5h28v1h-28z"/><path d="m63.5 14h1v6h-1z"/><path d="m55.5 14h1v6h-1z"/><path d="m47.5 14h1v6h-1z"/><path d="m69 26.5h-64a2.5 2.5 0 0 1 -2.5-2.5v-14a2.5 2.5 0 0 1 2.5-2.5h64a2.5 2.5 0 0 1 2.5 2.5v14a2.5 2.5 0 0 1 -2.5 2.5zm-64-18a1.5 1.5 0 0 0 -1.5 1.5v14a1.5 1.5 0 0 0 1.5 1.5h64a1.5 1.5 0 0 0 1.5-1.5v-14a1.5 1.5 0 0 0 -1.5-1.5z"/><path d="m5 53.5a5.506 5.506 0 0 1 -5.5-5.5.5.5 0 0 1 .5-.5.5.5 0 0 1 .5.5 4.5 4.5 0 0 0 4.5 4.5.5.5 0 0 1 0 1z"/><path d="m9.438 53.5h-1.5a.5.5 0 0 1 0-1h1.5a.5.5 0 0 1 0 1z"/></g><rect fill="#dbd8dd" height="18" rx="2" width="68" x="3" y="32"/><path d="m69 50.5h-64a2.5 2.5 0 0 1 -2.5-2.5v-14a2.5 2.5 0 0 1 2.5-2.5h64a2.5 2.5 0 0 1 2.5 2.5v14a2.5 2.5 0 0 1 -2.5 2.5zm-64-18a1.5 1.5 0 0 0 -1.5 1.5v14a1.5 1.5 0 0 0 1.5 1.5h64a1.5 1.5 0 0 0 1.5-1.5v-14a1.5 1.5 0 0 0 -1.5-1.5z" fill="#323c6b"/><path d="m69 32h-64a2 2 0 0 0 -2 2h64a2 2 0 0 1 2 2v14a2 2 0 0 0 2-2v-14a2 2 0 0 0 -2-2z" fill="#bbbbcd"/><g fill="#323c6b"><path d="m10 40.5h28v1h-28z"/><path d="m63.5 38h1v6h-1z"/><path d="m55.5 38h1v6h-1z"/><path d="m47.5 38h1v6h-1z"/><path d="m69 50.5h-64a2.5 2.5 0 0 1 -2.5-2.5v-14a2.5 2.5 0 0 1 2.5-2.5h64a2.5 2.5 0 0 1 2.5 2.5v14a2.5 2.5 0 0 1 -2.5 2.5zm-64-18a1.5 1.5 0 0 0 -1.5 1.5v14a1.5 1.5 0 0 0 1.5 1.5h64a1.5 1.5 0 0 0 1.5-1.5v-14a1.5 1.5 0 0 0 -1.5-1.5z"/></g><path d="m32 56h10v10h-10z" fill="#9a9eaf"/><path d="m42 66.5h-10a.5.5 0 0 1 -.5-.5v-10a.5.5 0 0 1 .5-.5h10a.5.5 0 0 1 .5.5v10a.5.5 0 0 1 -.5.5zm-9.5-1h9v-9h-9z" fill="#323c6b"/><path d="m40 56h2v10h-2z" fill="#828a9e"/><path d="m36.5 50h1v6h-1z" fill="#323c6b"/><path d="m42 60.5h25v1h-25z" fill="#323c6b"/><path d="m7 60.5h25v1h-25z" fill="#323c6b"/><path d="m42 66.5h-10a.5.5 0 0 1 -.5-.5v-10a.5.5 0 0 1 .5-.5h10a.5.5 0 0 1 .5.5v10a.5.5 0 0 1 -.5.5zm-9.5-1h9v-9h-9z" fill="#323c6b"/><rect fill="#eeefee" height="1.686" rx=".843" width="12.43" x="19.039" y="22.15"/><rect fill="#eeefee" height="1.686" rx=".843" width="2.137" x="14.969" y="22.15"/></g></svg>