<svg height="512" viewBox="0 0 74 74" width="512" xmlns="http://www.w3.org/2000/svg"><g id="Numbers"><text fill="#f00" font-family="ArialMT, Arial" font-size="18" transform="translate(31.994 -886.544)">7<tspan x="-5.005" y="124">17</tspan><tspan x="-5.005" y="248">27</tspan><tspan x="-5.005" y="372">37</tspan><tspan x="-5.005" y="496">47</tspan><tspan x="-5.005" y="620">57</tspan><tspan x="-5.005" y="744">67</tspan><tspan x="-5.005" y="868">77</tspan><tspan x="-5.005" y="992">87</tspan><tspan x="-5.005" y="1116">97</tspan><tspan x="-10.011" y="1240">107</tspan><tspan letter-spacing="-.074em" x="-9.343" y="1364">1</tspan><tspan x="-.668" y="1364">17</tspan><tspan x="-10.011" y="1488">127</tspan><tspan x="-10.011" y="1612">137</tspan><tspan x="-10.011" y="1736">147</tspan><tspan x="-10.011" y="1860">157</tspan><tspan x="-10.011" y="1984">167</tspan><tspan x="-10.011" y="2108">177</tspan><tspan x="-10.011" y="2232">187</tspan><tspan x="-10.011" y="2356">197</tspan><tspan x="-10.011" y="2480">207</tspan><tspan x="-10.011" y="2604">217</tspan><tspan x="-10.011" y="2728">227</tspan><tspan x="-10.011" y="2852">237</tspan><tspan x="-10.011" y="2976">247</tspan><tspan x="-10.011" y="3100">257</tspan><tspan x="-10.011" y="3224">267</tspan><tspan x="-10.011" y="3348">277</tspan><tspan x="-10.011" y="3472">287</tspan><tspan x="-10.011" y="3596">297</tspan></text></g><g id="color_styel" data-name="color styel"><path d="m62.285 14.371a.5.5 0 0 1 -.421-.23q-.308-.48-.632-.946a.5.5 0 0 1 .822-.57q.334.483.651.978a.5.5 0 0 1 -.421.77z" fill="#323c6b"/><path d="m60.119 11.4a.5.5 0 0 1 -.385-.181 29.726 29.726 0 0 0 -6.452-5.81.5.5 0 0 1 .553-.833 30.7 30.7 0 0 1 6.669 6 .5.5 0 0 1 -.385.819z" fill="#323c6b"/><circle cx="37" cy="30" fill="#b6d2dd" r="27"/><path d="m37 57.5a27.5 27.5 0 1 1 27.5-27.5 27.531 27.531 0 0 1 -27.5 27.5zm0-54a26.5 26.5 0 1 0 26.5 26.5 26.53 26.53 0 0 0 -26.5-26.5z" fill="#323c6b"/><path d="m37 3a26.96 26.96 0 0 0 -8.547 1.389 27 27 0 0 1 13.093 52.222 27 27 0 0 0 -4.546-53.611z" fill="#acc6cc"/><g fill="#323c6b"><path d="m56.149 49.007a26.5 26.5 0 0 0 -38.3 0l-.723-.691a27.5 27.5 0 0 1 39.745 0z"/><path d="m37 20.176a27.265 27.265 0 0 1 -19.873-8.492l.723-.691a26.272 26.272 0 0 0 19.15 8.183 26.272 26.272 0 0 0 19.149-8.184l.723.691a27.263 27.263 0 0 1 -19.872 8.493z"/><path d="m37 57.5c-8.158 0-14.795-12.336-14.795-27.5s6.637-27.5 14.795-27.5 14.794 12.336 14.794 27.5-6.637 27.5-14.794 27.5zm0-54c-7.606 0-13.795 11.888-13.795 26.5s6.189 26.5 13.795 26.5 13.794-11.888 13.794-26.5-6.188-26.5-13.794-26.5z"/><path d="m36.5 3h1v54h-1z"/><path d="m10 29.5h54v1h-54z"/><path d="m37 57.5a27.5 27.5 0 1 1 27.5-27.5 27.531 27.531 0 0 1 -27.5 27.5zm0-54a26.5 26.5 0 1 0 26.5 26.5 26.53 26.53 0 0 0 -26.5-26.5z"/><path d="m33.524 73.7a.5.5 0 0 1 -.218-.05 8.56 8.56 0 0 1 -4-4.05.5.5 0 1 1 .9-.426 7.559 7.559 0 0 0 3.535 3.575.5.5 0 0 1 -.218.95z"/><path d="m37 74.5a8.56 8.56 0 0 1 -1.006-.059.5.5 0 0 1 .117-.993 7.62 7.62 0 0 0 .889.052.5.5 0 0 1 0 1z"/></g><circle cx="37" cy="66" fill="#ef5261" r="5"/><path d="m37 71.5a5.5 5.5 0 1 1 5.5-5.5 5.507 5.507 0 0 1 -5.5 5.5zm0-10a4.5 4.5 0 1 0 4.5 4.5 4.5 4.5 0 0 0 -4.5-4.5z" fill="#323c6b"/><path d="m37 61a4.98 4.98 0 0 0 -4.374 2.626 4.942 4.942 0 0 1 2.374-.626 5 5 0 0 1 5 5 4.942 4.942 0 0 1 -.626 2.374 4.984 4.984 0 0 0 -2.374-9.374z" fill="#e42542"/><g fill="#323c6b"><path d="m42 65.5h25v1h-25z"/><path d="m7 65.5h25v1h-25z"/><path d="m36.5 55h1v6h-1z"/><path d="m37 71.5a5.5 5.5 0 1 1 5.5-5.5 5.507 5.507 0 0 1 -5.5 5.5zm0-10a4.5 4.5 0 1 0 4.5 4.5 4.5 4.5 0 0 0 -4.5-4.5z"/></g><path d="m13.978 32.469h-.051a.734.734 0 0 0 -.692.681 3.111 3.111 0 0 0 -.009.665.583.583 0 0 0 .677.568.736.736 0 0 0 .621-.747 2.137 2.137 0 0 1 .007-.521.588.588 0 0 0 -.553-.646z" fill="#eeefee"/><path d="m14.3 35.479a.639.639 0 0 0 -.234.017.735.735 0 0 0 -.539.808 12.6 12.6 0 0 0 3.912 7.235.655.655 0 0 0 .917-.129.662.662 0 0 0 -.04-.929 11.6 11.6 0 0 1 -3.507-6.507.58.58 0 0 0 -.509-.495z" fill="#eeefee"/></g></svg>