<svg height="512" viewBox="0 0 74 74" width="512" xmlns="http://www.w3.org/2000/svg"><g id="Numbers"><text fill="#f00" font-family="ArialMT, Arial" font-size="18" transform="translate(31.994 -886.544)">9<tspan x="-5.005" y="124">19</tspan><tspan x="-5.005" y="248">29</tspan><tspan x="-5.005" y="372">39</tspan><tspan x="-5.005" y="496">49</tspan><tspan x="-5.005" y="620">59</tspan><tspan x="-5.005" y="744">69</tspan><tspan x="-5.005" y="868">79</tspan><tspan x="-5.005" y="992">89</tspan><tspan x="-5.005" y="1116">99</tspan><tspan x="-10.011" y="1240">109</tspan><tspan letter-spacing="-.074em" x="-9.343" y="1364">1</tspan><tspan x="-.668" y="1364">19</tspan><tspan x="-10.011" y="1488">129</tspan><tspan x="-10.011" y="1612">139</tspan><tspan x="-10.011" y="1736">149</tspan><tspan x="-10.011" y="1860">159</tspan><tspan x="-10.011" y="1984">169</tspan><tspan x="-10.011" y="2108">179</tspan><tspan x="-10.011" y="2232">189</tspan><tspan x="-10.011" y="2356">199</tspan><tspan x="-10.011" y="2480">209</tspan><tspan x="-10.011" y="2604">219</tspan><tspan x="-10.011" y="2728">229</tspan><tspan x="-10.011" y="2852">239</tspan><tspan x="-10.011" y="2976">249</tspan><tspan x="-10.011" y="3100">259</tspan><tspan x="-10.011" y="3224">269</tspan><tspan x="-10.011" y="3348">279</tspan><tspan x="-10.011" y="3472">289</tspan><tspan x="-10.011" y="3596">299</tspan></text></g><g id="color_styel" data-name="color styel"><path d="m66 63.958a.5.5 0 0 1 -.5-.5v-.833a.5.5 0 0 1 1 0v.833a.5.5 0 0 1 -.5.5z" fill="#323c6b"/><path d="m66 60a.5.5 0 0 1 -.5-.5v-9.625a.5.5 0 0 1 1 0v9.625a.5.5 0 0 1 -.5.5z" fill="#323c6b"/><rect fill="#828a9e" height="36" rx="2" width="52" x="11" y="35"/><path d="m61 71.5h-48a2.5 2.5 0 0 1 -2.5-2.5v-32a2.5 2.5 0 0 1 2.5-2.5h48a2.5 2.5 0 0 1 2.5 2.5v32a2.5 2.5 0 0 1 -2.5 2.5zm-48-36a1.5 1.5 0 0 0 -1.5 1.5v32a1.5 1.5 0 0 0 1.5 1.5h48a1.5 1.5 0 0 0 1.5-1.5v-32a1.5 1.5 0 0 0 -1.5-1.5z" fill="#323c6b"/><path d="m61 35h-3a2 2 0 0 1 2 2v32a2 2 0 0 1 -2 2h3a2 2 0 0 0 2-2v-32a2 2 0 0 0 -2-2z" fill="#62667c"/><path d="m19.1 9.073a.5.5 0 0 1 -.389-.814q.281-.347.574-.685a.5.5 0 1 1 .754.656q-.281.324-.551.657a.5.5 0 0 1 -.388.186z" fill="#323c6b"/><path d="m14.114 21.211h-.051a.5.5 0 0 1 -.447-.547 23.218 23.218 0 0 1 2.947-9.256.5.5 0 0 1 .869.5 22.234 22.234 0 0 0 -2.822 8.859.5.5 0 0 1 -.496.444z" fill="#323c6b"/><path d="m57 35h-8v-12a12 12 0 0 0 -24 0v12h-8v-12a20 20 0 0 1 40 0z" fill="#eeefee"/><path d="m57 35.5h-8a.5.5 0 0 1 -.5-.5v-12a11.5 11.5 0 0 0 -23 0v12a.5.5 0 0 1 -.5.5h-8a.5.5 0 0 1 -.5-.5v-12a20.5 20.5 0 0 1 41 0v12a.5.5 0 0 1 -.5.5zm-7.5-1h7v-11.5a19.5 19.5 0 0 0 -39 0v11.5h7v-11.5a12.5 12.5 0 0 1 25 0z" fill="#323c6b"/><path d="m34 11a12.014 12.014 0 0 0 -12 12v12h3v-12a12.011 12.011 0 0 1 10.5-11.9 12.007 12.007 0 0 0 -1.5-.1z" fill="#dbd8dd"/><path d="m37 3c-.506 0-1 .039-1.5.076a20.013 20.013 0 0 1 18.5 19.924v12h3v-12a20.023 20.023 0 0 0 -20-20z" fill="#dbd8dd"/><path d="m39.68 53.22 1.6 8.78h-8.56l1.6-8.78a5 5 0 1 1 5.36 0z" fill="#eeefee"/><g fill="#323c6b"><path d="m41.279 62.5h-8.559a.5.5 0 0 1 -.492-.59l1.542-8.461a5.5 5.5 0 1 1 6.46 0l1.542 8.461a.5.5 0 0 1 -.492.59zm-7.96-1h7.36l-1.492-8.19a.5.5 0 0 1 .223-.511 4.5 4.5 0 1 0 -4.821 0 .5.5 0 0 1 .223.511z"/><path d="m61 71.5h-48a2.5 2.5 0 0 1 -2.5-2.5v-32a2.5 2.5 0 0 1 2.5-2.5h48a2.5 2.5 0 0 1 2.5 2.5v32a2.5 2.5 0 0 1 -2.5 2.5zm-48-36a1.5 1.5 0 0 0 -1.5 1.5v32a1.5 1.5 0 0 0 1.5 1.5h48a1.5 1.5 0 0 0 1.5-1.5v-32a1.5 1.5 0 0 0 -1.5-1.5z"/><path d="m57 35.5h-8a.5.5 0 0 1 -.5-.5v-12a11.5 11.5 0 0 0 -23 0v12a.5.5 0 0 1 -.5.5h-8a.5.5 0 0 1 -.5-.5v-12a20.5 20.5 0 0 1 41 0v12a.5.5 0 0 1 -.5.5zm-7.5-1h7v-11.5a19.5 19.5 0 0 0 -39 0v11.5h7v-11.5a12.5 12.5 0 0 1 25 0z"/></g><g fill="#eeefee"><rect height="10.122" rx=".686" width="1.373" x="13.592" y="40.752"/><rect height="1.74" rx=".686" width="1.373" x="13.592" y="37.438"/></g></g></svg>