<svg height="512" viewBox="0 0 74 74" width="512" xmlns="http://www.w3.org/2000/svg"><g id="Numbers"><text fill="#f00" font-family="ArialMT, Arial" font-size="18" transform="translate(26.989 -886.544)">10<tspan x="0" y="124">20</tspan><tspan x="0" y="248">30</tspan><tspan x="0" y="372">40</tspan><tspan x="0" y="496">50</tspan><tspan x="0" y="620">60</tspan><tspan x="0" y="744">70</tspan><tspan x="0" y="868">80</tspan><tspan x="0" y="992">90</tspan><tspan x="-5.005" y="1116">100</tspan><tspan letter-spacing="-.074em" x="-4.337" y="1240">1</tspan><tspan x="4.337" y="1240">10</tspan><tspan x="-5.005" y="1364">120</tspan><tspan x="-5.005" y="1488">130</tspan><tspan x="-5.005" y="1612">140</tspan><tspan x="-5.005" y="1736">150</tspan><tspan x="-5.005" y="1860">160</tspan><tspan x="-5.005" y="1984">170</tspan><tspan x="-5.005" y="2108">180</tspan><tspan x="-5.005" y="2232">190</tspan><tspan x="-5.005" y="2356">200</tspan><tspan x="-5.005" y="2480">210</tspan><tspan x="-5.005" y="2604">220</tspan><tspan x="-5.005" y="2728">230</tspan><tspan x="-5.005" y="2852">240</tspan><tspan x="-5.005" y="2976">250</tspan><tspan x="-5.005" y="3100">260</tspan><tspan x="-5.005" y="3224">270</tspan><tspan x="-5.005" y="3348">280</tspan><tspan x="-5.005" y="3472">290</tspan><tspan x="-5.005" y="3596">300</tspan></text></g><g id="color_styel" data-name="color styel"><g fill="#323c6b"><path d="m74 64.417a.5.5 0 0 1 -.5-.5v-1.167a.5.5 0 0 1 1 0v1.167a.5.5 0 0 1 -.5.5z"/><path d="m74 60a.5.5 0 0 1 -.5-.5v-9.167a.5.5 0 0 1 1 0v9.167a.5.5 0 0 1 -.5.5z"/><path d="m9.75 42.5h-.833a.5.5 0 0 1 0-1h.833a.5.5 0 0 1 0 1z"/><path d="m0 49.167a.5.5 0 0 1 -.5-.5v-6.667a.5.5 0 0 1 .5-.5h5.417a.5.5 0 1 1 0 1h-4.917v6.167a.5.5 0 0 1 -.5.5z"/></g><path d="m71 45v26h-68v-26h18l3 8h26l3-8z" fill="#fed19a"/><path d="m71 71.5h-68a.5.5 0 0 1 -.5-.5v-26a.5.5 0 0 1 .5-.5h18a.5.5 0 0 1 .468.324l2.879 7.676h25.306l2.879-7.676a.5.5 0 0 1 .468-.324h18a.5.5 0 0 1 .5.5v26a.5.5 0 0 1 -.5.5zm-67.5-1h67v-25h-17.153l-2.879 7.676a.5.5 0 0 1 -.468.324h-26a.5.5 0 0 1 -.468-.324l-2.879-7.676h-17.153z" fill="#323c6b"/><path d="m68 45h3v26h-3z" fill="#f4bb87"/><path d="m49 18.87-12-15.87-12 15.87h6v24h12v-24z" fill="#69b0ee"/><path d="m43 43.37h-12a.5.5 0 0 1 -.5-.5v-23.5h-5.5a.5.5 0 0 1 -.4-.8l12-15.87a.517.517 0 0 1 .8 0l12 15.87a.5.5 0 0 1 -.4.8h-5.5v23.5a.5.5 0 0 1 -.5.5zm-11.5-1h11v-23.5a.5.5 0 0 1 .5-.5h5l-11-14.541-11 14.541h5a.5.5 0 0 1 .5.5z" fill="#323c6b"/><path d="m40 18.87h3v24h-3z" fill="#419be9"/><path d="m37 3-1.5 1.984 10.5 13.886h3z" fill="#419be9"/><path d="m71 71.5h-68a.5.5 0 0 1 -.5-.5v-26a.5.5 0 0 1 .5-.5h18a.5.5 0 0 1 .468.324l2.879 7.676h25.306l2.879-7.676a.5.5 0 0 1 .468-.324h18a.5.5 0 0 1 .5.5v26a.5.5 0 0 1 -.5.5zm-67.5-1h67v-25h-17.153l-2.879 7.676a.5.5 0 0 1 -.468.324h-26a.5.5 0 0 1 -.468-.324l-2.879-7.676h-17.153z" fill="#323c6b"/><path d="m43 43.37h-12a.5.5 0 0 1 -.5-.5v-23.5h-5.5a.5.5 0 0 1 -.4-.8l12-15.87a.517.517 0 0 1 .8 0l12 15.87a.5.5 0 0 1 -.4.8h-5.5v23.5a.5.5 0 0 1 -.5.5zm-11.5-1h11v-23.5a.5.5 0 0 1 .5-.5h5l-11-14.541-11 14.541h5a.5.5 0 0 1 .5.5z" fill="#323c6b"/><g fill="#eeefee"><rect height="1.707" rx=".853" width="12.585" x="6.95" y="66.063"/><rect height="1.707" rx=".853" width="2.164" x="21.493" y="66.063"/></g></g></svg>