<svg height="512" viewBox="0 0 74 74" width="512" xmlns="http://www.w3.org/2000/svg"><g id="Numbers"><text fill="#f00" font-family="ArialMT, Arial" font-size="18" transform="translate(30.995 -1010.544)">1<tspan letter-spacing="-.074em" x="-4.337" y="124">1</tspan><tspan x="4.337" y="124">1</tspan><tspan x="-5.005" y="248">21</tspan><tspan x="-5.005" y="372">31</tspan><tspan x="-5.005" y="496">41</tspan><tspan x="-5.005" y="620">51</tspan><tspan x="-5.005" y="744">61</tspan><tspan x="-5.005" y="868">71</tspan><tspan x="-5.005" y="992">81</tspan><tspan x="-5.005" y="1116">91</tspan><tspan x="-10.011" y="1240">101</tspan><tspan letter-spacing="-.074em" x="-8.675" y="1364">11</tspan><tspan x="8.675" y="1364">1</tspan><tspan x="-10.011" y="1488">121</tspan><tspan x="-10.011" y="1612">131</tspan><tspan x="-10.011" y="1736">141</tspan><tspan x="-10.011" y="1860">151</tspan><tspan x="-10.011" y="1984">161</tspan><tspan x="-10.011" y="2108">171</tspan><tspan x="-10.011" y="2232">181</tspan><tspan x="-10.011" y="2356">191</tspan><tspan x="-10.011" y="2480">201</tspan><tspan x="-9.343" y="2604">2</tspan><tspan letter-spacing="-.074em" x=".668" y="2604">1</tspan><tspan x="9.343" y="2604">1</tspan><tspan x="-10.011" y="2728">221</tspan><tspan x="-10.011" y="2852">231</tspan><tspan x="-10.011" y="2976">241</tspan><tspan x="-10.011" y="3100">251</tspan><tspan x="-10.011" y="3224">261</tspan><tspan x="-10.011" y="3348">271</tspan><tspan x="-10.011" y="3472">281</tspan><tspan x="-10.011" y="3596">291</tspan></text></g><g id="color_styel" data-name="color styel"><g fill="#323c6b"><path d="m0 46a.5.5 0 0 1 -.5-.5v-12.25a.5.5 0 0 1 .5-.5.5.5 0 0 1 .5.5v12.25a.5.5 0 0 1 -.5.5z"/><path d="m0 50.5a.5.5 0 0 1 -.5-.5v-1a.5.5 0 0 1 .5-.5.5.5 0 0 1 .5.5v1a.5.5 0 0 1 -.5.5z"/><path d="m64.125 74.5h-1.125a.5.5 0 0 1 0-1h1.125a.5.5 0 0 1 0 1z"/><path d="m69 74.5h-1.5a.5.5 0 0 1 0-1h1.5a4.5 4.5 0 0 0 4.5-4.5.5.5 0 0 1 1 0 5.506 5.506 0 0 1 -5.5 5.5z"/></g><path d="m71 19v50a2.006 2.006 0 0 1 -2 2h-64a2.006 2.006 0 0 1 -2-2v-50z" fill="#eeefee"/><path d="m69 71.5h-64a2.5 2.5 0 0 1 -2.5-2.5v-50a.5.5 0 0 1 .5-.5h68a.5.5 0 0 1 .5.5v50a2.5 2.5 0 0 1 -2.5 2.5zm-65.5-52v49.5a1.5 1.5 0 0 0 1.5 1.5h64a1.5 1.5 0 0 0 1.5-1.5v-49.5z" fill="#323c6b"/><path d="m69 19v50a2.006 2.006 0 0 1 -2 2h2a2.006 2.006 0 0 0 2-2v-50z" fill="#dbd8dd"/><path d="m71 5v14h-68v-14a2.006 2.006 0 0 1 2-2h64a2.006 2.006 0 0 1 2 2z" fill="#9a9eaf"/><path d="m71 19.5h-68a.5.5 0 0 1 -.5-.5v-14a2.5 2.5 0 0 1 2.5-2.5h64a2.5 2.5 0 0 1 2.5 2.5v14a.5.5 0 0 1 -.5.5zm-67.5-1h67v-13.5a1.5 1.5 0 0 0 -1.5-1.5h-64a1.5 1.5 0 0 0 -1.5 1.5z" fill="#323c6b"/><path d="m69 3h-2a2.006 2.006 0 0 1 2 2v14h2v-14a2.006 2.006 0 0 0 -2-2z" fill="#828a9e"/><circle cx="63" cy="11" fill="#ef5261" r="3"/><path d="m63 14.5a3.5 3.5 0 1 1 3.5-3.5 3.5 3.5 0 0 1 -3.5 3.5zm0-6a2.5 2.5 0 1 0 2.5 2.5 2.5 2.5 0 0 0 -2.5-2.5z" fill="#323c6b"/><circle cx="52" cy="11" fill="#fad641" r="3"/><path d="m52 14.5a3.5 3.5 0 1 1 3.5-3.5 3.5 3.5 0 0 1 -3.5 3.5zm0-6a2.5 2.5 0 1 0 2.5 2.5 2.5 2.5 0 0 0 -2.5-2.5z" fill="#323c6b"/><circle cx="41" cy="11" fill="#69b0ee" r="3"/><path d="m41 14.5a3.5 3.5 0 1 1 3.5-3.5 3.5 3.5 0 0 1 -3.5 3.5zm0-6a2.5 2.5 0 1 0 2.5 2.5 2.5 2.5 0 0 0 -2.5-2.5z" fill="#323c6b"/><path d="m71 19.5h-68a.5.5 0 0 1 -.5-.5v-14a2.5 2.5 0 0 1 2.5-2.5h64a2.5 2.5 0 0 1 2.5 2.5v14a.5.5 0 0 1 -.5.5zm-67.5-1h67v-13.5a1.5 1.5 0 0 0 -1.5-1.5h-64a1.5 1.5 0 0 0 -1.5 1.5z" fill="#323c6b"/><path d="m69 71.5h-64a2.5 2.5 0 0 1 -2.5-2.5v-50a.5.5 0 0 1 .5-.5h68a.5.5 0 0 1 .5.5v50a2.5 2.5 0 0 1 -2.5 2.5zm-65.5-52v49.5a1.5 1.5 0 0 0 1.5 1.5h64a1.5 1.5 0 0 0 1.5-1.5v-49.5z" fill="#323c6b"/><path d="m10 26h21v19h-21z" fill="#b6d2dd"/><g fill="#323c6b"><path d="m31 45.5h-21a.5.5 0 0 1 -.5-.5v-19a.5.5 0 0 1 .5-.5h21a.5.5 0 0 1 .5.5v19a.5.5 0 0 1 -.5.5zm-20.5-1h20v-18h-20z"/><path d="m37 26.5h28v1h-28z"/><path d="m37 35.5h28v1h-28z"/><path d="m37 44.5h28v1h-28z"/><path d="m9 53.5h56v1h-56z"/><path d="m9 62.5h56v1h-56z"/></g><path d="m16.169 5.476h-1.147a.574.574 0 1 0 0 1.147h1.147a.574.574 0 0 0 0-1.147z" fill="#dbd8dd"/><path d="m12.477 5.476h-6.1a.8.8 0 0 0 -.8.8v3.935a.574.574 0 1 0 1.147 0v-3.588h5.748a.574.574 0 0 0 0-1.147z" fill="#dbd8dd"/></g></svg>