<svg height="512" viewBox="0 0 74 74" width="512" xmlns="http://www.w3.org/2000/svg"><g id="Numbers"><text fill="#f00" font-family="ArialMT, Arial" font-size="18" transform="translate(31.995 -1010.544)">2<tspan x="-5.005" y="124">12</tspan><tspan x="-5.005" y="248">22</tspan><tspan x="-5.005" y="372">32</tspan><tspan x="-5.005" y="496">42</tspan><tspan x="-5.005" y="620">52</tspan><tspan x="-5.005" y="744">62</tspan><tspan x="-5.005" y="868">72</tspan><tspan x="-5.005" y="992">82</tspan><tspan x="-5.005" y="1116">92</tspan><tspan x="-10.011" y="1240">102</tspan><tspan letter-spacing="-.074em" x="-9.343" y="1364">1</tspan><tspan x="-.668" y="1364">12</tspan><tspan x="-10.011" y="1488">122</tspan><tspan x="-10.011" y="1612">132</tspan><tspan x="-10.011" y="1736">142</tspan><tspan x="-10.011" y="1860">152</tspan><tspan x="-10.011" y="1984">162</tspan><tspan x="-10.011" y="2108">172</tspan><tspan x="-10.011" y="2232">182</tspan><tspan x="-10.011" y="2356">192</tspan><tspan x="-10.011" y="2480">202</tspan><tspan x="-10.011" y="2604">212</tspan><tspan x="-10.011" y="2728">222</tspan><tspan x="-10.011" y="2852">232</tspan><tspan x="-10.011" y="2976">242</tspan><tspan x="-10.011" y="3100">252</tspan><tspan x="-10.011" y="3224">262</tspan><tspan x="-10.011" y="3348">272</tspan><tspan x="-10.011" y="3472">282</tspan><tspan x="-10.011" y="3596">292</tspan></text></g><g id="color_styel" data-name="color styel"><path d="m22.942 7.664a.5.5 0 0 1 -.4-.795q.18-.246.368-.486a.5.5 0 0 1 .783.617q-.177.226-.347.459a.5.5 0 0 1 -.404.205z" fill="#323c6b"/><path d="m19.61 17.89a.5.5 0 0 1 -.5-.5 17.674 17.674 0 0 1 1.9-8.013.5.5 0 1 1 .894.449 16.677 16.677 0 0 0 -1.79 7.563.5.5 0 0 1 -.504.501z" fill="#323c6b"/><rect fill="#bbbbcd" height="47.978" rx="14.39" width="28.78" x="22.61" y="3"/><path d="m37 51.478a14.907 14.907 0 0 1 -14.89-14.89v-19.198a14.89 14.89 0 0 1 29.78 0v19.2a14.907 14.907 0 0 1 -14.89 14.888zm0-47.978a13.906 13.906 0 0 0 -13.89 13.89v19.2a13.89 13.89 0 0 0 27.78 0v-19.2a13.906 13.906 0 0 0 -13.89-13.89z" fill="#323c6b"/><path d="m37 3a14.32 14.32 0 0 0 -9.413 3.522 14.307 14.307 0 0 1 6.413-1.522 14.39 14.39 0 0 1 14.39 14.39v19.2a14.345 14.345 0 0 1 -4.977 10.868 14.377 14.377 0 0 0 7.977-12.87v-19.198a14.39 14.39 0 0 0 -14.39-14.39z" fill="#9a9eaf"/><g fill="#323c6b"><path d="m53.256 54.878a.5.5 0 0 1 -.34-.867 23.552 23.552 0 0 0 4.592-5.846.5.5 0 0 1 .874.486 24.558 24.558 0 0 1 -4.782 6.094.5.5 0 0 1 -.344.133z"/><path d="m59.254 46.151a.494.494 0 0 1 -.185-.036.5.5 0 0 1 -.279-.649q.154-.387.295-.78a.5.5 0 1 1 .941.337q-.146.409-.308.813a.5.5 0 0 1 -.464.315z"/><path d="m37 58.257a21.469 21.469 0 0 1 -21.444-21.445h1a20.444 20.444 0 1 0 40.889 0h1a21.469 21.469 0 0 1 -21.445 21.445z"/><path d="m36.5 57.757h1v13.243h-1z"/><path d="m26.418 70.5h21.164v1h-21.164z"/><path d="m28.799 12.94h16.401v1h-16.401z"/><path d="m28.799 20.47h16.401v1h-16.401z"/><path d="m28.799 28h16.401v1h-16.401z"/><path d="m37 51.478a14.907 14.907 0 0 1 -14.89-14.89v-19.198a14.89 14.89 0 0 1 29.78 0v19.2a14.907 14.907 0 0 1 -14.89 14.888zm0-47.978a13.906 13.906 0 0 0 -13.89 13.89v19.2a13.89 13.89 0 0 0 27.78 0v-19.2a13.906 13.906 0 0 0 -13.89-13.89z"/></g><g fill="#eeefee"><path d="m26.975 39.932c-.018.012-.036.024-.053.038a.94.94 0 0 0 -.2 1.228 3.987 3.987 0 0 0 .5.694.747.747 0 0 0 1.129.073.943.943 0 0 0 .075-1.243 2.738 2.738 0 0 1 -.388-.543.753.753 0 0 0 -1.063-.247z"/><path d="m29.6 42.792a.819.819 0 0 0 -.228.2.941.941 0 0 0 .057 1.243 11.6 11.6 0 0 0 9.45 3.26.84.84 0 0 0 .849-.829.848.848 0 0 0 -.746-.929 10.181 10.181 0 0 1 -8.48-2.817.743.743 0 0 0 -.902-.128z"/></g></g></svg>