<?xml version="1.0"?>
<svg xmlns="http://www.w3.org/2000/svg" viewBox="0 0 74 74" width="512" height="512"><g id="Numbers"><text transform="translate(31.995 -1010.544)" font-size="18" fill="red" font-family="ArialMT, Arial">5<tspan x="-5.005" y="124">15</tspan><tspan x="-5.005" y="248">25</tspan><tspan x="-5.005" y="372">35</tspan><tspan x="-5.005" y="496">45</tspan><tspan x="-5.005" y="620">55</tspan><tspan x="-5.005" y="744">65</tspan><tspan x="-5.005" y="868">75</tspan><tspan x="-5.005" y="992">85</tspan><tspan x="-5.005" y="1116">95</tspan><tspan x="-10.011" y="1240">105</tspan><tspan x="-9.343" y="1364" letter-spacing="-0.074em">1</tspan><tspan x="-0.668" y="1364">15</tspan><tspan x="-10.011" y="1488">125</tspan><tspan x="-10.011" y="1612">135</tspan><tspan x="-10.011" y="1736">145</tspan><tspan x="-10.011" y="1860">155</tspan><tspan x="-10.011" y="1984">165</tspan><tspan x="-10.011" y="2108">175</tspan><tspan x="-10.011" y="2232">185</tspan><tspan x="-10.011" y="2356">195</tspan><tspan x="-10.011" y="2480">205</tspan><tspan x="-10.011" y="2604">215</tspan><tspan x="-10.011" y="2728">225</tspan><tspan x="-10.011" y="2852">235</tspan><tspan x="-10.011" y="2976">245</tspan><tspan x="-10.011" y="3100">255</tspan><tspan x="-10.011" y="3224">265</tspan><tspan x="-10.011" y="3348">275</tspan><tspan x="-10.011" y="3472">285</tspan><tspan x="-10.011" y="3596">295</tspan></text></g><g id="color_styel" data-name="color styel"><path d="M24.667,74.5H12.625a.5.5,0,0,1,0-1H24.667a.5.5,0,0,1,0,1Z" fill="#323c6b"/><path d="M30.361,74.5H29.114a.5.5,0,1,1,0-1h1.247a.5.5,0,1,1,0,1Z" fill="#323c6b"/><path d="M71,19V69a2.006,2.006,0,0,1-2,2H5a2.006,2.006,0,0,1-2-2V19Z" fill="#eeefee"/><path d="M69,71.5H5A2.5,2.5,0,0,1,2.5,69V19a.5.5,0,0,1,.5-.5H71a.5.5,0,0,1,.5.5V69A2.5,2.5,0,0,1,69,71.5ZM3.5,19.5V69A1.5,1.5,0,0,0,5,70.5H69A1.5,1.5,0,0,0,70.5,69V19.5Z" fill="#323c6b"/><path d="M69,19V69a2.006,2.006,0,0,1-2,2h2a2.006,2.006,0,0,0,2-2V19Z" fill="#dbd8dd"/><path d="M74,5.5a.5.5,0,0,1-.5-.5A4.5,4.5,0,0,0,69,.5a.5.5,0,0,1-.5-.5A.5.5,0,0,1,69-.5,5.506,5.506,0,0,1,74.5,5,.5.5,0,0,1,74,5.5Z" fill="#323c6b"/><path d="M71,5V19H3V5A2.006,2.006,0,0,1,5,3H69A2.006,2.006,0,0,1,71,5Z" fill="#9a9eaf"/><path d="M71,19.5H3a.5.5,0,0,1-.5-.5V5A2.5,2.5,0,0,1,5,2.5H69A2.5,2.5,0,0,1,71.5,5V19A.5.5,0,0,1,71,19.5Zm-67.5-1h67V5A1.5,1.5,0,0,0,69,3.5H5A1.5,1.5,0,0,0,3.5,5Z" fill="#323c6b"/><path d="M69,3H67a2.006,2.006,0,0,1,2,2V19h2V5A2.006,2.006,0,0,0,69,3Z" fill="#828a9e"/><circle cx="63" cy="11" r="3" fill="#ef5261"/><path d="M63,14.5A3.5,3.5,0,1,1,66.5,11,3.5,3.5,0,0,1,63,14.5Zm0-6A2.5,2.5,0,1,0,65.5,11,2.5,2.5,0,0,0,63,8.5Z" fill="#323c6b"/><circle cx="52" cy="11" r="3" fill="#fad641"/><path d="M52,14.5A3.5,3.5,0,1,1,55.5,11,3.5,3.5,0,0,1,52,14.5Zm0-6A2.5,2.5,0,1,0,54.5,11,2.5,2.5,0,0,0,52,8.5Z" fill="#323c6b"/><circle cx="41" cy="11" r="3" fill="#69b0ee"/><path d="M41,14.5A3.5,3.5,0,1,1,44.5,11,3.5,3.5,0,0,1,41,14.5Zm0-6A2.5,2.5,0,1,0,43.5,11,2.5,2.5,0,0,0,41,8.5Z" fill="#323c6b"/><path d="M69,71.5H5A2.5,2.5,0,0,1,2.5,69V19a.5.5,0,0,1,.5-.5H71a.5.5,0,0,1,.5.5V69A2.5,2.5,0,0,1,69,71.5ZM3.5,19.5V69A1.5,1.5,0,0,0,5,70.5H69A1.5,1.5,0,0,0,70.5,69V19.5Z" fill="#323c6b"/><path d="M71,19.5H3a.5.5,0,0,1-.5-.5V5A2.5,2.5,0,0,1,5,2.5H69A2.5,2.5,0,0,1,71.5,5V19A.5.5,0,0,1,71,19.5Zm-67.5-1h67V5A1.5,1.5,0,0,0,69,3.5H5A1.5,1.5,0,0,0,3.5,5Z" fill="#323c6b"/><path d="M51.084,48.211A14.155,14.155,0,0,1,49.226,52.7l2.633,4.373-2.791,2.791L44.7,57.226a14.156,14.156,0,0,1-4.485,1.858L38.97,64.042H35.03l-1.241-4.957A14.156,14.156,0,0,1,29.3,57.226l-4.373,2.633-2.791-2.791L24.774,52.7a14.155,14.155,0,0,1-1.858-4.485L17.958,46.97V43.03l4.957-1.241A14.155,14.155,0,0,1,24.774,37.3l-2.633-4.373,2.791-2.791L29.3,32.774a14.155,14.155,0,0,1,4.485-1.858l1.241-4.957h3.94l1.241,4.957A14.155,14.155,0,0,1,44.7,32.774l4.373-2.633,2.791,2.791L49.226,37.3a14.155,14.155,0,0,1,1.858,4.485l4.957,1.241v3.94Z" fill="#9a9eaf"/><path d="M38.97,64.542H35.03a.5.5,0,0,1-.485-.378L33.378,59.5A14.619,14.619,0,0,1,29.3,57.812l-4.112,2.475a.5.5,0,0,1-.611-.075l-2.791-2.791a.5.5,0,0,1-.075-.611L24.188,52.7A14.619,14.619,0,0,1,22.5,48.622l-4.662-1.167a.5.5,0,0,1-.378-.485V43.03a.5.5,0,0,1,.378-.485L22.5,41.378A14.619,14.619,0,0,1,24.188,37.3l-2.475-4.112a.5.5,0,0,1,.075-.611l2.791-2.791a.5.5,0,0,1,.611-.075L29.3,32.188A14.619,14.619,0,0,1,33.378,30.5l1.167-4.662a.5.5,0,0,1,.485-.378H38.97a.5.5,0,0,1,.485.378L40.622,30.5A14.619,14.619,0,0,1,44.7,32.188l4.112-2.475a.5.5,0,0,1,.611.075l2.791,2.791a.5.5,0,0,1,.075.611L49.812,37.3A14.619,14.619,0,0,1,51.5,41.378l4.662,1.167a.5.5,0,0,1,.378.485V46.97a.5.5,0,0,1-.378.485L51.5,48.622A14.619,14.619,0,0,1,49.812,52.7l2.475,4.112a.5.5,0,0,1-.075.611l-2.791,2.791a.5.5,0,0,1-.611.075L44.7,57.812A14.619,14.619,0,0,1,40.622,59.5l-1.167,4.662A.5.5,0,0,1,38.97,64.542Zm-3.549-1H38.58l1.146-4.579A.5.5,0,0,1,40.1,58.6,13.633,13.633,0,0,0,44.428,56.8a.5.5,0,0,1,.525-.006l4.038,2.431,2.238-2.238L48.8,52.953a.5.5,0,0,1,.006-.525A13.633,13.633,0,0,0,50.6,48.1a.5.5,0,0,1,.366-.375l4.579-1.146V43.42l-4.579-1.146A.5.5,0,0,1,50.6,41.9,13.633,13.633,0,0,0,48.8,37.572a.5.5,0,0,1-.006-.525l2.431-4.038-2.238-2.238L44.953,33.2a.5.5,0,0,1-.525-.006A13.633,13.633,0,0,0,40.1,31.4a.5.5,0,0,1-.375-.366L38.58,26.458H35.42l-1.146,4.579a.5.5,0,0,1-.375.366A13.633,13.633,0,0,0,29.572,33.2a.5.5,0,0,1-.525.006l-4.038-2.431-2.238,2.238L25.2,37.047a.5.5,0,0,1-.006.525A13.633,13.633,0,0,0,23.4,41.9a.5.5,0,0,1-.366.375L18.458,43.42V46.58l4.579,1.146a.5.5,0,0,1,.366.375A13.633,13.633,0,0,0,25.2,52.428a.5.5,0,0,1,.006.525l-2.431,4.038,2.238,2.238L29.047,56.8a.5.5,0,0,1,.525.006A13.633,13.633,0,0,0,33.9,58.6a.5.5,0,0,1,.375.366Z" fill="#323c6b"/><path d="M27.624,32.774c.279-.176.568-.337.859-.494l-3.552-2.139-.631.631Z" fill="#828a9e"/><path d="M43.765,32.241l.072.038a14.1,14.1,0,0,0-3.625-1.364L38.97,25.958H37.29l1.241,4.957C40.146,31.277,42.405,31.381,43.765,32.241Z" fill="#828a9e"/><path d="M56.042,46.97V43.03l-4.957-1.241A14.155,14.155,0,0,0,49.226,37.3l2.633-4.373-2.791-2.791-1.049.631,2.159,2.159L47.546,37.3A14.155,14.155,0,0,1,49.4,41.789l4.957,1.241v3.94L49.4,48.211A14.156,14.156,0,0,1,47.546,52.7l2.633,4.373L48.02,59.228l1.049.631,2.791-2.791L49.226,52.7a14.156,14.156,0,0,0,1.858-4.485Z" fill="#828a9e"/><path d="M27.624,57.226l-3.324,2,.631.631,3.552-2.139C28.192,57.563,27.9,57.4,27.624,57.226Z" fill="#828a9e"/><path d="M43.494,57.624c-1.359.86-3.348,1.1-4.963,1.46L37.29,64.042h1.68l1.241-4.957a14.1,14.1,0,0,0,3.625-1.364Z" fill="#828a9e"/><circle cx="37" cy="45" r="8.536" fill="#fff"/><path d="M37,54.036A9.036,9.036,0,1,1,46.036,45,9.047,9.047,0,0,1,37,54.036Zm0-17.072A8.036,8.036,0,1,0,45.036,45,8.045,8.045,0,0,0,37,36.964Z" fill="#323c6b"/><path d="M38.97,64.542H35.03a.5.5,0,0,1-.485-.378L33.378,59.5A14.619,14.619,0,0,1,29.3,57.812l-4.112,2.475a.5.5,0,0,1-.611-.075l-2.791-2.791a.5.5,0,0,1-.075-.611L24.188,52.7A14.619,14.619,0,0,1,22.5,48.622l-4.662-1.167a.5.5,0,0,1-.378-.485V43.03a.5.5,0,0,1,.378-.485L22.5,41.378A14.619,14.619,0,0,1,24.188,37.3l-2.475-4.112a.5.5,0,0,1,.075-.611l2.791-2.791a.5.5,0,0,1,.611-.075L29.3,32.188A14.619,14.619,0,0,1,33.378,30.5l1.167-4.662a.5.5,0,0,1,.485-.378H38.97a.5.5,0,0,1,.485.378L40.622,30.5A14.619,14.619,0,0,1,44.7,32.188l4.112-2.475a.5.5,0,0,1,.611.075l2.791,2.791a.5.5,0,0,1,.075.611L49.812,37.3A14.619,14.619,0,0,1,51.5,41.378l4.662,1.167a.5.5,0,0,1,.378.485V46.97a.5.5,0,0,1-.378.485L51.5,48.622A14.619,14.619,0,0,1,49.812,52.7l2.475,4.112a.5.5,0,0,1-.075.611l-2.791,2.791a.5.5,0,0,1-.611.075L44.7,57.812A14.619,14.619,0,0,1,40.622,59.5l-1.167,4.662A.5.5,0,0,1,38.97,64.542Zm-3.549-1H38.58l1.146-4.579A.5.5,0,0,1,40.1,58.6,13.633,13.633,0,0,0,44.428,56.8a.5.5,0,0,1,.525-.006l4.038,2.431,2.238-2.238L48.8,52.953a.5.5,0,0,1,.006-.525A13.633,13.633,0,0,0,50.6,48.1a.5.5,0,0,1,.366-.375l4.579-1.146V43.42l-4.579-1.146A.5.5,0,0,1,50.6,41.9,13.633,13.633,0,0,0,48.8,37.572a.5.5,0,0,1-.006-.525l2.431-4.038-2.238-2.238L44.953,33.2a.5.5,0,0,1-.525-.006A13.633,13.633,0,0,0,40.1,31.4a.5.5,0,0,1-.375-.366L38.58,26.458H35.42l-1.146,4.579a.5.5,0,0,1-.375.366A13.633,13.633,0,0,0,29.572,33.2a.5.5,0,0,1-.525.006l-4.038-2.431-2.238,2.238L25.2,37.047a.5.5,0,0,1-.006.525A13.633,13.633,0,0,0,23.4,41.9a.5.5,0,0,1-.366.375L18.458,43.42V46.58l4.579,1.146a.5.5,0,0,1,.366.375A13.633,13.633,0,0,0,25.2,52.428a.5.5,0,0,1,.006.525l-2.431,4.038,2.238,2.238L29.047,56.8a.5.5,0,0,1,.525.006A13.633,13.633,0,0,0,33.9,58.6a.5.5,0,0,1,.375.366Z" fill="#323c6b"/><path d="M31.143,35.28c-.009-.013-.018-.026-.028-.039a.689.689,0,0,0-.9-.148,2.921,2.921,0,0,0-.509.362.548.548,0,0,0-.056.827.691.691,0,0,0,.91.058,2.006,2.006,0,0,1,.4-.283A.552.552,0,0,0,31.143,35.28Z" fill="#828a9e"/><path d="M29.042,37.194a.6.6,0,0,0-.143-.168.69.69,0,0,0-.911.039,11.827,11.827,0,0,0-3.32,6.972.615.615,0,0,0,.605.624.622.622,0,0,0,.683-.545,10.892,10.892,0,0,1,2.993-6.262A.544.544,0,0,0,29.042,37.194Z" fill="#828a9e"/><path d="M16.509,5.983H15.362a.574.574,0,1,0,0,1.147h1.147a.574.574,0,1,0,0-1.147Z" fill="#dbd8dd"/><path d="M12.817,5.983h-6.1a.8.8,0,0,0-.8.8v3.935a.574.574,0,1,0,1.147,0V7.13h5.748a.574.574,0,1,0,0-1.147Z" fill="#dbd8dd"/><path d="M74,10.167a.5.5,0,0,1-.5-.5V8.636a.5.5,0,1,1,1,0V9.667A.5.5,0,0,1,74,10.167Z" fill="#323c6b"/></g></svg>
