<svg height="512" viewBox="0 0 74 74" width="512" xmlns="http://www.w3.org/2000/svg"><g id="Numbers"><text fill="#f00" font-family="ArialMT, Arial" font-size="18" transform="translate(31.995 -1010.544)">6<tspan x="-5.005" y="124">16</tspan><tspan x="-5.005" y="248">26</tspan><tspan x="-5.005" y="372">36</tspan><tspan x="-5.005" y="496">46</tspan><tspan x="-5.005" y="620">56</tspan><tspan x="-5.005" y="744">66</tspan><tspan x="-5.005" y="868">76</tspan><tspan x="-5.005" y="992">86</tspan><tspan x="-5.005" y="1116">96</tspan><tspan x="-10.011" y="1240">106</tspan><tspan letter-spacing="-.074em" x="-9.343" y="1364">1</tspan><tspan x="-.668" y="1364">16</tspan><tspan x="-10.011" y="1488">126</tspan><tspan x="-10.011" y="1612">136</tspan><tspan x="-10.011" y="1736">146</tspan><tspan x="-10.011" y="1860">156</tspan><tspan x="-10.011" y="1984">166</tspan><tspan x="-10.011" y="2108">176</tspan><tspan x="-10.011" y="2232">186</tspan><tspan x="-10.011" y="2356">196</tspan><tspan x="-10.011" y="2480">206</tspan><tspan x="-10.011" y="2604">216</tspan><tspan x="-10.011" y="2728">226</tspan><tspan x="-10.011" y="2852">236</tspan><tspan x="-10.011" y="2976">246</tspan><tspan x="-10.011" y="3100">256</tspan><tspan x="-10.011" y="3224">266</tspan><tspan x="-10.011" y="3348">276</tspan><tspan x="-10.011" y="3472">286</tspan><tspan x="-10.011" y="3596">296</tspan></text></g><g id="color_styel" data-name="color styel"><path d="m4.828 65.844a.5.5 0 0 1 -.2-.042 8.5 8.5 0 0 1 -5.128-7.802v-2.75a.5.5 0 0 1 .5-.5.5.5 0 0 1 .5.5v2.75a7.506 7.506 0 0 0 4.527 6.886.5.5 0 0 1 -.2.958z" fill="#323c6b"/><path d="m10.083 66.5h-1.083a.5.5 0 0 1 0-1h1.083a.5.5 0 0 1 0 1z" fill="#323c6b"/><path d="m12 37.92v7h2v18.08h-6a5 5 0 0 1 -5-5v-34.15a5 5 0 0 1 5-5h6v19.07z" fill="#f4bb87"/><path d="m14 63.5h-6a5.507 5.507 0 0 1 -5.5-5.5v-34.15a5.507 5.507 0 0 1 5.5-5.5h6a.5.5 0 0 1 .5.5v19.07a.5.5 0 0 1 -.5.5h-1.5v6h1.5a.5.5 0 0 1 .5.5v18.08a.5.5 0 0 1 -.5.5zm-6-44.15a4.5 4.5 0 0 0 -4.5 4.5v34.15a4.5 4.5 0 0 0 4.5 4.5h5.5v-17.08h-1.5a.5.5 0 0 1 -.5-.5v-7a.5.5 0 0 1 .5-.5h1.5v-18.07z" fill="#323c6b"/><path d="m52 37.92v7h2v18.08h-34v-18.08h2v-7h-2v-19.07h34v19.07z" fill="#f4bb87"/><g fill="#323c6b"><path d="m54 63.5h-34a.5.5 0 0 1 -.5-.5v-18.08a.5.5 0 0 1 .5-.5h1.5v-6h-1.5a.5.5 0 0 1 -.5-.5v-19.07a.5.5 0 0 1 .5-.5h34a.5.5 0 0 1 .5.5v19.07a.5.5 0 0 1 -.5.5h-1.5v6h1.5a.5.5 0 0 1 .5.5v18.08a.5.5 0 0 1 -.5.5zm-33.5-1h33v-17.08h-1.5a.5.5 0 0 1 -.5-.5v-7a.5.5 0 0 1 .5-.5h1.5v-18.07h-33v18.07h1.5a.5.5 0 0 1 .5.5v7a.5.5 0 0 1 -.5.5h-1.5z"/><path d="m74 39.42a.5.5 0 0 1 -.5-.5v-1.67a.5.5 0 0 1 1 0v1.67a.5.5 0 0 1 -.5.5z"/><path d="m74 34.333a.5.5 0 0 1 -.5-.5v-9.983a.5.5 0 0 1 1 0v9.983a.5.5 0 0 1 -.5.5z"/></g><path d="m71 23.85v34.15a5 5 0 0 1 -5 5h-6v-18.08h2v-7h-2v-19.07h6a5 5 0 0 1 5 5z" fill="#f4bb87"/><path d="m66 63.5h-6a.5.5 0 0 1 -.5-.5v-18.08a.5.5 0 0 1 .5-.5h1.5v-6h-1.5a.5.5 0 0 1 -.5-.5v-19.07a.5.5 0 0 1 .5-.5h6a5.507 5.507 0 0 1 5.5 5.5v34.15a5.507 5.507 0 0 1 -5.5 5.5zm-5.5-1h5.5a4.5 4.5 0 0 0 4.5-4.5v-34.15a4.5 4.5 0 0 0 -4.5-4.5h-5.5v18.07h1.5a.5.5 0 0 1 .5.5v7a.5.5 0 0 1 -.5.5h-1.5z" fill="#323c6b"/><path d="m66 18.85h-3a5 5 0 0 1 5 5v34.15a5 5 0 0 1 -5 5h3a5 5 0 0 0 5-5v-34.15a5 5 0 0 0 -5-5z" fill="#e6b17d"/><path d="m48 19.35h-22.15a.5.5 0 0 1 -.5-.5v-3.85a4.5 4.5 0 0 1 4.5-4.5h14.15a4.5 4.5 0 0 1 4.5 4.5v3.85a.5.5 0 0 1 -.5.5zm-21.65-1h21.15v-3.35a3.5 3.5 0 0 0 -3.5-3.5h-14.15a3.5 3.5 0 0 0 -3.5 3.5z" fill="#323c6b"/><path d="m54 44.92h6v18.08h-6z" fill="#eeefee"/><path d="m60 63.5h-6a.5.5 0 0 1 -.5-.5v-18.08a.5.5 0 0 1 .5-.5h6a.5.5 0 0 1 .5.5v18.08a.5.5 0 0 1 -.5.5zm-5.5-1h5v-17.08h-5z" fill="#323c6b"/><path d="m54 18.85h6v19.07h-6z" fill="#eeefee"/><path d="m60 38.42h-6a.5.5 0 0 1 -.5-.5v-19.07a.5.5 0 0 1 .5-.5h6a.5.5 0 0 1 .5.5v19.07a.5.5 0 0 1 -.5.5zm-5.5-1h5v-18.07h-5z" fill="#323c6b"/><path d="m14 44.92h6v18.08h-6z" fill="#eeefee"/><path d="m20 63.5h-6a.5.5 0 0 1 -.5-.5v-18.08a.5.5 0 0 1 .5-.5h6a.5.5 0 0 1 .5.5v18.08a.5.5 0 0 1 -.5.5zm-5.5-1h5v-17.08h-5z" fill="#323c6b"/><path d="m14 18.85h6v19.07h-6z" fill="#eeefee"/><path d="m20 38.42h-6a.5.5 0 0 1 -.5-.5v-19.07a.5.5 0 0 1 .5-.5h6a.5.5 0 0 1 .5.5v19.07a.5.5 0 0 1 -.5.5zm-5.5-1h5v-18.07h-5z" fill="#323c6b"/><path d="m60 38.42h-6a.5.5 0 0 1 -.5-.5v-19.07a.5.5 0 0 1 .5-.5h6a.5.5 0 0 1 .5.5v19.07a.5.5 0 0 1 -.5.5zm-5.5-1h5v-18.07h-5z" fill="#323c6b"/><path d="m52 37.92h10v7h-10z" fill="#dbd8dd"/><path d="m62 45.42h-10a.5.5 0 0 1 -.5-.5v-7a.5.5 0 0 1 .5-.5h10a.5.5 0 0 1 .5.5v7a.5.5 0 0 1 -.5.5zm-9.5-1h9v-6h-9z" fill="#323c6b"/><path d="m12 37.92h10v7h-10z" fill="#dbd8dd"/><path d="m22 45.42h-10a.5.5 0 0 1 -.5-.5v-7a.5.5 0 0 1 .5-.5h10a.5.5 0 0 1 .5.5v7a.5.5 0 0 1 -.5.5zm-9.5-1h9v-6h-9z" fill="#323c6b"/><path d="m66 63.5h-6a.5.5 0 0 1 -.5-.5v-18.08a.5.5 0 0 1 .5-.5h1.5v-6h-1.5a.5.5 0 0 1 -.5-.5v-19.07a.5.5 0 0 1 .5-.5h6a5.507 5.507 0 0 1 5.5 5.5v34.15a5.507 5.507 0 0 1 -5.5 5.5zm-5.5-1h5.5a4.5 4.5 0 0 0 4.5-4.5v-34.15a4.5 4.5 0 0 0 -4.5-4.5h-5.5v18.07h1.5a.5.5 0 0 1 .5.5v7a.5.5 0 0 1 -.5.5h-1.5z" fill="#323c6b"/><g fill="#eeefee"><rect height="10.923" rx=".741" width="1.481" x="5.479" y="26.997"/><rect height="1.878" rx=".741" width="1.481" x="5.479" y="23.42"/></g></g></svg>