<svg height="512" viewBox="0 0 74 74" width="512" xmlns="http://www.w3.org/2000/svg"><g id="Numbers"><text fill="#f00" font-family="ArialMT, Arial" font-size="18" transform="translate(31.994 -1010.544)">7<tspan x="-5.005" y="124">17</tspan><tspan x="-5.005" y="248">27</tspan><tspan x="-5.005" y="372">37</tspan><tspan x="-5.005" y="496">47</tspan><tspan x="-5.005" y="620">57</tspan><tspan x="-5.005" y="744">67</tspan><tspan x="-5.005" y="868">77</tspan><tspan x="-5.005" y="992">87</tspan><tspan x="-5.005" y="1116">97</tspan><tspan x="-10.011" y="1240">107</tspan><tspan letter-spacing="-.074em" x="-9.343" y="1364">1</tspan><tspan x="-.668" y="1364">17</tspan><tspan x="-10.011" y="1488">127</tspan><tspan x="-10.011" y="1612">137</tspan><tspan x="-10.011" y="1736">147</tspan><tspan x="-10.011" y="1860">157</tspan><tspan x="-10.011" y="1984">167</tspan><tspan x="-10.011" y="2108">177</tspan><tspan x="-10.011" y="2232">187</tspan><tspan x="-10.011" y="2356">197</tspan><tspan x="-10.011" y="2480">207</tspan><tspan x="-10.011" y="2604">217</tspan><tspan x="-10.011" y="2728">227</tspan><tspan x="-10.011" y="2852">237</tspan><tspan x="-10.011" y="2976">247</tspan><tspan x="-10.011" y="3100">257</tspan><tspan x="-10.011" y="3224">267</tspan><tspan x="-10.011" y="3348">277</tspan><tspan x="-10.011" y="3472">287</tspan><tspan x="-10.011" y="3596">297</tspan></text></g><g id="color_styel" data-name="color styel"><path d="m22.1 2.334a.5.5 0 0 1 -.307-.1 8.032 8.032 0 0 0 -.708-.491.5.5 0 1 1 .525-.856 8.937 8.937 0 0 1 .8.552.5.5 0 0 1 -.307.9z" fill="#323c6b"/><path d="m10.963 3.054a.5.5 0 0 1 -.354-.853 8.871 8.871 0 0 1 6.328-2.629 9.005 9.005 0 0 1 1.977.218.5.5 0 1 1 -.219.976 8.037 8.037 0 0 0 -1.758-.194 7.874 7.874 0 0 0 -5.619 2.335.5.5 0 0 1 -.355.147z" fill="#323c6b"/><path d="m28.77 20.35-1.87 1.88-15.68-15.68 1.87-1.88a5.438 5.438 0 0 1 7.7 0l7.98 7.98a5.438 5.438 0 0 1 0 7.7z" fill="#b1dcc1"/><path d="m26.9 22.73a.5.5 0 0 1 -.354-.146l-15.68-15.684a.5.5 0 0 1 0-.706l1.87-1.88a5.885 5.885 0 0 1 4.194-1.741h.007a5.909 5.909 0 0 1 4.207 1.744l7.979 7.98a5.938 5.938 0 0 1 0 8.407l-1.868 1.879a.5.5 0 0 1 -.354.147zm-14.974-16.181 14.974 14.973 1.515-1.522a4.936 4.936 0 0 0 0-6.992l-7.979-7.98a4.918 4.918 0 0 0 -3.5-1.451h-.006a4.893 4.893 0 0 0 -3.486 1.45z" fill="#323c6b"/><path d="m28.77 12.65-7.98-7.98a5.423 5.423 0 0 0 -5.353-1.361 5.394 5.394 0 0 1 2.353 1.361l7.98 7.98a5.438 5.438 0 0 1 0 7.7l-.374.376 1.5 1.5 1.87-1.88a5.438 5.438 0 0 0 .004-7.696z" fill="#9dceb2"/><path d="m27.279 60.377a.5.5 0 0 1 -.319-.116c-2.353-1.955-4.655-4.057-6.845-6.247a.5.5 0 0 1 .707-.707c2.168 2.169 4.448 4.25 6.776 6.186a.5.5 0 0 1 -.319.884z" fill="#323c6b"/><path d="m31.123 63.41a.5.5 0 0 1 -.3-.1q-.533-.4-1.064-.808a.5.5 0 1 1 .609-.792q.526.4 1.053.8a.5.5 0 0 1 -.3.9z" fill="#323c6b"/><path d="m67.59 62.91-6.12 6.12c-5.9 5.91-23.92-2.53-38.88-17.49-7.48-7.47-14.16-16.55-17.11-23.38-2.98-6.84-3.34-12.55-.38-15.5l6.12-6.11 15.68 15.68-1.08 1.08c-2.79 2.79.36 10.49 7.43 17.57s14.77 10.22 17.57 7.43l1.08-1.09z" fill="#b1dcc1"/><path d="m56 71.434c-2.941 0-6.593-.958-10.782-2.867-7.368-3.358-15.746-9.435-22.983-16.673-7.647-7.639-14.244-16.657-17.214-23.536-3.2-7.34-3.3-13.042-.274-16.052l6.119-6.106a.5.5 0 0 1 .707 0l15.681 15.68a.5.5 0 0 1 0 .707l-1.08 1.08c-2.6 2.6.736 10.161 7.43 16.863s14.259 10.027 16.864 7.43l1.077-1.088a.5.5 0 0 1 .354-.148.5.5 0 0 1 .354.146l15.689 15.69a.5.5 0 0 1 0 .707l-6.12 6.12a7.92 7.92 0 0 1 -5.822 2.047zm-44.78-64.177-5.767 5.757c-2.71 2.7-2.537 8.008.485 14.946 2.88 6.669 9.555 15.785 17 23.226 7.156 7.157 15.427 13.16 22.691 16.47 7.209 3.284 12.851 3.656 15.481 1.021l5.767-5.767-14.977-14.981-.727.733c-3.1 3.091-10.958-.108-18.279-7.429s-10.517-15.19-7.43-18.277l.727-.727z" fill="#323c6b"/><path d="m61.47 66.03c-5.9 5.91-23.92-2.53-38.88-17.49-7.48-7.47-14.16-16.55-17.11-23.38a28.128 28.128 0 0 1 -2.341-8.136c-.366 3 .471 6.845 2.341 11.136 2.95 6.83 9.63 15.91 17.11 23.38 14.96 14.96 32.98 23.4 38.88 17.49l6.12-6.12-1.5-1.5z" fill="#9dceb2"/><path d="m25 24.793a3.314 3.314 0 0 1 .823-1.483l1.08-1.08-1.449-1.449a5.311 5.311 0 0 0 -.454 4.012z" fill="#9dceb2"/><path d="m69.46 61.04-1.87 1.87-15.69-15.69 1.87-1.87a5.456 5.456 0 0 1 7.7 0l7.99 7.99a5.438 5.438 0 0 1 0 7.7z" fill="#b1dcc1"/><path d="m67.59 63.41a.5.5 0 0 1 -.354-.146l-15.689-15.69a.5.5 0 0 1 0-.707l1.869-1.867a5.961 5.961 0 0 1 8.407 0l7.99 7.99a5.952 5.952 0 0 1 0 8.407l-1.87 1.87a.5.5 0 0 1 -.353.143zm-14.983-16.19 14.983 14.98 1.517-1.517a4.951 4.951 0 0 0 0-6.993l-7.99-7.99a4.959 4.959 0 0 0 -6.994 0z" fill="#323c6b"/><path d="m69.46 53.34-7.99-7.99a5.424 5.424 0 0 0 -5.347-1.35 5.369 5.369 0 0 1 2.347 1.35l7.99 7.99a5.438 5.438 0 0 1 0 7.7l-.37.37 1.5 1.5 1.87-1.87a5.438 5.438 0 0 0 0-7.7z" fill="#9dceb2"/><g fill="#323c6b"><path d="m67.59 63.41a.5.5 0 0 1 -.354-.146l-15.689-15.69a.5.5 0 0 1 0-.707l1.869-1.867a5.961 5.961 0 0 1 8.407 0l7.99 7.99a5.952 5.952 0 0 1 0 8.407l-1.87 1.87a.5.5 0 0 1 -.353.143zm-14.983-16.19 14.983 14.98 1.517-1.517a4.951 4.951 0 0 0 0-6.993l-7.99-7.99a4.959 4.959 0 0 0 -6.994 0z"/><path d="m56 71.434c-2.941 0-6.593-.958-10.782-2.867-7.368-3.358-15.746-9.435-22.983-16.673-7.647-7.639-14.244-16.657-17.214-23.536-3.2-7.34-3.3-13.042-.274-16.052l6.119-6.106a.5.5 0 0 1 .707 0l15.681 15.68a.5.5 0 0 1 0 .707l-1.08 1.08c-2.6 2.6.736 10.161 7.43 16.863s14.259 10.027 16.864 7.43l1.077-1.088a.5.5 0 0 1 .354-.148.5.5 0 0 1 .354.146l15.689 15.69a.5.5 0 0 1 0 .707l-6.12 6.12a7.92 7.92 0 0 1 -5.822 2.047zm-44.78-64.177-5.767 5.757c-2.71 2.7-2.537 8.008.485 14.946 2.88 6.669 9.555 15.785 17 23.226 7.156 7.157 15.427 13.16 22.691 16.47 7.209 3.284 12.851 3.656 15.481 1.021l5.767-5.767-14.977-14.981-.727.733c-3.1 3.091-10.958-.108-18.279-7.429s-10.517-15.19-7.43-18.277l.727-.727z"/><path d="m26.9 22.73a.5.5 0 0 1 -.354-.146l-15.68-15.684a.5.5 0 0 1 0-.706l1.87-1.88a5.885 5.885 0 0 1 4.194-1.741h.007a5.909 5.909 0 0 1 4.207 1.744l7.979 7.98a5.938 5.938 0 0 1 0 8.407l-1.868 1.879a.5.5 0 0 1 -.354.147zm-14.974-16.181 14.974 14.973 1.515-1.522a4.936 4.936 0 0 0 0-6.992l-7.979-7.98a4.918 4.918 0 0 0 -3.5-1.451h-.006a4.893 4.893 0 0 0 -3.486 1.45z"/><path d="m10.866 6.903-.01-.009.707-.707z"/></g><path d="m53.965 7.85 9.979 7.195-9.979 7.196v-4.202h-15.967v-5.987h15.967z" fill="#b1dcc1"/><path d="m53.965 22.741a.5.5 0 0 1 -.5-.5v-3.7h-15.465a.5.5 0 0 1 -.5-.5v-5.989a.5.5 0 0 1 .5-.5h15.465v-3.702a.5.5 0 0 1 .792-.406l9.979 7.2a.5.5 0 0 1 0 .812l-9.979 7.2a.5.5 0 0 1 -.292.085zm-15.465-5.202h15.465a.5.5 0 0 1 .5.5v3.225l8.625-6.218-8.625-6.219v3.225a.5.5 0 0 1 -.5.5h-15.465z" fill="#323c6b"/><path d="m53.965 7.85v2.163l6.979 5.032-6.979 5.033v2.163l9.979-7.196z" fill="#9dceb2"/><path d="m47.977 23.817-9.979 7.195 9.979 7.196v-4.202h15.967v-5.987h-15.967z" fill="#69b0ee"/><path d="m47.978 38.708a.5.5 0 0 1 -.292-.094l-9.979-7.2a.5.5 0 0 1 0-.812l9.979-7.2a.5.5 0 0 1 .792.406v3.7h15.466a.5.5 0 0 1 .5.5v5.988a.5.5 0 0 1 -.5.5h-15.466v3.7a.5.5 0 0 1 -.5.5zm-9.125-7.7 8.625 6.218v-3.22a.5.5 0 0 1 .5-.5h15.466v-4.987h-15.466a.5.5 0 0 1 -.5-.5v-3.225z" fill="#323c6b"/><g fill="#419be9"><path d="m45.977 28.019h2v-4.202l-2 1.442z"/><path d="m45.977 36.766 2 1.442v-4.202h-2z"/><path d="m61.944 28.019h2v5.988h-2z"/></g><path d="m47.978 38.708a.5.5 0 0 1 -.292-.094l-9.979-7.2a.5.5 0 0 1 0-.812l9.979-7.2a.5.5 0 0 1 .792.406v3.7h15.466a.5.5 0 0 1 .5.5v5.988a.5.5 0 0 1 -.5.5h-15.466v3.7a.5.5 0 0 1 -.5.5zm-9.125-7.7 8.625 6.218v-3.22a.5.5 0 0 1 .5-.5h15.466v-4.987h-15.466a.5.5 0 0 1 -.5-.5v-3.225z" fill="#323c6b"/><path d="m53.965 22.741a.5.5 0 0 1 -.5-.5v-3.7h-15.465a.5.5 0 0 1 -.5-.5v-5.989a.5.5 0 0 1 .5-.5h15.465v-3.702a.5.5 0 0 1 .792-.406l9.979 7.2a.5.5 0 0 1 0 .812l-9.979 7.2a.5.5 0 0 1 -.292.085zm-15.465-5.202h15.465a.5.5 0 0 1 .5.5v3.225l8.625-6.218-8.625-6.219v3.225a.5.5 0 0 1 -.5.5h-15.465z" fill="#323c6b"/><path d="m9.549 14.569-.063-.015a.94.94 0 0 0 -1.054.66 3.987 3.987 0 0 0 -.2.83.747.747 0 0 0 .689.9.943.943 0 0 0 .984-.762 2.738 2.738 0 0 1 .153-.65.753.753 0 0 0 -.509-.963z" fill="#eeefee"/><path d="m9.123 18.425a.819.819 0 0 0 -.3-.043.941.941 0 0 0 -.9.861 16.141 16.141 0 0 0 2.889 10.135.84.84 0 0 0 1.188.093.848.848 0 0 0 .208-1.174 14.865 14.865 0 0 1 -2.583-9.113.743.743 0 0 0 -.502-.759z" fill="#eeefee"/></g></svg>