<?xml version="1.0"?>
<svg xmlns="http://www.w3.org/2000/svg" id="Layer_1" data-name="Layer 1" viewBox="0 0 512 512" width="512" height="512"><title>Big Data</title><path d="M191,357.485V332H151v25.485A5.3,5.3,0,0,1,145.371,363h40A5.3,5.3,0,0,0,191,357.485Z" style="fill:#d4e1f4"/><path d="M142,458.058V366.629c0-1.733,1.41-3.629,3.143-3.629h-40c-1.733,0-3.143,1.9-3.143,3.629v91.429A2.982,2.982,0,0,0,105.143,461h40A2.982,2.982,0,0,1,142,458.058Z" style="fill:#d4e1f4"/><path d="M191,216.686V192H151v24.686C151,220,148.685,223,145.371,223h40C188.685,223,191,220,191,216.686Z" style="fill:#d4e1f4"/><path d="M142,317.257V225.828A2.893,2.893,0,0,1,145.143,223h-40A2.893,2.893,0,0,0,102,225.828v91.429c0,1.733,1.41,2.743,3.143,2.743h40C143.41,320,142,318.99,142,317.257Z" style="fill:#d4e1f4"/><path d="M191,75.886V51H151V75.886C151,79.2,148.685,82,145.371,82h40C188.685,82,191,79.2,191,75.886Z" style="fill:#d4e1f4"/><path d="M142,176.457V85.028A3.051,3.051,0,0,1,145.143,82h-40A3.051,3.051,0,0,0,102,85.028v91.429A3.515,3.515,0,0,0,105.143,180h40A3.515,3.515,0,0,1,142,176.457Z" style="fill:#d4e1f4"/><path d="M273.371,342H181.943a6,6,0,1,0,0,12h91.428a6,6,0,0,0,0-12Z" style="fill:#0635c9"/><path d="M406.857,70H316V44.8a5.881,5.881,0,0,0-6.057-5.8H145.371C142.058,39,139,41.486,139,44.8V70H105.143A15.063,15.063,0,0,0,90,85.028v91.429C90,184.807,96.793,192,105.143,192H139v19H105.143A14.9,14.9,0,0,0,90,225.828v91.429A14.823,14.823,0,0,0,105.143,332H139v19H105.143C96.793,351,90,358.278,90,366.629v91.429A14.99,14.99,0,0,0,105.143,473H406.857A14.99,14.99,0,0,0,422,458.058V366.629c0-8.351-6.793-15.629-15.143-15.629H316V332h90.857A14.823,14.823,0,0,0,422,317.257V225.828A14.9,14.9,0,0,0,406.857,211H316V192h90.857c8.35,0,15.143-7.193,15.143-15.543V85.028A15.063,15.063,0,0,0,406.857,70ZM309.943,363h96.914c1.733,0,3.143,1.9,3.143,3.629v91.429A2.982,2.982,0,0,1,406.857,461H105.143A2.982,2.982,0,0,1,102,458.058V366.629c0-1.733,1.41-3.629,3.143-3.629h40.228A5.3,5.3,0,0,0,151,357.485V332H304v25.485C304,360.8,306.629,363,309.943,363Zm0-140h96.914A2.893,2.893,0,0,1,410,225.828v91.429c0,1.733-1.41,2.743-3.143,2.743H105.143c-1.733,0-3.143-1.01-3.143-2.743V225.828A2.893,2.893,0,0,1,105.143,223h40.228c3.314,0,5.629-3,5.629-6.314V192H304v24.686A6.228,6.228,0,0,0,309.943,223ZM410,176.457A3.515,3.515,0,0,1,406.857,180H105.143A3.515,3.515,0,0,1,102,176.457V85.028A3.051,3.051,0,0,1,105.143,82h40.228c3.314,0,5.629-2.8,5.629-6.114V51H304V75.886A6.05,6.05,0,0,0,309.943,82h96.914A3.051,3.051,0,0,1,410,85.028Z" style="fill:#0635c9"/><path d="M273.371,61H181.943a6,6,0,0,0,0,12h91.428a6,6,0,0,0,0-12Z" style="fill:#0635c9"/><path d="M273.371,202H181.943a6,6,0,1,0,0,12h91.428a6,6,0,0,0,0-12Z" style="fill:#0635c9"/><path d="M319.543,390.8a21.543,21.543,0,1,0,21.543,21.543A21.567,21.567,0,0,0,319.543,390.8Zm0,31.086a9.543,9.543,0,1,1,9.543-9.543A9.554,9.554,0,0,1,319.543,421.886Z" style="fill:#1ae5be"/><path d="M372.571,390.8a21.543,21.543,0,1,0,21.543,21.543A21.567,21.567,0,0,0,372.571,390.8Zm0,31.086a9.543,9.543,0,1,1,9.543-9.543A9.554,9.554,0,0,1,372.571,421.886Z" style="fill:#1ae5be"/><path d="M124,401.771a6,6,0,0,0-6,6v18.287a6,6,0,0,0,12,0V407.771A6,6,0,0,0,124,401.771Z" style="fill:#1ae5be"/><path d="M148,401.771a6,6,0,0,0-6,6v18.287a6,6,0,0,0,12,0V407.771A6,6,0,0,0,148,401.771Z" style="fill:#1ae5be"/><path d="M172,401.771a6,6,0,0,0-6,6v18.287a6,6,0,0,0,12,0V407.771A6,6,0,0,0,172,401.771Z" style="fill:#1ae5be"/><path d="M196,401.771a6,6,0,0,0-6,6v18.287a6,6,0,0,0,12,0V407.771A6,6,0,0,0,196,401.771Z" style="fill:#1ae5be"/><path d="M220,401.771a6,6,0,0,0-6,6v18.287a6,6,0,0,0,12,0V407.771A6,6,0,0,0,220,401.771Z" style="fill:#1ae5be"/><path d="M319.543,109.2a21.543,21.543,0,1,0,21.543,21.543A21.567,21.567,0,0,0,319.543,109.2Zm0,31.086a9.543,9.543,0,1,1,9.543-9.543A9.554,9.554,0,0,1,319.543,140.286Z" style="fill:#1ae5be"/><path d="M372.571,109.2a21.543,21.543,0,1,0,21.543,21.543A21.567,21.567,0,0,0,372.571,109.2Zm0,31.086a9.543,9.543,0,1,1,9.543-9.543A9.553,9.553,0,0,1,372.571,140.286Z" style="fill:#1ae5be"/><path d="M124,120.172a6,6,0,0,0-6,6v18.285a6,6,0,0,0,12,0V126.172A6,6,0,0,0,124,120.172Z" style="fill:#1ae5be"/><path d="M148,120.172a6,6,0,0,0-6,6v18.285a6,6,0,0,0,12,0V126.172A6,6,0,0,0,148,120.172Z" style="fill:#1ae5be"/><path d="M172,120.172a6,6,0,0,0-6,6v18.285a6,6,0,0,0,12,0V126.172A6,6,0,0,0,172,120.172Z" style="fill:#1ae5be"/><path d="M196,120.172a6,6,0,0,0-6,6v18.285a6,6,0,0,0,12,0V126.172A6,6,0,0,0,196,120.172Z" style="fill:#1ae5be"/><path d="M220,120.172a6,6,0,0,0-6,6v18.285a6,6,0,0,0,12,0V126.172A6,6,0,0,0,220,120.172Z" style="fill:#1ae5be"/><path d="M319.543,250a21.543,21.543,0,1,0,21.543,21.543A21.567,21.567,0,0,0,319.543,250Zm0,31.086a9.543,9.543,0,1,1,9.543-9.543A9.554,9.554,0,0,1,319.543,281.086Z" style="fill:#1ae5be"/><path d="M372.571,250a21.543,21.543,0,1,0,21.543,21.543A21.567,21.567,0,0,0,372.571,250Zm0,31.086a9.543,9.543,0,1,1,9.543-9.543A9.553,9.553,0,0,1,372.571,281.086Z" style="fill:#1ae5be"/><path d="M124,260.972a6,6,0,0,0-6,6v18.285a6,6,0,0,0,12,0V266.972A6,6,0,0,0,124,260.972Z" style="fill:#1ae5be"/><path d="M148,260.972a6,6,0,0,0-6,6v18.285a6,6,0,0,0,12,0V266.972A6,6,0,0,0,148,260.972Z" style="fill:#1ae5be"/><path d="M172,260.972a6,6,0,0,0-6,6v18.285a6,6,0,0,0,12,0V266.972A6,6,0,0,0,172,260.972Z" style="fill:#1ae5be"/><path d="M196,260.972a6,6,0,0,0-6,6v18.285a6,6,0,0,0,12,0V266.972A6,6,0,0,0,196,260.972Z" style="fill:#1ae5be"/><path d="M220,260.972a6,6,0,0,0-6,6v18.285a6,6,0,0,0,12,0V266.972A6,6,0,0,0,220,260.972Z" style="fill:#1ae5be"/></svg>
