<?xml version="1.0"?>
<svg xmlns="http://www.w3.org/2000/svg" id="Layer_1" data-name="Layer 1" viewBox="0 0 512 512" width="512" height="512"><title>Cloud Link</title><path d="M182,125.645a36.391,36.391,0,0,1,23.292-33.931,6.009,6.009,0,0,0,3.847-5.879c-.038-.841-.062-1.693-.062-2.542a53.318,53.318,0,0,1,38.241-51.069,53.222,53.222,0,0,0-68.241,51.069c0,.849.024,1.7.062,2.542a6.009,6.009,0,0,1-3.847,5.879A36.357,36.357,0,0,0,188.308,162h30A36.389,36.389,0,0,1,182,125.645Z" style="fill:#d4e1f4"/><path d="M68,458.988v-27.66c-1.489-.468-2.954-.95-4.363-1.46A75.831,75.831,0,0,1,48,422.358v36.63c0,9.358,28.952,22.952,74.125,22.952q5.065,0,10.015-.235C92.737,479.893,68,467.636,68,458.988Z" style="fill:#d4e1f4"/><path d="M68,403.75V376.471c-1.489-.468-2.954-.95-4.363-1.46A75.828,75.828,0,0,1,48,367.5v36.25c0,9.358,28.952,22.952,74.125,22.952q5.067,0,10.015-.236C92.737,424.655,68,412.4,68,403.75Z" style="fill:#d4e1f4"/><path d="M68,348.893V321.609c-1.488-.468-2.952-.949-4.36-1.459A75.884,75.884,0,0,1,48,312.638v36.255c0,9.358,28.952,22.952,74.125,22.952q5.065,0,10.015-.236C92.737,369.8,68,357.541,68,348.893Z" style="fill:#d4e1f4"/><path d="M68.5,294.036c0-8.647,24.624-20.9,64-22.716-3.239-.15-6.566-.237-10-.237-45.173,0-74,13.594-74,22.953s28.827,22.952,74,22.952c3.434,0,6.761-.088,10-.237C93.124,314.937,68.5,302.683,68.5,294.036Z" style="fill:#d4e1f4"/><path d="M335,458.988v-27.66c-1.489-.468-2.954-.95-4.363-1.46A75.831,75.831,0,0,1,315,422.358v36.63c0,9.358,28.952,22.952,74.125,22.952q5.066,0,10.015-.235C359.737,479.893,335,467.636,335,458.988Z" style="fill:#d4e1f4"/><path d="M335,403.75V376.471c-1.489-.468-2.954-.95-4.363-1.46A75.828,75.828,0,0,1,315,367.5v36.25c0,9.358,28.952,22.952,74.125,22.952q5.067,0,10.015-.236C359.737,424.655,335,412.4,335,403.75Z" style="fill:#d4e1f4"/><path d="M335,348.893V321.609c-1.488-.468-2.952-.949-4.36-1.459A75.884,75.884,0,0,1,315,312.638v36.255c0,9.358,28.952,22.952,74.125,22.952q5.066,0,10.015-.236C359.737,369.8,335,357.541,335,348.893Z" style="fill:#d4e1f4"/><path d="M335.5,294.036c0-8.647,24.624-20.9,64-22.716-3.239-.15-6.566-.237-10-.237-45.173,0-74,13.594-74,22.953s28.827,22.952,74,22.952c3.434,0,6.761-.088,10-.237C360.124,314.937,335.5,302.683,335.5,294.036Z" style="fill:#d4e1f4"/><path d="M386,218H262V174h61.692a48.357,48.357,0,0,0,14.029-94.62,48.34,48.34,0,0,0-57.923-40.8A65.229,65.229,0,0,0,167.086,82.2,48.368,48.368,0,0,0,188.308,174H250v44H126c-3.313,0-6,2.2-6,5.512V266h12V230H380v36h12V223.512C392,220.2,389.313,218,386,218ZM152,125.645a36.391,36.391,0,0,1,23.292-33.931,6.009,6.009,0,0,0,3.847-5.879c-.038-.841-.062-1.693-.062-2.542A53.229,53.229,0,0,1,273.136,49.14a6,6,0,0,0,6.328,1.9,36.3,36.3,0,0,1,46.652,33.334,6,6,0,0,0,4.809,5.647A36.363,36.363,0,0,1,323.692,162H188.308A36.389,36.389,0,0,1,152,125.645Z" style="fill:#0635c9"/><path d="M447.86,267.921c-15.748-5.7-36.438-8.838-58.485-8.838s-43.05,3.139-58.8,8.838C307.939,276.114,303,286.645,303,294.036V458.988c0,7.394,5,17.928,27.637,26.118,15.744,5.7,36.685,8.834,58.738,8.834s42.682-3.137,58.426-8.834c22.636-8.19,27.2-18.724,27.2-26.118V294.036C475,286.645,470.5,276.114,447.86,267.921ZM463,402.607v1.143c0,3.766-4.865,9.64-19.22,14.834-14.468,5.235-33.959,8.118-54.655,8.118C343.952,426.7,315,413.108,315,403.75V367.5a75.828,75.828,0,0,0,15.637,7.511c15.744,5.7,36.685,8.834,58.738,8.834s42.682-3.137,58.426-8.834c6.5-2.353,12.2-4.9,15.2-7.511Zm0-53.714c0,3.765-4.865,9.64-19.22,14.834-14.468,5.235-33.959,8.118-54.655,8.118-45.173,0-74.125-13.594-74.125-22.952V312.638a75.884,75.884,0,0,0,15.64,7.512c15.748,5.7,36.688,8.838,58.735,8.838s42.675-3.139,58.423-8.838c6.5-2.354,12.2-4.9,15.2-7.512Zm-73.5-77.81c45.173,0,74,13.594,74,22.953s-28.827,22.952-74,22.952-74-13.594-74-22.952S344.327,271.083,389.5,271.083Zm54.28,202.739c-14.468,5.235-33.959,8.118-54.655,8.118-45.173,0-74.125-13.594-74.125-22.952v-36.63a75.831,75.831,0,0,0,15.637,7.51c15.744,5.7,36.685,8.834,58.738,8.834s42.682-3.137,58.426-8.834c6.5-2.353,12.2-4.9,15.2-7.51v36.63C463,462.753,458.135,468.628,443.78,473.822Z" style="fill:#1ae5be"/><path d="M180.86,267.921c-15.748-5.7-36.438-8.838-58.485-8.838s-43.05,3.139-58.8,8.838C40.939,276.114,36,286.645,36,294.036V458.988c0,7.394,5,17.928,27.637,26.118,15.744,5.7,36.685,8.834,58.738,8.834s42.682-3.137,58.426-8.834c22.636-8.19,27.2-18.724,27.2-26.118V294.036C208,286.645,203.5,276.114,180.86,267.921ZM196,402.607v1.143c0,3.766-4.865,9.64-19.22,14.834-14.468,5.235-33.959,8.118-54.655,8.118C76.952,426.7,48,413.108,48,403.75V367.5a75.828,75.828,0,0,0,15.637,7.511c15.744,5.7,36.685,8.834,58.738,8.834s42.682-3.137,58.426-8.834c6.5-2.353,12.2-4.9,15.2-7.511Zm0-53.714c0,3.765-4.865,9.64-19.22,14.834-14.468,5.235-33.959,8.118-54.655,8.118C76.952,371.845,48,358.251,48,348.893V312.638a75.884,75.884,0,0,0,15.64,7.512c15.748,5.7,36.688,8.838,58.735,8.838s42.675-3.139,58.423-8.838c6.5-2.354,12.2-4.9,15.2-7.512Zm-73.5-77.81c45.173,0,74,13.594,74,22.953s-28.827,22.952-74,22.952-74-13.594-74-22.952S77.327,271.083,122.5,271.083Zm54.28,202.739c-14.468,5.235-33.959,8.118-54.655,8.118C76.952,481.94,48,468.346,48,458.988v-36.63a75.831,75.831,0,0,0,15.637,7.51c15.744,5.7,36.685,8.834,58.738,8.834s42.682-3.137,58.426-8.834c6.5-2.353,12.2-4.9,15.2-7.51v36.63C196,462.753,191.135,468.628,176.78,473.822Z" style="fill:#1ae5be"/></svg>
