<?xml version="1.0"?>
<svg xmlns="http://www.w3.org/2000/svg" id="Layer_1" data-name="Layer 1" viewBox="0 0 512 512" width="512" height="512"><title>Database Checklist</title><path d="M392.465,367.658a6,6,0,0,0-8.423,1.017L360.329,398.9l-14.038-13.528a6,6,0,1,0-8.327,8.64l18.821,18.139a6,6,0,0,0,4.163,1.68c.139,0,.278-.005.416-.015a6,6,0,0,0,4.305-2.282l27.814-35.454A6,6,0,0,0,392.465,367.658Z" style="fill:#d4e1f4"/><path d="M135.476,110.3C110.071,101.1,95.5,89.168,95.5,77.554S110.071,54,135.476,44.81C160.81,35.641,193.894,30.256,229.5,29.4c-3.315-.079-6.645-.134-10-.134-39.388,0-76.331,5.52-104.024,15.542C90.071,54,75.5,65.938,75.5,77.554S90.071,101.1,115.476,110.3c27.693,10.023,64.636,15.542,104.024,15.542,3.355,0,6.685-.054,10-.134C193.894,124.852,160.81,119.466,135.476,110.3Z" style="fill:#d4e1f4"/><path d="M135.158,213.162C109.756,203.97,95,192.033,95,180.411V114.633a103.87,103.87,0,0,1-20-13.149v78.927c0,11.622,14.756,23.559,40.158,32.751,27.685,10.017,64.818,15.534,104.217,15.534,3.355,0,6.683-.054,10-.134C193.729,227.709,160.486,222.326,135.158,213.162Z" style="fill:#d4e1f4"/><path d="M135.212,419.59C109.811,410.4,95,398.461,95,386.839V320.357a103.81,103.81,0,0,1-20-13.15v79.632c0,11.622,14.811,23.56,40.212,32.751,27.686,10.018,64.873,15.535,104.272,15.535,3.351,0,6.674-.055,9.982-.134C193.82,434.137,160.537,428.754,135.212,419.59Z" style="fill:#d4e1f4"/><path d="M239.375,343.554c12.487,0,24.733-.541,36.625-1.6v-2.326a388.786,388.786,0,0,1-46.61,3.8C232.7,343.5,236.028,343.554,239.375,343.554Z" style="fill:#d4e1f4"/><path d="M135.22,316.019C109.818,306.828,95,294.89,95,283.268V217.5a103.9,103.9,0,0,1-20-13.15v78.918c0,11.622,14.818,23.56,40.22,32.751,27.686,10.018,64.881,15.535,104.28,15.535,3.353,0,6.678-.055,9.989-.135C193.839,330.566,160.547,325.183,135.22,316.019Z" style="fill:#d4e1f4"/><rect x="336" y="294" width="20" height="17" style="fill:#d4e1f4"/><path d="M308,464.478V326.76c0-9.131,7.157-16.29,16-17.544V309H306.755C296.689,309,288,316.7,288,326.76V464.478C288,474.543,296.689,483,306.755,483h20C316.689,483,308,474.543,308,464.478Z" style="fill:#d4e1f4"/><path d="M282.165,326.523a375.93,375.93,0,0,1-62.665,5.031c-39.4,0-76.594-5.517-104.28-15.535C89.818,306.828,75,294.89,75,283.268V204.35c9,7.6,20.459,14.422,36.137,20.1C140.1,234.925,178.619,240.7,219.375,240.7s78.964-5.771,107.925-16.251c15.678-5.673,27.7-12.5,35.7-20.095V289h12V77.554c0-17.215-16.758-32.851-47.642-44.028C298.389,23.042,260.12,17.268,219.375,17.268S140.049,23.042,111.08,33.526C80.2,44.7,63,60.339,63,77.554V386.839c0,17.223,17.257,32.861,48.137,44.035,28.962,10.48,67.482,16.251,108.238,16.251a389.448,389.448,0,0,0,64.055-5.084l-1.953-11.835a376.506,376.506,0,0,1-61.993,4.919c-39.4,0-76.586-5.517-104.272-15.535C89.811,410.4,75,398.461,75,386.839V307.207c9,7.6,20.459,14.423,36.137,20.1,28.962,10.479,67.482,16.251,108.238,16.251a388.737,388.737,0,0,0,64.736-5.2ZM323.28,213.162c-27.686,10.017-64.506,15.534-103.9,15.534s-76.532-5.517-104.217-15.534C89.756,203.97,75,192.033,75,180.411V101.484c9,7.6,20.462,14.422,36.142,20.1,28.969,10.484,67.488,16.258,108.233,16.258s78.951-5.774,107.92-16.258c15.681-5.675,27.7-12.5,35.7-20.1v78.927C363,192.033,348.682,203.97,323.28,213.162ZM115.476,44.81C143.169,34.788,180.112,29.268,219.5,29.268s76.331,5.52,104.024,15.542C348.929,54,363.5,65.938,363.5,77.554S348.929,101.1,323.524,110.3c-27.693,10.023-64.636,15.542-104.024,15.542S143.169,120.32,115.476,110.3C90.071,101.1,75.5,89.168,75.5,77.554S90.071,54,115.476,44.81Z" style="fill:#0635c9"/><path d="M261.281,174.936A396.236,396.236,0,0,1,219.5,177.1a386.883,386.883,0,0,1-52.2-3.433,6,6,0,0,0-1.626,11.89A398.988,398.988,0,0,0,219.5,189.1a408.212,408.212,0,0,0,43.052-2.235,6,6,0,0,0-1.271-11.932Z" style="fill:#0635c9"/><path d="M306.529,153.259a17.922,17.922,0,1,0,17.922,17.922A17.942,17.942,0,0,0,306.529,153.259Zm0,23.844a5.922,5.922,0,1,1,5.922-5.922A5.929,5.929,0,0,1,306.529,177.1Z" style="fill:#0635c9"/><path d="M261.281,276.271a396.547,396.547,0,0,1-41.781,2.167,386.828,386.828,0,0,1-52.2-3.433,6,6,0,0,0-1.626,11.89,398.923,398.923,0,0,0,53.83,3.543,408.235,408.235,0,0,0,43.051-2.235,6,6,0,0,0-1.27-11.932Z" style="fill:#0635c9"/><path d="M324.451,272.516a17.922,17.922,0,1,0-17.922,17.922A17.943,17.943,0,0,0,324.451,272.516Zm-23.844,0a5.922,5.922,0,1,1,5.922,5.922A5.929,5.929,0,0,1,300.607,272.516Z" style="fill:#0635c9"/><path d="M261.281,377.605a396.278,396.278,0,0,1-41.781,2.167,386.72,386.72,0,0,1-52.2-3.433,6,6,0,0,0-1.626,11.89,398.988,398.988,0,0,0,53.83,3.543,408.238,408.238,0,0,0,43.051-2.234,6,6,0,0,0-1.27-11.933Z" style="fill:#0635c9"/><path d="M418.245,297H401v-8.792c0-3.313-2.3-6.208-5.609-6.208H329.609C326.3,282,324,284.9,324,288.208V297H306.755C290.072,297,276,310.078,276,326.76V464.478C276,481.16,290.072,495,306.755,495h111.49C434.928,495,448,481.16,448,464.478V326.76A29.446,29.446,0,0,0,418.245,297ZM336,294h53v17H336ZM436,464.478C436,474.543,428.311,483,418.245,483H306.755C296.689,483,288,474.543,288,464.478V326.76C288,316.7,296.689,309,306.755,309H324v7.8c0,3.313,2.3,6.2,5.609,6.2h65.782c3.313,0,5.609-2.884,5.609-6.2V309h17.245A17.437,17.437,0,0,1,436,326.76Z" style="fill:#1ae5be"/><path d="M392.465,367.658a6,6,0,0,0-8.423,1.017L360.329,398.9l-14.038-13.528a6,6,0,1,0-8.327,8.64l18.821,18.139a6,6,0,0,0,4.163,1.68c.139,0,.278-.005.416-.015a6,6,0,0,0,4.305-2.282l27.814-35.454A6,6,0,0,0,392.465,367.658Z" style="fill:#1ae5be"/></svg>
