<?xml version="1.0"?>
<svg xmlns="http://www.w3.org/2000/svg" id="Layer_1" data-name="Layer 1" viewBox="0 0 512 512" width="512" height="512"><title>Database Cloud</title><path d="M100.41,64.175c0-18.588,45.329-39.15,112.114-41.869q-7.334-.3-15-.306C122.614,22,70.41,44.227,70.41,64.175s52.2,42.175,127.114,42.175q7.666,0,15-.306C145.739,103.324,100.41,82.762,100.41,64.175Z" style="fill:#d4e1f4"/><path d="M100,155.453v-52A106.12,106.12,0,0,1,70,86.927v68.526c0,19.948,52.59,42.175,127.5,42.175q7.662,0,15-.306C145.666,194.6,100,174.041,100,155.453Z" style="fill:#d4e1f4"/><path d="M100,246.731V194.739a106.045,106.045,0,0,1-30-16.526v68.518c0,19.949,52.4,42.175,127.307,42.175q7.514,0,14.922-.309C145.462,285.865,100,265.312,100,246.731Z" style="fill:#d4e1f4"/><path d="M227.422,300.906c10.879,0,21.618-.473,32.032-1.386q.445-2.143,1.028-4.233a329.918,329.918,0,0,1-48.128,5.31Q219.815,300.894,227.422,300.906Z" style="fill:#d4e1f4"/><path d="M100,338.644V286.017a106.045,106.045,0,0,1-30-16.526v69.153c0,19.948,52.4,42.174,127.307,42.174q7.508,0,14.888-.31C145.446,377.771,100,357.221,100,338.644Z" style="fill:#d4e1f4"/><path d="M274.41,352.577a34.456,34.456,0,0,1,10.028-24.394,33.98,33.98,0,0,1,11.929-7.756,6,6,0,0,0,3.847-5.873c-.036-.795-.059-1.6-.059-2.4a50.405,50.405,0,0,1,35.3-48.027,50.293,50.293,0,0,0-65.3,48.027c0,.8.023,1.605.059,2.4a6,6,0,0,1-3.847,5.873,33.98,33.98,0,0,0-11.929,7.756A34.5,34.5,0,0,0,278.637,387h30A34.434,34.434,0,0,1,274.41,352.577Z" style="fill:#d4e1f4"/><path d="M337,256V64.175c0-15.583-15.433-29.684-43.127-39.707C268.093,15.138,233.85,10,197.615,10S126.977,15.138,101.2,24.468C73.5,34.491,58,48.592,58,64.175V338.644c0,15.589,15.455,29.692,43.147,39.712,25.773,9.327,60.031,14.462,96.275,14.462a347.746,347.746,0,0,0,55.588-4.3l-1.9-11.844a337.6,337.6,0,0,1-53.8,4.14C122.4,380.818,70,358.592,70,338.644V269.491c8,6.4,17.864,12.147,31.147,16.953,25.773,9.327,60.031,14.462,96.275,14.462,26.909,0,52.992-2.854,75.33-8.254l-2.794-11.664c-21.429,5.18-46.677,7.918-72.651,7.918C122.4,288.906,70,266.68,70,246.731V178.213c8,6.4,17.864,12.147,31.147,16.953,25.773,9.326,60.031,14.462,96.275,14.462s70.631-5.136,96.405-14.462C307.11,190.36,317,184.612,325,178.213V256ZM197.524,22c74.911,0,127.115,22.227,127.115,42.175s-52.2,42.175-127.115,42.175S70.41,84.123,70.41,64.175,122.614,22,197.524,22ZM197.5,197.628C122.59,197.628,70,175.4,70,155.453V86.927c8,6.4,17.866,12.146,31.151,16.954,25.781,9.33,60.037,14.469,96.271,14.469s70.62-5.139,96.4-14.469C307.107,99.073,317,93.325,325,86.927v68.526C325,175.4,272.41,197.628,197.5,197.628Z" style="fill:#0635c9"/><path d="M234.53,149.923a351.14,351.14,0,0,1-37.006,1.919,342.748,342.748,0,0,1-46.235-3.04,6,6,0,1,0-1.625,11.889,354.661,354.661,0,0,0,47.86,3.151,362.882,362.882,0,0,0,38.278-1.987,6,6,0,0,0-1.272-11.932Z" style="fill:#0635c9"/><path d="M234.53,239.85a350.869,350.869,0,0,1-37.006,1.92,342.538,342.538,0,0,1-46.235-3.041,6,6,0,0,0-1.625,11.89,354.781,354.781,0,0,0,47.86,3.151,363.15,363.15,0,0,0,38.278-1.987,6,6,0,0,0-1.272-11.933Z" style="fill:#0635c9"/><path d="M234.53,329.778a351.14,351.14,0,0,1-37.006,1.919,342.748,342.748,0,0,1-46.235-3.04,6,6,0,1,0-1.625,11.889,354.661,354.661,0,0,0,47.86,3.151A362.882,362.882,0,0,0,235.8,341.71a6,6,0,0,0-1.272-11.932Z" style="fill:#0635c9"/><path d="M274.757,130.683a16.58,16.58,0,1,0,16.579,16.579A16.6,16.6,0,0,0,274.757,130.683Zm0,21.159a4.58,4.58,0,1,1,4.579-4.58A4.584,4.584,0,0,1,274.757,151.842Z" style="fill:#0635c9"/><path d="M258.177,237.19a16.58,16.58,0,1,0,16.58-16.58A16.6,16.6,0,0,0,258.177,237.19Zm21.159,0a4.58,4.58,0,1,1-4.579-4.58A4.585,4.585,0,0,1,279.336,237.19Z" style="fill:#0635c9"/><path d="M278.637,399H306v15H285.666A5.759,5.759,0,0,0,280,420.04v8.683a23.36,23.36,0,1,0,29.249,22.589A23.292,23.292,0,0,0,292,428.723V426h19.727A6.206,6.206,0,0,0,318,420.04V399h19v57.037a23.373,23.373,0,1,0,12,0V399h19v21.04a6.2,6.2,0,0,0,6.272,5.96H394v10.589a23.388,23.388,0,1,0,29.5,22.589A23.513,23.513,0,0,0,406,436.589V420.04a5.76,5.76,0,0,0-5.667-6.04H380V399h27.362a46.427,46.427,0,0,0,13.607-90.754,46.3,46.3,0,0,0-55.24-38.92,62.313,62.313,0,0,0-107.562,41.6,46.286,46.286,0,0,0-25.757,41.646A46.447,46.447,0,0,0,278.637,399Zm18.4,52.312a11.374,11.374,0,1,1-11.374-11.373A11.387,11.387,0,0,1,297.04,451.312Zm57.333,27.314A11.374,11.374,0,1,1,343,467.252,11.386,11.386,0,0,1,354.373,478.626Zm57.334-19.448a11.374,11.374,0,1,1-11.374-11.373A11.387,11.387,0,0,1,411.707,459.178ZM254.438,328.183a33.98,33.98,0,0,1,11.929-7.756,6,6,0,0,0,3.847-5.873c-.036-.795-.059-1.6-.059-2.4a50.315,50.315,0,0,1,88.911-32.283,6,6,0,0,0,6.329,1.9,34.22,34.22,0,0,1,43.978,31.423,6,6,0,0,0,4.809,5.647A34.453,34.453,0,0,1,407.362,387H278.637a34.5,34.5,0,0,1-24.2-58.817Z" style="fill:#1ae5be"/></svg>
