<?xml version="1.0"?>
<svg xmlns="http://www.w3.org/2000/svg" id="Layer_1" data-name="Layer 1" viewBox="0 0 512 512" width="512" height="512"><title>Database Computer</title><path d="M96,372.748V345H66v27.748C66,390.38,79.983,405,97.615,405h30C109.983,405,96,390.38,96,372.748Z" style="fill:#d4e1f4"/><path d="M127.615,109h-30A31.614,31.614,0,0,0,66,140.869V333H96V140.869A31.614,31.614,0,0,1,127.615,109Z" style="fill:#d4e1f4"/><path d="M182,56.048c0-6.751,9.469-14.208,25.331-19.948,15.884-5.749,36.421-9.247,58.642-10.058q-4.9-.182-9.973-.185c-26.032,0-50.419,3.638-68.669,10.243C171.469,41.84,162,49.3,162,56.048c0,14.251,40.2,30.19,94,30.19q5.061,0,10.027-.184C217.307,84.242,182,69.4,182,56.048Z" style="fill:#d4e1f4"/><path d="M182,124.619V86.787a78.937,78.937,0,0,1-20-10.416v48.248c0,14.251,40.2,30.191,94,30.191q5.063,0,10.029-.185C217.308,152.813,182,137.975,182,124.619Z" style="fill:#d4e1f4"/><path d="M182,193.19V155.358a78.937,78.937,0,0,1-20-10.416V193.19c0,14.251,40.2,30.191,94,30.191q5.063,0,10.029-.185C217.308,221.385,182,206.546,182,193.19Z" style="fill:#d4e1f4"/><path d="M182,262.238V223.929a78.9,78.9,0,0,1-20-10.416v48.725c0,14.251,40.2,30.191,94,30.191q5.063,0,10.029-.185C217.308,290.433,182,275.594,182,262.238Z" style="fill:#d4e1f4"/><path d="M414.385,97H356v12h58.385A31.614,31.614,0,0,1,446,140.869V333H66V140.869A31.614,31.614,0,0,1,97.615,109H155V97H97.615A43.627,43.627,0,0,0,54,140.869V372.748C54,397,73.367,417,97.615,417H250v69H177.554a6,6,0,1,0,0,12H338.988a6,6,0,1,0,0-12H262V417H414.385C438.633,417,458,397,458,372.748V140.869A43.627,43.627,0,0,0,414.385,97Zm0,308H97.615C79.983,405,66,390.38,66,372.748V345H446v27.748C446,390.38,432.017,405,414.385,405Z" style="fill:#0635c9"/><path d="M256,13.857c-51.386,0-106,14.788-106,42.191v206.19c0,27.4,54.614,42.191,106,42.191s106-14.787,106-42.191V56.048C362,28.645,307.386,13.857,256,13.857ZM187.331,36.1c18.25-6.6,42.637-10.243,68.669-10.243,53.8,0,94,15.94,94,30.191C350,62.8,340.531,70.256,324.669,76,306.419,82.6,282.032,86.238,256,86.238c-53.8,0-94-15.939-94-30.19C162,49.3,171.469,41.84,187.331,36.1ZM162,76.371c18.908,14.313,57.275,21.867,94,21.867s75.092-7.554,94-21.867v48.248c0,6.756-9.468,14.215-25.327,19.953-18.245,6.6-42.633,10.238-68.673,10.238-53.8,0-94-15.94-94-30.191Zm0,68.571c18.908,14.313,57.275,21.868,94,21.868s75.092-7.555,94-21.868V193.19c0,6.756-9.468,14.215-25.327,19.954-18.245,6.6-42.633,10.237-68.673,10.237-53.8,0-94-15.94-94-30.191V144.942ZM324.673,282.191c-18.245,6.6-42.633,10.238-68.673,10.238-53.8,0-94-15.94-94-30.191V213.513c18.908,14.313,57.275,21.868,94,21.868s75.092-7.555,94-21.868v48.725C350,268.994,340.532,276.453,324.673,282.191Z" style="fill:#1ae5be"/></svg>
