<?xml version="1.0"?>
<svg xmlns="http://www.w3.org/2000/svg" id="Layer_1" data-name="Layer 1" viewBox="0 0 512 512" width="512" height="512"><title>Database Connection</title><path d="M57.75,191.5A42.551,42.551,0,0,1,100.269,149h-20a42.5,42.5,0,1,0,0,85h20A42.551,42.551,0,0,1,57.75,191.5Z" style="fill:#d4e1f4"/><path d="M57.75,320.5A42.551,42.551,0,0,1,100.269,278h-20a42.5,42.5,0,1,0,0,85h20A42.551,42.551,0,0,1,57.75,320.5Z" style="fill:#d4e1f4"/><path d="M295.083,58.142a26.465,26.465,0,0,0-26.442,26.4A26.064,26.064,0,0,0,289,110.245V224.223A32.065,32.065,0,0,0,263.588,250H209v-4.465c27-2.836,48.81-25.967,48.81-54.122A54.542,54.542,0,0,0,203.231,137H80.269A54.4,54.4,0,0,0,75,245.535v20.93A54.4,54.4,0,0,0,80.269,375H203.231a54.542,54.542,0,0,0,54.579-54.414c0-28.154-21.81-51.285-48.81-54.121V262h54.588A31.424,31.424,0,0,0,289,287.214V401.191A26.065,26.065,0,0,0,268.641,426.9a26.421,26.421,0,0,0,52.122,6.1H362V421H320.812A26.257,26.257,0,0,0,301,401.191V287.214A31.972,31.972,0,0,0,326.528,262H359V250H326.629A32.2,32.2,0,0,0,301,224.223V110.245A25.975,25.975,0,0,0,320.681,91H362V79H320.894A26.442,26.442,0,0,0,295.083,58.142ZM87,266V246H197v20ZM37.75,191.5A42.551,42.551,0,0,1,80.269,149H203.231a42.5,42.5,0,1,1,0,85H80.269A42.551,42.551,0,0,1,37.75,191.5Zm208,129A42.551,42.551,0,0,1,203.231,363H80.269a42.5,42.5,0,1,1,0-85H203.231A42.551,42.551,0,0,1,245.75,320.5Zm63.733,106.4a14.4,14.4,0,1,1-14.4-14.4A14.416,14.416,0,0,1,309.483,426.9Zm5.667-171.177a20.067,20.067,0,1,1-20.067-20.068A20.089,20.089,0,0,1,315.15,255.719ZM295.083,98.941a14.4,14.4,0,1,1,14.4-14.4A14.416,14.416,0,0,1,295.083,98.941Z" style="fill:#0635c9"/><path d="M204.5,217.524a26.216,26.216,0,1,0-26.216-26.215A26.245,26.245,0,0,0,204.5,217.524Zm0-40.432a14.216,14.216,0,1,1-14.216,14.217A14.233,14.233,0,0,1,204.5,177.092Z" style="fill:#0635c9"/><path d="M89,203.438V179.179a6,6,0,1,0-12,0v24.259a6,6,0,0,0,12,0Z" style="fill:#0635c9"/><path d="M106,209.438a6,6,0,0,0,6-6V179.179a6,6,0,1,0-12,0v24.259A6,6,0,0,0,106,209.438Z" style="fill:#0635c9"/><path d="M130,209.438a6,6,0,0,0,6-6V179.179a6,6,0,1,0-12,0v24.259A6,6,0,0,0,130,209.438Z" style="fill:#0635c9"/><path d="M178.28,320.691A26.216,26.216,0,1,0,204.5,294.476,26.247,26.247,0,0,0,178.28,320.691ZM204.5,306.476a14.216,14.216,0,1,1-14.216,14.215A14.232,14.232,0,0,1,204.5,306.476Z" style="fill:#0635c9"/><path d="M83,302.562a6,6,0,0,0-6,6v24.259a6,6,0,0,0,12,0V308.562A6,6,0,0,0,83,302.562Z" style="fill:#0635c9"/><path d="M106,302.562a6,6,0,0,0-6,6v24.259a6,6,0,0,0,12,0V308.562A6,6,0,0,0,106,302.562Z" style="fill:#0635c9"/><path d="M130,302.562a6,6,0,0,0-6,6v24.259a6,6,0,0,0,12,0V308.562A6,6,0,0,0,130,302.562Z" style="fill:#0635c9"/><path d="M420.25,19a66,66,0,1,0,66,66A66.074,66.074,0,0,0,420.25,19Zm0,120a54,54,0,1,1,54-54A54.061,54.061,0,0,1,420.25,139Z" style="fill:#1ae5be"/><path d="M449.441,79H426V55.6a6,6,0,0,0-12,0V79H391.059a6,6,0,0,0,0,12H414v23.405a6,6,0,0,0,12,0V91h23.441a6,6,0,1,0,0-12Z" style="fill:#1ae5be"/><path d="M415.25,190a66,66,0,1,0,66,66A66.074,66.074,0,0,0,415.25,190Zm0,120a54,54,0,1,1,54-54A54.061,54.061,0,0,1,415.25,310Z" style="fill:#1ae5be"/><path d="M444.441,250H386.059a6,6,0,1,0,0,12h58.382a6,6,0,1,0,0-12Z" style="fill:#1ae5be"/><path d="M415.25,361a66,66,0,1,0,66,66A66.074,66.074,0,0,0,415.25,361Zm0,120a54,54,0,1,1,54-54A54.061,54.061,0,0,1,415.25,481Z" style="fill:#1ae5be"/><path d="M443.038,402.116,406,439.155l-18.537-18.536a6,6,0,0,0-8.485,8.486l22.779,22.779a6,6,0,0,0,8.485,0L451.523,410.6a6,6,0,0,0-8.485-8.487Z" style="fill:#1ae5be"/></svg>
