<?xml version="1.0"?>
<svg xmlns="http://www.w3.org/2000/svg" id="Layer_1" data-name="Layer 1" viewBox="0 0 512 512" width="512" height="512"><title>Database Flow</title><path d="M77,304.506v-47.67c-.391-.138-.8-.268-1.185-.408C63.67,252.033,54,246.8,47,240.966v63.54c0,18.559,48.871,39.238,119,39.238q7.677,0,15-.325C119,340.734,77,321.711,77,304.506Z" style="fill:#d4e1f4"/><path d="M77,218.792V171.114c-.39-.137-.794-.267-1.18-.406C63.673,166.311,54,161.074,47,155.244v63.548c0,18.559,48.871,39.238,119,39.238q7.677,0,15-.325C119,255.02,77,236,77,218.792Z" style="fill:#d4e1f4"/><path d="M77.5,133.078c0-17.2,42-36.229,104-38.914q-7.322-.317-15-.325c-70.129,0-119,20.68-119,39.239s48.871,39.237,119,39.237q7.677,0,15-.324C119.5,169.305,77.5,150.282,77.5,133.078Z" style="fill:#d4e1f4"/><path d="M77,390.815V342.55c-.391-.138-.8-.268-1.185-.408C63.67,337.747,54,332.511,47,326.681v64.134c0,18.56,48.871,39.239,119,39.239q7.677,0,15-.325C119,427.044,77,408.02,77,390.815Z" style="fill:#d4e1f4"/><path d="M202.625,211.525A342.7,342.7,0,0,1,166.5,213.4a334.477,334.477,0,0,1-45.135-2.967,6,6,0,1,0-1.627,11.889A346.443,346.443,0,0,0,166.5,225.4a354.7,354.7,0,0,0,37.4-1.94,6,6,0,0,0-1.271-11.933Z" style="fill:#0635c9"/><path d="M241.925,192.734a16.332,16.332,0,1,0,16.332,16.332A16.35,16.35,0,0,0,241.925,192.734Zm0,20.664a4.332,4.332,0,1,1,4.332-4.332A4.336,4.336,0,0,1,241.925,213.4Z" style="fill:#0635c9"/><path d="M202.625,299.349a342.7,342.7,0,0,1-36.125,1.873,334.425,334.425,0,0,1-45.136-2.968,6,6,0,0,0-1.625,11.89,346.5,346.5,0,0,0,46.761,3.078,354.7,354.7,0,0,0,37.4-1.941,6,6,0,1,0-1.271-11.932Z" style="fill:#0635c9"/><path d="M241.925,280.558a16.332,16.332,0,1,0,16.332,16.332A16.35,16.35,0,0,0,241.925,280.558Zm0,20.664a4.332,4.332,0,1,1,4.332-4.332A4.336,4.336,0,0,1,241.925,301.222Z" style="fill:#0635c9"/><path d="M202.625,387.172a342.511,342.511,0,0,1-36.125,1.874,334.54,334.54,0,0,1-45.135-2.968,6,6,0,1,0-1.627,11.889,346.5,346.5,0,0,0,46.762,3.079,354.515,354.515,0,0,0,37.4-1.942,6,6,0,1,0-1.271-11.932Z" style="fill:#0635c9"/><path d="M241.925,368.381a16.333,16.333,0,1,0,16.332,16.332A16.35,16.35,0,0,0,241.925,368.381Zm0,20.665a4.333,4.333,0,1,1,4.332-4.333A4.337,4.337,0,0,1,241.925,389.046Z" style="fill:#0635c9"/><path d="M425.207,102c2.716,11,13.022,19.973,25.293,19.973a26,26,0,1,0,0-51.993A25.488,25.488,0,0,0,425.207,90H346.5c-3.313,0-6.5,2.632-6.5,5.946V250H293.5a6,6,0,0,0,0,12H340V415.946c0,3.314,3.187,6.054,6.5,6.054h78.707c2.716,11,13.022,19.973,25.293,19.973a26,26,0,1,0,0-51.993A25.488,25.488,0,0,0,425.207,410H352V262h73.207c2.716,11,13.022,19.973,25.293,19.973a26,26,0,1,0,0-51.993A25.488,25.488,0,0,0,425.207,250H352V102ZM450.5,81.946a14,14,0,1,1-14,14A14.016,14.016,0,0,1,450.5,81.946Zm0,320a14,14,0,1,1-14,14A14.016,14.016,0,0,1,450.5,401.946Zm0-160a14,14,0,1,1-14,14A14.016,14.016,0,0,1,450.5,241.946Z" style="fill:#1ae5be"/><path d="M256.68,95.447c-24.247-8.775-56.238-13.608-90.3-13.608s-66.37,4.833-90.617,13.608C49.6,104.916,35,118.28,35,133.078V390.815c0,14.805,14.656,28.171,40.815,37.637,24.242,8.771,56.484,13.6,90.56,13.6s66.006-4.831,90.247-13.6C282.781,418.986,297,405.62,297,390.815V133.078C297,118.28,282.842,104.916,256.68,95.447ZM285,302.72v1.786c0,18.559-48.871,39.238-119,39.238S47,323.065,47,304.506v-63.54c7,5.83,16.67,11.067,28.815,15.462,24.242,8.771,56.484,13.6,90.56,13.6s66.006-4.831,90.247-13.6C268.768,252.033,279,246.8,285,240.966Zm0-83.928c0,18.559-48.871,39.238-119,39.238S47,237.351,47,218.792V155.244c7,5.83,16.673,11.067,28.82,15.464,24.247,8.774,56.488,13.607,90.555,13.607s66-4.833,90.242-13.607c12.148-4.4,22.383-9.634,28.383-15.464ZM166.5,93.839c70.129,0,119,20.68,119,39.239s-48.871,39.237-119,39.237-119-20.678-119-39.237S96.371,93.839,166.5,93.839ZM166,430.054c-70.129,0-119-20.679-119-39.239V326.681c7,5.83,16.67,11.066,28.815,15.461,24.242,8.772,56.484,13.6,90.56,13.6s66.006-4.83,90.247-13.6C268.768,337.747,279,332.511,285,326.681v64.134C285,409.375,236.129,430.054,166,430.054Z" style="fill:#0635c9"/></svg>
