<?xml version="1.0"?>
<svg xmlns="http://www.w3.org/2000/svg" id="Layer_1" data-name="Layer 1" viewBox="0 0 512 512" width="512" height="512"><title>Database Info</title><path d="M111.976,115.565C86.571,106.371,72,94.437,72,82.821s14.571-23.549,39.976-32.743C137.31,40.909,170.394,35.523,206,34.67c-3.316-.08-6.645-.134-10-.134-39.388,0-76.331,5.519-104.024,15.542C66.571,59.272,52,71.207,52,82.821s14.571,23.55,39.976,32.744c27.693,10.022,64.636,15.542,104.024,15.542,3.355,0,6.684-.055,10-.134C170.393,130.119,137.31,124.734,111.976,115.565Z" style="fill:#d4e1f4"/><path d="M111.97,218.43C86.568,209.238,72,197.3,72,185.679V120.1a84.224,84.224,0,0,1-20-13.352v78.927c0,11.622,14.568,23.559,39.97,32.751C119.656,228.447,156.6,233.964,196,233.964c3.355,0,6.685-.054,10-.134C170.384,232.977,137.3,227.594,111.97,218.43Z" style="fill:#d4e1f4"/><path d="M111.97,321.287C86.568,312.1,72,300.158,72,288.536V222.971a84.2,84.2,0,0,1-20-13.353v78.918c0,11.622,14.568,23.559,39.97,32.751C119.656,331.3,156.6,336.821,196,336.821q5.133,0,10.217-.128C170.518,335.857,137.349,330.47,111.97,321.287Z" style="fill:#d4e1f4"/><path d="M111.97,424.858C86.568,415.667,72,403.729,72,392.107V325.828a84.2,84.2,0,0,1-20-13.353v79.632c0,11.622,14.568,23.56,39.97,32.751C119.656,434.876,156.6,440.393,196,440.393q5.149,0,10.248-.127C170.537,439.432,137.357,434.044,111.97,424.858Z" style="fill:#d4e1f4"/><path d="M306.442,433.554a94.04,94.04,0,0,1,60.58-142.174c2.955-.606,5.953-1.065,8.973-1.384a94.018,94.018,0,0,0-89.553,143.558,94.042,94.042,0,0,0,89.564,43.377A93.547,93.547,0,0,1,306.442,433.554Z" style="fill:#d4e1f4"/><path d="M87.887,436.142c28.962,10.48,67.357,16.251,108.113,16.251,30.539,0,60.034-3.264,85.3-9.438a6,6,0,0,0-2.849-11.657c-24.344,5.95-52.854,9.095-82.448,9.095-39.4,0-76.344-5.517-104.03-15.535C66.568,415.667,52,403.729,52,392.107V312.475c8.116,7.6,20.209,14.422,35.887,20.095,28.962,10.48,67.357,16.251,108.113,16.251,30.264,0,59.535-3.209,84.649-9.279a6,6,0,0,0-2.819-11.665c-24.2,5.852-52.5,8.944-81.83,8.944-39.4,0-76.344-5.517-104.03-15.534C66.568,312.1,52,300.158,52,288.536V209.618c8.116,7.6,20.209,14.422,35.887,20.1,28.962,10.48,67.357,16.251,108.113,16.251s79.151-5.771,108.113-16.251c15.678-5.673,27.771-12.5,35.887-20.095V287h12V82.821c0-17.215-17.008-32.85-47.892-44.027C275.139,28.31,236.745,22.536,196,22.536S116.861,28.31,87.892,38.794C57.008,49.971,40,65.606,40,82.821V392.107C40,409.33,57.007,424.968,87.887,436.142ZM300.03,218.43C272.344,228.447,235.4,233.964,196,233.964s-76.344-5.517-104.03-15.534C66.568,209.238,52,197.3,52,185.679V106.752c8.117,7.6,20.212,14.422,35.892,20.1,28.969,10.484,67.363,16.258,108.108,16.258s79.139-5.774,108.108-16.258c15.68-5.675,27.775-12.5,35.892-20.1v78.927C340,197.3,325.432,209.238,300.03,218.43ZM91.976,50.078C119.669,40.055,156.612,34.536,196,34.536s76.331,5.519,104.024,15.542C325.429,59.272,340,71.207,340,82.821s-14.571,23.55-39.976,32.744C272.331,125.587,235.388,131.107,196,131.107s-76.331-5.52-104.024-15.542C66.571,106.371,52,94.437,52,82.821S66.571,59.272,91.976,50.078Z" style="fill:#0635c9"/><path d="M237.781,180.2A396.278,396.278,0,0,1,196,182.371a386.883,386.883,0,0,1-52.2-3.433,6,6,0,0,0-1.626,11.889A398.985,398.985,0,0,0,196,194.371a408.235,408.235,0,0,0,43.051-2.235,6,6,0,0,0-1.27-11.932Z" style="fill:#0635c9"/><path d="M283.029,158.527a17.922,17.922,0,1,0,17.922,17.922A17.942,17.942,0,0,0,283.029,158.527Zm0,23.844a5.922,5.922,0,1,1,5.922-5.922A5.929,5.929,0,0,1,283.029,182.371Z" style="fill:#0635c9"/><path d="M237.781,281.539A396.278,396.278,0,0,1,196,283.706a386.717,386.717,0,0,1-52.2-3.434,6,6,0,0,0-1.626,11.89A398.985,398.985,0,0,0,196,295.706a408.235,408.235,0,0,0,43.051-2.235,6,6,0,0,0-1.27-11.932Z" style="fill:#0635c9"/><path d="M265.107,277.784a17.922,17.922,0,1,0,17.922-17.922A17.942,17.942,0,0,0,265.107,277.784Zm23.844,0a5.922,5.922,0,1,1-5.922-5.922A5.929,5.929,0,0,1,288.951,277.784Z" style="fill:#0635c9"/><path d="M237.781,382.873A395.965,395.965,0,0,1,196,385.041a386.717,386.717,0,0,1-52.2-3.434,6,6,0,0,0-1.626,11.89A398.985,398.985,0,0,0,196,397.041a408.212,408.212,0,0,0,43.052-2.235,6,6,0,0,0-1.271-11.933Z" style="fill:#0635c9"/><path d="M472,383.464a106.01,106.01,0,1,0-106,106A106.12,106.12,0,0,0,472,383.464Zm-106,94A94.011,94.011,0,0,1,347.022,291.38,94.009,94.009,0,1,1,366,477.464Z" style="fill:#1ae5be"/><path d="M366,338.158a6,6,0,0,0-6,6v46.613a6,6,0,0,0,12,0V344.158A6,6,0,0,0,366,338.158Z" style="fill:#1ae5be"/><path d="M366,410.158a6,6,0,0,0-6,6v6.613a6,6,0,0,0,12,0v-6.613A6,6,0,0,0,366,410.158Z" style="fill:#1ae5be"/></svg>
