<?xml version="1.0"?>
<svg xmlns="http://www.w3.org/2000/svg" id="Layer_1" data-name="Layer 1" viewBox="0 0 512 512" width="512" height="512"><title>Database Link</title><path d="M200.256,232.65C182.563,226.248,172,217.832,172,210.137V166.919A79.676,79.676,0,0,1,152,155.9v54.239c0,7.695,10.563,16.111,28.256,22.513,20.133,7.285,47.032,11.3,75.744,11.3q5.043,0,10-.169C241.084,242.957,218.031,239.082,200.256,232.65Z" style="fill:#d4e1f4"/><path d="M200.256,157.221C182.563,150.819,172,142.4,172,134.708V91.49a79.675,79.675,0,0,1-20-11.02v54.238c0,7.695,10.563,16.111,28.256,22.513,20.133,7.285,47.032,11.3,75.744,11.3q5.043,0,10-.169C241.084,167.529,218.031,163.653,200.256,157.221Z" style="fill:#d4e1f4"/><path d="M200.26,81.788C182.564,75.383,172,66.969,172,59.28s10.564-16.1,28.26-22.508C218.04,30.337,241.092,26.46,266,25.639q-4.956-.163-10-.169c-28.7,0-55.6,4.014-75.74,11.3C162.564,43.176,152,51.59,152,59.28s10.564,16.1,28.26,22.508c20.138,7.288,47.036,11.3,75.74,11.3q5.043,0,10-.169C241.091,92.1,218.04,88.222,200.26,81.788Z" style="fill:#d4e1f4"/><path d="M200.256,308.6C182.563,302.2,172,293.784,172,286.089V242.347a79.675,79.675,0,0,1-20-11.02v54.762c0,7.695,10.563,16.111,28.256,22.513,20.133,7.285,47.032,11.3,75.744,11.3q5.043,0,10-.169C241.084,318.91,218.031,315.034,200.256,308.6Z" style="fill:#d4e1f4"/><path d="M286.47,129.1a289.119,289.119,0,0,1-30.47,1.58,282.209,282.209,0,0,1-38.066-2.5,6,6,0,1,0-1.626,11.889A294.148,294.148,0,0,0,256,142.683a301.09,301.09,0,0,0,31.74-1.648,6,6,0,0,0-1.27-11.932Z" style="fill:#0635c9"/><path d="M319.821,111.94a16,16,0,1,0,16,16A16.019,16.019,0,0,0,319.821,111.94Zm0,20a4,4,0,1,1,4-4A4,4,0,0,1,319.821,131.94Z" style="fill:#0635c9"/><path d="M286.47,203.415A289.119,289.119,0,0,1,256,205a282,282,0,0,1-38.066-2.5,6,6,0,1,0-1.626,11.89A294.1,294.1,0,0,0,256,217a301.09,301.09,0,0,0,31.74-1.648,6,6,0,0,0-1.27-11.932Z" style="fill:#0635c9"/><path d="M319.821,186.252a16,16,0,1,0,16,16A16.019,16.019,0,0,0,319.821,186.252Zm0,20a4,4,0,1,1,4-4A4,4,0,0,1,319.821,206.252Z" style="fill:#0635c9"/><path d="M286.47,277.727a289.119,289.119,0,0,1-30.47,1.58,282.045,282.045,0,0,1-38.066-2.5,6,6,0,1,0-1.626,11.89A294.151,294.151,0,0,0,256,291.307a301.093,301.093,0,0,0,31.74-1.647,6,6,0,0,0-1.27-11.933Z" style="fill:#0635c9"/><path d="M319.821,260.564a16,16,0,1,0,16,16A16.019,16.019,0,0,0,319.821,260.564Zm0,20a4,4,0,1,1,4-4A4,4,0,0,1,319.821,280.564Z" style="fill:#0635c9"/><path d="M285.256,469.274A29.305,29.305,0,0,0,262,440.639V322H250V440.639a29.256,29.256,0,1,0,35.256,28.635Zm-46.512,0A17.256,17.256,0,1,1,256,486.53,17.276,17.276,0,0,1,238.744,469.274Z" style="fill:#1ae5be"/><path d="M297.86,371H327v30.88a28.7,28.7,0,0,0-23.384,28.634A29.272,29.272,0,1,0,339,401.88V365.4a6.574,6.574,0,0,0-6.256-6.4H304V322H292v43.4A5.555,5.555,0,0,0,297.86,371ZM350,430.514a17.256,17.256,0,1,1-17.256-17.256A17.276,17.276,0,0,1,350,430.514Z" style="fill:#1ae5be"/><path d="M208,359H179.256A6.574,6.574,0,0,0,173,365.4v13.226a29.265,29.265,0,1,0,35.352,28.634A28.668,28.668,0,0,0,185,378.624V371h29.14a5.555,5.555,0,0,0,5.86-5.6V322H208Zm-11.488,48.258A17.256,17.256,0,1,1,179.256,390,17.276,17.276,0,0,1,196.512,407.258Z" style="fill:#1ae5be"/><path d="M256,13.47c-30.061,0-58.409,4.268-79.824,12.018C152.848,33.931,140,45.932,140,59.28V286.089c0,29.755,59.766,45.81,116,45.81,30.069,0,58.418-4.266,79.827-12.013,23.327-8.44,36.173-20.443,36.173-33.8V59.28C372,29.525,312.234,13.47,256,13.47Zm104,195.1v1.572c0,7.695-10.563,16.111-28.256,22.513-20.133,7.285-47.032,11.3-75.744,11.3s-55.611-4.012-75.744-11.3C162.563,226.248,152,217.832,152,210.137V155.9c20.26,16.109,63.062,24.62,104,24.62,30.069,0,58.418-4.266,79.827-12.013,10.08-3.647,18.2-7.96,24.173-12.76Zm0-73.857c0,7.695-10.563,16.111-28.256,22.513-20.133,7.285-47.032,11.3-75.744,11.3s-55.611-4.012-75.744-11.3C162.563,150.819,152,142.4,152,134.708V80.47c20.26,16.108,63.062,24.619,104,24.619,30.061,0,58.409-4.268,79.824-12.018,10.081-3.648,18.2-7.962,24.176-12.761ZM180.26,36.772C200.4,29.484,227.3,25.47,256,25.47s55.6,4.014,75.74,11.3C349.436,43.176,360,51.59,360,59.28s-10.564,16.1-28.26,22.508C311.6,89.076,284.7,93.089,256,93.089s-55.6-4.013-75.74-11.3C162.564,75.383,152,66.969,152,59.28S162.564,43.176,180.26,36.772ZM331.744,308.6c-20.133,7.285-47.032,11.3-75.744,11.3s-55.611-4.012-75.744-11.3C162.563,302.2,152,293.784,152,286.089V231.327c20.26,16.109,63.062,24.62,104,24.62,30.069,0,58.418-4.266,79.827-12.013,10.08-3.647,18.2-7.961,24.173-12.76v54.915C360,293.784,349.437,302.2,331.744,308.6Z" style="fill:#0635c9"/></svg>
