<?xml version="1.0"?>
<svg xmlns="http://www.w3.org/2000/svg" id="Layer_1" data-name="Layer 1" viewBox="0 0 512 512" width="512" height="512"><title>Database Lock</title><path d="M137.911,312.269C112.51,303.077,98,291.14,98,279.518v-61.05c-12.883-5.2-23.021-11.24-30-17.868v78.918c0,11.622,14.51,23.559,39.911,32.751C135.6,322.286,172.483,327.8,211.882,327.8q7.57,0,15-.273C193.184,326.313,162.049,321,137.911,312.269Z" style="fill:#d4e1f4"/><path d="M137.925,209.412C112.523,200.221,98,188.283,98,176.661V115.6c-12.883-5.2-23.021-11.241-30-17.867v78.927c0,11.622,14.523,23.56,39.925,32.751,27.685,10.018,64.585,15.534,103.984,15.534q7.569,0,15-.272C193.211,223.457,162.064,218.147,137.925,209.412Z" style="fill:#d4e1f4"/><path d="M137.854,106.548C112.449,97.354,97.879,85.419,97.879,73.8s14.57-23.55,39.975-32.744C162,32.321,193.18,27.009,226.878,25.79q-7.426-.268-15-.272c-39.387,0-76.33,5.519-104.024,15.542C82.449,50.254,67.879,62.188,67.879,73.8s14.57,23.55,39.975,32.744c27.693,10.021,64.637,15.541,104.024,15.541q7.569,0,15-.273C193.18,120.6,162,115.286,137.854,106.548Z" style="fill:#d4e1f4"/><path d="M241.909,339.8q13.781,0,27.091-.878V335.8a383.105,383.105,0,0,1-42.079,3.741Q234.348,339.8,241.909,339.8Z" style="fill:#d4e1f4"/><path d="M137.911,415.84C112.51,406.648,98,394.711,98,383.089V321.325c-12.883-5.2-23.021-11.24-30-17.868v79.632c0,11.622,14.51,23.559,39.911,32.751,27.686,10.017,64.572,15.535,103.971,15.535,4.93,0,9.831-.11,14.7-.285C193.005,429.851,161.979,424.549,137.911,415.84Z" style="fill:#d4e1f4"/><path d="M311,374.3V323.309l65.523-35.9-15.211-8.1L281,323.309V374.3a117.5,117.5,0,0,0,70.455,107.469l9.642,4.173,11.1-4.8c.014-.007,0-.013.012-.019q2.049-.865,4.051-1.8A117.449,117.449,0,0,1,311,374.3Z" style="fill:#d4e1f4"/><path d="M320.047,29.775c-28.969-10.484-67.393-16.257-108.138-16.257s-79.093,5.773-108.062,16.257C72.963,40.953,56,56.589,56,73.8V383.089c0,17.223,16.946,32.861,47.826,44.035,28.962,10.48,67.327,16.251,108.083,16.251,27.428,0,54.325-2.671,77.81-7.723l-2.531-11.732c-22.67,4.877-48.713,7.455-75.306,7.455-39.4,0-76.285-5.518-103.971-15.535C82.51,406.648,68,394.711,68,383.089V303.457c8,7.6,20.149,14.423,35.826,20.1,28.962,10.479,67.327,16.251,108.083,16.251a387.641,387.641,0,0,0,64.659-5.2l-2.016-11.831a375.93,375.93,0,0,1-62.67,5.031c-39.4,0-76.285-5.518-103.971-15.535C82.51,303.077,68,291.14,68,279.518V200.6c8,7.6,20.149,14.423,35.826,20.1,28.962,10.48,67.326,16.251,108.083,16.251s79.2-5.771,108.158-16.251C335.745,215.023,348,208.2,356,200.6V273h12V73.8C368,56.589,350.931,40.953,320.047,29.775Zm-4.078,179.637c-27.685,10.018-64.661,15.534-104.06,15.534s-76.3-5.516-103.985-15.534C82.523,200.221,68,188.283,68,176.661V97.734c8,7.6,20.151,14.422,35.832,20.1,28.969,10.484,67.332,16.258,108.077,16.258s79.184-5.774,108.153-16.258c15.681-5.675,27.938-12.5,35.938-20.1v78.927C356,188.283,341.371,200.221,315.969,209.412ZM315.9,106.548c-27.694,10.021-64.636,15.541-104.025,15.541s-76.331-5.52-104.024-15.541C82.449,97.354,67.879,85.419,67.879,73.8s14.57-23.55,39.975-32.744c27.694-10.023,64.637-15.542,104.024-15.542S288.209,31.037,315.9,41.06c25.4,9.194,39.975,21.128,39.975,32.744S341.308,97.354,315.9,106.548Z" style="fill:#0635c9"/><path d="M253.659,171.187a396.578,396.578,0,0,1-41.781,2.166,386.955,386.955,0,0,1-52.2-3.433,6,6,0,1,0-1.626,11.889,398.894,398.894,0,0,0,53.829,3.544,408.3,408.3,0,0,0,43.052-2.235,6,6,0,1,0-1.271-11.931Z" style="fill:#0635c9"/><path d="M298.907,149.51a17.922,17.922,0,1,0,17.922,17.921A17.941,17.941,0,0,0,298.907,149.51Zm0,23.843a5.922,5.922,0,1,1,5.922-5.922A5.928,5.928,0,0,1,298.907,173.353Z" style="fill:#0635c9"/><path d="M253.659,272.521a396.306,396.306,0,0,1-41.781,2.167,386.955,386.955,0,0,1-52.2-3.433,6,6,0,1,0-1.626,11.889,398.894,398.894,0,0,0,53.829,3.544,408.3,408.3,0,0,0,43.052-2.235,6,6,0,1,0-1.271-11.932Z" style="fill:#0635c9"/><path d="M298.907,250.844a17.922,17.922,0,1,0,17.922,17.922A17.942,17.942,0,0,0,298.907,250.844Zm0,23.844a5.922,5.922,0,1,1,5.922-5.922A5.928,5.928,0,0,1,298.907,274.688Z" style="fill:#0635c9"/><path d="M253.659,373.855a396.222,396.222,0,0,1-41.781,2.167,386.957,386.957,0,0,1-52.2-3.432,6,6,0,1,0-1.626,11.889,398.9,398.9,0,0,0,53.829,3.543,407.944,407.944,0,0,0,43.052-2.235,6,6,0,1,0-1.271-11.932Z" style="fill:#0635c9"/><path d="M452.883,314.46,364.2,267.188a5.961,5.961,0,0,0-5.691.033l-86.325,47.272A6.064,6.064,0,0,0,269,319.755V374.3a129.5,129.5,0,0,0,77.657,118.464l12.009,5.218a6.067,6.067,0,0,0,4.805.008l13.426-5.822a129.133,129.133,0,0,0,79.1-119.1V319.755A5.943,5.943,0,0,0,452.883,314.46ZM444,373.072a117.151,117.151,0,0,1-71.79,108.051c-.014.006,0,.012-.012.019l-11.1,4.8-9.642-4.173A117.5,117.5,0,0,1,281,374.3V323.309L361.312,279.3,444,323.356Z" style="fill:#1ae5be"/><path d="M333,347.482v17.946a16.332,16.332,0,0,0-11,15.387v50c0,8.823,6.813,16.185,15.636,16.185h50A16.492,16.492,0,0,0,404,430.815v-50a16,16,0,0,0-12-15.387V347.482a29.5,29.5,0,0,0-59,0ZM392,431a4,4,0,0,1-4,4H338a4,4,0,0,1-4-4V381a4,4,0,0,1,4-4h50a4,4,0,0,1,4,4ZM362.5,330.148A17.5,17.5,0,0,1,380,347.482V365H345V347.482A17.5,17.5,0,0,1,362.5,330.148Z" style="fill:#1ae5be"/></svg>
