<?xml version="1.0"?>
<svg xmlns="http://www.w3.org/2000/svg" id="Layer_1" data-name="Layer 1" viewBox="0 0 512 512" width="512" height="512"><title>Database Locks</title><path d="M45.5,195.5A42.551,42.551,0,0,1,88.019,153h-20a42.5,42.5,0,1,0,0,85h20A42.551,42.551,0,0,1,45.5,195.5Z" style="fill:#d4e1f4"/><path d="M45.5,324.5A42.551,42.551,0,0,1,88.019,282h-20a42.5,42.5,0,1,0,0,85h20A42.551,42.551,0,0,1,45.5,324.5Z" style="fill:#d4e1f4"/><path d="M322.833,82.142a26.386,26.386,0,0,0-5.833,52.1v93.978A32.35,32.35,0,0,0,291.338,254H197v-4.465a54.671,54.671,0,0,0,48.685-54.122c0-30.061-24.642-54.413-54.7-54.413H68.019c-30.062,0-54.7,24.352-54.7,54.414A54.671,54.671,0,0,0,62,249.535v20.93a54.671,54.671,0,0,0-48.685,54.122c0,30.061,24.642,54.413,54.7,54.413H190.981c30.062,0,54.7-24.352,54.7-54.414A54.671,54.671,0,0,0,197,270.465V266h94.338A31.71,31.71,0,0,0,317,291.214V405.191A26.38,26.38,0,1,0,348.513,437H409V425H348.562A25.951,25.951,0,0,0,329,405.191V291.214A31.683,31.683,0,0,0,354.278,266H409V254H354.379A31.919,31.919,0,0,0,329,228.223V134.245A27.225,27.225,0,0,0,348.431,115H409V103H348.644A26.442,26.442,0,0,0,322.833,82.142ZM74,270V250H185v20ZM25.5,195.5A42.551,42.551,0,0,1,68.019,153H190.981a42.5,42.5,0,1,1,0,85H68.019A42.551,42.551,0,0,1,25.5,195.5Zm208,129A42.551,42.551,0,0,1,190.981,367H68.019a42.5,42.5,0,1,1,0-85H190.981A42.551,42.551,0,0,1,233.5,324.5ZM337.233,430.9a14.4,14.4,0,1,1-14.4-14.4A14.416,14.416,0,0,1,337.233,430.9ZM342.9,259.719a20.067,20.067,0,1,1-20.067-20.068A20.089,20.089,0,0,1,342.9,259.719ZM322.833,122.941a14.4,14.4,0,1,1,14.4-14.4A14.416,14.416,0,0,1,322.833,122.941Z" style="fill:#0635c9"/><path d="M192.246,221.524a26.216,26.216,0,1,0-26.216-26.215A26.245,26.245,0,0,0,192.246,221.524Zm0-40.432a14.216,14.216,0,1,1-14.216,14.217A14.233,14.233,0,0,1,192.246,181.092Z" style="fill:#0635c9"/><path d="M76,207.438V183.179a6,6,0,0,0-12,0v24.259a6,6,0,0,0,12,0Z" style="fill:#0635c9"/><path d="M94,213.438a6,6,0,0,0,6-6V183.179a6,6,0,1,0-12,0v24.259A6,6,0,0,0,94,213.438Z" style="fill:#0635c9"/><path d="M118,213.438a6,6,0,0,0,6-6V183.179a6,6,0,1,0-12,0v24.259A6,6,0,0,0,118,213.438Z" style="fill:#0635c9"/><path d="M166.03,324.691a26.216,26.216,0,1,0,26.216-26.215A26.247,26.247,0,0,0,166.03,324.691Zm26.216-14.215a14.216,14.216,0,1,1-14.216,14.215A14.232,14.232,0,0,1,192.246,310.476Z" style="fill:#0635c9"/><path d="M70,306.562a6,6,0,0,0-6,6v24.259a6,6,0,0,0,12,0V312.562A6,6,0,0,0,70,306.562Z" style="fill:#0635c9"/><path d="M94,306.562a6,6,0,0,0-6,6v24.259a6,6,0,0,0,12,0V312.562A6,6,0,0,0,94,306.562Z" style="fill:#0635c9"/><path d="M118,306.562a6,6,0,0,0-6,6v24.259a6,6,0,0,0,12,0V312.562A6,6,0,0,0,118,306.562Z" style="fill:#0635c9"/><path d="M485,74.908V64a32.5,32.5,0,1,0-65,0V74.908c-8,1.275-14,7.847-14,15.759v60A16.741,16.741,0,0,0,422.5,167h60c8.822,0,15.5-7.511,15.5-16.333v-60C498,82.755,493,76.183,485,74.908ZM452.5,43.333A20.548,20.548,0,0,1,473,64V75H432V64A20.548,20.548,0,0,1,452.5,43.333ZM486,151a4,4,0,0,1-4,4H422a4,4,0,0,1-4-4V91a4,4,0,0,1,4-4h60a4,4,0,0,1,4,4Z" style="fill:#1ae5be"/><path d="M485,388.908V378a32.5,32.5,0,1,0-65,0v10.908c-8,1.275-14,7.847-14,15.759v60A16.741,16.741,0,0,0,422.5,481h60c8.822,0,15.5-7.511,15.5-16.333v-60C498,396.755,493,390.183,485,388.908Zm-32.5-31.575A20.548,20.548,0,0,1,473,378v11H432V378A20.548,20.548,0,0,1,452.5,357.333ZM486,465a4,4,0,0,1-4,4H422a4,4,0,0,1-4-4V405a4,4,0,0,1,4-4h60a4,4,0,0,1,4,4Z" style="fill:#1ae5be"/><path d="M485,231.908V221a32.5,32.5,0,1,0-65,0v10.908c-8,1.275-14,7.847-14,15.759v60A16.741,16.741,0,0,0,422.5,324h60c8.822,0,15.5-7.511,15.5-16.333v-60C498,239.755,493,233.183,485,231.908Zm-32.5-31.575A20.548,20.548,0,0,1,473,221v11H432V221A20.548,20.548,0,0,1,452.5,200.333ZM486,308a4,4,0,0,1-4,4H422a4,4,0,0,1-4-4V248a4,4,0,0,1,4-4h60a4,4,0,0,1,4,4Z" style="fill:#1ae5be"/></svg>
