<?xml version="1.0"?>
<svg xmlns="http://www.w3.org/2000/svg" id="Layer_1" data-name="Layer 1" viewBox="0 0 512 512" width="512" height="512"><title>Database Pie Chart</title><path d="M105.976,121.565C80.571,112.371,66,100.437,66,88.821s14.571-23.549,39.976-32.743C131.31,46.909,164.394,41.523,200,40.67c-3.316-.08-6.645-.134-10-.134-39.388,0-76.331,5.519-104.024,15.542C60.571,65.272,46,77.207,46,88.821s14.571,23.55,39.976,32.744c27.693,10.022,64.636,15.542,104.024,15.542,3.355,0,6.684-.055,10-.134C164.393,136.119,131.31,130.734,105.976,121.565Z" style="fill:#d4e1f4"/><path d="M105.97,224.43C80.568,215.238,66,203.3,66,191.679V126.1a84.224,84.224,0,0,1-20-13.352v78.927c0,11.622,14.568,23.559,39.97,32.751C113.656,234.447,150.6,239.964,190,239.964c3.355,0,6.685-.054,10-.134C164.384,238.977,131.3,233.594,105.97,224.43Z" style="fill:#d4e1f4"/><path d="M105.97,327.287C80.568,318.1,66,306.158,66,294.536V228.971a84.2,84.2,0,0,1-20-13.353v78.918c0,11.622,14.568,23.559,39.97,32.751C113.656,337.3,150.6,342.821,190,342.821q5.133,0,10.217-.128C164.518,341.857,131.349,336.47,105.97,327.287Z" style="fill:#d4e1f4"/><path d="M105.97,430.858C80.568,421.667,66,409.729,66,398.107V331.828a84.2,84.2,0,0,1-20-13.353v79.632c0,11.622,14.568,23.56,39.97,32.751C113.656,440.876,150.6,446.393,190,446.393q5.149,0,10.248-.127C164.537,445.432,131.357,440.044,105.97,430.858Z" style="fill:#d4e1f4"/><path d="M291.921,431.7A86.764,86.764,0,0,1,339,302.1v-3.734a86.022,86.022,0,0,0-55.39,25.177,86.838,86.838,0,0,0,61.425,148.192,88.477,88.477,0,0,0,10.011-.579A86.522,86.522,0,0,1,291.921,431.7Z" style="fill:#d4e1f4"/><path d="M81.762,441.874c28.962,10.48,67.295,16.251,108.05,16.251,30.175,0,59.342-3.191,84.408-9.229a6,6,0,0,0-2.834-11.667c-24.16,5.82-52.39,8.9-81.632,8.9-39.4,0-76.221-5.517-103.907-15.535C60.445,421.4,46,409.461,46,397.839V318.207c8,7.6,20.084,14.423,35.762,20.1,28.962,10.479,67.295,16.251,108.05,16.251a381.2,381.2,0,0,0,74.417-7.018,6,6,0,0,0-2.408-11.761,369.36,369.36,0,0,1-72.067,6.779c-39.4,0-76.221-5.517-103.907-15.535C60.445,317.828,46,305.89,46,294.268V215.35c8,7.6,20.084,14.422,35.762,20.1,28.962,10.48,67.295,16.251,108.05,16.251s79.246-5.771,108.207-16.251C313.7,229.772,326,222.947,334,215.35V292h12V88.554c0-17.215-17.133-32.851-48.017-44.028-28.969-10.484-67.425-16.258-108.171-16.258S110.768,34.042,81.8,44.526C50.915,55.7,34,71.339,34,88.554V397.839C34,415.062,50.882,430.7,81.762,441.874ZM293.9,224.162C266.219,234.179,229.211,239.7,189.812,239.7s-76.25-5.517-103.936-15.534C60.475,214.97,46,203.033,46,191.411V112.484c8,7.6,20.087,14.422,35.767,20.1,28.969,10.484,67.3,16.258,108.045,16.258s79.233-5.774,108.2-16.258c15.68-5.675,27.986-12.5,35.986-20.1v78.927C334,203.033,319.307,214.97,293.9,224.162ZM85.726,55.81c27.693-10.022,64.636-15.542,104.024-15.542s76.331,5.52,104.024,15.542C319.179,65,333.75,76.938,333.75,88.554S319.179,112.1,293.774,121.3c-27.693,10.023-64.636,15.542-104.024,15.542S113.419,131.32,85.726,121.3C60.321,112.1,45.75,100.168,45.75,88.554S60.321,65,85.726,55.81Z" style="fill:#0635c9"/><path d="M231.531,185.936A396.236,396.236,0,0,1,189.75,188.1a386.883,386.883,0,0,1-52.2-3.433,6,6,0,0,0-1.626,11.89,398.988,398.988,0,0,0,53.83,3.543,408.212,408.212,0,0,0,43.052-2.235,6,6,0,0,0-1.271-11.932Z" style="fill:#0635c9"/><path d="M276.779,164.259A17.922,17.922,0,1,0,294.7,182.181,17.942,17.942,0,0,0,276.779,164.259Zm0,23.844a5.922,5.922,0,1,1,5.922-5.922A5.929,5.929,0,0,1,276.779,188.1Z" style="fill:#0635c9"/><path d="M231.531,287.271a396.547,396.547,0,0,1-41.781,2.167,386.828,386.828,0,0,1-52.2-3.433,6,6,0,0,0-1.626,11.89,398.923,398.923,0,0,0,53.83,3.543A408.235,408.235,0,0,0,232.8,299.2a6,6,0,0,0-1.27-11.932Z" style="fill:#0635c9"/><path d="M258.857,283.516a17.922,17.922,0,1,0,17.922-17.922A17.942,17.942,0,0,0,258.857,283.516Zm23.844,0a5.922,5.922,0,1,1-5.922-5.922A5.929,5.929,0,0,1,282.7,283.516Z" style="fill:#0635c9"/><path d="M231.531,388.605a396.278,396.278,0,0,1-41.781,2.167,386.72,386.72,0,0,1-52.2-3.433,6,6,0,0,0-1.626,11.89,398.988,398.988,0,0,0,53.83,3.543,408.238,408.238,0,0,0,43.051-2.234,6,6,0,0,0-1.27-11.933Z" style="fill:#0635c9"/><path d="M414.964,454.8a99.173,99.173,0,0,0,28.856-69.829,5.977,5.977,0,0,0-6-5.973H351V292.162a5.985,5.985,0,0,0-5.982-6,98.178,98.178,0,0,0-69.921,28.93A98.845,98.845,0,1,0,414.964,454.8Zm-69.929,16.93A86.786,86.786,0,0,1,339,298.363v86.584A6.076,6.076,0,0,0,345.035,391h86.579a86.505,86.505,0,0,1-86.579,80.732Z" style="fill:#1ae5be"/><path d="M449.32,281.172a99.773,99.773,0,0,0-70.088-28.857,6.2,6.2,0,0,0-6.232,6V351.1c0,3.313,3.151,5.9,6.465,5.9H472.25a5.958,5.958,0,0,0,6-5.95,99.178,99.178,0,0,0-28.856-69.83C449.37,281.2,449.345,281.2,449.32,281.172ZM385,345V264.522a87.333,87.333,0,0,1,55.64,25.122c14.931,15.21,23.974,34.356,25.4,55.356Z" style="fill:#1ae5be"/></svg>
