<?xml version="1.0"?>
<svg xmlns="http://www.w3.org/2000/svg" id="Layer_1" data-name="Layer 1" viewBox="0 0 512 512" width="512" height="512"><title>Database Time</title><path d="M131.976,115.565C106.57,106.371,92,94.437,92,82.821s14.57-23.549,39.976-32.743c22.945-8.3,52.249-13.505,84.024-15.049q-9.861-.479-20-.493c-39.388,0-76.331,5.519-104.024,15.542C66.57,59.272,52,71.207,52,82.821s14.57,23.55,39.976,32.744c27.693,10.022,64.636,15.542,104.024,15.542q10.129,0,20-.494C184.225,129.07,154.921,123.869,131.976,115.565Z" style="fill:#d4e1f4"/><path d="M131.97,218.43C106.568,209.238,92,197.3,92,185.679V128.265c-1.382-.465-2.766-.93-4.107-1.416-15.681-5.675-27.776-12.5-35.893-20.1v78.927c0,11.622,14.568,23.559,39.97,32.751C119.655,228.447,156.6,233.964,196,233.964q10.129,0,20-.493C184.216,231.929,154.91,226.73,131.97,218.43Z" style="fill:#d4e1f4"/><path d="M131.97,321.287C106.568,312.1,92,300.158,92,288.536v-57.4c-1.384-.466-2.77-.931-4.113-1.418C72.209,224.04,60.116,217.215,52,209.618v78.918c0,11.622,14.568,23.559,39.97,32.751C119.655,331.3,156.6,336.821,196,336.821q10.11,0,20.015-.492C184.225,334.787,154.914,329.589,131.97,321.287Z" style="fill:#d4e1f4"/><path d="M236,348.821c10.249,0,20.379-.375,30.274-1.1q1.011-2.8,2.165-5.527a365.434,365.434,0,0,1-52.373,6.146C222.629,348.649,229.277,348.821,236,348.821Z" style="fill:#d4e1f4"/><path d="M131.97,424.858C106.568,415.667,92,403.729,92,392.107V333.988c-1.384-.466-2.77-.931-4.113-1.418C72.209,326.9,60.116,320.072,52,312.475v79.632c0,11.622,14.568,23.56,39.97,32.751C119.655,434.876,156.6,440.393,196,440.393c6.761,0,13.465-.165,20.075-.49C184.263,438.365,154.928,433.165,131.97,424.858Z" style="fill:#d4e1f4"/><path d="M326.441,433.554A94.027,94.027,0,0,1,386,291.613a94,94,0,1,0-.041,183.712A93.6,93.6,0,0,1,326.441,433.554Z" style="fill:#d4e1f4"/><path d="M304.107,38.794C275.139,28.31,236.745,22.536,196,22.536S116.861,28.31,87.893,38.794C57.009,49.971,40,65.606,40,82.821V392.107c0,17.223,17.007,32.861,47.887,44.035,28.962,10.48,67.357,16.251,108.113,16.251,30.538,0,60.034-3.264,85.3-9.438a6,6,0,0,0-2.85-11.657c-24.344,5.95-52.855,9.095-82.448,9.095-39.4,0-76.345-5.517-104.03-15.535C66.568,415.667,52,403.729,52,392.107V312.475c8.116,7.6,20.209,14.422,35.887,20.095,28.962,10.48,67.357,16.251,108.113,16.251,30.265,0,59.535-3.209,84.649-9.279a6,6,0,0,0-2.82-11.665c-24.2,5.852-52.5,8.944-81.829,8.944-39.4,0-76.345-5.517-104.03-15.534C66.568,312.1,52,300.158,52,288.536V209.618c8.116,7.6,20.209,14.422,35.887,20.1,28.962,10.48,67.357,16.251,108.113,16.251s79.151-5.771,108.113-16.251c15.678-5.673,27.771-12.5,35.887-20.095V287h12V82.821C352,65.606,334.991,49.971,304.107,38.794ZM300.03,218.43C272.345,228.447,235.4,233.964,196,233.964s-76.345-5.517-104.03-15.534C66.568,209.238,52,197.3,52,185.679V106.752c8.117,7.6,20.212,14.422,35.893,20.1,28.968,10.484,67.362,16.258,108.107,16.258s79.139-5.774,108.107-16.258c15.681-5.675,27.776-12.5,35.893-20.1v78.927C340,197.3,325.432,209.238,300.03,218.43Zm-.006-102.865C272.331,125.587,235.388,131.107,196,131.107s-76.331-5.52-104.024-15.542C66.57,106.371,52,94.437,52,82.821S66.57,59.272,91.976,50.078C119.669,40.055,156.612,34.536,196,34.536s76.331,5.519,104.024,15.542C325.43,59.272,340,71.207,340,82.821S325.43,106.371,300.024,115.565Z" style="fill:#0635c9"/><path d="M237.78,180.2A396.259,396.259,0,0,1,196,182.371a386.857,386.857,0,0,1-52.2-3.433,6,6,0,0,0-1.627,11.889A398.985,398.985,0,0,0,196,194.371a408.269,408.269,0,0,0,43.052-2.235A6,6,0,0,0,237.78,180.2Z" style="fill:#0635c9"/><path d="M283.028,158.527a17.922,17.922,0,1,0,17.922,17.922A17.942,17.942,0,0,0,283.028,158.527Zm0,23.844a5.922,5.922,0,1,1,5.922-5.922A5.929,5.929,0,0,1,283.028,182.371Z" style="fill:#0635c9"/><path d="M237.78,281.539A396.259,396.259,0,0,1,196,283.706a386.691,386.691,0,0,1-52.2-3.434,6,6,0,0,0-1.627,11.89A398.985,398.985,0,0,0,196,295.706a408.269,408.269,0,0,0,43.052-2.235,6,6,0,0,0-1.272-11.932Z" style="fill:#0635c9"/><path d="M283.028,259.862a17.922,17.922,0,1,0,17.922,17.922A17.941,17.941,0,0,0,283.028,259.862Zm0,23.844a5.922,5.922,0,1,1,5.922-5.922A5.929,5.929,0,0,1,283.028,283.706Z" style="fill:#0635c9"/><path d="M237.78,382.873A395.946,395.946,0,0,1,196,385.041a386.691,386.691,0,0,1-52.2-3.434,6,6,0,0,0-1.627,11.89A398.985,398.985,0,0,0,196,397.041a408.226,408.226,0,0,0,43.052-2.235,6,6,0,0,0-1.272-11.933Z" style="fill:#0635c9"/><path d="M366,277.464a105.891,105.891,0,0,0-106,106,106,106,0,1,0,106-106Zm0,200A94.011,94.011,0,0,1,347.022,291.38,94.009,94.009,0,1,1,366,477.464Z" style="fill:#1ae5be"/><path d="M399.328,400.52,372,382.3V331a6,6,0,0,0-12,0v54.512a6,6,0,0,0,2.672,4.992l30,20a6,6,0,1,0,6.656-9.984Z" style="fill:#1ae5be"/></svg>
