<?xml version="1.0"?>
<svg xmlns="http://www.w3.org/2000/svg" id="Layer_1" data-name="Layer 1" viewBox="0 0 512 512" width="512" height="512"><title>Database to Cloud</title><path d="M192,110.466a32.564,32.564,0,0,1,20.825-30.359,6.013,6.013,0,0,0,3.846-5.882c-.034-.756-.056-1.525-.056-2.288a47.926,47.926,0,0,1,32.862-45.432,47.85,47.85,0,0,0-62.862,45.432c0,.763.022,1.532.056,2.288a6.013,6.013,0,0,1-3.846,5.882A32.537,32.537,0,0,0,194.462,143h30A32.56,32.56,0,0,1,192,110.466Z" style="fill:#d4e1f4"/><path d="M238.447,432.521C226.238,428.1,222,423.148,222,420.247V400.542a117.394,117.394,0,0,1-17.667-4.736A56.626,56.626,0,0,1,192,389.912v30.335c0,2.9,4.238,7.857,16.447,12.274,12.58,4.552,29.341,7.059,47.365,7.059,5.122,0,10.148-.209,15.016-.6C258.607,437.984,247.453,435.78,238.447,432.521Z" style="fill:#d4e1f4"/><path d="M238.447,384.521C226.238,380.1,222,375.148,222,372.247V352.54a117.293,117.293,0,0,1-17.664-4.738,56.632,56.632,0,0,1-12.336-5.9v30.34c0,2.9,4.238,7.857,16.447,12.274,12.58,4.552,29.341,7.059,47.365,7.059,5.122,0,10.148-.209,15.016-.6C258.607,389.984,247.453,387.78,238.447,384.521Z" style="fill:#d4e1f4"/><path d="M238.294,336.519c-12.211-4.42-16.544-9.373-16.544-12.272s4.333-7.852,16.544-12.271c9.008-3.261,20.21-5.465,32.456-6.459-4.86-.394-9.88-.6-15-.6-18.02,0-34.873,2.507-47.456,7.062-12.211,4.419-16.544,9.372-16.544,12.271s4.333,7.852,16.544,12.272c12.583,4.553,29.436,7.061,47.456,7.061,5.12,0,10.14-.209,15-.6C258.5,341.983,247.3,339.778,238.294,336.519Z" style="fill:#d4e1f4"/><path d="M238.447,480.855C226.238,476.437,222,471.481,222,468.58V448.542a117.394,117.394,0,0,1-17.667-4.736A56.626,56.626,0,0,1,192,437.912V468.58c0,2.9,4.238,7.857,16.447,12.275,12.58,4.552,29.341,7.059,47.365,7.059,5.122,0,10.148-.21,15.016-.6C258.607,486.317,247.453,484.114,238.447,480.855Z" style="fill:#d4e1f4"/><path d="M330.785,67.948a44.482,44.482,0,0,0-52.964-37.263A59.845,59.845,0,0,0,174.63,70.6,44.554,44.554,0,0,0,194.462,155H317.538a44.547,44.547,0,0,0,13.247-87.052Zm9.7,65.468A32.311,32.311,0,0,1,317.538,143H194.462a32.54,32.54,0,0,1-11.637-62.893,6.013,6.013,0,0,0,3.846-5.882c-.034-.756-.056-1.525-.056-2.288a47.845,47.845,0,0,1,84.544-30.7,5.994,5.994,0,0,0,6.327,1.9,32.46,32.46,0,0,1,41.711,29.8,6,6,0,0,0,4.809,5.647,32.513,32.513,0,0,1,16.481,54.833Z" style="fill:#0635c9"/><path d="M223,188.119a6,6,0,0,0,6-6V176.8a6,6,0,0,0-12,0v5.321A6,6,0,0,0,223,188.119Z" style="fill:#0635c9"/><path d="M217,203.591a6,6,0,0,0,12,0v-4.88a6,6,0,0,0-12,0Z" style="fill:#0635c9"/><path d="M245.9,241.7,229,257.431v-36.5a6,6,0,0,0-12,0v36.5L200.094,241.7a6,6,0,1,0-8.18,8.784L218.9,275.6a6,6,0,0,0,8.175,0l26.989-25.118a6,6,0,1,0-8.17-8.784Z" style="fill:#0635c9"/><path d="M289,259.89a6,6,0,0,0-6,6v5.321a6,6,0,0,0,12,0V265.89A6,6,0,0,0,289,259.89Z" style="fill:#0635c9"/><path d="M289,238.418a6,6,0,0,0-6,6V249.3a6,6,0,0,0,12,0v-4.881A6,6,0,0,0,289,238.418Z" style="fill:#0635c9"/><path d="M293.1,172.406a6,6,0,0,0-8.176,0l-26.988,25.117a6,6,0,0,0,8.169,8.785L283,190.579v36.5a6,6,0,1,0,12,0v-36.5l16.906,15.729a6,6,0,0,0,8.181-8.785Z" style="fill:#0635c9"/><path d="M307.414,300.692c-13.859-5.016-32.226-7.778-51.6-7.778s-37.585,2.762-51.445,7.778C184.15,308.008,180,317.54,180,324.247V468.58c0,6.71,4.118,16.244,24.333,23.559,13.856,5.013,32.1,7.775,51.479,7.775s37.78-2.762,51.636-7.775C327.663,484.824,332,475.29,332,468.58V324.247C332,317.54,327.631,308.008,307.414,300.692ZM320,419.247v1c0,2.9-4.457,7.857-16.666,12.274-12.58,4.552-29.5,7.059-47.522,7.059s-34.785-2.507-47.365-7.059C196.238,428.1,192,423.148,192,420.247V389.912a56.626,56.626,0,0,0,12.333,5.894c13.856,5.013,32.1,7.774,51.479,7.774s37.78-2.761,51.636-7.774A97.6,97.6,0,0,0,320,389.912Zm0-47c0,2.9-4.457,7.857-16.666,12.274-12.58,4.552-29.5,7.059-47.522,7.059s-34.785-2.507-47.365-7.059C196.238,380.1,192,375.148,192,372.247v-30.34a56.632,56.632,0,0,0,12.336,5.9c13.859,5.016,32.1,7.778,51.476,7.778s37.774-2.762,51.633-7.778a97.587,97.587,0,0,0,12.555-5.9ZM208.294,311.976c12.583-4.555,29.436-7.062,47.456-7.062s34.873,2.507,47.456,7.062c12.211,4.419,16.544,9.372,16.544,12.271s-4.333,7.852-16.544,12.272c-12.583,4.553-29.436,7.061-47.456,7.061s-34.873-2.508-47.456-7.061c-12.211-4.42-16.544-9.373-16.544-12.272S196.083,316.4,208.294,311.976Zm95.04,168.879c-12.58,4.552-29.5,7.059-47.522,7.059s-34.785-2.507-47.365-7.059C196.238,476.437,192,471.481,192,468.58V437.912a56.626,56.626,0,0,0,12.333,5.894c13.856,5.013,32.1,7.774,51.479,7.774s37.78-2.761,51.636-7.774A97.6,97.6,0,0,0,320,437.912V468.58C320,471.481,315.543,476.437,303.334,480.855Z" style="fill:#1ae5be"/></svg>
