<?xml version="1.0"?>
<svg xmlns="http://www.w3.org/2000/svg" id="Layer_1" data-name="Layer 1" viewBox="0 0 512 512" width="512" height="512"><title>Database to Database</title><path d="M88.39,433.974C76.316,429.605,72,424.719,72,421.861V400.123c-2.7-.739-5.286-1.548-7.727-2.431A64.309,64.309,0,0,1,52,391.9v29.961c0,2.858,4.316,7.744,16.39,12.113,12.46,4.508,29.188,6.991,47.044,6.991,3.38,0,6.721-.089,10-.264C111.4,439.952,98.49,437.629,88.39,433.974Z" style="fill:#d4e1f4"/><path d="M88.39,386.408C76.316,382.04,72,377.153,72,374.3V352.554c-2.7-.739-5.284-1.548-7.725-2.431A64.39,64.39,0,0,1,52,344.33V374.3c0,2.858,4.316,7.745,16.39,12.113,12.46,4.509,29.188,6.991,47.044,6.991,3.38,0,6.721-.089,10-.264C111.4,392.386,98.49,390.063,88.39,386.408Z" style="fill:#d4e1f4"/><path d="M88.359,338.839C77.059,334.749,72,329.81,72,326.729s5.059-8.019,16.359-12.109c10.1-3.656,22.984-5.98,37.008-6.729-3.278-.175-6.618-.266-10-.266-17.85,0-34.545,2.484-47.008,7C57.059,318.71,52,323.649,52,326.729s5.059,8.02,16.359,12.11c12.463,4.511,29.158,6.994,47.008,6.994,3.382,0,6.722-.09,10-.265C111.343,344.819,98.461,342.5,88.359,338.839Z" style="fill:#d4e1f4"/><path d="M88.39,481.87C76.316,477.5,72,472.615,72,469.757V447.689c-2.7-.739-5.286-1.548-7.727-2.431A64.309,64.309,0,0,1,52,439.466v30.291c0,2.858,4.316,7.745,16.39,12.113,12.46,4.509,29.188,6.992,47.044,6.992,3.38,0,6.721-.09,10-.265C111.4,487.848,98.49,485.525,88.39,481.87Z" style="fill:#d4e1f4"/><path d="M229.127,101.921C217.054,97.553,213,92.666,213,89.809V68.122c-2.765-.754-5.41-1.582-7.908-2.486A56.522,56.522,0,0,1,193,59.843V89.809c0,2.857,4.054,7.744,16.127,12.112,12.46,4.509,28.926,6.992,46.781,6.992q5.082,0,10.007-.266C251.95,107.9,239.223,105.574,229.127,101.921Z" style="fill:#d4e1f4"/><path d="M229.127,149.487C217.054,145.119,213,140.232,213,137.375V115.691c-2.766-.754-5.411-1.582-7.91-2.486A56.479,56.479,0,0,1,193,107.413v29.962c0,2.857,4.054,7.744,16.127,12.112,12.46,4.509,28.926,6.992,46.781,6.992q5.082,0,10.007-.266C251.95,155.463,239.223,153.14,229.127,149.487Z" style="fill:#d4e1f4"/><path d="M228.992,54.352c-11.3-4.09-16.359-9.029-16.359-12.109s5.058-8.02,16.359-12.11c10.1-3.656,22.985-5.98,37.008-6.73-3.278-.175-6.618-.265-10-.265-17.85,0-34.545,2.485-47.008,6.995-11.3,4.09-16.359,9.029-16.359,12.11s5.058,8.019,16.359,12.109c12.463,4.511,29.157,7,47.008,7,3.382,0,6.722-.09,10-.266C251.976,60.332,239.094,58.008,228.992,54.352Z" style="fill:#d4e1f4"/><path d="M229.127,197.383C217.054,193.015,213,188.128,213,185.271V163.257c-2.766-.754-5.411-1.582-7.91-2.486A56.479,56.479,0,0,1,193,154.979v30.292c0,2.857,4.054,7.744,16.127,12.112,12.46,4.509,28.926,6.992,46.781,6.992q5.082,0,10.007-.266C251.95,203.359,239.223,201.036,229.127,197.383Z" style="fill:#d4e1f4"/><path d="M369.49,433.974c-12.074-4.369-16.49-9.255-16.49-12.113V400.084c-2.653-.729-5.195-1.524-7.594-2.392A59.956,59.956,0,0,1,333,391.9v29.96c0,2.858,4.416,7.744,16.49,12.113,12.459,4.508,29.288,6.991,47.143,6.991,3.38,0,6.718-.089,9.994-.264C392.564,439.952,379.591,437.629,369.49,433.974Z" style="fill:#d4e1f4"/><path d="M369.49,386.408C357.416,382.04,353,377.153,353,374.3v-21.78c-2.651-.729-5.193-1.525-7.592-2.392A59.973,59.973,0,0,1,333,344.33V374.3c0,2.858,4.416,7.745,16.49,12.113,12.459,4.509,29.288,6.991,47.143,6.991,3.38,0,6.718-.089,9.994-.264C392.564,392.386,379.591,390.063,369.49,386.408Z" style="fill:#d4e1f4"/><path d="M369.625,338.839c-11.3-4.09-16.358-9.029-16.358-12.11s5.058-8.019,16.358-12.109c10.1-3.656,22.984-5.98,37.008-6.729q-4.918-.262-10-.266c-17.85,0-34.544,2.484-47.008,7-11.3,4.09-16.358,9.029-16.358,12.109s5.058,8.02,16.358,12.11c12.464,4.511,29.158,6.994,47.008,6.994q5.073,0,10-.265C392.609,344.819,379.728,342.5,369.625,338.839Z" style="fill:#d4e1f4"/><path d="M369.49,481.87C357.416,477.5,353,472.615,353,469.757V447.65c-2.653-.729-5.195-1.524-7.594-2.392A59.9,59.9,0,0,1,333,439.466v30.291c0,2.858,4.416,7.745,16.49,12.113,12.459,4.509,29.287,6.992,47.143,6.992,3.38,0,6.718-.09,9.994-.265C392.563,487.848,379.591,485.525,369.49,481.87Z" style="fill:#d4e1f4"/><path d="M126.639,370H104.1a6,6,0,0,0,0,12h22.544a6,6,0,1,0,0-12Z" style="fill:#0635c9"/><path d="M126.422,419H103.878a6,6,0,0,0,0,12h22.544a6,6,0,1,0,0-12Z" style="fill:#0635c9"/><path d="M126.422,465H103.878a6,6,0,0,0,0,12h22.544a6,6,0,1,0,0-12Z" style="fill:#0635c9"/><path d="M407.905,370H385.361a6,6,0,0,0,0,12h22.544a6,6,0,0,0,0-12Z" style="fill:#0635c9"/><path d="M407.688,419H385.145a6,6,0,0,0,0,12h22.543a6,6,0,0,0,0-12Z" style="fill:#0635c9"/><path d="M407.688,465H385.145a6,6,0,0,0,0,12h22.543a6,6,0,0,0,0-12Z" style="fill:#0635c9"/><path d="M267.272,86H244.728a6,6,0,0,0,0,12h22.544a6,6,0,0,0,0-12Z" style="fill:#0635c9"/><path d="M244.511,146h22.545a6,6,0,0,0,0-12H244.511a6,6,0,1,0,0,12Z" style="fill:#0635c9"/><path d="M267.056,181H244.511a6,6,0,1,0,0,12h22.545a6,6,0,0,0,0-12Z" style="fill:#0635c9"/><path d="M326.854,392H185.146a6,6,0,1,0,0,12H326.854a6,6,0,1,0,0-12Z" style="fill:#1ae5be"/><rect x="96.1" y="247.316" width="139.447" height="12" transform="translate(-129.503 186.618) rotate(-44.064)" style="fill:#1ae5be"/><rect x="340.177" y="183.592" width="12" height="139.447" transform="translate(-76.6 325.892) rotate(-45.936)" style="fill:#1ae5be"/><path d="M166.591,303.336c-13.739-4.972-31.95-7.711-51.157-7.711s-37.386,2.739-51.125,7.711C44.245,310.6,40,320.065,40,326.729V469.757c0,6.667,4.211,16.138,24.273,23.4,13.736,4.971,31.881,7.708,51.094,7.708s37.491-2.737,51.227-7.708C186.656,485.9,191,476.424,191,469.757V326.729C191,320.065,186.655,310.6,166.591,303.336ZM179,420.87v.991c0,2.858-4.417,7.744-16.49,12.113-12.46,4.508-29.222,6.991-47.076,6.991s-34.584-2.483-47.044-6.991C56.317,429.605,52,424.719,52,421.861V391.9a64.309,64.309,0,0,0,12.273,5.792c13.737,4.97,31.882,7.707,51.094,7.707s37.491-2.737,51.226-7.707A59.913,59.913,0,0,0,179,391.9Zm0-46.575c0,2.858-4.417,7.745-16.49,12.113-12.459,4.509-29.221,6.991-47.076,6.991s-34.584-2.482-47.044-6.991C56.317,382.04,52,377.153,52,374.3V344.33a64.39,64.39,0,0,0,12.275,5.793c13.74,4.972,31.885,7.71,51.092,7.71s37.485-2.738,51.224-7.71A59.959,59.959,0,0,0,179,344.33ZM68.359,314.62c12.463-4.511,29.158-7,47.008-7s34.544,2.484,47.008,7c11.3,4.09,16.358,9.029,16.358,12.109s-5.058,8.02-16.358,12.11c-12.464,4.511-29.158,6.994-47.008,6.994s-34.545-2.483-47.008-6.994C57.059,334.749,52,329.81,52,326.729S57.059,318.71,68.359,314.62ZM162.51,481.87c-12.46,4.509-29.221,6.992-47.076,6.992S80.85,486.379,68.39,481.87C56.317,477.5,52,472.615,52,469.757V439.466a64.309,64.309,0,0,0,12.273,5.792c13.737,4.97,31.882,7.707,51.094,7.707s37.491-2.737,51.227-7.707A59.9,59.9,0,0,0,179,439.466v30.291C179,472.615,174.583,477.5,162.51,481.87Z" style="fill:#0635c9"/><path d="M447.725,303.336c-13.74-4.972-31.885-7.711-51.092-7.711s-37.485,2.739-51.224,7.711C325.345,310.6,321,320.065,321,326.729V469.757c0,6.667,4.344,16.138,24.406,23.4,13.736,4.971,31.948,7.708,51.16,7.708s37.392-2.737,51.127-7.708C467.756,485.9,472,476.424,472,469.757V326.729C472,320.065,467.788,310.6,447.725,303.336ZM460,420.87v.991c0,2.858-4.283,7.744-16.356,12.113-12.46,4.508-29.156,6.991-47.011,6.991s-34.683-2.483-47.143-6.991c-12.073-4.369-16.49-9.255-16.49-12.113V391.9a59.956,59.956,0,0,0,12.406,5.791c13.736,4.97,31.948,7.707,51.16,7.707s37.392-2.737,51.127-7.707A64.684,64.684,0,0,0,460,391.9Zm0-46.575c0,2.858-4.283,7.745-16.356,12.113-12.46,4.509-29.156,6.991-47.011,6.991s-34.683-2.482-47.143-6.991C337.417,382.04,333,377.153,333,374.3V344.33a59.959,59.959,0,0,0,12.409,5.793c13.739,4.972,31.95,7.71,51.157,7.71s37.386-2.738,51.125-7.71A64.766,64.766,0,0,0,460,344.33ZM349.625,314.62c12.464-4.511,29.158-7,47.008-7s34.545,2.484,47.008,7c11.3,4.09,16.359,9.029,16.359,12.109s-5.059,8.02-16.359,12.11c-12.463,4.511-29.158,6.994-47.008,6.994s-34.544-2.483-47.008-6.994c-11.3-4.09-16.358-9.029-16.358-12.11S338.325,318.71,349.625,314.62Zm94.019,167.25c-12.46,4.509-29.156,6.992-47.011,6.992s-34.683-2.483-47.143-6.992C337.417,477.5,333,472.615,333,469.757V439.466a59.9,59.9,0,0,0,12.406,5.792c13.736,4.97,31.948,7.707,51.16,7.707s37.391-2.737,51.127-7.707A64.684,64.684,0,0,0,460,439.466v30.291C460,472.615,455.717,477.5,443.644,481.87Z" style="fill:#0635c9"/><path d="M331,185.271V42.243c0-6.664-4.028-16.133-24.092-23.394-13.739-4.973-31.793-7.711-51-7.711s-37.123,2.738-50.862,7.711C184.982,26.11,181,35.579,181,42.243V185.271c0,6.666,4.027,16.137,24.09,23.4,13.735,4.97,31.789,7.708,51,7.708s37.129-2.738,50.864-7.708C327.019,201.408,331,191.937,331,185.271ZM319,89.809c0,2.857-4.1,7.744-16.173,12.112-12.46,4.509-29.063,6.992-46.919,6.992s-34.321-2.483-46.781-6.992C197.054,97.553,193,92.666,193,89.809V59.843a56.522,56.522,0,0,0,12.092,5.793c13.739,4.972,31.793,7.711,51,7.711s37.123-2.739,50.862-7.711A56.058,56.058,0,0,0,319,59.843ZM193,136.383v-28.97a56.479,56.479,0,0,0,12.09,5.792c13.736,4.97,31.79,7.708,51,7.708s37.128-2.738,50.864-7.708A56.016,56.016,0,0,0,319,107.413v29.962c0,2.857-4.1,7.744-16.173,12.112-12.46,4.509-29.063,6.992-46.919,6.992s-34.321-2.483-46.781-6.992C197.054,145.119,193,140.232,193,137.375Zm15.992-106.25c12.463-4.51,29.158-6.995,47.008-6.995s34.545,2.485,47.008,6.995c11.3,4.09,16.359,9.029,16.359,12.11s-5.058,8.019-16.359,12.109c-12.463,4.511-29.157,7-47.008,7s-34.545-2.484-47.008-7c-11.3-4.09-16.359-9.029-16.359-12.109S197.691,34.223,208.992,30.133Zm93.835,167.25c-12.46,4.509-29.063,6.992-46.919,6.992s-34.321-2.483-46.781-6.992C197.054,193.015,193,188.128,193,185.271V154.979a56.479,56.479,0,0,0,12.09,5.792c13.736,4.97,31.79,7.708,51,7.708s37.128-2.738,50.864-7.708A56.016,56.016,0,0,0,319,154.979v30.292C319,188.128,314.9,193.015,302.827,197.383Z" style="fill:#0635c9"/></svg>
