<?xml version="1.0"?>
<svg xmlns="http://www.w3.org/2000/svg" id="Layer_1" data-name="Layer 1" viewBox="0 0 512 512" width="512" height="512"><title>Database to Database2</title><path d="M283,310.5A43.573,43.573,0,0,1,326.655,267h-30a43.5,43.5,0,1,0,0,87h30A43.573,43.573,0,0,1,283,310.5Z" style="fill:#d4e1f4"/><path d="M283,438.5A43.573,43.573,0,0,1,326.655,395h-30a43.5,43.5,0,1,0,0,87h30A43.573,43.573,0,0,1,283,438.5Z" style="fill:#d4e1f4"/><path d="M61,73.5A43.573,43.573,0,0,1,104.655,30h-30a43.5,43.5,0,1,0,0,87h30A43.573,43.573,0,0,1,61,73.5Z" style="fill:#d4e1f4"/><path d="M61,201.5A43.573,43.573,0,0,1,104.655,158h-30a43.5,43.5,0,1,0,0,87h30A43.573,43.573,0,0,1,61,201.5Z" style="fill:#d4e1f4"/><path d="M270.828,201.491A55.637,55.637,0,0,0,221,146.311V128.689A55.489,55.489,0,0,0,215.345,18H74.655A55.489,55.489,0,0,0,69,128.689v17.622A55.489,55.489,0,0,0,74.655,257h140.69A55.446,55.446,0,0,0,270.828,201.491ZM81,146V129H209v17ZM31,73.5A43.573,43.573,0,0,1,74.655,30h140.69a43.5,43.5,0,1,1,0,87H74.655A43.573,43.573,0,0,1,31,73.5Zm0,128A43.573,43.573,0,0,1,74.655,158h140.69a43.5,43.5,0,1,1,0,87H74.655A43.573,43.573,0,0,1,31,201.5Z" style="fill:#0635c9"/><path d="M235.053,201.638a18.414,18.414,0,1,0-18.414,18.414A18.433,18.433,0,0,0,235.053,201.638Zm-24.827,0a6.414,6.414,0,1,1,6.413,6.414A6.42,6.42,0,0,1,210.226,201.638Z" style="fill:#0635c9"/><path d="M85.414,175H74.655a6,6,0,0,0,0,12H85.414a6,6,0,0,0,0-12Z" style="fill:#0635c9"/><path d="M85.414,216H74.655a6,6,0,1,0,0,12H85.414a6,6,0,0,0,0-12Z" style="fill:#0635c9"/><path d="M85.414,196H74.655a6,6,0,1,0,0,12H85.414a6,6,0,0,0,0-12Z" style="fill:#0635c9"/><path d="M216.639,91.775a18.414,18.414,0,1,0-18.413-18.413A18.433,18.433,0,0,0,216.639,91.775Zm0-24.827a6.414,6.414,0,1,1-6.413,6.414A6.421,6.421,0,0,1,216.639,66.948Z" style="fill:#0635c9"/><path d="M74.655,59H85.414a6,6,0,0,0,0-12H74.655a6,6,0,0,0,0,12Z" style="fill:#0635c9"/><path d="M85.414,100a6,6,0,0,0,0-12H74.655a6,6,0,0,0,0,12Z" style="fill:#0635c9"/><path d="M74.655,79H85.414a6,6,0,0,0,0-12H74.655a6,6,0,0,0,0,12Z" style="fill:#0635c9"/><path d="M121,175H110.241a6,6,0,1,0,0,12H121a6,6,0,0,0,0-12Z" style="fill:#0635c9"/><path d="M121,216H110.241a6,6,0,1,0,0,12H121a6,6,0,0,0,0-12Z" style="fill:#0635c9"/><path d="M121,196H110.241a6,6,0,1,0,0,12H121a6,6,0,0,0,0-12Z" style="fill:#0635c9"/><path d="M110.241,59H121a6,6,0,0,0,0-12H110.241a6,6,0,1,0,0,12Z" style="fill:#0635c9"/><path d="M110.241,100H121a6,6,0,0,0,0-12H110.241a6,6,0,1,0,0,12Z" style="fill:#0635c9"/><path d="M110.241,79H121a6,6,0,0,0,0-12H110.241a6,6,0,1,0,0,12Z" style="fill:#0635c9"/><path d="M166.984,91.775A18.414,18.414,0,1,0,148.57,73.362,18.433,18.433,0,0,0,166.984,91.775Zm0-24.827a6.414,6.414,0,1,1-6.414,6.414A6.421,6.421,0,0,1,166.984,66.948Z" style="fill:#0635c9"/><path d="M166.984,183.225A18.414,18.414,0,1,0,185.4,201.638,18.434,18.434,0,0,0,166.984,183.225Zm0,24.827a6.414,6.414,0,1,1,6.414-6.414A6.422,6.422,0,0,1,166.984,208.052Z" style="fill:#0635c9"/><path d="M420.226,438.638a18.414,18.414,0,1,0,18.413-18.413A18.435,18.435,0,0,0,420.226,438.638Zm18.413-6.413a6.414,6.414,0,1,1-6.413,6.413A6.421,6.421,0,0,1,438.639,432.225Z" style="fill:#0635c9"/><path d="M307.414,412H296.655a6,6,0,0,0,0,12h10.759a6,6,0,0,0,0-12Z" style="fill:#0635c9"/><path d="M307.414,453H296.655a6,6,0,0,0,0,12h10.759a6,6,0,0,0,0-12Z" style="fill:#0635c9"/><path d="M307.414,433H296.655a6,6,0,0,0,0,12h10.759a6,6,0,0,0,0-12Z" style="fill:#0635c9"/><path d="M492.828,310.509A55.446,55.446,0,0,0,437.345,255H296.655A55.489,55.489,0,0,0,291,365.689v17.622A55.489,55.489,0,0,0,296.655,494h140.69A55.489,55.489,0,0,0,443,383.311V365.689A55.637,55.637,0,0,0,492.828,310.509ZM253,310.5A43.573,43.573,0,0,1,296.655,267h140.69a43.5,43.5,0,1,1,0,87H296.655A43.573,43.573,0,0,1,253,310.5ZM303,383V366H431v17Zm178,55.5A43.573,43.573,0,0,1,437.345,482H296.655a43.5,43.5,0,1,1,0-87h140.69A43.573,43.573,0,0,1,481,438.5Z" style="fill:#0635c9"/><path d="M438.639,328.775a18.414,18.414,0,1,0-18.413-18.413A18.433,18.433,0,0,0,438.639,328.775Zm0-24.827a6.414,6.414,0,1,1-6.413,6.414A6.421,6.421,0,0,1,438.639,303.948Z" style="fill:#0635c9"/><path d="M296.655,296h10.759a6,6,0,0,0,0-12H296.655a6,6,0,0,0,0,12Z" style="fill:#0635c9"/><path d="M307.414,337a6,6,0,0,0,0-12H296.655a6,6,0,0,0,0,12Z" style="fill:#0635c9"/><path d="M296.655,316h10.759a6,6,0,0,0,0-12H296.655a6,6,0,0,0,0,12Z" style="fill:#0635c9"/><path d="M343,412H332.241a6,6,0,0,0,0,12H343a6,6,0,0,0,0-12Z" style="fill:#0635c9"/><path d="M343,453H332.241a6,6,0,0,0,0,12H343a6,6,0,0,0,0-12Z" style="fill:#0635c9"/><path d="M343,433H332.241a6,6,0,0,0,0,12H343a6,6,0,0,0,0-12Z" style="fill:#0635c9"/><path d="M332.241,296H343a6,6,0,0,0,0-12H332.241a6,6,0,0,0,0,12Z" style="fill:#0635c9"/><path d="M332.241,337H343a6,6,0,0,0,0-12H332.241a6,6,0,0,0,0,12Z" style="fill:#0635c9"/><path d="M332.241,316H343a6,6,0,0,0,0-12H332.241a6,6,0,0,0,0,12Z" style="fill:#0635c9"/><path d="M388.984,328.775a18.414,18.414,0,1,0-18.414-18.413A18.433,18.433,0,0,0,388.984,328.775Zm0-24.827a6.414,6.414,0,1,1-6.414,6.414A6.421,6.421,0,0,1,388.984,303.948Z" style="fill:#0635c9"/><path d="M388.984,420.225A18.414,18.414,0,1,0,407.4,438.638,18.434,18.434,0,0,0,388.984,420.225Zm0,24.827a6.414,6.414,0,1,1,6.414-6.414A6.422,6.422,0,0,1,388.984,445.052Z" style="fill:#0635c9"/><path d="M425.184,189.758,393,221.941V137a6,6,0,0,0-6-6H277a6,6,0,0,0,0,12H381v78.941l-32.184-32.183a6,6,0,1,0-8.485,8.484l42.426,42.427a6,6,0,0,0,8.486,0l42.426-42.427a6,6,0,1,0-8.485-8.484Z" style="fill:#1ae5be"/><path d="M233,368H129V289.059l32.184,32.183a6,6,0,0,0,8.485-8.484l-42.426-42.427a6,6,0,0,0-8.486,0L76.331,312.758a6,6,0,1,0,8.485,8.484L117,289.059V374a6,6,0,0,0,6,6H233a6,6,0,0,0,0-12Z" style="fill:#1ae5be"/></svg>
