<?xml version="1.0"?>
<svg xmlns="http://www.w3.org/2000/svg" id="Layer_1" data-name="Layer 1" viewBox="0 0 512 512" width="512" height="512"><title>Database</title><path d="M171.97,339.822c-25.4-9.191-39.97-21.129-39.97-32.751V241.507a84.166,84.166,0,0,1-20-13.354v78.918c0,11.622,14.568,23.56,39.97,32.751C179.656,349.84,216.6,355.357,256,355.357c3.355,0,6.685-.055,10-.134C230.384,354.37,197.3,348.987,171.97,339.822Z" style="fill:#d4e1f4"/><path d="M171.97,236.965c-25.4-9.191-39.97-21.129-39.97-32.751V138.64a84.2,84.2,0,0,1-20-13.353v78.927c0,11.622,14.568,23.56,39.97,32.751C179.656,246.983,216.6,252.5,256,252.5c3.355,0,6.685-.055,10-.134C230.384,251.513,197.3,246.13,171.97,236.965Z" style="fill:#d4e1f4"/><path d="M171.97,443.394C146.568,434.2,132,422.265,132,410.643V344.364a84.166,84.166,0,0,1-20-13.354v79.633c0,11.622,14.568,23.56,39.97,32.751C179.656,453.412,216.6,458.929,256,458.929c3.355,0,6.685-.055,10-.134C230.384,457.942,197.3,452.559,171.97,443.394Z" style="fill:#d4e1f4"/><path d="M171.976,134.1C146.571,124.907,132,112.972,132,101.357s14.571-23.549,39.976-32.744C197.31,59.445,230.394,54.059,266,53.206c-3.316-.08-6.645-.135-10-.135-39.388,0-76.331,5.52-104.024,15.542C126.571,77.808,112,89.742,112,101.357s14.571,23.55,39.976,32.744c27.693,10.023,64.636,15.542,104.024,15.542,3.355,0,6.684-.055,10-.134C230.394,148.655,197.31,143.27,171.976,134.1Z" style="fill:#d4e1f4"/><path d="M256,41.071c-40.745,0-79.138,5.774-108.108,16.259C117.008,68.506,100,84.142,100,101.357V410.643c0,17.223,17.007,32.861,47.887,44.035,28.962,10.479,67.357,16.251,108.113,16.251s79.151-5.772,108.113-16.251C394.993,443.5,412,427.866,412,410.643V101.357c0-17.215-17.008-32.851-47.892-44.027C335.138,46.845,296.745,41.071,256,41.071Zm144,266c0,11.622-14.568,23.56-39.97,32.751C332.344,349.84,295.4,355.357,256,355.357s-76.344-5.517-104.03-15.535c-25.4-9.191-39.97-21.129-39.97-32.751V228.153c8.116,7.6,20.209,14.423,35.887,20.1C176.849,258.729,215.244,264.5,256,264.5s79.151-5.771,108.113-16.251c15.678-5.673,27.771-12.5,35.887-20.1v78.918Zm-39.97-70.106C332.344,246.983,295.4,252.5,256,252.5s-76.344-5.517-104.03-15.535c-25.4-9.191-39.97-21.129-39.97-32.751V125.287c8.117,7.6,20.212,14.423,35.892,20.1,28.969,10.484,67.363,16.258,108.108,16.258s79.139-5.774,108.108-16.258c15.68-5.675,27.775-12.5,35.892-20.1v78.927C400,215.836,385.432,227.774,360.03,236.965Zm0,206.429C332.344,453.412,295.4,458.929,256,458.929s-76.344-5.517-104.03-15.535C126.568,434.2,112,422.265,112,410.643V331.01c8.116,7.6,20.209,14.423,35.887,20.1,28.962,10.479,67.357,16.251,108.113,16.251s79.151-5.772,108.113-16.251c15.678-5.673,27.771-12.5,35.887-20.1v79.633C400,422.265,385.432,434.2,360.03,443.394ZM400,101.357c0,11.615-14.571,23.55-39.976,32.744C332.331,144.124,295.388,149.643,256,149.643s-76.331-5.519-104.024-15.542C126.571,124.907,112,112.972,112,101.357s14.571-23.549,39.976-32.744C179.669,58.591,216.612,53.071,256,53.071s76.331,5.52,104.024,15.542C385.429,77.808,400,89.742,400,101.357Z" style="fill:#0635c9"/><path d="M202.17,209.363A398.944,398.944,0,0,0,256,212.906a408.507,408.507,0,0,0,43.051-2.234,6,6,0,0,0-1.27-11.933A396.278,396.278,0,0,1,256,200.906a387.005,387.005,0,0,1-52.2-3.432,6,6,0,0,0-1.626,11.889Z" style="fill:#1ae5be"/><path d="M304.382,406.74a6,6,0,0,0-6.6-5.331A396.278,396.278,0,0,1,256,403.576a386.883,386.883,0,0,1-52.2-3.433,6,6,0,0,0-1.626,11.89A398.988,398.988,0,0,0,256,415.576a408.507,408.507,0,0,0,43.051-2.234A6,6,0,0,0,304.382,406.74Z" style="fill:#1ae5be"/><path d="M325.107,194.985a17.922,17.922,0,1,0,17.922-17.922A17.942,17.942,0,0,0,325.107,194.985Zm23.843,0a5.922,5.922,0,1,1-5.921-5.922A5.928,5.928,0,0,1,348.95,194.985Z" style="fill:#1ae5be"/><path d="M202.17,310.7A398.988,398.988,0,0,0,256,314.241a408.507,408.507,0,0,0,43.051-2.234,6,6,0,0,0-1.27-11.933A396.278,396.278,0,0,1,256,302.241a386.883,386.883,0,0,1-52.2-3.433,6,6,0,0,0-1.626,11.89Z" style="fill:#1ae5be"/><path d="M343.029,278.4a17.922,17.922,0,1,0,17.921,17.921A17.942,17.942,0,0,0,343.029,278.4Zm0,23.843a5.922,5.922,0,1,1,5.921-5.922A5.929,5.929,0,0,1,343.029,302.241Z" style="fill:#1ae5be"/><path d="M343.029,379.732a17.922,17.922,0,1,0,17.921,17.922A17.943,17.943,0,0,0,343.029,379.732Zm0,23.844a5.922,5.922,0,1,1,5.921-5.922A5.929,5.929,0,0,1,343.029,403.576Z" style="fill:#1ae5be"/></svg>
