<?xml version="1.0"?>
<svg xmlns="http://www.w3.org/2000/svg" id="Layer_1" data-name="Layer 1" viewBox="0 0 512 512" width="512" height="512"><title>Database3</title><path d="M172,160.737V115.8c-.971-.329-1.949-.655-2.9-1-11.456-4.146-20.565-9.075-27.1-14.56v60.495c0,17.7,46.818,37.429,114,37.429q7.684,0,15-.336C211.952,195.168,172,177.091,172,160.737Z" style="fill:#d4e1f4"/><path d="M172,243.023v-44.93c-.972-.33-1.951-.656-2.9-1-11.455-4.145-20.563-9.074-27.1-14.559v60.488c0,17.7,46.818,37.429,114,37.429q7.684,0,15-.336C211.952,277.454,172,259.376,172,243.023Z" style="fill:#d4e1f4"/><path d="M172,78.452c0-16.354,39.952-34.431,99-37.093q-7.312-.33-15-.336c-67.182,0-114,19.726-114,37.429s46.818,37.428,114,37.428q7.684,0,15-.336C211.952,112.882,172,94.805,172,78.452Z" style="fill:#d4e1f4"/><path d="M172,325.88v-45.5c-.972-.331-1.951-.657-2.9-1-11.455-4.145-20.563-9.073-27.1-14.558V325.88c0,17.7,46.818,37.429,114,37.429q7.684,0,15-.336C211.952,360.311,172,342.234,172,325.88Z" style="fill:#d4e1f4"/><path d="M290.654,153.522A328.5,328.5,0,0,1,256,155.32a320.852,320.852,0,0,1-43.3-2.847,6,6,0,1,0-1.626,11.89A332.957,332.957,0,0,0,256,167.32a340.781,340.781,0,0,0,35.926-1.865,6,6,0,0,0-1.272-11.933Z" style="fill:#0635c9"/><path d="M328.408,135.482A15.919,15.919,0,1,0,344.327,151.4,15.938,15.938,0,0,0,328.408,135.482Zm0,19.838a3.919,3.919,0,1,1,3.919-3.919A3.923,3.923,0,0,1,328.408,155.32Z" style="fill:#0635c9"/><path d="M211.078,248.673A332.957,332.957,0,0,0,256,251.63a340.784,340.784,0,0,0,35.926-1.864,6,6,0,0,0-1.272-11.933A328.5,328.5,0,0,1,256,239.63a320.855,320.855,0,0,1-43.3-2.846,6,6,0,1,0-1.626,11.889Z" style="fill:#0635c9"/><path d="M328.408,251.63a15.919,15.919,0,1,0-15.919-15.918A15.937,15.937,0,0,0,328.408,251.63Zm0-19.837a3.919,3.919,0,1,1-3.919,3.919A3.923,3.923,0,0,1,328.408,231.793Z" style="fill:#0635c9"/><path d="M290.654,322.144a328.771,328.771,0,0,1-34.654,1.8,320.852,320.852,0,0,1-43.3-2.847,6,6,0,1,0-1.626,11.89A332.957,332.957,0,0,0,256,335.941a340.781,340.781,0,0,0,35.926-1.865,6,6,0,0,0-1.272-11.932Z" style="fill:#0635c9"/><path d="M328.408,304.1a15.919,15.919,0,1,0,15.919,15.918A15.937,15.937,0,0,0,328.408,304.1Zm0,19.837a3.919,3.919,0,1,1,3.919-3.919A3.923,3.923,0,0,1,328.408,323.941Z" style="fill:#0635c9"/><path d="M371.744,429.989A24.441,24.441,0,0,0,348.5,448H284.372A29.372,29.372,0,0,0,262,425.605V367H250v58.605A29.372,29.372,0,0,0,227.628,448H163.935a24.408,24.408,0,0,0-23.679-20.116,24,24,0,0,0,0,48A24.392,24.392,0,0,0,162.844,460h64.784a29,29,0,0,0,56.744,0H348.5a24.422,24.422,0,0,0,23.24,17.989,24,24,0,0,0,0-48ZM140.256,463.872a12,12,0,1,1,12-12A12.013,12.013,0,0,1,140.256,463.872ZM256,470.977a17,17,0,1,1,17-17A17.019,17.019,0,0,1,256,470.977Zm115.744-5a12,12,0,1,1,12-12A12.013,12.013,0,0,1,371.744,465.977Z" style="fill:#1ae5be"/><path d="M382,325.88V78.452C382,64.137,368.112,51.228,342.9,42.1c-23.3-8.434-54.164-13.078-86.895-13.078s-63.592,4.644-86.9,13.078C143.888,51.228,130,64.137,130,78.452V325.88c0,14.321,13.887,27.233,39.1,36.356,23.3,8.43,54.157,13.073,86.9,13.073s63.6-4.643,86.9-13.073C368.113,353.113,382,340.2,382,325.88ZM370,160.737c0,17.7-46.818,37.429-114,37.429S142,178.44,142,160.737V100.242c6.54,5.485,15.649,10.414,27.1,14.56,23.3,8.434,54.164,13.078,86.9,13.078s63.592-4.644,86.895-13.078c11.457-4.146,20.565-9.075,27.105-14.56ZM142,241.309V182.535c6.539,5.485,15.647,10.414,27.1,14.559,23.3,8.429,54.157,13.072,86.9,13.072s63.6-4.643,86.9-13.072c11.456-4.145,20.563-9.074,27.1-14.559v60.488c0,17.7-46.818,37.429-114,37.429s-114-19.726-114-37.429ZM256,41.023c67.182,0,114,19.726,114,37.429S323.182,115.88,256,115.88,142,96.155,142,78.452,188.818,41.023,256,41.023ZM142,325.88V264.821c6.539,5.485,15.647,10.413,27.1,14.558,23.3,8.43,54.157,13.073,86.9,13.073s63.6-4.643,86.9-13.073c11.456-4.145,20.563-9.073,27.1-14.558V325.88c0,17.7-46.818,37.429-114,37.429S142,343.583,142,325.88Z" style="fill:#0635c9"/></svg>
