<?xml version="1.0"?>
<svg xmlns="http://www.w3.org/2000/svg" id="Layer_1" data-name="Layer 1" viewBox="0 0 512 512" width="512" height="512"><title>Global Cloud</title><path d="M244.716,320.169c0-.513.016-.924.048-1.427a24.042,24.042,0,0,1,17-21.419,5.972,5.972,0,0,0,4.217-6.432,35.443,35.443,0,0,1,32.565-39.505,6,6,0,0,0,4.832-3.112,52.859,52.859,0,0,1,31.406-25.423,52.74,52.74,0,0,0-61.406,25.423,6,6,0,0,1-4.832,3.112,35.443,35.443,0,0,0-32.565,39.505,5.972,5.972,0,0,1-4.217,6.432,24.042,24.042,0,0,0-17,21.419c-.032.5-.048.914-.048,1.427A23.887,23.887,0,0,0,238.746,344h30A23.887,23.887,0,0,1,244.716,320.169Z" style="fill:#d4e1f4"/><path d="M237.067,27.787c-86.018,0-156,69.981-156,156A156.046,156.046,0,0,0,209.816,337.414L211.9,325.6a144.059,144.059,0,0,1-77.949-41.307,141.1,141.1,0,0,1,26.613-21.343c10.17,24.287,25.235,44.937,44.481,60.222l7.463-9.4c-17.985-14.283-32.047-33.755-41.446-56.746A145.867,145.867,0,0,1,231,241.436V263h12V241.439a148.288,148.288,0,0,1,27.491,3.748l2.752-11.676A159.274,159.274,0,0,0,243,229.429V190h73.585a214.048,214.048,0,0,1-2.007,24.022l11.881,1.746A219.056,219.056,0,0,0,328.588,190h52.345a143.373,143.373,0,0,1-13.589,55.329l10.849,5.073a154.739,154.739,0,0,0,14.874-66.589C393.067,97.8,323.086,27.787,237.067,27.787ZM347.823,91.97A142.612,142.612,0,0,1,380.933,178H328.591c-.56-23-4.232-43.273-10.7-62.192A154.121,154.121,0,0,0,347.823,91.97Zm-8.06-9.018a141.829,141.829,0,0,1-26.221,21.28C303.035,79.278,287.32,58.35,267.251,42.979A143.925,143.925,0,0,1,339.763,82.952ZM93.2,178a142.137,142.137,0,0,1,32.764-85.62,153.485,153.485,0,0,0,30.176,23.759A209.5,209.5,0,0,0,145.545,178Zm73.626-56.044A155.6,155.6,0,0,0,231,138.145V178H157.544A197.815,197.815,0,0,1,166.828,121.956Zm4.116-11.448C183.383,80.078,204,56.058,231,41.634v84.5A146.137,146.137,0,0,1,170.944,110.508ZM243,41.634c27,14.385,47.508,38.311,59.956,68.622A143.932,143.932,0,0,1,243,126.134Zm-36.116,1.345c-20.158,15.439-35.921,36.485-46.428,61.585A141.122,141.122,0,0,1,134,83.335,143.918,143.918,0,0,1,206.884,42.979ZM125.926,275.447A144.44,144.44,0,0,1,93.2,190h52.348a207.453,207.453,0,0,0,10.692,61.7A152.918,152.918,0,0,0,125.926,275.447ZM231,229.428A155.7,155.7,0,0,0,166.887,245.8a195.377,195.377,0,0,1-9.336-55.8H231Zm12-91.285A153.729,153.729,0,0,0,307.159,121.7a198.333,198.333,0,0,1,9.433,56.3H243Z" style="fill:#0635c9"/><path d="M371.165,457.268A20.953,20.953,0,0,0,355,436.42v-11.6a30.806,30.806,0,0,0-16.149-27.184A18.817,18.817,0,0,1,329,381.009V356h28.633a34.435,34.435,0,0,0,24.48,32.2A22.611,22.611,0,0,1,398,409.934v12.532a21.461,21.461,0,0,0-15.39,20.763,21.737,21.737,0,0,0,21.729,21.615,21.5,21.5,0,0,0,21.446-21.615A21.812,21.812,0,0,0,410,422.466V409.934c0-15.176-9.943-28.965-24.5-33.247C376.349,374,370.105,366,369.655,356h6.629A54.5,54.5,0,0,0,379.1,247.074a64.879,64.879,0,0,0-114.669-7.326,47.637,47.637,0,0,0-40.7,46.975c0,.291,0,.589.008.88a36.19,36.19,0,0,0-20.958,30.489c-.047.76-.071,1.327-.071,2.076A35.9,35.9,0,0,0,238.746,356H257v20.314a11.331,11.331,0,0,1-8.774,11.277,23.4,23.4,0,0,0-18.226,23v31.243A21.8,21.8,0,0,0,214.226,462.6,21.636,21.636,0,1,0,242,441.836V410.593a11.33,11.33,0,0,1,8.774-11.276,23.4,23.4,0,0,0,18.226-23V356h27.293c-.511,7-4.342,12.363-10.426,14.9A29.407,29.407,0,0,0,268,398.258V404.6a21.874,21.874,0,0,0-15.855,20.762,21.538,21.538,0,0,0,21.5,21.615,21.794,21.794,0,0,0,21.795-21.615A21.5,21.5,0,0,0,280,404.6v-6.341a17.438,17.438,0,0,1,10.482-16.282C301.053,377.571,307.771,368,308.3,356H317v25.009a30.805,30.805,0,0,0,16.148,27.183A18.82,18.82,0,0,1,343,424.818v11.773c-8,2.7-15.067,10.948-15.067,20.677a21.616,21.616,0,0,0,43.232,0Zm42.9-14.039a9.616,9.616,0,1,1-9.615-9.616A9.626,9.626,0,0,1,414.067,443.229ZM245.3,462.6a9.616,9.616,0,1,1-9.615-9.616A9.626,9.626,0,0,1,245.3,462.6Zm37.838-37.237a9.616,9.616,0,1,1-9.616-9.616A9.626,9.626,0,0,1,283.137,425.361ZM214.716,320.169c0-.513.016-.924.048-1.427a24.042,24.042,0,0,1,17-21.419,5.972,5.972,0,0,0,4.217-6.432,35.443,35.443,0,0,1,32.565-39.505,6,6,0,0,0,4.832-3.112,52.873,52.873,0,0,1,96.039,6.923,5.985,5.985,0,0,0,5.809,3.92c.348-.01.7-.015,1.057-.015a42.449,42.449,0,1,1,0,84.9H238.746A23.887,23.887,0,0,1,214.716,320.169ZM349.8,466.883a9.616,9.616,0,1,1,9.616-9.615A9.626,9.626,0,0,1,349.8,466.883Z" style="fill:#1ae5be"/></svg>
