<?xml version="1.0"?>
<svg xmlns="http://www.w3.org/2000/svg" id="Layer_1" data-name="Layer 1" viewBox="0 0 512 512" width="512" height="512"><title>Globe</title><path d="M166.436,327.416A113.445,113.445,0,0,1,141.38,262h39.459a167.6,167.6,0,0,0,8.207,47.713A123.731,123.731,0,0,0,166.436,327.416Z" style="fill:#d4e1f4"/><path d="M189.046,202.287A167.6,167.6,0,0,0,180.839,250H141.38a113.445,113.445,0,0,1,25.056-65.416A123.731,123.731,0,0,0,189.046,202.287Z" style="fill:#d4e1f4"/><path d="M226.206,145.747c-13.98,11.82-25.082,27.151-32.814,45.107a111.632,111.632,0,0,1-18.939-15.224A114.043,114.043,0,0,1,226.206,145.747Z" style="fill:#d4e1f4"/><path d="M174.453,336.37a111.632,111.632,0,0,1,18.939-15.224c7.732,17.956,18.834,33.287,32.814,45.107A114.043,114.043,0,0,1,174.453,336.37Z" style="fill:#d4e1f4"/><path d="M58.417,292h9.372a27.255,27.255,0,0,0,24.153-14.224,15.347,15.347,0,0,1,13.57-8.019l32.083.2.056-11.977-32.111-.143a27.268,27.268,0,0,0-24.155,14.231A15.276,15.276,0,0,1,67.789,280H58.231c-2.614-7-9.868-13.018-18.4-13.018A19.434,19.434,0,1,0,58.417,292ZM32.37,286.619a7.457,7.457,0,1,1,7.456,7.456A7.465,7.465,0,0,1,32.37,286.619Z" style="fill:#1ae5be"/><path d="M98.376,334.807A18.53,18.53,0,0,1,80.614,348H70.424a19.425,19.425,0,0,0-37.956,5.786,19.569,19.569,0,0,0,19.456,19.563A19.137,19.137,0,0,0,70.424,360h10.19a30.6,30.6,0,0,0,29.274-21.807A18.528,18.528,0,0,1,127.649,325H153V313H127.649A30.6,30.6,0,0,0,98.376,334.807ZM51.924,361.171a7.456,7.456,0,1,1,7.457-7.456A7.463,7.463,0,0,1,51.924,361.171Z" style="fill:#1ae5be"/><path d="M100.679,168.726A21.32,21.32,0,0,0,80.047,152H53.732a19.1,19.1,0,0,0-18.5-13.314,19.439,19.439,0,1,0,0,38.877A19.324,19.324,0,0,0,53.732,164H80.047a9.251,9.251,0,0,1,8.905,7.275A21.324,21.324,0,0,0,109.585,188H161V176H109.585A9.252,9.252,0,0,1,100.679,168.726Zm-65.446-2.985a7.456,7.456,0,1,1,7.456-7.456A7.465,7.465,0,0,1,35.233,165.741Z" style="fill:#1ae5be"/><path d="M85.82,217h4.856a14.223,14.223,0,0,1,13.094,8.808A26.185,26.185,0,0,0,127.938,242H138V230H127.938a14.22,14.22,0,0,1-13.093-8.807A26.186,26.186,0,0,0,90.676,205H85.82a19.441,19.441,0,0,0-37.955,5.918,19.513,19.513,0,0,0,19.456,19.5A19.193,19.193,0,0,0,85.82,217Zm-25.955-6.11a7.456,7.456,0,1,1,7.456,7.456A7.465,7.465,0,0,1,59.865,210.89Z" style="fill:#1ae5be"/><path d="M472.174,266.982c-8.537,0-15.791,6.018-18.4,13.018h-9.558a15.272,15.272,0,0,1-13.6-7.929,27.352,27.352,0,0,0-24.182-14.314l-32.083.2.056,12.023,32.055-.143a15.28,15.28,0,0,1,13.6,7.934A27.261,27.261,0,0,0,444.211,292h9.372a19.433,19.433,0,1,0,18.591-25.018Zm0,27.093a7.457,7.457,0,1,1,7.456-7.456A7.465,7.465,0,0,1,472.174,294.075Z" style="fill:#1ae5be"/><path d="M460.076,334.4a19.357,19.357,0,0,0-18.5,13.6h-10.19a18.53,18.53,0,0,1-17.762-13.193A30.6,30.6,0,0,0,384.351,313H359v12h25.351a18.528,18.528,0,0,1,17.761,13.193A30.6,30.6,0,0,0,431.386,360h10.19a19.106,19.106,0,0,0,18.5,13.314,19.457,19.457,0,0,0,0-38.913Zm0,26.77a7.456,7.456,0,1,1,7.456-7.456A7.464,7.464,0,0,1,460.076,361.171Z" style="fill:#1ae5be"/><path d="M476.767,138.686A19.1,19.1,0,0,0,458.268,152H431.953a21.32,21.32,0,0,0-20.632,16.725A9.252,9.252,0,0,1,402.415,176H351v12h51.415a21.324,21.324,0,0,0,20.633-16.726,9.251,9.251,0,0,1,8.9-7.274h26.315a19.433,19.433,0,1,0,18.5-25.314Zm0,27.055a7.456,7.456,0,1,1,7.456-7.456A7.464,7.464,0,0,1,476.767,165.741Z" style="fill:#1ae5be"/><path d="M408.231,225.808A14.22,14.22,0,0,1,421.324,217h4.856a19.181,19.181,0,0,0,18.5,13.4,19.449,19.449,0,1,0,0-38.9,19.266,19.266,0,0,0-18.5,13.5h-4.856a26.189,26.189,0,0,0-24.17,16.193A14.219,14.219,0,0,1,384.062,230H374v12h10.062A26.188,26.188,0,0,0,408.231,225.808Zm36.448-22.374a7.456,7.456,0,1,1-7.456,7.456A7.465,7.465,0,0,1,444.679,203.434Z" style="fill:#1ae5be"/><path d="M255.223,130a126,126,0,1,0,126,126A126.142,126.142,0,0,0,255.223,130ZM166.436,327.416A113.445,113.445,0,0,1,141.38,262h39.459a167.6,167.6,0,0,0,8.207,47.713A123.731,123.731,0,0,0,166.436,327.416Zm22.61-125.129A167.6,167.6,0,0,0,180.839,250H141.38a113.445,113.445,0,0,1,25.056-65.416A123.731,123.731,0,0,0,189.046,202.287ZM261,367.68V303.371a113.116,113.116,0,0,1,45.225,12.021C296.611,338.232,281,356.384,261,367.68Zm0-76.318V262h56.6a156.231,156.231,0,0,1-7.1,42.052A123.215,123.215,0,0,0,261,291.362ZM261,250V220.638a123.215,123.215,0,0,0,49.5-12.69A156.231,156.231,0,0,1,317.6,250Zm0-41.371V144.32c20,11.3,35.611,29.448,45.225,52.288A113.116,113.116,0,0,1,261,208.629Zm23.239-62.882a114.04,114.04,0,0,1,51.453,29.58,112.208,112.208,0,0,1-18.756,15.258C309.209,172.745,298.149,157.508,284.239,145.747ZM249,144.321v64.311A114.908,114.908,0,0,1,203.691,196.8C213.3,173.871,229,155.649,249,144.321Zm0,76.319V250H192.85a156.363,156.363,0,0,1,6.812-41.851A128.294,128.294,0,0,0,249,220.64ZM192.85,262H249v29.36a128.294,128.294,0,0,0-49.338,12.491A156.363,156.363,0,0,1,192.85,262ZM249,303.368v64.311c-20-11.328-35.7-29.55-45.309-52.483A114.908,114.908,0,0,1,249,303.368Zm67.936,18.047a112.208,112.208,0,0,1,18.756,15.258,114.04,114.04,0,0,1-51.453,29.58C298.149,354.492,309.209,339.255,316.936,321.415Zm4.377-11.435A167.459,167.459,0,0,0,329.607,262h39.458a113.443,113.443,0,0,1-25.325,65.75A124.193,124.193,0,0,0,321.313,309.98ZM329.607,250a167.459,167.459,0,0,0-8.294-47.98,124.193,124.193,0,0,0,22.427-17.77A113.443,113.443,0,0,1,369.065,250Zm-103.4-104.253c-13.98,11.82-25.082,27.151-32.814,45.107a111.632,111.632,0,0,1-18.939-15.224A114.043,114.043,0,0,1,226.206,145.747ZM174.453,336.37a111.632,111.632,0,0,1,18.939-15.224c7.732,17.956,18.834,33.287,32.814,45.107A114.043,114.043,0,0,1,174.453,336.37Z" style="fill:#0635c9"/></svg>
