<?xml version="1.0"?>
<svg xmlns="http://www.w3.org/2000/svg" id="Layer_1" data-name="Layer 1" viewBox="0 0 512 512" width="512" height="512"><title>Refresh Globe and server</title><path d="M41.2,262H72.055a140.639,140.639,0,0,0,6.6,38.317A104.1,104.1,0,0,0,61.1,314.026,93.522,93.522,0,0,1,41.2,262Z" style="fill:#d4e1f4"/><path d="M61.1,197.974a104.1,104.1,0,0,0,17.559,13.709A140.639,140.639,0,0,0,72.055,250H41.2A93.522,93.522,0,0,1,61.1,197.974Z" style="fill:#d4e1f4"/><path d="M83.029,200.238a92.089,92.089,0,0,1-13.921-11.207,94.1,94.1,0,0,1,37.745-22.725A102.85,102.85,0,0,0,83.029,200.238Z" style="fill:#d4e1f4"/><path d="M83.029,311.762a102.85,102.85,0,0,0,23.824,33.932,94.1,94.1,0,0,1-37.745-22.725A92.089,92.089,0,0,1,83.029,311.762Z" style="fill:#d4e1f4"/><path d="M353,288.238V263.723a125.171,125.171,0,0,1-14.613-4.224A69.888,69.888,0,0,1,323,251.989v36.249c0,9.359,28.827,22.952,74,22.952,5.118,0,10.153-.177,15.055-.522C375.573,308.1,353,296.518,353,288.238Z" style="fill:#d4e1f4"/><path d="M353,233.381V208.864a125.423,125.423,0,0,1-14.61-4.225A69.957,69.957,0,0,1,323,197.126v36.255c0,9.358,28.827,22.952,74,22.952,5.118,0,10.153-.178,15.055-.522C375.573,253.247,353,241.66,353,233.381Z" style="fill:#d4e1f4"/><path d="M353,178.523c0-8.275,22.551-19.854,59-22.426-4.771-.337-9.771-.526-15-.526-45.173,0-74,13.594-74,22.952s28.827,22.954,74,22.954c5.229,0,10.229-.19,15-.526C375.551,198.379,353,186.8,353,178.523Z" style="fill:#d4e1f4"/><path d="M353,343.477v-24.9a125.363,125.363,0,0,1-14.613-4.225A69.888,69.888,0,0,1,323,306.846v36.631c0,9.358,28.827,22.952,74,22.952,5.118,0,10.153-.178,15.055-.523C375.573,363.343,353,351.756,353,343.477Z" style="fill:#d4e1f4"/><path d="M455.61,152.409c-15.748-5.7-36.563-8.838-58.61-8.838s-42.862,3.139-58.61,8.838C315.752,160.6,311,171.133,311,178.523V343.477c0,7.394,4.751,17.927,27.387,26.118,15.744,5.7,36.56,8.834,58.613,8.834s42.869-3.138,58.613-8.834C478.249,361.4,483,350.871,483,343.477V178.523C483,171.133,478.248,160.6,455.61,152.409ZM471,287.1v1.142c0,3.766-5.115,9.64-19.47,14.834-14.468,5.236-33.834,8.118-54.53,8.118-45.173,0-74-13.593-74-22.952V251.989a69.888,69.888,0,0,0,15.387,7.51c15.744,5.7,36.56,8.834,58.613,8.834s42.869-3.138,58.613-8.834A69.888,69.888,0,0,0,471,251.989Zm0-53.715c0,3.765-5.115,9.64-19.47,14.834-14.468,5.235-33.834,8.118-54.53,8.118-45.173,0-74-13.594-74-22.952V197.126a69.957,69.957,0,0,0,15.39,7.513c15.748,5.7,36.563,8.838,58.61,8.838s42.862-3.139,58.61-8.838A69.957,69.957,0,0,0,471,197.126Zm-74-77.81c45.173,0,74,13.594,74,22.952s-28.827,22.954-74,22.954-74-13.595-74-22.954S351.827,155.571,397,155.571Zm54.53,202.74c-14.468,5.235-33.834,8.118-54.53,8.118-45.173,0-74-13.594-74-22.952V306.846a69.888,69.888,0,0,0,15.387,7.51c15.744,5.7,36.56,8.834,58.613,8.834s42.869-3.137,58.613-8.834A69.888,69.888,0,0,0,471,306.846v36.631C471,347.242,465.885,353.116,451.53,358.311Z" style="fill:#0635c9"/><path d="M135,150A106,106,0,1,0,241,256,106.121,106.121,0,0,0,135,150Zm73.687,164.3a104.551,104.551,0,0,0-17.417-13.748A140.55,140.55,0,0,0,197.945,262H228.8A93.522,93.522,0,0,1,208.687,314.3ZM41.2,262H72.055a140.639,140.639,0,0,0,6.6,38.317A104.1,104.1,0,0,0,61.1,314.026,93.522,93.522,0,0,1,41.2,262Zm19.9-64.026a104.1,104.1,0,0,0,17.559,13.709A140.639,140.639,0,0,0,72.055,250H41.2A93.522,93.522,0,0,1,61.1,197.974ZM129,164.648v50.814A94.861,94.861,0,0,1,93.539,206.2C101.243,188.261,113.343,173.879,129,164.648Zm0,62.84V250H84.064A129.482,129.482,0,0,1,89.4,217.512,106.922,106.922,0,0,0,129,227.488ZM129,262v22.512a106.922,106.922,0,0,0-39.6,9.976A129.482,129.482,0,0,1,84.064,262Zm0,34.538v50.814c-15.657-9.231-27.757-23.613-35.461-41.552A94.861,94.861,0,0,1,129,296.538Zm12,50.814v-50.81a93.582,93.582,0,0,1,35.392,9.419C168.685,323.824,156.61,338.148,141,347.352Zm0-62.836V262h44.936a129.378,129.378,0,0,1-5.385,32.645A105.578,105.578,0,0,0,141,284.516ZM141,250V227.484a105.578,105.578,0,0,0,39.551-10.129A129.378,129.378,0,0,1,185.936,250Zm0-34.542v-50.81c15.61,9.2,27.685,23.528,35.392,41.391A93.582,93.582,0,0,1,141,215.458Zm22.147-49.152a94.1,94.1,0,0,1,37.491,22.477,92.528,92.528,0,0,1-13.769,11.225A102.783,102.783,0,0,0,163.147,166.306ZM83.029,200.238a92.089,92.089,0,0,1-13.921-11.207,94.1,94.1,0,0,1,37.745-22.725A102.85,102.85,0,0,0,83.029,200.238Zm0,111.524a102.85,102.85,0,0,0,23.824,33.932,94.1,94.1,0,0,1-37.745-22.725A92.089,92.089,0,0,1,83.029,311.762Zm103.84.23a92.528,92.528,0,0,1,13.769,11.225,94.1,94.1,0,0,1-37.491,22.477A102.783,102.783,0,0,0,186.869,311.992ZM197.945,250a140.55,140.55,0,0,0-6.675-38.547,104.551,104.551,0,0,0,17.417-13.748A93.522,93.522,0,0,1,228.8,250Z" style="fill:#0635c9"/><path d="M244.956,21.941a134.3,134.3,0,0,0-76.8,47.107L144.679,53.774a6,6,0,0,0-9.143,6.272l9.737,46.005a6,6,0,0,0,7.113,4.628l46.005-9.738a6,6,0,0,0,2.03-10.9l-22.15-14.411A122.494,122.494,0,0,1,356.5,64.068a6,6,0,1,0,8.191-8.769A134.7,134.7,0,0,0,244.956,21.941ZM155.771,97.7l-5.5-25.964L165.918,81.91l.022.019c.041.03.086.05.128.079L181.734,92.2Z" style="fill:#1ae5be"/><path d="M356.727,405.949a6,6,0,0,0-7.113-4.628l-46,9.738a6,6,0,0,0-2.03,10.9l22.15,14.411A122.494,122.494,0,0,1,145.5,447.932a6,6,0,1,0-8.191,8.769,134.493,134.493,0,0,0,196.535-13.749l23.475,15.274a6,6,0,0,0,9.143-6.272ZM336.082,430.09l-.022-.019a6.287,6.287,0,0,0-.6-.384l-15.2-9.888,25.963-5.5,5.5,25.964Z" style="fill:#1ae5be"/></svg>
