<?xml version="1.0"?>
<svg xmlns="http://www.w3.org/2000/svg" id="Layer_1" data-name="Layer 1" viewBox="0 0 512 512" width="512" height="512"><title>Server Checklist</title><path d="M143.346,228h-4.692a6.008,6.008,0,0,0,4.692,0Z" style="fill:#d4e1f4"/><path d="M123.346,228a6.008,6.008,0,0,1-4.692,0H104v17h20V228Z" style="fill:#d4e1f4"/><path d="M66,454.745V261.028C66,250.962,74.689,243,84.755,243h-20C54.689,243,46,250.962,46,261.028V454.745C46,464.811,54.689,473,64.755,473h20C74.689,473,66,464.811,66,454.745Z" style="fill:#d4e1f4"/><rect x="246" y="322" width="20" height="105" style="fill:#d4e1f4"/><path d="M151.5,179h-20c-2.206,0-4.5,1.794-4.5,4v33h20V183C147,180.794,149.294,179,151.5,179Z" style="fill:#d4e1f4"/><path d="M236.245,231h-20A29.672,29.672,0,0,1,246,261.028V283h20V261.028A29.672,29.672,0,0,0,236.245,231Z" style="fill:#d4e1f4"/><path d="M203.391,216h-20c3.313,0,5.609,3.163,5.609,6.477V231h20v-8.523C209,219.163,206.7,216,203.391,216Z" style="fill:#d4e1f4"/><path d="M147,143V43c0-2.206,2.294-4,4.5-4h-20c-2.206,0-4.5,1.794-4.5,4V143c0,2.206,2.294,4,4.5,4h20C149.294,147,147,145.206,147,143Z" style="fill:#d4e1f4"/><path d="M389,373a23,23,0,1,0-23,23A23.026,23.026,0,0,0,389,373Zm-34,0a11,11,0,1,1,11,11A11.013,11.013,0,0,1,355,373Z" style="fill:#0635c9"/><path d="M447,373a23,23,0,1,0-23,23A23.026,23.026,0,0,0,447,373Zm-34,0a11,11,0,1,1,11,11A11.013,11.013,0,0,1,413,373Z" style="fill:#0635c9"/><path d="M264,388V358a6,6,0,0,0-12,0v30a6,6,0,0,0,12,0Z" style="fill:#0635c9"/><path d="M121,228.477a6,6,0,0,0,6-6V183c0-2.206,2.294-4,4.5-4h34.809a5.992,5.992,0,0,0,5.191,3h250a5.992,5.992,0,0,0,5.191-3H461.5c2.206,0,3.5,1.794,3.5,4V283c0,2.206-1.294,4-3.5,4H427.151a6,6,0,0,0-5.651-4h-181a6,6,0,0,0,0,12H415v15H240.5a6,6,0,0,0,0,12h181a5.99,5.99,0,0,0,5.19-3H461.5c2.206,0,3.5,1.794,3.5,4V423c0,2.206-1.294,4-3.5,4h-221a6,6,0,0,0,0,12h221c8.822,0,15.5-7.178,15.5-16V323c0-8.822-6.678-16-15.5-16H427v-8h34.5c8.822,0,15.5-7.178,15.5-16V183c0-8.822-6.678-16-15.5-16H427v-8h34.5c8.822,0,15.5-7.178,15.5-16V43c0-8.822-6.678-16-15.5-16h-330c-8.822,0-16.5,7.178-16.5,16V143c0,8.822,7.678,16,16.5,16H165v8H131.5c-8.822,0-16.5,7.178-16.5,16v39.477A6,6,0,0,0,121,228.477ZM177,155H415v15H177Zm-50-12V43c0-2.206,2.294-4,4.5-4h330c2.206,0,3.5,1.794,3.5,4V143c0,2.206-1.294,4-3.5,4H427.151a6,6,0,0,0-5.651-4h-250a6,6,0,0,0-5.651,4H131.5C129.294,147,127,145.206,127,143Z" style="fill:#0635c9"/><path d="M389,233a23,23,0,1,0-23,23A23.026,23.026,0,0,0,389,233Zm-34,0a11,11,0,1,1,11,11A11.013,11.013,0,0,1,355,233Z" style="fill:#0635c9"/><path d="M447,233a23,23,0,1,0-23,23A23.026,23.026,0,0,0,447,233Zm-34,0a11,11,0,1,1,11,11A11.013,11.013,0,0,1,413,233Z" style="fill:#0635c9"/><path d="M237,242V218a6,6,0,0,0-12,0v24a6,6,0,0,0,12,0Z" style="fill:#0635c9"/><path d="M264,248V218a6,6,0,0,0-12,0v30a6,6,0,0,0,12,0Z" style="fill:#0635c9"/><path d="M366,116a23,23,0,1,0-23-23A23.026,23.026,0,0,0,366,116Zm0-34a11,11,0,1,1-11,11A11.013,11.013,0,0,1,366,82Z" style="fill:#0635c9"/><path d="M424,116a23,23,0,1,0-23-23A23.026,23.026,0,0,0,424,116Zm0-34a11,11,0,1,1-11,11A11.013,11.013,0,0,1,424,82Z" style="fill:#0635c9"/><path d="M152,72a6,6,0,0,0-6,6v30a6,6,0,0,0,12,0V78A6,6,0,0,0,152,72Z" style="fill:#0635c9"/><path d="M178,114a6,6,0,0,0,6-6V78a6,6,0,0,0-12,0v30A6,6,0,0,0,178,114Z" style="fill:#0635c9"/><path d="M205,114a6,6,0,0,0,6-6V78a6,6,0,0,0-12,0v30A6,6,0,0,0,205,114Z" style="fill:#0635c9"/><path d="M231,114a6,6,0,0,0,6-6V78a6,6,0,0,0-12,0v30A6,6,0,0,0,231,114Z" style="fill:#0635c9"/><path d="M258,114a6,6,0,0,0,6-6V78a6,6,0,0,0-12,0v30A6,6,0,0,0,258,114Z" style="fill:#0635c9"/><path d="M246,454.745V261.028A29.672,29.672,0,0,0,216.245,231H189v-8.523c0-3.314-2.3-6.477-5.609-6.477H97.609C94.3,216,92,219.163,92,222.477V231H64.755C48.072,231,34,244.346,34,261.028V454.745C34,471.428,48.072,485,64.755,485h151.49C232.928,485,246,471.428,246,454.745ZM104,228h73v17H104ZM46,454.745V261.028C46,250.962,54.689,243,64.755,243H92v8.07A5.619,5.619,0,0,0,97.609,257h85.782A5.619,5.619,0,0,0,189,251.07V243h27.245A17.661,17.661,0,0,1,234,261.028V454.745C234,464.811,226.311,473,216.245,473H64.755C54.689,473,46,464.811,46,454.745Z" style="fill:#1ae5be"/><path d="M176.683,343.112l-47.734,46.6-24.63-24.047a6,6,0,1,0-8.383,8.586l28.821,28.14a6,6,0,0,0,8.383,0l51.926-50.7a6,6,0,0,0-8.383-8.586Z" style="fill:#1ae5be"/></svg>
