<?xml version="1.0"?>
<svg xmlns="http://www.w3.org/2000/svg" id="Layer_1" data-name="Layer 1" viewBox="0 0 512 512" width="512" height="512"><title>Server Customer Care</title><path d="M41,291.643V259.11a78.2,78.2,0,0,1-20-9.764v42.3c0,11.1,31.957,26.571,84,26.571q5.135,0,10-.2C68.9,316.193,41,302.008,41,291.643Z" style="fill:#d4e1f4"/><path d="M41,229.929V197.4a78.232,78.232,0,0,1-20-9.764v42.3c0,11.1,31.957,26.571,84,26.571q5.135,0,10-.2C68.9,254.479,41,240.3,41,229.929Z" style="fill:#d4e1f4"/><path d="M41,168.214c0-10.366,27.9-24.551,74-26.372q-4.869-.194-10-.2c-52.043,0-84,15.475-84,26.571s31.957,26.572,84,26.572q5.135,0,10-.2C68.9,192.765,41,178.58,41,168.214Z" style="fill:#d4e1f4"/><path d="M41,353.786V320.824a78.232,78.232,0,0,1-20-9.764v42.726c0,11.1,31.957,26.571,84,26.571q5.135,0,10-.2C68.9,378.337,41,364.152,41,353.786Z" style="fill:#d4e1f4"/><path d="M312.86,252.48a6.335,6.335,0,0,0,.39-2.2c.03-9.38.09-20.05.16-21.31A97.687,97.687,0,0,1,404,136.64V126.42c-.56-.02-1.12-.03-1.67-.04h-1.12a97.711,97.711,0,0,0-97.8,92.59c-.07,1.26-.13,11.93-.16,21.31a6.335,6.335,0,0,1-.39,2.2L283.63,293h13.807Z" style="fill:#d4e1f4"/><path d="M478.54,180.82a91.137,91.137,0,0,1,12.29,40.732,90.852,90.852,0,0,0-12.29-50.732A88.661,88.661,0,0,0,416,127.54v10A88.661,88.661,0,0,1,478.54,180.82Z" style="fill:#d4e1f4"/><path d="M467.255,318.311c-.464,15.762,1.395,35.545,5.575,58.789,1.271,7.086,2.589,13.438,3.776,18.9h2.214c-1.55-7-3.84-16.91-5.99-28.9C469.492,348.536,467.634,332.179,467.255,318.311Z" style="fill:#d4e1f4"/><path d="M105,129.643c-46.539,0-96,13.518-96,38.571V353.786c0,25.053,49.461,38.571,96,38.571s96-13.518,96-38.571V168.214C201,143.161,151.539,129.643,105,129.643Zm84,160.714v1.286c0,11.1-31.957,26.571-84,26.571s-84-15.476-84-26.571v-42.3C38.49,261.888,72.457,268.5,105,268.5s66.51-6.612,84-19.154Zm0-60.428c0,11.1-31.957,26.571-84,26.571s-84-15.476-84-26.571v-42.3c17.49,12.542,51.457,19.154,84,19.154s66.51-6.612,84-19.154Zm-84-88.286c52.043,0,84,15.475,84,26.571s-31.957,26.572-84,26.572S21,179.31,21,168.214,52.957,141.643,105,141.643Zm0,238.714c-52.043,0-84-15.475-84-26.571V311.06c17.49,12.542,51.457,19.154,84,19.154s66.51-6.612,84-19.154v42.726C189,364.882,157.043,380.357,105,380.357Z" style="fill:#0635c9"/><path d="M416,222.18V127.54a89.415,89.415,0,0,0-11.14-1.1c-.29-.01-.57-.02-.86-.02v95.85a36.424,36.424,0,0,0-20.52,10.71,37.155,37.155,0,0,0-10.68,26.61l.03,3.91a37.435,37.435,0,0,0,30.24,36.16l.08,9.01a28.886,28.886,0,0,1-28.61,29.16l-20.95.13-.11-7.24a5.839,5.839,0,0,0-6-5.72H305.81a19.533,19.533,0,0,0-14.18,5.88,19.751,19.751,0,0,0-5.71,14.22,20.119,20.119,0,0,0,20.13,19.78c.08,0,.16-.02.24-.02l41.68-.65a6.009,6.009,0,0,0,5.91-6.1l-.12-8.15h.33l20.55-.13a40.887,40.887,0,0,0,40.51-41.27l-.08-8.55a37.344,37.344,0,0,0,32.42-37.52l.04-3.91C447.29,240.13,433,224.91,416,222.18ZM306.13,353h-.1a8.207,8.207,0,0,1-8.11-8.08,7.854,7.854,0,0,1,7.96-7.92h35.69l.22,15.57Zm122.14-72.46A24.732,24.732,0,0,1,410.38,288h-.24a25.254,25.254,0,0,1-25.34-24.83l-.05-3.83A25.045,25.045,0,0,1,409.86,234h.24a25.294,25.294,0,0,1,25.34,24.87l.05,3.77A24.793,24.793,0,0,1,428.27,280.54Z" style="fill:#1ae5be"/><path d="M492.3,400.18a6.274,6.274,0,0,1-5.8,7.82H389.66a6.11,6.11,0,0,1-5.82-4.66l-8.7-34.72a8.786,8.786,0,0,0-8.65-6.62h-.03c-4.31,0-9.28-.01-13.94.01a5.992,5.992,0,0,0,1.36-3.9l-.12-8.15h.33c4.17.01,8.51.04,12.32.04h.09a20.932,20.932,0,0,1,20.28,15.88L394.34,396h84.48c-1.55-7-3.84-16.91-5.99-28.9-4.95-27.53-6.66-50.23-5.09-67.11,1.13-12.13,11.45-37.88,12.62-40.78a4.9,4.9,0,0,1,.24-.52,90.522,90.522,0,0,0-2.06-87.87,88.582,88.582,0,0,0-73.68-44.38c-.29-.01-.57-.02-.86-.02-.56-.02-1.12-.03-1.67-.04h-1.12a97.711,97.711,0,0,0-97.8,92.59c-.07,1.26-.13,11.93-.16,21.31a6.335,6.335,0,0,1-.39,2.2L283.63,293h28.64a5.537,5.537,0,0,1,5.73,5.71V325H306V305H281.62a10.744,10.744,0,0,1-8.74-4.74,10.946,10.946,0,0,1-1.18-9.96l19.56-51.22c.01-4.91.06-19.03.17-20.84A109.957,109.957,0,0,1,402.46,114.37c.95.01,1.89.04,2.83.07a100.539,100.539,0,0,1,83.62,50.34,102.5,102.5,0,0,1,2.47,99.2c-3.08,7.64-10.88,28.48-11.69,37.17C476.17,339,492.13,399.57,492.3,400.18Z" style="fill:#0635c9"/><path d="M145.273,106.051a6,6,0,0,0,7.113,4.628l46.005-9.738a6,6,0,0,0,2.029-10.9L178.271,75.631A122.494,122.494,0,0,1,356.5,64.068a6,6,0,1,0,8.191-8.769A134.494,134.494,0,0,0,168.153,69.048L144.678,53.774a6,6,0,0,0-9.142,6.272Zm20.644-24.142.023.02c.043.031.09.052.133.082L181.734,92.2l-25.963,5.5-5.495-25.964Z" style="fill:#1ae5be"/><path d="M356.727,405.949a6,6,0,0,0-7.113-4.628l-46,9.738a6,6,0,0,0-2.03,10.9l22.15,14.411A122.494,122.494,0,0,1,145.5,447.932a6,6,0,1,0-8.191,8.769,134.492,134.492,0,0,0,196.535-13.749l23.475,15.274a6,6,0,0,0,9.143-6.272ZM336.082,430.09l-.022-.019a6.043,6.043,0,0,0-.6-.384l-15.2-9.888,25.963-5.5,5.5,25.964Z" style="fill:#1ae5be"/></svg>
