<?xml version="1.0"?>
<svg xmlns="http://www.w3.org/2000/svg" id="Layer_1" data-name="Layer 1" viewBox="0 0 512 512" width="512" height="512"><title>Server Pie Chart</title><path d="M66,192.5V92.5c0-2.206,2.294-3.5,4.5-3.5h-20c-2.206,0-4.5,1.294-4.5,3.5v100a4.912,4.912,0,0,0,4.5,4.5h20A4.912,4.912,0,0,1,66,192.5Z" style="fill:#d4e1f4"/><path d="M66,472.5v-100c0-2.206,2.294-3.5,4.5-3.5h-20c-2.206,0-4.5,1.294-4.5,3.5v100a4.912,4.912,0,0,0,4.5,4.5h20A4.912,4.912,0,0,1,66,472.5Z" style="fill:#d4e1f4"/><path d="M66,332.5v-100c0-2.206,2.294-3.5,4.5-3.5h-20c-2.206,0-4.5,1.294-4.5,3.5v100a4.912,4.912,0,0,0,4.5,4.5h20A4.912,4.912,0,0,1,66,332.5Z" style="fill:#d4e1f4"/><path d="M285,399.854a23,23,0,1,0,23,23A23.026,23.026,0,0,0,285,399.854Zm0,34a11,11,0,1,1,11-11A11.013,11.013,0,0,1,285,433.854Z" style="fill:#0635c9"/><path d="M343,399.854a23,23,0,1,0,23,23A23.026,23.026,0,0,0,343,399.854Zm0,34a11,11,0,1,1,11-11A11.013,11.013,0,0,1,343,433.854Z" style="fill:#0635c9"/><path d="M71,401.854a6,6,0,0,0-6,6v30a6,6,0,0,0,12,0v-30A6,6,0,0,0,71,401.854Z" style="fill:#0635c9"/><path d="M97,401.854a6,6,0,0,0-6,6v30a6,6,0,1,0,12,0v-30A6,6,0,0,0,97,401.854Z" style="fill:#0635c9"/><path d="M124,401.854a6,6,0,0,0-6,6v30a6,6,0,1,0,12,0v-30A6,6,0,0,0,124,401.854Z" style="fill:#0635c9"/><path d="M150,401.854a6,6,0,0,0-6,6v30a6,6,0,1,0,12,0v-30A6,6,0,0,0,150,401.854Z" style="fill:#0635c9"/><path d="M177,401.854a6,6,0,0,0-6,6v30a6,6,0,1,0,12,0v-30A6,6,0,0,0,177,401.854Z" style="fill:#0635c9"/><path d="M384,332.854c0,2.206-1.294,4.146-3.5,4.146H346.151a6.49,6.49,0,0,0-5.651-4H90.5a6.49,6.49,0,0,0-5.651,4H50.5c-2.206,0-4.5-1.94-4.5-4.146v-100c0-2.206,2.294-3.854,4.5-3.854H85.31a5.592,5.592,0,0,0,5.19,3H284V220H96V205H262V193H90.5a6.49,6.49,0,0,0-5.651,4H50.5c-2.206,0-4.5-1.94-4.5-4.146v-100C46,90.648,48.294,89,50.5,89H286.76a6,6,0,0,0,0-12H50.5C41.678,77,34,84.032,34,92.854v100C34,201.676,41.678,209,50.5,209H84v8H50.5c-8.822,0-16.5,7.032-16.5,15.854v100C34,341.676,41.678,349,50.5,349H84v8H50.5c-8.822,0-16.5,7.032-16.5,15.854v100C34,481.676,41.678,489,50.5,489h330c8.822,0,15.5-7.324,15.5-16.146v-100c0-8.822-6.678-15.854-15.5-15.854H346v-8h34.5c8.822,0,15.5-7.324,15.5-16.146V236H384ZM334,360H96V345H334Zm50,12.854v100c0,2.206-1.294,4.146-3.5,4.146H50.5c-2.206,0-4.5-1.94-4.5-4.146v-100c0-2.206,2.294-3.854,4.5-3.854H85.309a5.593,5.593,0,0,0,5.191,3h250a5.593,5.593,0,0,0,5.191-3H380.5C382.706,369,384,370.648,384,372.854Z" style="fill:#0635c9"/><path d="M262,282.854a23,23,0,1,0,23-23A23.026,23.026,0,0,0,262,282.854Zm34,0a11,11,0,1,1-11-11A11.013,11.013,0,0,1,296,282.854Z" style="fill:#0635c9"/><path d="M343,305.854a23,23,0,1,0-23-23A23.026,23.026,0,0,0,343,305.854Zm0-34a11,11,0,1,1-11,11A11.013,11.013,0,0,1,343,271.854Z" style="fill:#0635c9"/><path d="M65,267.854v30a6,6,0,0,0,12,0v-30a6,6,0,0,0-12,0Z" style="fill:#0635c9"/><path d="M91,267.854v30a6,6,0,0,0,12,0v-30a6,6,0,0,0-12,0Z" style="fill:#0635c9"/><path d="M118,267.854v30a6,6,0,0,0,12,0v-30a6,6,0,0,0-12,0Z" style="fill:#0635c9"/><path d="M144,267.854v30a6,6,0,0,0,12,0v-30a6,6,0,0,0-12,0Z" style="fill:#0635c9"/><path d="M171,267.854v30a6,6,0,0,0,12,0v-30a6,6,0,0,0-12,0Z" style="fill:#0635c9"/><path d="M65,127.854v30a6,6,0,0,0,12,0v-30a6,6,0,1,0-12,0Z" style="fill:#0635c9"/><path d="M91,127.854v30a6,6,0,0,0,12,0v-30a6,6,0,1,0-12,0Z" style="fill:#0635c9"/><path d="M118,127.854v30a6,6,0,1,0,12,0v-30a6,6,0,1,0-12,0Z" style="fill:#0635c9"/><path d="M144,127.854v30a6,6,0,1,0,12,0v-30a6,6,0,1,0-12,0Z" style="fill:#0635c9"/><path d="M171,127.854v30a6,6,0,1,0,12,0v-30a6,6,0,1,0-12,0Z" style="fill:#0635c9"/><path d="M344.285,254.562a98.645,98.645,0,0,0,98.785-98.673,5.906,5.906,0,0,0-6-5.889H350V62.992a5.88,5.88,0,0,0-5.857-6,98.031,98.031,0,0,0-69.858,28.93,98.857,98.857,0,0,0,70,168.64ZM282.735,94.37A85.7,85.7,0,0,1,338,69.194v86.583A6.443,6.443,0,0,0,344.285,162h86.579A86.834,86.834,0,1,1,282.735,94.37Z" style="fill:#1ae5be"/><path d="M378.715,128H471.5a6.03,6.03,0,0,0,6-6.034,99.275,99.275,0,0,0-28.856-69.873c-.024-.025-.049-.058-.074-.082A98.908,98.908,0,0,0,378.857,23.15a5.877,5.877,0,0,0-5.857,6v92.785A5.823,5.823,0,0,0,378.715,128ZM385,35.353a88.829,88.829,0,0,1,55.265,25.205A86.726,86.726,0,0,1,465.293,116H385Z" style="fill:#1ae5be"/></svg>
