<?xml version="1.0"?>
<svg xmlns="http://www.w3.org/2000/svg" id="Layer_1" data-name="Layer 1" viewBox="0 0 512 512" width="512" height="512"><title>Server Refresh</title><path d="M46,291.643V259.11a78.2,78.2,0,0,1-20-9.764v42.3c0,11.1,31.957,26.571,84,26.571q5.135,0,10-.2C73.9,316.193,46,302.008,46,291.643Z" style="fill:#d4e1f4"/><path d="M46,229.929V197.4a78.232,78.232,0,0,1-20-9.764v42.3c0,11.1,31.957,26.571,84,26.571q5.135,0,10-.2C73.9,254.479,46,240.3,46,229.929Z" style="fill:#d4e1f4"/><path d="M46,168.214c0-10.366,27.9-24.551,74-26.372q-4.869-.194-10-.2c-52.043,0-84,15.475-84,26.571s31.957,26.572,84,26.572q5.135,0,10-.2C73.9,192.765,46,178.58,46,168.214Z" style="fill:#d4e1f4"/><path d="M46,353.786V320.824a78.232,78.232,0,0,1-20-9.764v42.726c0,11.1,31.957,26.571,84,26.571q5.135,0,10-.2C73.9,378.337,46,364.152,46,353.786Z" style="fill:#d4e1f4"/><path d="M338,291.643V259.11a78.2,78.2,0,0,1-20-9.764v42.3c0,11.1,31.957,26.571,84,26.571q5.135,0,10-.2C365.9,316.193,338,302.008,338,291.643Z" style="fill:#d4e1f4"/><path d="M338,229.929V197.4a78.232,78.232,0,0,1-20-9.764v42.3c0,11.1,31.957,26.571,84,26.571q5.135,0,10-.2C365.9,254.479,338,240.3,338,229.929Z" style="fill:#d4e1f4"/><path d="M338,168.214c0-10.366,27.9-24.551,74-26.372q-4.869-.194-10-.2c-52.043,0-84,15.475-84,26.571s31.957,26.572,84,26.572q5.135,0,10-.2C365.9,192.765,338,178.58,338,168.214Z" style="fill:#d4e1f4"/><path d="M338,353.786V320.824a78.232,78.232,0,0,1-20-9.764v42.726c0,11.1,31.957,26.571,84,26.571q5.135,0,10-.2C365.9,378.337,338,364.152,338,353.786Z" style="fill:#d4e1f4"/><path d="M110,129.643c-46.539,0-96,13.518-96,38.571V353.786c0,25.053,49.461,38.571,96,38.571s96-13.518,96-38.571V168.214C206,143.161,156.539,129.643,110,129.643Zm84,160.714v1.286c0,11.1-31.957,26.571-84,26.571s-84-15.476-84-26.571v-42.3C43.49,261.888,77.457,268.5,110,268.5s66.51-6.612,84-19.154Zm0-60.428c0,11.1-31.957,26.571-84,26.571s-84-15.476-84-26.571v-42.3c17.49,12.542,51.457,19.154,84,19.154s66.51-6.612,84-19.154Zm-84-88.286c52.043,0,84,15.475,84,26.571s-31.957,26.572-84,26.572S26,179.31,26,168.214,57.957,141.643,110,141.643Zm0,238.714c-52.043,0-84-15.475-84-26.571V311.06c17.49,12.542,51.457,19.154,84,19.154s66.51-6.612,84-19.154v42.726C194,364.882,162.043,380.357,110,380.357Z" style="fill:#0635c9"/><path d="M402,129.643c-46.539,0-96,13.518-96,38.571V353.786c0,25.053,49.461,38.571,96,38.571s96-13.518,96-38.571V168.214C498,143.161,448.539,129.643,402,129.643Zm84,160.714v1.286c0,11.1-31.957,26.571-84,26.571s-84-15.476-84-26.571v-42.3c17.49,12.542,51.457,19.154,84,19.154s66.51-6.612,84-19.154Zm0-60.428c0,11.1-31.957,26.571-84,26.571s-84-15.476-84-26.571v-42.3c17.49,12.542,51.457,19.154,84,19.154s66.51-6.612,84-19.154Zm-84-88.286c52.043,0,84,15.475,84,26.571s-31.957,26.572-84,26.572-84-15.476-84-26.572S349.957,141.643,402,141.643Zm0,238.714c-52.043,0-84-15.475-84-26.571V311.06c17.49,12.542,51.457,19.154,84,19.154s66.51-6.612,84-19.154v42.726C486,364.882,454.043,380.357,402,380.357Z" style="fill:#0635c9"/><path d="M249.955,21.941a134.3,134.3,0,0,0-76.8,47.107L149.678,53.774a6,6,0,0,0-9.142,6.272l9.737,46.005a6,6,0,0,0,7.113,4.628l46.005-9.738a6,6,0,0,0,2.029-10.9L183.271,75.631A122.494,122.494,0,0,1,361.5,64.068a6,6,0,1,0,8.191-8.769A134.709,134.709,0,0,0,249.955,21.941ZM160.771,97.7l-5.495-25.964,15.641,10.177.023.02c.043.031.09.052.133.082L186.734,92.2Z" style="fill:#1ae5be"/><path d="M361.727,405.949a6,6,0,0,0-7.113-4.628l-46,9.738a6,6,0,0,0-2.029,10.9l22.149,14.411A122.494,122.494,0,0,1,150.5,447.932a6,6,0,1,0-8.191,8.769,134.494,134.494,0,0,0,196.536-13.749l23.475,15.274a6,6,0,0,0,9.142-6.272Zm-20.644,24.142-.023-.02a5.915,5.915,0,0,0-.6-.385L325.266,419.8l25.963-5.5,5.5,25.964Z" style="fill:#1ae5be"/></svg>
