<?xml version="1.0"?>
<svg xmlns="http://www.w3.org/2000/svg" id="Layer_1" data-name="Layer 1" viewBox="0 0 512 512" width="512" height="512"><title>Server Upload</title><path d="M76,186.5V86.5c0-2.206,2.294-3.5,4.5-3.5h-20c-2.206,0-4.5,1.294-4.5,3.5v100a4.912,4.912,0,0,0,4.5,4.5h20A4.912,4.912,0,0,1,76,186.5Z" style="fill:#d4e1f4"/><path d="M76,466.5v-100c0-2.206,2.294-3.5,4.5-3.5h-20c-2.206,0-4.5,1.294-4.5,3.5v100a4.912,4.912,0,0,0,4.5,4.5h20A4.912,4.912,0,0,1,76,466.5Z" style="fill:#d4e1f4"/><path d="M76,326.5v-100c0-2.206,2.294-3.5,4.5-3.5h-20c-2.206,0-4.5,1.294-4.5,3.5v100a4.912,4.912,0,0,0,4.5,4.5h20A4.912,4.912,0,0,1,76,326.5Z" style="fill:#d4e1f4"/><path d="M381.5,241.5a106.371,106.371,0,0,0,12.5-.736V236.4a105.413,105.413,0,0,1-22.535,4.618C374.77,241.327,378.115,241.5,381.5,241.5Z" style="fill:#d4e1f4"/><path d="M381.5,219.5A93.95,93.95,0,0,1,304.443,71.73a6,6,0,0,0,1.956-2.7,94.828,94.828,0,0,1,23.478-22.049A94.444,94.444,0,0,0,286.4,79.032a6,6,0,0,1-1.956,2.7A93.952,93.952,0,0,0,413.1,214.028,93.581,93.581,0,0,1,381.5,219.5Z" style="fill:#d4e1f4"/><path d="M295,393.5a23,23,0,1,0,23,23A23.026,23.026,0,0,0,295,393.5Zm0,34a11,11,0,1,1,11-11A11.013,11.013,0,0,1,295,427.5Z" style="fill:#0635c9"/><path d="M353,393.5a23,23,0,1,0,23,23A23.026,23.026,0,0,0,353,393.5Zm0,34a11,11,0,1,1,11-11A11.013,11.013,0,0,1,353,427.5Z" style="fill:#0635c9"/><path d="M81,395.5a6,6,0,0,0-6,6v30a6,6,0,0,0,12,0v-30A6,6,0,0,0,81,395.5Z" style="fill:#0635c9"/><path d="M107,395.5a6,6,0,0,0-6,6v30a6,6,0,0,0,12,0v-30A6,6,0,0,0,107,395.5Z" style="fill:#0635c9"/><path d="M134,395.5a6,6,0,0,0-6,6v30a6,6,0,0,0,12,0v-30A6,6,0,0,0,134,395.5Z" style="fill:#0635c9"/><path d="M160,395.5a6,6,0,0,0-6,6v30a6,6,0,0,0,12,0v-30A6,6,0,0,0,160,395.5Z" style="fill:#0635c9"/><path d="M187,395.5a6,6,0,0,0-6,6v30a6,6,0,0,0,12,0v-30A6,6,0,0,0,187,395.5Z" style="fill:#0635c9"/><path d="M394,326.5c0,2.206-1.294,4.5-3.5,4.5H356.151c-.824-3-3.039-4-5.651-4h-250c-2.612,0-4.827,1-5.651,4H60.5a4.912,4.912,0,0,1-4.5-4.5v-100c0-2.206,2.294-3.5,4.5-3.5H95.309c1.038,1,2.972,3,5.191,3H309V214H106V199H279V187H100.5c-2.611,0-4.827,1-5.651,4H60.5a4.912,4.912,0,0,1-4.5-4.5V86.5c0-2.206,2.294-3.5,4.5-3.5H280.76a6,6,0,0,0,0-12H60.5C51.678,71,44,77.678,44,86.5v100A16.887,16.887,0,0,0,60.5,203H94v8H60.5c-8.822,0-16.5,6.678-16.5,15.5v100A16.887,16.887,0,0,0,60.5,343H94v8H60.5c-8.822,0-16.5,6.678-16.5,15.5v100A16.887,16.887,0,0,0,60.5,483h330c8.822,0,15.5-7.678,15.5-16.5v-100A15.177,15.177,0,0,0,390.5,351H356v-8h34.5c8.822,0,15.5-7.678,15.5-16.5V228H394ZM344,354H106V339H344Zm50,12.5v100c0,2.206-1.294,4.5-3.5,4.5H60.5a4.912,4.912,0,0,1-4.5-4.5v-100c0-2.206,2.294-3.5,4.5-3.5H95.309c1.038,1,2.971,3,5.191,3h250c2.22,0,4.153-2,5.191-3H390.5A3.2,3.2,0,0,1,394,366.5Z" style="fill:#0635c9"/><path d="M272,276.5a23,23,0,1,0,23-23A23.026,23.026,0,0,0,272,276.5Zm34,0a11,11,0,1,1-11-11A11.013,11.013,0,0,1,306,276.5Z" style="fill:#0635c9"/><path d="M353,299.5a23,23,0,1,0-23-23A23.026,23.026,0,0,0,353,299.5Zm0-34a11,11,0,1,1-11,11A11.013,11.013,0,0,1,353,265.5Z" style="fill:#0635c9"/><path d="M75,261.5v30a6,6,0,0,0,12,0v-30a6,6,0,0,0-12,0Z" style="fill:#0635c9"/><path d="M101,261.5v30a6,6,0,0,0,12,0v-30a6,6,0,0,0-12,0Z" style="fill:#0635c9"/><path d="M128,261.5v30a6,6,0,0,0,12,0v-30a6,6,0,0,0-12,0Z" style="fill:#0635c9"/><path d="M154,261.5v30a6,6,0,0,0,12,0v-30a6,6,0,0,0-12,0Z" style="fill:#0635c9"/><path d="M181,261.5v30a6,6,0,0,0,12,0v-30a6,6,0,0,0-12,0Z" style="fill:#0635c9"/><path d="M75,121.5v30a6,6,0,0,0,12,0v-30a6,6,0,0,0-12,0Z" style="fill:#0635c9"/><path d="M101,121.5v30a6,6,0,0,0,12,0v-30a6,6,0,0,0-12,0Z" style="fill:#0635c9"/><path d="M128,121.5v30a6,6,0,0,0,12,0v-30a6,6,0,0,0-12,0Z" style="fill:#0635c9"/><path d="M154,121.5v30a6,6,0,0,0,12,0v-30a6,6,0,0,0-12,0Z" style="fill:#0635c9"/><path d="M181,121.5v30a6,6,0,0,0,12,0v-30a6,6,0,0,0-12,0Z" style="fill:#0635c9"/><path d="M361.5,241.5a106,106,0,1,0-106-106A106.12,106.12,0,0,0,361.5,241.5Zm0-200a94,94,0,1,1-94,94A94.106,94.106,0,0,1,361.5,41.5Z" style="fill:#1ae5be"/><path d="M333.863,131.131,355,111.226v62.328a6,6,0,0,0,12,0V111.226l21.637,19.905a6.283,6.283,0,0,0,4.211,1.608,6.121,6.121,0,0,0,4.456-1.912,6,6,0,0,0-.273-8.48L365.572,93.054a5.99,5.99,0,0,0-8.168,0l-31.47,29.293a6.007,6.007,0,0,0-.428,8.48A5.853,5.853,0,0,0,333.863,131.131Z" style="fill:#1ae5be"/></svg>
