<?xml version="1.0"?>
<svg xmlns="http://www.w3.org/2000/svg" id="Layer_1" data-name="Layer 1" viewBox="0 0 512 512" width="512" height="512"><title>Server</title><path d="M107,166V66a4,4,0,0,1,4-4H91a4,4,0,0,0-4,4V166a4,4,0,0,0,4,4h20A4,4,0,0,1,107,166Z" style="fill:#d4e1f4"/><path d="M107,306V206a4,4,0,0,1,4-4H91a4,4,0,0,0-4,4V306a4,4,0,0,0,4,4h20A4,4,0,0,1,107,306Z" style="fill:#d4e1f4"/><path d="M107,446V346a4,4,0,0,1,4-4H91a4,4,0,0,0-4,4V446a4,4,0,0,0,4,4h20A4,4,0,0,1,107,446Z" style="fill:#d4e1f4"/><path d="M91,462H421a16.019,16.019,0,0,0,16-16V346a16.019,16.019,0,0,0-16-16H387v-8h34a16.019,16.019,0,0,0,16-16V206a16.019,16.019,0,0,0-16-16H387v-8h34a16.019,16.019,0,0,0,16-16V66a16.019,16.019,0,0,0-16-16H91A16.019,16.019,0,0,0,75,66V166a16.019,16.019,0,0,0,16,16h34v8H91a16.019,16.019,0,0,0-16,16V306a16.019,16.019,0,0,0,16,16h34v8H91a16.019,16.019,0,0,0-16,16V446A16.019,16.019,0,0,0,91,462Zm46-144H375v15H137Zm0-140H375v15H137ZM87,166V66a4,4,0,0,1,4-4H421a4,4,0,0,1,4,4V166a4,4,0,0,1-4,4H386.651A6,6,0,0,0,381,166H131a6,6,0,0,0-5.651,4H91A4,4,0,0,1,87,166Zm0,140V206a4,4,0,0,1,4-4h34.809A5.992,5.992,0,0,0,131,205H381a5.992,5.992,0,0,0,5.191-3H421a4,4,0,0,1,4,4V306a4,4,0,0,1-4,4H386.651A6,6,0,0,0,381,306H131a6,6,0,0,0-5.651,4H91A4,4,0,0,1,87,306Zm0,40a4,4,0,0,1,4-4h34.809A5.992,5.992,0,0,0,131,345H381a5.992,5.992,0,0,0,5.191-3H421a4,4,0,0,1,4,4V446a4,4,0,0,1-4,4H91a4,4,0,0,1-4-4Z" style="fill:#0635c9"/><path d="M325.5,419a23,23,0,1,0-23-23A23.026,23.026,0,0,0,325.5,419Zm0-34a11,11,0,1,1-11,11A11.013,11.013,0,0,1,325.5,385Z" style="fill:#1ae5be"/><path d="M383.5,419a23,23,0,1,0-23-23A23.026,23.026,0,0,0,383.5,419Zm0-34a11,11,0,1,1-11,11A11.013,11.013,0,0,1,383.5,385Z" style="fill:#1ae5be"/><path d="M111,417a6,6,0,0,0,6-6V381a6,6,0,0,0-12,0v30A6,6,0,0,0,111,417Z" style="fill:#1ae5be"/><path d="M138,417a6,6,0,0,0,6-6V381a6,6,0,0,0-12,0v30A6,6,0,0,0,138,417Z" style="fill:#1ae5be"/><path d="M164,417a6,6,0,0,0,6-6V381a6,6,0,0,0-12,0v30A6,6,0,0,0,164,417Z" style="fill:#1ae5be"/><path d="M191,417a6,6,0,0,0,6-6V381a6,6,0,0,0-12,0v30A6,6,0,0,0,191,417Z" style="fill:#1ae5be"/><path d="M217,417a6,6,0,0,0,6-6V381a6,6,0,0,0-12,0v30A6,6,0,0,0,217,417Z" style="fill:#1ae5be"/><path d="M325.5,279a23,23,0,1,0-23-23A23.026,23.026,0,0,0,325.5,279Zm0-34a11,11,0,1,1-11,11A11.013,11.013,0,0,1,325.5,245Z" style="fill:#1ae5be"/><path d="M383.5,279a23,23,0,1,0-23-23A23.026,23.026,0,0,0,383.5,279Zm0-34a11,11,0,1,1-11,11A11.013,11.013,0,0,1,383.5,245Z" style="fill:#1ae5be"/><path d="M111,277a6,6,0,0,0,6-6V241a6,6,0,0,0-12,0v30A6,6,0,0,0,111,277Z" style="fill:#1ae5be"/><path d="M138,277a6,6,0,0,0,6-6V241a6,6,0,0,0-12,0v30A6,6,0,0,0,138,277Z" style="fill:#1ae5be"/><path d="M164,277a6,6,0,0,0,6-6V241a6,6,0,0,0-12,0v30A6,6,0,0,0,164,277Z" style="fill:#1ae5be"/><path d="M191,277a6,6,0,0,0,6-6V241a6,6,0,0,0-12,0v30A6,6,0,0,0,191,277Z" style="fill:#1ae5be"/><path d="M217,277a6,6,0,0,0,6-6V241a6,6,0,0,0-12,0v30A6,6,0,0,0,217,277Z" style="fill:#1ae5be"/><path d="M325.5,139a23,23,0,1,0-23-23A23.026,23.026,0,0,0,325.5,139Zm0-34a11,11,0,1,1-11,11A11.013,11.013,0,0,1,325.5,105Z" style="fill:#1ae5be"/><path d="M383.5,139a23,23,0,1,0-23-23A23.026,23.026,0,0,0,383.5,139Zm0-34a11,11,0,1,1-11,11A11.013,11.013,0,0,1,383.5,105Z" style="fill:#1ae5be"/><path d="M111,137a6,6,0,0,0,6-6V101a6,6,0,0,0-12,0v30A6,6,0,0,0,111,137Z" style="fill:#1ae5be"/><path d="M138,137a6,6,0,0,0,6-6V101a6,6,0,0,0-12,0v30A6,6,0,0,0,138,137Z" style="fill:#1ae5be"/><path d="M164,137a6,6,0,0,0,6-6V101a6,6,0,0,0-12,0v30A6,6,0,0,0,164,137Z" style="fill:#1ae5be"/><path d="M191,137a6,6,0,0,0,6-6V101a6,6,0,0,0-12,0v30A6,6,0,0,0,191,137Z" style="fill:#1ae5be"/><path d="M217,137a6,6,0,0,0,6-6V101a6,6,0,0,0-12,0v30A6,6,0,0,0,217,137Z" style="fill:#1ae5be"/></svg>
