<?xml version="1.0"?>
<svg xmlns="http://www.w3.org/2000/svg" id="Layer_1" data-name="Layer 1" viewBox="0 0 512 512" width="512" height="512"><title>Server3</title><path d="M107,173V93a4,4,0,0,1,4-4H91a4,4,0,0,0-4,4v80a4,4,0,0,0,4,4h20A4,4,0,0,1,107,173Z" style="fill:#d4e1f4"/><path d="M107,293V213a4,4,0,0,1,4-4H91a4,4,0,0,0-4,4v80a4,4,0,0,0,4,4h20A4,4,0,0,1,107,293Z" style="fill:#d4e1f4"/><path d="M91,309H250v68.628A29.085,29.085,0,0,0,227.628,400H163.5a24,24,0,1,0,0,12h64.132a29,29,0,0,0,56.744,0H348.5a24,24,0,1,0,0-12H284.372A29.085,29.085,0,0,0,262,377.628V309H421a16.019,16.019,0,0,0,16-16V213a16.019,16.019,0,0,0-16-16H387v-8h34a16.019,16.019,0,0,0,16-16V93a16.019,16.019,0,0,0-16-16H91A16.019,16.019,0,0,0,75,93v80a16.019,16.019,0,0,0,16,16h34v8H91a16.019,16.019,0,0,0-16,16v80A16.019,16.019,0,0,0,91,309Zm49.256,109a12,12,0,1,1,12-12A12.013,12.013,0,0,1,140.256,418Zm231.488-24a12,12,0,1,1-12,12A12.013,12.013,0,0,1,371.744,394ZM273,406a17,17,0,1,1-17-17A17.019,17.019,0,0,1,273,406ZM137,185H375v15H137ZM87,173V93a4,4,0,0,1,4-4H421a4,4,0,0,1,4,4v80a4,4,0,0,1-4,4H386.651A6,6,0,0,0,381,173H131a6,6,0,0,0-5.651,4H91A4,4,0,0,1,87,173Zm0,40a4,4,0,0,1,4-4h34.809A5.993,5.993,0,0,0,131,212H381a5.99,5.99,0,0,0,5.19-3H421a4,4,0,0,1,4,4v80a4,4,0,0,1-4,4H91a4,4,0,0,1-4-4Z" style="fill:#0635c9"/><path d="M325.5,276a23,23,0,1,0-23-23A23.026,23.026,0,0,0,325.5,276Zm0-34a11,11,0,1,1-11,11A11.013,11.013,0,0,1,325.5,242Z" style="fill:#1ae5be"/><path d="M383.5,230a23,23,0,1,0,23,23A23.026,23.026,0,0,0,383.5,230Zm0,34a11,11,0,1,1,11-11A11.013,11.013,0,0,1,383.5,264Z" style="fill:#1ae5be"/><path d="M117,248a6,6,0,0,0-12,0v20a6,6,0,0,0,12,0Z" style="fill:#1ae5be"/><path d="M138,274a6,6,0,0,0,6-6V248a6,6,0,0,0-12,0v20A6,6,0,0,0,138,274Z" style="fill:#1ae5be"/><path d="M164,274a6,6,0,0,0,6-6V248a6,6,0,0,0-12,0v20A6,6,0,0,0,164,274Z" style="fill:#1ae5be"/><path d="M191,274a6,6,0,0,0,6-6V248a6,6,0,0,0-12,0v20A6,6,0,0,0,191,274Z" style="fill:#1ae5be"/><path d="M217,274a6,6,0,0,0,6-6V248a6,6,0,0,0-12,0v20A6,6,0,0,0,217,274Z" style="fill:#1ae5be"/><path d="M325.5,156a23,23,0,1,0-23-23A23.026,23.026,0,0,0,325.5,156Zm0-34a11,11,0,1,1-11,11A11.013,11.013,0,0,1,325.5,122Z" style="fill:#1ae5be"/><path d="M383.5,110a23,23,0,1,0,23,23A23.026,23.026,0,0,0,383.5,110Zm0,34a11,11,0,1,1,11-11A11.013,11.013,0,0,1,383.5,144Z" style="fill:#1ae5be"/><path d="M111,154a6,6,0,0,0,6-6V128a6,6,0,0,0-12,0v20A6,6,0,0,0,111,154Z" style="fill:#1ae5be"/><path d="M138,154a6,6,0,0,0,6-6V128a6,6,0,0,0-12,0v20A6,6,0,0,0,138,154Z" style="fill:#1ae5be"/><path d="M164,154a6,6,0,0,0,6-6V128a6,6,0,0,0-12,0v20A6,6,0,0,0,164,154Z" style="fill:#1ae5be"/><path d="M191,154a6,6,0,0,0,6-6V128a6,6,0,0,0-12,0v20A6,6,0,0,0,191,154Z" style="fill:#1ae5be"/><path d="M217,154a6,6,0,0,0,6-6V128a6,6,0,0,0-12,0v20A6,6,0,0,0,217,154Z" style="fill:#1ae5be"/></svg>
