<?xml version="1.0"?>
<svg xmlns="http://www.w3.org/2000/svg" id="Layer_1" data-name="Layer 1" viewBox="0 0 512 512" width="512" height="512"><title>Setting Server</title><path d="M66,186.5V86.5c0-2.206,2.294-3.5,4.5-3.5h-20c-2.206,0-4.5,1.294-4.5,3.5v100a4.912,4.912,0,0,0,4.5,4.5h20A4.912,4.912,0,0,1,66,186.5Z" style="fill:#d4e1f4"/><path d="M66,466.5v-100c0-2.206,2.294-3.5,4.5-3.5h-20c-2.206,0-4.5,1.294-4.5,3.5v100a4.912,4.912,0,0,0,4.5,4.5h20A4.912,4.912,0,0,1,66,466.5Z" style="fill:#d4e1f4"/><path d="M66,326.5v-100c0-2.206,2.294-3.5,4.5-3.5h-20c-2.206,0-4.5,1.294-4.5,3.5v100a4.912,4.912,0,0,0,4.5,4.5h20A4.912,4.912,0,0,1,66,326.5Z" style="fill:#d4e1f4"/><path d="M283.208,394.528a23,23,0,1,0,23,23A23.026,23.026,0,0,0,283.208,394.528Zm0,34a11,11,0,1,1,11-11A11.012,11.012,0,0,1,283.208,428.528Z" style="fill:#0635c9"/><path d="M341.208,394.528a23,23,0,1,0,23,23A23.026,23.026,0,0,0,341.208,394.528Zm0,34a11,11,0,1,1,11-11A11.012,11.012,0,0,1,341.208,428.528Z" style="fill:#0635c9"/><path d="M69,396.528a6,6,0,0,0-6,6v30a6,6,0,0,0,12,0v-30A6,6,0,0,0,69,396.528Z" style="fill:#0635c9"/><path d="M96,396.528a6,6,0,0,0-6,6v30a6,6,0,0,0,12,0v-30A6,6,0,0,0,96,396.528Z" style="fill:#0635c9"/><path d="M122,396.528a6,6,0,0,0-6,6v30a6,6,0,0,0,12,0v-30A6,6,0,0,0,122,396.528Z" style="fill:#0635c9"/><path d="M148,396.528a6,6,0,0,0-6,6v30a6,6,0,0,0,12,0v-30A6,6,0,0,0,148,396.528Z" style="fill:#0635c9"/><path d="M175,396.528a6,6,0,0,0-6,6v30a6,6,0,0,0,12,0v-30A6,6,0,0,0,175,396.528Z" style="fill:#0635c9"/><path d="M378.708,344A16.68,16.68,0,0,0,395,327.528V255H383v72.528A4.691,4.691,0,0,1,378.708,332H344.359c-.824-3-3.04-4-5.651-4h-250c-2.611,0-4.827,1-5.651,4H48.708C46.5,332,45,329.734,45,327.528v-100A3.385,3.385,0,0,1,48.708,224h34.81c1.038,1,2.97,3,5.19,3H276V215H95V200H260V188H88.708c-2.611,0-4.826,1-5.651,4H48.708C46.5,192,45,189.734,45,187.528v-100A3.385,3.385,0,0,1,48.708,84H274V72H48.708A15.374,15.374,0,0,0,33,87.528v100C33,196.351,39.886,204,48.708,204H83v8H48.708A15.374,15.374,0,0,0,33,227.528v100C33,336.351,39.886,344,48.708,344H83v8H48.708A15.374,15.374,0,0,0,33,367.528v100C33,476.351,39.886,484,48.708,484h330A16.68,16.68,0,0,0,395,467.528v-100c0-8.822-7.47-15.528-16.292-15.528H345v-8ZM333,355H95V340H333Zm50,12.528v100A4.691,4.691,0,0,1,378.708,472h-330C46.5,472,45,469.734,45,467.528v-100A3.385,3.385,0,0,1,48.708,364h34.81c1.037,1,2.97,3,5.19,3h250c2.22,0,4.153-2,5.19-3h34.81C380.914,364,383,365.323,383,367.528Z" style="fill:#0635c9"/><path d="M260.208,277.528a23,23,0,1,0,23-23A23.026,23.026,0,0,0,260.208,277.528Zm23-11a11,11,0,1,1-11,11A11.013,11.013,0,0,1,283.208,266.528Z" style="fill:#0635c9"/><path d="M341.208,300.528a23,23,0,1,0-23-23A23.026,23.026,0,0,0,341.208,300.528Zm0-34a11,11,0,1,1-11,11A11.013,11.013,0,0,1,341.208,266.528Z" style="fill:#0635c9"/><path d="M63,262.528v30a6,6,0,0,0,12,0v-30a6,6,0,0,0-12,0Z" style="fill:#0635c9"/><path d="M90,262.528v30a6,6,0,0,0,12,0v-30a6,6,0,0,0-12,0Z" style="fill:#0635c9"/><path d="M116,262.528v30a6,6,0,0,0,12,0v-30a6,6,0,0,0-12,0Z" style="fill:#0635c9"/><path d="M142,262.528v30a6,6,0,0,0,12,0v-30a6,6,0,0,0-12,0Z" style="fill:#0635c9"/><path d="M169,262.528v30a6,6,0,0,0,12,0v-30a6,6,0,0,0-12,0Z" style="fill:#0635c9"/><path d="M63,122.528v30a6,6,0,0,0,12,0v-30a6,6,0,0,0-12,0Z" style="fill:#0635c9"/><path d="M90,122.528v30a6,6,0,0,0,12,0v-30a6,6,0,0,0-12,0Z" style="fill:#0635c9"/><path d="M116,122.528v30a6,6,0,1,0,12,0v-30a6,6,0,0,0-12,0Z" style="fill:#0635c9"/><path d="M142,122.528v30a6,6,0,1,0,12,0v-30a6,6,0,0,0-12,0Z" style="fill:#0635c9"/><path d="M169,122.528v30a6,6,0,1,0,12,0v-30a6,6,0,0,0-12,0Z" style="fill:#0635c9"/><path d="M473.942,173.862l-21.624-16.474a75.884,75.884,0,0,0,.867-10.686,75.462,75.462,0,0,0-.857-10.615l23.162-16.47c.044-.031.088-.063.13-.095a9.15,9.15,0,0,0,2.429-11.874L453.818,66.893c-3.055-5.081-8.006-5.323-11.4-3.4l-25.643,11.8a101.253,101.253,0,0,0-18.256-10.57l-2.56-28.2a9.56,9.56,0,0,0-.135-1.068c-1-4.253-4.536-7.46-8.6-7.46H339.908a8.821,8.821,0,0,0-8.719,8.036L328.615,64.6a90.374,90.374,0,0,0-18.321,10.6L284.578,63.4c-.092-.042-.184-.067-.279-.105-4.07-1.63-9.025.012-10.982,3.576l-23.651,40.718a9.11,9.11,0,0,0,2.466,11.974c.041.031.082.062.123.091l23.106,16.429a75.18,75.18,0,0,0-.86,10.614,75.047,75.047,0,0,0,.853,10.569l-24.2,16.478c-.08.056-.159.112-.236.171a9.113,9.113,0,0,0-2.406,11.787l23.724,40.83a9.26,9.26,0,0,0,4.825,4.091,7.811,7.811,0,0,0,6.556-.717l25.65-11.8a101.373,101.373,0,0,0,18.249,10.568l2.566,28.2a6.457,6.457,0,0,0,.135.865A9.049,9.049,0,0,0,338.806,265H386.13a8.647,8.647,0,0,0,8.717-7.83l2.579-28.471a90.459,90.459,0,0,0,18.319-10.55l25.713,11.827c.1.046.2.088.3.128,4.051,1.6,8.994-.036,10.949-3.568l23.684-40.77A9.1,9.1,0,0,0,473.942,173.862Zm-30.075,44.009-26.479-12.183a6,6,0,0,0-6.308.807l-1.341,1.1c-4.778,3.91-10.932,7.454-18.813,10.835l-1.518.65a6.05,6.05,0,0,0-3.612,5.007L383.179,253H341.768l-2.628-28.918a6.028,6.028,0,0,0-3.613-4.988l-1.515-.658a90.562,90.562,0,0,1-19.105-11.066l-1.322-.994a6,6,0,0,0-6.107-.653L281.073,217.87l-20.807-35.81,23.5-16c.046-.033.094-.065.14-.1l1.423-1.029a6,6,0,0,0,2.423-5.707l-.245-1.717A74.192,74.192,0,0,1,286.5,146.7a74.417,74.417,0,0,1,1.017-10.868l.238-1.674a6,6,0,0,0-2.464-5.736l-23.954-17.031,20.831-35.858L308.65,87.716a6,6,0,0,0,6.307-.807l1.342-1.1c4.786-3.916,10.939-7.459,18.809-10.833l1.523-.652a6.356,6.356,0,0,0,3.614-5.211L342.858,40h41.413l2.623,29.118a6.174,6.174,0,0,0,3.615,5.092l1.52.709a90.435,90.435,0,0,1,19.1,11.088l1.322,1.008a6,6,0,0,0,6.112.661L444.99,75.521l21.335,35.887L442.4,128.424a6,6,0,0,0-2.462,5.735l.239,1.68a74.578,74.578,0,0,1,1.012,10.863,73.7,73.7,0,0,1-1.01,10.855l-.233,1.617a6.005,6.005,0,0,0,2.3,5.627l22.5,17.137Z" style="fill:#1ae5be"/><path d="M363.292,82.735c-35.867,0-63.964,28.1-63.964,63.966s28.1,63.968,63.964,63.968,63.968-28.1,63.968-63.968S399.162,82.735,363.292,82.735Zm0,115.934A51.967,51.967,0,1,1,415.26,146.7,51.413,51.413,0,0,1,363.292,198.669Z" style="fill:#1ae5be"/><path d="M363.294,114.6A32.107,32.107,0,1,0,395.4,146.7,31.764,31.764,0,0,0,363.294,114.6Zm0,52.213A20.107,20.107,0,1,1,383.4,146.7,19.893,19.893,0,0,1,363.294,166.809Z" style="fill:#1ae5be"/></svg>
