<?xml version="1.0"?>
<svg xmlns="http://www.w3.org/2000/svg" id="Layer_1" data-name="Layer 1" viewBox="0 0 512 512" width="512" height="512"><title>Technology protection</title><path d="M112.292,244.759V168.83L219,111.347,203.642,103.3,82,168.83v75.929c0,69.3,41.949,132.117,106.712,160.027l14.6,6.214,15.17-6.448C154.021,376.529,112.292,313.875,112.292,244.759Z" style="fill:#d4e1f4"/><path d="M333.664,160.036,205.353,91.705a6.074,6.074,0,0,0-5.744.033L75.022,160.069A5.915,5.915,0,0,0,72,165.331v78.842A184.315,184.315,0,0,0,182.422,412.957l17.247,7.543a5.872,5.872,0,0,0,2.369.5,5.945,5.945,0,0,0,2.365-.491l19.473-8.413A184.563,184.563,0,0,0,305.9,344.282l-9.99-6.652a172.637,172.637,0,0,1-76.754,63.431l-17.133,7.4-14.792-6.5A172.31,172.31,0,0,1,84,244.173V168.885L202.765,103.82,325,168.933V196h12V165.331A6.148,6.148,0,0,0,333.664,160.036Z" style="fill:#0635c9"/><path d="M414.229,352a26.038,26.038,0,0,0-25.293,20H366V342a5.81,5.81,0,0,0-5.771-6H245.521a26,26,0,1,0,0,12H354v30a6.2,6.2,0,0,0,6.229,6h28.707a26,26,0,1,0,25.293-32Zm-194.115,4A14,14,0,1,1,233,336.834v10.332A13.8,13.8,0,0,1,220.114,356Zm194.115,36a14,14,0,1,1,14-14A14.015,14.015,0,0,1,414.229,392Z" style="fill:#1ae5be"/><path d="M338.193,276a26,26,0,1,0-.477-12H183.741a26,26,0,1,0-.477,12Zm25.036-21a14,14,0,1,1-14,14A14.016,14.016,0,0,1,363.229,255Zm-205,28a14,14,0,1,1,14-14A14.015,14.015,0,0,1,158.229,283Z" style="fill:#1ae5be"/><path d="M414.229,134a26.038,26.038,0,0,0-25.293,20H360.229A6.2,6.2,0,0,0,354,160v30H245.521a26,26,0,1,0,0,12H360.229A5.81,5.81,0,0,0,366,196V166h22.936a26,26,0,1,0,25.293-32ZM220.114,210A14,14,0,1,1,233,190.834v10.332A13.8,13.8,0,0,1,220.114,210Zm194.115-36a14,14,0,1,1,14-14A14.015,14.015,0,0,1,414.229,174Z" style="fill:#1ae5be"/></svg>
