<?xml version="1.0"?>
<svg xmlns="http://www.w3.org/2000/svg" id="Layer_1" data-name="Layer 1" viewBox="0 0 512 512" width="512" height="512"><title>Web Database</title><path d="M210.256,464.734C192.563,458.333,182,449.917,182,442.222V402.007c-12.208-3.81-22.608-8.671-30-14.548v54.763c0,7.695,10.563,16.111,28.256,22.512,20.133,7.286,47.032,11.3,75.744,11.3q7.6,0,15-.377C248.009,474.507,226.836,470.734,210.256,464.734Z" style="fill:#d4e1f4"/><path d="M210.256,388.782C192.563,382.38,182,373.964,182,366.27V326.578c-12.208-3.81-22.608-8.67-30-14.547V366.27c0,7.694,10.563,16.11,28.256,22.512,20.133,7.285,47.032,11.3,75.744,11.3q7.6,0,15-.377C248.009,398.555,226.836,394.782,210.256,388.782Z" style="fill:#d4e1f4"/><path d="M210.256,313.354C192.563,306.952,182,298.536,182,290.841V251.15c-12.208-3.81-22.608-8.671-30-14.547v54.238c0,7.695,10.563,16.111,28.256,22.513,20.133,7.285,47.032,11.3,75.744,11.3q7.6,0,15-.377C248.009,323.126,226.836,319.353,210.256,313.354Z" style="fill:#d4e1f4"/><path d="M210.26,237.92c-17.7-6.4-28.26-14.818-28.26-22.507s10.564-16.1,28.26-22.508c16.583-6,37.755-9.776,60.74-10.924q-7.391-.369-15-.378c-28.7,0-55.6,4.014-75.74,11.3-17.7,6.4-28.26,14.818-28.26,22.508s10.564,16.1,28.26,22.507c20.138,7.288,47.036,11.3,75.74,11.3q7.6,0,15-.378C248.015,247.7,226.844,243.922,210.26,237.92Z" style="fill:#d4e1f4"/><path d="M72,381.524V118H42V381.524C42,389.244,48.28,396,56,396H86C78.28,396,72,389.244,72,381.524Z" style="fill:#d4e1f4"/><path d="M86,36H56A13.989,13.989,0,0,0,42,49.969V106H72V49.969A13.989,13.989,0,0,1,86,36Z" style="fill:#d4e1f4"/><path d="M56,408h90a6,6,0,0,0,0-12H56c-7.72,0-14-6.756-14-14.476V118H470V381.524c0,7.72-6.28,14.476-14,14.476H366a6,6,0,0,0,0,12h90c14.337,0,26-12.14,26-26.476V49.969A26,26,0,0,0,456,24H56A26,26,0,0,0,30,49.969V381.524C30,395.86,41.664,408,56,408ZM56,36H456a13.989,13.989,0,0,1,14,13.969V106H42V49.969A13.989,13.989,0,0,1,56,36Z" style="fill:#0635c9"/><path d="M76.857,91.842A21.715,21.715,0,1,0,55.143,70.127,21.739,21.739,0,0,0,76.857,91.842Zm0-31.429a9.715,9.715,0,1,1-9.714,9.714A9.725,9.725,0,0,1,76.857,60.413Z" style="fill:#0635c9"/><path d="M133.429,91.842a21.715,21.715,0,1,0-21.715-21.715A21.739,21.739,0,0,0,133.429,91.842Zm0-31.429a9.715,9.715,0,1,1-9.715,9.714A9.725,9.725,0,0,1,133.429,60.413Z" style="fill:#0635c9"/><path d="M188.952,91.842a21.715,21.715,0,1,0-21.714-21.715A21.74,21.74,0,0,0,188.952,91.842Zm0-31.429a9.715,9.715,0,1,1-9.714,9.714A9.726,9.726,0,0,1,188.952,60.413Z" style="fill:#0635c9"/><path d="M271.714,75H451.9a6,6,0,0,0,0-12H271.714a6,6,0,0,0,0,12Z" style="fill:#0635c9"/><path d="M256,488.031c30.068,0,58.419-4.266,79.827-12.012,23.326-8.441,36.173-20.444,36.173-33.8V215.413c0-29.755-59.766-45.81-116-45.81-30.061,0-58.409,4.268-79.824,12.018C152.848,190.064,140,202.064,140,215.413V442.222C140,471.976,199.766,488.031,256,488.031Zm75.744-23.3c-20.133,7.286-47.032,11.3-75.744,11.3s-55.611-4.011-75.744-11.3C162.563,458.333,152,449.917,152,442.222V387.459c20.26,16.109,63.062,24.62,104,24.62,30.068,0,58.419-4.266,79.827-12.013,10.08-3.647,18.2-7.96,24.173-12.76v54.916C360,449.917,349.438,458.333,331.744,464.734ZM360,290.841c0,7.695-10.562,16.111-28.256,22.513-20.133,7.285-47.032,11.3-75.744,11.3s-55.611-4.011-75.744-11.3C162.563,306.952,152,298.536,152,290.841V236.6c20.26,16.108,63.062,24.619,104,24.619,30.061,0,58.409-4.268,79.823-12.018,10.082-3.648,18.2-7.963,24.177-12.762ZM256,336.65c30.068,0,58.419-4.266,79.827-12.012,10.08-3.648,18.2-7.961,24.173-12.76V366.27c0,7.694-10.562,16.11-28.256,22.512-20.133,7.285-47.032,11.3-75.744,11.3s-55.611-4.012-75.744-11.3C162.563,382.38,152,373.964,152,366.27V312.031C172.26,328.139,215.062,336.65,256,336.65ZM180.26,192.905C200.4,185.617,227.3,181.6,256,181.6s55.6,4.014,75.74,11.3c17.7,6.4,28.26,14.818,28.26,22.508s-10.564,16.1-28.26,22.507c-20.138,7.288-47.037,11.3-75.74,11.3s-55.6-4.014-75.74-11.3c-17.7-6.4-28.26-14.818-28.26-22.507S162.564,199.309,180.26,192.905Z" style="fill:#1ae5be"/><path d="M286.469,285.235A289.086,289.086,0,0,1,256,286.815a282,282,0,0,1-38.066-2.5,6,6,0,1,0-1.626,11.89A294.1,294.1,0,0,0,256,298.815a300.794,300.794,0,0,0,31.74-1.648,6,6,0,0,0-1.271-11.932Z" style="fill:#1ae5be"/><path d="M319.821,268.073a16,16,0,1,0,16,16A16.018,16.018,0,0,0,319.821,268.073Zm0,20a4,4,0,1,1,4-4A4,4,0,0,1,319.821,288.073Z" style="fill:#1ae5be"/><path d="M216.308,370.514A294.151,294.151,0,0,0,256,373.127a301.065,301.065,0,0,0,31.74-1.647,6,6,0,0,0-1.271-11.933A288.817,288.817,0,0,1,256,361.127a282.211,282.211,0,0,1-38.066-2.5,6,6,0,1,0-1.626,11.889Z" style="fill:#1ae5be"/><path d="M319.821,374.385a16,16,0,1,0-16-16A16.018,16.018,0,0,0,319.821,374.385Zm0-20a4,4,0,1,1-4,4A4,4,0,0,1,319.821,354.385Z" style="fill:#1ae5be"/><path d="M286.469,433.859A288.817,288.817,0,0,1,256,435.439a282.07,282.07,0,0,1-38.066-2.5,6,6,0,0,0-1.626,11.89A294.186,294.186,0,0,0,256,447.439a301.065,301.065,0,0,0,31.74-1.647,6,6,0,0,0-1.271-11.933Z" style="fill:#1ae5be"/><path d="M319.821,416.7a16,16,0,1,0,16,16A16.019,16.019,0,0,0,319.821,416.7Zm0,20a4,4,0,1,1,4-4A4,4,0,0,1,319.821,436.7Z" style="fill:#1ae5be"/></svg>
