<?xml version="1.0"?>
<svg xmlns="http://www.w3.org/2000/svg" id="Layer_1" data-name="Layer 1" viewBox="0 0 512 512" width="512" height="512"><title>Web Server</title><path d="M72,398.707V135H42V398.707A14.269,14.269,0,0,0,56,413H86A14.269,14.269,0,0,1,72,398.707Z" style="fill:#d4e1f4"/><path d="M86,53H56A14.146,14.146,0,0,0,42,67.151V123H72V67.151A14.146,14.146,0,0,1,86,53Z" style="fill:#d4e1f4"/><path d="M172,454V399a4,4,0,0,1,4-4H156a4,4,0,0,0-4,4v55a4,4,0,0,0,4,4h20A4,4,0,0,1,172,454Z" style="fill:#d4e1f4"/><path d="M172,270V215a4,4,0,0,1,4-4H156a4,4,0,0,0-4,4v55a4,4,0,0,0,4,4h20A4,4,0,0,1,172,270Z" style="fill:#d4e1f4"/><path d="M172,361V306a4,4,0,0,1,4-4H156a4,4,0,0,0-4,4v55a4,4,0,0,0,4,4h20A4,4,0,0,1,172,361Z" style="fill:#d4e1f4"/><path d="M56,425h90a6,6,0,0,0,0-12H56a14.269,14.269,0,0,1-14-14.293V135H470V398.707A14.269,14.269,0,0,1,456,413H366a6,6,0,0,0,0,12h90a26.281,26.281,0,0,0,26-26.293V67.151A26.159,26.159,0,0,0,456,41H56A26.16,26.16,0,0,0,30,67.151V398.707A26.282,26.282,0,0,0,56,425ZM56,53H456a14.146,14.146,0,0,1,14,14.151V123H42V67.151A14.146,14.146,0,0,1,56,53Z" style="fill:#0635c9"/><path d="M76.857,109.024A21.714,21.714,0,1,0,55.143,87.31,21.739,21.739,0,0,0,76.857,109.024Zm0-31.428a9.714,9.714,0,1,1-9.714,9.714A9.725,9.725,0,0,1,76.857,77.6Z" style="fill:#0635c9"/><path d="M133.429,109.024A21.714,21.714,0,1,0,111.714,87.31,21.739,21.739,0,0,0,133.429,109.024Zm0-31.428a9.714,9.714,0,1,1-9.715,9.714A9.725,9.725,0,0,1,133.429,77.6Z" style="fill:#0635c9"/><path d="M188.952,109.024A21.714,21.714,0,1,0,167.238,87.31,21.74,21.74,0,0,0,188.952,109.024Zm0-31.428a9.714,9.714,0,1,1-9.714,9.714A9.726,9.726,0,0,1,188.952,77.6Z" style="fill:#0635c9"/><path d="M271.714,92H451.9a6,6,0,0,0,0-12H271.714a6,6,0,0,0,0,12Z" style="fill:#0635c9"/><path d="M289.686,259.41A16.686,16.686,0,1,0,273,242.724,16.7,16.7,0,0,0,289.686,259.41Zm0-21.371A4.686,4.686,0,1,1,285,242.724,4.69,4.69,0,0,1,289.686,238.039Z" style="fill:#1ae5be"/><path d="M172,258.153a6,6,0,0,0,6-6V243.3a6,6,0,1,0-12,0v8.858A6,6,0,0,0,172,258.153Z" style="fill:#1ae5be"/><path d="M192,258.153a6,6,0,0,0,6-6V243.3a6,6,0,1,0-12,0v8.858A6,6,0,0,0,192,258.153Z" style="fill:#1ae5be"/><path d="M212,258.153a6,6,0,0,0,6-6V243.3a6,6,0,1,0-12,0v8.858A6,6,0,0,0,212,258.153Z" style="fill:#1ae5be"/><path d="M232,258.153a6,6,0,0,0,6-6V243.3a6,6,0,1,0-12,0v8.858A6,6,0,0,0,232,258.153Z" style="fill:#1ae5be"/><path d="M289.686,350.743A16.686,16.686,0,1,0,273,334.058,16.7,16.7,0,0,0,289.686,350.743Zm0-21.371A4.686,4.686,0,1,1,285,334.058,4.69,4.69,0,0,1,289.686,329.372Z" style="fill:#1ae5be"/><path d="M172,349.486a6,6,0,0,0,6-6v-8.857a6,6,0,0,0-12,0v8.857A6,6,0,0,0,172,349.486Z" style="fill:#1ae5be"/><path d="M192,349.486a6,6,0,0,0,6-6v-8.857a6,6,0,0,0-12,0v8.857A6,6,0,0,0,192,349.486Z" style="fill:#1ae5be"/><path d="M212,349.486a6,6,0,0,0,6-6v-8.857a6,6,0,0,0-12,0v8.857A6,6,0,0,0,212,349.486Z" style="fill:#1ae5be"/><path d="M232,349.486a6,6,0,0,0,6-6v-8.857a6,6,0,0,0-12,0v8.857A6,6,0,0,0,232,349.486Z" style="fill:#1ae5be"/><path d="M333.143,259.41a16.686,16.686,0,1,0-16.686-16.686A16.7,16.7,0,0,0,333.143,259.41Zm0-21.371a4.686,4.686,0,1,1-4.686,4.685A4.69,4.69,0,0,1,333.143,238.039Z" style="fill:#1ae5be"/><path d="M333.143,350.743a16.686,16.686,0,1,0-16.686-16.685A16.7,16.7,0,0,0,333.143,350.743Zm0-21.371a4.686,4.686,0,1,1-4.686,4.686A4.69,4.69,0,0,1,333.143,329.372Z" style="fill:#1ae5be"/><path d="M372,270.438V215.01A16.027,16.027,0,0,0,356,199H156a16.027,16.027,0,0,0-16,16.01v55.428a16.017,16.017,0,0,0,10,14.822v6.261a16.018,16.018,0,0,0-10,14.822v55.428a16.017,16.017,0,0,0,10,14.822v8a16.017,16.017,0,0,0-10,14.822v55.429A16.148,16.148,0,0,0,156,471H356a16.148,16.148,0,0,0,16-16.151V399.42a16.639,16.639,0,0,0-10-15.18v-7.451a16.356,16.356,0,0,0,10-15.018V306.343a16.526,16.526,0,0,0-10-15.115v-6.342A15.389,15.389,0,0,0,372,270.438ZM162,290v-4H350v4Zm-10-75a4,4,0,0,1,4-4H356a4,4,0,0,1,4,4v55a4,4,0,0,1-4,4H156a4,4,0,0,1-4-4Zm0,91a4,4,0,0,1,4-4H356a4,4,0,0,1,4,4v55a4,4,0,0,1-4,4H156a4,4,0,0,1-4-4Zm10,77v-5H350v5Zm198,71a4,4,0,0,1-4,4H156a4,4,0,0,1-4-4V399a4,4,0,0,1,4-4H356a4,4,0,0,1,4,4Z" style="fill:#1ae5be"/><path d="M289.686,443.82A16.686,16.686,0,1,0,273,427.134,16.7,16.7,0,0,0,289.686,443.82Zm0-21.371A4.686,4.686,0,1,1,285,427.134,4.69,4.69,0,0,1,289.686,422.449Z" style="fill:#1ae5be"/><path d="M333.143,443.82a16.686,16.686,0,1,0-16.686-16.686A16.7,16.7,0,0,0,333.143,443.82Zm0-21.371a4.686,4.686,0,1,1-4.686,4.685A4.69,4.69,0,0,1,333.143,422.449Z" style="fill:#1ae5be"/><path d="M172,442.563a6,6,0,0,0,6-6v-8.857a6,6,0,0,0-12,0v8.857A6,6,0,0,0,172,442.563Z" style="fill:#1ae5be"/><path d="M192,442.563a6,6,0,0,0,6-6v-8.857a6,6,0,0,0-12,0v8.857A6,6,0,0,0,192,442.563Z" style="fill:#1ae5be"/><path d="M212,442.563a6,6,0,0,0,6-6v-8.857a6,6,0,0,0-12,0v8.857A6,6,0,0,0,212,442.563Z" style="fill:#1ae5be"/><path d="M232,442.563a6,6,0,0,0,6-6v-8.857a6,6,0,0,0-12,0v8.857A6,6,0,0,0,232,442.563Z" style="fill:#1ae5be"/></svg>
