<?xml version="1.0"?>
<svg xmlns="http://www.w3.org/2000/svg" id="Layer_1" data-name="Layer 1" viewBox="0 0 512 512" width="512" height="512"><title>Website Database</title><path d="M92,381.262V130H52V381.262A12.809,12.809,0,0,0,65.091,394h40A12.809,12.809,0,0,1,92,381.262Z" style="fill:#d4e1f4"/><path d="M105.091,52h-40A12.841,12.841,0,0,0,52,64.777V118H92V64.777A12.841,12.841,0,0,1,105.091,52Z" style="fill:#d4e1f4"/><path d="M182,275.479a36.545,36.545,0,0,1,23.292-34.056,6.037,6.037,0,0,0,3.847-5.9c-.038-.842-.062-1.7-.062-2.553A53.325,53.325,0,0,1,247.32,181.9a53.224,53.224,0,0,0-68.243,51.074c0,.85.024,1.711.062,2.553a6.037,6.037,0,0,1-3.847,5.9A36.545,36.545,0,0,0,152,275.479,36.532,36.532,0,0,0,188.308,312h30A36.532,36.532,0,0,1,182,275.479Z" style="fill:#d4e1f4"/><path d="M446.909,40H65.091A24.853,24.853,0,0,0,40,64.777V381.262A24.82,24.82,0,0,0,65.091,406H178V394H65.091A12.809,12.809,0,0,1,52,381.262V130H460V381.262A12.809,12.809,0,0,1,446.909,394H333v12H446.909A24.82,24.82,0,0,0,472,381.262V64.777A24.853,24.853,0,0,0,446.909,40ZM52,118V64.777A12.841,12.841,0,0,1,65.091,52H446.909A12.841,12.841,0,0,1,460,64.777V118Z" style="fill:#0635c9"/><path d="M85,63.02a21,21,0,1,0,21,21A21.024,21.024,0,0,0,85,63.02Zm0,30a9,9,0,1,1,9-9A9.01,9.01,0,0,1,85,93.02Z" style="fill:#0635c9"/><path d="M139,63.02a21,21,0,1,0,21,21A21.024,21.024,0,0,0,139,63.02Zm0,30a9,9,0,1,1,9-9A9.01,9.01,0,0,1,139,93.02Z" style="fill:#0635c9"/><path d="M192,63.02a21,21,0,1,0,21,21A21.024,21.024,0,0,0,192,63.02Zm0,30a9,9,0,1,1,9-9A9.01,9.01,0,0,1,192,93.02Z" style="fill:#0635c9"/><path d="M443,77H271a6,6,0,0,0,0,12H443a6,6,0,0,0,0-12Z" style="fill:#0635c9"/><path d="M323.692,324a48.525,48.525,0,0,0,14.029-94.911A48.39,48.39,0,0,0,279.8,188.254a65.225,65.225,0,0,0-112.712,43.613,47.989,47.989,0,0,0-12.932,9.246A48.6,48.6,0,0,0,188.308,324H217v37H195.7c-3.313,0-5.7,3.111-5.7,6.424v9.37a23.9,23.9,0,0,0-18.422,23.52,24.291,24.291,0,0,0,48.582,0A24.778,24.778,0,0,0,202,376.794V373h21.109A5.559,5.559,0,0,0,229,367.424V324h21V424.52a24.272,24.272,0,1,0,12,0V324h21v25.424A5.559,5.559,0,0,0,288.891,355H310v22.066a24.745,24.745,0,0,0-18.123,23.521,24.254,24.254,0,1,0,48.508,0A23.865,23.865,0,0,0,322,377.066V349.424c0-3.313-2.388-6.424-5.7-6.424H295V324ZM207.974,400.314A12.273,12.273,0,1,1,195.7,388.042,12.287,12.287,0,0,1,207.974,400.314Zm60.3,47.727A12.272,12.272,0,1,1,256,435.769,12.286,12.286,0,0,1,268.272,448.041Zm60.3-47.454A12.273,12.273,0,1,1,316.3,388.314,12.286,12.286,0,0,1,328.571,400.587ZM152,275.479a36.545,36.545,0,0,1,23.292-34.056,6.037,6.037,0,0,0,3.847-5.9c-.038-.842-.062-1.7-.062-2.553a53.231,53.231,0,0,1,94.059-34.161,6,6,0,0,0,6.328,1.9,36.3,36.3,0,0,1,46.652,33.333,6,6,0,0,0,4.809,5.647A36.553,36.553,0,0,1,323.692,312H188.308A36.532,36.532,0,0,1,152,275.479Z" style="fill:#1ae5be"/></svg>
