<svg height="400pt" viewBox="-48 0 400 400" width="400pt" xmlns="http://www.w3.org/2000/svg"><path d="m265.191406 71.300781h-67.4375v-61.300781h-42.605468c-1.875 0-3.394532 1.519531-3.394532 3.394531v82.898438h126.355469c1.304687 0 2.496094-.746094 3.058594-1.921875.566406-1.175782.410156-2.570313-.40625-3.589844zm0 0" fill="#d4e1f4"/><path d="m56 365 111.050781-180.195312-15.296875-24.820313-141.753906 230.015625h283.507812l-15.40625-25zm0 0" fill="#d4e1f4"/><path d="m118.59375 338.765625c-2.609375.003906-5.113281-1.015625-6.976562-2.835937l-44.285157-43.113282 13.953125-14.332031 37.308594 36.324219 47.003906-45.761719c3.882813-3.78125 10.066406-3.78125 13.949219 0l25.191406 24.523437 13.824219-18.269531 15.949219 12.066407-20.65625 27.304687c-1.730469 2.289063-4.363281 3.722656-7.222657 3.941406-2.859374.214844-5.675781-.808593-7.730468-2.808593l-26.335938-25.636719-47 45.761719c-1.863281 1.820312-4.367187 2.839843-6.972656 2.835937zm0 0" fill="#1ae5be"/><path d="m151.753906 179.277344c-5.523437 0-10-4.476563-10-10v-155.882813c.007813-7.394531 6-13.3867185 13.394532-13.394531h122.960937c5.148437 0 9.839844 2.949219 12.070313 7.585938 2.234374 4.640624 1.609374 10.144531-1.605469 14.167968l-25.082031 31.398438 25.082031 31.398437c3.210937 4.023438 3.835937 9.527344 1.601562 14.164063-2.230469 4.636718-6.917969 7.585937-12.066406 7.585937h-116.355469v62.980469c0 5.519531-4.476562 9.996094-10 9.996094zm10-92.980469h102.621094l-21.5-26.90625c-2.914062-3.652344-2.914062-8.832031 0-12.484375l21.5-26.90625h-102.621094zm0 0" fill="#1ae5be"/><path d="m293.507812 400h-283.507812c-3.625 0-6.964844-1.960938-8.730469-5.125-1.765625-3.164062-1.683593-7.035156.21875-10.121094l141.753907-230.015625c1.820312-2.953125 5.042968-4.753906 8.511718-4.753906s6.691406 1.800781 8.511719 4.753906l141.753906 230.015625c1.902344 3.085938 1.988281 6.957032.21875 10.121094-1.765625 3.164062-5.105469 5.125-8.730469 5.125zm-265.601562-20h247.691406l-123.84375-200.953125zm0 0" fill="#0635c9"/></svg>