<svg height="450pt" viewBox="-34 0 449 450" width="450pt" xmlns="http://www.w3.org/2000/svg"><path d="m60.5 430v-350c-.007812-22.09375 17.90625-40.007812 40-40h228.699219c-4.53125-17.667969-20.460938-30.015625-38.699219-30h-240c-22.09375-.007812-40.007812 17.90625-40 40v350c-.007812 22.09375 17.90625 40.007812 40 40h11.300781c-.894531-3.257812-1.332031-6.621094-1.300781-10zm0 0" fill="#d4e1f4"/><path d="m370.5 103.699219h-30v-53.699219c-.011719-27.609375-22.390625-49.9882812-50-50h-240c-27.609375.0117188-49.988281 22.390625-50 50v350c.011719 27.609375 22.390625 49.988281 50 50h240c27.609375-.011719 49.988281-22.390625 50-50v-53.699219h30c5.515625-.015625 9.984375-4.484375 10-10v-36c-.015625-5.515625-4.484375-9.984375-10-10h-30v-37.300781h30c5.515625-.015625 9.984375-4.484375 10-10v-36c-.015625-5.515625-4.484375-9.984375-10-10h-30v-37.300781h30c5.515625-.015625 9.984375-4.484375 10-10v-36c-.015625-5.515625-4.484375-9.984375-10-10zm-50 296.300781c-.046875 16.546875-13.453125 29.953125-30 30h-240c-16.546875-.046875-29.953125-13.453125-30-30v-350c.046875-16.546875 13.453125-29.953125 30-30h240c16.546875.046875 29.953125 13.453125 30 30zm40-73.699219h-20v-16h20zm0-93.300781h-20v-16h20zm0-93.300781h-20v-16h20zm0 0" fill="#0635c9"/><g fill="#1ae5be"><path d="m170.5 221c28.511719-.027344 51.609375-23.152344 51.601562-51.667969-.011718-28.511719-23.121093-51.621093-51.636718-51.632812-28.511719-.007813-51.636719 23.089843-51.664063 51.601562.035157 28.535157 23.160157 51.660157 51.699219 51.699219zm0-83.300781c17.480469.027343 31.628906 14.222656 31.601562 31.699219-.027343 17.480468-14.222656 31.628906-31.703124 31.601562-17.476563-.027344-31.625-14.21875-31.597657-31.699219.046875-17.472656 14.226563-31.609375 31.699219-31.601562zm0 0"/><path d="m170.5 240.101562c-21.148438-.136718-41.441406 8.347657-56.199219 23.5-15 15.296876-23.199219 36.097657-23.199219 58.699219.015626 5.515625 4.480469 9.984375 10 10h138.796876c5.519531-.015625 9.984374-4.484375 10-10 0-22.601562-8.199219-43.402343-23.199219-58.699219-14.757813-15.152343-35.050781-23.636718-56.199219-23.5zm-58.699219 72.199219c1.710938-13.074219 7.605469-25.246093 16.800781-34.699219 11.066407-11.199218 26.15625-17.5 41.898438-17.5s30.832031 6.300782 41.898438 17.5c9.175781 9.464844 15.066406 21.628907 16.800781 34.699219zm0 0"/></g></svg>