<svg height="420pt" viewBox="-10 0 420 420.02574" width="420pt" xmlns="http://www.w3.org/2000/svg"><path d="m69.9375 241.125c.007812-63.535156 35.484375-121.753906 91.945312-150.890625 56.460938-29.136719 124.464844-24.316406 176.253907 12.492187-39.109375-54.996093-107.074219-81.617187-173.128907-67.808593-66.058593 13.808593-117.671874 65.417969-131.476562 131.476562-13.808594 66.054688 12.808594 134.019531 67.804688 173.128907-20.429688-28.742188-31.402344-63.132813-31.398438-98.398438zm0 0" fill="#d4e1f4"/><path d="m276.335938 238.023438-66.597657-36.296876v-98.5c0-5.523437-4.476562-10-10-10-5.523437 0-10 4.476563-10 10v104.5c0 3.660157 1.992188 7.03125 5.199219 8.796876l71.800781 39.203124c1.480469.78125 3.125 1.191407 4.800781 1.199219 4.597657-.003906 8.609376-3.128906 9.742188-7.585937 1.132812-4.457032-.902344-9.117188-4.945312-11.316406zm0 0" fill="#1ae5be"/><g fill="#0635c9"><path d="m379.539062 201.125c0-99.101562-80.601562-179.800781-179.800781-179.800781s-179.800781 80.601562-179.800781 179.800781c.066406 67.226562 37.589844 128.8125 97.300781 159.699219l-42.199219 42.199219c-1.875 1.871093-2.925781 4.40625-2.925781 7.050781s1.050781 5.183593 2.925781 7.050781c1.875 1.890625 4.4375 2.933594 7.097657 2.898438 2.652343-.007813 5.199219-1.050782 7.101562-2.898438l47.597657-47.601562c20.121093 7.523437 41.421874 11.386718 62.902343 11.402343 21.484375.03125 42.792969-3.828125 62.898438-11.402343l47.601562 47.601562c1.875 1.890625 4.4375 2.933594 7.097657 2.898438 2.65625-.007813 5.199218-1.050782 7.101562-2.898438 1.871094-1.867188 2.925781-4.40625 2.925781-7.050781s-1.054687-5.179688-2.925781-7.050781l-42.199219-42.199219c57.699219-30 97.300781-90.300781 97.300781-159.699219zm-179.800781 159.699219c-88.101562 0-159.800781-71.699219-159.800781-159.800781 0-88.097657 71.699219-159.699219 159.800781-159.699219 88.097657 0 159.800781 71.699219 159.800781 159.800781s-71.703124 159.699219-159.800781 159.699219zm0 0"/><path d="m396.636719 80.324219-77.300781-77.300781c-3.890626-3.890626-10.203126-3.890626-14.097657 0-3.894531 3.894531-3.894531 10.207031 0 14.101562l77.300781 77.300781c1.875 1.886719 4.4375 2.933594 7.097657 2.898438 2.652343-.011719 5.199219-1.050781 7.101562-2.898438 3.820313-3.941406 3.777344-10.214843-.101562-14.101562zm0 0"/><path d="m94.335938 2.925781c-1.867188-1.875-4.402344-2.925781-7.046876-2.925781-2.648437 0-5.183593 1.050781-7.050781 2.925781l-77.300781 77.300781c-1.871094 1.867188-2.9257812 4.402344-2.9257812 7.046876 0 2.648437 1.0546872 5.183593 2.9257812 7.050781 1.875 1.890625 4.4375 2.9375 7.101562 2.902343 2.652344-.011718 5.195313-1.050781 7.097657-2.902343l77.300781-77.300781c3.820312-3.9375 3.777344-10.214844-.101562-14.097657zm0 0"/></g></svg>