<svg height="399pt" viewBox="-21 0 399 399.99571" width="399pt" xmlns="http://www.w3.org/2000/svg"><path d="m216.726562 136.996094h-28.199218v-35.398438c25.875-5.144531 43.625-29.078125 41.042968-55.332031-2.585937-26.253906-24.664062-46.265625-51.042968-46.265625-26.382813 0-48.460938 20.011719-51.042969 46.265625-2.585937 26.253906 15.167969 50.1875 41.042969 55.332031v35.398438h-28.199219c-5.523437 0-10 4.476562-10 10 0 5.523437 4.476563 10 10 10h28.199219v233c0 5.523437 4.476562 10 10 10 5.523437 0 10-4.476563 10-10v-233h28.199218c5.523438 0 10-4.476563 10-10 0-5.523438-4.476562-10-10-10zm-69.492187-85.710938c.003906-17.28125 14.011719-31.289062 31.292969-31.289062s31.289062 14.011718 31.289062 31.289062c0 17.28125-14.007812 31.292969-31.289062 31.292969s-31.292969-14.011719-31.292969-31.292969zm0 0" fill="#1ae5be"/><path d="m353.199219 256.773438-34.019531-29.425782c-.027344-.027344-.058594-.046875-.089844-.074218-.113282-.097657-.234375-.183594-.351563-.273438-.117187-.09375-.261719-.203125-.398437-.300781-.121094-.082031-.242188-.160157-.367188-.238281-.140625-.089844-.285156-.179688-.425781-.261719-.128906-.070313-.257813-.132813-.386719-.199219-.148437-.074219-.300781-.148438-.449218-.214844-.132813-.0625-.269532-.117187-.40625-.171875-.152344-.058593-.308594-.117187-.464844-.167969-.136719-.046874-.277344-.09375-.417969-.132812-.164063-.046875-.332031-.089844-.5-.128906-.136719-.03125-.273437-.066406-.414063-.089844-.191406-.039062-.382812-.0625-.578124-.089844-.113282-.015625-.230469-.035156-.347657-.046875-.632812-.058593-1.269531-.058593-1.898437 0-.121094.011719-.238282.03125-.355469.046875-.191406.027344-.382813.054688-.570313.089844-.140624.027344-.28125.058594-.421874.09375-.160157.035156-.324219.078125-.484376.125-.144531.039062-.285156.085938-.429687.132812-.144531.050782-.300781.109376-.453125.167969-.15625.058594-.277344.113281-.414062.171875-.136719.0625-.296876.136719-.441407.210938-.144531.074218-.261719.136718-.390625.207031-.128906.074219-.28125.167969-.421875.257813-.140625.085937-.25.15625-.371093.242187-.125.082031-.265626.191406-.394532.292969-.128906.101562-.238281.179687-.351562.277344-.03125.027343-.0625.046874-.09375.074218l-34.015625 29.425782c-4.175781 3.613281-4.632813 9.929687-1.015625 14.105468 3.613281 4.175782 9.929687 4.632813 14.105468 1.015625l17.460938-15.097656c-.609375 68.101563-55.992188 122.988281-124.097656 122.988281-68.109375 0-123.488282-54.886718-124.101563-122.988281l17.464844 15.097656c4.15625 3.636719 10.472656 3.214844 14.109375-.941406s3.214844-10.472656-.941406-14.109375l-.085938-.074219-34.015625-29.421875c-.03125-.027344-.0625-.050781-.09375-.074218-.113281-.101563-.230469-.1875-.351562-.277344-.117188-.089844-.261719-.199219-.398438-.300782-.117187-.082031-.242187-.15625-.363281-.234374-.144531-.089844-.285156-.179688-.429688-.261719-.128906-.070313-.257812-.136719-.386718-.199219-.144532-.078125-.296875-.148438-.449219-.21875-.132813-.058594-.269531-.113281-.398437-.167969-.15625-.0625-.3125-.117187-.464844-.171875-.140625-.046875-.28125-.089844-.421875-.132812-.164063-.046875-.328125-.085938-.5-.125-.136719-.035156-.273438-.066406-.410157-.09375-.191406-.035156-.386718-.0625-.578124-.085938-.117188-.015625-.234376-.035156-.351563-.046875-.628906-.058593-1.265625-.058593-1.898437 0-.121094.011719-.238282.03125-.355469.046875-.191407.023438-.382813.050782-.570313.085938-.140625.027344-.28125.0625-.417968.09375-.164063.039062-.324219.078125-.488282.125-.144531.042968-.285156.089844-.425781.136718-.144531.046876-.300781.105469-.457031.164063-.152344.058594-.277344.113281-.414063.175781-.136719.058594-.292969.136719-.441406.210938-.144531.074218-.261719.132812-.390625.207031-.144531.082031-.28125.167969-.421875.253906-.136719.089844-.25.160157-.371094.242188-.121093.085937-.261719.195312-.394531.300781-.128906.105469-.238281.179688-.351562.277344-.03125.027344-.0625.046875-.09375.074218l-34.015626 29.421876c-4.085937 3.632812-4.496093 9.878906-.917968 14.015624 3.582031 4.136719 9.820312 4.628907 14.003906 1.105469l17.488281-15.121093c.480469 79.054687 64.933594 143.222656 144.101563 143.222656 79.164062 0 143.617187-64.167969 144.097656-143.222656l17.492188 15.121093c4.179687 3.574219 10.460937 3.101563 14.058593-1.058593 3.601563-4.160157 3.164063-10.445313-.976562-14.066407zm0 0" fill="#0635c9"/></svg>