<svg height="360pt" viewBox="-2 0 360 360.00166" width="360pt" xmlns="http://www.w3.org/2000/svg"><path d="m50.46875 332.601562v-37.179687c0-5.519531 4.476562-10 10-10h56.4375l2.378906-235.519531c.054688-5.484375 4.515625-9.902344 10-9.902344h226.25v-30c0-5.519531-4.476562-10-10-10h-266.25c-5.484375 0-9.945312 4.417969-10 9.902344l-2.378906 235.523437h-56.4375c-5.523438 0-10 4.476563-10 10v37.175781c0 33.414063 23.992188 61.210938 55.34375 66.484376-3.535156-8.382813-5.351562-17.386719-5.34375-26.484376zm0 0" fill="#d4e1f4"/><g fill="#1ae5be"><path d="m187.082031 74.3125h-46.746093c-5.523438 0-10-4.476562-10-10s4.476562-10 10-10h46.746093c5.523438 0 10 4.476562 10 10s-4.476562 10-10 10zm0 0"/><path d="m276.300781 140.179688h-135.964843c-5.523438 0-10-4.476563-10-10 0-5.523438 4.476562-10 10-10h135.964843c5.523438 0 10 4.476562 10 10 0 5.523437-4.476562 10-10 10zm0 0"/><path d="m276.300781 206.046875h-135.964843c-5.523438 0-10-4.476563-10-10s4.476562-10 10-10h135.964843c5.523438 0 10 4.476563 10 10s-4.476562 10-10 10zm0 0"/></g><path d="m345.535156 0h-266.25c-5.421875-.0976562-9.902344 4.21875-10 9.640625v.050781l-2.378906 235.308594h-56.4375c-5.695312.160156-10.285156 4.730469-10.46875 10.421875v37.179687c0 35.664063 27.761719 64.929688 62.238281 67.238282.582031.109375 1.171875.160156 1.761719.160156h221.886719c.371093 0 .742187-.019531 1.109375-.0625.839844.03125 1.675781.0625 2.523437.0625 36.480469 0 66.480469-30.238281 66.480469-67.398438v-282.601562c0-5.519531-4.941406-10-10.464844-10zm-325.535156 292.601562v-27.601562h203v27.601562c-.015625 17.726563 6.933594 34.746094 19.34375 47.398438h-175.949219c-25.453125 0-46.394531-21.265625-46.394531-47.398438zm316 0c0 26.140626-21.027344 47.398438-46.515625 47.398438-25.453125 0-46.484375-21.265625-46.484375-47.398438v-37.179687c0-5.519531-4.300781-10.421875-9.820312-10.421875h-146.269532l2.273438-225h246.816406zm0 0" fill="#0635c9"/></svg>