<svg height="400pt" viewBox="-92 0 400 400" width="400pt" xmlns="http://www.w3.org/2000/svg"><path d="m107.59375 400c-59.328125 0-107.59375-46.753906-107.59375-104.222656v-129.554688c0-5.523437 4.476562-10 10-10s10 4.476563 10 10v129.554688c0 46.441406 39.296875 84.222656 87.59375 84.222656 48.300781 0 87.601562-37.78125 87.601562-84.222656v-219.742188c0-30.898437-26.199218-56.035156-58.398437-56.035156-32.203125 0-58.402344 25.136719-58.402344 56.035156v183.246094c0 15.34375 13.09375 27.828125 29.1875 27.828125 16.132813 0 29.226563-12.484375 29.226563-27.828125v-93.058594c0-5.523437 4.476562-10 10-10 5.523437 0 10 4.476563 10 10v93.058594c0 26.371094-22.066406 47.828125-49.1875 47.828125-27.160156 0-49.226563-21.457031-49.226563-47.828125v-183.246094c0-41.925781 35.171875-76.035156 78.402344-76.035156 43.226563 0 78.398437 34.109375 78.398437 76.035156v219.742188c0 57.46875-48.273437 104.222656-107.601562 104.222656zm0 0" fill="#0635c9"/></svg>