<svg height="420pt" viewBox="0 -63 420.10015 420" width="420pt" xmlns="http://www.w3.org/2000/svg"><g fill="#d4e1f4"><path d="m288.398438 104.152344 121.601562-66.601563v-27.398437l-121.601562 66.597656zm0 0"/><path d="m60 147.050781 178.398438-106.898437v-30l-228.398438 136.898437 228.398438 136.898438v-30zm0 0"/><path d="m288.398438 189.949219v27.402343l121.601562 66.597657v-27.398438zm0 0"/></g><path d="m415.101562 1.550781c-3.035156-1.8125-6.796874-1.890625-9.902343-.199219l-156.800781 85.898438v-77.199219c.011718-3.613281-1.941407-6.945312-5.097657-8.699219-3.144531-1.769531-6.992187-1.730468-10.101562.097657l-228.300781 137c-3.019532 1.820312-4.8750005 5.078125-4.898438 8.601562-.0195312 3.535157 1.847656 6.8125 4.898438 8.601563l228.402343 136.898437c3.09375 1.878907 6.96875 1.917969 10.097657.101563 3.128906-1.789063 5.070312-5.101563 5.101562-8.703125v-77.199219l156.800781 85.902344c3.109375 1.667968 6.859375 1.589844 9.898438-.203125 3.019531-1.816407 4.878906-5.074219 4.902343-8.597657v-273.699218c-.109374-3.527344-1.988281-6.765625-5-8.601563zm-15.101562 265.5-156.800781-85.898437c-3.105469-1.671875-6.859375-1.59375-9.898438.199218-3.019531 1.816407-4.875 5.074219-4.902343 8.597657v76.402343l-199-119.300781 198.902343-119.199219v76.398438c.023438 3.523438 1.878907 6.78125 4.898438 8.601562 3.035156 1.8125 6.796875 1.886719 9.902343.199219l156.898438-86zm0 0" fill="#0635c9"/></svg>