<svg height="440pt" viewBox="-59 0 440 440" width="440pt" xmlns="http://www.w3.org/2000/svg"><path d="m50 420v-267.800781h262.199219v-30h-302.199219v267.800781c-.007812 22.09375 17.90625 40.007812 40 40h1.300781c-.894531-3.257812-1.332031-6.621094-1.300781-10zm0 0" fill="#d4e1f4"/><path d="m163.699219 0c-47.910157.0625-86.738281 38.886719-86.800781 86.800781v86c0 5.523438 4.480468 10 10 10 5.523437 0 10-4.476562 10-10v-86c0-36.894531 29.910156-66.800781 66.800781-66.800781 36.894531 0 66.800781 29.90625 66.800781 66.800781v86c0 5.523438 4.476562 10 10 10s10-4.476562 10-10v-86c-.097656-47.898437-38.902344-86.7031248-86.800781-86.800781zm0 0" fill="#1ae5be"/><path d="m312.199219 112.199219h-302.199219c-5.515625.015625-9.984375 4.484375-10 10v267.800781c.0117188 27.609375 22.390625 49.988281 50 50h222.199219c27.609375-.011719 49.992187-22.390625 50-50v-267.800781c.011719-2.652344-1.039063-5.203125-2.917969-7.082031-1.878906-1.875-4.425781-2.925782-7.082031-2.917969zm-10 277.800781c-.046875 16.546875-13.449219 29.953125-30 30h-222.199219c-16.546875-.046875-29.953125-13.453125-30-30v-257.800781h282.199219zm0 0" fill="#0635c9"/></svg>