<svg height="429pt" viewBox="0 0 429.96125 429" width="429pt" xmlns="http://www.w3.org/2000/svg"><path d="m60 245.480469c0-113.199219 91.800781-205 205-205 27.226562-.011719 54.183594 5.394531 79.300781 15.902343-36.519531-29.753906-82.195312-45.96875-129.300781-45.902343-113.199219 0-205 91.800781-205 205 .011719 82.589843 49.554688 157.121093 125.699219 189.101562-47.941407-38.898437-75.761719-97.363281-75.699219-159.101562zm0 0" fill="#d4e1f4"/><path d="m79.601562 65.882812c-3.894531-3.894531-10.207031-3.894531-14.101562 0-3.894531 3.890626-3.894531 10.203126 0 14.097657l285 285c1.878906 1.890625 4.4375 2.9375 7.101562 2.902343 2.652344-.011718 5.199219-1.050781 7.097657-2.902343 3.894531-3.882813 3.902343-10.191407.019531-14.082031-.007812-.007813-.011719-.011719-.019531-.015626zm0 0" fill="#1ae5be"/><path d="m215 .480469c-118.71875-.019531-214.9765625 96.199219-215 214.917969-.0117188 57.046874 22.652344 111.757812 63 152.082031 83.949219 83.949219 220.054688 83.949219 304 0 83.949219-83.945313 83.949219-220.050781 0-304-40.222656-40.453125-94.953125-63.136719-152-63zm0 410c-107.5 0-195-87.5-195-195s87.5-195 195-195 195 87.5 195 195-87.5 195-195 195zm0 0" fill="#0635c9"/></svg>