<svg height="420pt" viewBox="0 -95 420 420" width="420pt" xmlns="http://www.w3.org/2000/svg"><path d="m40 40h314.898438v-30h-344.898438v210.800781h30zm0 0" fill="#d4e1f4"/><path d="m410 57.5h-45.101562v-47.5c-.015626-5.515625-4.480469-9.984375-10-10h-344.898438c-5.515625.015625-9.984375 4.484375-10 10v210.800781c.015625 5.515625 4.484375 9.984375 10 10h344.898438c5.519531-.015625 9.984374-4.484375 10-10v-47.5h45.101562c5.515625-.015625 9.984375-4.484375 10-10v-95.800781c-.015625-5.515625-4.484375-9.984375-10-10zm-10 95.800781h-45.101562c-5.515626.015625-9.984376 4.484375-10 10v47.5h-324.898438v-190.800781h324.898438v47.5c.015624 5.515625 4.484374 9.984375 10 10h45.101562zm0 0" fill="#0635c9"/><path d="m134.800781 60.800781c-1.890625-2.09375-4.578125-3.292969-7.402343-3.300781h-57.5c-5.515626.015625-9.984376 4.484375-10 10v95.800781c.015624 5.515625 4.484374 9.984375 10 10h143.703124c3.929688-.003906 7.492188-2.3125 9.097657-5.902343 1.578125-3.625.914062-7.832032-1.699219-10.796876zm-54.902343 92.5v-75.800781h43l68.203124 75.800781zm0 0" fill="#1ae5be"/></svg>