<svg height="400pt" viewBox="-42 0 400 400" width="400pt" xmlns="http://www.w3.org/2000/svg"><path d="m156.039062 328.285156v-3.226562h-63.558593c-17.9375 0-32.480469-14.539063-32.480469-32.476563v-20.238281c0-17.9375 24.625-32.476562 24.625-32.476562v-68.488282c0-58.523437 39.867188-107.613281 93.613281-121h-.035156v-20.828125c0-3.28125.546875-6.542969 1.617187-9.644531-8.152343-9.164062-21.117187-12.335938-32.582031-7.972656-11.460937 4.359375-19.039062 15.351562-19.035156 27.617187v20.832031h.035156c-53.746093 13.382813-93.613281 62.472657-93.613281 121v68.484376s-24.625 14.542968-24.625 32.480468v20.230469c0 17.9375 14.539062 32.480469 32.476562 32.480469h63.5625v3.226562c-.003906 20.234375 11.796876 38.613282 30.199219 47.03125 18.402344 8.414063 40.019531 5.320313 55.324219-7.917968-21.195312-6.992188-35.519531-26.792969-35.523438-49.113282zm0 0" fill="#d4e1f4"/><path d="m197.753906 52.832031v-13.28125c0-21.808593-18.191406-39.550781-40-39.550781s-40 17.742188-40 39.550781v13.28125c-54 17.070313-93 68.242188-93 128.546875v68.488282c0 5.523437 4.476563 10 10 10 5.523438 0 10-4.476563 10-10v-68.488282c0-63.199218 50.621094-114.609375 113-114.609375s113 51.414063 113 114.609375v68.488282c0 5.523437 4.476563 10 10 10 5.523438 0 10-4.476563 10-10v-68.488282c0-60.304687-39-111.480468-93-128.546875zm-60-4.609375v-8.671875c0-10.78125 9.21875-19.550781 20-19.550781s20 8.769531 20 19.550781v8.671875c-13.261718-1.9375-26.738281-1.9375-40 0zm0 0" fill="#0635c9"/><path d="m157.753906 400c-34.066406-.039062-61.675781-27.644531-61.714844-61.714844v-3.226562c0-5.523438 4.476563-10 10-10 5.523438 0 10 4.476562 10 10v3.226562c-.007812 23.039063 18.660157 41.722656 41.695313 41.734375 23.039063.007813 41.722656-18.660156 41.734375-41.699219v-3.261718c0-5.523438 4.476562-10 10-10s10 4.476562 10 10v3.226562c-.039062 34.070313-27.648438 61.675782-61.714844 61.714844zm0 0" fill="#0635c9"/><path d="m273.027344 345.058594h-230.546875c-23.449219-.027344-42.4531252-19.03125-42.480469-42.480469v-20.234375c.0273438-23.449219 19.03125-42.449219 42.480469-42.476562h230.546875c23.449218.027343 42.453125 19.027343 42.480468 42.476562v20.234375c-.027343 23.449219-19.03125 42.453125-42.480468 42.480469zm-230.546875-85.191406c-12.410157.011718-22.46875 10.066406-22.480469 22.476562v20.234375c.011719 12.410156 10.070312 22.46875 22.480469 22.480469h230.546875c12.410156-.011719 22.46875-10.070313 22.480468-22.480469v-20.234375c-.011718-12.410156-10.070312-22.464844-22.480468-22.476562zm0 0" fill="#1ae5be"/></svg>