<svg height="420pt" viewBox="0 -62 420.03061 420" width="420pt" xmlns="http://www.w3.org/2000/svg"><g fill="#d4e1f4"><path d="m377.679688 207.535156-6.109376-16.480468c-18.25-36.234376-60.859374-52.914063-98.859374-38.699219 17.761718-18.898438 43.632812-27.9375 69.300781-24.214844 25.667969 3.726563 47.902343 19.746094 59.558593 42.914063l6.109376 16.480468c9.746093 39.1875-11.425782 79.457032-49.234376 93.644532 18.511719-19.683594 25.757813-47.421876 19.234376-73.644532zm0 0"/><path d="m42.378906 207.535156 6.113282-16.480468c18.25-36.234376 60.855468-52.914063 98.859374-38.699219-17.765624-18.898438-43.632812-27.9375-69.300781-24.214844-25.667969 3.726563-47.902343 19.746094-59.558593 42.914063l-6.113282 16.480468c-9.742187 39.1875 11.429688 79.457032 49.238282 93.644532-18.511719-19.683594-25.757813-47.421876-19.238282-73.644532zm0 0"/><path d="m42.378906 207.535156 6.113282-16.480468c18.25-36.234376 60.855468-52.914063 98.859374-38.699219-17.765624-18.898438-43.632812-27.9375-69.300781-24.214844-25.667969 3.726563-47.902343 19.746094-59.558593 42.914063l-6.113282 16.480468c-9.742187 39.1875 11.429688 79.457032 49.238282 93.644532-18.511719-19.683594-25.757813-47.421876-19.238282-73.644532zm0 0"/><path d="m251.265625 174.480469-.136719 29.164062h.070313c.480469-12.648437 3.988281-24.996093 10.238281-36.007812-3.5625 2.015625-6.960938 4.304687-10.171875 6.84375zm0 0"/><path d="m355.378906 46.507812c-7.171875-21.78125-27.511718-36.492187-50.4375-36.492187h-.039062c-21.832032.003906-41.4375 13.367187-49.421875 33.683594 6.183593-2.4375 12.773437-3.6875 19.421875-3.683594h.039062c22.925782 0 43.265625 14.710937 50.4375 36.492187l19.308594 52.058594c24.582031 4.445313 45.644531 20.179688 56.882812 42.488282zm0 0"/><path d="m94.679688 76.507812c7.171874-21.78125 27.511718-36.492187 50.441406-36.492187h.039062c6.648438-.003906 13.238282 1.246094 19.421875 3.683594-7.988281-20.316407-27.589843-33.679688-49.421875-33.683594h-.039062c-22.929688 0-43.269532 14.710937-50.441406 36.492187l-46.1875 124.546876c11.234374-22.308594 32.300781-38.042969 56.882812-42.488282zm0 0"/><path d="m158.617188 167.632812c6.722656 11.835938 10.277343 25.210938 10.3125 38.824219l-.152344-31.976562c-3.207032-2.539063-6.601563-4.832031-10.160156-6.847657zm0 0"/></g><path d="m210.082031 265.699219c-6.542969 0-12.96875-1.746094-18.605469-5.066407l-31.707031-18.699218c-4.757812-2.804688-6.339843-8.9375-3.535156-13.695313 2.804687-4.757812 8.9375-6.339843 13.695313-3.535156l31.699218 18.699219c5.203125 3.058594 11.652344 3.066406 16.859375.023437l32.03125-18.742187c4.765625-2.789063 10.890625-1.183594 13.679688 3.582031 2.789062 4.769531 1.1875 10.894531-3.578125 13.683594l-32.03125 18.738281c-5.617188 3.285156-12.003906 5.011719-18.507813 5.011719zm0 0" fill="#1ae5be"/><path d="m89.480469 258.457031c-28.546875 0-51.691407-23.144531-51.691407-51.691406s23.144532-51.691406 51.691407-51.691406 51.691406 23.144531 51.691406 51.691406-23.144531 51.691406-51.691406 51.691406zm0-83.382812c-17.5 0-31.691407 14.191406-31.691407 31.691406 0 17.503906 14.191407 31.691406 31.691407 31.691406 17.503906 0 31.691406-14.1875 31.691406-31.691406 0-17.5-14.1875-31.691406-31.691406-31.691406zm0 0" fill="#1ae5be"/><path d="m329.402344 258.457031c-28.550782 0-51.691406-23.144531-51.691406-51.691406s23.140624-51.691406 51.691406-51.691406c28.546875 0 51.6875 23.144531 51.6875 51.691406s-23.140625 51.691406-51.6875 51.691406zm0-83.382812c-17.503906 0-31.691406 14.191406-31.691406 31.691406 0 17.503906 14.1875 31.691406 31.691406 31.691406 17.5 0 31.6875-14.1875 31.6875-31.691406 0-17.5-14.1875-31.691406-31.6875-31.691406zm0 0" fill="#1ae5be"/><path d="m417.371094 185.070312-.019532-.070312c-1.542968-6.179688-3.75-12.175781-6.578124-17.882812l-45.953126-123.921876c-9.777343-29.351562-39.382812-47.292968-69.925781-42.378906-30.542969 4.917969-53.023437 31.242188-53.09375 62.179688l-.085937 18.121094h-63.371094l-.082031-18.121094c-.117188-30.914063-22.597657-57.199219-53.121094-62.101563-30.523437-4.902343-60.109375 13.019531-69.898437 42.34375l-45.953126 123.898438c-2.832031 5.703125-5.039062 11.699219-6.582031 17.878906-.003906.019531-.011719.035156-.015625.054687l-.011718.042969c-8.375 33.4375 3.210937 68.714844 29.777343 90.675781 26.566407 21.964844 63.390625 26.710938 94.660157 12.199219 31.265624-14.507812 51.414062-45.695312 51.792968-80.164062 0-.132813.019532-.261719.019532-.398438v-1.011719c0-.128906 0-.277343-.007813-.410156l-.113281-24.886718h62.429687l-.109375 22.460937c0 .277344.019532.558594.039063.828125-.023438.753906-.039063 1.527344-.039063 2.355469.019532 34.5625 19.945313 66.023437 51.1875 80.808593 31.242188 14.785157 68.203125 10.25 94.945313-11.652343 26.738281-21.902344 38.464843-57.246094 30.125-90.789063-.003907-.019531-.011719-.039062-.015625-.058594zm-112.429688-165.054687c18.617188-.027344 35.140625 11.925781 40.941406 29.617187.039063.117188.078126.234376.121094.351563l29.40625 79.296875c-37.964844-22-86.292968-13.171875-114.023437 20.835938l.414062-87.191407c.160157-23.722656 19.417969-42.878906 43.140625-42.910156zm-230.886718 29.96875c.046874-.117187.085937-.234375.125-.351563 6.621093-20.070312 26.8125-32.386718 47.6875-29.085937s36.285156 21.242187 36.394531 42.375l.40625 87.257813c-27.753907-33.957032-76.023438-42.804688-114.019531-20.898438zm15.425781 226.230469c-21.292969-.007813-41.40625-9.777344-54.570313-26.507813-13.167968-16.734375-17.9375-38.578125-12.9375-59.277343l5.679688-15.3125c11.851562-23.257813 35.773437-37.875 61.878906-37.800782 38.144531 0 69.5 31.03125 69.5 69.179688v.40625c-.015625 7.820312-1.359375 15.578125-3.984375 22.941406-9.835937 27.777344-36.097656 46.351562-65.566406 46.371094zm89.234375-115.097656-.277344-60h63.183594l-.289063 60zm151.867187 115.097656c-38.328125.03125-69.421875-31.011719-69.453125-69.335938v-.113281c0-.964844.019532-1.828125.058594-2.636719v-.101562c1.242188-31.554688 23.613281-58.300782 54.453125-65.09375 30.839844-6.796875 62.382813 8.070312 76.769531 36.183594l5.679688 15.3125c4.996094 20.695312.230468 42.542968-12.9375 59.273437-13.167969 16.734375-33.28125 26.503906-54.570313 26.511719zm0 0" fill="#0635c9"/></svg>