<svg height="400pt" viewBox="-81 0 400 400.00052" width="400pt" xmlns="http://www.w3.org/2000/svg"><path d="m98.558594 400c-5.523438 0-10-4.476562-10-10v-147.175781l-71.625 68.882812c-3.984375 3.828125-10.3125 3.707031-14.140625-.273437-3.828125-3.984375-3.703125-10.3125.277343-14.140625l85.488282-82.21875v-30.148438l-85.488282-82.21875c-3.980468-3.828125-4.105468-10.15625-.277343-14.136719 3.828125-3.980468 10.15625-4.105468 14.140625-.277343l71.625 68.886719v-147.179688c0-3.683594 2.027344-7.070312 5.273437-8.8125 3.246094-1.742188 7.1875-1.554688 10.257813.480469l128.757812 85.5c2.527344 1.679687 4.15625 4.414062 4.425782 7.433593.273437 3.023438-.839844 6.003907-3.027344 8.105469l-101.160156 97.292969 101.160156 97.292969c2.1875 2.101562 3.300781 5.082031 3.03125 8.105469-.273438 3.019531-1.902344 5.753906-4.429688 7.433593l-128.753906 85.5c-1.640625 1.089844-3.566406 1.667969-5.535156 1.667969zm10-176.414062v147.769531l102.839844-68.289063-92.738282-89.191406zm0-47.171876 10.101562 9.710938 92.738282-89.191406-102.839844-68.289063zm0 0" fill="#0635c9"/></svg>