<svg height="420pt" viewBox="-25 0 419 420" width="420pt" xmlns="http://www.w3.org/2000/svg"><path d="m124 50h236.300781c.003907-22.09375-17.90625-40.007812-40-40h-236.300781c-22.09375-.007812-40.007812 17.90625-40 40v320c-.007812 22.09375 17.90625 40.007812 40 40v-320c-.007812-22.09375 17.90625-40.007812 40-40zm0 0" fill="#d4e1f4"/><g fill="#1ae5be"><path d="m77.398438 71.601562h-66.898438c-5.523438 0-10 4.476563-10 10 0 5.519532 4.476562 10 10 10h66.898438c5.523437 0 10-4.480468 10-10 0-5.523437-4.476563-10-10-10zm0 0"/><path d="m77.398438 157.199219h-66.898438c-5.523438 0-10 4.476562-10 10 0 5.523437 4.476562 10 10 10h66.898438c5.523437 0 10-4.476563 10-10 0-5.523438-4.476563-10-10-10zm0 0"/><path d="m77.398438 242.800781h-66.898438c-5.523438 0-10 4.476563-10 10 0 5.523438 4.476562 10 10 10h66.898438c5.523437 0 10-4.476562 10-10 0-5.523437-4.476563-10-10-10zm0 0"/><path d="m77.398438 328.398438h-66.898438c-5.523438 0-10 4.480468-10 10 0 5.523437 4.476562 10 10 10h66.898438c5.523437 0 10-4.476563 10-10 0-5.519532-4.476563-10-10-10zm0 0"/></g><path d="m320.300781 0h-236.300781c-27.609375.0117188-49.988281 22.390625-50 50v320c.011719 27.609375 22.390625 49.988281 50 50h236.300781c27.609375-.011719 49.988281-22.390625 50-50v-320c-.046875-27.59375-22.40625-49.953125-50-50zm-266.300781 370v-320c.046875-16.546875 13.453125-29.953125 30-30h55.601562v380h-55.601562c-16.5625-.011719-29.988281-13.4375-30-30zm296.300781 0c-.050781 16.546875-13.453125 29.953125-30 30h-160.699219v-380h160.699219c16.546875.046875 29.949219 13.453125 30 30zm0 0" fill="#0635c9"/></svg>