<svg height="400pt" viewBox="-52 0 400 400" width="400pt" xmlns="http://www.w3.org/2000/svg"><path d="m83.632812 360c-18.574218 0-33.632812-14.664062-33.632812-32.757812v-251.683594h-6.367188c-18.574218 0-33.632812-4.664063-33.632812-22.753906v304.4375c0 18.09375 15.058594 32.757812 33.632812 32.757812h242.671876v-30zm0 0" fill="#d4e1f4"/><path d="m167.035156 235.539062c-1.78125 0-3.53125-.476562-5.070312-1.378906l-34.578125-20.335937-34.578125 20.335937c-3.089844 1.816406-6.917969 1.839844-10.03125.058594-3.113282-1.78125-5.035156-5.09375-5.035156-8.679688v-149.617187h20v132.136719l24.578124-14.453125c3.128907-1.839844 7.007813-1.839844 10.136719 0l24.578125 14.453125v-132.136719h20v149.617187c0 5.523438-4.476562 10-10 10zm0 0" fill="#1ae5be"/><path d="m286.304688 400h-242.671876c-24.058593 0-43.632812-19.179688-43.632812-42.757812v-314.484376c.0273438-23.601562 19.589844-42.757812 43.632812-42.757812h201.667969c5.519531 0 10 4.476562 10 10v55.558594h31.003907c5.523437 0 10 4.476562 10 10v314.441406c0 5.523438-4.476563 10-10 10zm-266.304688-321.269531v278.511719c0 12.550781 10.601562 22.757812 23.632812 22.757812h232.671876v-294.441406h-232.671876c-8.367187.015625-16.566406-2.351563-23.632812-6.828125zm23.632812-58.730469c-13.03125 0-23.632812 10.207031-23.632812 22.757812 0 12.597657 10.601562 22.796876 23.632812 22.796876h191.667969v-45.554688zm0 0" fill="#0635c9"/></svg>