<svg height="426pt" viewBox="0 -8 426 426" width="426pt" xmlns="http://www.w3.org/2000/svg"><path d="m329.710938 360h-240.636719c-10.503907 0-19.019531-8.515625-19.019531-19.019531v-264.378907l49.1875-66.601562h-20.859376c-6.035156 0-11.714843 2.867188-15.300781 7.722656l-73.027343 98.878906v264.375c-.003907 10.507813 8.511718 19.023438 19.019531 19.023438h367.851562c10.503907 0 19.019531-8.515625 19.019531-19.019531v-20.980469zm0 0" fill="#d4e1f4"/><path d="m213 126.601562c-5.523438 0-10-4.480468-10-10v-106.601562c0-5.523438 4.476562-10 10-10s10 4.476562 10 10v106.601562c0 5.519532-4.476562 10-10 10zm0 0" fill="#1ae5be"/><path d="m269.710938 410c-5.523438 0-10-4.476562-10-10v-135.886719l-93.421876-39.167969v175.054688c0 5.523438-4.476562 10-10 10-5.519531 0-10-4.476562-10-10v-190.089844c.003907-3.347656 1.675782-6.472656 4.464844-8.328125 2.785156-1.851562 6.316406-2.1875 9.402344-.894531l113.417969 47.554688c3.71875 1.558593 6.132812 5.191406 6.136719 9.222656v142.535156c0 5.523438-4.480469 10-10 10zm0 0" fill="#1ae5be"/><path d="m425.925781 115.675781c-.007812-.109375-.039062-.214843-.050781-.324219-.023438-.191406-.058594-.378906-.09375-.570312-.023438-.125-.050781-.253906-.082031-.378906-.035157-.167969-.082031-.332032-.128907-.5-.035156-.128906-.066406-.257813-.109374-.382813-.066407-.199219-.140626-.402343-.21875-.601562-.066407-.164063-.136719-.324219-.210938-.488281-.070312-.160157-.152344-.335938-.238281-.5-.0625-.113282-.128907-.222657-.191407-.335938-.085937-.148438-.175781-.292969-.265624-.4375-.070313-.105469-.144532-.210938-.214844-.316406-.046875-.0625-.085938-.125-.128906-.1875l-73.03125-98.871094c-5.484376-7.394531-14.136719-11.7617188-23.34375-11.78125h-229.234376c-9.207031.0195312-17.859374 4.386719-23.34375 11.777344l-73.03125 98.878906c-.042968.0625-.082031.125-.128906.191406-.070312.097656-.144531.207032-.210937.3125-.09375.144532-.183594.289063-.269531.4375-.0625.113282-.128907.222656-.191407.339844-.085937.164062-.164062.332031-.238281.5-.078125.164062-.144531.324219-.210938.488281-.078124.199219-.152343.394531-.21875.59375-.039062.125-.074218.257813-.109374.382813-.046876.164062-.089844.332031-.128907.5-.027343.128906-.050781.253906-.074219.382812-.035156.1875-.066406.378906-.089843.570313-.011719.109375-.0546878.214843-.0625002.324219-.0273438.304687-.0742188.613281-.0742188.921874v264.378907c.0429688 16.027343 13.042969 29.003906 29.074219 29.019531h367.851562c16.03125-.015625 29.03125-12.992188 29.074219-29.019531v-264.378907c0-.3125-.046875-.621093-.074219-.925781zm-334.796875-91.8125c1.679688-2.351562 4.363282-3.777343 7.253906-3.863281h229.234376c2.890624.085938 5.574218 1.511719 7.257812 3.863281l61.253906 83.136719h-366.257812zm305.796875 366.136719h-367.851562c-4.988281-.003906-9.042969-4.03125-9.074219-9.019531v-253.980469h386v253.980469c-.03125 4.988281-4.085938 9.015625-9.074219 9.019531zm0 0" fill="#0635c9"/></svg>