<svg height="400pt" viewBox="-38 0 400 400.013" width="400pt" xmlns="http://www.w3.org/2000/svg"><path d="m163.652344 351.648438c0-10.585938 7.671875-84.738282 11.125-105.449219v-.015625c.1875-.785156-.246094-1.582032-1.007813-1.851563l-104.5625-37.742187c-11.683593-4.21875-19.472656-15.308594-19.472656-27.730469v-168.859375h-40v168.859375c0 12.421875 7.789063 23.511719 19.472656 27.730469l104.570313 37.742187c.757812.269531 1.195312 1.066407 1.003906 1.851563v.015625c-3.449219 20.710937-11.121094 94.863281-11.121094 105.449219 0 13.871093 7.492188 26.660156 19.589844 33.445312s26.917969 6.511719 38.757812-.71875c-11.40625-6.964844-18.359374-19.363281-18.355468-32.726562zm0 0" fill="#d4e1f4"/><g fill="#1ae5be"><path d="m93.09375 87.390625c-5.519531 0-10-4.476563-10-10v-67.390625c0-5.523438 4.480469-10 10-10 5.523438 0 10 4.476562 10 10v67.390625c0 5.523437-4.476562 10-10 10zm0 0"/><path d="m230.917969 110.457031c-5.523438 0-10-4.476562-10-10v-90.457031c0-5.523438 4.476562-10 10-10 5.523437 0 10 4.476562 10 10v90.457031c0 5.523438-4.476563 10-10 10zm0 0"/><path d="m162.035156 111.464844c-5.523437 0-10-4.476563-10-10v-91.464844c0-5.523438 4.476563-10 10-10 5.523438 0 10 4.476562 10 10v91.464844c0 5.523437-4.476562 10-10 10zm0 0"/><path d="m162.007812 371.449219c-11.617187 0-21.035156-9.417969-21.035156-21.035157 0-11.617187 9.417969-21.035156 21.035156-21.035156 11.617188 0 21.03125 9.417969 21.03125 21.035156-.011718 11.609376-9.421874 21.019532-21.03125 21.035157zm0-22.070313c-.574218 0-1.035156.464844-1.035156 1.035156 0 .570313.460938 1.035157 1.035156 1.035157.570313 0 1.03125-.464844 1.03125-1.035157 0-.570312-.460937-1.035156-1.03125-1.035156zm0 0"/></g><path d="m314.28125 0h-304.546875c-5.394531.0234375-9.75 4.417969-9.7265625 9.8125v169.046875c-.0273437 16.605469 10.3398435 31.449219 25.9374995 37.140625l98.007813 35.398438c-3.71875 26.582031-10.265625 89.511718-10.265625 100.253906-.011719 26.699218 21.625 48.351562 48.320312 48.359375 26.699219.011719 48.347657-21.621094 48.359376-48.320313v-.039062c0-10.457032-6.285157-71.578125-10.046876-98.984375l98.140626-36.652344c15.386718-5.820313 25.558593-20.554687 25.546874-37v-169.015625c.128907-5.394531-4.144531-9.871094-9.539062-10-.0625 0-.125 0-.1875 0zm-294.273438 20h284v115h-284zm284 159.015625c.03125 8.101563-4.964843 15.375-12.535156 18.253906l-104.566406 39.023438c-5.152344 1.945312-8.230469 7.238281-7.371094 12.675781 3.511719 22.203125 10.808594 93.324219 10.808594 102.679688.09375 15.652343-12.523438 28.421874-28.175781 28.515624-15.65625.089844-28.425781-12.523437-28.515625-28.179687 0-.113281 0-.222656 0-.335937 0-9.945313 7.46875-82.480469 10.945312-103.558594 1.148438-5.628906-2.019531-11.242188-7.429687-13.164063l-104.433594-37.742187c-7.679687-2.816406-12.769531-10.144532-12.726563-18.324219v-23.859375h284zm0 0" fill="#0635c9"/></svg>