<svg height="402pt" viewBox="-21 0 402 402.3" width="402pt" xmlns="http://www.w3.org/2000/svg"><path d="m90.148438 362.398438c-22.09375.007812-40.003907-17.90625-40-40v-273.097657c-.027344-3.378906.410156-6.742187 1.300781-10h-1.300781c-22.09375-.007812-40.003907 17.90625-40 40v273.097657c-.003907 22.09375 17.90625 40.007812 40 40h260c18.242187.019531 34.171874-12.332032 38.703124-30zm0 0" fill="#d4e1f4"/><path d="m310.148438 29.300781h-41.5v-19.300781c0-5.523438-4.476563-10-10-10-5.519532 0-10 4.476562-10 10v19.199219h-137v-19.199219c0-5.523438-4.476563-10-10-10-5.519532 0-10 4.476562-10 10v19.199219h-41.5c-27.609376.011719-49.988282 22.390625-50 50v273.101562c.011718 27.609375 22.390624 49.988281 50 50h260c27.613281-.011719 49.992187-22.390625 50-50v-273c-.007813-27.609375-22.386719-49.992187-50-50zm30 323.097657c-.046876 16.550781-13.449219 29.953124-30 30h-260c-16.546876-.046876-29.949219-13.449219-30-30v-228.5h320zm0-248.5h-320v-24.597657c.050781-16.550781 13.453124-29.953125 30-30h41.5v19.199219c0 5.523438 4.480468 10 10 10 5.523437 0 10-4.476562 10-10v-19.199219h136.902343v19.199219c0 5.523438 4.476563 10 10 10 5.523438 0 10-4.476562 10-10v-19.199219h41.597657c16.550781.046875 29.953124 13.449219 30 30zm0 0" fill="#0635c9"/><g fill="#1ae5be"><path d="m278.25 210.398438h-196.199219c-5.523437 0-10 4.480468-10 10 0 5.523437 4.476563 10 10 10h196.199219c5.523438 0 10-4.476563 10-10 0-5.519532-4.476562-10-10-10zm0 0"/><path d="m195.550781 275.800781h-113.5c-5.523437 0-10 4.476563-10 10 0 5.523438 4.476563 10 10 10h113.5c5.523438 0 10-4.476562 10-10 0-5.523437-4.476562-10-10-10zm0 0"/></g></svg>