<svg height="400pt" viewBox="-14 0 400 400" width="400pt" xmlns="http://www.w3.org/2000/svg"><g fill="#d4e1f4"><path d="m182.695312 113.121094h-20.238281l1.878907 235.109375h176.914062c11.046875 0 20-8.953125 20-20v-10h-176.914062zm0 0"/><path d="m50 318.230469c-11.046875 0-20-8.953125-20-20v-185.109375c-11.046875 0-20 8.953125-20 20v195.109375c0 11.046875 8.953125 20 20 20h25.058594l.058594-30zm0 0"/><path d="m75.523438 340v-268.648438c-11.042969 0-20 8.957032-20 20v278.648438c0 11.046875 8.957031 20 20 20h66.929687c11.046875 0 20-8.953125 20-20v-10h-66.929687c-11.042969 0-20-8.953125-20-20zm0 0"/></g><path d="m313.351562 213.527344h-104.308593c-5.523438 0-10-4.476563-10-10v-41.769532c0-5.523437 4.476562-10 10-10h104.308593c5.523438 0 10 4.476563 10 10v41.769532c0 5.523437-4.476562 10-10 10zm-94.308593-20h84.308593v-21.769532h-84.308593zm0 0" fill="#1ae5be"/><path d="m313.351562 263.648438h-104.308593c-5.523438 0-10-4.476563-10-10 0-5.523438 4.476562-10 10-10h104.308593c5.523438 0 10 4.476562 10 10 0 5.523437-4.476562 10-10 10zm0 0" fill="#1ae5be"/><path d="m313.351562 305.417969h-104.308593c-5.523438 0-10-4.476563-10-10 0-5.523438 4.476562-10 10-10h104.308593c5.523438 0 10 4.476562 10 10 0 5.523437-4.476562 10-10 10zm0 0" fill="#1ae5be"/><path d="m55.058594 358.230469h-25.058594c-16.5625-.019531-29.9804688-13.4375-30-30v-195.109375c.0195312-16.558594 13.4375-29.980469 30-30h25.523438c5.523437 0 10 4.476562 10 10 0 5.523437-4.476563 10-10 10h-25.523438c-5.519531.007812-9.992188 4.480468-10 10v195.109375c.007812 5.519531 4.480469 9.996093 10 10h25.058594c5.523437 0 10 4.476562 10 10 0 5.523437-4.476563 10-10 10zm0 0" fill="#0635c9"/><path d="m341.25 103h-168.625v-11.648438c-.070312-16.660156-13.507812-30.179687-30.171875-30.351562h-49.828125v-51c0-5.523438-4.476562-10-10-10s-10 4.476562-10 10v51.488281c-15.324219 1.558594-26.988281 14.460938-27 29.863281v278.648438c-.03125 16.539062 13.355469 29.972656 29.894531 30h66.933594c16.59375-.007812 30.070313-13.40625 30.171875-30v-12h168.625c16.542969 0 30.375-13.226562 30.375-29.769531v-195.109375c0-16.542969-13.832031-30.121094-30.375-30.121094zm-188.625 267c0 5.523438-4.476562 10-10 10h-67c-5.523438 0-10-4.476562-10-10v-279c0-5.523438 4.476562-10 10-10h67c5.523438 0 10 4.476562 10 10zm199-41.769531c0 5.515625-4.859375 9.769531-10.375 9.769531h-168.625v-215h168.625c5.617188.035156 10.203125 4.507812 10.375 10.121094zm0 0" fill="#0635c9"/></svg>