<svg height="370pt" viewBox="-10 0 369 370" width="370pt" xmlns="http://www.w3.org/2000/svg"><path d="m167.644531 85.566406v-10.113281h-25.40625c-10.296875-.085937-19.234375 7.074219-21.398437 17.140625v.003906c-.875 4.273438-1.636719 8.5625-2.332032 12.855469h28.78125c11.113282.128906 20.222657-8.773437 20.355469-19.886719zm0 0" fill="#d4e1f4"/><path d="m162.917969 330c-55.105469 0-102.328125-38.488281-112.183594-91.441406l-4.960937-26.640625c-7.003907-37.621094-7.003907-76.214844 0-113.835938l4.960937-26.640625c2.765625-14.863281 8.582031-28.992187 17.074219-41.5-24.617188 16.582032-41.570313 42.332032-47.074219 71.5l-4.960937 26.640625c-7.003907 37.621094-7.003907 76.214844 0 113.835938l4.960937 26.640625c9.855469 52.953125 57.078125 91.441406 112.183594 91.441406h14.367187c11.113282.128906 20.226563-8.773438 20.359375-19.886719v-10.113281zm0 0" fill="#d4e1f4"/><g fill="#1ae5be"><path d="m280.539062 334.722656c-4.066406 0-7.726562-2.460937-9.261718-6.226562-1.53125-3.765625-.632813-8.085938 2.277344-10.925782 36.269531-35.425781 56.242187-82.5 56.242187-132.570312s-19.972656-97.144531-56.242187-132.570312c-3.90625-3.851563-3.976563-10.128907-.164063-14.070313s10.089844-4.074219 14.066406-.300781l.066407.0625c40.160156 39.21875 62.273437 91.378906 62.273437 146.878906s-22.113281 107.660156-62.269531 146.878906c-1.867188 1.828125-4.375 2.847656-6.988282 2.84375zm0 0"/><path d="m233.992188 289.261719c-4.066407 0-7.726563-2.460938-9.261719-6.226563-1.535157-3.765625-.632813-8.085937 2.273437-10.925781 48.109375-46.476563 49.433594-123.152344 2.957032-171.261719-.96875-1-1.953126-1.984375-2.957032-2.957031-3.96875-3.839844-4.070312-10.171875-.230468-14.140625 3.839843-3.96875 10.171874-4.070312 14.140624-.230469l.066407.066407c56.007812 54.191406 57.484375 143.527343 3.289062 199.539062-1.078125 1.117188-2.175781 2.210938-3.289062 3.289062-1.867188 1.828126-4.375 2.851563-6.988281 2.847657zm0 0"/><path d="m183.039062 239.5c-4.066406 0-7.730468-2.460938-9.261718-6.226562-1.535156-3.765626-.636719-8.085938 2.273437-10.925782 20.617188-19.90625 21.199219-52.757812 1.300781-73.378906-.429687-.445312-.863281-.878906-1.300781-1.300781-3.972656-3.84375-4.074219-10.171875-.234375-14.144531 3.839844-3.96875 10.171875-4.074219 14.140625-.234376l.066407.066407c28.527343 27.621093 29.261718 73.132812 1.640624 101.660156-.535156.554687-1.082031 1.101563-1.640624 1.640625-1.863282 1.828125-4.375 2.847656-6.984376 2.84375zm0 0"/></g><path d="m147.285156 370h-14.367187c-59.957031 0-111.269531-41.894531-122.015625-99.613281l-4.960938-26.640625c-7.253906-38.828125-7.253906-78.667969 0-117.5l4.960938-26.636719c10.746094-57.714844 62.054687-99.609375 122.015625-99.609375h14.367187c16.738282 0 30.359375 13.40625 30.359375 29.886719v55.679687c0 16.480469-13.621093 29.886719-30.359375 29.886719h-35.046875c-5.515625-.074219-10.339843 3.699219-11.59375 9.070313l-.015625.082031c-8.207031 39.84375-8.207031 80.945312 0 120.789062.007813.027344.011719.054688.019532.082031 1.25 5.371094 6.074218 9.144532 11.589843 9.070313h35.046875c16.738282 0 30.359375 13.40625 30.359375 29.886719v55.679687c0 16.480469-13.621093 29.886719-30.359375 29.886719zm-14.367187-350c-50.324219 0-93.371094 35.019531-102.355469 83.273438l-4.957031 26.636718c-6.804688 36.414063-6.804688 73.765625 0 110.179688l4.957031 26.636718c8.984375 48.253907 52.03125 83.273438 102.355469 83.273438h14.367187c5.585938.121094 10.21875-4.300781 10.359375-9.886719v-55.679687c-.140625-5.589844-4.773437-10.011719-10.359375-9.886719h-35.046875c-15.03125.050781-28.046875-10.433594-31.199219-25.132813-.007812-.035156-.015624-.074218-.023437-.109374-8.722656-42.425782-8.722656-86.183594 0-128.609376.007813-.039062.015625-.074218.023437-.109374 3.152344-14.699219 16.167969-25.183594 31.199219-25.132813h35.046875c5.585938.125 10.21875-4.296875 10.359375-9.886719v-55.679687c-.140625-5.585938-4.773437-10.007813-10.359375-9.886719zm0 0" fill="#0635c9"/></svg>