<svg height="400pt" viewBox="0 -60 400 400" width="400pt" xmlns="http://www.w3.org/2000/svg"><path d="m64.105469 10.300781h50.675781v259.398438h-50.675781zm0 0" fill="#d4e1f4"/><path d="m234.542969 69.503906h46.066406v140.992188h-46.066406zm0 0" fill="#d4e1f4"/><path d="m234.542969 130h-59.542969v-119.699219c0-5.523437-4.019531-10.300781-9.542969-10.300781h-101.355469c-5.601562.136719-10.074218 4.699219-10.101562 10.300781v119.699219h-44c-5.523438 0-10 4.476562-10 10s4.476562 10 10 10h44v119.699219c.027344 5.601562 4.5 10.164062 10.101562 10.300781h101.355469c5.523438 0 9.542969-4.777344 9.542969-10.300781v-119.699219h59.542969c5.523437 0 10-4.476562 10-10s-4.476563-10-10-10zm-160.542969 130v-240h81v240zm0 0" fill="#0635c9"/><path d="m390 130h-63.324219c-5.523437 0-10 4.476562-10 10s4.476563 10 10 10h63.324219c5.523438 0 10-4.476562 10-10s-4.476562-10-10-10zm0 0" fill="#0635c9"/><path d="m326.675781 220.5h-92.132812c-5.523438 0-10-4.476562-10-10v-140.996094c0-5.523437 4.476562-10 10-10h92.132812c5.523438 0 10 4.476563 10 10v141c-.003906 5.523438-4.480469 9.996094-10 9.996094zm-82.132812-20h72.132812v-120.996094h-72.132812zm0 0" fill="#1ae5be"/></svg>