<svg height="400pt" viewBox="-60 0 400 400" width="400pt" xmlns="http://www.w3.org/2000/svg"><path d="m10.300781 287.574219h259.398438v50.679687h-259.398438zm0 0" fill="#d4e1f4"/><path d="m69.503906 121.746094h140.992188v46.066406h-140.992188zm0 0" fill="#d4e1f4"/><path d="m269.699219 225h-119.699219v-59.542969c0-5.523437-4.476562-10-10-10s-10 4.476563-10 10v59.542969h-119.699219c-5.523437 0-10.300781 4.019531-10.300781 9.542969v101.355469c.136719 5.601562 4.699219 10.074218 10.300781 10.101562h119.699219v44c0 5.523438 4.476562 10 10 10s10-4.476562 10-10v-44h119.699219c5.601562-.023438 10.167969-4.5 10.300781-10.101562v-101.355469c0-5.523438-4.777344-9.542969-10.300781-9.542969zm-9.699219 101h-240v-81h240zm0 0" fill="#0635c9"/><path d="m140 83.324219c5.523438 0 10-4.476563 10-10v-63.324219c0-5.523438-4.476562-10-10-10s-10 4.476562-10 10v63.324219c0 5.523437 4.476562 10 10 10zm0 0" fill="#0635c9"/><path d="m210.5 175.457031h-140.996094c-5.523437 0-10-4.476562-10-10v-92.132812c0-5.523438 4.476563-10 10-10h141c5.523438 0 10 4.476562 10 10v92.132812c0 5.527344-4.480468 10.003907-10.003906 10zm-130.988281-20h120.988281v-72.132812h-120.996094zm0 0" fill="#1ae5be"/></svg>