<svg height="420pt" viewBox="0 -95 420 420" width="420pt" xmlns="http://www.w3.org/2000/svg"><path d="m40 40h314.898438v-30h-344.898438v210.800781h30zm0 0" fill="#d4e1f4"/><path d="m410 57.5h-45.101562v-47.5c-.015626-5.515625-4.480469-9.984375-10-10h-344.898438c-5.515625.015625-9.984375 4.484375-10 10v210.800781c.015625 5.515625 4.484375 9.984375 10 10h344.898438c5.519531-.015625 9.984374-4.484375 10-10v-47.5h45.101562c5.515625-.015625 9.984375-4.484375 10-10v-95.800781c-.015625-5.515625-4.484375-9.984375-10-10zm-10 95.800781h-45.101562c-5.515626.015625-9.984376 4.484375-10 10v47.5h-324.898438v-190.800781h324.898438v47.5c.015624 5.515625 4.484374 9.984375 10 10h45.101562zm0 0" fill="#0635c9"/><path d="m296.199219 57.5h-226.300781c-5.515626.015625-9.984376 4.484375-10 10v95.800781c.015624 5.515625 4.484374 9.984375 10 10h226.300781c5.515625-.015625 9.984375-4.484375 10-10v-95.800781c.011719-2.65625-1.039063-5.203125-2.917969-7.082031-1.878906-1.875-4.425781-2.925781-7.082031-2.917969zm-10 95.800781h-206.300781v-75.800781h206.300781zm0 0" fill="#1ae5be"/></svg>