<svg height="420pt" viewBox="0 -14 420 420" width="420pt" xmlns="http://www.w3.org/2000/svg"><path d="m60 285.898438v-215.898438c-.007812-22.09375 17.90625-40.007812 40-40h304.601562c-7.109374-12.394531-20.316406-20.027344-34.601562-20h-320c-22.09375-.007812-40.007812 17.90625-40 40v215.898438c-.007812 22.09375 17.90625 40.007812 40 40h15.398438c-3.527344-6.074219-5.390626-12.972657-5.398438-20zm0 0" fill="#d4e1f4"/><path d="m200.300781 325.898438h-37.902343l32.601562 54c.992188 1.585937 2.730469 2.550781 4.601562 2.550781 1.867188 0 3.605469-.964844 4.597657-2.550781l14.300781-23.699219zm0 0" fill="#d4e1f4"/><path d="m370 0h-320c-27.609375.0117188-49.9882812 22.390625-50 50v215.898438c.0117188 27.613281 22.390625 49.992187 50 50h94.601562l41.796876 69.101562c0 .101562.101562.101562.101562.199219 2.847656 4.484375 7.789062 7.199219 13.101562 7.199219 5.308594 0 10.25-2.714844 13.097657-7.199219 0-.097657.101562-.097657.101562-.199219l41.800781-69.101562h115.398438c27.609375-.007813 49.988281-22.386719 50-50v-215.898438c-.011719-27.609375-22.390625-49.9882812-50-50zm30 265.898438c-.046875 16.550781-13.453125 29.953124-30 30h-121.101562c-3.5.011718-6.753907 1.824218-8.597657 4.800781l-40.699219 67.5-40.800781-67.5c-1.828125-2.996094-5.089843-4.816407-8.601562-4.800781h-100.199219c-16.546875-.046876-29.953125-13.449219-30-30v-215.898438c.046875-16.546875 13.453125-29.953125 30-30h320c16.546875.046875 29.953125 13.453125 30 30zm0 0" fill="#0635c9"/><g fill="#1ae5be"><path d="m98.601562 120c-20.65625 0-37.402343 16.746094-37.402343 37.398438 0 20.65625 16.746093 37.402343 37.402343 37.402343 20.652344 0 37.398438-16.746093 37.398438-37.402343-.039062-20.636719-16.761719-37.359376-37.398438-37.398438zm0 54.800781c-9.609374 0-17.402343-7.792969-17.402343-17.402343 0-9.609376 7.792969-17.398438 17.402343-17.398438 9.609376 0 17.398438 7.789062 17.398438 17.398438-.007812 9.609374-7.792969 17.394531-17.398438 17.402343zm0 0"/><path d="m208.199219 120c-20.65625 0-37.398438 16.746094-37.398438 37.398438 0 20.65625 16.742188 37.402343 37.398438 37.402343s37.402343-16.746093 37.402343-37.402343c-.039062-20.636719-16.761718-37.359376-37.402343-37.398438zm0 54.800781c-9.609375 0-17.398438-7.792969-17.398438-17.402343 0-9.609376 7.789063-17.398438 17.398438-17.398438s17.402343 7.789062 17.402343 17.398438c-.007812 9.609374-7.792968 17.394531-17.402343 17.402343zm0 0"/><path d="m317.800781 120c-20.65625 0-37.402343 16.746094-37.402343 37.398438 0 20.65625 16.746093 37.402343 37.402343 37.402343s37.398438-16.746093 37.398438-37.402343c-.039063-20.636719-16.761719-37.359376-37.398438-37.398438zm0 54.800781c-9.609375 0-17.402343-7.792969-17.402343-17.402343 0-9.609376 7.792968-17.398438 17.402343-17.398438s17.398438 7.789062 17.398438 17.398438c-.007813 9.609374-7.792969 17.394531-17.398438 17.402343zm0 0"/></g></svg>