<svg height="419pt" viewBox="-37 0 419 419.995" width="419pt" xmlns="http://www.w3.org/2000/svg"><path d="m118.375 328.230469c-14.585938 0-26.414062-11.824219-26.414062-26.414063v-291.820312h-3.585938c-14.589844 0-26.414062 11.824218-26.414062 26.414062v295.40625c0 14.589844 11.828124 26.414063 26.414062 26.414063h220.011719c14.585937 0 26.410156-11.828125 26.410156-26.414063v-3.585937zm0 0" fill="#d4e1f4"/><path d="m66.609375 379.996094c-14.585937-.003906-26.410156-11.828125-26.410156-26.414063v-296.527343h-3.589844c-14.585937 0-26.410156 11.824218-26.410156 26.414062v300.113281c0 14.585938 11.824219 26.414063 26.410156 26.414063h224.71875c14.585937 0 26.414063-11.828125 26.414063-26.414063v-3.585937zm0 0" fill="#d4e1f4"/><g fill="#0635c9"><path d="m277.761719 264.996094h-158.761719c-5.523438 0-10 4.476562-10 10 0 5.523437 4.476562 10 10 10h158.761719c5.523437 0 10-4.476563 10-10 0-5.523438-4.476563-10-10-10zm0 0"/><path d="m275.585938 3.082031c-.039063-.039062-.082032-.074219-.121094-.113281-.070313-.070312-.144532-.136719-.214844-.199219-.164062-.160156-.332031-.316406-.5-.460937-.074219-.0625-.152344-.117188-.230469-.175782-.179687-.140624-.355469-.28125-.542969-.410156-.101562-.066406-.203124-.121094-.300781-.183594-.171875-.109374-.34375-.222656-.523437-.320312-.160156-.085938-.324219-.15625-.484375-.234375-.132813-.0625-.261719-.132813-.394531-.1875-.265626-.117187-.539063-.214844-.816407-.300781-.035156-.011719-.070312-.027344-.101562-.039063-.742188-.230469-1.511719-.3710935-2.289063-.4218748-.230468-.015625-.460937-.0351562-.695312-.0351562h-180c-20.074219-.00390625-36.871094 16.328125-36.871094 36.410156v10.585938h-14.890625c-20.019531.074218-36.1875 16.363281-36.109375 36.382812v300.199219c-.121094 19.996094 15.992188 36.296875 35.984375 36.417969h224.84375c20.019531-.042969 36.214844-16.304688 36.171875-36.324219v-15.675781h10.886719c19.882812.0625 36.050781-16.007813 36.113281-35.886719 0-.101563 0-.195313 0-.292969v-252.355468c.054688-2.558594-.886719-5.035157-2.625-6.914063zm2.914062 31.828125 32.917969 34.085938h-32.917969zm-1 348.671875c.101562 8.960938-7.078125 16.308594-16.039062 16.414063h-224.851563c-8.933594-.039063-16.144531-7.308594-16.109375-16.242188 0-.058594 0-.113281 0-.171875v-300.113281c-.136719-8.960938 7.015625-16.335938 15.980469-16.472656h15.019531v264.820312c0 20.078125 16.796875 36.179688 36.875 36.179688h189.125zm30.886719-35.585937h-220.011719c-9.050781 0-16.875-7.128906-16.875-16.179688v-295.40625c0-9.050781 7.824219-16.414062 16.875-16.414062h170.125v59.488281c0 5.523437 4.332031 9.511719 9.855469 9.511719h56.144531v242.820312c.109375 8.824219-6.953125 16.066406-15.777344 16.179688-.113281 0-.222656 0-.335937 0zm0 0"/><path d="m178.152344 107.679688c12.28125 12.28125 32.191406 12.28125 44.472656 0s12.28125-32.191407 0-44.472657l-15.167969-15.167969c-3.902343-3.902343-10.234375-3.902343-14.140625 0l-15.167968 15.167969c-12.257813 12.289063-12.257813 32.183594 0 44.472657zm14.140625-30.332032 8.097656-8.09375 8.09375 8.09375c2.921875 2.871094 4.089844 7.078125 3.0625 11.039063-1.027344 3.964843-4.09375 7.074219-8.039063 8.164062-3.945312 1.089844-8.171874-.011719-11.082031-2.886719-.042969-.042968-.085937-.085937-.128906-.128906-4.460937-4.46875-4.464844-11.710937-.003906-16.1875zm0 0"/></g><path d="m286.269531 269.453125-48.753906-78.796875c-2.582031-4.109375-3.972656-8.851562-4.015625-13.703125v-9.058594c5.941406-1.972656 9.960938-7.511719 10-13.773437v-17.335938c-.105469-8.113281-6.652344-14.671875-14.765625-14.789062h-60.707031c-8.066406.136718-14.535156 6.71875-14.527344 14.789062v17.332032c.03125 6.261718 4.054688 11.804687 10 13.777343v9.066407c-.089844 4.859374-1.519531 9.601562-4.136719 13.699218l-48.75 78.800782c-6.21875 10.003906-6.519531 22.59375-.789062 32.886718 5.730469 10.292969 16.59375 16.664063 28.375 16.648438h120.363281c11.789062.03125 22.671875-6.332032 28.425781-16.621094 5.753907-10.289062 5.480469-22.890625-.71875-32.921875zm-62.769531-127.457031v7h-50v-7zm46.03125 150.617187c-2.199219 3.988281-6.414062 6.4375-10.96875 6.382813h-120.363281c-4.546875.027344-8.746094-2.417969-10.96875-6.382813-2.21875-3.964843-2.113281-8.820312.28125-12.683593l48.871093-78.78125c4.566407-7.25 7.03125-15.625 7.117188-24.191407v-7.960937h30v7.960937c.042969 8.558594 2.46875 16.941407 7 24.203125l48.6875 78.769532c2.441406 3.839843 2.574219 8.714843.34375 12.683593zm0 0" fill="#1ae5be"/></svg>