<svg height="420pt" viewBox="-38 0 420 420.00096" width="420pt" xmlns="http://www.w3.org/2000/svg"><path d="m117.878906 328.234375c-14.589844 0-26.414062-11.824219-26.414062-26.410156v-291.824219h-3.585938c-14.589844 0-26.414062 11.828125-26.414062 26.414062v295.410157c0 14.585937 11.824218 26.410156 26.414062 26.410156h220.011719c14.585937 0 26.410156-11.824219 26.410156-26.410156v-3.589844zm0 0" fill="#d4e1f4"/><path d="m66.113281 380c-14.585937 0-26.414062-11.824219-26.414062-26.414062v-296.527344h-3.585938c-14.585937 0-26.414062 11.828125-26.414062 26.414062v300.113282c0 14.589843 11.828125 26.414062 26.414062 26.414062h224.71875c14.585938 0 26.410157-11.824219 26.410157-26.414062v-3.585938zm0 0" fill="#d4e1f4"/><g fill="#0635c9"><path d="m275.089844 3.089844c-.039063-.042969-.085938-.078125-.125-.121094-.066406-.0625-.128906-.121094-.195313-.183594-.171875-.164062-.34375-.328125-.527343-.476562-.066407-.054688-.136719-.101563-.203126-.160156-.1875-.144532-.375-.289063-.570312-.421876-.085938-.0625-.179688-.113281-.269531-.167968-.183594-.117188-.363281-.234375-.554688-.335938-.140625-.078125-.292969-.144531-.4375-.214844-.148437-.074218-.289062-.148437-.4375-.210937-.246093-.101563-.5-.191406-.753906-.277344-.054687-.019531-.113281-.070312-.167969-.089843-.628906-.242188-1.292968-.3867192-1.964844-.429688-.085937 0-.175781.0195312-.265624.0117188-.246094-.01562505-.5-.0117188-.75-.0117188h-179.988282c-20.078125 0-36.878906 16.335938-36.878906 36.414062v10.585938h-14.886719c-20.019531.074219-36.1874998 16.367188-36.113281 36.386719v300.199219c-.117188 19.992187 15.992188 36.296874 35.984375 36.414062h224.847656c20.019531-.042969 36.210938-16.304688 36.167969-36.324219v-15.675781h10.890625c19.878906.0625 36.046875-16.003906 36.109375-35.886719 0-.097656 0-.191406 0-.289062v-252.359375c.054688-2.554688-.882812-5.035156-2.621094-6.910156zm2.910156 31.828125 32.921875 34.082031h-32.921875zm-1 348.667969c.105469 8.960937-7.074219 16.3125-16.039062 16.414062h-224.847657c-8.933593-.035156-16.144531-7.304688-16.113281-16.238281 0-.058594 0-.117188 0-.175781v-300.113282c-.132812-8.960937 7.019531-16.335937 15.980469-16.472656h15.019531v264.824219c0 20.078125 16.800781 36.175781 36.878906 36.175781h189.121094zm30.890625-35.585938h-220.011719c-9.050781 0-16.878906-7.128906-16.878906-16.175781v-295.410157c0-9.050781 7.828125-16.414062 16.878906-16.414062h170.121094v59.488281c0 5.523438 4.335938 9.511719 9.855469 9.511719h56.144531v242.824219c.113281 8.820312-6.949219 16.066406-15.773438 16.175781-.113281 0-.226562 0-.335937 0zm0 0"/><path d="m229.328125 207.511719-66.265625-9.546875c-5.464844-.789063-10.535156 3.003906-11.324219 8.472656-.789062 5.46875 3.003907 10.539062 8.472657 11.328125l66.265624 9.546875c.476563.066406.957032.101562 1.4375.097656 5.25.003906 9.605469-4.054687 9.976563-9.289062.375-5.238282-3.367187-9.867188-8.5625-10.609375zm0 0"/><path d="m279.046875 216.734375c-3.90625-3.90625-10.238281-3.90625-14.144531 0l-18.316406 18.320313c-14.027344 14.023437-14.027344 36.761718-.003907 50.785156 14.027344 14.023437 36.761719 14.023437 50.785157 0 14.023437-14.023438 14.023437-36.761719 0-50.785156zm4.175781 54.960937c-6.210937 6.214844-16.285156 6.214844-22.5 0-6.210937-6.210937-6.214844-16.28125-.003906-22.496093l11.253906-11.253907 11.25 11.25c6.214844 6.214844 6.214844 16.289063 0 22.5zm0 0"/><path d="m111.464844 100h83.128906c5.523438 0 10-4.476562 10-10s-4.476562-10-10-10h-83.128906c-5.523438 0-10 4.476562-10 10s4.476562 10 10 10zm0 0"/><path d="m184.59375 140c0-5.523438-4.476562-10-10-10h-63.128906c-5.523438 0-10 4.476562-10 10s4.476562 10 10 10h63.128906c5.523438 0 10-4.476562 10-10zm0 0"/></g><path d="m124.789062 319.234375c-14.929687.003906-28.386718-8.988281-34.097656-22.78125-5.714844-13.789063-2.558594-29.664063 7.996094-40.21875l95.460938-95.460937c.796874-.789063 1.414062-1.738282 1.8125-2.785157l8.683593-22.574219c1.21875-3.160156 3.949219-5.488281 7.257813-6.191406 3.308594-.699218 6.75.316406 9.144531 2.710938l54.132813 54.132812c2.390624 2.390625 3.410156 5.832032 2.707031 9.144532-.703125 3.308593-3.03125 6.039062-6.1875 7.253906l-22.574219 8.683594c-1.046875.402343-1.996094 1.019531-2.789062 1.8125l-95.460938 95.460937c-6.902344 6.945313-16.296875 10.835937-26.085938 10.8125zm93-162.28125-3.160156 8.214844c-1.402344 3.660156-3.5625 6.980469-6.335937 9.746093l-95.460938 95.464844c-6.601562 6.601563-6.601562 17.304688 0 23.90625 6.601563 6.601563 17.304688 6.601563 23.90625 0l95.460938-95.464844c2.769531-2.773437 6.089843-4.933593 9.75-6.332031l8.214843-3.160156zm0 0" fill="#1ae5be"/></svg>