<svg height="346pt" viewBox="0 -11 346.46315 346" width="346pt" xmlns="http://www.w3.org/2000/svg"><path d="m80.007812 293.914062c-19.410156.003907-35.148437-15.730468-35.148437-35.136718v-176.351563c0-3.289062-.691406-6.542969-2.027344-9.550781l-3.945312-8.871094h-28.882813l12.832032 28.871094c1.335937 3.007812 2.027343 6.261719 2.027343 9.550781v176.34375c0 19.410157 15.730469 35.144531 35.140625 35.144531 14.492188 0 27.496094-8.890624 32.753906-22.394531-4.0625 1.585938-8.390624 2.398438-12.75 2.394531zm0 0" fill="#d4e1f4"/><path d="m201.894531 283.914062c-8.753906 0-16.886719-4.515624-21.515625-11.945312s-5.097656-16.71875-1.242187-24.578125l51.566406-105.035156c8.535156-17.382813 12.972656-36.492188 12.972656-55.859375v-71.089844h-15.84375v-4.859375h-40v34.859375h15.84375v71.089844c0 19.367187-4.4375 38.476562-12.972656 55.859375l-51.566406 105.035156c-3.855469 7.859375-3.386719 17.148437 1.242187 24.578125s12.761719 11.945312 21.515625 11.945312h149.234375c7.535156 0 14.683594-3.355468 19.503906-9.152343 4.816407-5.796875 6.808594-13.433594 5.4375-20.847657zm0 0" fill="#d4e1f4"/><path d="m25.265625 185.953125c-4.308594.003906-8.136719-2.75-9.496094-6.839844-1.363281-4.085937.046875-8.585937 3.496094-11.167969l70.023437-52.386718c4.421876-3.308594 10.691407-2.402344 14 2.019531 3.308594 4.421875 2.402344 10.6875-2.019531 13.996094l-70.023437 52.386719c-1.722656 1.292968-3.824219 1.992187-5.980469 1.992187zm0 0" fill="#1ae5be"/><path d="m297.859375 215.691406h-122.183594c-5.519531 0-10-4.476562-10-10 0-5.523437 4.480469-10 10-10h122.183594c5.523437 0 10 4.476563 10 10 0 5.523438-4.476563 10-10 10zm0 0" fill="#1ae5be"/><g fill="#0635c9"><path d="m291.25 167.949219c-7.851562-16.019531-11.953125-33.613281-11.992188-51.453125v-61.265625h5.933594c5.472656.089843 9.980469-4.277344 10.066406-9.75v-34.933594c-.007812-5.597656-4.472656-10.171875-10.066406-10.316406h-97.359375c-5.523437 0-9.574219 4.792969-9.574219 10.316406v34.859375c-.179687 5.242188 3.925782 9.640625 9.167969 9.820312.136719 0 .269531.007813.402344 0h5.429687v61.265626c.050782 17.820312-3.964843 35.417968-11.738281 51.453124l-51.460937 105.039063c-5.363282 11.011719-4.695313 24.007813 1.769531 34.414063 6.464844 10.402343 17.816406 16.761718 30.066406 16.832031h149.234375c12.226563-.066407 23.5625-6.417969 30.003906-16.8125 6.441407-10.394531 7.085938-23.371094 1.707032-34.351563zm-92.992188-147.71875h77v15h-77zm125.902344 276.609375c-2.746094 4.578125-7.691406 7.386718-13.03125 7.390625h-149.234375c-5.320312-.074219-10.238281-2.859375-13.03125-7.390625s-3.074219-10.175782-.75-14.960938l51.359375-105.074218c9.117188-18.796876 13.832032-39.421876 13.785156-60.308594v-61.265625h46v61.265625c.042969 20.894531 4.84375 41.503906 14.039063 60.265625l51.589844 105.117187c2.398437 4.769532 2.125 10.445313-.726563 14.960938zm0 0"/><path d="m110.007812 54.230469h-100c-3.371093-.050781-6.535156 1.621093-8.386718 4.433593-1.851563 2.816407-2.136719 6.382813-.753906 9.457032l13.027343 28.84375c.832031 1.703125 1.296875 3.566406 1.363281 5.460937v176.347657c0 24.851562 20.148438 45 45 45 24.851563 0 45-20.148438 45-45v-176.347657c-.019531-1.886719.359376-3.757812 1.109376-5.488281l12.800781-28.875c1.371093-3.058594 1.082031-6.605469-.765625-9.398438-1.863282-2.808593-5.027344-4.476562-8.394532-4.433593zm-21.914062 34.699219c-1.894531 4.25-2.859375 8.851562-2.835938 13.5v176.34375c0 13.804687-11.191406 25-25 25-13.804687 0-25-11.195313-25-25v-176.347657c-.0625-4.667969-1.113281-9.269531-3.085937-13.5l-6.78125-14.703125h69.230469zm0 0"/></g></svg>