<svg height="400pt" viewBox="0 0 400 400" width="400pt" xmlns="http://www.w3.org/2000/svg"><path d="m60 200c0-96.089844 71.335938-175.5 163.933594-188.210938-7.941406-1-15.933594-1.496093-23.933594-1.496093-104.933594 0-190 85.066406-190 190 0 104.933593 85.066406 190 190 190 8.71875-.003907 17.429688-.601563 26.066406-1.789063-93.632812-11.769531-166.066406-91.675781-166.066406-188.503906zm0 0" fill="#d4e1f4"/><g fill="#1ae5be"><path d="m231.253906 241.835938c-2.652344.003906-5.199218-1.050782-7.070312-2.929688l-63.089844-63.085938c-3.90625-3.90625-3.90625-10.238281-.003906-14.144531 3.90625-3.90625 10.238281-3.90625 14.144531 0l63.089844 63.089844c2.859375 2.859375 3.714843 7.160156 2.167969 10.898437-1.546876 3.738282-5.195313 6.171876-9.238282 6.171876zm0 0"/><path d="m66.339844 343.660156c-4.046875 0-7.691406-2.433594-9.242188-6.171875-1.546875-3.734375-.691406-8.039062 2.167969-10.898437l36-36c3.910156-3.875 10.21875-3.859375 14.113281.03125 3.890625 3.894531 3.90625 10.203125.03125 14.113281l-36 36c-1.875 1.878906-4.417968 2.933594-7.070312 2.925781zm0 0"/><path d="m297.664062 112.335938c-4.046874 0-7.691406-2.433594-9.238281-6.171876-1.550781-3.738281-.695312-8.039062 2.167969-10.898437l36-36c2.5-2.609375 6.210938-3.664063 9.710938-2.761719 3.496093.898438 6.238281 3.617188 7.167968 7.109375.929688 3.488281-.09375 7.210938-2.679687 9.734375l-.0625.058594-36 36c-1.871094 1.878906-4.417969 2.933594-7.066407 2.929688zm0 0"/><path d="m333.660156 343.660156c-2.652344.007813-5.195312-1.046875-7.070312-2.925781l-36-36c-3.875-3.910156-3.859375-10.21875.03125-14.113281 3.894531-3.890625 10.203125-3.90625 14.113281-.03125l36 36c2.859375 2.859375 3.714844 7.164062 2.167969 10.898437-1.550782 3.738281-5.195313 6.171875-9.242188 6.171875zm0 0"/><path d="m102.335938 112.335938c-2.652344.003906-5.195313-1.050782-7.070313-2.929688l-36-36c-3.875-3.910156-3.863281-10.214844.03125-14.109375s10.199219-3.90625 14.109375-.03125l36 36c2.863281 2.859375 3.71875 7.160156 2.167969 10.898437-1.546875 3.738282-5.191407 6.171876-9.238281 6.171876zm0 0"/></g><path d="m200 0c-110.28125 0-200 89.71875-200 200s89.71875 200 200 200 200-89.71875 200-200-89.71875-200-200-200zm10 379.71875v-41.601562c0-5.523438-4.476562-10-10-10s-10 4.476562-10 10v41.601562c-91.308594-5.027344-164.691406-78.410156-169.71875-169.71875h41.601562c5.523438 0 10-4.476562 10-10s-4.476562-10-10-10h-41.601562c5.027344-91.308594 78.410156-164.691406 169.71875-169.71875v41.601562c0 5.523438 4.476562 10 10 10s10-4.476562 10-10v-41.601562c91.308594 5.027344 164.691406 78.410156 169.71875 169.71875h-41.601562c-5.523438 0-10 4.476562-10 10s4.476562 10 10 10h41.601562c-5.027344 91.308594-78.410156 164.691406-169.71875 169.71875zm0 0" fill="#0635c9"/><path d="m267.011719 120.089844-102.269531 38.855468c-2.675782 1.015626-4.785157 3.125-5.800782 5.796876l-38.851562 102.269531c-1.398438 3.679687-.507813 7.835937 2.277344 10.621093 2.785156 2.785157 6.941406 3.675782 10.621093 2.277344l102.273438-38.855468c2.671875-1.015626 4.785156-3.125 5.796875-5.796876l38.851562-102.269531c1.398438-3.679687.507813-7.835937-2.277344-10.621093-2.785156-2.785157-6.941406-3.675782-10.621093-2.277344zm-43.058594 103.867187-77.265625 29.351563 29.359375-77.265625 77.265625-29.351563zm0 0" fill="#0635c9"/></svg>