<svg height="400pt" viewBox="0 0 400 400" width="400pt" xmlns="http://www.w3.org/2000/svg"><path d="m253.394531 297.628906-47.324219-36.152344c-.085937-.066406-.179687-.125-.269531-.1875-.105469-.074218-.210937-.152343-.320312-.222656-.152344-.101562-.304688-.191406-.460938-.28125-.105469-.0625-.207031-.125-.316406-.183594-.246094-.132812-.492187-.253906-.746094-.359374-.109375-.046876-.222656-.085938-.332031-.128907-.179688-.070312-.359375-.140625-.539062-.199219-.125-.042968-.253907-.074218-.378907-.109374-.167969-.046876-.335937-.09375-.5-.128907-.128906-.03125-.253906-.054687-.382812-.078125-.1875-.035156-.378907-.066406-.566407-.085937-.113281-.015625-.222656-.03125-.335937-.042969-.300781-.027344-.601563-.042969-.894531-.042969h-.046875c-.296875 0-.597657.015625-.890625.042969-.113282.011719-.226563.027344-.335938.042969-.191406.019531-.378906.050781-.566406.085937-.128906.023438-.257812.046875-.382812.078125-.167969.035157-.335938.082031-.5.128907-.128907.035156-.253907.066406-.378907.109374-.183593.058594-.363281.125-.542969.199219-.109374.042969-.222656.082031-.328124.128907-.253907.109374-.503907.226562-.746094.359374-.109375.058594-.214844.121094-.320313.183594-.152343.089844-.308593.183594-.460937.28125-.105469.070313-.210938.148438-.316406.222656-.09375.0625-.183594.121094-.269532.1875l-47.324218 36.152344c-4.355469 3.347656-5.191407 9.582032-1.878907 13.960938s9.539063 5.265625 13.945313 1.988281l.074218-.054687 31.242188-23.875v100.351562c0 5.523438 4.476562 10 10 10s10-4.476562 10-10v-100.351562l31.253906 23.875c4.390625 3.320312 10.636719 2.46875 13.980469-1.90625 3.339844-4.375 2.519531-10.625-1.839844-13.988282zm0 0" fill="#1ae5be"/><path d="m146.605469 102.371094 47.324219 36.152344c.089843.066406.179687.125.269531.1875.105469.074218.210937.152343.320312.222656.152344.101562.304688.191406.460938.28125.105469.0625.207031.125.316406.183594.25.132812.5.253906.757813.367187.101562.042969.210937.078125.3125.121094.183593.070312.363281.140625.550781.199219.121093.039062.246093.070312.371093.105468.171876.046875.34375.09375.515626.132813.121093.027343.246093.054687.375.078125.191406.035156.382812.0625.574218.085937.109375.015625.214844.03125.324219.039063.308594.027344.613281.046875.921875.046875s.613281-.019531.921875-.046875c.109375-.007813.214844-.023438.324219-.039063.191406-.023437.382812-.050781.574218-.085937.128907-.023438.253907-.050782.375-.078125.171876-.039063.34375-.085938.515626-.132813.125-.035156.25-.066406.371093-.105468.1875-.0625.367188-.132813.550781-.199219.097657-.042969.210938-.078125.3125-.121094.257813-.113281.507813-.234375.757813-.367187.109375-.058594.210937-.121094.316406-.183594.15625-.089844.308594-.183594.460938-.28125.109375-.070313.214843-.148438.320312-.222656.089844-.0625.179688-.121094.269531-.1875l47.324219-36.152344c4.359375-3.363282 5.179688-9.613282 1.839844-13.988282-3.34375-4.375-9.589844-5.226562-13.980469-1.90625l-31.253906 23.875v-100.351562c0-5.523438-4.476562-10-10-10s-10 4.476562-10 10v100.351562l-31.253906-23.875c-4.390625-3.320312-10.636719-2.46875-13.980469 1.90625-3.339844 4.375-2.519531 10.625 1.839844 13.988282zm0 0" fill="#1ae5be"/><g fill="#0635c9"><path d="m390 190h-100.351562l23.875-31.253906c3.371093-4.371094 2.558593-10.652344-1.8125-14.023438-4.375-3.375-10.652344-2.5625-14.027344 1.808594l-.054688.074219-36.152344 47.324219c-.066406.089843-.125.179687-.1875.269531-.074218.105469-.152343.210937-.222656.316406-.097656.15625-.191406.3125-.285156.46875-.058594.101563-.125.199219-.179688.3125-.136718.253906-.261718.515625-.375.777344-.039062.09375-.070312.1875-.105468.28125-.074219.1875-.144532.375-.207032.5625-.039062.121093-.070312.246093-.105468.367187-.050782.171875-.09375.347656-.132813.519532-.03125.125-.054687.246093-.078125.371093-.035156.191407-.0625.386719-.085937.582031-.015625.105469-.03125.210938-.039063.320313-.058594.613281-.058594 1.230469 0 1.84375.007813.109375.023438.214844.039063.320313.023437.195312.050781.390624.085937.582031.023438.125.046875.246093.078125.371093.039063.171876.082031.347657.132813.519532.035156.121094.066406.246094.105468.367187.0625.1875.132813.375.207032.5625.035156.09375.066406.1875.105468.28125.113282.261719.238282.523438.375.777344.054688.109375.121094.207031.179688.3125.09375.15625.183594.3125.285156.46875.070313.105469.148438.210937.222656.316406.0625.089844.121094.179688.1875.269531l36.152344 47.324219c3.332032 4.402344 9.605469 5.273438 14.007813 1.941407 4.40625-3.332032 5.273437-9.605469 1.941406-14.007813l-.054687-.074219-23.875-31.253906h100.351562c5.523438 0 10-4.476562 10-10s-4.476562-10-10-10zm0 0"/><path d="m139.21875 205.015625c.058594-.101563.125-.203125.179688-.3125.136718-.253906.261718-.515625.375-.777344.039062-.089843.070312-.1875.105468-.28125.074219-.1875.144532-.375.207032-.5625.039062-.121093.070312-.246093.105468-.367187.050782-.171875.09375-.34375.132813-.519532.03125-.125.054687-.246093.078125-.371093.035156-.191407.0625-.386719.085937-.582031.015625-.105469.03125-.210938.039063-.320313.058594-.613281.058594-1.230469 0-1.84375-.007813-.109375-.023438-.214844-.039063-.320313-.023437-.199218-.050781-.390624-.085937-.582031-.023438-.125-.046875-.246093-.078125-.371093-.039063-.175782-.082031-.347657-.132813-.519532-.035156-.121094-.066406-.246094-.105468-.367187-.0625-.1875-.132813-.375-.207032-.5625-.035156-.09375-.066406-.191407-.105468-.28125-.113282-.261719-.238282-.523438-.375-.777344-.054688-.109375-.121094-.207031-.179688-.3125-.09375-.15625-.183594-.3125-.285156-.46875-.070313-.105469-.148438-.210937-.222656-.316406-.0625-.089844-.121094-.179688-.1875-.269531l-36.152344-47.324219c-2.144532-2.878907-5.667969-4.390625-9.234375-3.953125-3.566407.433594-6.621094 2.746094-8.011719 6.058594-1.386719 3.3125-.890625 7.117187 1.296875 9.964843l.054687.070313 23.875 31.253906h-100.351562c-5.523438 0-10 4.476562-10 10s4.476562 10 10 10h100.351562l-23.875 31.253906c-2.207031 2.824219-2.730468 6.621094-1.375 9.941406 1.359376 3.320313 4.390626 5.65625 7.945313 6.128907 3.558594.46875 7.09375-1.003907 9.265625-3.855469l.058594-.074219 36.152344-47.324219c.066406-.089843.125-.179687.1875-.269531.074218-.105469.152343-.210937.222656-.316406.101562-.15625.191406-.3125.285156-.46875zm0 0"/></g></svg>