<svg height="444pt" viewBox="0 -22 444 444" width="444pt" xmlns="http://www.w3.org/2000/svg"><path d="m50.3125 79.246094c0-16.152344 13.09375-29.246094 29.246094-29.246094h354.128906v-10.753906c0-16.152344-13.09375-29.246094-29.246094-29.246094h-364.882812c-16.152344 0-29.246094 13.09375-29.246094 29.246094v237.675781c0 16.152344 13.09375 29.246094 29.246094 29.246094h10.753906zm0 0" fill="#d4e1f4"/><path d="m433.6875 260.222656h-423.375c-5.523438 0-10-4.480468-10-10 0-5.523437 4.476562-10 10-10h423.375c5.523438 0 10 4.476563 10 10 0 5.519532-4.476562 10-10 10zm0 0" fill="#1ae5be"/><path d="m404.441406 0h-364.882812c-21.640625 0-39.558594 17.605469-39.558594 39.246094v237.675781c0 21.640625 17.917969 39.078125 39.558594 39.078125h116.441406v74c0 5.523438 4.476562 10 10 10s10-4.476562 10-10v-74h92v74c0 5.523438 4.476562 10 10 10s10-4.476562 10-10v-74h116.441406c21.640625 0 39.558594-17.4375 39.558594-39.078125v-237.675781c0-21.640625-17.917969-39.246094-39.558594-39.246094zm18.558594 276.753906c0 10.628906-8.617188 19.246094-19.246094 19.246094h-364.507812c-10.628906 0-19.246094-8.617188-19.246094-19.246094v-237.507812c0-10.628906 8.617188-19.246094 19.246094-19.246094h364.507812c10.628906 0 19.246094 8.617188 19.246094 19.246094zm0 0" fill="#0635c9"/><path d="m317.152344 400h-185.042969c-5.519531 0-10-4.476562-10-10s4.480469-10 10-10h185.042969c5.523437 0 10 4.476562 10 10s-4.476563 10-10 10zm0 0" fill="#1ae5be"/></svg>