<svg height="400pt" viewBox="0 0 400 400" width="400pt" xmlns="http://www.w3.org/2000/svg"><g fill="#1ae5be"><path d="m292.351562 400c-5.523437 0-10-4.476562-10-10v-93.386719c0-5.523437 4.476563-10 10-10 5.523438 0 10 4.476563 10 10v93.386719c0 5.523438-4.476562 10-10 10zm0 0"/><path d="m292.351562 241.210938c-5.523437 0-10-4.476563-10-10v-113.5625h-111.414062c-5.523438 0-10-4.476563-10-10 0-5.523438 4.476562-10 10-10h121.414062c5.523438 0 10 4.476562 10 10v123.5625c0 5.523437-4.476562 10-10 10zm0 0"/><path d="m105.96875 117.648438h-95.96875c-5.523438 0-10-4.476563-10-10 0-5.523438 4.476562-10 10-10h95.96875c5.523438 0 10 4.476562 10 10 0 5.523437-4.476562 10-10 10zm0 0"/></g><path d="m390 282h-272v-272c0-5.523438-4.476562-10-10-10s-10 4.476562-10 10v282.351562c-.132812 5.195313 3.972656 9.515626 9.164062 9.648438h.484376 282.351562c5.523438 0 10-4.476562 10-10s-4.476562-10-10-10zm0 0" fill="#0635c9"/></svg>