<svg height="424pt" viewBox="-12 0 424 424.4" width="424pt" xmlns="http://www.w3.org/2000/svg"><g fill="#d4e1f4"><path d="m30.199219 312.199219v-44.699219c0-18.5 15-33.5 33.5-33.5h19.101562v-20h-39.101562c-18.5 0-33.5 15-33.5 33.5v44.699219c.007812 14.074219 8.789062 26.652343 22 31.5-1.324219-3.6875-2.003907-7.578125-2-11.5zm0 0"/><path d="m356.699219 213.898438h-39.097657v20h16.097657c18.503906 0 33.5 15 33.5 33.5v44.800781c-.011719 4.28125-.828125 8.519531-2.398438 12.5 14.929688-3.710938 25.40625-17.117188 25.398438-32.5v-44.699219c.019531-8.898438-3.5-17.441406-9.78125-23.746094-6.285157-6.300781-14.816407-9.847656-23.71875-9.855468zm0 0"/><path d="m263.300781 404.398438h-49.199219c-13.804687-.003907-24.996093-11.195313-25-25 .015626-5.40625 1.769532-10.664063 5-15-13.804687.007812-24.996093 11.195312-25 25 .003907 13.804687 11.195313 24.996093 25 25h49.199219c7.871094.015624 15.289063-3.691407 20-10zm0 0"/></g><path d="m339.898438 317.398438c-5.515626.015624-9.984376 4.484374-10 10v21.601562c-.027344 16.777344-13.621094 30.371094-30.398438 30.398438h-19.601562c-.976563.03125-1.949219.164062-2.898438.402343-4.300781-15.042969-18.054688-25.40625-33.699219-25.402343h-49.199219c-19.332031 0-35 15.671874-35 35 0 19.332031 15.667969 35 35 35h49.199219c15.628907-.03125 29.363281-10.382813 33.699219-25.398438.9375.285156 1.917969.421875 2.898438.398438h19.601562c27.824219-.023438 50.375-22.574219 50.398438-50.398438v-21.601562c-.015626-5.515626-4.480469-9.984376-10-10zm-96.597657 87h-49.199219c-8.285156 0-15-6.714844-15-15 0-8.28125 6.714844-15 15-15h49.199219c8.285157 0 15 6.71875 15 15 0 8.285156-6.714843 15-15 15zm0 0" fill="#0635c9"/><path d="m200.199219 0c-82.5 0-149.699219 67.199219-149.699219 149.699219v64.300781c0 5.523438 4.476562 10 10 10s10-4.476562 10-10v-64.300781c0-71.5 58.199219-129.699219 129.699219-129.699219s129.699219 58.199219 129.699219 129.699219v64.300781c0 5.523438 4.480468 10 10 10 5.523437 0 10-4.476562 10-10v-64.300781c0-82.597657-67.199219-149.699219-149.699219-149.699219zm0 0" fill="#0635c9"/><path d="m82.800781 203.898438h-39.101562c-24.015625.019531-43.480469 19.484374-43.5 43.5v44.800781c.019531 24.019531 19.484375 43.484375 43.5 43.5h39.101562c5.515625-.015625 9.984375-4.484375 10-10v-111.800781c.007813-2.652344-1.042969-5.203126-2.917969-7.078126-1.878906-1.878906-4.429687-2.929687-7.082031-2.921874zm-10 111.800781h-29.101562c-12.96875-.019531-23.480469-10.527344-23.5-23.5v-44.699219c.019531-12.96875 10.53125-23.480469 23.5-23.5h29.101562zm0 0" fill="#1ae5be"/><path d="m356.699219 203.898438h-39.097657c-5.519531.015624-9.984374 4.484374-10 10v111.800781c.015626 5.515625 4.480469 9.984375 10 10h39.097657c24.019531-.015625 43.484375-19.480469 43.5-43.5v-44.699219c.027343-24.050781-19.449219-43.570312-43.5-43.601562zm23.5 88.300781c-.019531 12.972656-10.527344 23.480469-23.5 23.5h-29.097657v-91.800781h29.097657c12.972656.023437 23.480469 10.53125 23.5 23.5zm0 0" fill="#1ae5be"/></svg>