<svg height="450pt" viewBox="-56 0 450 450" width="450pt" xmlns="http://www.w3.org/2000/svg"><g fill="#d4e1f4"><path d="m287.398438 41.601562h-55.5v29.898438l12.5.101562h81.601562c-4.429688-17.691406-20.363281-30.074218-38.601562-30zm0 0"/><path d="m10 81.601562v318.398438c-.007812 22.09375 17.90625 40.007812 40 40h1.300781c-.84375-3.265625-1.28125-6.625-1.300781-10v-318.398438c-.007812-22.09375 17.90625-40.007812 40-40l14-.101562v-29.898438h-54c-22.09375-.007812-40.007812 17.90625-40 40zm0 0"/><path d="m104 10v61.398438h30v-41.398438h99.398438v-20zm0 0"/></g><path d="m168.699219 184.300781c20.269531 0 36.699219-16.433593 36.699219-36.699219 0-20.269531-16.429688-36.703124-36.699219-36.703124s-36.699219 16.433593-36.699219 36.703124c.011719 20.261719 16.4375 36.683594 36.699219 36.699219zm0-53.300781c9.222656 0 16.699219 7.476562 16.699219 16.699219 0 9.222656-7.476563 16.699219-16.699219 16.699219-9.222657 0-16.699219-7.476563-16.699219-16.699219.015625-9.214844 7.484375-16.683594 16.699219-16.699219zm0 0" fill="#1ae5be"/><path d="m168.699219 191c-27.609375.011719-49.988281 22.390625-50 50v8c0 5.523438 4.476562 10 10 10 5.523437 0 10-4.476562 10-10v-8c0-16.570312 13.433593-30 30-30 16.570312 0 30 13.429688 30 30v8c0 5.523438 4.476562 10 10 10 5.523437 0 10-4.476562 10-10v-8c-.007813-27.609375-22.390625-49.988281-50-50zm0 0" fill="#1ae5be"/><path d="m287.398438 31.601562h-44v-21.601562c-.015626-5.515625-4.480469-9.984375-10-10h-129.398438c-5.515625.015625-9.984375 4.484375-10 10v21.601562h-44c-27.609375.007813-49.9882812 22.386719-50 50v318.398438c.0117188 27.609375 22.390625 49.988281 50 50h237.398438c27.613281-.011719 49.992187-22.390625 50-50v-318.398438c-.007813-27.613281-22.386719-49.992187-50-50zm-173.398438-11.601562h109.398438v41.398438h-109.398438zm203.398438 380c-.046876 16.546875-13.449219 29.953125-30 30h-237.398438c-16.546875-.046875-29.953125-13.453125-30-30v-318.398438c.046875-16.550781 13.453125-29.953124 30-30h44v19.898438c.015625 5.515625 4.484375 9.984375 10 10h129.398438c5.519531-.015625 9.984374-4.484375 10-10v-19.898438h44c16.550781.046876 29.953124 13.449219 30 30zm0 0" fill="#0635c9"/><path d="m253.601562 285.898438h-169.800781c-5.523437 0-10 4.480468-10 10 0 5.523437 4.476563 10 10 10h169.699219c5.523438.027343 10.023438-4.425782 10.050781-9.949219.027344-5.523438-4.429687-10.023438-9.949219-10.050781zm0 0" fill="#0635c9"/><path d="m253.601562 345.300781h-169.800781c-5.523437 0-10 4.476563-10 10 0 5.523438 4.476563 10 10 10h169.699219c5.523438.027344 10.023438-4.429687 10.050781-9.949219.027344-5.523437-4.429687-10.023437-9.949219-10.050781zm0 0" fill="#0635c9"/></svg>