<svg height="406pt" viewBox="0 0 406.94145 406" width="406pt" xmlns="http://www.w3.org/2000/svg"><path d="m78.28125 253.773438 196.300781-196.292969 19.171875 19.171875 46.199219-46.199219-14.144531-14.136719c-7.8125-7.8125-20.476563-7.8125-28.285156 0l-60.34375 60.335938-19.167969-19.171875-196.296875 196.292969c-15.621094 15.621093-15.621094 40.949218 0 56.570312l75.351562 75.347656c15.621094 15.621094 40.949219 15.621094 56.570313 0l-75.351563-75.347656c-15.621094-15.621094-15.621094-40.949219 0-56.570312zm0 0" fill="#d4e1f4"/><g fill="#1ae5be"><path d="m209.171875 340.15625c-2.652344.003906-5.199219-1.050781-7.070313-2.925781l-131.921874-131.921875c-3.90625-3.90625-3.90625-10.238282 0-14.140625 3.90625-3.90625 10.238281-3.90625 14.144531 0l131.917969 131.917969c2.863281 2.859374 3.71875 7.164062 2.167968 10.898437-1.546875 3.738281-5.195312 6.171875-9.238281 6.171875zm0 0"/><path d="m301.757812 84.832031c-4.042968.003907-7.691406-2.433593-9.238281-6.171875-1.546875-3.738281-.691406-8.039062 2.167969-10.898437l11.746094-11.746094c3.90625-3.90625 10.238281-3.90625 14.144531 0s3.910156 10.238281.003906 14.144531l-11.75 11.746094c-1.871093 1.878906-4.417969 2.933594-7.074219 2.925781zm0 0"/><path d="m332.574219 115.648438c-4.042969 0-7.691407-2.433594-9.238281-6.171876-1.546876-3.738281-.691407-8.039062 2.167968-10.898437l11.746094-11.746094c3.902344-3.902343 10.234375-3.902343 14.140625 0 3.90625 3.90625 3.90625 10.238281 0 14.144531l-11.746094 11.746094c-1.871093 1.878906-4.417969 2.929688-7.070312 2.925782zm0 0"/></g><path d="m398.164062 74.535156-65.285156-65.292968c-11.722656-11.695313-30.699218-11.695313-42.425781 0l-53.273437 53.269531-12.097657-12.101563c-3.90625-3.90625-10.238281-3.90625-14.144531 0l-196.292969 196.292969c-19.527343 19.527344-19.527343 51.183594 0 70.710937l75.351563 75.351563c19.523437 19.527344 51.183594 19.527344 70.710937 0l196.296875-196.296875c3.90625-3.90625 3.90625-10.234375 0-14.140625l-12.097656-12.101563 53.265625-53.265624c11.695313-11.726563 11.691406-30.707032-.007813-42.425782zm-251.597656 304.089844c-11.726562 11.695312-30.703125 11.695312-42.425781 0l-75.351563-75.351562c-11.699218-11.722657-11.699218-30.703126 0-42.425782l189.222657-189.226562 12.097656 12.101562 93.558594 93.554688.007812.011718.011719.007813 12.09375 12.101563zm237.457032-275.808594-53.269532 53.265625-79.425781-79.429687 53.265625-53.265625c3.90625-3.898438 10.234375-3.898438 14.140625 0l65.289063 65.285156c1.886718 1.863281 2.953124 4.398437 2.96875 7.050781.011718 2.652344-1.027344 5.199219-2.894532 7.078125-.015625.015625-.03125.03125-.074218.015625zm0 0" fill="#0635c9"/></svg>