<svg height="400pt" viewBox="0 -15 400 400" width="400pt" xmlns="http://www.w3.org/2000/svg"><g fill="#d4e1f4"><path d="m64.699219 53.734375h-20.097657c-19.109374 0-34.597656 15.488281-34.601562 34.59375v236.773437c0 19.109376 15.492188 34.601563 34.601562 34.601563h5.398438v-231.375c-.007812-11.265625 5.480469-21.828125 14.699219-28.300781zm0 0"/><path d="m125.246094 53.734375h149.507812v40h-149.507812zm0 0"/><path d="m355.398438 53.734375h-20.097657v40h54.699219v-5.398437c0-19.109376-15.492188-34.601563-34.601562-34.601563zm0 0"/></g><path d="m125.246094 64.230469h149.507812c5.519532 0 10-4.480469 10-10 0-5.523438-4.480468-10-10-10h-149.5c-5.523437 0-10 4.476562-10 10 0 5.519531 4.476563 10 10 10zm0 0" fill="#0635c9"/><path d="m355.398438 44.230469h-19.398438v20h19.398438c13.566406 0 24.601562 10.539062 24.601562 24.097656v42.902344h-360v-42.902344c0-13.558594 11.035156-24.097656 24.601562-24.097656h20.398438v-20h-20.398438c-24.429687-.207031-44.394531 19.429687-44.601562 43.855469v.242187 236.773437c.0664062 24.4375 19.929688 44.191407 44.367188 44.128907h311.03125c24.4375.191406 44.40625-19.457031 44.601562-43.894531 0-.078126 0-.15625 0-.234376v-236.773437c-.070312-24.425781-19.929688-44.167969-44.355469-44.097656zm0 305h-310.796876c-13.566406 0-24.601562-10.566407-24.601562-24.128907v-173.871093h360v173.871093c0 13.5625-11.035156 24.128907-24.601562 24.128907zm0 0" fill="#0635c9"/><path d="m125.246094 107.46875h-60.546875c-5.523438 0-10-4.480469-10-10v-70.167969c.019531-15.070312 12.230469-27.285156 27.300781-27.300781h25.949219c15.070312.015625 27.28125 12.230469 27.300781 27.300781v70.167969c0 5.519531-4.476562 10-10 10zm-50.546875-20h40.546875v-60.167969c-.003906-4.03125-3.269532-7.296875-7.296875-7.300781h-25.949219c-4.03125.003906-7.296875 3.269531-7.300781 7.300781zm0 0" fill="#1ae5be"/><path d="m335.300781 107.46875h-60.546875c-5.523437 0-10-4.480469-10-10v-70.167969c.015625-15.070312 12.226563-27.285156 27.296875-27.300781h25.949219c15.070312.015625 27.28125 12.230469 27.300781 27.300781v70.167969c0 5.519531-4.476562 10-10 10zm-50.550781-20h40.550781v-60.167969c-.003906-4.03125-3.269531-7.296875-7.300781-7.300781h-25.949219c-4.027343.003906-7.292969 3.269531-7.296875 7.300781zm0 0" fill="#1ae5be"/></svg>