<svg height="399pt" viewBox="-8 0 399 399.81189" width="399pt" xmlns="http://www.w3.org/2000/svg"><path d="m84.332031 359.8125c-18.734375 0-33.925781-15.191406-33.925781-33.929688v-269.4375c.003906-1.3125.082031-2.625.234375-3.929687h-6.300781c-18.738282 0-33.929688 15.191406-33.929688 33.929687v269.4375c0 18.738282 15.1875 33.925782 33.921875 33.929688h295.382813c17.214844-.003906 31.699218-12.898438 33.695312-30zm0 0" fill="#d4e1f4"/><path d="m339.714844 399.8125h-295.382813c-24.246093-.027344-43.898437-19.679688-43.925781-43.929688v-269.4375c.023438-24.25 19.675781-43.90625 43.925781-43.933593h21.570313v20h-21.570313c-13.207031.015625-23.910156 10.71875-23.925781 23.929687v269.441406c.015625 13.210938 10.71875 23.914063 23.925781 23.929688h295.382813c13.210937-.015625 23.914062-10.71875 23.929687-23.929688v-269.4375c-.015625-13.210937-10.71875-23.917968-23.929687-23.933593h-21.8125v-20h21.8125c24.25.027343 43.902344 19.679687 43.929687 43.929687v269.441406c-.027343 24.25-19.679687 43.902344-43.929687 43.929688zm0 0" fill="#0635c9"/><path d="m117.421875 42.515625h149.207031v20h-149.207031zm0 0" fill="#0635c9"/><path d="m91.660156 92.394531c-19.742187-.019531-35.738281-16.019531-35.761718-35.757812v-21.0625c.105468-19.679688 16.085937-35.574219 35.761718-35.574219 19.675782 0 35.65625 15.894531 35.761719 35.574219v21.0625c-.019531 19.738281-16.019531 35.738281-35.761719 35.757812zm0-72.582031c-8.699218.007812-15.75 7.058594-15.761718 15.761719v21.0625c.070312 8.652343 7.105468 15.632812 15.761718 15.632812s15.691406-6.980469 15.761719-15.632812v-21.0625c-.007813-8.703125-7.058594-15.753907-15.761719-15.761719zm0 0" fill="#1ae5be"/><path d="m292.386719 92.394531c-19.742188-.019531-35.742188-16.019531-35.765625-35.757812v-21.0625c.105468-19.679688 16.085937-35.574219 35.761718-35.574219 19.679688 0 35.660157 15.894531 35.761719 35.574219v21.0625c-.019531 19.738281-16.019531 35.738281-35.757812 35.757812zm0-72.582031c-8.703125.007812-15.753907 7.058594-15.765625 15.761719v21.0625c.070312 8.652343 7.105468 15.632812 15.761718 15.632812s15.695313-6.980469 15.761719-15.632812v-21.0625c-.007812-8.703125-7.058593-15.75-15.757812-15.761719zm0 0" fill="#1ae5be"/><path d="m374.164062 161.285156h-363.757812c-5.523438 0-10-4.476562-10-10 0-5.523437 4.476562-10 10-10h363.757812c5.523438 0 10 4.476563 10 10 0 5.523438-4.476562 10-10 10zm0 0" fill="#0635c9"/><path d="m176.125 312.652344c-2.609375.003906-5.117188-1.015625-6.984375-2.839844l-40.320313-39.363281c-2.65625-2.457031-3.78125-6.152344-2.941406-9.671875.839844-3.515625 3.515625-6.308594 6.992188-7.296875 3.480468-.988281 7.222656-.019531 9.785156 2.53125l.136719.132812 33.332031 32.542969 65.652344-64.101562c3.9375-3.875 10.269531-3.820313 14.144531.113281 3.871094 3.9375 3.820313 10.269531-.117187 14.144531l-.054688.054688-72.640625 70.914062c-1.867187 1.824219-4.375 2.84375-6.984375 2.839844zm0 0" fill="#1ae5be"/></svg>