<svg height="410pt" viewBox="-27 0 410 410" width="410pt" xmlns="http://www.w3.org/2000/svg"><path d="m50.136719 320v-310c-22.09375 0-40 17.910156-40 40v310c0 22.089844 17.90625 40 40 40h255.726562c22.09375 0 40-17.910156 40-40h-255.726562c-22.09375 0-40-17.910156-40-40zm0 0" fill="#d4e1f4"/><path d="m356 50c0-27.613281-22.386719-50-50-50h-256c-27.613281 0-50 22.386719-50 50v310c0 27.613281 22.386719 50 50 50h256c27.613281 0 50-22.386719 50-50zm-336 310v-310c.082031-16.585938 13.546875-29.992188 30.136719-30h21.863281v370h-21.863281c-16.589844-.007812-30.054688-13.414062-30.136719-30zm316 0c-.082031 16.585938-13.546875 29.992188-30.136719 30h-213.863281v-370h213.863281c16.589844.007812 30.054688 13.414062 30.136719 30zm0 0" fill="#0635c9"/><g fill="#1ae5be"><path d="m272.328125 219.265625h-123.527344c-15.480469-.019531-28.027343-12.5625-28.042969-28.042969v-76.585937c.015626-15.480469 12.5625-28.023438 28.042969-28.042969h123.527344c15.480469.019531 28.023437 12.5625 28.042969 28.042969v76.585937c-.019532 15.480469-12.5625 28.023438-28.042969 28.042969zm-123.527344-112.671875c-4.441406.003906-8.039062 3.601562-8.042969 8.042969v76.585937c.003907 4.441406 3.601563 8.039063 8.042969 8.042969h123.527344c4.441406-.003906 8.039063-3.601563 8.042969-8.042969v-76.585937c-.003906-4.441407-3.601563-8.039063-8.042969-8.042969zm0 0"/><path d="m290.371094 282.414062h-159.613282c-5.523437 0-10-4.476562-10-10 0-5.523437 4.476563-10 10-10h159.613282c5.523437 0 10 4.476563 10 10 0 5.523438-4.476563 10-10 10zm0 0"/></g></svg>