<svg height="399pt" viewBox="-39 0 399 399.997" width="399pt" xmlns="http://www.w3.org/2000/svg"><path d="m164.445312 291.203125c-2.652343.003906-5.199218-1.050781-7.070312-2.929687l-44.511719-44.507813c-3.90625-3.90625-3.90625-10.238281 0-14.144531s10.238281-3.90625 14.144531 0l44.507813 44.511718c2.859375 2.859376 3.714844 7.160157 2.167969 10.894532-1.546875 3.738281-5.195313 6.175781-9.238282 6.175781zm0 0" fill="#0635c9"/><path d="m305.683594 359.996094h-230.371094c-19.152344 0-34.675781-15.523438-34.675781-34.675782v-310.644531c.003906-1.46875.097656-2.9375.285156-4.394531-17.3125 2.210938-30.285156 16.941406-30.285156 34.394531v310.644531c0 19.152344 15.523437 34.675782 34.671875 34.675782h230.375c17.453125-.003906 32.183594-12.972656 34.390625-30.285156-1.453125.1875-2.921875.28125-4.390625.285156zm0 0" fill="#d4e1f4"/><path d="m320.375 91.207031s-.035156-.007812-.035156-.011719c-.039063-.335937-.097656-.671874-.175782-1.003906 0-.007812-.007812-.011718-.011718-.015625-.070313-.328125-.15625-.652343-.261719-.96875-.007813-.03125-.023437-.0625-.035156-.101562-.09375-.285157-.199219-.566407-.320313-.839844-.027344-.070313-.066406-.136719-.097656-.199219-.109375-.230468-.21875-.460937-.34375-.683594-.054688-.101562-.113281-.191406-.171875-.285156-.113281-.1875-.226563-.371094-.351563-.550781-.074218-.109375-.160156-.214844-.238281-.320313-.121093-.160156-.238281-.316406-.367187-.464843-.09375-.109375-.191406-.210938-.289063-.316407-.128906-.140624-.261719-.277343-.398437-.410156-.042969-.042968-.082032-.089844-.128906-.128906l-88.898438-82.25c-.070312-.066406-.148438-.121094-.222656-.1875-.117188-.097656-.234375-.199219-.355469-.296875-.125-.101563-.253906-.191406-.378906-.285156-.128907-.089844-.265625-.1875-.402344-.277344-.136719-.085937-.25-.152344-.375-.226563-.148437-.089843-.300781-.175781-.453125-.253906-.121094-.0625-.242188-.121094-.367188-.179687-.164062-.078125-.328124-.152344-.5-.222657-.117187-.046874-.242187-.089843-.363281-.132812-.175781-.0625-.351562-.125-.53125-.179688-.132812-.039062-.261719-.066406-.394531-.101562-.175781-.042969-.347656-.089844-.527344-.125-.175781-.03125-.335937-.050781-.5-.074219-.148437-.0234372-.292968-.050781-.441406-.0624998-.324219-.03125-.648438-.0507812-.976562-.0507812h-176.148438c-24.6875.015625-44.71875 19.984375-44.8125 44.675781v310.644531c.089844 24.6875 20.121094 44.660157 44.8125 44.675782h230.371094c24.691406-.015625 44.722656-19.988282 44.816406-44.675782v-263.074218c-.023438-.347656-.066406-.695313-.125-1.039063zm-88.875-58.335937 53.328125 49.125h-53.328125zm44.183594 347.125h-230.371094c-13.648438-.003906-24.734375-11.027344-24.8125-24.675782v-310.644531c.078125-13.652343 11.164062-24.675781 24.8125-24.679687h166.1875v72.25c.003906 5.386718 4.375 9.753906 9.761719 9.75h79.238281v253.324218c-.082031 13.648438-11.164062 24.671876-24.816406 24.675782zm0 0" fill="#0635c9"/><path d="m123.421875 332.226562c-4.046875 0-7.691406-2.4375-9.238281-6.175781-1.550782-3.734375-.695313-8.035156 2.167968-10.898437l111.253907-111.253906c3.480469-3.480469 3.480469-9.117188 0-12.597657l-18.40625-18.414062c-3.480469-3.472657-9.121094-3.472657-12.601563 0l-111.257812 111.257812c-3.902344 3.90625-10.234375 3.90625-14.140625 0-3.90625-3.902343-3.90625-10.234375 0-14.140625l111.257812-111.257812c11.296875-11.269532 29.585938-11.269532 40.882813 0l18.410156 18.410156c11.289062 11.289062 11.289062 29.59375 0 40.882812l-111.257812 111.257813c-1.875 1.878906-4.417969 2.933594-7.070313 2.929687zm0 0" fill="#1ae5be"/><g fill="#0635c9"><path d="m132.628906 341.433594c-2.652344 0-5.199218-1.050782-7.074218-2.929688l-63.5625-63.566406c-3.90625-3.902344-3.90625-10.234375 0-14.140625s10.238281-3.90625 14.144531 0l63.5625 63.5625c2.859375 2.859375 3.714843 7.160156 2.167969 10.898437-1.546876 3.738282-5.195313 6.175782-9.238282 6.175782zm0 0"/><path d="m75.589844 334.90625c-4.046875 0-7.691406-2.4375-9.238282-6.171875-1.550781-3.738281-.695312-8.039063 2.164063-10.898437l25.257813-25.257813c3.90625-3.90625 10.238281-3.90625 14.144531 0s3.90625 10.238281 0 14.144531l-25.257813 25.253906c-1.875 1.878907-4.417968 2.933594-7.070312 2.929688zm0 0"/><path d="m90.679688 349.996094c-2.65625.003906-5.199219-1.050782-7.074219-2.929688l-30.179688-30.175781c-3.902343-3.90625-3.902343-10.238281 0-14.144531 3.90625-3.90625 10.238281-3.90625 14.144531 0l30.179688 30.179687c2.859375 2.859375 3.714844 7.160157 2.167969 10.898438-1.546875 3.734375-5.195313 6.171875-9.238281 6.171875zm0 0"/></g><path d="m226.269531 184.226562c-4.042969 0-7.691406-2.4375-9.238281-6.171874-1.550781-3.738282-.695312-8.039063 2.167969-10.898438l34.226562-34.230469c3.910157-3.875 10.21875-3.863281 14.113281.03125 3.894532 3.894531 3.90625 10.199219.03125 14.109375l-34.230468 34.230469c-1.871094 1.878906-4.417969 2.933594-7.070313 2.929687zm0 0" fill="#1ae5be"/></svg>