<svg height="465pt" viewBox="-22 0 465 465.6" width="465pt" xmlns="http://www.w3.org/2000/svg"><g fill="#d4e1f4"><path d="m410.300781 111.101562v.199219h-61.300781c-22.09375.003907-40.007812-17.90625-40-40v-31.300781h4.101562v-26zm0 0"/><path d="m293.800781 182v.199219h-61.300781c-22.09375.007812-40.007812-17.90625-40-40v-21.097657h.199219v-40zm0 0"/><path d="m313.101562 14.101562v25.898438h-4.101562v-29.800781h.300781zm0 0"/><path d="m313.101562 10.199219v3.902343l-3.800781-3.902343h-.101562zm0 0"/><path d="m309 10.199219v29.800781h-102.199219c-22.09375-.007812-40.007812 17.90625-40 40h-40v-30c-.007812-22.09375 17.90625-40.007812 40-40zm0 0"/><path d="m192.601562 81.101562h.199219v40h-.199219zm0 0"/><path d="m126.800781 81 65.800781.101562v40l-11.902343-.203124h-90.398438c-22.09375-.003907-40.007812 17.90625-40 40v294.703124c-22.09375.003907-40.007812-17.90625-40-40v-294.703124c-.007812-22.09375 17.90625-40.003907 40-40zm0 0"/></g><path d="m316.300781 3.199219-.199219-.199219c-1.875-1.902344-4.429687-2.984375-7.101562-3h-142.199219c-27.609375.0117188-49.992187 22.390625-50 50v20.898438h-66.5c-27.609375.011718-49.992187 22.390624-50 50v294.703124c.007813 27.609376 22.390625 49.988282 50 50h203.5c27.609375-.011718 49.988281-22.390624 50-50v-20.902343h66.5c27.609375-.007813 49.988281-22.390625 50-50v-233.597657c-.019531-2.652343-1.058593-5.195312-2.902343-7.101562zm2.699219 30.902343 67.300781 67.199219h-37.300781c-16.546875-.050781-29.953125-13.453125-30-30zm-65.199219 411.5h-203.5c-16.550781-.050781-29.953125-13.453124-30-30v-294.703124c.046875-16.546876 13.449219-29.949219 30-30h132.300781v51.300781c.007813 27.609375 22.386719 49.992187 50 50h51.296876v223.402343c-.09375 16.566407-13.53125 29.957032-30.097657 30zm16.097657-273.402343h-37.296876c-16.550781-.046875-29.953124-13.449219-30-30v-37.199219zm100.402343 202.5h-66.5v-192.699219c-.019531-2.652344-1.058593-5.191406-2.902343-7.101562l-101-100.898438-.097657-.101562c-1.886719-1.945313-4.492187-3.027344-7.199219-3h-55.800781v-20.898438c.046875-16.546875 13.449219-29.953125 30-30h132.300781v51.300781c.007813 27.609375 22.386719 49.988281 50 50h51.199219v223.398438c-.050781 16.550781-13.453125 29.953125-30 30zm0 0" fill="#0635c9"/><path d="m80.898438 252.898438h81.300781c5.523437 0 10-4.476563 10-10 0-5.519532-4.476563-10-10-10h-81.300781c-5.519532 0-10 4.480468-10 10 0 5.523437 4.480468 10 10 10zm0 0" fill="#1ae5be"/><path d="m243.199219 303.800781h-162.300781c-5.519532 0-10 4.476563-10 10 0 5.523438 4.480468 10 10 10h162.300781c5.523437 0 10-4.476562 10-10 0-5.523437-4.476563-10-10-10zm0 0" fill="#1ae5be"/><path d="m243.199219 374.699219h-162.300781c-5.519532 0-10 4.476562-10 10 0 5.523437 4.480468 10 10 10h162.300781c5.523437 0 10-4.476563 10-10 0-5.523438-4.476563-10-10-10zm0 0" fill="#1ae5be"/><path d="m359.699219 232.898438h-30.5c-5.523438 0-10 4.480468-10 10 0 5.523437 4.476562 10 10 10h30.5c5.523437 0 10-4.476563 10-10 0-5.519532-4.476563-10-10-10zm0 0" fill="#1ae5be"/><path d="m359.699219 303.800781h-30.5c-5.523438 0-10 4.476563-10 10 0 5.523438 4.476562 10 10 10h30.5c5.523437 0 10-4.476562 10-10 0-5.523437-4.476563-10-10-10zm0 0" fill="#1ae5be"/></svg>