<svg height="420pt" viewBox="0 -30 420 420" width="420pt" xmlns="http://www.w3.org/2000/svg"><path d="m410 174.101562c-5.515625.015626-9.984375 4.480469-10 10v126.199219c-.046875 16.546875-13.453125 29.949219-30 30h-320c-16.546875-.050781-29.953125-13.453125-30-30v-126.199219c0-5.523437-4.476562-10-10-10s-10 4.476563-10 10v126.199219c.0117188 27.609375 22.390625 49.988281 50 50h320c27.609375-.011719 49.988281-22.390625 50-50v-126.199219c-.015625-5.519531-4.484375-9.984374-10-10zm0 0" fill="#0635c9"/><path d="m264.101562 216-47.101562 40.398438v-246.398438c0-5.523438-4.476562-10-10-10s-10 4.476562-10 10v246.398438l-47.199219-40.398438c-4.199219-3.589844-10.511719-3.097656-14.101562 1.101562-3.589844 4.195313-3.097657 10.507813 1.101562 14.097657l63.597657 54.5c.058593 0 .101562.046875.101562.101562l.300781.300781c.097657.097657.300781.199219.398438.296876.097656.125.242187.199218.402343.203124.097657.097657.296876.199219.398438.296876.101562.101562.300781.101562.398438.203124.101562.097657.300781.097657.5.199219.101562.097657.300781.097657.402343.199219.199219.101562.300781.101562.5.199219.097657 0 .300781.101562.398438.101562.199219 0 .300781.097657.5.097657.101562 0 .300781.101562.402343.101562.199219 0 .398438.101562.597657.101562h2.601562c.199219 0 .398438-.101562.597657-.101562.101562 0 .300781-.101562.402343-.101562.199219 0 .300781-.097657.5-.097657.097657 0 .300781-.101562.398438-.101562.199219-.097657.300781-.097657.5-.199219.101562-.101562.300781-.101562.402343-.199219.199219-.101562.296876-.101562.5-.199219.097657-.101562.296876-.101562.398438-.203124.101562-.097657.300781-.199219.398438-.296876.101562-.101562.203124-.101562.402343-.203124.097657-.097657.300781-.199219.398438-.296876l.300781-.300781c.054688 0 .101562-.046875.101562-.101562l63.597657-54.5c2.019531-1.722657 3.269531-4.175781 3.476562-6.820313.207031-2.644531-.648437-5.265625-2.375-7.277344-3.628906-4.203124-9.96875-4.691406-14.199219-1.101562zm0 0" fill="#1ae5be"/></svg>