<svg height="419pt" viewBox="-109 0 419 419.98498" width="419pt" xmlns="http://www.w3.org/2000/svg"><g fill="#d4e1f4"><path d="m105.007812 399.984375c-16.96875 0-31.367187-12.464844-33.792968-29.261719l-20.421875-141.390625h-31.445313l21.871094 151.390625c2.425781 16.796875 16.820312 29.261719 33.789062 29.261719h54.910157c9.054687.003906 17.738281-3.59375 24.132812-10zm0 0"/><path d="m40.492188 218.847656v-49.332031c.003906-1.292969.1875-2.578125.546874-3.816406h-16.730468c-7.628906 0-13.816406 6.183593-13.816406 13.816406v49.332031h180.832031v-10zm0 0"/><path d="m54.472656 153.832031c-.007812-27.125 14.375-52.222656 37.785156-65.933593-38.613281 4.398437-67.78125 37.074218-67.785156 75.933593h152.871094c-.007812-3.34375-.230469-6.683593-.671875-10zm0 0"/></g><path d="m104.636719 97.398438c-5.523438 0-10-4.476563-10-10v-38.09375c-.03125-17.65625 10.59375-33.585938 26.90625-40.339844l19.730469-8.210938c5.09375-2.097656 10.921874.320313 13.039062 5.402344 2.117188 5.085938-.277344 10.925781-5.355469 13.0625l-19.730469 8.210938c-8.84375 3.664062-14.605468 12.300781-14.589843 21.875v38.09375c0 5.523437-4.476563 10-10 10zm0 0" fill="#1ae5be"/><path d="m129.921875 419.984375h-54.914063c-21.902343-.097656-40.460937-16.164063-43.691406-37.832031l-21.867187-151.390625c-.789063-5.46875 3.003906-10.542969 8.472656-11.332031 5.464844-.789063 10.539063 3.003906 11.328125 8.472656l21.867188 151.394531c1.765624 11.847656 11.914062 20.632813 23.890624 20.6875h54.910157c12.183593-.015625 22.449219-9.089844 23.960937-21.175781l18.664063-150.707032c.613281-5.488281 5.5625-9.4375 11.050781-8.824218 5.488281.613281 9.441406 5.5625 8.824219 11.050781-.007813.078125-.019531.15625-.027344.230469l-18.660156 150.707031c-2.761719 22.101563-21.535157 38.691406-43.808594 38.71875zm0 0" fill="#0635c9"/><path d="m177.34375 173.832031c-5.523438 0-10-4.476562-10-10 0-36.6875-29.746094-66.433593-66.433594-66.433593-36.691406 0-66.4375 29.746093-66.4375 66.433593 0 5.523438-4.476562 10-10 10-5.523437 0-10-4.476562-10-10 0-47.734375 38.699219-86.433593 86.4375-86.433593 47.734375 0 86.433594 38.699218 86.433594 86.433593 0 5.523438-4.476562 10-10 10zm0 0" fill="#0635c9"/><path d="m191.324219 238.847656h-180.832031c-5.523438 0-10-4.476562-10-10v-49.332031c.015624-13.148437 10.667968-23.804687 23.816406-23.816406h153.199218c13.148438.011719 23.800782 10.667969 23.816407 23.816406v49.332031c0 5.523438-4.476563 10-10 10zm-170.832031-20h160.832031v-39.332031c-.003907-2.109375-1.710938-3.8125-3.816407-3.816406h-153.199218c-2.105469.003906-3.8125 1.707031-3.816406 3.816406zm0 0" fill="#1ae5be"/></svg>