<svg height="439pt" viewBox="-9 0 439 439.10403" width="439pt" xmlns="http://www.w3.org/2000/svg"><g fill="#d4e1f4"><path d="m317.652344 117.902344v.203125h-68.199219c-22.09375.003906-40.007813-17.90625-40-40v-30.300781h1.097656v-36.699219zm0 0"/><path d="m369.152344 190.304688 13.699218 15.597656-124.5 109-8.097656 38.300781-22.402344 1.300781 10.5-49.601562zm0 0"/><path d="m250.253906 353.203125-22.402344 1.300781zm0 0"/><path d="m210.550781 11.105469v36.699219h-1.097656v-37.601563h.199219zm0 0"/><path d="m209.453125 10.203125v37.601563l-31-.199219h-90.402344c-22.09375-.007813-40.003906 17.90625-40 40v341.398437c-21.285156-1.023437-38.015625-18.585937-38-39.898437v-339c-.003906-22.09375 17.90625-40.007813 40-40h157.402344zm0 0"/><path d="m48.050781 7.605469 162.5.199219v3.300781l-.898437-.902344h-.199219l-2-.199219h-157.402344c-22.09375-.007812-40.003906 17.90625-40 40v339c-.015625 21.3125 16.714844 38.878906 38 39.898438v1.300781c-22.09375.007813-40.003906-17.90625-40-40v-342.597656c-.003906-22.09375 17.90625-40.007813 40-40zm0 0"/></g><path d="m317.652344 361.105469c-5.515625.015625-9.984375 4.480469-10 10v17.898437c-.046875 16.546875-13.453125 29.953125-30 30h-229.101563c-15.996093-.765625-28.554687-13.984375-28.5-30v-339c.050781-16.546875 13.453125-29.953125 30-30h149.402344v58.199219c.007813 27.609375 22.390625 49.992187 50 50h58.199219v53c0 5.523437 4.476562 10 10 10 5.523437 0 10-4.476563 10-10v-63.199219c-.019532-2.652344-1.058594-5.191406-2.898438-7.101562l-107.101562-106.898438-1-1c-1.886719-1.945312-4.492188-3.0312498-7.199219-2.99999975-.335937-.01562505-.675781.01562495-1 .10156275h-158.402344c-27.609375.007812-49.988281 22.386719-49.9999998 50v339c-.0234374 26.644531 20.8867188 48.609375 47.4999998 49.898437.800781 0 1.601563.101563 2.5.101563h227.601563c27.609375-.011719 49.988281-22.390625 50-50v-17.902344c.03125-2.667969-1.011719-5.242187-2.890625-7.136719-1.878907-1.898437-4.4375-2.964844-7.109375-2.960937zm-98.199219-282.902344v-44.097656l74.199219 74.097656h-44.199219c-16.550781-.046875-29.953125-13.449219-30-30zm0 0" fill="#0635c9"/><path d="m390.351562 199.304688-13.597656-15.601563c-1.738281-2.011719-4.210937-3.242187-6.863281-3.410156-2.652344-.171875-5.261719.734375-7.238281 2.511719l-130.898438 114.597656c-1.660156 1.421875-2.789062 3.359375-3.203125 5.5l-10.5 49.5c-.59375 3.054687.214844 6.210937 2.203125 8.601562 1.90625 2.210938 4.679688 3.484375 7.597656 3.5h.601563l51.300781-2.898437c2.226563-.125 4.34375-1.007813 6-2.5l130.898438-114.601563c2.011718-1.734375 3.242187-4.207031 3.414062-6.859375.167969-2.652343-.738281-5.261719-2.515625-7.242187zm-115.199218 142.5-34.898438 2 7.097656-33.601563 120.800782-105.800781 27.699218 31.601562zm0 0" fill="#0635c9"/><path d="m75.152344 173.105469h84c5.523437 0 10-4.480469 10-10 0-5.523438-4.476563-10-10-10h-84c-5.523438 0-10 4.476562-10 10 0 5.519531 4.476562 10 10 10zm0 0" fill="#1ae5be"/><path d="m253.152344 218.902344h-178c-5.523438 0-10 4.480468-10 10 0 5.523437 4.476562 10 10 10h178c5.523437 0 10-4.476563 10-10 0-5.519532-4.476563-10-10-10zm0 0" fill="#1ae5be"/><path d="m196.753906 284.703125h-121.601562c-5.523438 0-10 4.476563-10 10s4.476562 10 10 10h121.601562c5.519532 0 10-4.476563 10-10s-4.480468-10-10-10zm0 0" fill="#1ae5be"/><path d="m196.753906 350.503906h-121.601562c-5.523438 0-10 4.476563-10 10 0 5.523438 4.476562 10 10 10h121.601562c5.519532 0 10-4.476562 10-10 0-5.523437-4.480468-10-10-10zm0 0" fill="#1ae5be"/></svg>