<svg height="400pt" viewBox="-8 0 400 400.1" width="400pt" xmlns="http://www.w3.org/2000/svg"><path d="m205.351562 10.199219-2.101562-.199219h-172.898438c-16.703124 0-30.3007808 13.601562-30.3007808 30.300781v319.5c0 16.699219 13.5976568 30.300781 30.3007808 30.300781h9.699219v-299.800781c0-16.699219 13.597657-30.300781 30.300781-30.300781h172.796876v-50h-40" fill="#d4e1f4"/><g fill="#0635c9"><path d="m294.523438 180.023438 15.046874-13.171876 43.933594 50.183594-15.046875 13.175782zm0 0"/><path d="m324.949219 232.199219c-5.5 0-10 4.5-10 10v117.5c.101562 11.101562-8.898438 20.199219-20.097657 20.300781h-227c-11 0-19.902343-9-19.902343-20 0-.101562 0-.199219 0-.199219v-319.5c-.199219-11 8.601562-20.101562 19.601562-20.300781h165.398438v72.5c0 5.5 4.101562 10.5 9.601562 10.5h72.398438v51.398438c0 5.5 4.5 10 10 10s10-4.5 10-10v-62.097657c0-2.601562-1-5.199219-2.898438-7.101562l-82.300781-82.097657s-.101562-.101562-.101562-.101562c-1.898438-1.898438-4.5-3-7.199219-3-.300781 0-.597657 0-1 0-.300781 0-.597657 0-1 0h-172.597657c-22.101562.101562-40 18-39.902343 40.101562v.199219 319.5c-.199219 22.097657 17.601562 40.097657 39.699219 40.300781h227.203124c22.199219 0 40.199219-18.101562 40.097657-40.300781v-117.601562c0-5.5-4.5-10-10-10zm-72-198.097657 48.199219 48.898438h-48.199219zm0 0"/><path d="m95.648438 141h80.101562c5.5 0 10-4.5 10-10s-4.5-10-10-10h-80.101562c-5.5 0-10 4.5-10 10s4.5 10 10 10zm0 0"/><path d="m95.648438 206h126.5c5.5 0 10-4.5 10-10s-4.5-10-10-10h-126.5c-5.5 0-10 4.5-10 10s4.5 10 10 10zm0 0"/></g><path d="m187.050781 328.300781c-5.5 0-10-4.5-10-10 0-.699219.097657-1.402343.199219-2.101562l11.300781-53.398438c.398438-2.101562 1.597657-4 3.199219-5.402343l121.199219-106.5c17.300781-15.199219 43.699219-13.5 58.902343 3.800781l.097657.101562 2.199219 2.5c15.101562 17.300781 13.402343 43.597657-3.796876 58.800781l-63.902343 56.296876-57.5 50.300781c-1.699219 1.5-3.800781 2.300781-6 2.5l-55.199219 3.199219c-.300781-.097657-.5-.097657-.699219-.097657zm20.398438-58-7.898438 37.300781 38.699219-2.203124 56.101562-49.097657 62.597657-55.300781c9-7.898438 9.902343-21.601562 2-30.601562l-2.199219-2.5c-7.898438-9-21.699219-10-30.699219-2zm0 0" fill="#1ae5be"/></svg>