<svg height="439pt" viewBox="-9 0 439 439" width="439pt" xmlns="http://www.w3.org/2000/svg"><g fill="#d4e1f4"><path d="m258.300781 322.898438 128.398438-112.5-17.597657-20.097657-130.800781 114.597657-10.5 49.601562 24.097657-1.398438zm0 0"/><path d="m126.5 19.601562 79.800781.097657v40l-25.902343-.199219h-90.398438c-22.09375-.007812-40.007812 17.90625-40 40v318.699219c-22.09375.007812-40.007812-17.90625-40-40v-318.699219c-.007812-22.09375 17.90625-40.007812 40-40zm0 0"/><path d="m317.601562 117.898438v.203124h-68.203124c-22.09375.003907-40.003907-17.90625-40-40v-68h.203124zm0 0"/></g><path d="m216.699219 3.101562c-1.671875-1.648437-3.863281-2.671874-6.199219-2.902343l-2.199219-.199219h-158.300781c-27.609375.0117188-49.9882812 22.390625-50 50v339c.0117188 27.609375 22.390625 49.988281 50 50h227.601562c27.609376-.011719 49.988282-22.390625 50-50v-17.898438h-20v17.898438c-.050781 16.546875-13.453124 29.953125-30 30h-227.601562c-16.546875-.046875-29.953125-13.453125-30-30v-339c.046875-16.546875 13.453125-29.953125 30-30h149.398438v58.199219c.011718 27.609375 22.390624 49.992187 50 50h58.203124v53h20v-63.199219c-.019531-2.652344-1.058593-5.191406-2.902343-7.101562zm2.699219 75.097657v-44.097657l74.203124 74.097657h-44.203124c-16.546876-.046875-29.949219-13.449219-30-30zm0 0" fill="#0635c9"/><path d="m376.699219 183.699219c-1.734375-2.011719-4.207031-3.242188-6.859375-3.410157-2.652344-.171874-5.261719.734376-7.238282 2.511719l-130.902343 114.597657c-1.65625 1.421874-2.785157 3.359374-3.199219 5.5l-10.5 49.5c-.597656 3.054687.210938 6.210937 2.199219 8.601562 1.910156 2.210938 4.679687 3.484375 7.601562 3.5h.597657l51.300781-2.898438c2.226562-.125 4.34375-1.007812 6-2.5l130.902343-114.601562c2.007813-1.753906 3.234376-4.238281 3.398438-6.898438.203125-2.644531-.703125-5.253906-2.5-7.203124zm-101.597657 158.101562-34.902343 2 7.101562-33.601562 120.800781-105.800781 27.699219 31.601562zm0 0" fill="#1ae5be"/></svg>