<svg height="470pt" viewBox="-11 0 470 470.00051" width="470pt" xmlns="http://www.w3.org/2000/svg"><path d="m90 79.101562h257.898438c.007812-22.09375-17.902344-40.007812-40-40h-257.898438c-22.09375-.007812-40.003906 17.90625-40 40v270.898438c-.003906 22.09375 17.90625 40.007812 40 40v-270.898438c-.003906-22.09375 17.90625-40.007812 40-40zm0 0" fill="#d4e1f4"/><path d="m267.601562 380c.019532-33.628906 16.929688-64.996094 45.011719-83.496094s63.582031-21.65625 94.488281-8.402344c-28.824218-27.847656-71.488281-35.796874-108.410156-20.203124-36.917968 15.597656-60.960937 51.726562-61.089844 91.804687-.128906 40.078125 23.679688 76.363281 60.5 92.195313-19.511718-18.828126-30.523437-44.785157-30.5-71.898438zm0 0" fill="#d4e1f4"/><g fill="#1ae5be"><path d="m246.5 209.101562h-155c-5.523438 0-10 4.476563-10 10 0 5.519532 4.476562 10 10 10h155c5.523438 0 10-4.480468 10-10 0-5.523437-4.476562-10-10-10zm0 0"/><path d="m184.300781 274.101562h-92.800781c-5.523438 0-10 4.476563-10 10 0 5.519532 4.476562 10 10 10h92.800781c5.523438 0 10-4.480468 10-10 0-5.523437-4.476562-10-10-10zm0 0"/><path d="m101 78.101562c5.515625-.015624 9.984375-4.484374 10-10v-58.101562c0-5.523438-4.476562-10-10-10s-10 4.476562-10 10v58.101562c.015625 5.515626 4.484375 9.984376 10 10zm0 0"/><path d="m257 0c-5.515625.015625-9.984375 4.484375-10 10v58.101562c0 5.519532 4.476562 10 10 10s10-4.480468 10-10v-58.101562c-.015625-5.515625-4.484375-9.984375-10-10zm0 0"/><path d="m383.898438 324.101562-59.398438 56.699219-30.699219-30.800781c-3.894531-3.894531-10.207031-3.894531-14.101562 0-3.890625 3.894531-3.890625 10.207031 0 14.101562l37.699219 37.699219c1.878906 1.886719 4.441406 2.933594 7.101562 2.898438 2.582031.023437 5.066406-.984375 6.898438-2.800781l66.402343-63.5c1.910157-1.828126 3.019531-4.339844 3.074219-6.984376.058594-2.648437-.941406-5.207031-2.773438-7.113281-3.898437-3.90625-10.195312-3.996093-14.203124-.199219zm0 0"/></g><path d="m357.898438 251.898438v-172.796876c-.007813-27.613281-22.386719-49.992187-50-50h-257.898438c-27.609375.007813-49.9882812 22.386719-50 50v270.898438c.0117188 27.609375 22.390625 49.988281 50 50h185.101562c19.242188 49.28125 70.839844 77.886719 122.832032 68.101562 51.992187-9.785156 89.660156-55.195312 89.667968-108.101562 0-53.699219-38.703124-98.5-89.703124-108.101562zm-307.898438-202.796876h257.898438c16.550781.046876 29.953124 13.449219 30 30v24.199219h-317.898438v-24.199219c.011719-16.566406 13.4375-29.988281 30-30zm0 330.898438c-16.546875-.046875-29.953125-13.453125-30-30v-226.800781h317.898438v126.800781h-.296876c-32.660156.050781-63.617187 14.585938-84.511718 39.691406-20.890625 25.101563-29.570313 58.183594-23.691406 90.308594zm287.601562 70c-49.707031 0-90-40.292969-90-90s40.292969-90 90-90c49.703126 0 90 40.292969 90 90-.078124 49.675781-40.328124 89.925781-90 90zm0 0" fill="#0635c9"/></svg>