<svg height="400pt" viewBox="0 -3 400 400" width="400pt" xmlns="http://www.w3.org/2000/svg"><path d="m50 304.5v-259.9375c-22.089844 0-40 17.910156-40 40v259.9375c0 22.089844 17.910156 40 40 40h300c22.089844 0 40-17.910156 40-40h-300c-22.089844 0-40-17.910156-40-40zm0 0" fill="#d4e1f4"/><path d="m350 34.25h-27v-24.25c0-5.523438-4.476562-10-10-10s-10 4.476562-10 10v24.25h-206v-24.25c0-5.523438-4.476562-10-10-10s-10 4.476562-10 10v24.25h-27c-27.570312 0-50 22.742188-50 50.3125v259.9375c.0507812 27.527344 22.410156 49.800781 49.9375 49.75h300.0625c27.527344.085938 49.914062-22.160156 50-49.6875v-260c0-27.570312-22.429688-50.3125-50-50.3125zm30 310.25c-.039062 16.46875-13.421875 29.789062-29.890625 29.75h-300.109375c-16.46875.097656-29.898438-13.171875-30-29.640625v-260.046875c0-16.542969 13.457031-30.3125 30-30.3125h27v35.09375c0 5.523438 4.476562 10 10 10s10-4.476562 10-10v-35.09375h206v35.09375c0 5.523438 4.476562 10 10 10s10-4.476562 10-10v-35.09375h27c16.542969 0 30 13.769531 30 30.3125zm0 0" fill="#0635c9"/><g fill="#1ae5be"><path d="m307.472656 244.449219h-214.945312c-5.523438 0-10-4.476563-10-10 0-5.523438 4.476562-10 10-10h214.945312c5.523438 0 10 4.476562 10 10 0 5.523437-4.476562 10-10 10zm0 0"/><path d="m307.472656 316.097656h-214.945312c-5.523438 0-10-4.476562-10-10 0-5.523437 4.476562-10 10-10h214.945312c5.523438 0 10 4.476563 10 10 0 5.523438-4.476562 10-10 10zm0 0"/><path d="m208.957031 172.800781h-116.429687c-5.523438 0-10-4.476562-10-10 0-5.523437 4.476562-10 10-10h116.429687c5.523438 0 10 4.476563 10 10 0 5.523438-4.476562 10-10 10zm0 0"/></g></svg>