<svg height="399pt" viewBox="-8 0 399 399.81189" width="399pt" xmlns="http://www.w3.org/2000/svg"><path d="m84.332031 359.8125c-18.734375 0-33.925781-15.191406-33.925781-33.929688v-269.4375c.003906-1.3125.082031-2.625.234375-3.929687h-6.300781c-18.738282 0-33.929688 15.191406-33.929688 33.929687v269.4375c0 18.738282 15.1875 33.925782 33.921875 33.929688h295.382813c17.214844-.003906 31.699218-12.898438 33.695312-30zm0 0" fill="#d4e1f4"/><g fill="#0635c9"><path d="m117.421875 42.515625h149.207031v20h-149.207031zm0 0"/><path d="m339.714844 399.8125h-295.382813c-24.246093-.027344-43.898437-19.679688-43.925781-43.929688v-269.4375c.023438-24.25 19.675781-43.90625 43.925781-43.933593h21.570313v20h-21.570313c-13.207031.015625-23.910156 10.71875-23.925781 23.929687v269.441406c.015625 13.210938 10.71875 23.914063 23.925781 23.929688h295.382813c13.210937-.015625 23.914062-10.71875 23.929687-23.929688v-269.4375c-.015625-13.210937-10.71875-23.917968-23.929687-23.933593h-21.8125v-20h21.8125c24.25.027343 43.902344 19.679687 43.929687 43.929687v269.441406c-.027343 24.25-19.679687 43.902344-43.929687 43.929688zm0 0"/><path d="m10.40625 141.285156h363.757812v20h-363.757812zm0 0"/></g><path d="m91.660156 92.394531c-19.742187-.019531-35.738281-16.019531-35.761718-35.757812v-21.0625c.105468-19.679688 16.085937-35.574219 35.761718-35.574219 19.675782 0 35.65625 15.894531 35.761719 35.574219v21.0625c-.019531 19.738281-16.019531 35.738281-35.761719 35.757812zm0-72.582031c-8.699218.007812-15.75 7.058594-15.761718 15.761719v21.0625c.070312 8.652343 7.105468 15.632812 15.761718 15.632812s15.691406-6.980469 15.761719-15.632812v-21.0625c-.007813-8.703125-7.058594-15.753907-15.761719-15.761719zm0 0" fill="#1ae5be"/><path d="m292.386719 92.394531c-19.742188-.019531-35.742188-16.019531-35.765625-35.757812v-21.0625c.105468-19.679688 16.085937-35.574219 35.761718-35.574219 19.679688 0 35.660157 15.894531 35.761719 35.574219v21.0625c-.019531 19.738281-16.019531 35.738281-35.757812 35.757812zm0-72.582031c-8.703125.007812-15.753907 7.058594-15.765625 15.761719v21.0625c.070312 8.652343 7.105468 15.632812 15.761718 15.632812s15.695313-6.980469 15.761719-15.632812v-21.0625c-.007812-8.703125-7.058593-15.75-15.757812-15.761719zm0 0" fill="#1ae5be"/><path d="m228.804688 338.929688c-1.59375 0-3.164063-.378907-4.582032-1.109376l-32.199218-16.59375-32.199219 16.59375c-3.375 1.738282-7.445313 1.414063-10.503907-.832031-3.058593-2.25-4.578124-6.035156-3.925781-9.777343l6.097657-34.886719-25.894532-24.746094c-2.765625-2.644531-3.78125-6.640625-2.609375-10.285156 1.167969-3.644531 4.320313-6.304688 8.109375-6.84375l35.953125-5.121094 16.039063-31.863281c1.699218-3.375 5.152344-5.503906 8.933594-5.503906 3.777343 0 7.230468 2.128906 8.929687 5.503906l16.042969 31.863281 35.949218 5.121094c3.792969.539062 6.941407 3.199219 8.113282 6.84375 1.167968 3.644531.15625 7.640625-2.613282 10.285156l-25.894531 24.746094 6.101563 34.886719c.507812 2.910156-.296875 5.894531-2.195313 8.15625-1.902343 2.261718-4.703125 3.566406-7.65625 3.566406zm-36.78125-38.953126c1.59375 0 3.164062.378907 4.582031 1.109376l18.878906 9.726562-3.550781-20.3125c-.578125-3.289062.527344-6.648438 2.9375-8.953125l14.871094-14.207031-20.734376-2.953125c-3.242187-.460938-6.050781-2.480469-7.523437-5.402344l-9.457031-18.789063-9.460938 18.789063c-1.472656 2.921875-4.28125 4.941406-7.519531 5.402344l-20.738281 2.953125 14.871094 14.207031c2.410156 2.304687 3.515624 5.664063 2.941406 8.953125l-3.554688 20.3125 18.878906-9.730469c1.414063-.730469 2.984376-1.109375 4.578126-1.105469zm0 0" fill="#1ae5be"/></svg>