<svg height="399pt" viewBox="0 -28 399.89862 399" width="399pt" xmlns="http://www.w3.org/2000/svg"><path d="m340.675781 300.417969c-15.71875.042969-30.796875-6.203125-41.882812-17.347657-23.089844-23.144531-23.089844-60.613281 0-83.757812l34.808593-34.8125c1.875-1.875 4.417969-2.929688 7.070313-2.929688s5.195313 1.054688 7.070313 2.929688l34.808593 34.808594c16.941407 16.941406 22.007813 42.414062 12.839844 64.546875-9.167969 22.128906-30.761719 36.5625-54.71875 36.5625zm-27.738281-31.492188c15.316406 15.320313 40.15625 15.320313 55.476562 0 15.316407-15.316406 15.316407-40.15625 0-55.472656l-27.738281-27.738281-27.738281 27.738281c-15.320312 15.316406-15.320312 40.15625 0 55.472656l-7.070312 7.074219zm0 0" fill="#1ae5be"/><path d="m67.300781 318.917969c-19.960937-19.964844-19.960937-52.332031 0-72.292969l181.378907-181.378906c3.382812-3.386719 6.019531-7.441406 7.738281-11.90625l4.710937-12.253906-30.636718-30.640626-16.5 42.894532c-1.71875 4.464844-4.355469 8.523437-7.738282 11.90625l-181.378906 181.378906c-19.964844 19.960938-19.964844 52.328125 0 72.292969 15.082031 15.082031 37.945312 19.214843 57.359375 10.367187-5.558594-2.53125-10.617187-6.046875-14.933594-10.367187zm0 0" fill="#d4e1f4"/><path d="m256.949219 169.421875c-.480469 0-.960938-.03125-1.4375-.101563l-125.902344-18.140624c-5.464844-.785157-9.261719-5.855469-8.472656-11.324219.789062-5.46875 5.859375-9.261719 11.324219-8.472657l125.902343 18.140626c5.195313.738281 8.9375 5.371093 8.5625 10.605468-.371093 5.238282-4.726562 9.292969-9.976562 9.292969zm0 0" fill="#1ae5be"/><path d="m237.5625 3.375c-2.394531-2.390625-5.835938-3.4101562-9.144531-2.707031-3.308594.703125-6.039063 3.03125-7.253907 6.1875l-16.5 42.894531c-1.210937 3.160156-3.078124 6.03125-5.476562 8.425781l-181.386719 181.375c-23.773437 23.886719-23.730469 62.507813.101563 86.335938 23.828125 23.832031 62.449218 23.875 86.335937.101562l181.378907-181.378906c2.390624-2.398437 5.261718-4.261719 8.425781-5.476563l42.894531-16.5c3.15625-1.214843 5.484375-3.945312 6.1875-7.253906.703125-3.3125-.316406-6.75-2.707031-9.144531zm49.300781 117.09375c-5.777343 2.210938-11.019531 5.621094-15.386719 10l-181.375 181.378906c-16.058593 16.058594-42.09375 16.058594-58.152343 0-16.058594-16.058594-16.058594-42.09375 0-58.152344l181.375-181.378906c4.378906-4.367187 7.789062-9.609375 10-15.386718l10.976562-28.53125 81.101563 81.09375zm0 0" fill="#0635c9"/></svg>