<svg height="474pt" viewBox="0 -88 474.35255 474" width="474pt" xmlns="http://www.w3.org/2000/svg"><path d="m170.265625 179.464844c.007813-35.335938 19.238281-67.867188 50.199219-84.902344 30.957031-17.035156 68.730468-15.875 98.582031 3.03125-21.285156-33.59375-60.933594-50.773438-100.003906-43.328125-39.066407 7.441406-69.621094 38-77.066407 77.066406-7.441406 39.066407 9.738282 78.71875 43.332032 100.003907-9.851563-15.503907-15.070313-33.5-15.042969-51.871094zm0 0" fill="#d4e1f4"/><path d="m237.179688 256.375c-59.046876 0-106.910157-47.863281-106.910157-106.910156 0-59.042969 47.863281-106.910156 106.910157-106.910156 59.042968 0 106.910156 47.867187 106.910156 106.910156-.066406 59.019531-47.894532 106.84375-106.910156 106.910156zm0-193.820312c-48 0-86.910157 38.910156-86.910157 86.910156s38.910157 86.910156 86.910157 86.910156 86.910156-38.910156 86.910156-86.910156c-.054688-47.976563-38.933594-86.855469-86.910156-86.910156zm0 0" fill="#1ae5be"/><path d="m404.28125 72.191406c-24.519531-20.769531-49.53125-37.34375-74.34375-49.265625-31.421875-15.097656-62.628906-22.75-92.757812-22.75-30.132813 0-61.339844 7.65625-92.761719 22.75-24.808594 11.921875-49.824219 28.5-74.339844 49.265625-41.542969 35.1875-67.085937 69.914063-68.15625 71.375-2.5625 3.511719-2.5625 8.28125 0 11.792969 1.070313 1.460937 26.609375 36.191406 68.152344 71.378906 24.519531 20.765625 49.53125 37.339844 74.34375 49.261719 31.421875 15.101562 62.628906 22.75 92.757812 22.75 30.132813 0 61.339844-7.652344 92.757813-22.75 24.8125-11.921875 49.828125-28.5 74.34375-49.261719 41.542968-35.1875 67.085937-69.917969 68.152344-71.378906 2.5625-3.511719 2.5625-8.28125 0-11.792969-1.066407-1.460937-26.605469-36.1875-68.148438-71.375zm-167.101562 206.5625c-61.640626 0-117.675782-36.425781-153.828126-66.984375-22.148437-18.808593-42.472656-39.667969-60.703124-62.296875 20.808593-26.03125 109.988281-129.296875 214.53125-129.296875 61.636718 0 117.671874 36.425781 153.828124 66.984375 22.144532 18.8125 42.46875 39.671875 60.699219 62.300782-20.808593 26.027343-109.984375 129.292968-214.527343 129.292968zm0 0" fill="#0635c9"/></svg>