<svg height="320pt" viewBox="-27 0 320 320" width="320pt" xmlns="http://www.w3.org/2000/svg"><path d="m79.898438 160 175.300781-101.199219v-28.902343l-225.300781 130.101562 225.300781 130.101562v-28.902343zm0 0" fill="#d4e1f4"/><path d="m260.199219 21.300781c-3.089844-1.800781-6.910157-1.800781-10 0l-225.300781 130c-3.09375 1.804688-5 5.117188-5 8.699219s1.90625 6.894531 5 8.699219l225.300781 130.101562c3.109375 1.734375 6.894531 1.734375 10 0 3.101562-1.800781 5.007812-5.117187 5-8.699219v-260.203124c.03125-3.5625-1.886719-6.859376-5-8.597657zm-15 251.5-195.300781-112.800781 195.300781-112.800781zm0 0" fill="#0635c9"/><path d="m10 0c-5.515625.015625-9.984375 4.484375-10 10v300c0 5.523438 4.476562 10 10 10s10-4.476562 10-10v-300c-.015625-5.515625-4.484375-9.984375-10-10zm0 0" fill="#1ae5be"/></svg>