<svg height="320pt" viewBox="-27 0 320 320" width="320pt" xmlns="http://www.w3.org/2000/svg"><path d="m185.300781 160-175.300781-101.199219v-28.902343l225.300781 130.101562-225.300781 130.101562v-28.902343zm0 0" fill="#d4e1f4"/><path d="m240.300781 151.300781-225.300781-130c-3.089844-1.800781-6.910156-1.800781-10 0-3.101562 1.796875-5.0078125 5.113281-5 8.699219v260.199219c-.0078125 3.585937 1.898438 6.902343 5 8.699219 3.109375 1.734374 6.890625 1.734374 10 0l225.300781-130.097657c3.101563-1.800781 5.007813-5.117187 5-8.699219.007813-3.613281-1.894531-6.960937-5-8.800781zm-220.300781 121.5v-225.601562l195.300781 112.800781zm0 0" fill="#0635c9"/><path d="m255.199219 0c-5.515625.015625-9.984375 4.484375-10 10v300c0 5.523438 4.476562 10 10 10 5.523437 0 10-4.476562 10-10v-300c-.015625-5.515625-4.484375-9.984375-10-10zm0 0" fill="#1ae5be"/></svg>