<svg height="420pt" viewBox="-49 0 420 420" width="420pt" xmlns="http://www.w3.org/2000/svg"><g fill="#d4e1f4"><path d="m312.699219 118v.199219h-68.097657c-22.09375.007812-40.007812-17.90625-40-40v-27.898438h1.699219v-38.5zm0 0"/><path d="m206.199219 11.800781v38.5h-1.699219v-40h.300781zm0 0"/><path d="m206.199219 10.300781v1.5l-1.398438-1.5h-.300781zm0 0"/><path d="m204.5 10.300781v40l-24.199219-.199219h-90.402343c-22.09375-.007812-40.003907 17.90625-40 40v318.699219c-22.09375.003907-40.003907-17.90625-40-40v-318.699219c-.003907-22.09375 17.90625-40.007812 40-40l76.5.097657zm0 0"/></g><path d="m213.300781 4.699219-1.5-1.5c-1.648437-1.683594-3.851562-2.714844-6.199219-2.898438h-.203124l-1.898438-.199219c-.300781 0-.699219-.101562-1-.101562h-152.5c-27.609375.0117188-49.9882812 22.390625-50 50v320c.0117188 27.609375 22.390625 49.988281 50 50h222.699219c27.609375-.011719 49.992187-22.390625 50-50v-252c-.019531-2.652344-1.058594-5.191406-2.898438-7.101562zm1.199219 29.5 74.199219 74h-44.199219c-16.546875-.046875-29.953125-13.449219-30-30zm58.101562 365.902343h-222.601562c-16.546875-.050781-29.953125-13.453124-30-30v-320c.046875-16.550781 13.453125-29.953124 30-30h144.601562v58.097657c.007813 27.609375 22.386719 49.992187 50 50h58.097657v241.902343c-.09375 16.566407-13.53125 29.957032-30.097657 30zm0 0" fill="#0635c9"/></svg>