<svg height="423pt" viewBox="-73 0 423 423.4" width="423pt" xmlns="http://www.w3.org/2000/svg"><path d="m267.199219 155.5-200-107.101562v40l162.699219 87.101562zm0 0" fill="#d4e1f4"/><path d="m271.898438 146.699219-200-107.097657c-4.859376-2.597656-10.902344-.761718-13.5 4.097657-2.59375 4.859375-.757813 10.90625 4.101562 13.5l183.5 98.300781-183.5 98.300781c-3.183594 1.65625-5.230469 4.898438-5.359375 8.484375-.132813 3.585938 1.671875 6.964844 4.726563 8.851563 3.054687 1.886719 6.882812 1.988281 10.03125.261719l200-107.097657c3.261718-1.726562 5.300781-5.113281 5.300781-8.800781s-2.039063-7.074219-5.300781-8.800781zm0 0" fill="#0635c9"/><path d="m124.199219 403.398438h-47v-393.398438c0-5.523438-4.476563-10-10-10-5.523438 0-10 4.476562-10 10v393.398438h-47c-5.523438 0-10 4.480468-10 10 0 5.523437 4.476562 10 10 10h114c5.523437 0 10-4.476563 10-10 0-5.519532-4.476563-10-10-10zm0 0" fill="#1ae5be"/></svg>