<svg height="399pt" viewBox="-101 0 399 399.99788" width="399pt" xmlns="http://www.w3.org/2000/svg"><path d="m137.277344 191.582031-86.777344 26.597657 24.292969-142.011719-21.839844-66.171875-42.453125 248.183594 86.777344-26.597657 51.328125 158.414063 17.449219-109.605469zm0 0" fill="#d4e1f4"/><path d="m195.066406 130.507812c-2.71875-2.253906-6.425781-2.90625-9.753906-1.714843l-73.886719 26.472656-48.976562-148.398437c-1.4375-4.363282-5.664063-7.183594-10.242188-6.8398442-4.578125.3437502-8.335937 3.7617182-9.109375 8.2851562l-42.457031 248.183594c-.5820312 3.421875.648437 6.90625 3.253906 9.195312 2.605469 2.292969 6.214844 3.070313 9.535157 2.054688l77.367187-23.714844 48.300781 149.054688c1.335938 4.117187 5.171875 6.90625 9.5 6.910156.257813 0 .519532-.007813.78125-.027344 4.613282-.359375 8.375-3.832031 9.101563-8.402344l40.082031-251.789062c.554688-3.488282-.773438-7.011719-3.496094-9.269532zm-49.789062 216.777344-38.484375-118.789062c-1.679688-5.195313-7.222657-8.082032-12.445313-6.476563l-71.253906 21.839844 32.945312-192.597656 39.605469 120.011719c1.730469 5.242187 7.386719 8.09375 12.632813 6.363281.078125-.027344.160156-.054688.238281-.082031l67.636719-24.234376zm0 0" fill="#0635c9"/></svg>