<svg height="400pt" viewBox="-46 0 400 400.00003" width="400pt" xmlns="http://www.w3.org/2000/svg"><path d="m86.515625 370c-12.632813.003906-24.371094-6.511719-31.050781-17.234375-6.679688-10.71875-7.355469-24.128906-1.789063-35.464844l74.398438-151.550781c12.316406-25.082031 18.71875-52.65625 18.71875-80.601562v-44.847657h-22.855469v-30.300781h-40v50.300781h22.863281v44.855469c0 27.945312-6.402343 55.519531-18.71875 80.601562l-74.40625 151.542969c-5.566406 11.335938-4.890625 24.746094 1.789063 35.464844 6.679687 10.722656 18.417968 17.234375 31.050781 17.234375h215.320313c13.777343.050781 26.398437-7.695312 32.589843-20zm0 0" fill="#d4e1f4"/><path d="m242.683594 243.851562h-176.28125c-5.523438 0-10-4.480468-10-10 0-5.523437 4.476562-10 10-10h176.28125c5.523437 0 10 4.476563 10 10 0 5.519532-4.476563 10-10 10zm0 0" fill="#1ae5be"/><path d="m229.058594 181.34375c-11.667969-23.710938-17.785156-49.765625-17.882813-76.191406v-35.152344h13.238281c5.273438.117188 9.644532-4.0625 9.761719-9.335938 0-.121093 0-.242187 0-.363281v-50.300781c.113281-5.414062-4.1875-9.890625-9.601562-10h-140.636719c-5.410156.0195312-9.78125 4.421875-9.761719 9.835938v.164062 50.300781c-.082031 5.273438 4.125 9.617188 9.398438 9.699219h.363281 13.238281v35.152344c-.097656 26.425781-6.214843 52.480468-17.882812 76.191406l-74.5 151.550781c-7.105469 14.421875-6.265625 31.488281 2.222656 45.140625s23.421875 21.957032 39.5 21.964844h215.320313c16.085937.015625 31.035156-8.28125 39.527343-21.941406 8.496094-13.660156 9.324219-30.742188 2.191407-45.160156zm-134.882813-161.34375h120v30h-120zm190.21875 347.476562c-4.832031 7.8125-13.371093 12.554688-22.558593 12.523438h-215.320313c-9.179687 0-17.707031-4.734375-22.558594-12.523438-4.851562-7.789062-5.34375-17.53125-1.300781-25.765624l74.589844-151.550782c13.011718-26.457031 19.828125-55.527344 19.929687-85.007812v-35.152344h74v35.152344c.101563 29.480468 6.917969 58.550781 19.929688 85.007812l74.5 151.550782c4.101562 8.214843 3.644531 17.972656-1.210938 25.765624zm0 0" fill="#0635c9"/></svg>