<svg height="427pt" viewBox="-86 0 427 427.88705" width="427pt" xmlns="http://www.w3.org/2000/svg"><path d="m80.308594 387.886719c-10.265625 0-19.804688-5.296875-25.234375-14.007813-5.425781-8.714844-5.976563-19.609375-1.453125-28.824218l60.472656-123.179688c10.011719-20.386719 15.214844-42.796875 15.214844-65.511719v-36.460937h-18.582032v-10.878906h-40v40.878906h18.582032v36.460937c0 22.714844-5.203125 45.125-15.214844 65.511719l-60.472656 123.179688c-4.523438 9.214843-3.972656 20.109374 1.453125 28.824218 5.429687 8.710938 14.96875 14.007813 25.234375 14.007813h175.015625c16.4375-.003907 29.761719-13.332031 29.757812-29.769531 0-.074219 0-.152344 0-.230469zm0 0" fill="#d4e1f4"/><path d="m199.753906 298.46875h-143.28125c-5.523437 0-10-4.480469-10-10 0-5.523438 4.476563-10 10-10h143.28125c5.523438 0 10 4.476562 10 10 0 5.519531-4.476562 10-10 10zm0 0" fill="#1ae5be"/><path d="m127.816406 82.335938c-9.433594.015624-18.46875-3.792969-25.042968-10.558594-13.660157-14.070313-13.660157-36.449219 0-50.519532l17.898437-18.257812c3.867187-3.945312 10.199219-4.007812 14.144531-.140625l.136719.140625 17.902344 18.257812c13.660156 14.070313 13.660156 36.449219 0 50.519532-6.574219 6.761718-15.609375 10.574218-25.039063 10.558594zm0-58.050782-10.765625 10.976563c-6.085937 6.269531-6.085937 16.242187 0 22.511719 5.75 5.941406 15.234375 6.101562 21.179688.351562.117187-.117188.234375-.234375.351562-.351562 6.085938-6.269532 6.085938-16.242188 0-22.511719zm0 0" fill="#1ae5be"/><path d="m190.792969 244.265625c-9.265625-19.519531-14.042969-40.863281-13.976563-62.464844v-26.914062h8.089844c5.554688-.132813 9.972656-4.707031 9.910156-10.265625v-41.683594c.042969-5.507812-4.382812-10.003906-9.886718-10.050781h-114.199219c-5.503907.027343-9.945313 4.515625-9.914063 10.023437v41.710938c-.0625 5.558594 4.355469 10.132812 9.910156 10.265625h8.089844v26.914062c.066406 21.601563-4.710937 42.945313-13.976562 62.464844l-60.351563 125.605469c-6.109375 12.636718-5.253906 27.53125 2.261719 39.382812 7.21875 11.589844 19.90625 18.636719 33.558594 18.632813h175.015625c13.632812.003906 26.304687-7.046875 33.492187-18.632813 7.535156-11.839844 8.414063-26.734375 2.324219-39.382812zm-109.976563-131.378906h94v22h-94zm151.066406 285.726562c-3.507812 5.785157-9.792968 9.304688-16.558593 9.273438h-175.015625c-6.765625.03125-13.050782-3.488281-16.5625-9.273438-3.816406-6.042969-4.238282-13.632812-1.113282-20.066406l60.226563-125.605469c10.566406-22.226562 16.015625-46.535156 15.957031-71.140625v-26.914062h58v26.914062c-.0625 24.605469 5.390625 48.914063 15.957032 71.140625l60.351562 125.605469c3.085938 6.453125 2.613281 14.042969-1.242188 20.066406zm0 0" fill="#0635c9"/></svg>