<svg height="430pt" viewBox="0 -25 430 430" width="430pt" xmlns="http://www.w3.org/2000/svg"><path d="m228.300781 101.300781c6.914063 13.210938 20.589844 21.492188 35.5 21.5h146.199219c3.027344.023438 6.042969.359375 9 1-4.191406-18.15625-20.367188-31.011719-39-31h-146.300781c-3.578125-.011719-7.140625-.480469-10.597657-1.398437zm0 0" fill="#d4e1f4"/><path d="m40 359.699219v-279.597657c-.007812-22.09375 17.90625-40.007812 40-40h92.101562c3.578126.007813 7.140626.480469 10.597657 1.398438l-5.199219-9.898438c-6.914062-13.210937-20.589844-21.492187-35.5-21.5h-92c-22.09375-.007812-40.007812 17.90625-40 40v279.597657c.027344 18.621093 12.867188 34.773437 31 39-.640625-2.957031-.976562-5.972657-1-9zm0 0" fill="#d4e1f4"/><path d="m380 82.800781h-146.300781c-11.199219.003907-21.464844-6.246093-26.597657-16.199219l-20.601562-39.699218c-8.578125-16.589844-25.726562-26.9765628-44.398438-26.902344h-92.101562c-27.609375.0117188-49.9882812 22.390625-50 50v279.601562c.0117188 27.609376 22.390625 49.988282 50 50h330c27.609375-.011718 49.988281-22.390624 50-50v-196.800781c-.011719-27.609375-22.390625-49.992187-50-50zm-330-62.699219h92.101562c11.199219-.007812 21.464844 6.246094 26.597657 16.199219l20.601562 39.699219c1.277344 2.394531 2.714844 4.699219 4.300781 6.902344h-173.601562v-32.703125c.003906-16.582031 13.417969-30.039063 30-30.097657zm360 309.597657c-.046875 16.550781-13.453125 29.953125-30 30h-330c-16.546875-.046875-29.953125-13.449219-30-30v-226.898438h203.898438c.984374.019531 1.960937-.113281 2.902343-.398437 2.320313.316406 4.65625.484375 7 .5h146.199219c16.546875.046875 29.953125 13.449218 30 30zm0 0" fill="#0635c9"/></svg>