<svg height="400pt" viewBox="-86 0 400 400.00104" width="400pt" xmlns="http://www.w3.org/2000/svg"><path d="m144.96875 267h22.113281v123h-22.113281zm0 0" fill="#d4e1f4"/><path d="m41.230469 270.480469c0-13.257813 10.746093-24.007813 24.007812-24.007813 1.242188 0 2.488281.097656 3.71875.289063-1.835937-11.679688-11.898437-20.289063-23.71875-20.289063-13.261719 0-24.007812 10.75-24.007812 24.007813v136.800781h20zm0 0" fill="#d4e1f4"/><path d="m189.191406 400h-44.222656c-5.523438 0-10-4.476562-10-10v-121.890625c0-5.523437 4.476562-10 10-10s10 4.476563 10 10v111.890625h24.222656v-109.164062c0-5.523438 4.476563-10 10-10 5.523438 0 10 4.476562 10 10v119.164062c0 5.523438-4.476562 10-10 10zm0 0" fill="#1ae5be"/><path d="m80 4.726562c-5.523438 0-10 4.476563-10 10v72.761719c.019531 9.878907-5.894531 18.796875-15 22.625v-95.386719c0-5.523437-4.476562-10-10-10s-10 4.476563-10 10v95.386719c-8-3.851562-15-12.539062-15-22.625v-72.761719c0-5.523437-4.476562-10-10-10s-10 4.476563-10 10v72.761719c.0898438 20.910157 14.605469 38.992188 35 43.601563v95.382812c0 5.523438 4.476562 10 10 10s10-4.476562 10-10v-95.382812c20.394531-4.609375 34.910156-22.6875 35-43.597656v-72.765626c0-5.523437-4.476562-10-10-10zm0 0" fill="#0635c9"/><path d="m217.402344 0-35.472656.363281h-.117188c-26.03125.574219-46.828125 21.851563-46.8125 47.886719v221.675781c-.019531 5.53125 4.4375 10.035157 9.96875 10.074219h72.535156c5.523438 0 10.5-4.550781 10.5-10.074219v-259.925781c-.089844-2.699219-1.246094-5.253906-3.210937-7.105469-1.992188-1.894531-4.644531-2.9335935-7.390625-2.894531zm-9.402344 260h-53v-211.75c0-15.027344 12.445312-27.527344 27.464844-27.886719l25.535156-.261719zm0 0" fill="#0635c9"/><path d="m69.242188 397.277344h-48.011719c-5.523438 0-10-4.476563-10-10v-136.800782c-.101563-18.78125 15.039062-34.089843 33.820312-34.191406 18.78125-.101562 34.089844 15.039063 34.191407 33.820313v.371093 136.800782c0 5.523437-4.476563 10-10 10zm-38.011719-20h28.011719v-126.800782c.066406-7.734374-6.152344-14.058593-13.886719-14.125-7.734375-.066406-14.058594 6.152344-14.125 13.886719v.238281zm0 0" fill="#1ae5be"/></svg>