<svg height="460pt" viewBox="0 -117 460 460" width="460pt" xmlns="http://www.w3.org/2000/svg"><path d="m50 136.742188v-126.742188c-22.089844 0-40 17.910156-40 40v126.742188c0 22.089843 17.910156 40 40 40h306.324219c22.089843 0 40-17.910157 40-40h-306.324219c-22.089844 0-40-17.910157-40-40zm0 0" fill="#d4e1f4"/><g fill="#1ae5be"><path d="m430.5 174.847656h-34.175781c-5.523438 0-10-4.476562-10-10 0-5.523437 4.476562-10 10-10h34.175781c5.246094-.003906 9.496094-4.253906 9.5-9.5v-63.957031c-.003906-5.242187-4.253906-9.492187-9.5-9.5h-34.175781c-5.523438 0-10-4.476563-10-10 0-5.519531 4.476562-10 10-10h34.175781c16.285156.019531 29.480469 13.214844 29.5 29.5v63.960937c-.019531 16.28125-13.214844 29.476563-29.5 29.496094zm0 0"/><path d="m90.722656 152.472656c-5.523437 0-10-4.480468-10-10v-58.191406c0-5.523438 4.476563-10 10-10 5.523438 0 10 4.476562 10 10v58.191406c0 5.519532-4.476562 10-10 10zm0 0"/><path d="m158.96875 152.472656c-5.523438 0-10-4.480468-10-10v-58.191406c0-5.523438 4.476562-10 10-10s10 4.476562 10 10v58.191406c0 5.519532-4.476562 10-10 10zm0 0"/><path d="m227.210938 152.472656c-5.523438 0-10-4.480468-10-10v-58.191406c0-5.523438 4.476562-10 10-10 5.523437 0 10 4.476562 10 10v58.191406c0 5.519532-4.476563 10-10 10zm0 0"/><path d="m295.457031 152.472656c-5.523437 0-10-4.480468-10-10v-58.191406c0-5.523438 4.476563-10 10-10 5.523438 0 10 4.476562 10 10v58.191406c0 5.519532-4.476562 10-10 10zm0 0"/></g><path d="m356.324219 226.742188h-306.324219c-27.601562-.03125-49.96875-22.398438-50-50v-126.742188c.03125-27.601562 22.398438-49.96875 50-50h306.324219c27.601562.03125 49.96875 22.398438 50 50v126.742188c-.03125 27.601562-22.398438 49.96875-50 50zm-306.324219-206.742188c-16.5625.019531-29.980469 13.4375-30 30v126.742188c.019531 16.5625 13.4375 29.980468 30 30h306.324219c16.558593-.019532 29.980469-13.4375 30-30v-126.742188c-.019531-16.5625-13.441407-29.980469-30-30zm0 0" fill="#0635c9"/></svg>