<svg height="460pt" viewBox="-4 0 460 460.00067" width="460pt" xmlns="http://www.w3.org/2000/svg"><path d="m78.199219 440v-236.898438h-28.199219v-33.800781c-.003906-22.09375 17.90625-40.007812 40-40h350.898438c-4.527344-17.667969-20.460938-30.015625-38.699219-30h-352.199219c-22.09375-.007812-40.003906 17.90625-40 40v55.800781h28.199219v214.898438c-.003907 22.09375 17.90625 40.007812 40 40h1.300781c-.84375-3.265625-1.28125-6.625-1.300781-10zm0 0" fill="#d4e1f4"/><g fill="#1ae5be"><path d="m331.199219 0c-12.582031-.0664062-24.660157 4.945312-33.5 13.902344l-70.5 70.398437-52.097657-52.101562c-18.542968-18.453125-48.523437-18.417969-67.019531.082031-18.5 18.496094-18.535156 48.476562-.082031 67.019531l6.5 6.5c1.875 1.890625 4.4375 2.9375 7.101562 2.898438 2.652344-.007813 5.195313-1.050781 7.097657-2.898438 1.875-1.867187 2.925781-4.40625 2.925781-7.050781s-1.050781-5.179688-2.925781-7.050781l-6.5-6.5c-10.632813-10.726563-10.597657-28.03125.085937-38.714844 10.679688-10.679687 27.988282-10.71875 38.714844-.082031l56 56c.476562 1.523437 1.339844 2.898437 2.5 4 1.875 1.886718 4.4375 2.933594 7.101562 2.898437 2.582032.023438 5.0625-.984375 6.898438-2.800781.355469-.273438.691406-.574219 1-.898438.320312-.289062.589844-.625.800781-1l76.5-76.601562c5.136719-5.152344 12.125-8.03125 19.398438-8 11.097656-.019531 21.113281 6.65625 25.363281 16.910156 4.25 10.25 1.894531 22.054688-5.960938 29.890625l-.101562.101563-24.601562 25.199218c-3.835938 3.949219-3.746094 10.261719.203124 14.097657 3.949219 3.839843 10.261719 3.75 14.097657-.199219l24.5-25.199219c13.625-13.511719 17.726562-33.921875 10.375-51.644531-7.347657-17.726562-24.6875-29.2460938-43.875-29.15625zm0 0"/><path d="m181.101562 89.300781c-5.515624.015625-9.984374 4.484375-10 10v350.699219c0 5.523438 4.476563 10 10 10 5.523438 0 10-4.476562 10-10v-350.699219c.007813-2.65625-1.042968-5.203125-2.917968-7.082031-1.878906-1.875-4.429688-2.925781-7.082032-2.917969zm0 0"/><path d="m270.101562 89.300781c-5.515624.015625-9.984374 4.484375-10 10v350.699219c0 5.523438 4.476563 10 10 10 5.523438 0 10-4.476562 10-10v-350.699219c.007813-2.65625-1.042968-5.203125-2.917968-7.082031-1.878906-1.875-4.429688-2.925781-7.082032-2.917969zm0 0"/></g><path d="m402.199219 89.300781h-352.199219c-27.609375.011719-49.9882812 22.390625-50 50v55.800781c.015625 5.515626 4.484375 9.984376 10 10h18.199219v204.898438c.011719 27.609375 22.390625 49.992188 50 50h295.699219c27.613281-.007812 49.992187-22.390625 50-50v-204.898438h18.203124c5.515626-.015624 9.984376-4.484374 10-10v-55.800781c.035157-13.253906-5.210937-25.976562-14.570312-35.359375-9.363281-9.378906-22.078125-14.648437-35.332031-14.640625zm1.800781 320.699219c-.046875 16.550781-13.453125 29.953125-30 30h-295.800781c-16.546875-.046875-29.949219-13.449219-30-30v-204.898438h355.699219v204.898438zm28.199219-224.898438h-412.199219v-45.800781c.046875-16.546875 13.453125-29.953125 30-30h352.199219c16.550781.046875 29.953125 13.453125 30 30zm0 0" fill="#0635c9"/></svg>