<svg height="450pt" viewBox="0 0 450 450" width="450pt" xmlns="http://www.w3.org/2000/svg"><g fill="#d4e1f4"><path d="m40.453125 40.289062h150.589844v-30h-180.589844v180.59375h30zm0 0"/><path d="m289.28125 40.289062h150.589844v-30h-180.589844v180.59375h30zm0 0"/><path d="m40.453125 289.121094h150.589844v-30h-180.589844v180.589844h30zm0 0"/><path d="m289.28125 289.121094h150.589844v-30h-180.589844v180.589844h30zm0 0"/></g><path d="m191.042969 200.882812h-180.589844c-5.523437 0-10-4.476562-10-10v-180.59375c0-5.519531 4.476563-10 10-10h180.589844c5.523437 0 10 4.480469 10 10v180.59375c0 5.523438-4.476563 10-10 10zm-170.589844-20h160.589844v-160.59375h-160.589844zm0 0" fill="#1ae5be"/><path d="m439.871094 449.710938h-180.589844c-5.523438 0-10-4.476563-10-10v-180.589844c0-5.523438 4.476562-10 10-10h180.589844c5.523437 0 10 4.476562 10 10v180.589844c0 5.523437-4.476563 10-10 10zm-170.589844-20h160.589844v-160.589844h-160.589844zm0 0" fill="#1ae5be"/><path d="m450 10c0-5.523438-4.476562-10-10-10h-181c-5.523438 0-10 4.476562-10 10v181c0 5.523438 4.476562 10 10 10h181c5.523438 0 10-4.476562 10-10zm-20 171h-161v-161h161zm0 0" fill="#0635c9"/><path d="m201 259c0-5.523438-4.476562-10-10-10h-181c-5.523438 0-10 4.476562-10 10v181c0 5.523438 4.476562 10 10 10h181c5.523438 0 10-4.476562 10-10zm-20 171h-161v-161h161zm0 0" fill="#0635c9"/></svg>