<svg height="439pt" viewBox="0 -44 439.88106 439" width="439pt" xmlns="http://www.w3.org/2000/svg"><path d="m49.882812 146.609375c0-52.851563 40.511719-96.875 93.175782-101.265625-37.4375-12.230469-78.574219-1.726562-105.5625 26.957031-26.992188 28.683594-34.980469 70.382813-20.5 107.007813 14.484375 36.628906 48.824218 61.589844 88.132812 64.0625l6.164063-3.421875c-37.273438-16.058594-61.414063-52.757813-61.410157-93.339844zm0 0" fill="#d4e1f4"/><path d="m224.421875 271.617188v-41.804688h-20v61.804688h129.144531v-20zm0 0" fill="#d4e1f4"/><path d="m373.058594 180.890625c.183594 1.195313.273437 2.398437.273437 3.605469v112.4375c0 13.1875-10.691406 23.878906-23.878906 23.878906h-12.871094c-1.207031 0-2.414062-.09375-3.605469-.273438 1.78125 11.660157 11.808594 20.269532 23.605469 20.273438h12.871094c13.1875 0 23.875-10.691406 23.875-23.878906v-112.4375c0-11.792969-8.609375-21.820313-20.269531-23.605469zm0 0" fill="#d4e1f4"/><path d="m409.609375 208.492188c.179687 1.195312.273437 2.402343.273437 3.609374v57.226563c-.003906 10.242187-6.53125 19.339844-16.230468 22.621094v21.257812h12.351562c13.1875 0 23.875-10.6875 23.878906-23.875v-57.230469c-.003906-11.796874-8.613281-21.824218-20.273437-23.609374zm0 0" fill="#d4e1f4"/><path d="m201.40625 320.8125h-12.871094c-13.1875 0-23.878906-10.691406-23.878906-23.878906v-112.4375c0-1.207032.089844-2.410156.273438-3.605469-11.660157 1.785156-20.273438 11.8125-20.273438 23.605469v112.4375c0 13.1875 10.691406 23.878906 23.878906 23.878906h12.871094c11.792969-.003906 21.820312-8.613281 23.605469-20.273438-1.195313.183594-2.398438.273438-3.605469.273438zm0 0" fill="#d4e1f4"/><path d="m128.105469 269.328125v-57.226563c0-1.207031.089843-2.414062.273437-3.609374-11.660156 1.785156-20.269531 11.8125-20.273437 23.609374v57.226563c0 13.1875 10.691406 23.878906 23.875 23.878906h12.351562v-21.257812c-9.699219-3.28125-16.222656-12.382813-16.226562-22.621094zm0 0" fill="#d4e1f4"/><path d="m143.855469 173.210938c-1.875 0-3.707031-.527344-5.292969-1.523438l-32.371094-20.246094c-2.921875-1.828125-4.699218-5.03125-4.699218-8.480468v-39.539063c0-5.523437 4.476562-10 10-10 5.523437 0 10 4.476563 10 10v34l27.671874 17.308594c3.785157 2.367187 5.542969 6.953125 4.308594 11.242187-1.230468 4.289063-5.15625 7.242188-9.621094 7.238282zm0 0" fill="#1ae5be"/><path d="m204.421875 219.816406h129.144531v20h-129.144531zm0 0" fill="#1ae5be"/><path d="m204.421875 281.617188h129.144531v20h-129.144531zm0 0" fill="#1ae5be"/><g fill="#0635c9"><path d="m212.679688 132.441406h-31.714844c-5.523438 0-10 4.476563-10 10 0 5.523438 4.476562 10 10 10h31.714844c5.523437 0 10-4.476562 10-10 0-5.523437-4.476563-10-10-10zm0 0"/><path d="m52.023438 142.441406c0-5.523437-4.476563-10-10-10h-31.710938c-5.523438 0-10 4.476563-10 10 0 5.523438 4.476562 10 10 10h31.710938c5.523437 0 10-4.476562 10-10zm0 0"/><path d="m47.019531 63.339844c-3.804687-4.003906-10.132812-4.164063-14.136719-.363282-4.003906 3.804688-4.167968 10.136719-.363281 14.140626.117188.121093.238281.242187.363281.359374l22.421876 22.421876c3.90625 3.90625 10.238281 3.90625 14.140624 0 3.90625-3.902344 3.90625-10.234376 0-14.140626zm0 0"/><path d="m160.617188 102.828125c2.652343.003906 5.199218-1.050781 7.070312-2.929687l22.421875-22.421876c3.777344-3.925781 3.714844-10.152343-.136719-14.003906-3.851562-3.851562-10.078125-3.910156-14.003906-.132812l-22.421875 22.421875c-2.859375 2.859375-3.714844 7.160156-2.167969 10.898437 1.546875 3.738282 5.195313 6.171875 9.238282 6.171875zm0 0"/><path d="m55.300781 184.003906-22.417969 22.421875c-3.90625 3.90625-3.90625 10.238281 0 14.144531 3.902344 3.90625 10.234376 3.90625 14.140626 0l22.421874-22.421874c3.90625-3.90625 3.90625-10.238282 0-14.144532-3.902343-3.90625-10.234374-3.90625-14.140624 0zm0 0"/><path d="m101.882812 40.769531v31.710938c0 5.523437 4.476563 10 10 10 5.519532 0 10-4.476563 10-10v-52.039063h10.484376c5.523437 0 10-4.476562 10-10 0-5.523437-4.476563-10-10-10h-41.746094c-5.523438 0-10 4.476563-10 10 0 5.523438 4.476562 10 10 10h11.261718zm0 0"/><path d="m406.003906 198.441406h-3.265625c-2.886719-16.144531-16.886719-27.921875-33.285156-28h-12.871094c-18.703125.121094-33.777343 15.355469-33.699219 34.054688v112.4375c-.03125 18.472656 14.917969 33.476562 33.390626 33.507812h13.179687c16.074219-.027344 29.945313-11.277344 33.285156-27h3.265625c18.746094-.132812 33.875-15.363281 33.878906-34.113281v-57.226563c-.039062-18.628906-15.171874-33.699218-33.800781-33.660156zm-22.121094 118.121094c0 7.664062-6.214843 13.878906-13.878906 13.878906h-13.246094c-7.664062 0-13.875-6.210937-13.875-13.875v-112.246094c-.003906-7.664062 6.210938-13.878906 13.875-13.878906h13.246094c7.664063 0 13.875 6.210938 13.878906 13.875zm36-27.234375c.003907 7.707031-6.175781 13.992187-13.878906 14.113281h-3.121094v-85h3.121094c7.570313-.09375 13.785156 5.96875 13.878906 13.539063v.121093zm0 0"/></g><path d="m104.511719 253.351562c-48.925781-3.097656-90.097657-37.769531-101.46875-85.457031-11.371094-47.683593 9.71875-97.207031 51.984375-122.050781 42.261718-24.839844 95.789062-19.179688 131.921875 13.949219 36.132812 33.132812 46.402343 85.972656 25.308593 130.222656-.800781 1.683594-1.65625 3.359375-2.539062 4.988281l-17.585938-9.527344c.722657-1.328124 1.421876-2.699218 2.078126-4.082031 17.339843-36.34375 8.917968-79.753906-20.757813-106.976562-29.675781-27.222657-73.648437-31.878907-108.367187-11.472657s-52.046876 61.085938-42.699219 100.257813c9.34375 39.171875 43.171875 67.652344 83.363281 70.183594zm0 0" fill="#1ae5be"/><path d="m181.40625 170.441406h-12.871094c-16.398437.078125-30.398437 11.855469-33.285156 28h-3.269531c-18.679688 0-34.097657 14.976563-34.097657 33.660156v57.226563c.105469 18.792969 15.308594 34 34.097657 34.113281h3.261719c3.34375 15.722656 17.214843 26.972656 33.289062 27h12.871094c18.367187.121094 33.355468-14.667968 33.480468-33.035156 0-.160156 0-.316406 0-.472656v-112.4375c0-18.679688-14.796874-34.054688-33.476562-34.054688zm-63.523438 118.886719v-57.226563c.128907-7.664062 6.4375-13.773437 14.097657-13.660156h2.902343v85h-2.902343c-7.75-.101562-14.003907-6.363281-14.097657-14.113281zm78 27.234375c0 7.664062-6.214843 13.878906-13.878906 13.878906h-13.246094c-7.664062 0-13.875-6.210937-13.875-13.875v-112.246094c-.003906-7.664062 6.210938-13.878906 13.875-13.878906h13.246094c7.664063 0 13.875 6.210938 13.878906 13.875zm0 0" fill="#0635c9"/></svg>