<svg height="400pt" viewBox="0 -15 400 400" width="400pt" xmlns="http://www.w3.org/2000/svg"><path d="m40 345.699219v-78.199219c0-18.5 15-33.5 33.5-33.5h9.101562v-20h-39.101562c-18.5 0-33.5 15-33.5 33.5v78.199219c-.011719 18.234375 14.570312 33.125 32.800781 33.5-1.855469-4.257813-2.808593-8.855469-2.800781-13.5zm0 0" fill="#d4e1f4"/><path d="m356.5 213.898438h-39.101562v20h9.101562c18.5 0 33.5 15 33.5 33.5v78.203124c.007812 4.644532-.945312 9.238282-2.800781 13.5 18.230469-.375 32.8125-15.269531 32.800781-33.5v-78.203124c0-18.5-15-33.5-33.5-33.5zm0 0" fill="#d4e1f4"/><path d="m200 0c-82.5 0-149.699219 67.199219-149.699219 149.699219v64.300781c0 5.523438 4.476563 10 10 10 5.523438 0 10-4.476562 10-10v-64.300781c0-71.5 58.199219-129.699219 129.699219-129.699219s129.699219 58.199219 129.699219 129.699219v64.300781c0 5.523438 4.476562 10 10 10 5.523437 0 10-4.476562 10-10v-64.300781c0-82.597657-67.199219-149.699219-149.699219-149.699219zm0 0" fill="#0635c9"/><g fill="#1ae5be"><path d="m82.601562 203.898438h-39.101562c-24.015625.019531-43.484375 19.484374-43.5 43.5v78.203124c.015625 24.015626 19.484375 43.480469 43.5 43.5h39.101562c5.515626-.015624 9.984376-4.484374 10-10v-145.203124c.007813-2.652344-1.042968-5.203126-2.921874-7.078126-1.875-1.878906-4.425782-2.929687-7.078126-2.921874zm-10 145.300781h-29.101562c-12.96875-.019531-23.480469-10.527344-23.5-23.5v-78.199219c.019531-12.96875 10.53125-23.480469 23.5-23.5h29.101562zm0 0"/><path d="m356.5 203.898438h-39.101562c-5.515626.015624-9.984376 4.484374-10 10v145.300781c.015624 5.515625 4.484374 9.984375 10 10h39.101562c24.015625-.015625 43.484375-19.480469 43.5-43.5v-78.199219c-.007812-24.035156-19.464844-43.535156-43.5-43.601562zm23.5 121.800781c-.019531 12.972656-10.53125 23.480469-23.5 23.5h-29.101562v-125.300781h29.101562c12.96875.023437 23.480469 10.53125 23.5 23.5zm0 0"/></g></svg>