<svg height="474pt" viewBox="0 -21 474.35455 474" width="474pt" xmlns="http://www.w3.org/2000/svg"><path d="m170.980469 251.449219c.007812-35.335938 19.238281-67.867188 50.199219-84.902344 30.957031-17.035156 68.730468-15.875 98.585937 3.03125-21.289063-33.59375-60.9375-50.773437-100.007813-43.328125-39.066406 7.441406-69.621093 38-77.066406 77.066406-7.441406 39.066406 9.738282 78.71875 43.332032 100.003906-9.851563-15.503906-15.070313-33.5-15.042969-51.871093zm0 0" fill="#d4e1f4"/><path d="m237.175781 328.359375c-59.042969 0-106.910156-47.863281-106.910156-106.910156 0-59.042969 47.867187-106.910157 106.910156-106.910157 59.046875 0 106.910157 47.867188 106.910157 106.910157-.066407 59.019531-47.890626 106.84375-106.910157 106.910156zm0-193.820313c-48 0-86.910156 38.910157-86.910156 86.910157s38.910156 86.910156 86.910156 86.910156 86.910157-38.910156 86.910157-86.910156c-.050782-47.976563-38.933594-86.855469-86.910157-86.910157zm0 0" fill="#1ae5be"/><path d="m404.277344 144.175781c-14.433594-12.304687-29.757813-23.527343-45.84375-33.578125l93.347656-93.347656c3.90625-3.90625 3.90625-10.238281 0-14.144531-3.90625-3.90625-10.238281-3.90625-14.140625 0l-97.160156 97.15625c-3.519531-1.871094-7.035157-3.65625-10.546875-5.351563-31.417969-15.097656-62.628906-22.75-92.757813-22.75-30.128906 0-61.339843 7.65625-92.757812 22.75-24.8125 11.921875-49.824219 28.5-74.34375 49.265625-41.542969 35.1875-67.082031 69.917969-68.152344 71.375-2.5625 3.511719-2.5625 8.28125 0 11.792969 1.070313 1.460938 26.609375 36.191406 68.152344 71.378906 13.066406 11.125 26.851562 21.375 41.265625 30.6875l-86.246094 86.238282c-3.90625 3.90625-3.902344 10.238281 0 14.144531 3.90625 3.90625 10.238281 3.90625 14.144531 0l89.792969-89.792969c5.132812 2.855469 10.261719 5.519531 15.386719 7.988281 31.421875 15.101563 62.628906 22.75 92.761719 22.75 30.128906 0 61.335937-7.652343 92.757812-22.75 24.8125-11.921875 49.824219-28.5 74.34375-49.261719 41.542969-35.191406 67.082031-69.917968 68.148438-71.378906 2.566406-3.515625 2.566406-8.28125 0-11.792968-1.066407-1.460938-26.609376-36.191407-68.152344-71.378907zm-320.929688 139.582031c-22.148437-18.8125-42.472656-39.671874-60.699218-62.300781 20.808593-26.027343 109.992187-129.296875 214.527343-129.296875 31.582031 0 61.683594 9.574219 88.402344 23.007813l-199.703125 199.699219c-14.90625-9.328126-29.121094-19.726563-42.527344-31.109376zm153.828125 66.980469c-33.539062 0-65.410156-10.792969-93.332031-25.550781l199.984375-199.984375c16.617187 10.019531 32.394531 21.371094 47.179687 33.941406 22.144532 18.8125 42.46875 39.671875 60.699219 62.300781-20.8125 26.027344-109.992187 129.292969-214.53125 129.292969zm0 0" fill="#0635c9"/></svg>