<svg height="454pt" viewBox="-57 0 454 454" width="454pt" xmlns="http://www.w3.org/2000/svg"><path d="m60 434v-354c-.007812-22.09375 17.90625-40.007812 40-40h228.699219c-4.53125-17.667969-20.460938-30.015625-38.699219-30h-240c-22.09375-.007812-40.007812 17.90625-40 40v354c-.007812 22.09375 17.90625 40.007812 40 40h11.300781c-.894531-3.257812-1.332031-6.621094-1.300781-10zm0 0" fill="#d4e1f4"/><path d="m290 0h-240c-27.609375.0117188-49.9882812 22.390625-50 50v354c.0117188 27.609375 22.390625 49.988281 50 50h240c27.609375-.011719 49.988281-22.390625 50-50v-354c-.011719-27.609375-22.390625-49.9882812-50-50zm30 404c-.046875 16.546875-13.453125 29.953125-30 30h-240c-16.546875-.046875-29.953125-13.453125-30-30v-354c.046875-16.546875 13.453125-29.953125 30-30h240c16.546875.046875 29.953125 13.453125 30 30zm0 0" fill="#0635c9"/><path d="m208.300781 47.101562h-80c-5.523437 0-10 4.476563-10 10 0 5.519532 4.476563 10 10 10h80c5.523438 0 10-4.480468 10-10 0-5.523437-4.476562-10-10-10zm0 0" fill="#0635c9"/><g fill="#1ae5be"><path d="m170 241c28.554688 0 51.699219-23.148438 51.699219-51.699219 0-28.554687-23.144531-51.699219-51.699219-51.699219s-51.699219 23.144532-51.699219 51.699219c.035157 28.535157 23.160157 51.660157 51.699219 51.699219zm0-83.300781c17.507812 0 31.699219 14.191406 31.699219 31.699219 0 17.507812-14.191407 31.703124-31.699219 31.703124s-31.699219-14.195312-31.699219-31.703124c.003907-17.503907 14.195313-31.691407 31.699219-31.699219zm0 0"/><path d="m170 260.101562c-21.152344-.15625-41.453125 8.332032-56.199219 23.5-15 15.296876-23.199219 36.097657-23.199219 58.699219.015626 5.515625 4.480469 9.984375 10 10h138.796876c5.519531-.015625 9.984374-4.484375 10-10 0-22.601562-8.199219-43.402343-23.199219-58.699219-14.746094-15.167968-35.046875-23.65625-56.199219-23.5zm-58.699219 72.199219c1.710938-13.074219 7.605469-25.246093 16.800781-34.699219 11.066407-11.199218 26.15625-17.5 41.898438-17.5s30.832031 6.300782 41.898438 17.5c9.175781 9.464844 15.066406 21.628907 16.800781 34.699219zm0 0"/></g></svg>