<svg height="400pt" viewBox="0 -7 400 400" width="400pt" xmlns="http://www.w3.org/2000/svg"><path d="m105.589844 122.394531c0-11.71875 9.503906-21.222656 21.226562-21.222656h197.53125c-.640625-11.222656-9.925781-19.996094-21.164062-20h-206.367188c-11.722656 0-21.226562 9.5-21.226562 21.222656v108.863281h30zm0 0" fill="#d4e1f4"/><path d="m66.515625 346.671875c-14.644531 0-26.515625-11.871094-26.515625-26.515625v-137.246094l-29.507812-18.207031h-.492188v185.453125c0 14.644531 11.871094 26.515625 26.515625 26.515625h326.96875c14.644531 0 26.515625-11.871094 26.515625-26.515625v-3.484375zm0 0" fill="#d4e1f4"/><path d="m217.320312 235.660156c-2.695312.003906-5.277343-1.085937-7.160156-3.019531l-61.328125-62.871094-67.667969 45.40625c-4.554687 3.125-10.78125 1.964844-13.902343-2.589843-3.125-4.554688-1.964844-10.78125 2.589843-13.90625.054688-.035157.113282-.074219.167969-.113282l74.582031-50.042968c4.003907-2.691407 9.359376-2.132813 12.730469 1.320312l60.855469 62.390625 48.261719-38.074219c3.207031-2.53125 7.625-2.855468 11.167969-.824218l47.765624 27.398437c4.789063 2.75 6.445313 8.859375 3.695313 13.652344-2.746094 4.789062-8.859375 6.445312-13.648437 3.699219l-41.902344-24.039063-50.019532 39.464844c-1.761718 1.394531-3.941406 2.148437-6.1875 2.148437zm0 0" fill="#1ae5be"/><path d="m218.972656 178.007812c-20.097656 0-36.394531-16.292968-36.394531-36.390624 0-20.101563 16.289063-36.394532 36.390625-36.398438 20.097656 0 36.394531 16.289062 36.398438 36.386719-.019532 20.09375-16.300782 36.378906-36.394532 36.402343zm0-52.789062c-9.054687 0-16.394531 7.339844-16.394531 16.394531 0 9.054688 7.339844 16.394531 16.394531 16.394531 9.050782 0 16.394532-7.339843 16.394532-16.394531-.011719-9.046875-7.34375-16.382812-16.394532-16.394531zm0 0" fill="#1ae5be"/><path d="m399.921875 163.558594c-.011719-.101563-.019531-.203125-.035156-.304688-.054688-.390625-.132813-.777344-.234375-1.160156-.015625-.058594-.039063-.113281-.054688-.171875-.09375-.328125-.207031-.652344-.335937-.96875-.039063-.097656-.078125-.1875-.121094-.285156-.136719-.3125-.289063-.617188-.457031-.914063-.03125-.046875-.054688-.097656-.082032-.148437-.210937-.351563-.4375-.691407-.691406-1.015625-.03125-.046875-.074218-.085938-.109375-.132813-.210937-.265625-.4375-.519531-.679687-.761719-.078125-.082031-.160156-.160156-.242188-.238281-.222656-.210937-.457031-.410156-.699218-.601562-.082032-.0625-.160157-.132813-.242188-.195313-.035156-.023437-.269531-.050781-.300781-.074218l-61.636719-44.171876v-10.019531c.160156-17.011719-13.5-30.9375-30.511719-31.097656h-9.628906l-87.667969-69.164063c-3.679687-2.886718-8.867187-2.835937-12.492187.117188l-85.058594 69.046875h-11.824219c-17.015625-.007813-30.8125 13.785156-30.816406 30.800781v.296875 2.425781l-62.238281 52.230469h-.097657c-2.289062 1.886719-3.6289058 4.683594-3.664062 7.652344v185.453125c-.00390625 9.292969 3.546875 18.234375 9.929688 24.992188.382812.402343.804687.769531 1.261718 1.089843 6.808594 6.519531 15.894532 10.128907 25.324219 10.058594h326.96875c20.015625.152344 36.363281-15.945313 36.515625-35.960937 0-.058594 0-.121094 0-.179688v-185.453125c0-.066406-.011719-.125-.011719-.1875-.007812-.320313-.027343-.640625-.066406-.957031zm-379.921875 186.597656v-167.839844l46 28.132813v.847656h.898438l79.988281 49.335937-126.386719 93.480469c-.324219-1.292969-.492188-2.621093-.5-3.957031zm145.222656-78.414062 15.621094 9.730468c11.71875 7.304688 26.566406 7.332032 38.3125.070313l15.324219-9.601563 127.964843 94.355469h-325.300781zm87.621094-10.867188 80.585938-49.578125h.570312v-.640625l46-28.058594v167.558594c-.003906 1.421875-.195312 2.835938-.5625 4.210938zm118.71875-96.820312-37.5625 23.117187v-50.125zm-171.472656-141.203126 61.460937 48.445313h-121.167969zm-103.273438 68.445313h206.367188c5.957031-.015625 10.796875 4.796875 10.816406 10.753906v.34375 97.085938l-105.53125 65.074219c-5.195312 3.289062-11.828125 3.289062-17.019531-.007813l-105.449219-65.257813v-96.894531c-.175781-5.957031 4.515625-10.925781 10.472656-11.097656zm-30.816406 95.652344-38.371094-23.675781 38.371094-32.308594zm0 0" fill="#0635c9"/></svg>