<svg height="419pt" viewBox="0 -98 419.98646 419" width="419pt" xmlns="http://www.w3.org/2000/svg"><path d="m161.429688 182.269531c-12.347657 0-19.675782-10.011719-16.367188-22.359375l39.972656-149.183594h-9.597656c-12.351562 0-25.042969 10.007813-28.351562 22.359376l-42.023438 156.824218c-3.308594 12.347656 4.019531 22.359375 16.367188 22.359375h217.402343c12.347657 0 25.042969-10.011719 28.351563-22.359375l2.046875-7.640625zm0 0" fill="#d4e1f4"/><path d="m261.601562 172.941406c-3.25.003906-6.300781-1.570312-8.171874-4.226562l-46.070313-65.117188-84.824219 48.242188c-4.800781 2.730468-10.90625 1.050781-13.636718-3.75-2.730469-4.800782-1.050782-10.902344 3.75-13.632813l92.699218-52.722656c4.46875-2.542969 10.136719-1.28125 13.105469 2.914063l45.746094 64.660156 62.546875-40.730469c3.46875-2.261719 7.96875-2.148437 11.320312.28125l45.667969 33.074219c4.472656 3.242187 5.472656 9.492187 2.234375 13.96875-3.238281 4.472656-9.492188 5.472656-13.964844 2.234375l-40.101562-29.046875-64.847656 42.230468c-1.621094 1.0625-3.519532 1.625-5.453126 1.621094zm0 0" fill="#1ae5be"/><path d="m88.132812 121.496094h-55.203124c-5.523438 0-10-4.476563-10-10 0-5.523438 4.476562-10 10-10h55.199218c5.523438 0 10 4.476562 10 10 0 5.523437-4.476562 10-10 10zm0 0" fill="#1ae5be"/><g fill="#0635c9"><path d="m294.511719 36.597656c-19.894531 0-39.621094 15.46875-44.914063 35.214844-2.820312 10.527344-1.050781 20.980469 4.855469 28.675781 5.714844 7.449219 14.882813 11.71875 25.15625 11.71875 19.894531 0 39.625-15.46875 44.914063-35.21875 2.824218-10.523437 1.050781-20.976562-4.855469-28.675781-5.710938-7.445312-14.882813-11.714844-25.15625-11.714844zm10.695312 35.214844c-2.960937 11.054688-14.683593 20.394531-25.601562 20.394531-4.125 0-7.335938-1.347656-9.289063-3.890625-2.121094-2.765625-2.621094-6.789062-1.402344-11.328125 2.964844-11.050781 14.683594-20.390625 25.601563-20.390625 4.125 0 7.335937 1.34375 9.289063 3.890625 2.121093 2.765625 2.617187 6.785157 1.402343 11.324219zm0 0"/><path d="m20.191406 72.496094h93.417969c5.523437 0 10-4.476563 10-10 0-5.523438-4.476563-10-10-10h-93.417969c-5.523437 0-10 4.476562-10 10 0 5.523437 4.476563 10 10 10zm0 0"/><path d="m71.144531 150.496094h-61.144531c-5.523438 0-10 4.476562-10 10 0 5.523437 4.476562 10 10 10h61.144531c5.523438 0 10-4.476563 10-10 0-5.523438-4.476562-10-10-10zm0 0"/><path d="m392.835938.496094h-217.398438c-16.84375 0-33.539062 13.191406-38.011719 29.886718l-42.027343 156.878907c-2.425782 9.058593-.878907 18.226562 4.246093 24.902343 5.25 6.65625 13.308594 10.480469 21.785157 10.332032h217.402343c16.839844 0 33.535157-13.191406 38.011719-29.886719l42.019531-156.878906c2.425781-9.058594.878907-18.226563-4.242187-24.898438-5.25-6.65625-13.308594-10.480469-21.785156-10.335937zm6.710937 30-42.019531 156.9375c-2.136719 7.964844-10.871094 15.0625-18.695313 15.0625h-217.398437c-1.871094 0-4.417969-.523438-5.917969-2.476563-1.328125-1.730469-1.609375-4.417969-.792969-7.464843l42.019532-156.964844c2.132812-7.964844 10.867187-15.09375 18.691406-15.09375h217.402344c1.871093 0 4.417968.523437 5.917968 2.480468 1.328125 1.726563 1.609375 4.472657.792969 7.519532zm0 0"/></g></svg>