<svg height="370pt" viewBox="0 -16 370.6 370" width="370pt" xmlns="http://www.w3.org/2000/svg"><path d="m330.601562.300781h-134.203124c-22.09375-.007812-40.003907 17.90625-40 40v34.898438c0 5.523437 4.480468 10 10 10 5.523437 0 10-4.476563 10-10v-34.898438c.035156-11.03125 8.96875-19.96875 20-20h134.203124c11.03125.03125 19.964844 8.96875 20 20v258.597657c-.035156 11.035156-8.96875 19.96875-20 20h-134.203124c-11.03125-.03125-19.964844-8.964844-20-20v-35.597657c0-5.523437-4.476563-10-10-10-5.519532 0-10 4.476563-10 10v35.597657c-.003907 22.09375 17.90625 40.007812 40 40h134.203124c22.09375.007812 40.003907-17.90625 40-40v-258.597657c-.03125-22.078125-17.921874-39.972656-40-40zm0 0" fill="#0635c9"/><path d="m198.101562 238.199219c-3.894531 3.894531-3.894531 10.207031 0 14.101562 3.890626 3.894531 10.203126 3.894531 14.097657 0l64.699219-64.699219c.671874-.488281 1.277343-1.0625 1.800781-1.703124 1.6875-2.050782 2.488281-4.695313 2.226562-7.339844-.261719-2.644532-1.566406-5.078125-3.625-6.757813l-64.699219-74.5c-3.667968-3.972656-9.820312-4.3125-13.902343-.773437-4.082031 3.542968-4.613281 9.683594-1.199219 13.871094l51.300781 59.101562h-238.800781c-5.523438 0-10 4.476562-10 10s4.476562 10 10 10h236.699219zm0 0" fill="#1ae5be"/></svg>