<svg height="430pt" viewBox="0 -38 430.00476 430" width="430pt" xmlns="http://www.w3.org/2000/svg"><g fill="#d4e1f4"><path d="m264.902344 225.804688c28.820312.332031 52.539062-22.585938 53.203125-51.398438l-50-.5c-.210938 19.0625-10.734375 36.519531-27.5 45.597656 7.464843 4.046875 15.808593 6.207032 24.296875 6.300782zm0 0"/><path d="m100.605469 339.40625c-10.898438-.09375-21.304688-4.523438-28.925781-12.3125-7.621094-7.789062-11.820313-18.292969-11.675782-29.1875l1.101563-126.402344-50-.5-1.101563 126.902344c-.144531 10.894531 4.054688 21.398438 11.675782 29.1875 7.621093 7.789062 18.027343 12.21875 28.925781 12.3125zm0 0"/><path d="m61.105469 171.003906 38.5-133.296875c4.972656-14.457031 17.578125-24.941406 32.699219-27.203125l-43.5-.5c-17.675782-.199218-33.484376 10.972656-39.199219 27.703125l-38.5 133.296875zm0 0"/></g><path d="m430.003906 174.707031c-.199218-1.203125-.300781-1.402343-.300781-1.601562 0-.101563 0-.199219-.097656-.199219l-35.5-134.101562c0-.199219-.101563-.300782-.101563-.398438-6.621094-21.097656-26.089844-35.515625-48.199218-35.699219l-257-2.70312475c-21.972657-.22656225-41.628907 13.62890575-48.800782 34.40234375-.101562.199219-.101562.300781-.199218.5l-38.300782 133.398438c0 .101562-.101562.199218-.101562.402343 0 .199219-.097656.296875-.097656.5-.023438.167969-.058594.332031-.101563.5.015625.140625-.019531.28125-.097656.398438v.898437l-1.10156275 126.800782c-.36328125 28.195312 22.20312475 51.34375 50.39843775 51.699218l326.800781 3.601563h.601563c27.960937-.023438 50.699218-22.539063 51-50.5l1.097656-126.898438v-.203125c.074218-.257812.105468-.527344.101562-.796875zm-370.898437-134c4.398437-12.539062 16.3125-20.871093 29.597656-20.703125l257 2.703125c13.355469.109375 25.132813 8.777344 29.199219 21.5l32 121.199219-138.796875-1.402344c-5.519531-.039062-10.03125 4.386719-10.101563 9.902344-.078125 11.28125-4.691406 22.054688-12.800781 29.898438-12.308594 12.03125-30.65625 15.445312-46.472656 8.65625-15.8125-6.789063-25.972657-22.445313-25.726563-39.65625.015625-2.640626-.984375-5.183594-2.800781-7.097657-1.839844-1.890625-4.359375-2.972656-7-3l-138.699219-1.402343zm349.796875 261.597657c-.214844 16.984374-14.015625 30.652343-31 30.699218h-.296875l-326.800781-3.597656c-8.25-.054688-16.132813-3.402344-21.898438-9.296875-5.765625-5.898437-8.9375-13.855469-8.800781-22.105469l1-116.898437 132.699219 1.398437c4.597656 30.332032 30.488281 52.863282 61.164062 53.238282 30.671875.371093 57.101562-21.527344 62.433594-51.738282l132.703125 1.402344zm0 0" fill="#0635c9"/><path d="m344.003906 105.90625h-268c-5.523437 0-10 4.476562-10 10s4.476563 10 10 10h268c5.523438 0 10-4.476562 10-10s-4.476562-10-10-10zm0 0" fill="#1ae5be"/><path d="m116.003906 74.90625h178c5.523438 0 10-4.476562 10-10s-4.476562-10-10-10h-178c-5.523437 0-10 4.476562-10 10s4.476563 10 10 10zm0 0" fill="#1ae5be"/></svg>