<svg height="400pt" viewBox="0 -32 400.007 400" width="400pt" xmlns="http://www.w3.org/2000/svg"><path d="m68.691406 305.964844v-37.132813s-28.691406-17.910156-28.691406-40v-36.214843c-.007812-6.90625 1.78125-13.695313 5.191406-19.703126-20.082031 2.433594-35.1875 19.472657-35.191406 39.703126v36.214843c0 22.089844 28.691406 40 28.691406 40v37.132813h322.617188v-20zm0 0" fill="#d4e1f4"/><path d="m350 162.980469h-227v-74.890625c14.015625-4.878906 22.464844-19.164063 19.992188-33.796875-2.472657-14.636719-15.148438-25.347657-29.992188-25.347657s-27.519531 10.710938-29.992188 25.347657c-2.472656 14.632812 5.976563 28.917969 19.992188 33.796875v74.890625h-53c-27.472656-.140625-49.859375 22.015625-50 49.492187v36.359375c.125 19.4375 11.40625 37.074219 29 45.34375v31.789063c-.144531 5.390625 4.109375 9.875 9.5 10.015625h.199219 322.609375c5.390625-.03125 9.730468-4.425781 9.699218-9.816407 0-.066406 0-.132812 0-.203124v-31.789063c17.59375-8.265625 28.871094-25.902344 29-45.339844v-36.214843c-.0625-27.476563-22.386718-49.699219-49.863281-49.636719zm-247.289062-103.695313c0-5.796875 4.699218-10.5 10.5-10.5 5.796874 0 10.5 4.703125 10.5 10.5 0 5.800782-4.703126 10.5-10.5 10.5-5.800782 0-10.5-4.699218-10.5-10.5zm248.289062 256.695313h-302v-17.03125c0 .011719.5625.03125 1 .03125h300c.4375 0 1-.019531 1-.03125zm29-67c0 16.570312-13.429688 30-30 30h-300c-16.570312 0-30-13.429688-30-30v-36c0-16.566407 13.429688-30 30-30h300c16.570312 0 30 13.433593 30 30zm0 0" fill="#0635c9"/><path d="m165.640625 95.394531c-4 0-7.617187-2.382812-9.191406-6.0625-1.578125-3.675781-.808594-7.941406 1.953125-10.835937.058594-.0625.128906-.132813.199218-.203125 11.675782-11.714844 11.664063-30.667969-.023437-42.371094-3.925781-3.886719-3.957031-10.21875-.070313-14.144531 3.886719-3.921875 10.21875-3.953125 14.144532-.066406l.0625.0625c19.488281 19.511718 19.503906 51.121093.039062 70.65625l-.015625.011718c-1.875 1.894532-4.429687 2.957032-7.097656 2.953125zm0 0" fill="#0635c9"/><path d="m194.386719 114.183594c-4.046875 0-7.691407-2.4375-9.242188-6.175782-1.546875-3.734374-.691406-8.035156 2.167969-10.894531 22.058594-22.121093 22.058594-57.921875 0-80.039062-3.90625-3.90625-3.902344-10.238281.003906-14.144531 3.902344-3.902344 10.234375-3.902344 14.140625.003906 29.855469 29.933594 29.855469 78.382812 0 108.316406-1.875 1.878906-4.417969 2.933594-7.070312 2.933594zm0 0" fill="#1ae5be"/><path d="m60.765625 95.328125c-2.648437.003906-5.195313-1.050781-7.066406-2.925781-19.492188-19.511719-19.507813-51.121094-.039063-70.65625l.015625-.015625c.0625-.0625.128907-.125.1875-.183594 3.964844-3.777344 10.238281-3.660156 14.058594.265625 3.824219 3.925781 3.773437 10.195312-.109375 14.0625-11.671875 11.71875-11.664062 30.671875.023438 42.375 2.863281 2.859375 3.722656 7.160156 2.171874 10.898438-1.546874 3.738281-5.191406 6.175781-9.238281 6.175781zm0 0" fill="#0635c9"/><g fill="#1ae5be"><path d="m32.023438 114.183594c-2.652344 0-5.195313-1.054688-7.070313-2.933594-29.851563-29.933594-29.851563-78.378906 0-108.316406 3.917969-3.824219 10.179687-3.785156 14.050781.082031 3.875 3.871094 3.914063 10.132813.097656 14.054687-22.0625 22.117188-22.0625 57.917969 0 80.035157 2.859376 2.863281 3.710938 7.164062 2.164063 10.898437-1.546875 3.738282-5.195313 6.171875-9.238281 6.171875zm0 0"/><path d="m78.789062 257.628906c-15.226562 0-27.570312-12.34375-27.570312-27.570312 0-15.226563 12.34375-27.570313 27.570312-27.570313 15.230469 0 27.574219 12.34375 27.574219 27.570313-.015625 15.222656-12.351562 27.558594-27.574219 27.570312zm0-35.140625c-4.179687 0-7.570312 3.390625-7.570312 7.570313 0 4.183594 3.390625 7.574218 7.570312 7.574218 4.183594 0 7.574219-3.390624 7.574219-7.574218-.003906-4.179688-3.390625-7.566406-7.574219-7.570313zm0 0"/><path d="m145.882812 257.628906c-15.226562.003906-27.570312-12.339844-27.574218-27.570312 0-15.226563 12.34375-27.570313 27.574218-27.570313 15.226563-.003906 27.570313 12.34375 27.570313 27.570313-.015625 15.21875-12.347656 27.554687-27.570313 27.570312zm0-35.140625c-4.183593 0-7.570312 3.386719-7.574218 7.570313 0 4.183594 3.390625 7.574218 7.574218 7.574218 4.179688 0 7.570313-3.390624 7.570313-7.570312-.003906-4.183594-3.390625-7.570312-7.570313-7.574219zm0 0"/></g></svg>