<svg height="443pt" viewBox="0 -20 443.60329 443" width="443pt" xmlns="http://www.w3.org/2000/svg"><path d="m70 92.792969 181.800781-70.804688-30-11.683593-211.800781 82.488281 211.800781 82.492187 30-11.683594zm0 0" fill="#d4e1f4"/><path d="m221.800781 295.464844c-1.238281 0-2.46875-.234375-3.628906-.683594l-211.796875-82.488281c-3.816406-1.488281-6.3398438-5.152344-6.37109375-9.246094-.03125005-4.09375 2.43749975-7.792969 6.23046875-9.335937l91.316406-37.136719c3.308594-1.394531 7.109375-.90625 9.960938 1.273437 2.851562 2.183594 4.3125 5.722656 3.832031 9.28125s-2.832031 6.585938-6.160156 7.929688l-.101563.039062-68.042969 27.675782 184.761719 71.957031 184.585938-71.886719-65.644531-26.300781c-5.128907-2.054688-7.621094-7.875-5.566407-13.003907 2.054688-5.128906 7.875-7.621093 13.003907-5.566406l89.144531 35.714844c3.808593 1.527344 6.296875 5.226562 6.277343 9.332031-.019531 4.101563-2.542968 7.777344-6.367187 9.269531l-211.800781 82.488282c-1.15625.453125-2.386719.683594-3.632813.6875zm0 0" fill="#1ae5be"/><g fill="#0635c9"><path d="m437.234375 83.472656-211.800781-82.488281c-2.335938-.9101562-4.925782-.9101562-7.257813 0l-211.804687 82.488281c-3.839844 1.496094-6.371094 5.195313-6.371094 9.320313 0 4.121093 2.53125 7.820312 6.371094 9.316406l211.800781 82.488281c2.332031.910156 4.921875.910156 7.257813 0l211.800781-82.488281c3.839843-1.496094 6.371093-5.195313 6.371093-9.316406 0-4.125-2.53125-7.824219-6.371093-9.320313zm-215.433594 81.082032-184.246093-71.761719 184.246093-71.757813 184.25 71.757813zm0 0"/><path d="m437.265625 303.847656-86.726563-34.132812c-5.140624-2.023438-10.945312.503906-12.96875 5.644531-2.023437 5.140625.503907 10.945313 5.644532 12.96875l62.957031 24.773437-184.371094 71.808594-184.71875-71.941406 67.460938-27.339844c5.121093-2.074218 7.585937-7.90625 5.511719-13.023437-2.074219-5.117188-7.90625-7.585938-13.023438-5.511719l-90.785156 36.789062c-3.800782 1.539063-6.2734378 5.242188-6.246094 9.335938.0273438 4.097656 2.554688 7.765625 6.371094 9.25l211.800781 82.492188c2.332031.90625 4.921875.90625 7.257813 0l211.800781-82.492188c3.832031-1.492188 6.363281-5.183594 6.371093-9.296875.003907-4.117187-2.507812-7.816406-6.339843-9.324219zm0 0"/></g></svg>