<svg height="400pt" viewBox="-83 0 400 400" width="400pt" xmlns="http://www.w3.org/2000/svg"><path d="m100.761719 243.320312h-31.128907c0 25.597657 21.449219 46.34375 47.910157 46.34375 10.734375.03125 21.183593-3.484374 29.714843-10.003906-22.78125-.128906-41.785156-15.636718-46.496093-36.339844zm0 0" fill="#d4e1f4"/><path d="m39.96875 232.445312c0-44.875 29.359375-83.097656 70.511719-97.703124v-24.402344c0-2.386719.507812-4.75 1.492187-6.925782h-14.566406c-9.347656 0-16.925781 7.578126-16.925781 16.925782v24.402344c-41.152344 14.597656-70.511719 52.828124-70.511719 97.703124h215.144531c0-3.375-.183593-6.707031-.511719-10zm0 0" fill="#d4e1f4"/><g fill="#1ae5be"><path d="m117.542969 299.664062c-31.933594 0-57.910157-25.273437-57.910157-56.34375 0-5.519531 4.476563-10 10-10 5.519532 0 10 4.480469 10 10 0 20.042969 17.003907 36.34375 37.910157 36.34375 20.902343 0 37.90625-16.296874 37.90625-36.34375 0-5.519531 4.480469-10 10-10 5.523437 0 10 4.480469 10 10 0 31.070313-25.976563 56.34375-57.90625 56.34375zm0 0"/><path d="m27.273438 351.734375c-4.074219 0-7.742188-2.472656-9.269532-6.25-1.53125-3.777344-.613281-8.101563 2.316406-10.9375l32.953126-31.875c3.972656-3.804687 10.277343-3.683594 14.101562.269531 3.828125 3.957032 3.738281 10.257813-.199219 14.105469l-32.953125 31.875c-1.863281 1.808594-4.355468 2.816406-6.949218 2.8125zm0 0"/><path d="m192.042969 362.359375c-2.597657.003906-5.089844-1.003906-6.953125-2.8125l-32.949219-31.875c-4.035156-3.769531-4.253906-10.097656-.484375-14.132813 3.769531-4.039062 10.097656-4.253906 14.136719-.484374.085937.078124.167969.160156.253906.246093l32.949219 31.875c2.929687 2.835938 3.84375 7.160157 2.316406 10.9375-1.53125 3.777344-5.199219 6.246094-9.269531 6.246094zm0 0"/><path d="m111.484375 400c-5.523437 0-10-4.476562-10-10v-45.078125c0-5.523437 4.476563-10 10-10s10 4.476563 10 10v45.078125c0 5.523438-4.476563 10-10 10zm0 0"/></g><path d="m162.542969 137.164062v-16.820312c.09375-14.730469-11.765625-26.746094-26.496094-26.84375h-8.503906v-83.5c0-5.523438-4.480469-10-10-10-5.523438 0-10 4.476562-10 10v83.5h-10.136719c-14.820312-.019531-26.847656 11.980469-26.863281 26.800781v17.605469c-43 18.007812-70.542969 59.199219-70.542969 104.566406-.015625 5.523438 4.449219 10.011719 9.96875 10.027344h215.144531c5.476563-.023438 9.894531-4.480469 9.875-9.953125v-.074219c-.003906-46.25-28.445312-87.730468-72.445312-105.308594zm-142.015625 95.335938c3.933594-35 28.410156-65.917969 63.328125-78.308594 3.996093-1.425781 6.671875-5.207031 6.6875-9.449218v-24.402344c-.019531-3.761719 3.015625-6.824219 6.777343-6.839844h38.546876c3.671874-.011719 6.660156 2.953125 6.675781 6.625v.21875 23.785156c.050781 4.328125 2.84375 8.144532 6.949219 9.507813 35.875 12.015625 61.101562 42.863281 65.070312 78.863281zm0 0" fill="#0635c9"/></svg>