<svg height="417pt" viewBox="-39 0 417 417.30059" width="417pt" xmlns="http://www.w3.org/2000/svg"><path d="m96.574219 286.300781c-15.800781-16.800781-28.699219-36.300781-36.597657-58-7.648437-20.738281-10.882812-42.84375-9.5-64.902343 5-75.097657 60.796876-142.296876 139.699219-152.097657-6.636719-.808593-13.316406-1.207031-20-1.199219-89.300781 0-154.199219 72-159.699219 153.398438-1.382812 22.058594 1.851563 44.164062 9.5 64.898438 7.898438 21.703124 20.796876 41.203124 36.597657 58l113.601562 121 20-21.296876zm0 0" fill="#d4e1f4"/><path d="m288.574219 49.101562c-31.382813-31.4375-73.980469-49.101562-118.398438-49.101562-44.421875 0-87.015625 17.664062-118.402343 49.101562-30.257813 30.425782-48.480469 70.777344-51.296876 113.597657-1.457031 23.453125 1.984376 46.949219 10.097657 69 8 21.902343 21 42.601562 38.699219 61.402343l113.601562 121c1.890625 2.023438 4.53125 3.179688 7.300781 3.199219 2.777344.027344 5.4375-1.136719 7.300781-3.199219l113.597657-121c17.699219-18.800781 30.699219-39.5 38.699219-61.402343 8.214843-22.023438 11.65625-45.542969 10.101562-69-2.839844-42.8125-21.058594-83.160157-51.300781-113.597657zm22.300781 175.699219c-7.101562 19.398438-18.699219 37.800781-34.5 54.597657l-106.199219 113.203124-106.300781-113.203124c-15.800781-16.796876-27.398438-35.199219-34.5-54.597657-7.214844-19.414062-10.246094-40.132812-8.898438-60.800781 2.472657-37.996094 18.636719-73.808594 45.5-100.800781 27.621094-27.65625 65.109376-43.199219 104.199219-43.199219 39.089844 0 76.574219 15.542969 104.199219 43.199219 26.859375 26.992187 43.027344 62.804687 45.5 100.800781 1.269531 20.671875-1.796875 41.382812-9 60.800781zm0 0" fill="#0635c9"/><path d="m170.175781 81.601562c-43 0-78 35.796876-78 79.796876s35 79.800781 78 79.800781 78-35.800781 78-79.800781-35-79.796876-78-79.796876zm0 139.597657c-32 0-58-26.800781-58-59.800781s26-59.796876 58-59.796876 58 26.796876 58 59.796876-26 59.800781-58 59.800781zm0 0" fill="#1ae5be"/></svg>