<svg height="400pt" viewBox="-39 0 400 400" width="400pt" xmlns="http://www.w3.org/2000/svg"><path d="m94.230469 248.699219c-58.925781-61.417969-58.972657-160.964844-.132813-222.441407-14.84375 7.675782-28.3125 17.761719-39.855468 29.84375l-.011719.007813c-58.972657 61.464844-58.972657 161.121094 0 222.589844l106.796875 111.300781 34.390625-35.84375zm0 0" fill="#d4e1f4"/><path d="m161.027344 241.03125c-49.707032 0-90-40.296875-90-90 0-49.707031 40.292968-90 90-90 49.703125 0 90 40.292969 90 90 0 49.703125-40.296875 90-90 90zm0-160c-38.660156 0-70 31.339844-70 70s31.339844 70 70 70 70-31.339844 70-70-31.339844-70-70-70zm0 0" fill="#1ae5be"/><path d="m161.027344 400c-2.726563 0-5.332032-1.109375-7.21875-3.078125l-106.792969-111.300781c-30.320313-31.601563-47.015625-73.582032-47.015625-118.21875 0-44.632813 16.699219-86.617188 47.015625-118.214844l.054687-.058594c30.421876-31.683594 70.890626-49.128906 113.957032-49.128906s83.535156 17.449219 113.957031 49.132812l.050781.054688c30.320313 31.597656 47.015625 73.582031 47.015625 118.214844 0 44.636718-16.699219 86.617187-47.015625 118.21875l-106.792968 111.300781c-1.886719 1.964844-4.492188 3.078125-7.214844 3.078125zm-99.625-336.921875c-55.175782 57.554687-55.160156 151.160156.046875 208.699219l99.578125 103.777344 99.578125-103.78125c55.203125-57.535157 55.214843-151.144532.039062-208.699219l-.050781-.050781c-26.617188-27.746094-61.980469-43.023438-99.566406-43.023438-37.589844 0-72.949219 15.277344-99.570313 43.023438zm0 0" fill="#0635c9"/></svg>