<svg height="422pt" viewBox="-46 0 422 422.3" width="422pt" xmlns="http://www.w3.org/2000/svg"><path d="m281.425781 0h-140.601562c-26.800781 0-48.597657 22-48.597657 49.101562v65.097657c0 5.523437 4.476563 10 10 10 5.519532 0 10-4.476563 10-10v-65c-.074218-7.652344 2.902344-15.019531 8.265626-20.476563 5.363281-5.460937 12.679687-8.5625 20.332031-8.621094h140.699219c15.800781 0 28.601562 13.097657 28.601562 29.097657v324c.070312 7.652343-2.902344 15.019531-8.265625 20.480469-5.367187 5.457031-12.679687 8.558593-20.335937 8.621093h-140.699219c-15.800781 0-28.597657-13.101562-28.597657-29.101562v-64.597657c0-5.523437-4.480468-10-10-10-5.523437 0-10 4.476563-10 10v64.597657c0 27.101562 21.796876 49.101562 48.597657 49.101562h140.699219c26.800781 0 48.601562-22 48.601562-49.101562v-324c0-27.097657-21.800781-49.199219-48.699219-49.199219zm0 0" fill="#0635c9"/><path d="m169.226562 201.199219h-137.5l23.097657-27.300781c3.5625-4.222657 3.027343-10.535157-1.199219-14.097657s-10.539062-3.027343-14.101562 1.199219l-37 43.699219-.296876.300781c-.101562.101562-.203124.300781-.300781.398438-.125.097656-.199219.246093-.199219.402343-.101562.097657-.203124.300781-.300781.398438-.101562.101562-.101562.300781-.199219.402343-.101562.097657-.101562.296876-.203124.398438-.097657.101562-.097657.300781-.199219.398438-.097657.203124-.097657.300781-.199219.5 0 .101562-.101562.300781-.101562.402343 0 .199219-.097657.300781-.097657.5 0 .097657-.101562.300781-.101562.398438 0 .199219-.097657.402343-.097657.601562v.300781c-.101562.628907-.101562 1.269532 0 1.898438v.300781c0 .199219.097657.398438.097657.597657 0 .101562.101562.300781.101562.402343 0 .199219.097657.300781.097657.5 0 .097657.101562.300781.101562.398438.101562.199219.101562.300781.199219.5.101562.101562.101562.300781.199219.402343.101562.199219.101562.296876.203124.398438.097657.101562.097657.300781.199219.398438.097657.101562.199219.300781.300781.402343.097657.097657.097657.199219.199219.398438.097657.101562.199219.300781.300781.402343l.296876.296876 37 43.703124c3.605468 4.160157 9.894531 4.640626 14.089843 1.078126 4.199219-3.566407 4.738281-9.847657 1.210938-14.078126l-23.097657-26.902343h137.5c5.519532 0 10-4.476563 10-10 0-5.523438-4.480468-10-10-10zm0 0" fill="#1ae5be"/></svg>