<svg height="399pt" viewBox="0 -2 399.999 399" width="399pt" xmlns="http://www.w3.org/2000/svg"><path d="m10 395.886719c-4.023438 0-7.65625-2.414063-9.21875-6.121094-1.558594-3.707031-.7460938-7.992187 2.066406-10.867187l197.714844-202.28125c3.800781-4.007813 10.128906-4.179688 14.136719-.378907 4.011719 3.796875 4.183593 10.125.382812 14.136719-.070312.074219-.144531.148438-.21875.222656l-197.714843 202.277344c-1.878907 1.929688-4.457032 3.015625-7.148438 3.011719zm0 0" fill="#0635c9"/><g fill="#1ae5be"><path d="m224.410156 261.433594c-4.707031.003906-8.78125-3.28125-9.777344-7.882813l-13.722656-63.363281-61.816406-8.636719c-4.179688-.582031-7.542969-3.726562-8.40625-7.855469-.863281-4.128906.957031-8.355468 4.550781-10.566406l53.867188-33.128906-11.257813-64.078125c-.742187-4.214844 1.28125-8.433594 5.03125-10.492187 3.75-2.0625 8.394532-1.507813 11.554688 1.375l46.746094 42.648437 54.746093-30.613281c3.722657-2.082032 8.351563-1.578125 11.535157 1.257812 3.183593 2.835938 4.21875 7.378906 2.578124 11.316406l-24.886718 59.835938 45.382812 44.9375c3.003906 2.976562 3.8125 7.523438 2.015625 11.351562-1.796875 3.832032-5.808593 6.117188-10.015625 5.707032l-61.992187-6.003906-27.0625 58.398437c-1.636719 3.53125-5.175781 5.792969-9.070313 5.792969zm-55-95.839844 41.179688 5.75c4.152344.582031 7.5 3.691406 8.390625 7.789062l8.890625 41.046876 17.503906-37.785157c1.789062-3.851562 5.8125-6.15625 10.039062-5.75l41.085938 3.980469-30.203125-29.898438c-2.890625-2.863281-3.757813-7.191406-2.199219-10.945312l16.382813-39.390625-35.839844 20.042969c-3.757813 2.101562-8.441406 1.5625-11.621094-1.339844l-30.398437-27.746094 7.359375 41.886719c.707031 4.035156-1.121094 8.097656-4.613281 10.246094zm0 0"/><path d="m305.363281 285.558594c-3.386719.007812-6.542969-1.703125-8.390625-4.542969l-23.089844-35.445313c-3.015624-4.628906-1.707031-10.824218 2.917969-13.835937 4.628907-3.015625 10.824219-1.707031 13.839844 2.917969l23.089844 35.449218c2.003906 3.070313 2.164062 6.996094.417969 10.21875-1.746094 3.226563-5.117188 5.238282-8.785157 5.238282zm0 0"/><path d="m235.625 62.0625c-5.523438 0-10-4.476562-10-10v-41.5625c0-5.523438 4.476562-10 10-10s10 4.476562 10 10v41.5625c0 5.523438-4.476562 10-10 10zm0 0"/><path d="m335.828125 138.210938c-5.03125.003906-9.277344-3.734376-9.921875-8.722657-.640625-4.988281 2.519531-9.675781 7.386719-10.949219l54.164062-14.226562c5.34375-1.402344 10.808594 1.789062 12.214844 7.132812 1.402344 5.339844-1.789063 10.808594-7.132813 12.210938l-54.164062 14.226562c-.832031.21875-1.6875.328126-2.546875.328126zm0 0"/><path d="m136.414062 118.941406c-.574218 0-1.144531-.046875-1.710937-.144531l-40.105469-6.910156c-5.445312-.9375-9.097656-6.109375-8.160156-11.550781.9375-5.445313 6.113281-9.097657 11.554688-8.160157l40.105468 6.910157c5.121094.878906 8.714844 5.527343 8.273438 10.703124-.4375 5.175782-4.765625 9.152344-9.957032 9.152344zm0 0"/></g></svg>