<svg height="360pt" viewBox="-12 0 360 360" width="360pt" xmlns="http://www.w3.org/2000/svg"><path d="m283.828125 162.417969v-152.417969h-20c-11.046875 0-20 8.953125-20 20v162.417969c.023437 15.195312-4.511719 30.046875-13.023437 42.636719 31.585937-10.109376 53.019531-39.472657 53.023437-72.636719zm0 0" fill="#d4e1f4"/><path d="m207.582031 320c-87.03125.003906-157.582031-70.546875-157.585937-157.578125v-152.421875h-20c-11.046875 0-20 8.953125-20 20v162.417969c0 87.03125 70.554687 157.585937 157.585937 157.582031 42.722657.050781 83.625-17.296875 113.28125-48.050781-22.59375 11.890625-47.75 18.085937-73.28125 18.050781zm0 0" fill="#d4e1f4"/><g fill="#1ae5be"><path d="m244.511719 60.367188h81.335937v20h-81.335937zm0 0"/><path d="m9.113281 60.367188h83.25v20h-83.25zm0 0"/><path d="m244.511719 108.210938h81.335937v20h-81.335937zm0 0"/><path d="m9.113281 108.210938h83.25v20h-83.25zm0 0"/></g><path d="m167.582031 360c-92.398437 0-167.582031-75.175781-167.582031-167.582031v-162.417969c.0195312-16.5625 13.4375-29.9804688 30-30h41.332031c16.5625.0195312 29.984375 13.4375 30 30v162.417969c0 36.589843 29.660157 66.25 66.25 66.25 36.589844 0 66.25-29.660157 66.25-66.25v-162.417969c.019531-16.5625 13.441407-29.9804688 30-30h41.332031c16.5625.0195312 29.984376 13.4375 30 30v162.417969c-.003906 92.40625-75.183593 167.582031-167.582031 167.582031zm-137.585937-340c-5.519532.007812-9.992188 4.480469-10 10v162.417969c0 81.382812 66.203125 147.582031 147.585937 147.582031 81.382813 0 147.582031-66.199219 147.582031-147.582031v-162.417969c-.007812-5.519531-4.480468-9.992188-10-10h-41.335937c-5.519531.007812-9.996094 4.480469-10 10v162.417969c0 47.632812-38.617187 86.25-86.25 86.25-47.636719 0-86.25-38.617188-86.25-86.25v-162.417969c-.007813-5.519531-4.480469-9.992188-10-10zm0 0" fill="#0635c9"/></svg>