<svg height="400pt" viewBox="-131 0 400 400" width="400pt" xmlns="http://www.w3.org/2000/svg"><path d="m39.917969 48.648438c0-4.777344 3.871093-8.648438 8.648437-8.648438h79.515625v-21.351562c0-4.777344-3.871093-8.648438-8.648437-8.648438h-100.867188c-4.777344 0-8.648437 3.871094-8.648437 8.648438v362.699218c-.003907 4.777344 3.867187 8.648438 8.644531 8.652344h21.355469zm0 0" fill="#d4e1f4"/><g fill="#1ae5be"><path d="m126.941406 325.878906h-49.292968c-5.523438 0-10-4.476562-10-10 0-5.523437 4.476562-10 10-10h49.292968c5.519532 0 10 4.476563 10 10 0 5.523438-4.480468 10-10 10zm0 0"/><path d="m126.941406 248.914062h-31.132812c-5.523438 0-10-4.476562-10-10 0-5.523437 4.476562-10 10-10h31.132812c5.519532 0 10 4.476563 10 10 0 5.523438-4.480468 10-10 10zm0 0"/><path d="m126.941406 171.949219h-49.292968c-5.523438 0-10-4.476563-10-10 0-5.523438 4.476562-10 10-10h49.292968c5.519532 0 10 4.476562 10 10 0 5.523437-4.480468 10-10 10zm0 0"/><path d="m126.941406 94.121094h-31.132812c-5.523438 0-10-4.476563-10-10 0-5.523438 4.476562-10 10-10h31.132812c5.519532 0 10 4.476562 10 10 0 5.523437-4.480468 10-10 10zm0 0"/></g><path d="m138 18.648438c0-10.300782-8.347656-18.648438-18.648438-18.648438h-100.699218c-10.300782-.00390625-18.64843775 8.34375-18.652344 18.644531v362.699219c-.00390625 10.300781 8.34375 18.652344 18.644531 18.65625h100.699219c10.300781.003906 18.652344-8.34375 18.65625-18.644531zm-20 361.351562h-98v-360h98zm0 0" fill="#0635c9"/></svg>