<svg height="341pt" viewBox="0 -67 341.628 341" width="341pt" xmlns="http://www.w3.org/2000/svg"><g fill="#0635c9"><path d="m331.628906 208.132812h-321.628906c-5.523438 0-10-4.476562-10-10 0-5.523437 4.476562-10 10-10h321.628906c5.523438 0 10 4.476563 10 10 0 5.523438-4.476562 10-10 10zm0 0"/><path d="m331.628906 114.222656h-321.628906c-5.523438 0-10-4.476562-10-10 0-5.523437 4.476562-10 10-10h321.628906c5.523438 0 10 4.476563 10 10 0 5.523438-4.476562 10-10 10zm0 0"/><path d="m331.628906 20.3125h-321.628906c-5.523438 0-10-4.476562-10-10 0-5.519531 4.476562-10 10-10h321.628906c5.523438 0 10 4.480469 10 10 0 5.523438-4.476562 10-10 10zm0 0"/></g></svg>