<svg height="450pt" viewBox="-101 0 450 450" width="450pt" xmlns="http://www.w3.org/2000/svg"><path d="m84.898438 242.699219v-133.597657c-.011719-18.332031 7.265624-35.914062 20.226562-48.875 12.960938-12.964843 30.542969-20.238281 48.875-20.226562 10.949219.023438 21.742188 2.628906 31.5 7.601562-11.835938-23.066406-35.574219-37.582031-61.5-37.601562-18.332031-.011719-35.914062 7.261719-48.875 20.226562-12.960938 12.960938-20.238281 30.542969-20.226562 48.875v133.597657c.023437 25.925781 14.535156 49.664062 37.601562 61.5-4.996094-9.75-7.597656-20.546875-7.601562-31.5zm0 0" fill="#d4e1f4"/><path d="m238 209.300781c-5.515625.015625-9.984375 4.484375-10 10 0 55.398438-46.699219 100.5-104 100.5s-104-45.101562-104-100.5c0-5.523437-4.476562-10-10-10s-10 4.476563-10 10c0 63.199219 50.300781 115.199219 114 120.199219v90.5h-38.398438c-5.523437 0-10 4.476562-10 10s4.476563 10 10 10h96.699219c5.523438 0 10-4.476562 10-10s-4.476562-10-10-10h-38.300781v-90.601562c63.699219-5 114-57 114-120.199219-.058594-5.480469-4.519531-9.894531-10-9.898438zm0 0" fill="#0635c9"/><path d="m124 0c-43.660156.0625-79.039062 35.4375-79.101562 79.101562v133.597657c0 43.6875 35.414062 79.101562 79.101562 79.101562s79.101562-35.414062 79.101562-79.101562v-133.597657c-.0625-43.664062-35.441406-79.039062-79.101562-79.101562zm59.101562 212.699219c0 32.640625-26.460937 59.101562-59.101562 59.101562s-59.101562-26.460937-59.101562-59.101562v-133.597657c0-32.640624 26.460937-59.101562 59.101562-59.101562s59.101562 26.460938 59.101562 59.101562zm0 0" fill="#1ae5be"/></svg>