<svg height="410pt" viewBox="-80 0 410 410" width="410pt" xmlns="http://www.w3.org/2000/svg"><path d="m50 74.515625c0-13.539063 11.292969-24.515625 25.226562-24.515625h165.398438v-15.484375c0-13.539063-11.292969-24.515625-25.226562-24.515625h-180.171876c-13.933593 0-25.226562 10.976562-25.226562 24.515625v340.96875c0 13.539063 11.292969 24.515625 25.226562 24.515625h14.773438zm0 0" fill="#d4e1f4"/><path d="m192.695312 335.714844h-134.769531c-11.039062-.015625-19.984375-8.960938-20-20v-258.570313c.015625-11.042969 8.960938-19.988281 20-20h134.769531c11.042969.011719 19.988282 8.957031 20 20v258.570313c-.011718 11.039062-8.957031 19.984375-20 20zm-134.769531-278.570313v258.570313h134.769531v-258.570313zm0 0" fill="#1ae5be"/><g fill="#0635c9"><path d="m215.398438 410h-180.171876c-19.425781 0-35.226562-15.484375-35.226562-34.515625v-340.96875c0-19.03125 15.800781-34.515625 35.226562-34.515625h180.171876c19.421874 0 35.226562 15.484375 35.226562 34.515625v340.96875c0 19.03125-15.804688 34.515625-35.226562 34.515625zm-180.171876-390c-8.402343 0-15.226562 6.511719-15.226562 14.515625v340.96875c0 8 6.828125 14.515625 15.226562 14.515625h180.171876c8.402343 0 15.226562-6.511719 15.226562-14.515625v-340.96875c0-8-6.832031-14.515625-15.226562-14.515625zm0 0"/><path d="m125.3125 386.429688c-12.96875-.214844-23.328125-10.863282-23.1875-23.832032.144531-12.96875 10.734375-23.386718 23.703125-23.316406 12.96875.074219 23.445313 10.605469 23.445313 23.574219 0 6.320312-2.535157 12.375-7.042969 16.808593-4.503907 4.429688-10.597657 6.867188-16.917969 6.765626zm0-27.144532c-1.925781.203125-3.34375 1.890625-3.210938 3.820313.132813 1.929687 1.773438 3.410156 3.707032 3.339843 1.933594-.066406 3.464844-1.652343 3.464844-3.589843-.113282-2.074219-1.882813-3.671875-3.960938-3.570313zm0 0"/></g></svg>