<svg height="385pt" viewBox="-32 0 385 385.92931" width="385pt" xmlns="http://www.w3.org/2000/svg"><path d="m238.164062 295.128906c.011719-25.511718 20.691407-46.1875 46.199219-46.199218 7.34375-.019532 14.582031 1.726562 21.101563 5.101562-9.125-17.777344-28.644532-27.671875-48.375-24.527344-19.730469 3.148438-35.203125 18.621094-38.347656 38.351563-3.148438 19.730469 6.746093 39.25 24.523437 48.375-3.371094-6.523438-5.121094-13.761719-5.101563-21.101563zm0 0" fill="#d4e1f4"/><path d="m30.464844 349.730469c.011718-25.511719 20.6875-46.191407 46.199218-46.199219 7.339844-.023438 14.578126 1.726562 21.101563 5.097656-9.125-17.773437-28.644531-27.667968-48.375-24.523437s-35.203125 18.617187-38.351563 38.351562c-3.144531 19.730469 6.75 39.246094 24.527344 48.371094-3.375-6.519531-5.121094-13.757813-5.101562-21.097656zm0 0" fill="#d4e1f4"/><path d="m302.265625 11.429688c-11.496094-9.515626-26.65625-13.371094-41.300781-10.5l-127.699219 24.800781c-23.476563 4.625-40.425781 25.171875-40.5 49.097656v252c0 5.523437 4.476563 10 10 10s10-4.476563 10-10v-252c.019531-14.351563 10.207031-26.679687 24.300781-29.398437l127.699219-24.800782c8.78125-1.710937 17.871094.59375 24.78125 6.285156 6.90625 5.6875 10.910156 14.167969 10.917969 23.117188v222.199219c0 5.523437 4.476562 10 10 10 5.523437 0 10-4.476563 10-10v-222.199219c.046875-14.949219-6.636719-29.128906-18.199219-38.601562zm0 0" fill="#0635c9"/><g fill="#1ae5be"><path d="m264.265625 218.929688c-31.039063 0-56.199219 25.160156-56.199219 56.199218 0 31.039063 25.160156 56.199219 56.199219 56.199219s56.199219-25.160156 56.199219-56.199219c-.027344-31.027344-25.171875-56.171875-56.199219-56.199218zm0 92.300781c-19.992187 0-36.199219-16.207031-36.199219-36.199219 0-19.996094 16.207032-36.203125 36.199219-36.203125s36.199219 16.207031 36.199219 36.203125c-.03125 19.976562-16.21875 36.167969-36.199219 36.199219zm0 0"/><path d="m56.664062 273.53125c-31.039062 0-56.199218 25.160156-56.199218 56.199219 0 31.039062 25.160156 56.199219 56.199218 56.199219 31.039063 0 56.199219-25.160157 56.199219-56.199219-.027343-31.027344-25.171875-56.175781-56.199219-56.199219zm0 92.398438c-19.992187 0-36.199218-16.207032-36.199218-36.199219 0-19.992188 16.207031-36.199219 36.199218-36.199219 19.992188 0 36.199219 16.207031 36.199219 36.199219-.027343 19.980469-16.21875 36.167969-36.199219 36.199219zm0 0"/></g></svg>