<svg height="400pt" viewBox="-29 0 400 400" width="400pt" xmlns="http://www.w3.org/2000/svg"><path d="m99.644531 340c-22.09375 0-40-17.910156-40-40v-290h-10c-22.09375 0-40 17.910156-40 40v300c0 22.089844 17.90625 40 40 40h246.121094c20.207031 0 36.59375-16.382812 36.59375-36.59375v-13.40625zm0 0" fill="#d4e1f4"/><g fill="#1ae5be"><path d="m158.539062 184.671875h-75.710937c-5.519531 0-10-4.480469-10-10 0-5.523437 4.480469-10 10-10h75.710937c5.523438 0 10 4.476563 10 10 0 5.519531-4.476562 10-10 10zm0 0"/><path d="m259.171875 248.710938h-176.34375c-5.519531 0-10-4.480469-10-10 0-5.523438 4.480469-10 10-10h176.34375c5.523437 0 10 4.476562 10 10 0 5.519531-4.476563 10-10 10zm0 0"/><path d="m259.171875 312.746094h-176.34375c-5.519531 0-10-4.476563-10-10 0-5.519532 4.480469-10 10-10h176.34375c5.523437 0 10 4.480468 10 10 0 5.523437-4.476563 10-10 10zm0 0"/></g><path d="m292.359375 0h-242.714844c-27.480469.0585938-49.707031 22.382812-49.644531 49.863281v300.136719c-.136719 27.476562 22.027344 49.863281 49.503906 50h246.261719c25.59375-.058594 46.292969-20.851562 46.234375-46.445312v-303.554688c.136719-27.476562-22.023438-49.859375-49.5-50zm-189.359375 20h136v44.390625c-.046875 5.355469-4.425781 9.660156-9.785156 9.613281-.078125 0-.15625 0-.234375 0h-115.957031c-5.355469.179688-9.839844-4.015625-10.019532-9.371094 0-.078124 0-.160156 0-.238281zm219 333.40625c.152344 14.535156-11.507812 26.441406-26.042969 26.59375h-246.3125c-16.421875-.046875-29.691406-13.398438-29.644531-29.816406 0-.0625 0-.121094 0-.183594v-300c-.148438-16.417969 13.042969-29.851562 29.460938-30h33.539062v44.390625c.0625 16.414063 13.417969 29.671875 29.832031 29.609375h116.148438c16.414062.167969 29.855469-13.003906 30.019531-29.421875 0-.0625 0-.125 0-.1875v-44.390625h33.359375c16.417969.046875 29.6875 13.398438 29.640625 29.816406v.183594zm0 0" fill="#0635c9"/></svg>