<svg height="420pt" viewBox="0 -92 420.1 420" width="420pt" xmlns="http://www.w3.org/2000/svg"><path d="m50 157.949219c-.007812-59.59375 48.304688-107.90625 107.898438-107.898438h184.300781c18.796875-.011719 37.273437 4.882813 53.601562 14.199219-19.230469-33.535156-54.941406-54.214844-93.601562-54.199219h-184.300781c-48.890626.003907-91.667969 32.878907-104.257813 80.121094-12.589844 47.238281 8.15625 97.042969 50.558594 121.378906-9.316407-16.328125-14.210938-34.804687-14.199219-53.601562zm0 0" fill="#d4e1f4"/><path d="m292.101562 42.949219c-41.421874 0-75 33.578125-75 75s33.578126 75 75 75c41.417969 0 75-33.578125 75-75-.050781-41.398438-33.601562-74.949219-75-75zm0 130c-30.378906 0-55-24.625-55-55s24.621094-55 55-55c30.375 0 55 24.625 55 55-.054687 30.355469-24.648437 54.945312-55 55zm0 0" fill="#1ae5be"/><path d="m302.101562.0507812h-184.203124c-65.113282 0-117.898438 52.7851568-117.898438 117.8984378s52.785156 117.902343 117.898438 117.902343h184.300781c65.082031-.082031 117.820312-52.820312 117.902343-117.902343-.101562-65-53-117.8984378-118-117.8984378zm0 215.8007808h-184.203124c-54.066407 0-97.898438-43.832031-97.898438-97.902343 0-54.066407 43.832031-97.898438 97.898438-97.898438h184.300781c54.070312.027344 97.878906 43.878907 97.851562 97.949219-.027343 54.070312-43.882812 97.878906-97.949219 97.851562zm0 0" fill="#0635c9"/></svg>