<svg height="485pt" viewBox="0 -26 485.8 485" width="485pt" xmlns="http://www.w3.org/2000/svg"><g fill="#d4e1f4"><path d="m272.898438 120.398438c-38.660157 0-70-31.339844-70-70-.007813-11.195313 2.675781-22.226563 7.835937-32.164063-23.242187 12.019531-37.835937 36-37.835937 62.164063 0 38.660156 31.339843 70 70 70 26.167968.003906 50.148437-14.589844 62.167968-37.832032-9.9375 5.15625-20.96875 7.84375-32.167968 7.832032zm0 0"/><path d="m239.359375 391.453125c-11.046875 0-20-8.953125-20-20v-55.136719h-10c-11.046875 0-20 8.953125-20 20v65.136719c0 11.046875 8.953125 20 20 20h67.082031c11.042969 0 20-8.953125 20-20v-10zm0 0"/><path d="m418.71875 391.453125c-11.042969 0-20-8.953125-20-20v-55.136719h-10c-11.042969 0-20 8.953125-20 20v65.136719c0 11.046875 8.957031 20 20 20h67.082031c11.042969 0 20-8.953125 20-20v-10zm0 0"/><path d="m60 391.453125c-11.046875 0-20-8.953125-20-20v-55.136719h-10c-11.046875 0-20 8.953125-20 20v65.136719c0 11.046875 8.953125 20 20 20h67.078125c11.046875 0 20-8.953125 20-20v-10zm0 0"/></g><path d="m400.714844 258.21875h-147.816406v-110.382812h-20v110.382812h-147.8125c-16.921876.019531-30.632813 13.730469-30.652344 30.652344v23.582031h20v-23.582031c.007812-5.882813 4.769531-10.644532 10.652344-10.652344h147.8125v38.964844h20v-38.964844h147.816406c5.878906.007812 10.644531 4.769531 10.652344 10.652344v23.582031h20v-23.582031c-.019532-16.921875-13.730469-30.632813-30.652344-30.652344zm0 0" fill="#1ae5be"/><path d="m55.792969 394.941406c-2.089844.003906-4.097657-.8125-5.59375-2.277344l-19.328125-18.871093c-3.164063-3.085938-3.222656-8.152344-.132813-11.316407 3.085938-3.160156 8.152344-3.21875 11.3125-.132812l13.742188 13.417969 29.234375-28.542969c3.164062-3.089844 8.226562-3.027344 11.316406.132812 3.085938 3.160157 3.023438 8.226563-.136719 11.3125l-34.824219 34c-1.496093 1.460938-3.5 2.277344-5.589843 2.277344zm0 0" fill="#1ae5be"/><path d="m235.152344 394.941406c-2.089844 0-4.09375-.816406-5.589844-2.277344l-19.328125-18.871093c-3.160156-3.085938-3.222656-8.152344-.136719-11.3125 3.089844-3.160157 8.152344-3.222657 11.3125-.136719l13.742188 13.417969 29.234375-28.542969c3.164062-3.089844 8.226562-3.027344 11.3125.132812 3.089843 3.160157 3.027343 8.226563-.132813 11.3125l-34.824218 34c-1.492188 1.460938-3.5 2.277344-5.589844 2.277344zm0 0" fill="#1ae5be"/><path d="m414.511719 394.941406c-2.089844 0-4.09375-.816406-5.589844-2.277344l-19.328125-18.871093c-3.160156-3.085938-3.222656-8.152344-.136719-11.3125 3.085938-3.160157 8.152344-3.222657 11.3125-.136719l13.742188 13.417969 29.238281-28.542969c2.023438-2.03125 4.980469-2.824219 7.75-2.074219 2.765625.746094 4.921875 2.917969 5.652344 5.691407.726562 2.773437-.085938 5.726562-2.128906 7.734374l-.101563.09375-34.824219 34c-1.492187 1.460938-3.496094 2.277344-5.585937 2.277344zm0 0" fill="#1ae5be"/><path d="m276.441406 432.511719h-67.082031c-16.558594-.019531-29.980469-13.441407-30-30v-65.140625c.019531-16.558594 13.441406-29.980469 30-30h67.082031c16.558594.019531 29.980469 13.441406 30 30v65.140625c-.019531 16.558593-13.441406 29.980469-30 30zm-67.082031-105.140625c-5.519531.007812-9.992187 4.480468-10 10v65.140625c.007813 5.519531 4.480469 9.992187 10 10h67.082031c5.519532-.007813 9.992188-4.480469 10-10v-65.140625c-.007812-5.519532-4.480468-9.992188-10-10zm0 0" fill="#0635c9"/><path d="m455.800781 432.511719h-67.082031c-16.558594-.019531-29.980469-13.441407-30-30v-65.140625c.019531-16.558594 13.441406-29.980469 30-30h67.082031c16.558594.019531 29.980469 13.441406 30 30v65.140625c-.019531 16.558593-13.441406 29.980469-30 30zm-67.082031-105.140625c-5.519531.007812-9.992188 4.480468-10 10v65.140625c.007812 5.519531 4.480469 9.992187 10 10h67.082031c5.519531-.007813 9.992188-4.480469 10-10v-65.140625c-.007812-5.519532-4.480469-9.992188-10-10zm0 0" fill="#0635c9"/><path d="m97.082031 432.511719h-67.082031c-16.5625-.019531-29.9804688-13.441407-30-30v-65.140625c.0195312-16.558594 13.4375-29.980469 30-30h67.082031c16.558594.019531 29.980469 13.441406 30 30v65.140625c-.019531 16.558593-13.441406 29.980469-30 30zm-67.082031-105.140625c-5.519531.007812-9.992188 4.480468-10 10v65.140625c.007812 5.519531 4.480469 9.992187 10 10h67.082031c5.519531-.007813 9.992188-4.480469 10-10v-65.140625c-.007812-5.519532-4.480469-9.992188-10-10zm0 0" fill="#0635c9"/><path d="m242.898438 160.398438c-44.179688 0-80-35.816407-80-80 0-44.179688 35.820312-80 80-80 44.183593 0 80 35.820312 80 80 0 44.183593-35.816407 80-80 80zm0-140c-33.136719 0-60 26.863281-60 60 0 33.136718 26.863281 60 60 60 33.136718 0 60-26.863282 60-60 0-33.136719-26.863282-60-60-60zm0 0" fill="#0635c9"/></svg>