<svg height="370pt" viewBox="0 -16 370.29173 370" width="370pt" xmlns="http://www.w3.org/2000/svg"><path d="m270.992188 159.148438h-238.890626l51.308594-59.152344c3.503906-4.179688 3.015625-10.398438-1.101562-13.980469-4.117188-3.582031-10.347656-3.203125-14 .851563l-64.667969 74.503906c-2.386719 1.964844-3.7265625 4.921875-3.63671875 8.007812.09374995 3.085938 1.60546875 5.957032 4.10546875 7.777344l64.675781 64.675781c3.894532 3.90625 10.222656 3.910157 14.128906.015625 3.902344-3.898437 3.910157-10.222656.011719-14.128906l-48.601562-48.570312h236.667969c5.523437 0 10-4.480469 10-10 0-5.523438-4.476563-10-10-10zm0 0" fill="#1ae5be"/><path d="m330.582031.148438h-134.199219c-21.992187-.15234425-39.941406 17.550781-40.089843 39.542968v35.742188c0 5.523437 4.476562 10 10 10 5.519531 0 10-4.476563 10-10v-35.640625c.082031-10.933594 9.015625-19.730469 19.949219-19.644531h134.339843c10.753907-.132813 19.578125 8.480468 19.710938 19.234374v.410157 258.589843c.101562 10.808594-8.574219 19.660157-19.386719 19.765626h-134.523438c-10.988281.105468-19.984374-8.71875-20.089843-19.707032v-34.960937c0-5.523438-4.480469-10-10-10-5.523438 0-10 4.476562-10 10v34.902343c.085937 22.046876 18.027343 39.851563 40.074219 39.765626h134.214843c21.867188.058593 39.648438-17.621094 39.710938-39.488282v-258.867187c.082031-21.8125-17.53125-39.5625-39.34375-39.644531-.121094 0-.242188 0-.367188 0zm0 0" fill="#0635c9"/></svg>