<svg height="400pt" viewBox="-5 0 400 400" width="400pt" xmlns="http://www.w3.org/2000/svg"><path d="m355.429688 237.101562h-115.925782c-22.09375 0-40-17.910156-40-40v-156.167968c0-3.023438.34375-6.035156 1.023438-8.976563-18.15625 4.183594-31.019532 20.34375-31.023438 38.976563v156.167968c0 22.089844 17.90625 40 40 40h115.925782c18.628906-.003906 34.792968-12.871093 38.972656-31.027343-2.941406.679687-5.953125 1.023437-8.972656 1.027343zm0 0" fill="#d4e1f4"/><path d="m101.246094 314.191406c-5.523438 0-10-4.480468-10-10v-254.175781c-.019532-16.570313-13.445313-29.996094-30.015625-30.015625h-51.230469c-5.523438 0-10-4.476562-10-10s4.476562-10 10-10h51.230469c27.609375.03125 49.984375 22.40625 50.015625 50.015625v254.175781c0 5.519532-4.476563 10-10 10zm0 0" fill="#0635c9"/><path d="m379.628906 358.96875h-236.5625c-5.523437 0-10-4.476562-10-10s4.476563-10 10-10h236.5625c5.523438 0 10 4.476562 10 10s-4.476562 10-10 10zm0 0" fill="#0635c9"/><g fill="#1ae5be"><path d="m100.28125 400c-28.46875 0-51.550781-23.078125-51.550781-51.550781 0-28.46875 23.082031-51.546875 51.550781-51.546875s51.546875 23.078125 51.546875 51.546875c0 28.472656-23.078125 51.550781-51.546875 51.550781zm0-83.101562c-17.425781 0-31.550781 14.125-31.550781 31.550781 0 17.421875 14.125 31.546875 31.550781 31.546875 17.421875 0 31.546875-14.125 31.546875-31.546875 0-17.425781-14.125-31.550781-31.546875-31.550781zm0 0"/><path d="m267.464844 277.101562c-5.523438 0-10-4.480468-10-10v-236.167968c0-5.523438 4.476562-10 10-10 5.523437 0 10 4.476562 10 10v236.167968c0 5.519532-4.476563 10-10 10zm0 0"/><path d="m364.539062 159.015625h-195.148437c-5.523437 0-10-4.476563-10-10s4.476563-10 10-10h195.148437c5.523438 0 10 4.476563 10 10s-4.476562 10-10 10zm0 0"/></g><path d="m325.429688 277.101562h-115.925782c-27.601562-.03125-49.96875-22.398437-50-50v-156.167968c.03125-27.601563 22.398438-49.96875 50-50h115.925782c27.597656.03125 49.96875 22.398437 50 50v156.167968c-.03125 27.601563-22.402344 49.96875-50 50zm-115.925782-236.167968c-16.5625.019531-29.980468 13.4375-30 30v156.167968c.019532 16.558594 13.4375 29.980469 30 30h115.925782c16.558593-.019531 29.980468-13.441406 30-30v-156.167968c-.019532-16.5625-13.441407-29.980469-30-30zm0 0" fill="#0635c9"/></svg>