<svg height="420pt" viewBox="-49 0 420 420" width="420pt" xmlns="http://www.w3.org/2000/svg"><path d="m126.5 10.101562 79.800781.097657v40l-25.902343-.199219h-90.398438c-22.09375-.007812-40.007812 17.90625-40 40v318.699219c-22.09375.007812-40.007812-17.90625-40-40v-318.699219c-.007812-22.09375 17.90625-40.007812 40-40zm0 0" fill="#d4e1f4"/><path d="m211.898438 3.101562c-1.660157-1.609374-3.804688-2.625-6.097657-2.902343l-2.300781-.199219h-153.5c-27.609375.0117188-49.9882812 22.390625-50 50v320c.0117188 27.609375 22.390625 49.988281 50 50h222.699219c27.609375-.011719 49.992187-22.390625 50-50v-252.101562c-.019531-2.648438-1.058594-5.191407-2.898438-7.097657zm2.703124 31 74.199219 74h-44.199219c-16.550781-.050781-29.953124-13.453124-30-30zm58.199219 365.898438h-222.800781c-16.546875-.046875-29.953125-13.453125-30-30v-320c.046875-16.546875 13.453125-29.953125 30-30h144.601562v58.101562c.007813 27.609376 22.386719 49.988282 50 50h58.097657v241.898438c.035156 16.542969-13.355469 29.980469-29.898438 30zm0 0" fill="#0635c9"/><g fill="#1ae5be"><path d="m84.101562 193h88.097657c5.523437 0 10-4.476562 10-10s-4.476563-10-10-10h-88.097657c-5.523437 0-10 4.476562-10 10s4.476563 10 10 10zm0 0"/><path d="m258.699219 248.601562h-174.597657c-5.523437 0-10 4.476563-10 10 0 5.519532 4.476563 10 10 10h174.597657c5.523437 0 10-4.480468 10-10 0-5.523437-4.476563-10-10-10zm0 0"/><path d="m258.699219 324.300781h-174.597657c-5.523437 0-10 4.476563-10 10 0 5.523438 4.476563 10 10 10h174.597657c5.523437 0 10-4.476562 10-10 0-5.523437-4.476563-10-10-10zm0 0"/></g></svg>