<svg height="465pt" viewBox="-22 0 465 465.6" width="465pt" xmlns="http://www.w3.org/2000/svg"><g fill="#d4e1f4"><path d="m410.300781 111.101562v.199219h-61.300781c-22.09375.003907-40.007812-17.90625-40-40v-31.300781h4.101562v-26zm0 0"/><path d="m293.800781 182v.199219h-61.300781c-22.09375.007812-40.007812-17.90625-40-40v-21.097657h.199219v-40zm0 0"/><path d="m313.101562 14.101562v25.898438h-4.101562v-29.800781h.300781zm0 0"/><path d="m313.101562 10.199219v3.902343l-3.800781-3.902343h-.101562zm0 0"/><path d="m309 10.199219v29.800781h-102.199219c-22.09375-.007812-40.007812 17.90625-40 40h-40v-30c-.007812-22.09375 17.90625-40.007812 40-40zm0 0"/><path d="m192.601562 81.101562h.199219v40h-.199219zm0 0"/><path d="m126.800781 81 65.800781.101562v40l-11.902343-.203124h-90.398438c-22.09375-.003907-40.007812 17.90625-40 40v294.703124c-22.09375.003907-40.007812-17.90625-40-40v-294.703124c-.007812-22.09375 17.90625-40.003907 40-40zm0 0"/></g><path d="m316.300781 3.101562c-1.664062-1.609374-3.804687-2.625-6.101562-2.902343l-2.097657-.199219h-141.300781c-27.609375.0117188-49.992187 22.390625-50 50v20.898438h-66.5c-27.609375.011718-49.992187 22.390624-50 50v294.703124c.007813 27.609376 22.390625 49.988282 50 50h203.5c27.609375-.011718 49.988281-22.390624 50-50v-20.902343h66.5c27.609375-.007813 49.988281-22.390625 50-50v-233.597657c-.019531-2.652343-1.058593-5.195312-2.902343-7.101562zm2.699219 31 67.300781 67.199219h-37.300781c-16.546875-.050781-29.953125-13.453125-30-30zm-65.199219 411.5h-203.5c-16.550781-.050781-29.953125-13.453124-30-30v-294.703124c.046875-16.546876 13.449219-29.949219 30-30h132.300781v51.300781c.007813 27.609375 22.386719 49.992187 50 50h51.296876v223.402343c-.09375 16.566407-13.53125 29.957032-30.097657 30zm-51.199219-340.601562 67.296876 67.199219h-37.296876c-16.550781-.046875-29.953124-13.449219-30-30zm167.699219 269.699219h-66.5v-192.699219c-.019531-2.652344-1.058593-5.191406-2.902343-7.101562l-101-100.898438c-1.660157-1.605469-3.804688-2.625-6.097657-2.898438l-2.101562-.203124h-54.898438v-20.898438c.046875-16.546875 13.449219-29.953125 30-30h132.300781v51.300781c.007813 27.609375 22.386719 49.988281 50 50h51.199219v223.398438c-.050781 16.550781-13.453125 29.953125-30 30zm0 0" fill="#0635c9"/></svg>