<svg height="320pt" viewBox="-37 0 320 320.00002" width="320pt" xmlns="http://www.w3.org/2000/svg"><path d="m39.898438 40h56.5v-30h-86.5v300h30zm0 0" fill="#d4e1f4"/><path d="m180.398438 40h56.5v-30h-86.5v300h30zm0 0" fill="#d4e1f4"/><g fill="#0635c9"><path d="m96.398438 0h-86.398438c-5.515625.015625-9.984375 4.484375-10 10v300c.015625 5.515625 4.484375 9.984375 10 10h86.398438c5.519531-.015625 9.984374-4.484375 10-10v-300c-.015626-5.515625-4.480469-9.984375-10-10zm-10 300h-66.398438v-280h66.398438zm0 0"/><path d="m236.898438 0h-86.5c-5.515626.015625-9.984376 4.484375-10 10v300c.015624 5.515625 4.484374 9.984375 10 10h86.402343c5.515625-.015625 9.984375-4.484375 10-10v-300c.03125-2.644531-1-5.191406-2.859375-7.070312-1.859375-1.878907-4.398437-2.93359425-7.042968-2.929688zm-10 300h-66.5v-280h66.402343v280zm0 0"/></g></svg>