<svg height="366pt" viewBox="0 -7 366.96233 366" width="366pt" xmlns="http://www.w3.org/2000/svg"><path d="m169.824219 183.582031c-1.867188-1.875-4.402344-2.925781-7.050781-2.925781-2.644532 0-5.179688 1.050781-7.046876 2.925781l-152.800781 152.699219c-1.875 1.867188-2.925781 4.40625-2.925781 7.050781s1.050781 5.179688 2.925781 7.050781c1.875 1.886719 4.4375 2.933594 7.097657 2.898438 2.65625-.011719 5.199218-1.050781 7.101562-2.898438l152.699219-152.703124c1.875-1.867188 2.925781-4.402344 2.925781-7.046876 0-2.648437-1.050781-5.183593-2.925781-7.050781zm0 0" fill="#1ae5be"/><path d="m122.726562 145.882812c7.875-7.875 18.558594-12.300781 29.699219-12.300781h38.097657l41.601562-41.601562-5.398438-29.300781c16.441407-16.398438 43.054688-16.398438 59.5 0l58.5 58.5c2.890626 2.863281 5.347657 6.128906 7.296876 9.703124 8.835937-16.359374 5.867187-36.574218-7.296876-49.703124l-58.5-58.5c-16.445312-16.398438-43.058593-16.398438-59.5 0l-11.902343 11.902343 17.402343 17.398438-41.601562 41.601562h-38.101562c-11.140626-.019531-21.832032 4.40625-29.699219 12.300781l-22.398438 22.398438 20 20zm0 0" fill="#d4e1f4"/><path d="m351.824219 74.179688-58.5-58.5c-20.347657-20.265626-53.25-20.265626-73.597657 0l-11.902343 11.902343c-1.878907 1.878907-2.925781 4.4375-2.898438 7.097657.019531 2.652343 1.058594 5.195312 2.898438 7.101562l10.300781 10.300781-31.601562 31.597657h-34c-13.800782-.042969-27.050782 5.429687-36.796876 15.203124l-22.402343 22.398438c-1.878907 1.882812-2.925781 4.441406-2.898438 7.101562.019531 2.648438 1.058594 5.191407 2.898438 7.097657l138.699219 138.699219c1.878906 1.890624 4.441406 2.9375 7.101562 2.902343 2.652344-.011719 5.199219-1.050781 7.101562-2.902343l22.398438-22.398438c9.773438-9.746094 15.246094-22.996094 15.199219-36.800781v-34l31.601562-31.597657 10.300781 10.296876c1.867188 1.875 4.402344 2.925781 7.046876 2.925781 2.648437 0 5.183593-1.050781 7.050781-2.925781l11.902343-11.898438c20.277344-20.328125 20.320313-53.21875.097657-73.601562zm-14.199219 59.402343-4.800781 4.800781-10.300781-10.300781c-1.878907-1.882812-4.4375-2.925781-7.097657-2.902343-2.652343.019531-5.195312 1.058593-7.101562 2.902343l-41.597657 41.597657c-1.882812 1.882812-2.929687 4.441406-2.902343 7.101562v38.101562c.039062 8.519532-3.347657 16.699219-9.398438 22.699219l-15.300781 15.300781-124.699219-124.601562 15.300781-15.300781c5.996094-6.050781 14.175782-9.4375 22.699219-9.398438h38.097657c2.652343-.019531 5.195312-1.058593 7.101562-2.902343l41.601562-41.597657c1.878907-1.882812 2.925782-4.441406 2.898438-7.101562-.019531-2.648438-1.058594-5.191407-2.898438-7.097657l-10.300781-10.300781 4.800781-4.800781c12.535157-12.535156 32.859376-12.535156 45.398438 0l58.5 58.5c12.5 12.511719 12.5 32.785156 0 45.300781zm0 0" fill="#0635c9"/></svg>