<svg height="400pt" viewBox="0 -17 400 400" width="400pt" xmlns="http://www.w3.org/2000/svg"><path d="m156.988281 204.414062c-29.101562-42.058593-23.144531-97.800781 14.242188-133.421874 30.042969-28.617188 72.972656-37.464844 110.992187-26.558594-1.121094-1.167969-2.273437-2.3125-3.453125-3.441406-43.5-41.4375-114.035156-41.4375-157.539062 0-37.386719 35.617187-43.339844 91.363281-14.242188 133.421874l93.011719 134.441407 14.621094-21.132813zm0 0" fill="#d4e1f4"/><path d="m200 365.585938c-51.5625 0-100.160156-5.179688-136.835938-14.585938-41.910156-10.75-63.164062-25.601562-63.164062-44.140625 0-16.710937 17.371094-30.476563 51.636719-40.917969 29.152343-8.886718 69.398437-14.921875 113.3125-16.992187 5.511719-.3125 10.234375 3.90625 10.542969 9.421875.3125 5.515625-3.90625 10.234375-9.421876 10.546875l-.179687.007812c-42.300781 2-80.8125 7.726563-108.421875 16.144531-37.039062 11.289063-37.46875 21.683594-37.46875 21.789063 0 3.457031 8.648438 14.640625 48.132812 24.769531 35.101563 9 81.929688 13.957032 131.867188 13.957032s96.769531-4.957032 131.867188-13.957032c39.484374-10.128906 48.132812-21.3125 48.132812-24.769531 0-.101563-.429688-10.476563-37.363281-21.757813-27.539063-8.410156-65.960938-14.148437-108.1875-16.160156-5.492188-.296875-9.714844-4.96875-9.453125-10.460937.261718-5.492188 4.910156-9.746094 10.402344-9.515625 43.835937 2.089844 84 8.128906 113.078124 17.007812 34.1875 10.441406 51.523438 24.195313 51.523438 40.886719 0 18.539063-21.253906 33.394531-63.164062 44.140625-36.675782 9.40625-85.273438 14.585938-136.835938 14.585938zm0 0" fill="#1ae5be"/><path d="m200 163.636719c-29.585938 0-53.570312-23.980469-53.570312-53.566407 0-29.585937 23.984374-53.566406 53.566406-53.566406 29.585937-.003906 53.570312 23.980469 53.570312 53.566406-.03125 29.570313-23.996094 53.535157-53.566406 53.566407zm0-87.132813c-18.539062 0-33.570312 15.027344-33.570312 33.566406 0 18.539063 15.027343 33.566407 33.566406 33.570313 18.539062 0 33.570312-15.03125 33.570312-33.570313-.015625-18.53125-15.035156-33.550781-33.566406-33.566406zm0 0" fill="#1ae5be"/><path d="m285.664062 33.75c-47.234374-45-124.09375-45-171.328124 0-19.667969 18.601562-32.105469 43.570312-35.101563 70.476562-2.789063 26.8125 4.140625 53.738282 19.53125 75.875l93.011719 134.449219c1.867187 2.699219 4.941406 4.308594 8.222656 4.308594s6.355469-1.609375 8.222656-4.308594l93.011719-134.441406c15.390625-22.136719 22.324219-49.0625 19.53125-75.878906-2.992187-26.90625-15.429687-51.878907-35.101563-70.480469zm-.875 134.972656-84.789062 122.558594-84.789062-122.554688c-12.664063-18.195312-18.375-40.328124-16.089844-62.375 2.492187-22.195312 12.769531-42.789062 29.007812-58.117187 40.480469-37.75 103.261719-37.75 143.742188 0 16.238281 15.328125 26.515625 35.921875 29.007812 58.117187 2.285156 22.046876-3.425781 44.179688-16.089844 62.375zm0 0" fill="#0635c9"/></svg>