<svg height="400pt" viewBox="-2 0 400 400" width="400pt" xmlns="http://www.w3.org/2000/svg"><path d="m73.300781 267.3125v-164.105469h289.398438v-20h-329.398438v164.105469c0 22.09375 17.90625 40 40 40h5.363281c-3.519531-6.074219-5.371093-12.976562-5.363281-20zm0 0" fill="#d4e1f4"/><path d="m183.789062 357.535156h48.421876v-10h-68.421876v42.464844h20zm0 0" fill="#d4e1f4"/><path d="m50.15625 46.984375c0-9.378906 7.605469-16.984375 16.984375-16.984375h318.699219v-3.015625c0-9.378906-7.601563-16.984375-16.980469-16.984375h-341.71875c-9.378906 0-16.984375 7.605469-16.984375 16.984375v38.925781c-.003906 9.382813 7.601562 16.988282 16.984375 16.988282h23.015625zm0 0" fill="#d4e1f4"/><g fill="#0635c9"><path d="m275.1875 132h-162.023438c-5.523437 0-10 4.476562-10 10s4.476563 10 10 10h162.023438c5.519531 0 10-4.476562 10-10s-4.480469-10-10-10zm0 0"/><path d="m275.1875 172h-162.023438c-5.523437 0-10 4.476562-10 10s4.476563 10 10 10h162.023438c5.519531 0 10-4.476562 10-10s-4.480469-10-10-10zm0 0"/><path d="m173.382812 222c0-5.523438-4.476562-10-10-10h-50.21875c-5.523437 0-10 4.476562-10 10s4.476563 10 10 10h50.21875c5.523438 0 10-4.476562 10-10zm0 0"/><path d="m232.210938 338h-24.210938v-50.6875c0-5.519531-4.476562-10-10-10s-10 4.480469-10 10v50.6875h-24.210938c-5.207031-.195312-9.589843 3.867188-9.78125 9.074219-.007812.152343-.011718.308593-.007812.460937v42.464844c-.097656 5.425781 4.21875 9.902344 9.640625 10h68.570313c5.425781-.019531 9.808593-4.429688 9.792968-9.855469 0-.046875 0-.097656 0-.144531v-42.464844c.058594-5.210937-4.117187-9.480468-9.328125-9.542968-.15625 0-.308593 0-.464843.007812zm-10.210938 42h-48v-22h48zm0 0"/></g><path d="m322.699219 297.3125h-249.398438c-27.601562-.03125-49.96875-22.398438-50-50v-164.105469c0-5.523437 4.476563-10 10-10 5.523438 0 10 4.476563 10 10v164.105469c.019531 16.5625 13.4375 29.984375 30 30h249.398438c16.5625-.015625 29.980469-13.4375 30-30v-164.105469c0-5.523437 4.476562-10 10-10 5.523437 0 10 4.476563 10 10v164.105469c-.03125 27.601562-22.398438 49.96875-50 50zm0 0" fill="#1ae5be"/><path d="m396 26.984375c0-14.902344-12.082031-26.984375-26.984375-26.984375h-342.03125c-14.902344 0-26.984375 12.082031-26.984375 26.984375v39.03125c0 14.902344 12.082031 26.984375 26.984375 26.984375h342.03125c14.902344 0 26.984375-12.082031 26.984375-26.984375zm-20 39.03125c0 3.855469-3.128906 6.984375-6.984375 6.984375h-342.03125c-3.855469 0-6.984375-3.128906-6.984375-6.984375v-39.03125c0-3.855469 3.128906-6.984375 6.984375-6.984375h342.03125c3.855469 0 6.984375 3.128906 6.984375 6.984375zm0 0" fill="#0635c9"/></svg>