<svg height="472pt" viewBox="-46 0 472 472.8" width="472pt" xmlns="http://www.w3.org/2000/svg"><path d="m220.398438 278c-9.914063-1.644531-19.949219-2.480469-30-2.5-99.398438 0-180 79.199219-180 187.199219h60c0-96.800781 64.902343-170.5 150-184.699219zm0 0" fill="#d4e1f4"/><path d="m122.398438 128c.035156-59.632812 48.367187-107.96875 108-108 1.902343 0 3.902343.101562 5.800781.199219-39.449219-18.488281-86.148438-11.453125-118.402344 17.832031-32.257813 29.289062-43.75 75.089844-29.148437 116.140625 14.605468 41.046875 52.445312 69.296875 95.953124 71.628906-37.976562-17.746093-62.230468-55.882812-62.203124-97.800781zm0 0" fill="#d4e1f4"/><path d="m190.398438 0c-65.167969 0-118 52.832031-118 118s52.832031 118 118 118c65.171874 0 118-52.832031 118-118-.046876-65.148438-52.847657-117.9492188-118-118zm0 216c-54.121094 0-98-43.875-98-98s43.878906-98 98-98c54.125 0 98 43.875 98 98-.085938 54.085938-43.910157 97.914062-98 98zm0 0" fill="#0635c9"/><path d="m190.398438 265.5c-51.296876 0-99 19.898438-134.398438 56.101562-35.898438 36.699219-55.601562 86.796876-55.601562 141.199219.015624 5.515625 4.484374 9.984375 10 10h360c5.519531-.015625 9.984374-4.484375 10-10 0-54.300781-19.699219-104.5-55.597657-141.101562-35.402343-36.199219-83.101562-56.199219-134.402343-56.199219zm-169.796876 187.300781c2.199219-45.199219 19.699219-86.5 49.597657-117.101562 31.601562-32.300781 74.300781-50.097657 120.101562-50.097657s88.5 17.796876 120.097657 50.097657c30 30.601562 47.402343 71.902343 49.601562 117.101562zm0 0" fill="#1ae5be"/></svg>