<svg height="472pt" viewBox="-46 0 472 472.67553" width="472pt" xmlns="http://www.w3.org/2000/svg"><path d="m220.335938 277.875c-9.914063-1.640625-19.945313-2.480469-30-2.5-99.398438 0-180 79.199219-180 187.199219h60c0-96.796875 64.902343-170.5 150-184.699219zm0 0" fill="#d4e1f4"/><path d="m122.335938 117.875c-.015626-51.933594 36.960937-96.515625 88-106.097656-6.59375-1.242188-13.289063-1.878906-20-1.902344-59.644532 0-108 48.355469-108 108 0 59.648438 48.355468 108 108 108 6.710937-.023438 13.40625-.660156 20-1.898438-51.039063-9.585937-88.015626-54.167968-88-106.101562zm0 0" fill="#d4e1f4"/><path d="m300.335938 39.175781h-22.199219c-35.449219-39.496093-92.910157-50.460937-140.414063-26.796875-47.503906 23.664063-73.363281 76.132813-63.191406 128.222656 10.171875 52.089844 53.871094 90.976563 106.789062 95.03125 52.917969 4.050782 102.03125-27.726562 120.015626-77.65625 32.808593-.277343 59.179687-27.09375 58.902343-59.902343-.277343-32.804688-27.09375-59.175781-59.902343-58.898438zm-110-19.300781c18.207031-.011719 36.046874 5.082031 51.5 14.699219-18.097657 37.902343-42.097657 62-71.398438 71.800781-33.398438 11.199219-65.199219.402344-76.800781-4.5 7.921875-47.257812 48.78125-81.910156 96.699219-82zm0 196c-52.296876 0-95.199219-41.300781-97.898438-93 15.035156 5.476562 30.898438 8.316406 46.898438 8.402344 12.636718.035156 25.199218-1.957032 37.203124-5.902344 17-5.597656 32.398438-15.199219 46.097657-28.5 9.5 18.300781 29.199219 48.902344 58.5 57.902344-15.039063 36.921875-50.929688 61.070312-90.800781 61.097656zm96.402343-80.199219c-14.902343-4.699219-27-18-34.902343-29.199219-5.722657-8.085937-10.679688-16.691406-14.796876-25.699218 8.066407-10.546875 15.070313-21.871094 20.898438-33.800782 19.417969 18.46875 30.40625 44.097657 30.398438 70.898438-.019532 5.96875-.554688 11.925781-1.597657 17.800781zm20 1.699219c1.09375-6.441406 1.628907-12.964844 1.597657-19.5.039062-20.640625-5.375-40.925781-15.699219-58.800781h7.699219c20.515624.011719 37.59375 15.757812 39.265624 36.203125 1.671876 20.449218-12.621093 38.757812-32.863281 42.097656zm0 0" fill="#0635c9"/><path d="m190.335938 265.375c-51.296876 0-99 19.902344-134.398438 56.101562-35.898438 36.699219-55.601562 86.800782-55.601562 141.199219.019531 5.515625 4.484374 9.984375 10 10h360c5.519531-.015625 9.984374-4.484375 10-10 0-54.300781-19.699219-104.5-55.597657-141.101562-35.402343-36.199219-83.101562-56.199219-134.402343-56.199219zm-169.796876 187.300781c2.199219-45.199219 19.699219-86.5 49.597657-117.101562 31.601562-32.296875 74.300781-50.097657 120.101562-50.097657 45.898438 0 88.5 17.800782 120.097657 50.097657 30 30.601562 47.402343 71.902343 49.601562 117.101562zm0 0" fill="#1ae5be"/></svg>