<svg height="400pt" viewBox="-72 0 400 400" width="400pt" xmlns="http://www.w3.org/2000/svg"><path d="m131.375 358.621094c-3.09375 1.816406-6.921875 1.839844-10.035156.058594-3.113282-1.78125-5.035156-5.09375-5.035156-8.679688v-45.898438h-27.621094c-21.332032 0-38.683594-17.019531-38.683594-37.941406v-266.160156h-11.316406c-21.316406 0-38.6601565 17-38.683594 37.9375v268.226562c0 20.917969 17.351562 37.9375 38.683594 37.9375h27.621094v45.898438c0 3.585938 1.921874 6.898438 5.035156 8.679688 3.113281 1.78125 6.941406 1.757812 10.035156-.058594l28.746094-16.902344 28.742187 16.902344c3.09375 1.816406 6.921875 1.835937 10.03125.054687 3.113281-1.78125 5.035157-5.089843 5.035157-8.675781v-44.648438zm0 0" fill="#d4e1f4"/><path d="m160.121094 341.714844-4.058594 2.386718h8.113281zm0 0" fill="#d4e1f4"/><path d="m143.929688 400c-1.78125 0-3.53125-.476562-5.070313-1.378906l-28.742187-16.902344-28.746094 16.902344c-3.09375 1.816406-6.921875 1.835937-10.03125.054687-3.113282-1.78125-5.035156-5.089843-5.035156-8.675781v-59.375h20v41.894531l18.746093-11.019531c3.128907-1.839844 7.007813-1.839844 10.136719 0l18.742188 11.019531v-41.894531h20v59.375c0 5.523438-4.476563 10-10 10zm0 0" fill="#1ae5be"/><path d="m245.660156 344.101562h-206.976562c-21.332032 0-38.683594-17.019531-38.683594-37.941406v-268.222656c.0234375-20.9375 17.367188-37.9375 38.683594-37.9375h172c5.523437 0 10 4.476562 10 10v45.914062h24.976562c5.523438 0 10 4.476563 10 10v268.1875c0 5.519532-4.476562 10-10 10zm-225.660156-272.914062v234.976562c0 9.890626 8.382812 17.9375 18.683594 17.9375h196.976562v-248.1875h-196.976562c-6.523438.011719-12.949219-1.613281-18.683594-4.726562zm18.683594-51.1875c-10.300782 0-18.683594 8.046875-18.683594 17.9375 0 9.929688 8.382812 17.976562 18.683594 17.976562h162v-35.914062zm0 0" fill="#0635c9"/><g fill="#1ae5be"><path d="m171.328125 190h-87c-5.519531 0-10-4.476562-10-10s4.480469-10 10-10h87c5.523437 0 10 4.476562 10 10s-4.476563 10-10 10zm0 0"/><path d="m171.328125 230h-87c-5.519531 0-10-4.476562-10-10s4.480469-10 10-10h87c5.523437 0 10 4.476562 10 10s-4.476563 10-10 10zm0 0"/></g></svg>