<svg height="400pt" viewBox="-41 0 400 400.00096" width="400pt" xmlns="http://www.w3.org/2000/svg"><path d="m68.960938 370c-15.917969 0-28.824219-12.902344-28.824219-28.820312v-322.355469c0-2.996094.464843-5.972657 1.382812-8.824219h-2.558593c-15.917969 0-28.824219 12.90625-28.824219 28.824219v322.355469c0 15.917968 12.90625 28.820312 28.824219 28.820312h240.078124c12.519532 0 23.609376-8.082031 27.441407-20zm0 0" fill="#d4e1f4"/><path d="m60.792969 253.648438c-5.523438 0-10-4.476563-10-10 0-51.941407 43.21875-107.558594 107.558593-107.558594 29.453126 0 53.9375 12.175781 71.527344 27.582031l-.46875-18.617187c-.140625-5.519532 4.222656-10.109376 9.746094-10.246094 5.519531-.136719 10.109375 4.226562 10.246094 9.746094l1.101562 43.765624c1.023438 3.503907.054688 7.285157-2.523437 9.867188-2.582031 2.582031-6.363281 3.554688-9.867188 2.539062l-43.78125-1.101562c-5.519531-.136719-9.882812-4.726562-9.746093-10.246094.136718-5.523437 4.726562-9.886718 10.246093-9.746094l23.421875.585938c-14.417968-13.097656-35.171875-24.125-59.90625-24.125-24.40625-.082031-47.667968 10.328125-63.863281 28.585938-14.839844 16.488281-23.699219 38.535156-23.699219 58.972656 0 5.519531-4.476562 9.992187-9.992187 9.996094zm0 0" fill="#1ae5be"/><path d="m78.589844 352.496094c-5.421875-.003906-9.855469-4.328125-9.992188-9.75l-1.097656-43.761719c-1.023438-3.503906-.058594-7.289063 2.523438-9.871094 2.578124-2.582031 6.359374-3.554687 9.863281-2.535156l43.78125 1.101563c5.519531.136718 9.882812 4.722656 9.746093 10.246093-.136718 5.519531-4.726562 9.882813-10.246093 9.746094l-23.421875-.589844c14.421875 13.101563 35.171875 24.125 59.910156 24.125 24.402344.085938 47.664062-10.328125 63.859375-28.582031 14.839844-16.488281 23.699219-38.535156 23.699219-58.976562 0-5.523438 4.476562-10 10-10 5.523437 0 10 4.476562 10 10 0 51.945312-43.21875 107.558593-107.558594 107.558593-29.453125 0-53.9375-12.171875-71.527344-27.578125l.46875 18.613282c.140625 5.523437-4.222656 10.109374-9.746094 10.25-.089843 0-.175781.003906-.261718.003906zm0 0" fill="#1ae5be"/><path d="m242.589844 3.089844c-.039063-.042969-.082032-.078125-.125-.117188-.066406-.066406-.136719-.128906-.207032-.199218-.167968-.160157-.335937-.320313-.511718-.464844-.070313-.0625-.148438-.113282-.222656-.171875-.179688-.140625-.363282-.285157-.550782-.414063-.09375-.0625-.195312-.117187-.289062-.175781-.179688-.113281-.355469-.226563-.539063-.328125-.144531-.082031-.296875-.148438-.453125-.222656-.15625-.070313-.277344-.140625-.421875-.199219-.246093-.101563-.5-.195313-.757812-.277344-.054688-.019531-.109375-.070312-.164063-.089843-.628906-.242188-1.289062-.3867192-1.964844-.429688-.085937 0-.175781.0195312-.261718.0117188-.25-.01562505-.5-.0117188-.753906-.0117188h-196.40625c-21.457032.015625-38.8710942 17.367188-38.960938 38.824219v322.355469c.0898438 21.457031 17.503906 38.808593 38.960938 38.820312h240.078124c21.460938-.011719 38.871094-17.363281 38.960938-38.820312v-275.378907c-.023438-2.582031-1.042969-5.058593-2.839844-6.910156zm2.410156 31.828125 39.484375 41.082031h-39.484375zm34.039062 345.082031h-240.078124c-10.417969 0-18.882813-8.40625-18.960938-18.820312v-322.355469c.078125-10.417969 8.542969-18.824219 18.960938-18.824219h186.039062v65.828125c.152344 5.625 4.730469 10.117187 10.355469 10.171875h62.644531v265.179688c-.074219 10.414062-8.542969 18.820312-18.960938 18.820312zm0 0" fill="#0635c9"/></svg>