<svg height="420pt" viewBox="-38 0 420 420.00096" width="420pt" xmlns="http://www.w3.org/2000/svg"><path d="m117.878906 328.234375c-14.589844 0-26.414062-11.824219-26.414062-26.410156v-291.824219h-3.585938c-14.589844 0-26.414062 11.828125-26.414062 26.414062v295.410157c0 14.585937 11.824218 26.410156 26.414062 26.410156h220.011719c14.585937 0 26.410156-11.824219 26.410156-26.410156v-3.589844zm0 0" fill="#d4e1f4"/><path d="m66.113281 380c-14.585937 0-26.414062-11.824219-26.414062-26.414062v-296.527344h-3.585938c-14.585937 0-26.414062 11.828125-26.414062 26.414062v300.113282c0 14.589843 11.828125 26.414062 26.414062 26.414062h224.71875c14.585938 0 26.410157-11.824219 26.410157-26.414062v-3.585938zm0 0" fill="#d4e1f4"/><path d="m107.882812 234.117188c-5.523437 0-10-4.476563-10-10 0-48.003907 39.945313-99.398438 99.402344-99.398438 26.429688 0 48.523438 10.601562 64.664063 24.25l-.382813-15.175781c-.136718-5.519531 4.226563-10.109375 9.746094-10.246094 5.523438-.140625 10.109375 4.226563 10.246094 9.746094l1.007812 40c.972656 3.476562-.003906 7.207031-2.554687 9.761719-2.550781 2.554687-6.28125 3.535156-9.757813 2.566406l-40.015625-1.003906c-5.523437-.066407-9.945312-4.601563-9.875-10.125.066407-5.519532 4.597657-9.941407 10.121094-9.875h.257813l19.175781.480468c-12.984375-11.207031-31.15625-20.378906-52.632813-20.378906-22.128906-.074219-43.21875 9.367188-57.902344 25.917969-13.464843 14.960937-21.5 34.957031-21.5 53.488281 0 5.519531-4.476562 9.992188-10 9.992188zm0 0" fill="#1ae5be"/><path d="m124.195312 324.699219c-5.425781 0-9.855468-4.324219-9.992187-9.746094l-1.007813-40c-.972656-3.476563.003907-7.207031 2.554688-9.761719 2.550781-2.554687 6.28125-3.539062 9.757812-2.570312l40.015626 1c5.523437.140625 9.886718 4.730468 9.75 10.25-.136719 5.523437-4.726563 9.890625-10.25 9.75l-19.179688-.480469c12.988281 11.207031 31.15625 20.378906 52.636719 20.378906 22.125.078125 43.21875-9.363281 57.898437-25.917969 13.464844-14.960937 21.5-34.957031 21.5-53.484374 0-5.523438 4.476563-10 10-10 5.523438 0 10 4.476562 10 10 0 48.003906-39.941406 99.398437-99.398437 99.398437-26.429688 0-48.527344-10.601563-64.664063-24.25l.378906 15.175781c.140626 5.523438-4.222656 10.109375-9.746093 10.25-.082031.007813-.167969.011719-.253907.007813zm0 0" fill="#1ae5be"/><path d="m275.089844 3.089844c-.039063-.042969-.085938-.078125-.125-.121094-.066406-.0625-.132813-.121094-.195313-.183594-.171875-.164062-.34375-.328125-.527343-.476562-.066407-.054688-.136719-.101563-.203126-.160156-.1875-.144532-.375-.289063-.570312-.421876-.085938-.0625-.179688-.113281-.269531-.167968-.183594-.117188-.363281-.234375-.554688-.335938-.140625-.078125-.292969-.144531-.441406-.214844-.148437-.074218-.285156-.148437-.433594-.210937-.246093-.101563-.5-.191406-.753906-.277344-.054687-.019531-.113281-.070312-.167969-.089843-.628906-.242188-1.292968-.3867192-1.964844-.429688-.085937 0-.175781.0195312-.265624.0117188-.25-.01562505-.5-.0117188-.75-.0117188h-179.988282c-20.078125 0-36.878906 16.335938-36.878906 36.414062v10.585938h-14.886719c-20.019531.074219-36.1874998 16.367188-36.113281 36.386719v300.199219c-.117188 19.992187 15.992188 36.296874 35.984375 36.414062h224.847656c20.019531-.042969 36.210938-16.304688 36.167969-36.324219v-15.675781h10.890625c19.878906.0625 36.046875-16.003906 36.109375-35.886719 0-.097656 0-.191406 0-.289062v-252.359375c.054688-2.554688-.882812-5.035156-2.621094-6.910156zm2.910156 31.828125 32.921875 34.082031h-32.921875zm-1 348.667969c.105469 8.960937-7.074219 16.3125-16.039062 16.414062h-224.847657c-8.933593-.035156-16.144531-7.304688-16.113281-16.238281 0-.058594 0-.117188 0-.175781v-300.113282c-.132812-8.960937 7.019531-16.335937 15.980469-16.472656h15.019531v264.824219c0 20.078125 16.800781 36.175781 36.878906 36.175781h189.121094zm30.890625-35.585938h-220.011719c-9.050781 0-16.878906-7.128906-16.878906-16.175781v-295.410157c0-9.050781 7.828125-16.414062 16.878906-16.414062h170.121094v59.488281c0 5.523438 4.335938 9.511719 9.855469 9.511719h56.144531v242.824219c.113281 8.820312-6.949219 16.066406-15.773438 16.175781-.113281 0-.226562 0-.335937 0zm0 0" fill="#0635c9"/></svg>