<svg height="400pt" viewBox="0 -1 400 400" width="400pt" xmlns="http://www.w3.org/2000/svg"><path d="m198.742188 20c31.433593 0 62.914062 8.921875 91.042968 25.800781 24.113282 14.46875 45.542969 34.660157 60.34375 56.859375 3.066406 4.59375 9.269532 5.828125 13.863282 2.769532 4.589843-3.0625 5.835937-9.265626 2.777343-13.863282-16.410156-24.613281-40.09375-46.957031-66.695312-62.917968-31.234375-18.742188-66.273438-28.648438-101.332031-28.648438-56 0-107.628907 23.089844-145.359376 65.015625-33.425781 37.140625-53.382812 87.128906-53.382812 133.726563 0 5.523437 4.476562 10 10 10s10-4.476563 10-10c0-41.789063 18.035156-86.78125 48.246094-120.347657 33.894531-37.652343 80.234375-58.394531 130.496094-58.394531zm0 0" fill="#0635c9"/><path d="m390 188.742188c-5.523438 0-10 4.476562-10 10 0 41.789062-18.035156 86.78125-48.246094 120.351562-33.894531 37.652344-80.234375 58.390625-130.496094 58.390625-31.433593 0-62.914062-8.917969-91.042968-25.796875-24.113282-14.46875-45.542969-34.664062-60.34375-56.863281-3.066406-4.589844-9.269532-5.828125-13.863282-2.765625-4.589843 3.0625-5.835937 9.265625-2.777343 13.859375 16.410156 24.613281 40.09375 46.957031 66.695312 62.917969 31.234375 18.742187 66.273438 28.648437 101.332031 28.648437 56 0 107.628907-23.089844 145.359376-65.015625 33.425781-37.136719 53.382812-87.125 53.382812-133.726562 0-5.523438-4.476562-10-10-10zm0 0" fill="#0635c9"/><g fill="#1ae5be"><path d="m42.4375 376.863281c-5.390625-.003906-9.808594-4.28125-9.988281-9.671875l-2.234375-67.835937c-.183594-5.519531 4.144531-10.140625 9.664062-10.324219.21875-.007812.4375-.007812.660156 0l67.832032 2.238281c5.523437.183594 9.847656 4.804688 9.667968 10.324219-.183593 5.519531-4.804687 9.847656-10.324218 9.664062l-57.160156-1.886718 1.882812 57.160156c.183594 5.519531-4.144531 10.144531-9.664062 10.324219-.109376.003906-.222657.007812-.335938.007812zm0 0"/><path d="m359.792969 108.460938h-.332031l-67.832032-2.238282c-5.523437-.089844-9.929687-4.640625-9.839844-10.164062.089844-5.519532 4.640626-9.925782 10.160157-9.835938h.335937l57.160156 1.886719-1.882812-57.160156c-.242188-5.519531 4.035156-10.1875 9.554688-10.425781 5.515624-.242188 10.183593 4.035156 10.425781 9.550781 0 .074219.003906.144531.007812.214843l2.234375 67.835938c.183594 5.519531-4.144531 10.140625-9.664062 10.324219-.109375 0-.21875 0-.328125 0zm0 0"/></g></svg>