<svg height="398pt" viewBox="-21 0 398 398.00384" width="398pt" xmlns="http://www.w3.org/2000/svg"><path d="m164.519531 16.011719c-33.691406 0-67.363281 9.519531-97.382812 27.53125-25.558594 15.335937-48.316407 36.804687-64.085938 60.457031-3.066406 4.59375-1.824219 10.804688 2.769531 13.871094 4.597657 3.066406 10.804688 1.824218 13.871094-2.769532 14.160156-21.242187 34.664063-40.5625 57.738282-54.402343 26.910156-16.144531 57.023437-24.679688 87.089843-24.679688 48.078125 0 92.414063 19.839844 124.832031 55.863281 28.90625 32.113282 46.164063 75.15625 46.164063 115.132813 0 39.972656-17.257813 83.015625-46.164063 115.132813-32.417968 36.011718-76.753906 55.851562-124.832031 55.851562-28.1875.195312-55.953125-6.863281-80.625-20.5-22.644531-12.730469-42.175781-30.339844-57.179687-51.546875-3.15625-4.53125-9.390625-5.648437-13.921875-2.492187s-5.648438 9.390624-2.488281 13.921874c.039062.058594.078124.113282.121093.171876 16.738281 23.632812 38.519531 43.253906 63.773438 57.433593 27.636719 15.292969 58.738281 23.214844 90.320312 23.011719 53.824219 0 103.4375-22.1875 139.699219-62.480469 32.121094-35.691406 51.300781-83.730469 51.300781-128.511719 0-44.785156-19.175781-92.824218-51.300781-128.515624-36.261719-40.292969-85.875-62.480469-139.699219-62.480469zm0 0" fill="#0635c9"/><path d="m10 120.921875c-5.519531 0-10-4.476563-10-10 0-.070313 0-.144531 0-.214844l2.148438-100.917969c.117187-5.4375 4.554687-9.78515575 9.996093-9.789062h.214844c5.523437.117188 9.902344 4.691406 9.785156 10.210938l-1.921875 90.488281 90.488282-1.921875h.214843c5.523438-.058594 10.046875 4.371094 10.105469 9.894531s-4.371094 10.046875-9.894531 10.105469l-100.921875 2.140625zm0 0" fill="#1ae5be"/></svg>