<svg height="440pt" viewBox="-51 0 440 440.10405" width="440pt" xmlns="http://www.w3.org/2000/svg"><path d="m327.851562 123.402344h-71.800781c5.304688 17.824218 21.707031 30.035156 40.300781 30h31.5zm0 0" fill="#d4e1f4"/><path d="m50.050781 417.902344v-336c0-23.195313 18.804688-42 42-42h122.300781v-29.796875l-2.097656-.203125h-160.203125c-23.195312 0-42 18.804687-42 42v336c0 23.082031 18.621094 41.835937 41.703125 42-1.132812-3.898438-1.707031-7.9375-1.703125-12zm0 0" fill="#d4e1f4"/><path d="m111.652344 143.304688c20.269531 0 36.699218-16.433594 36.699218-36.699219 0-20.269531-16.429687-36.703125-36.699218-36.703125-20.269532 0-36.699219 16.433594-36.699219 36.703125.011719 20.261719 16.433594 36.683593 36.699219 36.699219zm0-53.300782c9.222656 0 16.699218 7.476563 16.699218 16.699219s-7.476562 16.699219-16.699218 16.699219-16.699219-7.476563-16.699219-16.699219c.015625-9.214844 7.484375-16.683594 16.699219-16.699219zm0 0" fill="#1ae5be"/><path d="m111.652344 150.003906c-27.609375.011719-49.992188 22.390625-50 50v8c0 5.523438 4.476562 10 10 10 5.523437 0 10-4.476562 10-10v-8c0-16.570312 13.429687-30 30-30 16.566406 0 30 13.429688 30 30v8c0 5.523438 4.476562 10 10 10 5.523437 0 10-4.476562 10-10v-8c-.011719-27.609375-22.390625-49.988281-50-50zm0 0" fill="#1ae5be"/><g fill="#0635c9"><path d="m221.652344 3.105469-.101563-.101563c-1.886719-1.945312-4.488281-3.0312498-7.199219-2.99999975-.367187-.01562505-.738281.01562495-1.097656.10156275h-161.203125c-28.710937.011719-51.9843748 23.285156-51.9999998 52v336c.015625 28.710937 23.2890628 51.984375 51.9999998 52h233.800781c28.714844-.015625 51.988282-23.289063 52-52v-264.902344c-.019531-2.648437-1.058593-5.191406-2.898437-7.097656zm2.699218 30.898437 79.601563 79.398438h-47.601563c-17.652343-.050782-31.949218-14.347656-32-32zm61.5 385.898438h-233.800781c-17.652343-.050782-31.945312-14.347656-32-32v-336c.054688-17.648438 14.347657-31.945313 32-32h152.300781v61.5c.015626 28.714844 23.289063 51.988281 52 52h61.5v254.5c-.015624 17.667968-14.332031 31.984375-32 32zm0 0"/><path d="m71.652344 278.503906h124.601562c5.519532 0 10-4.476562 10-10 0-5.523437-4.480468-10-10-10h-124.601562c-5.523438 0-10 4.476563-10 10 0 5.523438 4.476562 10 10 10zm0 0"/><path d="m266.253906 334.203125h-194.601562c-5.523438 0-10 4.476563-10 10s4.476562 10 10 10h194.601562c5.519532 0 10-4.476563 10-10s-4.480468-10-10-10zm0 0"/></g></svg>