<svg height="400pt" viewBox="-37 0 400 400" width="400pt" xmlns="http://www.w3.org/2000/svg"><path d="m10.417969 287.574219h259.398437v50.679687h-259.398437zm0 0" fill="#d4e1f4"/><path d="m110.417969 121.746094h160.191406v46.070312h-160.191406zm0 0" fill="#d4e1f4"/><path d="m269.816406 175.457031h-158.539062c-5.523438 0-10-4.476562-10-10v-92.132812c0-5.523438 4.476562-10 10-10h158.539062c5.519532 0 10 4.476562 10 10v92.132812c0 5.523438-4.480468 10-10 10zm-148.539062-20h138.539062v-72.132812h-138.539062zm0 0" fill="#1ae5be"/><g fill="#0635c9"><path d="m279 235c0-5.523438-4.476562-10-10-10h-259c-5.523438 0-10 4.476562-10 10v101c0 5.523438 4.476562 10 10 10h259c5.523438 0 10-4.476562 10-10zm-19 91h-240v-81h240zm0 0"/><path d="m316 0c-5.523438 0-10 4.476562-10 10v380c0 5.523438 4.476562 10 10 10s10-4.476562 10-10v-380c0-5.523438-4.476562-10-10-10zm0 0"/></g></svg>