<svg height="400pt" viewBox="0 -2 400 400" width="400pt" xmlns="http://www.w3.org/2000/svg"><path d="m146.640625 347.160156v-104.695312h-30v104.699218c0 21.3125 17.277344 38.589844 38.585937 38.589844 5.152344.003906 10.253907-1.023437 15-3.027344-14.296874-6.035156-23.589843-20.046874-23.585937-35.566406zm0 0" fill="#d4e1f4"/><path d="m278.324219 10.253906h-228.324219c-22.089844 0-40 17.90625-40 40v13.335938c-.003906 4.71875.828125 9.402344 2.457031 13.832031 5.800781-15.726563 20.785157-26.167969 37.542969-26.167969h228.324219c16.757812 0 31.742187 10.441406 37.542969 26.167969 1.628906-4.429687 2.460937-9.113281 2.457031-13.832031v-13.335938c0-22.09375-17.910157-40-40-40zm0 0" fill="#d4e1f4"/><path d="m155.226562 253.371094c-5.519531 0-10-4.476563-10-10v-77.058594c0-5.523438 4.480469-10 10-10h180.046876c24.703124 0 44.726562-20.023438 44.726562-44.726562 0-24.699219-20.023438-44.722657-44.726562-44.722657h-16.949219c-5.523438 0-10-4.476562-10-10 0-5.523437 4.476562-10 10-10h16.949219c35.75 0 64.726562 28.976563 64.726562 64.722657 0 35.746093-28.976562 64.726562-64.726562 64.726562h-170.046876v67.058594c0 5.523437-4.476562 10-10 10zm0 0" fill="#1ae5be"/><g fill="#0635c9"><path d="m328 50c0-27.613281-22.386719-50-50-50h-228c-27.613281 0-50 22.386719-50 50v13c0 27.613281 22.386719 50 50 50h228c27.613281 0 50-22.386719 50-50zm-20 13c0 16.570312-13.429688 30-30 30h-228c-16.570312 0-30-13.429688-30-30v-13c0-16.570312 13.429688-30 30-30h228c16.570312 0 30 13.429688 30 30zm0 0"/><path d="m193.816406 232h-77.175781c-5.523437 0-9.640625 4.941406-9.640625 10.464844v104.699218c0 26.785157 21.617188 48.835938 48.40625 48.835938 26.792969 0 48.59375-22.050781 48.59375-48.839844v-104.699218c-.050781-5.652344-4.539062-10.257813-10.183594-10.460938zm-9.816406 115.160156c0 15.738282-12.761719 28.5-28.5 28.5s-28.5-12.761718-28.5-28.5v-95.160156h57zm0 0"/></g></svg>