<svg height="478pt" viewBox="0 -39 478 478" width="478pt" xmlns="http://www.w3.org/2000/svg"><path d="m105.878906 369.96875c-11.527344 0-20.878906-9.34375-20.878906-20.875v-23.78125s-34.507812-17.910156-34.507812-40v-59.769531c-.007813-7.023438 1.84375-13.925781 5.363281-20h-5.355469c-22.089844 0-40 17.90625-40 40v59.769531c0 22.089844 34.507812 40 34.507812 40v23.78125c0 11.527344 9.34375 20.871094 20.871094 20.875h346.242188c11.179687-.003906 20.371094-8.828125 20.832031-20zm0 0" fill="#d4e1f4"/><path d="m427.503906 195.96875h-178.503906v-102.074219c0-5.523437-4.476562-10-10-10s-10 4.476563-10 10v102.074219h-178.5c-27.574219 0-50.5 22-50.5 49.574219v59.769531c0 22.164062 15 40.992188 35 47.53125v16.25c.019531 17.042969 13.835938 30.855469 30.878906 30.875h346.242188c17.042968-.019531 30.859375-13.832031 30.878906-30.875v-16.25c20-6.539062 35-25.367188 35-47.53125v-59.769531c0-27.574219-22.925781-49.574219-50.496094-49.574219zm-15.382812 184h-346.242188c-6.003906-.003906-10.871094-4.871094-10.878906-10.875v-14.125h368v14.125c-.007812 6.003906-4.875 10.871094-10.878906 10.875zm44.878906-74c0 16.570312-13.429688 30-30 30h-377c-16.570312 0-30-13.429688-30-30v-60c0-16.566406 13.429688-30 30-30h377c16.570312 0 30 13.433594 30 30zm0 0" fill="#0635c9"/><path d="m240.035156 103.894531h-2.070312c-18.554688-.019531-33.59375-15.058593-33.613282-33.613281v-2.070312c.019532-18.554688 15.058594-33.59375 33.613282-33.613282h2.070312c18.554688.019532 33.59375 15.058594 33.613282 33.613282v2.070312c-.019532 18.554688-15.058594 33.59375-33.613282 33.613281zm-2.070312-49.300781c-7.515625.007812-13.605469 6.097656-13.613282 13.613281v2.070313c.007813 7.515625 6.097657 13.605468 13.613282 13.613281h2.070312c7.515625-.007813 13.605469-6.097656 13.613282-13.613281v-2.070313c-.007813-7.515625-6.097657-13.605469-13.613282-13.613281zm0 0" fill="#1ae5be"/><path d="m312.503906 110.644531c-4.054687 0-7.707031-2.449219-9.25-6.199219-1.539062-3.75-.664062-8.0625 2.21875-10.914062 14.851563-14.871094 14.835938-38.964844-.035156-53.816406-3.878906-3.910156-3.867188-10.21875.023438-14.113282 3.890624-3.894531 10.199218-3.914062 14.109374-.039062 22.6875 22.664062 22.707032 59.425781.046876 82.113281l-.183594.175781c-1.859375 1.796876-4.34375 2.796876-6.929688 2.792969zm0 0" fill="#0635c9"/><path d="m357.507812 133.234375c-4.042968 0-7.6875-2.4375-9.238281-6.175781-1.546875-3.734375-.691406-8.035156 2.167969-10.894532 27.320312-27.394531 27.320312-71.730468 0-99.125-3.875-3.910156-3.863281-10.21875.03125-14.109374 3.894531-3.894532 10.203125-3.90625 14.113281-.03125 35.109375 35.210937 35.109375 92.191406 0 127.402343-1.875 1.878907-4.417969 2.933594-7.074219 2.933594zm0 0" fill="#1ae5be"/><path d="m165.5 110.570312c-2.652344.003907-5.195312-1.050781-7.066406-2.925781-22.6875-22.660156-22.707032-59.421875-.046875-82.109375l7.109375 7.03125 7.074218 7.070313c-14.875 14.851562-14.890624 38.953125-.035156 53.824219l.035156.035156c2.859376 2.859375 3.714844 7.160156 2.167969 10.898437s-5.191406 6.175781-9.238281 6.175781zm0 0" fill="#0635c9"/><g fill="#1ae5be"><path d="m120.492188 133.234375c-2.65625.003906-5.199219-1.050781-7.074219-2.929687-35.109375-35.210938-35.109375-92.191407 0-127.402344 3.910156-3.875 10.21875-3.863282 14.113281.03125 3.894531 3.890625 3.90625 10.199218.03125 14.109375-27.320312 27.394531-27.320312 71.730469 0 99.125 2.859375 2.859375 3.714844 7.160156 2.167969 10.898437-1.550781 3.734375-5.195313 6.171875-9.238281 6.171875zm0 0"/><path d="m93.226562 305.761719c-17.195312 0-31.132812-13.941407-31.132812-31.132813 0-17.195312 13.9375-31.136718 31.132812-31.136718 17.195313 0 31.132813 13.941406 31.132813 31.136718-.019531 17.183594-13.945313 31.113282-31.132813 31.132813zm0-42.269531c-6.148437 0-11.132812 4.984374-11.132812 11.136718 0 6.148438 4.984375 11.132813 11.132812 11.132813 6.148438 0 11.132813-4.984375 11.132813-11.132813-.007813-6.148437-4.988281-11.128906-11.132813-11.136718zm0 0"/><path d="m173.914062 305.761719c-17.191406 0-31.132812-13.941407-31.132812-31.132813 0-17.195312 13.941406-31.136718 31.132812-31.136718 17.195313 0 31.132813 13.941406 31.132813 31.136718-.019531 17.183594-13.945313 31.113282-31.132813 31.132813zm0-42.269531c-6.148437 0-11.132812 4.984374-11.132812 11.136718 0 6.148438 4.984375 11.132813 11.132812 11.132813 6.148438 0 11.132813-4.984375 11.132813-11.132813-.003906-6.148437-4.984375-11.128906-11.132813-11.136718zm0 0"/></g></svg>