<svg height="399pt" viewBox="0 0 399 399.96752" width="399pt" xmlns="http://www.w3.org/2000/svg"><path d="m60.328125 319.871094c-9.914063-9.914063-9.917969-25.980469-.007813-35.894532l.007813-.007812 263.289063-263.285156-3.265626-3.265625c-9.914062-9.914063-25.988281-9.914063-35.898437 0l-266.550781 266.554687c-9.917969 9.914063-9.917969 25.988282 0 35.902344l62.679687 62.679688c9.914063 9.914062 25.988281 9.914062 35.898438 0l3.265625-3.265626zm0 0" fill="#d4e1f4"/><path d="m297.390625 82.976562c-2.652344.003907-5.199219-1.050781-7.070313-2.929687l-34.246093-34.246094c-3.90625-3.90625-3.90625-10.238281 0-14.140625 3.90625-3.90625 10.238281-3.90625 14.140625 0l34.246094 34.242188c2.859374 2.863281 3.714843 7.164062 2.167968 10.898437-1.546875 3.738281-5.195312 6.175781-9.238281 6.175781zm0 0" fill="#1ae5be"/><path d="m176.019531 204.34375c-2.652343.003906-5.195312-1.050781-7.070312-2.925781l-34.246094-34.246094c-3.90625-3.90625-3.90625-10.238281 0-14.144531 3.90625-3.902344 10.238281-3.90625 14.144531 0l34.246094 34.246094c2.859375 2.859374 3.714844 7.160156 2.167969 10.898437-1.550781 3.734375-5.195313 6.171875-9.242188 6.171875zm0 0" fill="#1ae5be"/><g fill="#0635c9"><path d="m78.816406 306.816406c-3.910156-3.878906-10.21875-3.863281-14.113281.03125-3.890625 3.890625-3.90625 10.199219-.03125 14.109375l14.820313 14.820313c3.910156 3.875 10.21875 3.863281 14.113281-.03125 3.894531-3.890625 3.90625-10.199219.03125-14.109375zm0 0"/><path d="m327.421875 10.347656c-13.824219-13.796875-36.210937-13.796875-50.035156 0l-266.554688 266.554688c-13.796875 13.828125-13.796875 36.210937 0 50.039062l62.679688 62.679688c13.828125 13.796875 36.210937 13.796875 50.039062 0l266.554688-266.554688c13.792969-13.828125 13.792969-36.210937 0-50.039062zm48.546875 98.574219-266.5625 266.5625c-6.011719 5.996094-15.742188 5.996094-21.753906 0l-62.679688-62.6875c-5.996094-6.011719-5.996094-15.742187 0-21.75l56.117188-56.121094 38.117187 38.117188c3.90625 3.902343 10.238281 3.902343 14.140625-.003907 3.90625-3.902343 3.90625-10.234374 0-14.140624l-38.113281-38.113282 107.226563-107.226562 38.113281 38.113281c3.90625 3.90625 10.238281 3.90625 14.144531 0 3.902344-3.90625 3.902344-10.238281 0-14.144531l-38.117188-38.113282 74.925782-74.925781c6.011718-5.996093 15.742187-5.996093 21.753906 0l62.6875 62.683594c5.996094 6.007813 5.996094 15.738281 0 21.75zm0 0"/></g></svg>