<svg height="400pt" viewBox="0 -14 400 399" width="400pt" xmlns="http://www.w3.org/2000/svg"><path d="m50.15625 74.554688c0-13.378907 10.84375-24.226563 24.226562-24.226563h315.460938v-15.773437c0-13.378907-10.84375-24.226563-24.226562-24.226563h-331.234376c-13.378906 0-24.226562 10.84375-24.226562 24.222656v226.015625c0 13.378906 10.84375 24.222656 24.226562 24.222656h15.773438zm0 0" fill="#d4e1f4"/><path d="m390 235.699219h-380c-5.523438 0-10-4.476563-10-10 0-5.523438 4.476562-10 10-10h380c5.523438 0 10 4.476562 10 10 0 5.523437-4.476562 10-10 10zm0 0" fill="#1ae5be"/><path d="m365.617188.5h-331.234376c-18.890624-.070312-34.273437 15.164062-34.382812 34.054688v226.011718c.117188 18.859375 15.503906 34.054688 34.367188 33.933594h114.632812v26.863281c.0625 7.851563-3.449219 15.304688-9.542969 20.253907l-10.902343 8.882812h-32.277344c-5.523438 0-10 4.476562-10 10s4.476562 10 10 10h211.773437c5.523438 0 10-4.476562 10-10s-4.476562-10-10-10h-36.605469l-10.898437-8.886719c-6.097656-4.945312-9.609375-12.398437-9.546875-20.25v-26.863281h114.617188c18.863281.128906 34.253906-15.058594 34.382812-33.917969v-226.027343c-.109375-18.890626-15.492188-34.125-34.382812-34.054688zm-124.386719 350h-82.460938c6.746094-8.199219 10.371094-18.519531 10.230469-29.136719v-26.863281h62v26.863281c-.140625 10.617188 3.484375 20.9375 10.230469 29.136719zm138.769531-90.226562c0 7.859374-6.371094 14.226562-14.226562 14.226562h-331.546876c-7.855468 0-14.226562-6.367188-14.226562-14.226562v-225.546876c0-7.859374 6.371094-14.226562 14.226562-14.226562h331.546876c7.855468 0 14.226562 6.367188 14.226562 14.226562zm0 0" fill="#0635c9"/></svg>