<svg height="390pt" viewBox="0 0 390.02486 390" width="390pt" xmlns="http://www.w3.org/2000/svg"><path d="m50 186.011719c.046875-47.539063 20.441406-92.785157 56.03125-124.304688s82.972656-46.296875 130.167969-40.59375c-59.945313-23.25-127.925781-9.816406-174.527344 34.480469-46.601563 44.300781-63.457031 111.511719-43.277344 172.558594 20.183594 61.046875 73.78125 104.96875 137.605469 112.761718-63.921875-24.800781-106.03125-86.335937-106-154.902343zm0 0" fill="#d4e1f4"/><path d="m307.5 293.3125c28.855469-32.214844 44.808594-73.949219 44.800781-117.199219 0-97.101562-79-176.1015622-176.101562-176.1015622-97.199219-.0976563-176.199219 78.9023432-176.199219 176.0000002 0 97.101562 79 176.101562 176.101562 176.101562 43.261719.074219 85.015626-15.886719 117.199219-44.800781l79.597657 79.601562c1.878906 1.886719 4.441406 2.933594 7.101562 2.898438 2.652344-.011719 5.199219-1.050781 7.101562-2.898438 1.871094-1.871093 2.921876-4.40625 2.921876-7.050781s-1.050782-5.183593-2.921876-7.050781zm-131.398438 38.898438c-86.101562 0-156.101562-70.097657-156.101562-156.199219 0-86.097657 70-156.097657 156.101562-156.097657 86.097657 0 156.097657 70 156.097657 156.097657 0 86.101562-70 156.199219-156.097657 156.199219zm0 0" fill="#0635c9"/></svg>