<svg height="400pt" viewBox="-5 0 400 400.00014" width="400pt" xmlns="http://www.w3.org/2000/svg"><path d="m60 350v-288.746094l-50-51.253906v380h370.695312l-39.019531-40zm0 0" fill="#d4e1f4"/><g fill="#1ae5be"><path d="m203.039062 329.808594h-112.582031c-5.523437 0-10-4.476563-10-10v-122.207032c0-4.121093 2.527344-7.820312 6.363281-9.316406 3.839844-1.5 8.203126-.492187 10.992188 2.539063l112.582031 122.207031c2.691407 2.921875 3.398438 7.15625 1.804688 10.792969s-5.1875 5.984375-9.160157 5.984375zm-102.582031-20h79.773438l-79.773438-86.601563zm0 0"/><path d="m34.980469 204.078125h-24.980469c-5.523438 0-10-4.476563-10-10s4.476562-10 10-10h24.980469c5.519531 0 10 4.476563 10 10s-4.480469 10-10 10zm0 0"/><path d="m34.980469 328.585938h-24.980469c-5.523438 0-10-4.480469-10-10 0-5.523438 4.476562-10 10-10h24.980469c5.519531 0 10 4.476562 10 10 0 5.519531-4.480469 10-10 10zm0 0"/></g><path d="m17.15625 3.015625c-2.769531-2.90625-7.039062-3.8125-10.753906-2.277344-3.726563 1.550781-6.128906 5.222657-6.054688 9.261719v380c-.164062 5.363281 4.054688 9.839844 9.414063 10h.238281 370.695312c4.019532 0 7.652344-2.410156 9.214844-6.117188 1.5625-3.707031.75-7.988281-2.058594-10.867187zm3.191406 376.984375v-114h28.242188c5.523437 0 10-4.476562 10-10s-4.476563-10-10-10h-28.242188v-104h28.242188c5.523437 0 10-4.476562 10-10s-4.476563-10-10-10h-28.242188v-87.429688l336.621094 345.429688zm0 0" fill="#0635c9"/></svg>