<svg height="400pt" viewBox="-4 0 400 400" width="400pt" xmlns="http://www.w3.org/2000/svg"><path d="m128.0625 230c0-55.027344 43.101562-98.132812 98.132812-98.132812 18.75-.097657 37.140626 5.144531 53.027344 15.109374-17.242187-27.316406-47.671875-45.109374-83.03125-45.109374-55.023437 0-98.128906 43.097656-98.128906 98.132812 0 35.355469 17.792969 65.785156 45.109375 83.027344-9.964844-15.882813-15.203125-34.277344-15.109375-53.027344zm0 0" fill="#d4e1f4"/><path d="m234.859375 400h-80.121094c-6.800781 0-12.714843-4.976562-14.398437-12.101562-.109375-.453126-.183594-.917969-.226563-1.382813l-4.351562-47.835937c-10.941407-4.890626-21.339844-10.910157-31.027344-17.96875l-43.519531 20.023437c-3.300782 1.996094-7.308594 2.433594-10.960938 1.199219-3.421875-1.265625-6.285156-3.695313-8.09375-6.863282-.023437-.039062-.050781-.082031-.074218-.125l-40.0625-68.953124c-3.816407-6.667969-2.101563-15.132813 4.011718-19.789063.128906-.101563.261719-.191406.394532-.28125l41.0625-27.953125c-.910157-5.949219-1.398438-11.953125-1.460938-17.96875.0625-6.042969.554688-12.070312 1.46875-18.042969l-39.199219-27.867187c-.070312-.050782-.136719-.101563-.199219-.148438-6.300781-4.617187-8.101562-13.242187-4.175781-19.996094l40.082031-69c3.277344-5.964843 11.574219-8.699218 18.394532-5.96875.15625.0625.3125.128907.464844.199219l43.625 20.066407c8.476562-6.5 18.71875-12.402344 31.144531-17.925782l4.367187-48.257812c.367188-7.140625 6.902344-13.058594 14.601563-13.058594h80.113281c6.800781 0 12.71875 4.980469 14.402344 12.105469.105468.457031.179687.921875.222656 1.390625l4.34375 47.824218c10.945312 4.890626 21.347656 10.914063 31.039062 17.972657l43.503907-20.019531c5.675781-3.222657 13.96875-2.8125 19.082031 5.695312l41.023438 69c3.859374 6.707031 2.113281 15.238281-4.066407 19.894531-.074219.050781-.144531.105469-.21875.160157l-39.292969 27.9375c.914063 5.972656 1.402344 12 1.460938 18.039062-.0625 6.082031-.554688 12.152344-1.476562 18.160156l36.683593 27.949219c6.261719 4.625 8.035157 13.222656 4.109375 19.949219l-40.09375 69.015625c-3.269531 5.917969-11.554687 8.652343-18.339844 5.972656-.171874-.066406-.34375-.140625-.511718-.21875l-43.617188-20.066406c-8.464844 6.492187-18.707031 12.386719-31.140625 17.917969l-4.375 48.265624c-.363281 7.140626-6.902343 13.054688-14.597656 13.054688zm-75.25-20h70.398437l4.445313-49.039062c.332031-3.660157 2.644531-6.839844 6.019531-8.289063l2.570313-1.097656c13.355469-5.730469 23.789062-11.738281 31.886719-18.367188l2.261718-1.859375c2.960938-2.421875 7.042969-2.945312 10.519532-1.347656l44.957031 20.6875 35.480469-61.078125-38.195313-29.097656c-2.886719-2.199219-4.355469-5.789063-3.835937-9.382813l.394531-2.738281c1.019531-6.082031 1.59375-12.234375 1.707031-18.398437-.121094-6.171876-.691406-12.324219-1.714844-18.414063l-.398437-2.839844c-.53125-3.703125 1.050781-7.390625 4.097656-9.5625l40.632813-28.875-36.269532-61-44.875 20.640625c-3.335937 1.535156-7.246094 1.117188-10.183594-1.085937l-2.238281-1.683594c-9.980469-7.546875-20.851562-13.839844-32.367187-18.742187l-2.574219-1.097657c-3.378906-1.445312-5.691406-4.628906-6.023437-8.289062l-4.453126-49.042969h-70.398437l-4.4375 49.035156c-.332031 3.664063-2.644531 6.847656-6.023437 8.292969l-2.578126 1.101563c-13.335937 5.714843-23.765624 11.722656-31.878906 18.359374l-2.273437 1.859376c-2.957031 2.421874-7.035157 2.945312-10.507813 1.351562l-44.960937-20.6875-35.414063 60.957031 40.671875 28.917969c3.050781 2.167969 4.632813 5.855469 4.105469 9.558594l-.398438 2.835937c-1.023437 6.089844-1.601562 12.246094-1.726562 18.417969.121094 6.140625.691406 12.261719 1.707031 18.316406l.414063 2.90625c.523437 3.675782-1.03125 7.335938-4.039063 9.511719l-2.40625 1.746094c-.078125.054687-.15625.109375-.234375.164062l-39.90625 27.167969 35.371094 60.875 44.832031-20.625c3.332031-1.535156 7.242188-1.117188 10.179688 1.085938l2.238281 1.679687c9.984375 7.546875 20.855469 13.839844 32.371094 18.746094l2.570312 1.097656c3.375 1.449219 5.683594 4.628906 6.019532 8.285156zm0 0" fill="#1ae5be"/><path d="m196.191406 254.199219c-29.933594 0-54.199218-24.265625-54.199218-54.199219s24.265624-54.199219 54.199218-54.199219 54.199219 24.265625 54.199219 54.199219c.324219 29.613281-23.421875 53.878906-53.03125 54.199219-.390625.003906-.777344.003906-1.167969 0zm0-88.398438c-18.886718 0-34.199218 15.3125-34.199218 34.199219s15.3125 34.199219 34.199218 34.199219c18.890625 0 34.199219-15.3125 34.199219-34.199219.207031-18.683594-14.773437-33.996094-33.457031-34.199219-.25 0-.496094 0-.742188 0zm0 0" fill="#1ae5be"/><path d="m196.191406 91.867188c-60.632812 0-108.128906 47.5-108.128906 108.132812s47.496094 108.136719 108.128906 108.136719c60.632813 0 108.140625-47.5 108.140625-108.136719s-47.5-108.132812-108.140625-108.132812zm0 196.269531c-49.417968 0-88.128906-38.714844-88.128906-88.136719s38.710938-88.132812 88.128906-88.132812c49.417969 0 88.140625 38.710937 88.140625 88.132812s-38.714843 88.136719-88.140625 88.136719zm0 0" fill="#0635c9"/></svg>