<svg height="419pt" viewBox="-1 0 419 419.9" width="419pt" xmlns="http://www.w3.org/2000/svg"><path d="m285.148438 71.800781-172.199219 95.597657c-4.820313 2.6875-6.5625 8.765624-3.898438 13.601562 1.765625 3.195312 5.148438 5.15625 8.800781 5.101562 1.6875.003907 3.34375-.445312 4.796876-1.300781l172.203124-95.601562c4.828126-2.632813 6.609376-8.683594 3.976563-13.511719-2.632813-4.832031-8.683594-6.613281-13.511719-3.980469-.054687.03125-.113281.0625-.167968.09375zm0 0" fill="#0635c9"/><path d="m295.050781 339.199219-171.5-101.199219c-4.796875-2.734375-10.90625-1.0625-13.640625 3.738281-2.667968 4.679688-1.144531 10.632813 3.441406 13.460938l171.5 101.199219c1.546876.90625 3.304688 1.386718 5.097657 1.402343 3.53125-.003906 6.796875-1.867187 8.601562-4.902343 2.839844-4.648438 1.375-10.722657-3.277343-13.566407-.074219-.042969-.148438-.089843-.222657-.132812zm0 0" fill="#0635c9"/><g fill="#d4e1f4"><path d="m314.550781 375.800781c.007813-32.207031 26.121094-58.308593 58.328125-58.300781 10.558594.003906 20.917969 2.871094 29.972656 8.300781-16.574218-27.609375-52.390624-36.558593-80-19.984375-27.613281 16.570313-36.558593 52.386719-19.988281 80 4.921875 8.199219 11.785157 15.0625 19.988281 19.984375-5.429687-9.066406-8.296874-19.433593-8.300781-30zm0 0"/><path d="m30.449219 230c.007812-32.207031 26.121093-58.308594 58.328125-58.300781 10.558594.003906 20.917968 2.871093 29.972656 8.300781-16.574219-27.609375-52.390625-36.558594-80-19.984375s-36.558594 52.390625-19.984375 80c4.921875 8.199219 11.785156 15.0625 19.984375 19.984375-5.460938-9.050781-8.328125-19.429688-8.300781-30zm0 0"/><path d="m30.449219 230c.007812-32.207031 26.121093-58.308594 58.328125-58.300781 10.558594.003906 20.917968 2.871093 29.972656 8.300781-16.574219-27.609375-52.390625-36.558594-80-19.984375s-36.558594 52.390625-19.984375 80c4.921875 8.199219 11.785156 15.0625 19.984375 19.984375-5.460938-9.050781-8.328125-19.429688-8.300781-30zm0 0"/><path d="m314.550781 92.5c.007813-32.207031 26.121094-58.308594 58.328125-58.300781 10.558594.003906 20.917969 2.871093 29.972656 8.300781-16.574218-27.609375-52.390624-36.558594-80-19.984375-27.613281 16.574219-36.558593 52.390625-19.988281 80 4.921875 8.199219 11.785157 15.0625 19.988281 19.984375-5.417968-9.070312-8.285156-19.433594-8.300781-30zm0 0"/></g><path d="m348.75 283.300781c-37.722656 0-68.300781 30.578125-68.300781 68.300781 0 37.71875 30.578125 68.296876 68.300781 68.296876s68.300781-30.578126 68.300781-68.296876c-.050781-37.703124-30.601562-68.25-68.300781-68.300781zm0 116.699219c-26.675781 0-48.300781-21.625-48.300781-48.300781s21.625-48.300781 48.300781-48.300781 48.300781 21.625 48.300781 48.300781c-.019531 26.667969-21.632812 48.28125-48.300781 48.300781zm0 0" fill="#1ae5be"/><path d="m348.75 0c-37.722656 0-68.300781 30.578125-68.300781 68.300781 0 37.71875 30.578125 68.300781 68.300781 68.300781s68.300781-30.582031 68.300781-68.300781c-.050781-37.699219-30.601562-68.2499998-68.300781-68.300781zm0 116.699219c-26.675781 0-48.300781-21.625-48.300781-48.300781 0-26.671876 21.625-48.296876 48.300781-48.296876s48.300781 21.625 48.300781 48.296876c-.019531 26.667968-21.632812 48.285156-48.300781 48.300781zm0 0" fill="#1ae5be"/><path d="m68.75 141.699219c-37.722656 0-68.300781 30.578125-68.300781 68.300781s30.578125 68.300781 68.300781 68.300781 68.300781-30.578125 68.300781-68.300781c-.050781-37.699219-30.601562-68.25-68.300781-68.300781zm0 116.601562c-26.675781 0-48.300781-21.625-48.300781-48.300781s21.625-48.300781 48.300781-48.300781 48.300781 21.625 48.300781 48.300781c-.019531 26.667969-21.632812 48.28125-48.300781 48.300781zm0 0" fill="#1ae5be"/></svg>