<svg height="400pt" viewBox="-35 0 400 400.00846" width="400pt" xmlns="http://www.w3.org/2000/svg"><path d="m70.214844 201.363281v-60.554687c0-8.550782 4.292968-16.527344 11.425781-21.234375l128.515625-84.8125-31.136719-20.554688c-8.503906-5.609375-19.527343-5.609375-28.03125 0l-129.347656 85.363281c-7.136719 4.707032-11.429687 12.6875-11.425781 21.238282v60.554687c-.003906 86.617188 51.375 164.984375 130.808594 199.523438l21.832031 9.121093 9.589843-4.15625c-63.597656-39.765624-102.230468-109.480468-102.230468-184.488281zm0 0" fill="#d4e1f4"/><path d="m165.003906 399.984375c-5.523437 0-10-4.480469-10-10v-379.949219c0-5.523437 4.476563-9.9999998 10-9.9999998 5.523438 0 10 4.4765628 10 9.9999998v379.949219c0 5.519531-4.476562 10-10 10zm0 0" fill="#1ae5be"/><path d="m313.976562 91.230469-129.398437-85.359375c-11.847656-7.828125-27.222656-7.828125-39.070313 0l-129.464843 85.359375c-9.980469 6.53125-16.0078128 17.648437-16.03906275 29.578125v60.554687c.01953125 90.621094 53.80468775 172.59375 136.92968775 208.691407.042968.019531.136718.039062.183594.058593l21.855468 9.121094c2.515625 1.050781 5.351563 1.03125 7.855469-.050781l23.277344-10.089844c84.664062-35.402344 139.8125-118.152344 139.898437-209.921875v-58.363281c-.023437-11.929688-6.046875-23.042969-16.027344-29.578125zm-3.972656 87.949219c-.09375 83.707031-50.398437 159.1875-127.625 191.488281-.039062.015625-.097656.035156-.144531.050781l-19.4375 8.421875-17.945313-7.453125c-75.789062-32.9375-124.824218-107.6875-124.847656-190.324219v-60.554687c.035156-5.207032 2.679688-10.046875 7.042969-12.890625l129.398437-85.359375c5.167969-3.410156 11.871094-3.410156 17.039063 0l129.46875 85.359375c4.363281 2.84375 7.011719 7.683593 7.050781 12.890625zm0 0" fill="#0635c9"/></svg>