<svg height="439pt" viewBox="-58 0 439 439.9" width="439pt" xmlns="http://www.w3.org/2000/svg"><path d="m50.449219 419.898438v-267.796876h262.199219v-30h-302.199219v267.796876c-.003907 22.09375 17.90625 40.007812 40 40h1.300781c-.894531-3.253907-1.332031-6.621094-1.300781-10zm0 0" fill="#d4e1f4"/><path d="m87.25 182.800781c5.515625-.015625 9.984375-4.484375 10-10v-86c0-36.894531 29.90625-66.800781 66.800781-66.800781 36.890625 0 66.800781 29.90625 66.800781 66.800781v86c0 5.523438 4.476563 10 10 10 5.519532 0 10-4.476562 10-10v-86c0-47.9375-38.863281-86.800781-86.800781-86.800781s-86.800781 38.863281-86.800781 86.800781v86c.015625 5.515625 4.484375 9.984375 10 10zm0 0" fill="#1ae5be"/><path d="m161.550781 176c-55.230469 0-100 44.773438-100 100s44.769531 100 100 100c55.226563 0 100-44.773438 100-100-.089843-55.191406-44.808593-99.910156-100-100zm0 180c-44.183593 0-80-35.816406-80-80s35.816407-80 80-80c44.183594 0 80 35.816406 80 80-.058593 44.160156-35.84375 79.941406-80 80zm0 0" fill="#1ae5be"/><g fill="#0635c9"><path d="m312.648438 112.101562h-302.199219c-5.515625.015626-9.984375 4.480469-10 10v267.796876c.011719 27.613281 22.390625 49.992187 50 50h222.199219c27.613281-.007813 49.992187-22.386719 50-50v-267.796876c.011718-2.65625-1.039063-5.207031-2.917969-7.082031-1.875-1.878906-4.425781-2.929687-7.082031-2.917969zm-10 277.796876c-.046876 16.550781-13.449219 29.953124-30 30h-222.199219c-16.546875-.046876-29.949219-13.449219-30-30v-257.796876h282.199219zm0 0"/><path d="m142.550781 314.398438c1.875 1.890624 4.4375 2.9375 7.097657 2.902343 2.582031.023438 5.066406-.984375 6.902343-2.800781l59.800781-57.101562c3.976563-3.808594 4.109376-10.121094.296876-14.097657-3.808594-3.976562-10.121094-4.113281-14.097657-.300781l-52.699219 50.398438-27-27c-3.894531-3.890626-10.207031-3.890626-14.101562 0-3.894531 3.894531-3.894531 10.207031 0 14.101562zm0 0"/></g></svg>