<svg height="420pt" viewBox="0 -11 420.00057 420" width="420pt" xmlns="http://www.w3.org/2000/svg"><path d="m135.699219 179.285156-15.894531-108.472656h-26.457032l22.351563 138.472656h221.039062c15.136719-.003906 28.605469-9.59375 33.5625-23.894531l5.582031-6.105469zm0 0" fill="#d4e1f4"/><g fill="#1ae5be"><path d="m101.800781 148.023438h277.523438v20h-277.523438zm0 0"/><path d="m101.800781 110.726562h294.398438v20h-294.398438zm0 0"/><path d="m166.011719 397.800781c-23.457031 0-42.472657-19.011719-42.472657-42.46875-.003906-23.457031 19.011719-42.472656 42.46875-42.472656 23.457032-.003906 42.472657 19.011719 42.472657 42.46875-.027344 23.445313-19.023438 42.445313-42.46875 42.472656zm0-64.941406c-12.410157 0-22.472657 10.058594-22.472657 22.46875-.003906 12.410156 10.058594 22.472656 22.46875 22.472656 12.410157 0 22.472657-10.058593 22.472657-22.46875-.015625-12.402343-10.066407-22.453125-22.46875-22.46875zm0 0"/><path d="m312.167969 397.800781c-23.457031 0-42.472657-19.015625-42.472657-42.472656 0-23.453125 19.015626-42.46875 42.472657-42.46875s42.46875 19.015625 42.46875 42.46875c0 23.457031-19.011719 42.472656-42.46875 42.472656zm0-64.941406c-12.410157 0-22.472657 10.058594-22.472657 22.472656 0 12.410157 10.0625 22.46875 22.472657 22.46875 12.410156 0 22.46875-10.058593 22.46875-22.46875-.015625-12.40625-10.066407-22.453125-22.46875-22.472656zm0 0"/></g><path d="m418.144531 65.105469c-1.886719-2.609375-4.921875-4.140625-8.144531-4.105469h-308.824219l-3.519531-22.398438c-3.398438-22.203124-22.496094-38.601562-44.957031-38.601562h-42.699219c-5.523438 0-10 4.476562-10 10s4.476562 10 10 10h42.699219c12.589843 0 23.292969 9.1875 25.199219 21.632812l33.8125 213.738282c3.394531 22.210937 22.492187 38.617187 44.960937 38.628906h208.929687c5.519532 0 10-4.476562 10-10s-4.480468-10-10-10h-208.929687c-12.632813-.089844-23.324219-9.355469-25.207031-21.847656l-5.199219-33.152344h210.46875c19.371094.050781 36.640625-12.1875 43.015625-30.476562l39.699219-114.460938c1.058593-3.019531.574219-6.363281-1.304688-8.957031zm-57.292969 116.960937c-3.589843 10.222656-13.28125 17.027344-24.117187 16.933594h-213.632813l-18.761718-118h291.613281zm0 0" fill="#0635c9"/></svg>