<svg height="410pt" viewBox="-79 0 410 410" width="410pt" xmlns="http://www.w3.org/2000/svg"><path d="m232.242188 298.859375h-152.484376c-22.089843 0-40-17.90625-40-40v-167.71875c.003907-3.023437.34375-6.03125 1.023438-8.976563-18.15625 4.183594-31.019531 20.34375-31.023438 38.976563v167.71875c0 22.09375 17.910157 40 40 40h152.484376c18.632812-.003906 34.792968-12.867187 38.976562-31.023437-2.945312.679687-5.957031 1.023437-8.976562 1.023437zm0 0" fill="#d4e1f4"/><path d="m222.773438 75.621094-10.78125-41.28125c-5.296876-20.222656-23.5625-34.3281252-44.464844-34.339844h-83.054688c-20.917968.0078125-39.203125 14.113281-44.523437 34.339844l-10.722657 41.28125c-17.824218 8.128906-29.2539058 25.929687-29.226562 45.519531v167.71875c-.0273438 19.46875 11.257812 37.179687 28.914062 45.375l11.03125 41.59375c5.363282 20.132813 23.585938 34.148437 44.417969 34.171875h83.273438c20.847656-.019531 39.085937-14.03125 44.476562-34.171875l10.972657-41.59375c17.65625-8.195313 28.941406-25.90625 28.914062-45.375v-167.71875c.027344-19.589844-11.402344-37.390625-29.226562-45.519531zm-163.480469-36.269532c3.015625-11.425781 13.363281-19.375 25.179687-19.351562h83.054688c11.816406-.023438 22.164062 7.925781 25.179687 19.351562l8.332031 31.648438h-150.078124zm133.5 331.390626c-3.054688 11.378906-13.378907 19.277343-25.15625 19.257812h-83.273438c-11.777343.019531-22.097656-7.878906-25.152343-19.257812l-8.484376-31.742188h150.546876zm39.207031-81.742188c0 16.570312-13.429688 30-30 30h-152c-16.570312 0-30-13.429688-30-30v-168c0-16.570312 13.429688-30 30-30h152c16.570312 0 30 13.429688 30 30zm0 0" fill="#0635c9"/><path d="m169.589844 218.042969h-48.433594c-5.523438 0-10-4.476563-10-10v-64.199219c-.007812-5.523438 4.464844-10.007812 9.988281-10.015625 5.523438-.003906 10.003907 4.464844 10.011719 9.988281v54.230469h38.433594c5.523437 0 10 4.476563 10 10s-4.476563 10-10 10zm0 0" fill="#1ae5be"/></svg>