<svg height="380pt" viewBox="-59 0 380 380" width="380pt" xmlns="http://www.w3.org/2000/svg"><path d="m39.265625 350c-5.117187 0-9.265625-4.144531-9.265625-9.261719v-10.601562h-10.734375c-5.117187 0-9.265625 4.148437-9.265625 9.265625v21.328125c-.003906 5.117187 4.144531 9.269531 9.261719 9.269531h144.070312c5.113281 0 9.261719-4.148438 9.261719-9.261719v-10.738281zm0 0" fill="#d4e1f4"/><path d="m220.3125 185.464844h-.019531c-22.5625-.328125-40.773438-18.539063-41.097657-41.101563l-.007812-.664062-25.574219-.261719-.027343-2.632812c-.277344-19.605469 8.582031-38.222657 23.96875-50.375l-.730469-.007813 5.226562-27.023437-10.636719-.109376c-8.949218-.09375-16.683593 6.222657-18.382812 15.011719l-6.210938 32.125.730469.007813c-15.386719 12.148437-24.246093 30.765625-23.96875 50.367187l.027344 2.632813 25.574219.261718.007812.664063c.324219 22.5625 18.535156 40.773437 41.097656 41.101563h.019532c14.566406.210937 28.082031-7.578126 35.199218-20.289063-1.722656.207031-3.460937.304687-5.195312.292969zm0 0" fill="#d4e1f4"/><path d="m90.757812 340.144531c-5.523437 0-10-4.480469-10-10v-271.414062c0-32.4375 26.296876-58.730469 58.730469-58.730469 32.4375 0 58.730469 26.292969 58.730469 58.730469v4.769531c0 5.523438-4.476562 10-10 10s-10-4.476562-10-10v-4.773438c0-21.390624-17.339844-38.730468-38.730469-38.730468s-38.730469 17.339844-38.730469 38.730468v271.417969c0 5.519531-4.476562 10-10 10zm0 0" fill="#1ae5be"/><path d="m190.742188 215.464844h-.554688c-27.984375-.433594-50.566406-23.015625-51-51l-.019531-1.660156 20-.199219.019531 1.660156c.265625 17.109375 14.0625 30.921875 31.171875 31.207031h.375c16.398437.089844 29.761719-13.132812 29.851563-29.53125 0-.210937 0-.425781 0-.640625l-.019532-1.660156 20-.203125.019532 1.65625c.375 27.441406-21.5625 49.992188-49 50.371094-.28125 0-.558594.003906-.835938 0zm0 0" fill="#1ae5be"/><g fill="#0635c9"><path d="m262.832031 162.023438c-.265625-21.132813-9.339843-41.195313-25.03125-55.355469l-6.488281-30.46875c-2.726562-13.097657-14.234375-22.507813-27.609375-22.585938l-32.191406-.328125h-.300781c-13.664063 0-25.410157 9.695313-28 23.113282l-5.679688 29.398437c-.867188.792969-1.722656 1.605469-2.5625 2.4375-13.96875 13.933594-21.6875 32.9375-21.386719 52.664063l.027344 2.636718c.046875 5.46875 4.433594 9.90625 9.902344 10.015625l129.246093 1.449219h.101563c5.585937-.113281 10.042969-4.695312 10-10.28125zm-99.984375-81.832032c.792969-4.035156 4.34375-6.9375 8.457032-6.90625l32.191406.328125c4 .023438 7.4375 2.835938 8.253906 6.75l2.484375 11.667969c-17.199219-6.773438-36.300781-6.917969-53.597656-.398438zm-28.875 73.347656c3.230469-26.96875 26.324219-47.128906 53.484375-46.6875 27.476563.433594 50.625 20.636719 54.78125 47.800782zm0 0"/><path d="m163.332031 380h-144.066406c-10.636719-.011719-19.2539062-8.628906-19.265625-19.265625v-21.328125c.0117188-10.632812 8.628906-19.25 19.265625-19.261719h144.066406c10.632813.011719 19.25 8.628907 19.261719 19.261719v21.328125c-.011719 10.636719-8.628906 19.253906-19.261719 19.265625zm-143.332031-20h142.601562v-19.855469h-142.601562zm0 0"/></g></svg>