<svg height="399pt" viewBox="0 0 399 399.99112" width="399pt" xmlns="http://www.w3.org/2000/svg"><path d="m129.4375 313.335938-42.894531-42.890626 77.949219-77.941406 133.441406-133.445312c1.304687-1.304688 2.707031-2.507813 4.195312-3.601563-14.304687-10.453125-34.09375-8.925781-46.621094 3.601563l-211.390624 211.390625 42.894531 42.886719 42.894531 42.902343 21.210938-21.214843zm0 0" fill="#d4e1f4"/><path d="m207.847656 288.289062c-2.652344.003907-5.195312-1.050781-7.070312-2.925781l-84.570313-84.570312c-3.902343-3.90625-3.902343-10.238281 0-14.144531 3.90625-3.90625 10.238281-3.90625 14.144531 0l84.570313 84.570312c2.859375 2.859375 3.714844 7.160156 2.167969 10.898438-1.546875 3.738281-5.195313 6.175781-9.242188 6.171874zm0 0" fill="#1ae5be"/><path d="m397.425781 2.929688c-3.90625-3.90625-10.238281-3.90625-14.144531 0l-59.472656 59.472656-10.417969-10.414063c-17.949219-17.90625-47.007813-17.90625-64.957031 0l-204.316406 204.316407-10.421876-10.421876c-3.886718-3.921874-10.21875-3.949218-14.140624-.0625-3.921876 3.886719-3.953126 10.21875-.0625 14.140626l.0625.0625 17.480468 17.484374.011719.011719.015625.011719 35.808594 35.800781-33.84375 33.851563-21.601563-21.601563c-3.925781-3.773437-10.152343-3.714843-14.003906.140625-3.851563 3.851563-3.910156 10.078125-.132813 14.003906l57.335938 57.335938c3.90625 3.90625 10.238281 3.90625 14.144531 0 3.902344-3.90625 3.902344-10.238281 0-14.144531l-21.601562-21.597657 33.84375-33.84375 53.316406 53.316407c3.867187 3.941406 10.199219 4.003906 14.140625.136719 3.941406-3.867188 4.003906-10.199219.136719-14.144532-.046875-.042968-.09375-.089844-.136719-.132812l-10.421875-10.414063 204.320313-204.320312c17.933593-17.9375 17.933593-47.019531 0-64.953125l-10.417969-10.417969 59.476562-59.476563c3.902344-3.90625 3.902344-10.234374 0-14.140624zm-63.203125 134.84375-204.316406 204.320312-71.644531-71.644531 204.316406-204.320313c10.132813-10.109375 26.539063-10.109375 36.671875 0l34.972656 34.976563c10.125 10.125 10.125 26.539062 0 36.664062zm0 0" fill="#0635c9"/></svg>