<svg height="399pt" viewBox="1 1 399.99988 399" width="399pt" xmlns="http://www.w3.org/2000/svg"><path d="m170.5 379.199219-109.199219-109.199219c-7.25-7.234375-11.324219-17.058594-11.324219-27.300781 0-10.242188 4.074219-20.0625 11.324219-27.300781l204.699219-204.699219-39.800781-.199219-204.898438 204.898438c-7.25 7.238281-11.324219 17.058593-11.324219 27.300781 0 10.242187 4.074219 20.066406 11.324219 27.300781l109.199219 109.199219c12.582031 12.542969 32.097656 14.894531 47.300781 5.699219-2.628906-1.632813-5.078125-3.542969-7.300781-5.699219zm0 0" fill="#d4e1f4"/><path d="m389.199219 1.300781-163-.800781h-.097657c-2.652343.019531-5.195312 1.058594-7.101562 2.898438l-204.800781 204.902343c-18.933594 19.023438-18.933594 49.773438 0 68.800781l109.199219 109.199219c19.027343 18.933594 49.777343 18.933594 68.800781 0l204.902343-204.902343c1.863282-1.890626 2.90625-4.441407 2.898438-7.097657l-.800781-163c-.085938-5.488281-4.511719-9.914062-10-10zm-211.199219 370.800781c-5.347656 5.375-12.617188 8.398438-20.199219 8.398438s-14.855469-3.023438-20.199219-8.398438l-109.203124-109.203124c-5.375-5.34375-8.398438-12.617188-8.398438-20.199219s3.023438-14.851563 8.398438-20.199219l201.902343-202 148.898438.800781.800781 148.898438zm0 0" fill="#0635c9"/><path d="m281.699219 70.199219c-23.117188.058593-42.980469 16.429687-47.449219 39.109375-4.46875 22.683594 7.699219 45.367187 29.070312 54.1875 21.367188 8.820312 45.992188 1.328125 58.824219-17.902344s10.300781-44.847656-6.042969-61.195312c-9.132812-9.101563-21.507812-14.210938-34.402343-14.199219zm20.199219 68.800781c-9.628907 9.578125-24.683594 11.023438-35.964844 3.453125-11.277344-7.570313-15.640625-22.050781-10.425782-34.589844 5.214844-12.542969 18.558594-19.660156 31.882813-17 13.320313 2.660157 22.910156 14.351563 22.910156 27.9375.003907 7.582031-3.019531 14.855469-8.402343 20.199219zm0 0" fill="#1ae5be"/></svg>