<svg height="400pt" viewBox="0 -8 400 400" width="400pt" xmlns="http://www.w3.org/2000/svg"><path d="m141.742188 373.308594v-303.308594c0-11.046875 8.953124-20 20-20h228.257812v-20c0-11.046875-8.953125-20-20-20h-258.257812c-11.046876 0-20 8.953125-20 20v303.308594c0 22.574218-18.300782 40.871094-40.871094 40.871094h90.847656c.007812-.289063.023438-.578126.023438-.871094zm0 0" fill="#d4e1f4"/><g fill="#1ae5be"><path d="m214.300781 109.601562h-54.867187c-5.523438 0-10-4.476562-10-10 0-5.523437 4.476562-10 10-10h54.867187c5.523438 0 10 4.476563 10 10 0 5.523438-4.476562 10-10 10zm0 0"/><path d="m314.644531 195.234375h-155.210937c-5.523438 0-10-4.480469-10-10 0-5.523437 4.476562-10 10-10h155.210937c5.523438 0 10 4.476563 10 10 0 5.519531-4.476562 10-10 10zm0 0"/><path d="m314.644531 271.257812h-155.210937c-5.523438 0-10-4.480468-10-10 0-5.523437 4.476562-10 10-10h155.210937c5.523438 0 10 4.476563 10 10 0 5.519532-4.476562 10-10 10zm0 0"/></g><path d="m338.910156 384.179688h-288.039062c-28.082032-.03125-50.839844-22.789063-50.871094-50.871094v-69.71875c.03125-27.601563 22.398438-49.96875 50-50h31.742188v-183.589844c.019531-16.5625 13.4375-29.9804688 30-30h258.257812c16.5625.0195312 29.980469 13.4375 30 30v293.089844c-.039062 33.722656-27.367188 61.050781-61.089844 61.089844zm-247.632812-20h247.632812c22.683594-.023438 41.066406-18.40625 41.089844-41.089844v-293.089844c-.007812-5.519531-4.480469-9.992188-10-10h-258.257812c-5.519532.007812-9.992188 4.480469-10 10v303.308594c.011718 11.164062-3.667969 22.015625-10.464844 30.871094zm-41.277344-130.589844c-16.5625.019531-29.980469 13.4375-30 30v69.722656c0 17.050781 13.820312 30.871094 30.871094 30.871094 17.050781 0 30.871094-13.820313 30.871094-30.871094v-99.722656zm0 0" fill="#0635c9"/></svg>