<svg height="399pt" viewBox="0 0 399 399.98074" width="399pt" xmlns="http://www.w3.org/2000/svg"><path d="m114.859375 33.730469-8.5625 8.570312c1.421875 1.902344 2.691406 3.914063 3.796875 6.015625 2.410156-4.554687 4.023438-9.488281 4.765625-14.585937zm0 0" fill="#d4e1f4"/><path d="m380.792969 229.128906-108.765625 108.773438c-12.90625 12.902344-33.828125 12.902344-46.734375 0l-205.144531-205.152344c-.691407-.691406-1.34375-1.414062-1.960938-2.152344-10.996094 13.125-10.140625 32.472656 1.960938 44.578125l205.144531 205.144531c12.90625 12.90625 33.828125 12.90625 46.734375 0l108.765625-108.761718c12.101562-12.109375 12.953125-31.457032 1.960937-44.582032-.621094.738282-1.269531 1.460938-1.960937 2.152344zm0 0" fill="#d4e1f4"/><path d="m200.007812 365.035156c-4.050781 0-7.699218-2.441406-9.246093-6.183594-1.542969-3.746093-.675781-8.050781 2.195312-10.90625l155.589844-154.761718c2.484375-2.585938 6.160156-3.640625 9.640625-2.769532 3.476562.871094 6.21875 3.539063 7.191406 6.988282.972656 3.453125.019532 7.160156-2.492187 9.71875-.078125.082031-.160157.160156-.242188.242187l-155.585937 154.761719c-1.871094 1.867188-4.40625 2.914062-7.050782 2.910156zm0 0" fill="#1ae5be"/><path d="m248.660156 399.980469c-11.417968.019531-22.371094-4.507813-30.4375-12.585938l-205.144531-205.144531c-16.785156-16.824219-16.785156-44.054688 0-60.878906l22.617187-22.617188c3.519532-3.515625 9.085938-3.914062 13.066407-.929687 14.085937 10.554687 33.789062 9.152343 46.238281-3.292969 12.445312-12.449219 13.851562-32.152344 3.292969-46.238281-2.984375-3.980469-2.585938-9.550781.929687-13.066407l22.621094-22.617187c16.808594-16.8125 44.0625-16.8125 60.875 0l205.144531 205.144531c16.78125 16.820313 16.78125 44.054688 0 60.875l-108.765625 108.765625c-8.066406 8.078125-19.023437 12.605469-30.4375 12.585938zm-204.445312-281.457031-16.996094 16.992187c-9 9-9 23.589844 0 32.589844l205.144531 205.144531c9.007813 8.984375 23.585938 8.984375 32.59375 0l108.761719-108.765625c9-9 9-23.589844 0-32.589844l-205.140625-205.144531c-9-9-23.59375-9-32.59375 0l-16.992187 16.992188c11.289062 21.464843 7.300781 47.78125-9.851563 64.929687-17.148437 17.148437-43.464844 21.140625-64.925781 9.851563zm0 0" fill="#0635c9"/></svg>