<svg height="465pt" viewBox="0 -1 465.098 465" width="465pt" xmlns="http://www.w3.org/2000/svg"><path d="m262.546875 327.507812c-40.632813-.003906-77.953125-22.40625-97.070313-58.261718-19.113281-35.855469-16.90625-79.328125 5.742188-113.066406-36.882812 24.773437-55.242188 69.300781-46.542969 112.867187 8.703125 43.570313 42.761719 77.628906 86.332031 86.332031 43.566407 8.703125 88.09375-9.660156 112.867188-46.542968-18.121094 12.203124-39.480469 18.707031-61.328125 18.671874zm0 0" fill="#d4e1f4"/><g fill="#1ae5be"><path d="m310 334.960938c-2.652344.003906-5.199219-1.050782-7.070312-2.929688l-24.277344-24.273438c-3.902344-3.90625-3.902344-10.238281 0-14.144531 3.90625-3.902343 10.238281-3.902343 14.144531 0l24.273437 24.277344c2.859376 2.859375 3.714844 7.160156 2.167969 10.894531-1.546875 3.738282-5.195312 6.175782-9.238281 6.175782zm0 0"/><path d="m179.367188 204.328125c-2.652344.003906-5.195313-1.050781-7.070313-2.925781l-24.273437-24.277344c-3.90625-3.90625-3.90625-10.238281 0-14.144531s10.238281-3.90625 14.140624 0l24.277344 24.273437c2.859375 2.859375 3.714844 7.160156 2.167969 10.898438-1.550781 3.738281-5.195313 6.175781-9.242187 6.171875zm0 0"/><path d="m285.726562 204.328125c-4.046874.003906-7.691406-2.433594-9.242187-6.171875-1.546875-3.738281-.691406-8.039062 2.167969-10.898438l24.277344-24.273437c3.917968-3.804687 10.167968-3.757813 14.03125.105469 3.863281 3.863281 3.914062 10.113281.109374 14.035156l-24.273437 24.277344c-1.875 1.875-4.417969 2.929687-7.070313 2.925781zm0 0"/><path d="m155.09375 334.960938c-4.042969 0-7.691406-2.4375-9.238281-6.175782-1.546875-3.734375-.691407-8.035156 2.167969-10.894531l24.273437-24.277344c3.90625-3.902343 10.238281-3.902343 14.144531 0 3.902344 3.90625 3.902344 10.238281 0 14.144531l-24.277344 24.273438c-1.871093 1.878906-4.417968 2.933594-7.070312 2.929688zm0 0"/></g><path d="m231.074219 20.050781c37.125 0 74.304687 10.53125 107.519531 30.460938 22.167969 13.332031 41.957031 30.277343 58.542969 50.132812l-58.890625-1.941406h-.335938c-5.449218.011719-9.886718 4.386719-9.976562 9.839844-.089844 5.449219 4.207031 9.964843 9.652344 10.15625l76.476562 2.523437c3.789062 1.691406 8.226562.871094 11.15625-2.0625 2.933594-2.9375 3.75-7.375 2.050781-11.160156l-2.523437-76.464844c-.121094-5.523437-4.699219-9.902344-10.222656-9.777344-5.523438.121094-9.898438 4.699219-9.777344 10.222657 0 .070312 0 .140625.007812.210937l1.601563 48.554688c-16.722657-18.539063-36.089844-34.507813-57.472657-47.386719-36.320312-21.792969-77.058593-33.3085938-117.8125-33.3085938-65.097656 0-125.117187 26.8437498-168.984374 75.5820308-19.574219 21.84375-35.136719 46.96875-45.976563 74.222657-10.539063 26.628906-16.109375 54.734375-16.109375 81.269531 0 5.523438 4.476562 10 10 10s10-4.476562 10-10c0-49.359375 21.289062-102.488281 56.953125-142.109375 40.023437-44.476563 94.757813-68.964844 154.121094-68.964844zm0 0" fill="#0635c9"/><path d="m455.09375 221.125c-5.523438 0-10 4.476562-10 10 0 49.359375-21.289062 102.484375-56.953125 142.109375-40.023437 44.472656-94.757813 68.964844-154.121094 68.964844-37.125 0-74.304687-10.535157-107.519531-30.460938-22.167969-13.335937-41.957031-30.28125-58.539062-50.136719l58.886718 1.941407c5.507813.164062 10.109375-4.15625 10.292969-9.664063.179687-5.507812-4.128906-10.125-9.632813-10.324218l-76.476562-2.523438c-3.785156-1.6875-8.222656-.867188-11.152344 2.066406-2.929687 2.933594-3.742187 7.371094-2.046875 11.15625l2.523438 76.460938c.074219 3.574218 2.050781 6.839844 5.1875 8.558594 3.132812 1.722656 6.949219 1.636718 10.003906-.222657 3.058594-1.859375 4.886719-5.207031 4.800781-8.78125 0-.074219 0-.144531-.003906-.214843l-1.601562-48.550782c16.71875 18.535156 36.085937 34.503906 57.472656 47.382813 36.320312 21.792969 77.058594 33.3125 117.808594 33.3125 65.101562 0 125.121093-26.84375 168.988281-75.585938 19.570312-21.84375 35.132812-46.96875 45.972656-74.21875 10.542969-26.632812 16.113281-54.734375 16.113281-81.269531 0-5.523438-4.476562-10-10-10zm0 0" fill="#0635c9"/><path d="m242.546875 244.257812v-38.460937c0-5.523437-4.476563-10-10-10s-10 4.476563-10 10v42.800781c0 2.769532 1.148437 5.414063 3.171875 7.304688l35.042969 32.742187c4.003906 3.804688 10.332031 3.644531 14.136719-.359375 3.804687-4.003906 3.644531-10.335937-.359376-14.140625l-.125-.113281zm0 0" fill="#0635c9"/><path d="m112.546875 247.507812c0 64.976563 51.714844 118.144532 116.664063 119.953126 64.949218 1.804687 119.539062-48.410157 123.152343-113.285157 3.609375-64.871093-45.066406-120.835937-109.816406-126.25v-12.800781h12.601563c5.519531 0 10-4.476562 10-10s-4.480469-10-10-10h-45.191407c-5.523437 0-10 4.476562-10 10s4.476563 10 10 10h12.589844v12.800781c-62.144531 5.269531-109.925781 57.214844-110 119.582031zm219.5-10.382812h-24.292969c-5.523437 0-10 4.476562-10 10s4.476563 10 10 10h24.292969c-4.511719 47.503906-42.015625 85.167969-89.5 89.886719v-24.300781c0-5.523438-4.476563-10-10-10s-10 4.476562-10 10v24.300781c-47.484375-4.71875-84.988281-42.382813-89.5-89.886719h24.300781c5.523438 0 10-4.476562 10-10s-4.476562-10-10-10h-24.300781c4.707031-47 42.328125-84.414062 89.5-89.117188v24.292969c0 5.523438 4.476563 10 10 10s10-4.476562 10-10v-24.292969c47.171875 4.703126 84.800781 42.117188 89.5 89.117188zm0 0" fill="#0635c9"/></svg>