<svg height="465pt" viewBox="0 -1 465.098 465" width="465pt" xmlns="http://www.w3.org/2000/svg"><path d="m214.304688 184.542969c-5.535157-4.425781-8.757813-11.125-8.757813-18.210938v-16.1875h-9.757813c-3.21875 0-5.828124-2.609375-5.832031-5.828125v-37.363281c0-3.21875 2.609375-5.828125 5.832031-5.828125h-40c-3.222656 0-5.832031 2.609375-5.832031 5.828125v37.363281c.003907 3.21875 2.613281 5.828125 5.832031 5.828125h9.757813v16.1875c0 7.085938 3.222656 13.785157 8.753906 18.210938l58.246094 46.582031 20-16zm0 0" fill="#d4e1f4"/><path d="m189.960938 355.292969v-27.359375c.003906-3.21875 2.613281-5.828125 5.832031-5.828125h10.410156v-28.089844c0-7.207031 3.332031-14.007813 9.027344-18.425781l37.511719-29.101563-20.195313-15.363281-57.316406 44.464844c-5.695313 4.417968-9.027344 11.21875-9.027344 18.425781v28.089844h-10.410156c-3.21875 0-5.828125 2.609375-5.832031 5.828125v27.359375c0 3.222656 2.609374 5.832031 5.832031 5.832031h40c-3.222657 0-5.832031-2.609375-5.832031-5.832031zm0 0" fill="#d4e1f4"/><g fill="#0635c9"><path d="m231.074219 20.050781c37.125 0 74.304687 10.53125 107.519531 30.460938 22.167969 13.332031 41.957031 30.277343 58.542969 50.132812l-58.890625-1.941406h-.335938c-5.449218.011719-9.886718 4.386719-9.976562 9.839844-.089844 5.449219 4.207031 9.964843 9.652344 10.15625l76.476562 2.523437c3.789062 1.691406 8.226562.871094 11.15625-2.0625 2.933594-2.9375 3.75-7.375 2.050781-11.160156l-2.523437-76.464844c-.121094-5.523437-4.699219-9.902344-10.222656-9.777344-5.523438.121094-9.898438 4.699219-9.777344 10.222657 0 .070312 0 .140625.007812.210937l1.601563 48.554688c-16.722657-18.539063-36.089844-34.507813-57.472657-47.386719-36.320312-21.792969-77.058593-33.3085938-117.8125-33.3085938-65.097656 0-125.117187 26.8437498-168.984374 75.5820308-19.574219 21.84375-35.136719 46.96875-45.976563 74.222657-10.539063 26.628906-16.109375 54.734375-16.109375 81.269531 0 5.523438 4.476562 10 10 10s10-4.476562 10-10c0-49.359375 21.289062-102.488281 56.953125-142.109375 40.023437-44.476563 94.757813-68.964844 154.121094-68.964844zm0 0"/><path d="m455.09375 221.125c-5.523438 0-10 4.476562-10 10 0 49.359375-21.289062 102.484375-56.953125 142.109375-40.023437 44.472656-94.757813 68.964844-154.121094 68.964844-37.125 0-74.304687-10.535157-107.519531-30.460938-22.167969-13.335937-41.957031-30.28125-58.539062-50.136719l58.886718 1.941407c5.507813.164062 10.109375-4.15625 10.292969-9.664063.179687-5.507812-4.128906-10.125-9.632813-10.324218l-76.476562-2.523438c-3.785156-1.6875-8.222656-.867188-11.152344 2.066406-2.929687 2.933594-3.742187 7.371094-2.046875 11.15625l2.523438 76.460938c.074219 3.574218 2.050781 6.839844 5.1875 8.558594 3.132812 1.722656 6.949219 1.636718 10.003906-.222657 3.058594-1.859375 4.886719-5.207031 4.800781-8.78125 0-.074219 0-.144531-.003906-.214843l-1.601562-48.550782c16.71875 18.535156 36.085937 34.503906 57.472656 47.382813 36.320312 21.792969 77.058594 33.3125 117.808594 33.3125 65.101562 0 125.121093-26.84375 168.988281-75.585938 19.570312-21.84375 35.132812-46.96875 45.972656-74.21875 10.542969-26.632812 16.113281-54.734375 16.113281-81.269531 0-5.523438-4.476562-10-10-10zm0 0"/><path d="m300.546875 332.214844c5.523437 0 10-4.476563 10-10v-28.066406c-.097656-10.421876-5.015625-20.214844-13.320313-26.515626l-48.335937-36.707031 48.191406-38.574219c7.910157-6.3125 12.503907-15.898437 12.464844-26.019531v-25.648437c0-5.523438-4.476563-10-10-10s-10 4.476562-10 10v25.648437c.007813 4.046875-1.832031 7.878907-5 10.398438l-52 41.59375-52-41.585938c-3.167969-2.523437-5.007813-6.351562-5-10.398437v-25.65625c0-5.523438-4.476563-10-10-10s-10 4.476562-10 10v25.648437c-.023437 10.128907 4.585937 19.714844 12.511719 26.019531l48.328125 38.652344-47.117188 36.683594c-8.117187 6.308594-12.820312 16.046875-12.722656 26.328125v28.199219c0 5.523437 4.476563 10 10 10s10-4.476563 10-10v-28.199219c-.050781-4.089844 1.789063-7.972656 4.984375-10.523437l51.160156-39.757813 52.46875 39.816406c3.335938 2.511719 5.324219 6.425781 5.386719 10.601563v28.066406c0 5.519531 4.476563 9.996094 10 9.996094zm0 0"/></g><path d="m309.300781 150.144531h-153.507812c-8.738281-.011719-15.820313-7.089843-15.832031-15.828125v-27.363281c.011718-8.738281 7.09375-15.820313 15.832031-15.828125h153.507812c8.738281.007812 15.820313 7.089844 15.832031 15.828125v27.363281c-.011718 8.738282-7.09375 15.816406-15.832031 15.828125zm-149.339843-20h145.171874v-19.019531h-145.171874zm0 0" fill="#1ae5be"/><path d="m309.300781 371.125h-153.507812c-8.738281-.011719-15.820313-7.09375-15.832031-15.832031v-27.359375c.011718-8.738282 7.09375-15.820313 15.832031-15.832032h153.507812c8.738281.011719 15.820313 7.09375 15.832031 15.832032v27.359375c-.011718 8.738281-7.09375 15.820312-15.832031 15.832031zm-149.339843-20h145.171874v-19.023438h-145.171874zm0 0" fill="#1ae5be"/></svg>