<svg height="400pt" viewBox="0 -24 400.00008 400" width="400pt" xmlns="http://www.w3.org/2000/svg"><path d="m60 301.773438v-232.824219c-.042969-18.878907 5.265625-37.382813 15.3125-53.367188-37.976562 13.183594-65.3125 50.003907-65.3125 93.367188v232.824219h264.890625v-40zm0 0" fill="#d4e1f4"/><path d="m332.445312 156.363281c-13.371093 0-23.074218-14.796875-23.074218-35.179687 0-20.382813 9.699218-35.179688 23.074218-35.179688 13.371094 0 23.074219 14.800782 23.074219 35.179688s-9.707031 35.179687-23.074219 35.179687zm0-49.046875c-1.359374 2.324219-3.074218 6.996094-3.074218 13.867188s1.714844 11.542968 3.074218 13.867187c1.359376-2.324219 3.074219-6.996093 3.074219-13.867187 0-6.875-1.714843-11.542969-3.074219-13.867188zm0 0" fill="#1ae5be"/><path d="m336.507812.382812c-.5625-.160156-1.140624-.269531-1.722656-.3281245h-.328125c-.667969 0-1.339843-.0546875-2.011719-.0546875-.675781 0-1.34375.0546875-2.011718.0546875h-224.234375c-58.558594 0-106.199219 49.0351565-106.199219 108.8945315v232.824219c-.0234375 5.578124 4.421875 10.148437 10 10.28125h264.890625c5.597656-.125 10.082031-4.679688 10.109375-10.28125v-99.71875h47.445312c37.878907 0 67.554688-53.179688 67.554688-120.941407 0-65.324219-27.574219-117.089843-63.492188-120.730469zm-71.507812 331.671876h-245v-223.105469c0-48.832031 38.671875-88.894531 86.199219-88.894531h188.492187c-18.089844 22-29.691406 58.566406-29.691406 101.128906zm20-124.289063c2.753906 5.082031 6.015625 9.871094 9.738281 14.289063h-9.738281zm79.269531-12.808594c-8.933593 17.203125-20.535156 27.074219-31.824219 27.074219-11.289062 0-22.886718-9.871094-31.820312-27.074219-10.148438-19.539062-15.734375-45.738281-15.734375-73.773437s5.585937-54.402344 15.734375-73.941406c8.566406-16.507813 19.59375-26.1875 30.441406-27.1875h2.753906c10.851563 1 21.875 10.679687 30.449219 27.1875 10.144531 19.539062 15.730469 45.824218 15.730469 73.855468 0 28.035156-5.585938 54.320313-15.730469 73.855469zm0 0" fill="#0635c9"/></svg>