<svg height="400pt" viewBox="0 -37 400 400" width="400pt" xmlns="http://www.w3.org/2000/svg"><path d="m281.828125 55.390625h50.675781v259.398437h-50.675781zm0 0" fill="#d4e1f4"/><path d="m116 55.390625h46.066406v160.191406h-46.066406zm0 0" fill="#d4e1f4"/><path d="m165.457031 224.722656h-92.132812c-5.523438 0-10-4.476562-10-10v-158.539062c0-5.519532 4.476562-10 10-10h92.132812c5.523438 0 10 4.480468 10 10v158.539062c0 5.523438-4.476562 10-10 10zm-82.132812-20h72.132812v-138.539062h-72.132812zm0 0" fill="#1ae5be"/><g fill="#0635c9"><path d="m346 56c0-5.523438-4.476562-10-10-10h-101c-5.523438 0-10 4.476562-10 10v259c0 5.523438 4.476562 10 10 10h101c5.523438 0 10-4.476562 10-10zm-20 250h-81v-240h81zm0 0"/><path d="m390 0h-380c-5.523438 0-10 4.476562-10 10s4.476562 10 10 10h380c5.523438 0 10-4.476562 10-10s-4.476562-10-10-10zm0 0"/></g></svg>