<svg height="399pt" viewBox="0 0 399.97976 399" width="399pt" xmlns="http://www.w3.org/2000/svg"><path d="m19.765625 342.347656 113.140625-113.136718.097656.097656 28.777344-79.664063c2.5-6.921875 6.492188-13.210937 11.699219-18.414062l14.378906-14.378907c6.523437-6.527343 17.101563-6.527343 23.628906 0l105.097657 105.097657 9.390624-9.34375c6.542969-6.507813 6.570313-17.085938.0625-23.625l-.03125-.03125-114.519531-114.523438c-6.519531-6.523437-17.089843-6.527343-23.617187-.007812l-.007813.007812-14.382812 14.378907c-5.207031 5.207031-9.199219 11.492187-11.699219 18.414062l-28.773438 79.671875-.101562-.101563-113.140625 113.132813c-12.15625 12.160156-13.101563 31.558594-2.1875 44.839844.683594-.828125 1.410156-1.636719 2.1875-2.414063zm0 0" fill="#d4e1f4"/><path d="m76.921875 400.46875c-11.515625.023438-22.5625-4.546875-30.703125-12.695312l-33.523438-33.527344c-16.925781-16.964844-16.925781-44.429688 0-61.394532l113.136719-113.140624c3.90625-3.90625 10.238281-3.90625 14.144531 0s3.910157 10.238281.003907 14.144531l-113.144531 113.132812c-9.128907 9.152344-9.128907 23.960938 0 33.113281l33.53125 33.527344c9.148437 9.128906 23.960937 9.128906 33.109374 0l113.136719-113.140625c3.90625-3.902343 10.238281-3.902343 14.144531 0 3.90625 3.90625 3.90625 10.238281 0 14.144531l-113.140624 113.140626c-8.136719 8.148437-19.183594 12.714843-30.695313 12.695312zm0 0" fill="#1ae5be"/><g fill="#0635c9"><path d="m218.558594 67.355469c-10.433594-10.414063-27.332032-10.414063-37.765625 0l-14.382813 14.378906c-6.230468 6.25-11.019531 13.789063-14.03125 22.085937l-28.878906 79.949219c-1.320312 3.660157-.402344 7.75 2.355469 10.492188l80.78125 80.320312c2.746093 2.734375 6.828125 3.632813 10.46875 2.304688l79.699219-29c8.195312-2.996094 15.644531-7.730469 21.839843-13.871094l14.390625-14.316406c10.457032-10.402344 10.503906-27.3125.101563-37.769531l-.050781-.046876zm100.371094 138.160156-14.390626 14.316406c-4.136718 4.097657-9.105468 7.257813-14.574218 9.257813l-73.730469 26.832031-71.753906-71.351563 26.714843-73.957031c2.007813-5.535156 5.203126-10.566406 9.363282-14.734375l14.378906-14.382812c2.617188-2.617188 6.855469-2.621094 9.476562-.007813l.007813.007813 114.519531 114.523437c2.621094 2.621094 2.621094 6.867188 0 9.484375l-.015625.015625zm0 0"/><path d="m136.992188 249.335938-24.3125 24.3125c-3.820313 3.917968-3.78125 10.183593.089843 14.050781 3.871094 3.871093 10.132813 3.910156 14.050781.089843l24.316407-24.316406c3.808593-3.90625 3.78125-10.144531-.058594-14.019531-3.84375-3.875-10.082031-3.957031-14.023437-.179687zm0 0"/><path d="m304.578125 105.890625c2.652344.003906 5.199219-1.050781 7.074219-2.929687l34.363281-34.367188c3.777344-3.921875 3.71875-10.148438-.132813-14.003906-3.851562-3.851563-10.078124-3.914063-14.003906-.136719l-34.367187 34.367187c-2.859375 2.859376-3.714844 7.160157-2.167969 10.894532 1.546875 3.738281 5.191406 6.171875 9.234375 6.175781zm0 0"/><path d="m386.996094 128.722656-34.367188 10.742188c-5.269531 1.648437-8.207031 7.253906-6.558594 12.527344 1.644532 5.273437 7.253907 8.210937 12.527344 6.5625l34.363282-10.742188c5.273437-1.644531 8.210937-7.253906 6.5625-12.527344-1.644532-5.269531-7.253907-8.207031-12.527344-6.5625zm0 0"/><path d="m248.480469 54.402344c5.261719 1.652344 10.867187-1.277344 12.519531-6.542969l.007812-.019531 10.738282-34.367188c1.648437-5.269531-1.289063-10.878906-6.5625-12.527344-5.269532-1.648437-10.878906 1.289063-12.527344 6.5625l-10.738281 34.367188c-1.648438 5.269531 1.289062 10.878906 6.5625 12.527344zm0 0"/></g></svg>