<svg height="472pt" viewBox="-30 0 472 472" width="472pt" xmlns="http://www.w3.org/2000/svg"><g fill="#d4e1f4"><path d="m168.386719 50.101562c0-22.09375 17.90625-40 40-40h-30c-22.09375 0-40 17.90625-40 40v12.023438h30zm0 0"/><path d="m334.4375 441.898438h-216.875c-22.09375 0-40-17.90625-40-40v-256.0625h-30v276.0625c0 22.09375 17.90625 40 40 40h216.875c16.789062 0 42.703125-10.34375 54.175781-25.007813-8.507812 3.183594-17.140625 5.007813-24.175781 5.007813zm0 0"/><path d="m80.492188 62.125h-30c-22.089844 0-40 17.910156-40 40v43.710938h30v-43.710938c0-22.089844 17.910156-40 40-40zm0 0"/></g><path d="m95 316c-5.523438 0-10-4.476562-10-10 0-58.078125 48.324219-120.265625 120.265625-120.265625 34.070313 0 62.199219 14.574219 81.992187 32.644531l-.375-11.433594c-.183593-5.519531 4.144532-10.140624 9.664063-10.324218h.335937c5.390626.003906 9.808594 4.28125 9.984376 9.667968l1.234374 37.3125c1.128907 3.554688.179688 7.449219-2.457031 10.089844s-6.527343 3.59375-10.085937 2.46875l-37.335938-1.230468c-5.523437-.089844-9.929687-4.640626-9.839844-10.160157.089844-5.523437 4.640626-9.929687 10.164063-9.839843.109375 0 .222656.003906.335937.007812l17.289063.570312c-16.566406-15.921874-41.230469-29.78125-70.902344-29.78125-27.953125-.097656-54.597656 11.828126-73.144531 32.738282-16.984375 18.875-27.125 44.121094-27.125 67.535156 0 5.523438-4.476562 10-10 10zm0 0" fill="#1ae5be"/><path d="m206.734375 426.265625c-34.070313 0-62.199219-14.574219-81.992187-32.644531l.375 11.433594c.183593 5.519531-4.144532 10.140624-9.664063 10.324218h-.335937c-5.390626-.003906-9.808594-4.28125-9.988282-9.667968l-1.230468-37.3125c-1.128907-3.554688-.179688-7.449219 2.457031-10.089844s6.527343-3.59375 10.085937-2.46875l37.335938 1.230468c5.507812.199219 9.8125 4.816407 9.632812 10.324219-.183594 5.507813-4.785156 9.828125-10.292968 9.664063l-17.289063-.570313c16.566406 15.921875 41.230469 29.78125 70.902344 29.78125 27.953125.09375 54.597656-11.828125 73.144531-32.738281 16.984375-18.871094 27.125-44.117188 27.125-67.53125 0-5.523438 4.476562-10 10-10s10 4.476562 10 10c0 58.078125-48.324219 120.265625-120.265625 120.265625zm0 0" fill="#1ae5be"/><path d="m361.507812 52h-77.507812v-1.898438c0-27.570312-22.8125-50.101562-50.386719-50.101562h-55.226562c-27.574219 0-50.386719 22.53125-50.386719 50.101562v1.898438h-77.507812c-27.570313 0-50.492188 22.554688-50.492188 50.125v43.710938c0 5.523437 4.96875 10.164062 10.492188 10.164062h27.507812v265.898438c0 27.574218 21.988281 50.101562 49.5625 50.101562h216.875c24.039062 0 69.5625-19.574219 69.5625-50.101562v-265.898438h27.507812c5.523438 0 10.492188-4.640625 10.492188-10.164062v-43.710938c0-27.570312-22.921875-50.125-50.492188-50.125zm-213.507812-1.898438c0-16.539062 13.84375-30.101562 30.386719-30.101562h55.226562c16.542969 0 30.386719 13.5625 30.386719 30.101562v1.898438h-116zm206 371.796876c0 6.101562-6.0625 13.5-16.585938 19.730468-10.441406 6.171875-23.558593 10.371094-32.976562 10.371094h-216.875c-16.542969 0-29.5625-13.5625-29.5625-30.101562v-265.898438h296zm38-285.898438h-372v-33.875c0-16.542969 13.949219-30.125 30.492188-30.125h311.015624c16.542969 0 30.492188 13.582031 30.492188 30.125zm0 0" fill="#0635c9"/></svg>