<svg height="472pt" viewBox="-30 0 472 472" width="472pt" xmlns="http://www.w3.org/2000/svg"><g fill="#d4e1f4"><path d="m168.386719 50.101562c0-22.09375 17.90625-40 40-40h-30c-22.09375 0-40 17.90625-40 40v12.023438h30zm0 0"/><path d="m334.4375 441.898438h-216.875c-22.09375 0-40-17.90625-40-40v-256.0625h-30v276.0625c0 22.09375 17.90625 40 40 40h216.875c16.789062 0 42.703125-10.34375 54.175781-25.007813-8.507812 3.183594-17.140625 5.007813-24.175781 5.007813zm0 0"/><path d="m80.492188 62.125h-30c-22.089844 0-40 17.910156-40 40v43.710938h30v-43.710938c0-22.089844 17.910156-40 40-40zm0 0"/></g><path d="m198.5 416.460938c-34.648438 0-66.273438-16.5-86.769531-45.273438-3.132813-4.5-2.058594-10.679688 2.40625-13.859375 4.464843-3.179687 10.660156-2.171875 13.886719 2.261719 9.808593 13.769531 32.007812 36.875 70.476562 36.875 24.386719.082031 47.632812-10.320313 63.816406-28.566406 14.828125-16.480469 23.683594-38.511719 23.683594-58.9375 0-20.425782-8.855469-42.457032-23.683594-58.9375-16.183594-18.242188-39.429687-28.648438-63.816406-28.5625-24.769531 0-45.539062 11.066406-59.953125 24.1875l31.945313-.679688c5.511718-.140625 10.09375 4.207031 10.25 9.714844.15625 5.511718-4.175782 10.109375-9.6875 10.277344h-.136719l-52.164063 1.109374c-3.5 1.003907-7.261718.027344-9.832031-2.546874-2.570313-2.574219-3.539063-6.339844-2.53125-9.835938l1.105469-52.148438c.117187-5.519531 4.691406-9.902343 10.214844-9.785156 5.519531.117188 9.902343 4.6875 9.785156 10.210938l-.574219 27.144531c17.578125-15.441406 42.085937-27.652344 71.578125-27.652344 64.300781 0 107.5 55.585938 107.5 107.5 0 51.914063-43.199219 107.503907-107.5 107.503907zm0 0" fill="#1ae5be"/><path d="m361.507812 52h-77.507812v-1.898438c0-27.570312-22.8125-50.101562-50.386719-50.101562h-55.226562c-27.574219 0-50.386719 22.53125-50.386719 50.101562v1.898438h-77.507812c-27.570313 0-50.492188 22.554688-50.492188 50.125v43.710938c0 5.523437 4.96875 10.164062 10.492188 10.164062h27.507812v265.898438c0 27.574218 21.988281 50.101562 49.5625 50.101562h216.875c24.039062 0 69.5625-19.574219 69.5625-50.101562v-265.898438h27.507812c5.523438 0 10.492188-4.640625 10.492188-10.164062v-43.710938c0-27.570312-22.921875-50.125-50.492188-50.125zm-213.507812-1.898438c0-16.539062 13.84375-30.101562 30.386719-30.101562h55.226562c16.542969 0 30.386719 13.5625 30.386719 30.101562v1.898438h-116zm206 371.796876c0 6.101562-6.0625 13.5-16.585938 19.730468-10.441406 6.171875-23.558593 10.371094-32.976562 10.371094h-216.875c-16.542969 0-29.5625-13.5625-29.5625-30.101562v-265.898438h296zm38-285.898438h-372v-33.875c0-16.542969 13.949219-30.125 30.492188-30.125h311.015624c16.542969 0 30.492188 13.582031 30.492188 30.125zm0 0" fill="#0635c9"/></svg>