<svg height="430pt" viewBox="0 -10 430.158 430" width="430pt" xmlns="http://www.w3.org/2000/svg"><path d="m374.042969 291.367188h-147.363281c-5.671876 0-10.269532-4.597657-10.269532-10.269532v-172.042968l28.675782-44.976563h-25.246094c-3.507813 0-6.773438 1.792969-8.65625 4.75l-44.769532 70.230469v172.039062c0 5.671875 4.59375 10.269532 10.265626 10.269532h225.875c5.667968 0 10.265624-4.597657 10.265624-10.269532v-19.730468zm0 0" fill="#d4e1f4"/><path d="m103.648438 322.011719c-5.523438 0-10-4.476563-10-10v-260.867188c-.019532-17.148437-13.917969-31.046875-31.070313-31.066406h-52.578125c-5.523438 0-10-4.476563-10-10s4.476562-10 10-10h52.578125c28.191406.035156 51.035156 22.878906 51.070313 51.066406v260.867188c0 5.523437-4.476563 10-10 10zm0 0" fill="#0635c9"/><path d="m420.15625 367.96875h-273.589844c-5.519531 0-10-4.476562-10-10s4.480469-10 10-10h273.589844c5.523438 0 10 4.476562 10 10s-4.476562 10-10 10zm0 0" fill="#0635c9"/><g fill="#1ae5be"><path d="m102.65625 410.078125c-29.074219 0-52.644531-23.566406-52.644531-52.640625s23.570312-52.644531 52.644531-52.644531 52.640625 23.566406 52.644531 52.640625c-.03125 29.0625-23.582031 52.613281-52.644531 52.644531zm0-85.285156c-18.027344 0-32.644531 14.613281-32.644531 32.644531 0 18.027344 14.613281 32.640625 32.644531 32.640625 18.027344.003906 32.640625-14.613281 32.644531-32.640625-.023437-18.019531-14.625-32.621094-32.644531-32.644531zm0 0"/><path d="m324.042969 331.367188c-5.523438 0-10-4.476563-10-10v-79.878907l-48.851563-20.484375v100.363282c0 5.523437-4.476562 10-10 10-5.523437 0-10-4.476563-10-10v-115.402344c0-3.347656 1.675782-6.472656 4.460938-8.324219 2.789062-1.855469 6.320312-2.191406 9.40625-.898437l68.851562 28.871093c3.714844 1.558594 6.132813 5.191407 6.132813 9.222657v86.527343c0 5.523438-4.476563 10-10 10zm0 0"/><path d="m289.617188 149.054688c-5.523438 0-10-4.476563-10-10v-74.976563c0-5.523437 4.476562-10 10-10 5.523437 0 10 4.476563 10 10v74.980469c0 5.519531-4.476563 9.996094-10 9.996094zm0 0"/></g><path d="m422.859375 137.769531c-.015625-.097656-.097656-.199219-.113281-.304687-.070313-.367188-.160156-.734375-.269532-1.089844-.011718-.054688-.039062-.109375-.054687-.164062-.128906-.414063-.28125-.820313-.460937-1.21875-.027344-.0625-.066407-.125-.097657-.1875-.160156-.339844-.339843-.667969-.539062-.988282-.027344-.042968-.046875-.09375-.074219-.136718l-44.765625-70.230469c-3.710937-5.851563-10.164063-9.386719-17.089844-9.371094h-139.554687c-6.925782-.015625-13.378906 3.519531-17.089844 9.371094l-44.769531 70.230469c-.03125.042968-.050781.09375-.078125.136718-.195313.320313-.375.648438-.535156.988282-.027344.0625-.0625.125-.089844.1875-.175782.398437-.328125.804687-.449219 1.21875-.015625.054687-.027344.109374-.042969.160156-.097656.359375-.175781.726562-.234375 1.09375-.019531.101562-.199219.199218-.214843.304687-.113282.421875-.203126.851563-.261719 1.285157v172.042968c0 11.179688 9.433593 19.980469 20.601562 19.980469h225.878907c11.171874 0 20.523437-8.800781 20.523437-19.980469v-172.042968c-.046875-.433594-.117187-.863282-.21875-1.285157zm-203.242187-63.554687c.046874-.082032.128906-.132813.222656-.136719h139.554687c.089844.003906.175781.054687.222657.136719l34.96875 54.863281h-209.9375zm182.9375 236.863281h-225.875c-.148438 0-.601563.167969-.601563.019531v-162.019531h227v162.019531c0 .148438-.378906-.019531-.523437-.019531zm0 0" fill="#0635c9"/></svg>