<svg height="400pt" viewBox="0 -23 400 400" width="400pt" xmlns="http://www.w3.org/2000/svg"><path d="m390 353.382812h-380c-5.523438 0-10-4.476562-10-10 0-5.523437 4.476562-10 10-10h380c5.523438 0 10 4.476563 10 10 0 5.523438-4.476562 10-10 10zm0 0" fill="#1ae5be"/><path d="m289.1875 74.191406-82.632812-71.742187c-.03125-.027344-.066407-.050781-.097657-.078125-.113281-.101563-.234375-.1875-.351562-.277344-.121094-.089844-.261719-.199219-.402344-.300781-.136719-.101563-.242187-.160157-.367187-.238281-.140626-.089844-.28125-.179688-.425782-.261719-.128906-.070313-.257812-.136719-.390625-.203125-.128906-.070313-.292969-.148438-.441406-.214844-.144531-.066406-.273437-.117188-.414063-.175781-.140624-.054688-.300781-.113281-.453124-.164063-.152344-.050781-.285157-.097656-.433594-.136718-.144532-.039063-.316406-.085938-.476563-.125-.144531-.03125-.285156-.066407-.429687-.09375-.183594-.035157-.367188-.058594-.554688-.085938-.125-.015625-.246094-.0351562-.371094-.046875-.300781-.03125-.605468-.046875-.910156-.046875h-.074218c-.300782 0-.605469.015625-.910157.046875-.125.0117188-.246093.03125-.371093.046875-.1875.027344-.371094.050781-.554688.085938-.144531.027343-.285156.0625-.429688.09375-.160156.039062-.320312.078124-.476562.125-.160156.046874-.289062.089843-.433594.136718-.144531.050782-.300781.105469-.453125.164063-.152343.0625-.277343.113281-.417969.175781-.136718.0625-.296874.140625-.4375.214844-.140624.070312-.261718.132812-.390624.203125-.144532.082031-.285157.171875-.425782.261719-.125.078124-.25.15625-.371094.238281-.117187.085937-.265624.199219-.398437.300781-.132813.097656-.238281.179688-.351563.277344-.03125.027344-.066406.050781-.097656.078125l-82.628906 71.742187c-4.226562 3.558594-4.765625 9.871094-1.207031 14.09375 3.558593 4.226563 9.871093 4.765625 14.09375 1.207032.078125-.066407.152343-.132813.230469-.199219l66.070312-57.367188v229.839844c0 5.523437 4.476562 10 10 10s10-4.476563 10-10v-229.839844l66.078125 57.367188c2.65625 2.421875 6.40625 3.230469 9.824219 2.121093 3.421875-1.109374 5.980468-3.96875 6.707031-7.488281s-.492187-7.160156-3.191406-9.535156c-.078125-.066406-.152344-.132813-.230469-.199219zm0 0" fill="#0635c9"/></svg>