<svg height="486pt" viewBox="-36 0 485 486" width="486pt" xmlns="http://www.w3.org/2000/svg"><path d="m320.800781 126.800781h78.898438c.007812-22.09375-17.90625-40.007812-40-40h-38.898438zm0 0" fill="#d4e1f4"/><path d="m86.800781 86.800781h-36.699219c-22.09375-.007812-40.007812 17.90625-40 40v224.199219c-.007812 22.09375 17.90625 40.007812 40 40v-224.199219c.015626-20.8125 15.960938-38.148437 36.699219-39.902343zm0 0" fill="#d4e1f4"/><path d="m290.101562 0h-119.5c-2.652343.0195312-5.195312 1.058594-7.101562 2.898438l-77.601562 77.703124c-1.878907 1.878907-2.925782 4.4375-2.898438 7.097657v234.902343h20v-224.902343h36.898438c22.457031-.054688 40.648437-18.242188 40.703124-40.699219v-37h109.5c11.421876.023438 20.675782 9.277344 20.699219 20.699219v281.902343h20v-281.902343c-.019531-22.46875-18.230469-40.6796878-40.699219-40.699219zm-150.203124 77.699219h-22.796876l43.5-43.5v22.800781c-.023437 11.421875-9.277343 20.675781-20.703124 20.699219zm0 0" fill="#1ae5be"/><g fill="#0635c9"><path d="m365.300781 76.800781h-46.402343v20h46.402343c15.445313.042969 27.953125 12.554688 28 28v188.300781h-372.800781v-188.402343c.046875-15.445313 12.554688-27.953125 28-28h43.898438v-20h-43.898438c-26.507812.007812-47.992188 21.492187-48 48v231.902343c.007812 26.503907 21.492188 47.992188 48 48h148.398438v61.398438h-68.398438c-5.523438 0-10 4.476562-10 10s4.476562 10 10 10h161.398438c5.523437 0 10-4.476562 10-10s-4.476563-10-10-10h-73v-61.398438h148.402343c26.507813-.007812 47.992188-21.496093 48-48v-231.902343c-.085937-26.457031-21.542969-47.867188-48-47.898438zm0 307.800781h-316.800781c-15.460938-.011718-27.988281-12.542968-28-28v-23.5h372.699219v23.5c.019531 7.414063-2.910157 14.53125-8.144531 19.78125-5.234376 5.253907-12.339844 8.207032-19.753907 8.21875zm0 0"/><path d="m164.300781 211.5 32.597657-27.300781v85c0 5.523437 4.480468 10 10 10 5.523437 0 10-4.476563 10-10v-85l32.601562 27.300781c4.257812 3.515625 10.558594 2.9375 14.101562-1.300781 3.511719-4.238281 2.980469-10.515625-1.203124-14.097657l-49-41.101562c-.097657-.101562-.199219-.199219-.296876-.199219-.101562-.101562-.300781-.199219-.402343-.300781-.097657-.101562-.199219-.101562-.300781-.199219-.097657-.101562-.296876-.199219-.398438-.300781s-.300781-.101562-.398438-.199219c-.101562-.101562-.300781-.101562-.402343-.199219-.097657-.101562-.300781-.101562-.398438-.203124-.199219-.097657-.300781-.097657-.5-.199219-.101562 0-.300781-.097657-.402343-.097657-.199219 0-.296876-.101562-.5-.101562-.097657 0-.296876-.101562-.398438-.101562-.199219 0-.398438-.097657-.601562-.097657h-.296876c-.632812-.101562-1.273437-.101562-1.902343 0h-.300781c-.199219 0-.398438.097657-.597657.097657-.101562 0-.300781.101562-.402343.101562-.199219 0-.296876.101562-.5.101562-.097657 0-.296876.097657-.398438.097657-.199219.101562-.300781.101562-.5.199219-.101562.101562-.300781.101562-.398438.203124-.203124.097657-.300781.097657-.402343.199219-.097657.097657-.300781.097657-.398438.199219-.152343.074219-.285156.175781-.402343.300781-.097657.097657-.199219.097657-.296876.199219-.101562.101562-.300781.199219-.402343.300781-.097657.097657-.199219.199219-.300781.199219l-49 41.101562c-2.03125 1.707032-3.300782 4.152344-3.523438 6.800782-.226562 2.644531.609375 5.269531 2.324219 7.296875 3.101562 4.300781 9.402343 4.800781 13.601562 1.300781zm0 0"/></g></svg>