<svg height="420pt" viewBox="0 -30 420 420" width="420pt" xmlns="http://www.w3.org/2000/svg"><path d="m410 174.175781c-5.515625.015625-9.984375 4.484375-10 10v126.199219c-.046875 16.546875-13.453125 29.953125-30 30h-320c-16.546875-.046875-29.953125-13.453125-30-30v-126.199219c0-5.523437-4.476562-10-10-10s-10 4.476563-10 10v126.199219c.0117188 27.609375 22.390625 49.988281 50 50h320c27.609375-.011719 49.988281-22.390625 50-50v-126.199219c-.015625-5.515625-4.484375-9.984375-10-10zm0 0" fill="#0635c9"/><path d="m277.101562 56.976562-63.601562-54.5c-.054688 0-.101562-.046874-.101562-.101562l-.296876-.300781c-.101562-.097657-.300781-.199219-.402343-.300781-.09375-.121094-.242188-.195313-.398438-.199219-.101562-.097657-.300781-.199219-.402343-.300781-.097657-.097657-.199219-.097657-.398438-.199219-.199219-.097657-.300781-.199219-.5-.199219-.101562-.101562-.300781-.101562-.398438-.199219-.203124-.101562-.300781-.101562-.5-.199219-.101562 0-.300781-.101562-.402343-.101562-.199219 0-.300781-.101562-.5-.101562-.097657 0-.300781-.097657-.398438-.097657-.199219 0-.402343-.1015622-.601562-.1015622h-.300781c-.628907-.0976563-1.269532-.0976563-1.898438 0h-.300781c-.199219 0-.398438.1015622-.597657.1015622-.101562 0-.300781.097657-.402343.097657-.199219 0-.300781.101562-.5.101562-.097657 0-.300781.101562-.398438.101562-.199219.097657-.300781.097657-.5.199219-.101562.097657-.300781.097657-.402343.199219-.199219.101562-.296876.101562-.5.199219-.097657.101562-.296876.101562-.398438.199219-.101562.101562-.300781.203124-.398438.300781-.101562.101562-.203124.101562-.402343.199219-.097657.101562-.300781.203124-.398438.300781l-.300781.300781c-.054688 0-.101562.042969-.101562.101562l-63.597657 54.5c-4.199219 3.589844-4.691406 9.902344-1.101562 14.097657 3.589843 4.199219 9.902343 4.691406 14.101562 1.101562l47.199219-40.402343v246.402343c0 5.523438 4.476562 10 10 10s10-4.476562 10-10v-246.402343l47.101562 40.402343c4.195313 3.589844 10.507813 3.097657 14.097657-1.101562 3.589843-4.195313 3.097656-10.507813-1.097657-14.097657zm0 0" fill="#1ae5be"/></svg>