<svg height="400pt" viewBox="-102 0 400 400" width="400pt" xmlns="http://www.w3.org/2000/svg"><path d="m109.699219 380v-113.511719h-29.230469c-22.09375 0-40-17.90625-40-40v-151.066406h23.847656v-58.964844c-.003906-2.21875.445313-4.417969 1.316406-6.457031h-14.859374c-9.089844 0-16.457032 7.367188-16.457032 16.457031v58.964844h-23.847656v151.066406c0 22.09375 17.90625 40 40 40h29.230469v113.511719h36.601562v-10zm0 0" fill="#d4e1f4"/><path d="m161.683594 95.421875c-5.519532 0-10-4.480469-10-10v-58.964844c-.003906-3.5625-2.890625-6.453125-6.457032-6.457031h-94.453124c-3.566407.003906-6.453126 2.894531-6.457032 6.457031v58.964844c0 5.519531-4.480468 10-10 10-5.523437 0-10-4.480469-10-10v-58.964844c.015625-14.605469 11.851563-26.441406 26.457032-26.457031h94.453124c14.605469.015625 26.441407 11.851562 26.457032 26.457031v58.964844c0 5.519531-4.476563 10-10 10zm0 0" fill="#1ae5be"/><path d="m185.53125 75h-175.0625c-5.695312.160156-10.285156 4.726562-10.46875 10.421875v151.066406c0 27.570313 22.898438 49.511719 50.46875 49.511719h19.53125v104c-.140625 5.382812 4.105469 9.859375 9.488281 10h.210938 36.601562c5.378907-.023438 9.722657-4.40625 9.699219-9.789062 0-.070313 0-.140626 0-.210938v-104h19.53125c27.570312 0 50.46875-21.941406 50.46875-49.511719v-151.066406c-.183594-5.695313-4.773438-10.261719-10.46875-10.421875zm-79.53125 305h-16v-94h16zm70-143.511719c0 16.542969-13.925781 29.511719-30.46875 29.511719h-95.0625c-16.542969 0-30.46875-12.96875-30.46875-29.511719v-141.488281h156zm0 0" fill="#0635c9"/></svg>