<svg height="400pt" viewBox="-101 0 400 400" width="400pt" xmlns="http://www.w3.org/2000/svg"><path d="m50.175781 334.398438v-197.671876h26.585938v-96.726562h84.476562v-30h-124.476562v96.726562h-26.585938v197.671876c0 36.066406 22.597657 68.261718 56.511719 80.527343-10.75-14.652343-16.539062-32.355469-16.511719-50.527343zm0 0" fill="#d4e1f4"/><g fill="#1ae5be"><path d="m161.238281 116.726562h-124.476562c-5.523438 0-10-4.476562-10-10v-96.726562c0-5.523438 4.476562-10 10-10h124.476562c5.523438 0 10 4.476562 10 10v96.726562c0 5.523438-4.476562 10-10 10zm-114.476562-20h104.476562v-76.726562h-104.476562zm0 0"/><path d="m76.683594 80.964844c-5.523438 0-10-4.480469-10-10v-25.828125c0-5.523438 4.476562-10 10-10 5.523437 0 10 4.476562 10 10v25.828125c0 5.519531-4.476563 10-10 10zm0 0"/><path d="m121.316406 80.964844c-5.523437 0-10-4.480469-10-10v-25.828125c0-5.523438 4.476563-10 10-10 5.523438 0 10 4.476562 10 10v25.828125c0 5.519531-4.476562 10-10 10zm0 0"/></g><path d="m187.824219 97h-177.648438c-5.476562-.140625-10.035156 4.183594-10.175781 9.660156v197.738282c0 52.714843 43.0625 95.601562 95.777344 95.601562h6.445312c52.714844 0 95.777344-42.886719 95.777344-95.601562v-197.671876c-.105469-5.476562-4.632812-9.832031-10.109375-9.726562zm-9.824219 207.398438c0 41.6875-34.089844 75.601562-75.777344 75.601562h-6.445312c-41.6875 0-75.777344-33.914062-75.777344-75.601562v-187.398438h158zm0 0" fill="#0635c9"/></svg>