<svg height="464pt" viewBox="0 -3 464.30187 464" width="464pt" xmlns="http://www.w3.org/2000/svg"><g fill="#d4e1f4"><path d="m123.601562 125.851562c0-52.855468 42.84375-95.699218 95.699219-95.699218 3.101563 0 6.101563.199218 9.101563.398437-32.089844-25.167969-76.597656-27.246093-110.890625-5.171875-34.289063 22.074219-50.832031 63.449219-41.207031 103.078125 9.625 39.628907 43.300781 68.808594 83.894531 72.695313-23.109375-18.152344-36.605469-45.914063-36.597657-75.300782zm0 0"/><path d="m219.199219 265.351562c11.292969-.011718 22.554687 1.160157 33.601562 3.5-25.121093-15.5-54.085937-23.640624-83.601562-23.5-88.097657.199219-159.398438 70.5-159.199219 166.199219l51-.101562c9.101562-85.296875 76.402344-145.898438 158.199219-146.097657zm0 0"/><path d="m311.601562 436.152344c-32.542968-34.488282-36.402343-87.082032-9.246093-125.953125 27.15625-38.871094 77.867187-53.339844 121.445312-34.648438-28.824219-27.851562-71.492187-35.804687-108.414062-20.210937-36.921875 15.597656-60.96875 51.730468-61.09375 91.8125-.128907 40.082031 23.683593 76.367187 60.507812 92.199218zm0 0"/></g><path d="m169.199219 255.351562h.300781c38.152344-.199218 74.882812 14.472657 102.402344 40.898438l13.898437-14.398438c-31.257812-30.015624-72.964843-46.695312-116.300781-46.5h-.300781c-45.796875.097657-88.296875 17.898438-119.796875 50.300782-32 32.699218-49.5000002 77.398437-49.402344 125.898437.0195312 2.652344 1.058594 5.195313 2.902344 7.101563 1.878906 1.878906 4.4375 2.925781 7.097656 2.898437l269-.5v-20l-258.699219.5c2.101563-39.300781 17.398438-75.199219 43.398438-101.898437 27.703125-28.5 65.203125-44.203125 105.5-44.300782zm0 0" fill="#0635c9"/><path d="m169.300781 211.550781c58.375 0 105.699219-47.324219 105.699219-105.699219 0-58.378906-47.324219-105.699218-105.699219-105.699218s-105.699219 47.320312-105.699219 105.699218c.054688 58.351563 47.34375 105.644532 105.699219 105.699219zm0-191.398437c47.332031 0 85.699219 38.367187 85.699219 85.699218 0 47.332032-38.367188 85.699219-85.699219 85.699219s-85.699219-38.367187-85.699219-85.699219c.054688-47.308593 38.390626-85.644531 85.699219-85.699218zm0 0" fill="#0635c9"/><path d="m354.300781 237.449219c-60.75 0-110 49.25-110 110 0 60.753906 49.25 110 110 110s110-49.246094 110-110c.148438-29.21875-11.390625-57.285157-32.054687-77.945313-20.660156-20.660156-48.726563-32.203125-77.945313-32.054687zm0 200c-49.707031 0-90-40.292969-90-90 0-49.703125 40.292969-90 90-90s90 40.296875 90 90c0 49.707031-40.292969 90-90 90zm0 0" fill="#1ae5be"/><path d="m378.601562 365.652344-23.199218-14.902344v-50c0-5.523438-4.480469-10-10-10-5.523438 0-10 4.476562-10 10v55.402344c-.023438 3.40625 1.714844 6.582031 4.597656 8.398437l27.800781 17.800781c1.601563 1.054688 3.480469 1.609376 5.398438 1.597657 4.414062.007812 8.304687-2.894531 9.554687-7.125 1.246094-4.234375-.445312-8.785157-4.152344-11.171875zm0 0" fill="#1ae5be"/></svg>