<svg height="455pt" viewBox="0 0 455 455.4" width="455pt" xmlns="http://www.w3.org/2000/svg"><path d="m310.5 434.101562v-130.402343c-9.175781-1.355469-15.980469-9.222657-16-18.5-.007812-4.960938 1.960938-9.722657 5.46875-13.230469s8.269531-5.476562 13.230469-5.46875h35.902343v-30.898438c-.007812-1.699218.667969-3.332031 1.867188-4.53125 1.203125-1.203124 2.832031-1.875 4.53125-1.871093h34.300781v-3.597657c.003907-1.699218-.667969-3.332031-1.867187-4.53125-1.203125-1.203124-2.835938-1.875-4.53125-1.871093h-57.902344c-1.699219-.003907-3.328125.667969-4.53125 1.871093-1.199219 1.199219-1.875 2.832032-1.867188 4.53125v30.898438h-35.902343c-4.960938-.007812-9.722657 1.960938-13.230469 5.46875s-5.476562 8.269531-5.46875 13.230469c.019531 9.277343 6.824219 17.144531 16 18.5v130.402343c.011719 11.757813 9.539062 21.289063 21.300781 21.296876h11.898438c-2.101563-3.390626-3.210938-7.304688-3.199219-11.296876zm0 0" fill="#d4e1f4"/><path d="m123.800781 125.699219c0-52.851563 42.847657-95.699219 95.699219-95.699219 3.101562 0 6.101562.199219 9.101562.398438-32.089843-25.167969-76.597656-27.246094-110.890624-5.171876-34.289063 22.074219-50.828126 63.449219-41.207032 103.078126 9.625 39.628906 43.300782 68.808593 83.898438 72.695312-23.113282-18.152344-36.605469-45.914062-36.601563-75.300781zm0 0" fill="#d4e1f4"/><path d="m219.402344 265.199219c11.289062-.007813 22.550781 1.164062 33.597656 3.5-25.121094-15.5-54.082031-23.640625-83.597656-23.5-88.101563.199219-159.402344 70.5-159.203125 166.199219l51-.097657c9.101562-85.300781 76.402343-145.902343 158.203125-146.101562zm0 0" fill="#d4e1f4"/><g fill="#0635c9"><path d="m169.5 211.398438c58.375 0 105.699219-47.320313 105.699219-105.699219 0-58.375-47.324219-105.699219-105.699219-105.699219s-105.699219 47.324219-105.699219 105.699219c.054688 58.355469 47.347657 105.644531 105.699219 105.699219zm0-191.398438c47.332031 0 85.699219 38.371094 85.699219 85.699219 0 47.332031-38.367188 85.699219-85.699219 85.699219s-85.699219-38.367188-85.699219-85.699219c.054688-47.308594 38.390625-85.644531 85.699219-85.699219zm0 0"/><path d="m20.5 401.300781c2.101562-39.300781 17.402344-75.199219 43.402344-101.902343 27.699218-28.5 65.199218-44.199219 105.5-44.199219h.296875c31.753906-.175781 62.707031 9.96875 88.203125 28.902343.699218.5 1.398437 1 2.097656 1.597657l12.199219-15.800781c-.796875-.597657-1.597657-1.199219-2.296875-1.796876-28.902344-21.5-63.5-32.800781-100.203125-32.800781h-.296875c-45.800782.097657-88.300782 17.898438-119.800782 50.300781-32 32.597657-49.5 77.296876-49.402343 125.796876.015625 5.519531 4.484375 9.984374 10 10l273-.5v-20zm0 0"/><path d="m354.5 355.398438c-5.515625.015624-9.984375 4.484374-10 10v45.101562c0 5.523438 4.476562 10 10 10s10-4.476562 10-10v-45.101562c-.015625-5.515626-4.484375-9.984376-10-10zm0 0"/><path d="m388.699219 355.398438c-5.515625.015624-9.984375 4.484374-10 10v45.101562c0 5.523438 4.476562 10 10 10 5.523437 0 10-4.476562 10-10v-45.101562c-.015625-5.515626-4.484375-9.984376-10-10zm0 0"/><path d="m320.402344 355.398438c-5.519532.015624-9.984375 4.484374-10 10v45.101562c0 5.523438 4.476562 10 10 10 5.519531 0 10-4.476562 10-10v-45.101562c-.019532-5.515626-4.484375-9.984376-10-10zm0 0"/></g><path d="m425.800781 246.5h-25.898437v-20.898438c-.007813-9.058593-7.347656-16.394531-16.402344-16.402343h-57.898438c-9.054687.007812-16.394531 7.34375-16.402343 16.402343v20.898438h-25.898438c-13.34375.019531-24.921875 9.21875-27.949219 22.214844-3.027343 13 3.285157 26.371094 15.25 32.285156v123.101562c.023438 17.273438 14.023438 31.273438 31.300782 31.296876h105.296875c17.277343-.023438 31.273437-14.023438 31.300781-31.296876v-123.101562c11.960938-5.914062 18.277344-19.285156 15.25-32.285156-3.027344-12.996094-14.605469-22.195313-27.949219-22.214844zm-96.699219-17.300781h50.800782v17.300781h-50.800782zm-45.800781 37.300781h142.5c3.816407.003906 7.191407 2.492188 8.3125 6.144531 1.125 3.648438-.257812 7.605469-3.414062 9.753907-.714844-.195313-1.457031-.296876-2.199219-.296876-2.066406.027344-4.078125.652344-5.800781 1.796876h-136.398438c-1.707031-1.171876-3.730469-1.800782-5.800781-1.796876-.742188-.007812-1.484375.09375-2.199219.296876-3.167969-2.160157-4.550781-6.144532-3.398437-9.804688s4.5625-6.132812 8.398437-6.09375zm123.898438 169h-105.296875c-3 .003906-5.875-1.1875-7.996094-3.304688-2.121094-2.121093-3.308594-4.996093-3.304688-7.996093v-120.199219h128v120.199219c-.113281 6.234375-5.167968 11.246093-11.402343 11.300781zm0 0" fill="#1ae5be"/></svg>