<svg height="473pt" viewBox="0 -10 473.42486 473" width="473pt" xmlns="http://www.w3.org/2000/svg"><g fill="#d4e1f4"><path d="m124.300781 125.914062c0-52.855468 42.84375-95.703124 95.699219-95.703124 3.101562 0 6.101562.203124 9.101562.402343-32.089843-25.171875-76.597656-27.246093-110.890624-5.171875-34.289063 22.070313-50.832032 63.445313-41.207032 103.074219s43.300782 68.808594 83.894532 72.695313c-23.109376-18.148438-36.601563-45.910157-36.597657-75.296876zm0 0"/><path d="m219.898438 265.414062c11.292968-.011718 22.554687 1.160157 33.601562 3.5-25.121094-15.5-54.082031-23.640624-83.601562-23.5-88.097657.199219-159.398438 70.5-159.199219 166.199219l51-.101562c9.101562-85.300781 76.402343-145.898438 158.199219-146.097657zm0 0"/><path d="m303.199219 381.914062 127.800781-127.800781-15-15-132.800781 132.800781-23.699219 71.097657 26.199219-8.699219zm0 0"/></g><path d="m170 211.613281c58.375 0 105.699219-47.324219 105.699219-105.699219 0-58.378906-47.324219-105.703124-105.699219-105.703124s-105.699219 47.324218-105.699219 105.703124c.054688 58.351563 47.34375 105.644532 105.699219 105.699219zm0-191.402343c47.332031 0 85.699219 38.371093 85.699219 85.703124 0 47.328126-38.367188 85.699219-85.699219 85.699219s-85.699219-38.371093-85.699219-85.699219c.054688-47.308593 38.390625-85.648437 85.699219-85.703124zm0 0" fill="#0635c9"/><path d="m290.300781 364.8125c-2.449219-2.472656-6.007812-3.492188-9.394531-2.699219-3.386719.796875-6.113281 3.296875-7.207031 6.597657l-8.898438 26.703124h-244.5c5.199219-78.101562 70.300781-140 149.699219-140 58.546875.109376 111.714844 34.164063 136.300781 87.296876 2.320313 5.027343 8.273438 7.222656 13.300781 4.902343 5.023438-2.320312 7.21875-8.273437 4.898438-13.300781-27.734375-60.351562-88.082031-99.019531-154.5-99-93.699219 0-170 76.300781-170 170 .015625 5.515625 4.484375 9.984375 10 10h248.101562l-8.203124 24.5c-1.222657 3.578125-.292969 7.542969 2.402343 10.199219 1.890625 1.867187 4.441407 2.910156 7.097657 2.902343 1.085937-.019531 2.164062-.1875 3.203124-.5l71.097657-23.703124c3.304687-1.089844 5.804687-3.820313 6.597656-7.207032.796875-3.386718-.226563-6.941406-2.695313-9.390625zm-15 62.398438 12.300781-36.796876 24.5 24.5zm0 0" fill="#0635c9"/><path d="m397 258.113281c-3.894531-3.894531-10.207031-3.894531-14.101562 0-3.890626 3.894531-3.890626 10.207031 0 14.097657l47.402343 47.402343c1.875 1.886719 4.4375 2.933594 7.097657 2.898438 2.65625-.011719 5.199218-1.050781 7.101562-2.898438 1.871094-1.871093 2.925781-4.40625 2.925781-7.050781s-1.054687-5.183594-2.925781-7.050781zm0 0" fill="#0635c9"/><path d="m423 232.113281c-1.867188-1.875-4.40625-2.925781-7.050781-2.925781s-5.179688 1.050781-7.050781 2.925781l-132.796876 132.699219c-1.875 1.867188-2.925781 4.40625-2.925781 7.050781s1.050781 5.179688 2.925781 7.050781l47.398438 47.398438c1.875 1.890625 4.4375 2.9375 7.101562 2.898438 2.652344-.007813 5.195313-1.050782 7.097657-2.898438l132.800781-132.800781c1.871094-1.867188 2.925781-4.402344 2.925781-7.050781 0-2.644532-1.054687-5.179688-2.925781-7.046876zm-92.398438 173.097657-33.300781-33.296876 118.597657-118.601562 33.300781 33.300781zm0 0" fill="#1ae5be"/></svg>