<svg height="464pt" viewBox="-2 0 464 464.1" width="464pt" xmlns="http://www.w3.org/2000/svg"><path d="m289.351562 434.101562v-117.300781c.054688-22.070312 17.929688-39.945312 40-40h110c1.605469 0 3.207032.101563 4.800782.300781-7.109375-12.53125-20.394532-20.285156-34.800782-20.300781h-110c-22.070312.054688-39.945312 17.929688-40 40v117.300781c.011719 20.226563 15.117188 37.265626 35.199219 39.699219-3.421875-6.003906-5.210937-12.792969-5.199219-19.699219zm0 0" fill="#d4e1f4"/><path d="m123.652344 125.699219c0-52.851563 42.84375-95.699219 95.699218-95.699219 3.097657 0 6.097657.199219 9.097657.398438-32.085938-25.167969-76.597657-27.246094-110.886719-5.171876-34.292969 22.074219-50.832031 63.449219-41.207031 103.078126 9.625 39.628906 43.300781 68.808593 83.894531 72.695312-23.109375-18.152344-36.605469-45.914062-36.597656-75.300781zm0 0" fill="#d4e1f4"/><path d="m219.25 265.199219c11.292969-.007813 22.554688 1.164062 33.601562 3.5-25.121093-15.5-54.085937-23.640625-83.601562-23.5-88.097656.199219-159.398438 70.5-159.199219 166.199219l51-.097657c9.101563-85.300781 76.398438-145.902343 158.199219-146.101562zm0 0" fill="#d4e1f4"/><g fill="#0635c9"><path d="m169.351562 0c-58.378906 0-105.699218 47.324219-105.699218 105.699219 0 58.378906 47.320312 105.699219 105.699218 105.699219 58.375 0 105.699219-47.320313 105.699219-105.699219-.054687-58.351563-47.347656-105.6445315-105.699219-105.699219zm0 191.398438c-47.332031 0-85.699218-38.367188-85.699218-85.699219 0-47.328125 38.367187-85.699219 85.699218-85.699219 47.328126 0 85.699219 38.371094 85.699219 85.699219-.054687 47.308593-38.390625 85.644531-85.699219 85.699219zm0 0"/><path d="m259.152344 285.101562 11.898437-16.101562c-.101562-.101562-.199219-.199219-.300781-.199219-29.132812-22-64.691406-33.808593-101.199219-33.601562h-.300781c-45.800781.101562-88.300781 17.902343-119.800781 50.300781-32 32.699219-49.5000002 77.398438-49.3984378 125.898438.0195313 2.652343 1.0585938 5.195312 2.8984378 7.101562 1.882812 1.882812 4.441406 2.925781 7.101562 2.898438l249.300781-.5h3.699219l-.101562-20-242.699219.5c2.101562-39.296876 17.402344-75.199219 43.402344-101.898438 27.699218-28.5 65.199218-44.199219 105.5-44.199219h.296875c32.179687-.203125 63.527343 10.203125 89.203125 29.597657.097656 0 .097656.101562.199218.101562h-.101562c.199219-.101562.300781 0 .402344.101562zm0 0"/><path d="m409.152344 354h-109.601563c-5.523437 0-10 4.476562-10 10s4.476563 10 10 10h109.601563c5.519531 0 10-4.476562 10-10s-4.480469-10-10-10zm0 0"/><path d="m362.949219 400.601562h-63.398438c-5.523437 0-10 4.476563-10 10 0 5.519532 4.476563 10 10 10h63.398438c5.523437 0 10-4.480468 10-10 0-5.523437-4.476563-10-10-10zm0 0"/></g><path d="m409.351562 246.800781h-110c-27.617187 0-50 22.386719-50 50v117.300781c.007813 27.609376 22.390626 49.988282 50 50h110c27.609376-.011718 49.988282-22.390624 50-50v-117.300781c-.011718-27.609375-22.390624-49.992187-50-50zm-136 35c5.402344-9.246093 15.289063-14.949219 26-15h110c16.546876.046875 29.949219 13.449219 30 30v11.699219h-170v-11.699219c-.003906-5.265625 1.375-10.4375 4-15zm136 162.300781h-110c-16.550781-.050781-29.953124-13.453124-30-30v-85.601562h170v85.601562c.007813 7.957032-3.148437 15.59375-8.777343 21.222657-5.628907 5.628906-13.265625 8.785156-21.222657 8.777343zm0 0" fill="#1ae5be"/><path d="m310.550781 289.101562c5.515625-.015624 9.984375-4.484374 10-10v-37.601562c0-5.523438-4.476562-10-10-10-5.523437 0-10 4.476562-10 10v37.699219c-.003906 2.644531 1.050781 5.183593 2.929688 7.042969 1.878906 1.859374 4.425781 2.890624 7.070312 2.859374zm0 0" fill="#0635c9"/><path d="m398.25 289.101562c5.515625-.015624 9.984375-4.484374 10-10v-37.601562c0-5.523438-4.476562-10-10-10s-10 4.476562-10 10v37.699219c-.003906 2.644531 1.050781 5.183593 2.929688 7.042969 1.878906 1.859374 4.425781 2.890624 7.070312 2.859374zm0 0" fill="#0635c9"/></svg>