<svg height="444pt" viewBox="0 -6 444.57112 444" width="444pt" xmlns="http://www.w3.org/2000/svg"><g fill="#d4e1f4"><path d="m299.300781 404.085938 7.5-43.898438-52.5-51.203125 72.601563-10.5 19.898437-40.398437-17.5-35.398438-32.398437 65.796875-72.601563 10.5 52.5 51.203125-12.398437 72.296875zm0 0"/><path d="m123.601562 125.984375c0-52.851563 42.84375-95.699219 95.699219-95.699219 3.101563 0 6.101563.199219 9.101563.402344-32.089844-25.171875-76.597656-27.246094-110.890625-5.175781-34.289063 22.074219-50.832031 63.449219-41.207031 103.078125s43.300781 68.808594 83.894531 72.695312c-23.109375-18.152344-36.605469-45.914062-36.597657-75.300781zm0 0"/><path d="m219.199219 265.484375c11.292969-.007813 22.554687 1.164063 33.601562 3.5-25.121093-15.496094-54.085937-23.640625-83.601562-23.5-88.097657.203125-159.398438 70.5-159.199219 166.203125l51-.101562c9.101562-85.300782 76.402344-145.898438 158.199219-146.101563zm0 0"/></g><path d="m169.300781 211.6875c58.375 0 105.699219-47.324219 105.699219-105.703125 0-58.375-47.324219-105.699219-105.699219-105.699219s-105.699219 47.324219-105.699219 105.699219c.054688 58.355469 47.34375 105.644531 105.699219 105.703125zm0-191.402344c47.332031 0 85.699219 38.371094 85.699219 85.699219 0 47.332031-38.367188 85.703125-85.699219 85.703125s-85.699219-38.371094-85.699219-85.703125c.054688-47.308594 38.390626-85.644531 85.699219-85.699219zm0 0" fill="#0635c9"/><path d="m169.101562 235.484375c-45.800781.101563-88.300781 17.902344-119.800781 50.300781-31.898437 32.699219-49.3984372 77.402344-49.300781 125.902344.0195312 2.648438 1.058594 5.191406 2.902344 7.097656 1.878906 1.882813 4.4375 2.925782 7.097656 2.902344l256-.5v-20l-245.699219.5c2.101563-39.300781 17.300781-75.203125 43.398438-101.902344 27.703125-28.5 65.203125-44.199218 105.5-44.199218h.300781c38.152344-.199219 74.882812 14.472656 102.402344 40.898437l13.898437-14.398437c-31.257812-30.015626-72.964843-46.691407-116.300781-46.5-.097656-.101563-.199219-.101563-.398438-.101563zm0 0" fill="#0635c9"/><path d="m436 289.886719-67.300781-10.300781-29.699219-61.300782c-1.660156-3.40625-5.109375-5.574218-8.898438-5.597656-3.8125-.0625-7.316406 2.078125-9 5.5l-30.601562 60.796875-67.398438 9.300781c-3.773437.511719-6.925781 3.132813-8.117187 6.75-1.191406 3.617188-.214844 7.597656 2.515625 10.25l48.402344 47.902344-12 67c-.691406 3.742188.824218 7.550781 3.898437 9.796875 3.042969 2.292969 7.144531 2.605469 10.5.800781l60.5-31.199218 60 32.101562c1.445313.78125 3.058594 1.191406 4.699219 1.199219 2.089844.015625 4.125-.652344 5.800781-1.902344 3.113281-2.222656 4.703125-6.019531 4.101563-9.796875l-11-67.203125 49.097656-47.097656c2.746094-2.625 3.753906-6.582031 2.601562-10.199219-1.242187-3.585938-4.355468-6.199219-8.101562-6.800781zm-61.300781 53.5c-2.390625 2.253906-3.480469 5.5625-2.898438 8.800781l8.601563 52.398438-46.800782-25c-1.445312-.78125-3.058593-1.195313-4.699218-1.199219-1.597656.019531-3.167969.394531-4.601563 1.097656l-47.199219 24.300781 9.398438-52.199218c.570312-3.246094-.472656-6.566407-2.800781-8.898438l-37.699219-37.300781 52.601562-7.199219c3.269532-.4375 6.113282-2.457031 7.597657-5.402344l23.800781-47.398437 23.101562 47.800781c1.410157 2.980469 4.230469 5.046875 7.5 5.5l52.398438 8zm0 0" fill="#1ae5be"/></svg>