<svg height="459pt" viewBox="-12 0 459 459.3015" width="459pt" xmlns="http://www.w3.org/2000/svg"><g fill="#d4e1f4"><path d="m334.851562 349.898438-70.5-60.097657v-54.300781h-20.101562l.101562 64.300781 70.5 60.097657.101563 89.402343 20-10.101562zm0 0"/><path d="m123.75 125.699219c0-52.851563 42.847656-95.699219 95.703125-95.699219 3.097656 0 6.097656.199219 9.097656.398438-32.085937-25.167969-76.597656-27.246094-110.886719-5.171876-34.292968 22.074219-50.832031 63.449219-41.207031 103.078126 9.625 39.628906 43.296875 68.808593 83.894531 72.695312-23.113281-18.152344-36.605468-45.914062-36.601562-75.300781zm0 0"/><path d="m219.351562 265.199219c11.292969-.007813 22.550782 1.164062 33.601563 3.5-25.121094-15.5-54.085937-23.640625-83.601563-23.5-88.101562.199219-159.398437 70.5-159.199218 166.199219l51-.097657c9.097656-85.300781 76.398437-145.902343 158.199218-146.101562zm0 0"/></g><path d="m424.453125 255.800781h-173.703125c-24.875-13.566406-52.765625-20.648437-81.097656-20.601562h-.300782c-45.800781.101562-88.300781 17.902343-119.800781 50.300781-32 32.699219-49.4999998 77.398438-49.398437 125.898438.015625 5.519531 4.484375 9.984374 10 10l303-.5c5.523437 0 10-4.476563 10-10 0-5.519532-4.476563-10-10-10l-292.699219.5c2.097656-39.296876 17.296875-75.199219 43.398437-101.898438 27.699219-28.5 65.199219-44.199219 105.5-44.199219h.300782c24.519531-.082031 48.675781 5.929688 70.300781 17.5 1.875 1.972657 4.476563 3.09375 7.199219 3.097657h177.300781c5.546875 0 10.046875-4.496094 10.046875-10.046876 0-5.550781-4.5-10.050781-10.046875-10.050781zm0 0" fill="#0635c9"/><path d="m169.453125 211.398438c58.375 0 105.699219-47.320313 105.699219-105.699219 0-58.375-47.324219-105.699219-105.699219-105.699219-58.378906 0-105.703125 47.324219-105.703125 105.699219.054688 58.355469 47.347656 105.644531 105.703125 105.699219zm0-191.398438c47.328125 0 85.699219 38.371094 85.699219 85.699219 0 47.332031-38.371094 85.699219-85.699219 85.699219-47.332031 0-85.703125-38.367188-85.703125-85.699219.054688-47.308594 38.394531-85.644531 85.703125-85.699219zm0 0" fill="#0635c9"/><path d="m424.453125 225.398438h-180c-5.519531.015624-9.984375 4.484374-10 10v64.203124c.011719 2.917969 1.289063 5.6875 3.5 7.597657l66.796875 57.300781v84.800781c-.007812 3.453125 1.769531 6.667969 4.703125 8.5 1.585937.992188 3.425781 1.511719 5.296875 1.5 1.570312.027344 3.121094-.351562 4.5-1.101562l39.402344-19.699219c3.363281-1.691406 5.488281-5.132812 5.5-8.898438v-65.101562l66.800781-57.300781c2.207031-1.910157 3.484375-4.679688 3.5-7.597657v-64.203124c.007813-2.652344-1.042969-5.203126-2.921875-7.078126-1.875-1.878906-4.425781-2.929687-7.078125-2.921874zm-10 69.601562-66.800781 57.300781c-2.210938 1.910157-3.488282 4.679688-3.5 7.597657v63.5l-19.402344 9.703124v-73.203124c-.011719-2.917969-1.289062-5.6875-3.5-7.597657l-66.796875-57.300781v-49.601562h160zm0 0" fill="#1ae5be"/></svg>