<svg height="468pt" viewBox="0 -2 468.30594 468" width="468pt" xmlns="http://www.w3.org/2000/svg"><g fill="#d4e1f4"><path d="m381.101562 313.453125h58.398438l18.800781-30h-77.199219zm0 0"/><path d="m311.300781 278.554688h71.800781v-30h-101.800781v86h30zm0 0"/><path d="m123.601562 125.851562c0-52.851562 42.84375-95.699218 95.699219-95.699218 3.101563 0 6.101563.199218 9.101563.402344-32.089844-25.171876-76.597656-27.246094-110.890625-5.175782-34.289063 22.074219-50.832031 63.449219-41.207031 103.078125 9.625 39.628907 43.300781 68.808594 83.894531 72.695313-23.109375-18.152344-36.605469-45.910156-36.597657-75.300782zm0 0"/><path d="m219.199219 265.351562c11.292969-.007812 22.554687 1.164063 33.601562 3.5-25.121093-15.496093-54.085937-23.640624-83.601562-23.5-88.097657.203126-159.398438 70.5-159.199219 166.203126l51-.101563c9.101562-85.300781 76.402344-145.898437 158.199219-146.101563zm0 0"/></g><path d="m169.300781 211.554688c58.375 0 105.699219-47.324219 105.699219-105.703126 0-58.375-47.324219-105.699218-105.699219-105.699218s-105.699219 47.324218-105.699219 105.699218c.054688 58.355469 47.34375 105.644532 105.699219 105.703126zm0-191.402344c47.332031 0 85.699219 38.371094 85.699219 85.699218 0 47.332032-38.367188 85.703126-85.699219 85.703126s-85.699219-38.371094-85.699219-85.703126c.054688-47.304687 38.390626-85.644531 85.699219-85.699218zm0 0" fill="#0635c9"/><path d="m169.199219 255.351562h.300781c38.152344-.195312 74.882812 14.472657 102.402344 40.902344l13.898437-14.402344c-31.257812-30.015624-72.964843-46.691406-116.300781-46.5h-.300781c-45.796875.101563-88.296875 17.902344-119.796875 50.300782-32 32.699218-49.5000002 77.402344-49.402344 125.902344.015625 5.515624 4.484375 9.980468 10 10l273-.5v-20l-262.699219.5c2.101563-39.300782 17.398438-75.203126 43.398438-101.902344 27.703125-28.5 65.203125-44.199219 105.5-44.300782zm0 0" fill="#0635c9"/><path d="m467.101562 278.554688c-1.746093-3.183594-5.074218-5.171876-8.699218-5.203126h-65.203125v-24.898437c-.015625-5.515625-4.484375-9.984375-10-10h-101.898438c-5.515625.015625-9.984375 4.484375-10 10v204.800781c0 5.523438 4.476563 10 10 10 5.523438 0 10-4.476562 10-10v-108.699218h41.101563v22.597656c.015625 5.515625 4.480468 9.984375 10 10h115.898437c3.695313.027344 7.09375-2.019532 8.800781-5.300782 1.695313-3.273437 1.503907-7.203124-.5-10.296874l-23.5-35 23.699219-37.902344c1.894531-3.070313 2.007813-6.921875.300781-10.097656zm-175.800781 36v-56h81.800781v66h-81.800781zm131.601563 17.796874 16.699218 24.800782h-87.101562v-12.597656h30.699219c5.515625-.019532 9.984375-4.484376 10-10v-41.101563h47.203125l-17.601563 28.101563c-2.171875 3.28125-2.128906 7.554687.101563 10.796874zm0 0" fill="#1ae5be"/></svg>