<svg height="459pt" viewBox="0 -8 459.26953 459" width="459pt" xmlns="http://www.w3.org/2000/svg"><g fill="#d4e1f4"><path d="m290.699219 327.535156c5.203125-27.601562 24.5-45.300781 49.5-45.300781 14.101562 0 29.101562 5.699219 44.101562 16.898437 14.800781-10.699218 30-16.398437 43.800781-16.398437 3.324219-.023437 6.644532.3125 9.898438 1-9.199219-13.199219-23.300781-21-39.898438-21-13.800781 0-29.101562 5.699219-43.800781 16.398437-15-11.199218-30-16.898437-44.101562-16.898437-25 0-44.296875 17.601563-49.5 45.300781-7.097657 36.800782 12.601562 84.5 70.402343 115-34.5-29-46.101562-65.5-40.402343-95zm0 0"/><path d="m123.601562 125.835938c0-52.855469 42.84375-95.703126 95.699219-95.703126 3.101563 0 6.101563.203126 9.101563.402344-32.089844-25.171875-76.597656-27.246094-110.890625-5.171875-34.289063 22.070313-50.832031 63.449219-41.207031 103.078125s43.300781 68.808594 83.894531 72.691406c-23.109375-18.148437-36.605469-45.910156-36.597657-75.296874zm0 0"/><path d="m219.199219 265.335938c11.292969-.011719 22.554687 1.160156 33.601562 3.5-25.121093-15.5-54.085937-23.640626-83.601562-23.5-88.097657.199218-159.398438 70.5-159.199219 166.199218l51-.101562c9.101562-85.300782 76.402344-145.898438 158.199219-146.097656zm0 0"/></g><path d="m169.300781 211.535156c58.375 0 105.699219-47.324218 105.699219-105.699218 0-58.378907-47.324219-105.703126-105.699219-105.703126s-105.699219 47.324219-105.699219 105.703126c.054688 58.351562 47.34375 105.644531 105.699219 105.699218zm0-191.402344c47.332031 0 85.699219 38.371094 85.699219 85.703126 0 47.328124-38.367188 85.699218-85.699219 85.699218s-85.699219-38.371094-85.699219-85.699218c.054688-47.308594 38.390626-85.644532 85.699219-85.703126zm0 0" fill="#0635c9"/><path d="m20.300781 401.433594c2.101563-39.300782 17.300781-75.199219 43.398438-101.898438 27.703125-28.5 65.203125-44.199218 105.5-44.199218h.300781c37.050781-.167969 72.796875 13.652343 100.101562 38.699218l13.5-14.699218c-30.96875-28.460938-71.542968-44.175782-113.601562-44h-.300781c-45.796875.097656-88.296875 17.898437-119.796875 50.296874-32 32.703126-49.5000002 77.402344-49.402344 125.902344.015625 5.515625 4.484375 9.984375 10 10l301.699219-.5v-20zm0 0" fill="#0635c9"/><path d="m457.699219 305.535156c-6.5-32.101562-29.898438-52.800781-59.597657-52.800781-14.101562 0-29.101562 4.898437-43.699218 14.300781-14.800782-9.800781-29.703125-14.800781-44.203125-14.800781-29.898438 0-53.199219 21-59.398438 53.398437-8.601562 44.902344 18.101563 104.300782 97.398438 135.800782.203125.101562.300781.101562.5.199218 1.765625.636719 3.625.976563 5.5 1 1.878906-.015624 3.738281-.351562 5.5-1 .203125-.097656.402343-.097656.601562-.199218 79.300781-32.097656 106.101563-91.300782 97.398438-135.898438zm-103.398438 116.800782c-67.601562-27.300782-90.800781-76.300782-83.800781-112.902344 4.300781-22.898438 19.601562-37.097656 39.699219-37.097656 11.800781 0 25 5.199218 38.101562 14.898437 3.535157 2.582031 8.320313 2.621094 11.898438.101563 13.101562-9.5 26.203125-14.5 38-14.5 20.101562 0 35.402343 14.097656 40 36.699218 9.601562 50-35 92.5-83.898438 112.800782zm0 0" fill="#1ae5be"/></svg>