<svg height="462pt" viewBox="-7 0 462 462.90051" width="462pt" xmlns="http://www.w3.org/2000/svg"><g fill="#d4e1f4"><path d="m124.050781 125.699219c0-52.851563 42.847657-95.699219 95.699219-95.699219 3.101562 0 6.101562.199219 9.101562.398438-32.089843-25.167969-76.597656-27.246094-110.890624-5.171876-34.289063 22.074219-50.828126 63.449219-41.207032 103.078126 9.625 39.628906 43.300782 68.808593 83.898438 72.695312-23.113282-18.152344-36.605469-45.914062-36.601563-75.300781zm0 0"/><path d="m219.652344 265.199219c11.289062-.007813 22.550781 1.164062 33.597656 3.5-25.121094-15.5-54.082031-23.640625-83.597656-23.5-88.101563.199219-159.402344 70.5-159.203125 166.199219l51-.097657c9.101562-85.300781 76.402343-145.902343 158.203125-146.101562zm0 0"/><path d="m328.449219 388.601562c-8.488281-8.84375-15.089844-19.324218-19.398438-30.800781-4.089843-11.019531-5.824219-22.769531-5.101562-34.5 2.5-37.902343 29.300781-71.902343 67.800781-79.800781-5.59375-1.132812-11.289062-1.703125-17-1.699219-47.398438 0-81.898438 38.300781-84.800781 81.5-.722657 11.730469 1.011719 23.480469 5.101562 34.5 4.308594 11.476563 10.910157 21.957031 19.398438 30.800781l60.300781 64.296876 17-18.097657zm0 0"/></g><path d="m169.75 211.398438c58.378906 0 105.699219-47.320313 105.699219-105.699219 0-58.375-47.320313-105.699219-105.699219-105.699219-58.375 0-105.699219 47.324219-105.699219 105.699219.054688 58.355469 47.347657 105.644531 105.699219 105.699219zm0-191.398438c47.332031 0 85.699219 38.371094 85.699219 85.699219 0 47.332031-38.367188 85.699219-85.699219 85.699219s-85.699219-38.367188-85.699219-85.699219c.054688-47.308594 38.390625-85.644531 85.699219-85.699219zm0 0" fill="#0635c9"/><path d="m313.449219 400.800781-292.699219.5c2.101562-39.300781 17.402344-75.199219 43.402344-101.902343 27.699218-28.5 65.199218-44.199219 105.5-44.199219 38.257812-.292969 75.117187 14.386719 102.699218 40.902343 3.976563 3.808594 10.289063 3.675782 14.097657-.300781 3.8125-3.976562 3.679687-10.289062-.296875-14.101562-31.257813-30.015625-72.96875-46.691407-116.300782-46.5h-.300781c-45.800781.101562-88.300781 17.902343-119.800781 50.300781-31.898438 32.699219-49.398438 77.398438-49.300781 125.898438.015625 5.519531 4.484375 9.984374 10 10l303-.5c5.519531-.015626 9.984375-4.480469 10-10-.042969-5.519532-4.476563-10-10-10.097657zm0 0" fill="#0635c9"/><path d="m354.75 275.199219c-25.398438 0-46.097656 21.101562-46.097656 47.101562s20.699218 47.097657 46.097656 47.097657c25.402344 0 46.101562-21.097657 46.101562-47.097657s-20.699218-47.101562-46.101562-47.101562zm0 74.101562c-14.398438 0-26.097656-12.101562-26.097656-27.101562 0-14.898438 11.699218-27.097657 26.097656-27.097657 14.402344 0 26.101562 12.097657 26.101562 27.097657s-11.699218 27.101562-26.101562 27.101562zm0 0" fill="#0635c9"/><path d="m420.949219 259.300781c-17.53125-17.605469-41.351563-27.5-66.199219-27.5-24.84375 0-48.667969 9.894531-66.199219 27.5-16.847656 16.964844-27.003906 39.441407-28.601562 63.300781-.859375 13.117188 1.046875 26.265626 5.601562 38.597657 4.761719 12.746093 12.078125 24.382812 21.5 34.199219l60.300781 64.300781c1.886719 2.027343 4.527344 3.183593 7.300782 3.199219 2.777344.03125 5.4375-1.136719 7.296875-3.199219l60.300781-64.300781c9.800781-10.5 17.101562-22 21.5-34.199219 4.566406-12.328125 6.476562-25.480469 5.601562-38.597657-1.390624-23.871093-11.496093-46.394531-28.402343-63.300781zm4.203125 95c-3.5 9.699219-9.402344 18.898438-17.300782 27.398438l-53 56.5-53-56.5c-7.585937-7.847657-13.476562-17.175781-17.300781-27.398438-3.652343-9.699219-5.183593-20.0625-4.5-30.402343 1.277344-19.054688 9.367188-37.019532 22.800781-50.597657 13.769532-13.828125 32.484376-21.601562 52-21.601562 19.515626 0 38.226563 7.773437 52 21.601562 13.449219 13.566407 21.542969 31.535157 22.800782 50.597657.582031 10.335937-.949219 20.679687-4.5 30.402343zm0 0" fill="#1ae5be"/></svg>