<svg height="456pt" viewBox="0 -17 456.80043 456" width="456pt" xmlns="http://www.w3.org/2000/svg"><g fill="#d4e1f4"><path d="m276.800781 307h170v-30h-200v134.800781h30zm0 0"/><path d="m123.601562 126.101562c0-52.855468 42.84375-95.703124 95.699219-95.703124 3.101563 0 6.101563.203124 9.101563.402343-32.089844-25.171875-76.597656-27.246093-110.890625-5.171875-34.289063 22.070313-50.832031 63.445313-41.207031 103.078125 9.625 39.628907 43.300781 68.808594 83.894531 72.691407-23.109375-18.148438-36.605469-45.910157-36.597657-75.296876zm0 0"/><path d="m219.199219 265.601562c11.292969-.011718 22.554687 1.160157 33.601562 3.5-25.121093-15.5-54.085937-23.640624-83.601562-23.5-88.097657.199219-159.398438 70.5-159.199219 166.199219l51-.101562c9.101562-85.300781 76.402344-145.898438 158.199219-146.097657zm0 0"/></g><path d="m169.300781 211.800781c58.375 0 105.699219-47.324219 105.699219-105.699219 0-58.378906-47.324219-105.703124-105.699219-105.703124s-105.699219 47.324218-105.699219 105.703124c.054688 58.351563 47.34375 105.644532 105.699219 105.699219zm0-191.402343c47.332031 0 85.699219 38.371093 85.699219 85.703124 0 47.328126-38.367188 85.699219-85.699219 85.699219s-85.699219-38.371093-85.699219-85.699219c.054688-47.308593 38.390626-85.644531 85.699219-85.703124zm0 0" fill="#0635c9"/><path d="m169.5 235.601562h-.300781c-45.796875.097657-88.296875 17.898438-119.796875 50.296876-32 32.703124-49.5000002 77.402343-49.402344 125.902343.0195312 2.652344 1.058594 5.191407 2.902344 7.097657 1.878906 1.882812 4.4375 2.929687 7.097656 2.902343l238-.5v-20l-227.699219.5c2.101563-39.300781 17.300781-75.199219 43.398438-101.902343 27.703125-28.5 65.203125-44.199219 105.5-44.199219h.300781c29.570312-.136719 58.496094 8.644531 83 25.199219 3.300781 2.203124 6.5 4.601562 9.5 7l12.5-15.597657c-3.5-2.800781-7.097656-5.5-10.800781-8-27.789063-18.84375-60.625-28.847656-94.199219-28.699219zm0 0" fill="#0635c9"/><path d="m456.800781 277v-1.199219c-.023437-.167969-.058593-.335937-.101562-.5.015625-.140625-.019531-.285156-.097657-.402343 0-.199219-.101562-.296876-.101562-.5 0-.199219-.097656-.296876-.097656-.398438-.101563-.199219-.101563-.300781-.203125-.5-.097657-.101562-.097657-.300781-.199219-.398438-.097656-.203124-.097656-.300781-.199219-.5-.101562-.101562-.101562-.300781-.199219-.402343-.101562-.097657-.199218-.300781-.300781-.398438-.101562-.101562-.199219-.300781-.300781-.402343-.125-.113282-.226562-.246094-.300781-.398438-.097657-.101562-.199219-.300781-.296875-.398438l-.300782-.300781c-.101562-.101562-.199218-.300781-.402343-.402343-.898438-.699219-1.097657-.796876-1.199219-.898438-.097656-.125-.242188-.195312-.398438-.199219-.152343-.121093-.320312-.222656-.5-.300781-.101562-.101562-.300781-.101562-.402343-.199219-.097657-.101562-.296875-.101562-.398438-.199219-.101562-.101562-.300781-.101562-.5-.203124-.101562-.097657-.300781-.097657-.398437-.199219-.203125-.097657-.300782-.097657-.5-.199219-.101563 0-.300782-.101562-.402344-.101562-.199219 0-.300781-.097657-.5-.097657s-.300781-.101562-.5-.101562c-.171875.015625-.347656-.019531-.5-.097657h-201.597656c-1.171875.222657-1.335938.253907-1.5.296876-.101563 0-.300782.101562-.402344.101562-.199219 0-.300781.101562-.5.199219-.148438.027343-.289062.09375-.398438.199219-.199218.101562-.300781.101562-.5.203124-.101562.097657-.300781.097657-.402343.199219-.109375.105469-.25.175781-.398438.199219-.101562.101562-.300781.199219-.398437.300781-.101563.097657-.300782.199219-.402344.300781-.097656.097657-.300781.199219-.398438.296876-.101562.101562-.300781.203124-.402343.300781-.113281.125-.25.226562-.398438.300781l-.699219.699219c-.101562.101562-.199218.300781-.300781.402343-.125.113282-.226562.25-.300781.398438-.097656.101562-.199219.300781-.300781.398438-.097657.101562-.199219.300781-.296875.402343-.101563.097657-.101563.300781-.203125.398438-.105469.109375-.175781.25-.199219.402343-.097656.097657-.097656.296876-.199219.398438-.101562.199219-.101562.300781-.199219.5-.042968.164062-.078124.332031-.101562.5 0 .199219-.097656.300781-.097656.5-.046875.164062-.078125.332031-.101563.5 0 .199219-.101562.300781-.101562.5v137.101562c-.015625.140626.023437.28125.101562.398438 0 .199219.101563.398438.101563.601562v.097657c.191406.867187.496094 1.707031.898437 2.5.296875.523437.632813 1.023437 1 1.5 0 .101562.101563.101562.101563.199219.097656.101562.199218.300781.398437.402343l.300781.300781.300782.296876.398437.402343h.101563c.097656.097657.296875.199219.398437.300781.101563.097657.199219.097657.300781.199219.300782.199219.5.300781.800782.5.097656 0 .097656.097657.199218.097657.222657.121093.457032.21875.699219.300781.101563 0 .199219.101562.300781.101562.199219.097657.398438.097657.597657.199219.101562 0 .203125.101562.300781.101562.199219.097657.402344.097657.601562.199219.109376-.015625.21875.023438.300782.097657.199218 0 .398437.101562.597656.101562h202.402344c.199218 0 .398437-.101562.597656-.101562.109375.015624.21875-.019532.300781-.097657.199219 0 .398438-.101562.601563-.101562.097656 0 .199218-.097657.296875-.097657.203125-.101562.402343-.101562.601562-.203124.101563 0 .199219-.097657.300781-.097657l.597657-.300781c.078125-.011719.148437-.046875.203125-.101562.285156-.128907.554687-.296876.796875-.5l.101562-.097657c.199219-.101562.398438-.300781.601563-.402343.199218-.199219.398437-.296876.5-.5l.199218-.199219c.097657-.097657.199219-.199219.199219-.300781.300781-.296876.601563-.699219.898438-1 0-.097657.101562-.097657.101562-.199219.101563-.199219.199219-.300781.300781-.5.097657-.097657.097657-.199219.199219-.300781.101563-.097657.101563-.296876.199219-.398438.101562-.101562.101562-.300781.199219-.5 0-.101562.101562-.199219.101562-.300781.109375-.179688.179688-.386719.199219-.597657 0-.101562 0-.101562.101562-.203124l.300782-1.5v-136.398438zm-200 22.199219 39.199219 34.800781-39.199219 49.199219zm121.398438 25.101562c-.519531.296875-1.023438.632813-1.5 1-.675781.558594-1.277344 1.195313-1.796875 1.898438l-28.203125 25-73.5-65.199219h147.300781zm-67.199219 23 29 25.699219c1.820312 1.617188 4.167969 2.503906 6.601562 2.5 2.433594.023438 4.789063-.871094 6.597657-2.5l28.703125-25.398438 43.796875 54.097657h-158.097657zm86-12.902343 39.800781-35.199219v84.402343zm0 0" fill="#1ae5be"/></svg>