<svg height="468pt" viewBox="-11 0 468 468.2" width="468pt" xmlns="http://www.w3.org/2000/svg"><g fill="#d4e1f4"><path d="m326.601562 348.699219v-63.800781c-.011718-26.789063 21.707032-48.507813 48.5-48.5 7.949219.015624 15.777344 1.972656 22.796876 5.703124-8.429688-15.808593-24.882813-25.6875-42.796876-25.703124-26.792968-.007813-48.511718 21.710937-48.5 48.5v63.800781c.011719 17.917969 9.890626 34.367187 25.699219 42.800781-3.730469-7.019531-5.6875-14.847656-5.699219-22.800781zm0 0"/><path d="m124.398438 125.699219c0-52.851563 42.847656-95.699219 95.703124-95.699219 3.097657 0 6.097657.199219 9.097657.398438-32.085938-25.167969-76.597657-27.246094-110.886719-5.171876-34.292969 22.074219-50.832031 63.449219-41.207031 103.078126 9.625 39.628906 43.300781 68.808593 83.894531 72.695312-23.113281-18.152344-36.605469-45.914062-36.601562-75.300781zm0 0"/><path d="m220 265.199219c11.292969-.007813 22.554688 1.164062 33.601562 3.5-25.121093-15.5-54.085937-23.640625-83.601562-23.5-88.101562.199219-159.398438 70.5-159.199219 166.199219l51-.097657c9.097657-85.300781 76.398438-145.902343 158.199219-146.101562zm0 0"/></g><path d="m170.101562 211.398438c58.375 0 105.699219-47.320313 105.699219-105.699219 0-58.375-47.324219-105.699219-105.699219-105.699219-58.378906 0-105.703124 47.324219-105.703124 105.699219.058593 58.355469 47.347656 105.644531 105.703124 105.699219zm0-191.398438c47.328126 0 85.699219 38.371094 85.699219 85.699219 0 47.332031-38.371093 85.699219-85.699219 85.699219-47.332031 0-85.703124-38.367188-85.703124-85.699219.058593-47.308594 38.394531-85.644531 85.703124-85.699219zm0 0" fill="#0635c9"/><path d="m170.101562 255.199219c49.5625.015625 95.925782 24.488281 123.898438 65.402343 1.601562 2.398438 3.199219 4.796876 4.699219 7.296876l17.101562-10.296876c-1.699219-2.800781-3.5-5.601562-5.300781-8.300781-31.695312-46.367187-84.234375-74.097656-140.398438-74.101562-93.703124 0-170 76.300781-170 170 .015626 5.515625 4.480469 9.984375 10 10h312.296876v-20h-302c5.203124-78.097657 70.402343-140 149.703124-140zm0 0" fill="#0635c9"/><path d="m355.101562 387.199219c32.289063-.039063 58.457032-26.207031 58.5-58.5v-63.800781c0-32.308594-26.191406-58.5-58.5-58.5-32.308593 0-58.5 26.191406-58.5 58.5v63.800781c.074219 32.277343 26.222657 58.421875 58.5 58.5zm-38.5-122.300781c0-21.261719 17.234376-38.5 38.5-38.5 21.261719 0 38.5 17.238281 38.5 38.5v63.800781c0 21.265625-17.238281 38.5-38.5 38.5-21.265624 0-38.5-17.234375-38.5-38.5zm0 0" fill="#1ae5be"/><path d="m435.101562 323.300781c-5.519531.015625-9.984374 4.484375-10 10 0 37.300781-31.402343 67.597657-70 67.597657-38.601562 0-70-30.296876-70-67.597657 0-5.523437-4.480468-10-10-10-5.523437 0-10 4.476563-10 10 0 45 35.097657 82.199219 80 87v27.898438h-23.902343c-5.523438 0-10 4.476562-10 10 0 5.523437 4.476562 10 10 10h67.902343c5.519532 0 10-4.476563 10-10 0-5.523438-4.480468-10-10-10h-23.902343v-27.898438c44.902343-4.902343 80-42 80-87-.097657-5.519531-4.578125-9.957031-10.097657-10zm0 0" fill="#1ae5be"/></svg>