<svg height="448pt" viewBox="-5 0 448 448.57465" width="448pt" xmlns="http://www.w3.org/2000/svg"><g fill="#d4e1f4"><path d="m284.585938 285.300781c.007812-11.707031 9.496093-21.195312 21.203124-21.199219h74.199219c.617188-11.207031 9.875-19.984374 21.097657-20h-115.296876c-11.707031.003907-21.195312 9.492188-21.203124 21.199219v170.597657c.019531 1.035156.621093 1.96875 1.550781 2.414062.933593.445312 2.039062.324219 2.851562-.3125l15.597657-14.101562zm0 0"/><path d="m123.886719 125.699219c0-52.851563 42.847656-95.699219 95.699219-95.699219 3.101562 0 6.101562.199219 9.101562.398438-32.085938-25.167969-76.597656-27.246094-110.886719-5.171876-34.292969 22.074219-50.832031 63.449219-41.207031 103.078126 9.625 39.628906 43.296875 68.808593 83.894531 72.695312-23.113281-18.152344-36.605469-45.914062-36.601562-75.300781zm0 0"/><path d="m219.488281 265.199219c11.289063-.007813 22.550781 1.164062 33.597657 3.5-25.117188-15.5-54.082032-23.640625-83.597657-23.5-88.101562.199219-159.402343 70.5-159.199219 166.199219l51-.097657c9.097657-85.300781 76.398438-145.902343 158.199219-146.101562zm0 0"/></g><path d="m169.585938 0c-58.375 0-105.699219 47.324219-105.699219 105.699219 0 58.378906 47.324219 105.699219 105.699219 105.699219 58.378906 0 105.703124-47.320313 105.703124-105.699219-.054687-58.351563-47.347656-105.6445315-105.703124-105.699219zm0 191.398438c-47.328126 0-85.699219-38.367188-85.699219-85.699219 0-47.328125 38.371093-85.699219 85.699219-85.699219 47.332031 0 85.703124 38.371094 85.703124 85.699219-.054687 47.308593-38.394531 85.644531-85.703124 85.699219zm0 0" fill="#0635c9"/><path d="m169.488281 255.199219h.300781c32.300782-.191407 63.761719 10.28125 89.5 29.800781l12.097657-15.898438c-29.199219-22.203124-64.300781-33.902343-101.597657-33.902343h-.300781c-45.800781.101562-88.300781 17.902343-119.800781 50.300781-32 32.699219-49.5 77.398438-49.398438 125.898438.019532 2.652343 1.054688 5.195312 2.898438 7.101562 1.882812 1.882812 4.441406 2.925781 7.101562 2.898438l257-.5v-20l-246.703124.5c2.101562-39.296876 17.402343-75.199219 43.402343-101.898438 27.699219-28.5 65.199219-44.199219 105.5-44.300781zm0 0" fill="#0635c9"/><path d="m415.386719 234.101562h-129.597657c-17.222656.019532-31.179687 13.976563-31.203124 31.199219v170.597657c-.046876 4.886718 2.769531 9.347656 7.203124 11.402343 4.378907 2.136719 9.597657 1.550781 13.398438-1.5.199219-.101562.300781-.300781.5-.402343l48.800781-43.898438 44.097657 43.601562c.242187.257813.511718.496094.800781.699219 2.230469 1.738281 4.972656 2.691407 7.800781 2.699219 1.941406.011719 3.859375-.433594 5.601562-1.300781 4.402344-2.085938 7.203126-6.527344 7.199219-11.398438v-118.300781h15.097657c17.9375-.035156 32.46875-14.566406 32.5-32.5v-19.800781c0-7-.199219-13.300781-2.5-18.800781-3.199219-7.898438-10.199219-12.296876-19.699219-12.296876zm-45.398438 31.199219v153.097657l-38.199219-37.699219c-3.757812-3.734375-9.785156-3.863281-13.703124-.300781l-43.5 39.101562v-154.199219c-.003907-2.972656 1.175781-5.824219 3.277343-7.925781 2.101563-2.101562 4.953125-3.28125 7.925781-3.273438h86.296876c-1.421876 3.558594-2.136719 7.363282-2.097657 11.199219zm47.597657 19.699219c0 6.902344-5.59375 12.5-12.5 12.5h-15.097657v-32.300781c-.003906-2.972657 1.171875-5.824219 3.273438-7.925781 2.101562-2.101563 4.953125-3.277344 7.925781-3.273438h14.300781c.433594-.03125.875.003906 1.300781.101562.898438 2.097657.898438 8.597657.898438 11.097657v19.800781zm0 0" fill="#1ae5be"/></svg>