<svg height="400pt" viewBox="0 0 400 400" width="400pt" xmlns="http://www.w3.org/2000/svg"><path d="m240 350c-104.898438 0-190-85.101562-190-190-.101562-40.601562 13-80.199219 37.101562-112.898438-48.5 35.796876-77.101562 92.597657-77.101562 152.898438 0 104.898438 85.101562 190 190 190 60.300781 0 117.101562-28.601562 152.898438-77.101562-32.699219 24.101562-72.296876 37.203124-112.898438 37.101562zm0 0" fill="#d4e1f4"/><path d="m301.5 370.5c-5.5 0-10-4.5-10-10v-39.199219c-.101562-49.5-40.101562-89.601562-89.601562-89.601562h-3.796876c-49.5.101562-89.601562 40.101562-89.601562 89.601562v39.199219c0 5.5-4.5 10-10 10s-10-4.5-10-10v-39.199219c.101562-60.5 49.101562-109.5 109.601562-109.601562h3.796876c60.5.101562 109.5 49.101562 109.601562 109.601562v39.199219c0 5.5-4.398438 10-10 10zm0 0" fill="#1ae5be"/><path d="m290.898438 89.898438c0-28-22.699219-50.699219-50.699219-50.699219-16 0-31 7.601562-40.5 20.199219-38.800781.203124-70.398438 31.800781-70.398438 70.703124 0 39 31.699219 70.699219 70.699219 70.699219 38.898438 0 70.5-31.5 70.699219-70.402343 12.601562-9.5 20.199219-24.5 20.199219-40.5zm-50.699219-29.699219c16.402343 0 29.699219 13.300781 29.699219 29.699219 0 5.203124-1.398438 10.300781-3.898438 14.703124-7.199219-18.601562-21.898438-33.402343-40.5-40.5 4.398438-2.5 9.5-3.902343 14.699219-3.902343zm-40.199219 119.601562c-27.398438 0-49.699219-22.300781-49.699219-49.699219 0-27.402343 22.300781-49.703124 49.699219-49.703124 1.398438 0 2.898438.101562 4.398438.203124 24.101562 2.097657 43 21.097657 45.101562 45.097657.101562 1.5.199219 3 .199219 4.402343 0 27.398438-22.300781 49.699219-49.699219 49.699219zm0 0" fill="#1ae5be"/><path d="m200 400c-110.300781 0-200-89.699219-200-200s89.699219-200 200-200 200 89.699219 200 200-89.699219 200-200 200zm0-380c-99.300781 0-180 80.699219-180 180s80.699219 180 180 180 180-80.699219 180-180-80.699219-180-180-180zm0 0" fill="#0635c9"/></svg>