<svg height="480pt" viewBox="0 -42 480 479" width="480pt" xmlns="http://www.w3.org/2000/svg"><g fill="#d4e1f4"><path d="m107.800781 97.101562c-.03125-40.144531 27.539063-75.039062 66.597657-84.300781-6.554688-1.535156-13.265626-2.304687-20-2.300781-47.828126 0-86.597657 38.773438-86.597657 86.601562 0 47.828126 38.769531 86.597657 86.597657 86.597657 6.734374.003906 13.445312-.765625 20-2.300781-39.058594-9.257813-66.628907-44.15625-66.597657-84.296876zm0 0"/><path d="m174.398438 235.898438c-6.625-.921876-13.308594-1.390626-20-1.398438-79.796876.101562-144.398438 63.601562-144.398438 150.199219h40c0-79.199219 54.101562-139.097657 124.398438-148.800781zm0 0"/><path d="m318.5 108.601562c.011719-31.824218 22.058594-59.394531 53.101562-66.402343-27.300781-6.214844-55.625 4.910156-71.394531 28.046875-15.769531 23.136718-15.769531 53.570312 0 76.707031s44.09375 34.265625 71.394531 28.046875c-31.058593-6.976562-53.125-34.566406-53.101562-66.398438zm0 0"/><path d="m371.5 227.601562c-4.976562-.640624-9.984375-.972656-15-1-39.507812-.25-76.191406 20.449219-96.398438 54.398438l33.699219 63.601562h30l-33.699219-63.601562c17.554688-29.296875 47.535157-48.960938 81.398438-53.398438zm0 0"/></g><path d="m154.398438.5c-53.347657 0-96.597657 43.25-96.597657 96.601562 0 53.347657 43.25 96.597657 96.597657 96.597657 53.351562 0 96.601562-43.25 96.601562-96.597657-.070312-53.324218-43.277344-96.53125-96.601562-96.601562zm0 173.199219c-42.304688 0-76.597657-34.292969-76.597657-76.597657 0-42.304687 34.292969-76.601562 76.597657-76.601562 42.304687 0 76.601562 34.296875 76.601562 76.601562-.039062 42.289063-34.3125 76.558594-76.601562 76.597657zm0 0" fill="#0635c9"/><path d="m437.601562 66.898438c-4.636718-.019532-9.230468.898437-13.5 2.703124-7.722656-13.25-19.113281-23.984374-32.800781-30.902343-.480469-.273438-.984375-.507813-1.5-.699219-10.375-4.914062-21.71875-7.441406-33.199219-7.398438-42.992187.058594-77.875 34.808594-78.101562 77.796876v.203124c-.011719 37.757813 27.003906 70.113282 64.15625 76.847657 37.15625 6.730469 73.804688-14.085938 87.042969-49.449219 2.625.601562 5.308593.902344 8 .898438 19.332031-.027344 34.976562-15.71875 34.949219-35.046876-.027344-19.332031-15.71875-34.980468-35.046876-34.953124zm-81.101562-16.296876c5.617188.023438 11.203125.832032 16.601562 2.398438-4.300781 9.898438-9.300781 18.300781-15.203124 25.101562-.296876.296876-.5.597657-.796876.898438-9 10.300781-19.902343 17.101562-32.402343 20.199219-8.398438 2.097656-17.128907 2.539062-25.699219 1.300781 4.117188-28.601562 28.601562-49.851562 57.5-49.898438zm0 116.097657c-27.367188-.046875-51.011719-19.148438-56.800781-45.898438 2.890625.296875 5.796875.429688 8.699219.398438 6.734374.007812 13.445312-.761719 20-2.300781 13.003906-3.054688 25.03125-9.3125 35-18.199219 3 3.898437 6.347656 7.511719 10 10.800781 11.402343 10.398438 24.101562 16.101562 37.5 17-8.242188 22.945312-30.015626 38.234375-54.398438 38.199219zm58.101562-58c-18.800781-.199219-31.601562-14.800781-37.300781-23 5.421875-7.40625 10.015625-15.390625 13.699219-23.800781 8.488281 6.289062 15.121094 14.753906 19.199219 24.5.21875.988281.589843 1.933593 1.101562 2.800781 2.179688 6.269531 3.292969 12.863281 3.300781 19.5zm23 8.199219c-1.148437.023437-2.292968-.113282-3.402343-.398438.285156-2.625.417969-5.261719.402343-7.898438-.011718-6.960937-.957031-13.890624-2.800781-20.601562 1.835938-.765625 3.808594-1.140625 5.800781-1.101562 8.28125 0 15 6.71875 15 15 0 8.285156-6.71875 15-15 15zm0 0" fill="#0635c9"/><path d="m356.5 216.601562c-39.199219 0-74.898438 18-97.800781 48.699219-28.296875-26.390625-65.605469-40.984375-104.300781-40.800781-41.699219 0-80.5 16.199219-109.296876 45.601562-29.101562 29.796876-45.101562 70.5-45.101562 114.597657.015625 5.515625 4.484375 9.984375 10 10h288.800781c5.515625-.015625 9.984375-4.484375 10-10 0-10.089844-.871093-20.160157-2.601562-30.097657h163.800781c5.515625-.015624 9.984375-4.484374 10-10 0-35.203124-12.800781-67.703124-36.101562-91.5-22.976563-23.519531-54.519532-36.691406-87.398438-36.5zm-336.199219 158.097657c2.199219-35 15.898438-66.800781 39.097657-90.597657 25.117187-25.34375 59.320312-39.601562 95-39.601562 35.683593 0 69.882812 14.257812 95 39.601562 23.203124 23.796876 36.902343 55.597657 39.101562 90.597657zm281.199219-40.097657c-5.960938-19.859374-15.78125-38.347656-28.898438-54.402343 17.496094-24.875 45.125-40.714844 75.4375-43.242188 30.308594-2.53125 60.179688 8.507813 81.5625 30.144531 17.398438 17.796876 27.796876 41.5 30 67.5zm0 0" fill="#1ae5be"/></svg>