<svg height="360pt" viewBox="-2 0 360 360" width="360pt" xmlns="http://www.w3.org/2000/svg"><g fill="#d4e1f4"><path d="m60 81.570312c-11.046875 0-20-8.953124-20-20v-51.570312h-10c-11.046875 0-20 8.953125-20 20v61.570312c0 11.046876 8.953125 20 20 20h59.171875c11.046875 0 20-8.953124 20-20v-10zm0 0"/><path d="m293.75 81.570312c-9.882812.003907-17.894531-8.007812-17.894531-17.890624v-53.679688h-12.105469c-9.882812.003906-17.894531 8.015625-17.894531 17.898438v65.785156c0 9.882812 8.011719 17.894531 17.894531 17.894531h63.382812c9.882813 0 17.894532-8.011719 17.898438-17.894531v-12.113282zm0 0"/><path d="m60 320c-11.046875 0-20-8.953125-20-20v-51.570312h-10c-11.046875 0-20 8.953124-20 20v61.570312c0 11.046875 8.953125 20 20 20h59.171875c11.046875 0 20-8.953125 20-20v-10zm0 0"/><path d="m293.75 320c-9.882812-.003906-17.890625-8.011719-17.894531-17.894531v-53.675781h-12.105469c-9.882812-.003907-17.894531 8.007812-17.894531 17.890624v65.785157c.003906 9.882812 8.011719 17.890625 17.894531 17.894531h63.382812c9.882813 0 17.894532-8.011719 17.898438-17.894531v-12.105469zm0 0"/></g><path d="m245.855469 73.125h-136.683594c-5.523437 0-10-4.476562-10-10s4.476563-10 10-10h136.683594c5.523437 0 10 4.476562 10 10s-4.476563 10-10 10zm0 0" fill="#1ae5be"/><path d="m297.726562 258.425781c-5.523437 0-10-4.476562-10-10v-136.851562c0-5.523438 4.476563-10 10-10 5.523438 0 10 4.476562 10 10v136.851562c0 5.523438-4.476562 10-10 10zm0 0" fill="#1ae5be"/><path d="m245.855469 315.460938h-136.683594c-5.523437 0-10-4.476563-10-10 0-5.523438 4.476563-10 10-10h136.683594c5.523437 0 10 4.476562 10 10 0 5.523437-4.476563 10-10 10zm0 0" fill="#1ae5be"/><path d="m61.113281 258.429688c-5.523437 0-10-4.476563-10-10v-136.855469c0-5.523438 4.476563-10 10-10 5.523438 0 10 4.476562 10 10v136.855469c0 5.523437-4.476562 10-10 10zm0 0" fill="#1ae5be"/><path d="m89.171875 121.570312h-59.171875c-16.5625-.015624-29.9804688-13.4375-30-30v-61.570312c.0195312-16.5625 13.4375-29.9804688 30-30h59.171875c16.5625.0195312 29.980469 13.4375 30 30v61.570312c-.019531 16.5625-13.4375 29.984376-30 30zm-59.171875-101.570312c-5.519531.007812-9.992188 4.480469-10 10v61.570312c.007812 5.523438 4.480469 9.996094 10 10h59.171875c5.519531-.003906 9.992187-4.476562 10-10v-61.570312c-.007813-5.519531-4.480469-9.992188-10-10zm0 0" fill="#0635c9"/><path d="m327.132812 121.570312h-63.382812c-15.398438-.015624-27.875-12.492187-27.894531-27.890624v-65.78125c.015625-15.398438 12.496093-27.8789068 27.894531-27.898438h63.382812c15.398438.015625 27.882813 12.496094 27.898438 27.894531v65.785157c-.015625 15.398437-12.5 27.878906-27.898438 27.890624zm-63.382812-101.570312c-4.359375.003906-7.890625 3.535156-7.894531 7.894531v65.785157c.003906 4.355468 3.535156 7.890624 7.894531 7.890624h63.382812c4.359376 0 7.894532-3.53125 7.898438-7.890624v-65.78125c0-4.363282-3.535156-7.898438-7.898438-7.898438zm0 0" fill="#0635c9"/><path d="m89.171875 360h-59.171875c-16.5625-.019531-29.9804688-13.4375-30-30v-61.570312c.0195312-16.5625 13.4375-29.984376 30-30h59.171875c16.5625.015624 29.980469 13.4375 30 30v61.570312c-.019531 16.5625-13.4375 29.980469-30 30zm-59.171875-101.570312c-5.519531.003906-9.992188 4.476562-10 10v61.570312c.007812 5.519531 4.480469 9.992188 10 10h59.171875c5.519531-.007812 9.992187-4.480469 10-10v-61.570312c-.007813-5.523438-4.480469-9.996094-10-10zm0 0" fill="#0635c9"/><path d="m327.132812 360h-63.382812c-15.398438-.019531-27.875-12.496094-27.894531-27.894531v-65.785157c.019531-15.398437 12.496093-27.875 27.894531-27.890624h63.382812c15.398438.011718 27.882813 12.492187 27.898438 27.890624v65.785157c-.015625 15.398437-12.5 27.878906-27.898438 27.894531zm-63.382812-101.570312c-4.359375 0-7.890625 3.535156-7.894531 7.890624v65.785157c.003906 4.359375 3.535156 7.890625 7.894531 7.894531h63.382812c4.359376 0 7.894532-3.535156 7.898438-7.894531v-65.785157c-.003906-4.359374-3.539062-7.890624-7.898438-7.890624zm0 0" fill="#0635c9"/></svg>