<svg height="400pt" viewBox="0 -38 400 400" width="400pt" xmlns="http://www.w3.org/2000/svg"><path d="m50 83c0-17.972656 14.570312-32.542969 32.542969-32.542969h307.457031v-7.457031c0-17.972656-14.570312-32.542969-32.542969-32.542969h-314.914062c-17.972657 0-32.542969 14.570313-32.542969 32.542969v238c0 17.972656 14.570312 32.542969 32.542969 32.542969h7.457031zm0 0" fill="#d4e1f4"/><g fill="#1ae5be"><path d="m96.171875 168.117188h-86.171875c-5.523438 0-10-4.476563-10-10 0-5.519532 4.476562-10 10-10h86.171875c5.523437 0 10 4.480468 10 10 0 5.523437-4.476563 10-10 10zm0 0"/><path d="m390 168.117188h-86.171875c-5.523437 0-10-4.476563-10-10 0-5.519532 4.476563-10 10-10h86.171875c5.523438 0 10 4.480468 10 10 0 5.523437-4.476562 10-10 10zm0 0"/><path d="m96.171875 98.253906h-86.171875c-5.523438 0-10-4.476562-10-10 0-5.523437 4.476562-10 10-10h86.171875c5.523437 0 10 4.476563 10 10 0 5.523438-4.476563 10-10 10zm0 0"/><path d="m390 98.253906h-86.171875c-5.523437 0-10-4.476562-10-10 0-5.523437 4.476563-10 10-10h86.171875c5.523438 0 10 4.476563 10 10 0 5.523438-4.476562 10-10 10zm0 0"/><path d="m96.171875 245.746094h-86.171875c-5.523438 0-10-4.476563-10-10 0-5.523438 4.476562-10 10-10h86.171875c5.523437 0 10 4.476562 10 10 0 5.523437-4.476563 10-10 10zm0 0"/><path d="m390 245.746094h-86.171875c-5.523437 0-10-4.476563-10-10 0-5.523438 4.476563-10 10-10h86.171875c5.523438 0 10 4.476562 10 10 0 5.523437-4.476562 10-10 10zm0 0"/></g><path d="m400 42.542969c0-23.496094-19.046875-42.542969-42.542969-42.542969h-314.914062c-23.496094 0-42.542969 19.046875-42.542969 42.542969v237.914062c0 23.496094 19.046875 42.542969 42.542969 42.542969h314.914062c23.496094 0 42.542969-19.046875 42.542969-42.542969zm-106-22.542969v284h-188v-284zm-274 261v-238c0-12.429688 10.113281-23 22.542969-23h43.457031v284h-43.457031c-12.429688 0-22.542969-10.566406-22.542969-23zm360 0c0 12.429688-10.113281 23-22.542969 23h-43.457031v-284h43.457031c12.429688 0 22.542969 10.566406 22.542969 23zm0 0" fill="#0635c9"/></svg>