<svg height="400pt" viewBox="0 -65 400.00451 400" width="400pt" xmlns="http://www.w3.org/2000/svg"><path d="m240 249.292969c-85.980469 0-159.613281-51.554688-190-124.644531 21.585938-51.925782 65-92.972657 119.160156-112.398438-72.453125 10.648438-132.480468 58.21875-159.160156 122.398438 30.386719 73.089843 104.019531 124.644531 190 124.644531 24.144531.03125 48.109375-4.113281 70.839844-12.25-10.210938 1.5-20.519532 2.253906-30.839844 2.25zm0 0" fill="#d4e1f4"/><path d="m200 236.3125c-48.5-.03125-90.222656-34.320312-99.65625-81.890625-9.429688-47.574219 16.054688-95.183594 60.871094-113.71875s96.488281-2.832031 123.410156 37.507813c26.925781 40.339843 21.605469 94.078124-12.707031 128.355468-19.078125 19.0625-44.949219 29.761719-71.917969 29.746094zm0-183.335938c-38.960938.027344-72.480469 27.570313-80.058594 65.785157-7.574218 38.21875 12.898438 76.46875 48.902344 91.355469 36.003906 14.890624 77.511719 2.277343 99.140625-30.132813 21.628906-32.40625 17.355469-75.578125-10.207031-103.113281-15.328125-15.3125-36.109375-23.910156-57.777344-23.894532zm0 0" fill="#1ae5be"/><g fill="#0635c9"><path d="m321.40625 36.601562c-73.582031-48.800781-169.230469-48.800781-242.8125 0-34.695312 23.007813-61.78125 55.792969-77.828125 94.207032-1.019531 2.457031-1.019531 5.222656 0 7.679687 16.050781 38.414063 43.136719 71.199219 77.835937 94.207031 73.578126 48.800782 169.226563 48.800782 242.808594 0 34.695313-23.007812 61.78125-55.792968 77.828125-94.207031 1.019531-2.457031 1.019531-5.222656 0-7.679687-16.046875-38.414063-43.136719-71.199219-77.832031-94.207032zm-11.113281 179.464844c-66.855469 44.304688-153.730469 44.304688-220.585938 0-30.222656-20.039062-54.097656-48.28125-68.828125-81.417968 14.730469-33.136719 38.605469-61.378907 68.828125-81.417969 66.855469-44.304688 153.730469-44.304688 220.585938 0 30.21875 20.039062 54.097656 48.28125 68.828125 81.417969-14.730469 33.136718-38.609375 61.378906-68.828125 81.417968zm0 0"/><path d="m169.070312 103.71875c-17.058593 17.09375-17.058593 44.765625 0 61.859375 17.082032 17.082031 44.777344 17.082031 61.859376 0 17.082031-17.082031 17.082031-44.777344 0-61.859375-17.082032-17.085938-44.777344-17.085938-61.859376 0zm47.71875 47.71875c-9.273437 9.273438-24.304687 9.273438-33.578124 0-9.273438-9.273438-9.273438-24.304688 0-33.578125 9.273437-9.273437 24.304687-9.273437 33.578124 0 9.273438 9.273437 9.273438 24.304687 0 33.578125zm0 0"/></g></svg>