<svg height="430pt" viewBox="0 -16 430.22486 430" width="430pt" xmlns="http://www.w3.org/2000/svg"><path d="m90 153.671875h40.699219l112.5-79.101563v-60.398437c-.023438-1.484375-.855469-2.835937-2.167969-3.523437s-2.898438-.601563-4.132812.222656l-146.199219 102.800781h-40.699219c-22.09375-.007813-40.007812 17.90625-40 40v91.300781c-.007812 22.09375 17.90625 40.003906 40 40v-91.300781c-.007812-22.09375 17.90625-40.007813 40-40zm0 0" fill="#d4e1f4"/><path d="m245.699219 1.671875c-4.640625-2.394531-10.230469-2.007813-14.5 1l-143.597657 101h-37.601562c-27.609375.007813-49.9882812 22.390625-50 50v91.300781c.0117188 27.609375 22.390625 49.988282 50 50h37.601562l143.597657 101c4.257812 3.019532 9.84375 3.410156 14.480469 1.011719 4.632812-2.402344 7.535156-7.191406 7.519531-12.414063v-370.398437c.085937-5.257813-2.820313-10.105469-7.5-12.5zm-12.398438 371.199219-133.601562-93.898438c-1.886719-2.585937-4.898438-4.109375-8.097657-4.101562h-41.601562c-16.546875-.046875-29.953125-13.453125-30-30v-91.300782c.046875-16.546874 13.453125-29.949218 30-30h41.601562c3.195313-.011718 6.195313-1.53125 8.097657-4.097656l133.601562-93.902344zm0 0" fill="#0635c9"/><path d="m427.101562 129.769531c-1.871093-1.871093-4.40625-2.921875-7.050781-2.921875s-5.183593 1.050782-7.050781 2.921875l-55.300781 55.300781-55.300781-55.300781c-3.890626-3.890625-10.203126-3.890625-14.097657 0-3.894531 3.894531-3.894531 10.207031 0 14.101563l55.300781 55.300781-55.300781 55.300781c-1.875 1.867188-2.925781 4.402344-2.925781 7.046875 0 2.648438 1.050781 5.183594 2.925781 7.050781 1.875 1.890626 4.4375 2.9375 7.097657 2.902344 2.65625-.011718 5.199218-1.050781 7.101562-2.902344l55.300781-55.300781 55.300781 55.300781c1.875 1.890626 4.4375 2.9375 7.097657 2.902344 2.652343-.011718 5.199219-1.050781 7.101562-2.902344 1.871094-1.867187 2.925781-4.402343 2.925781-7.050781 0-2.644531-1.054687-5.179687-2.925781-7.046875l-55.601562-55.203125 55.300781-55.296875c1.910156-1.863281 2.992188-4.414062 3.011719-7.082031.019531-2.664063-1.027344-5.230469-2.910157-7.121094zm0 0" fill="#1ae5be"/></svg>