<svg height="398pt" viewBox="-44 0 398 398.4328" width="398pt" xmlns="http://www.w3.org/2000/svg"><path d="m90.214844 153.558594h40.703125l112.5-79.101563v-60.398437c-.023438-1.484375-.855469-2.832032-2.171875-3.523438-1.3125-.6875-2.898438-.601562-4.128906.222656l-146.199219 102.800782h-40.703125c-22.09375-.003906-40.003906 17.90625-40 40v91.300781c-.003906 22.09375 17.90625 40.003906 40 40v-91.300781c-.003906-22.09375 17.90625-40.003906 40-40zm0 0" fill="#d4e1f4"/><path d="m245.917969 1.558594c-4.644531-2.394532-10.230469-2.007813-14.5 1l-143.601563 101h-37.601562c-27.609375.011718-49.988282 22.390625-50 50v91.300781c.011718 27.609375 22.390625 49.988281 50 50h37.601562l143.601563 101c4.253906 3.023437 9.84375 3.414063 14.476562 1.011719 4.632813-2.402344 7.539063-7.191406 7.523438-12.414063v-370.398437c0-5.230469-2.882813-10.039063-7.5-12.5zm-12.5 371.199218-133.601563-93.898437c-1.886718-2.585937-4.898437-4.109375-8.101562-4.101563h-41.597656c-16.550782-.046874-29.953126-13.449218-30-30v-91.300781c.046874-16.546875 13.449218-29.949219 30-30h41.699218c3.195313-.011719 6.199219-1.53125 8.101563-4.097656l133.597656-93.902344v347.300781zm0 0" fill="#0635c9"/><path d="m34.515625 17.859375c-3.3125-4.417969-9.582031-5.3125-14-2s-5.3125 9.582031-2 14l274 363.097656c1.902344 2.503907 4.859375 3.980469 8 4 2.160156-.019531 4.261719-.71875 6-2 4.402344-3.320312 5.296875-9.574219 2-14zm0 0" fill="#1ae5be"/></svg>