<svg height="398pt" viewBox="-9 0 398 398.4328" width="398pt" xmlns="http://www.w3.org/2000/svg"><path d="m90.214844 153.558594h40.703125l112.5-79.101563v-60.398437c-.023438-1.484375-.855469-2.832032-2.171875-3.523438-1.3125-.6875-2.898438-.601562-4.128906.222656l-146.199219 102.800782h-40.703125c-22.09375-.003906-40.003906 17.90625-40 40v91.300781c-.003906 22.09375 17.90625 40.003906 40 40v-91.300781c-.003906-22.09375 17.90625-40.003906 40-40zm0 0" fill="#d4e1f4"/><path d="m245.917969 1.558594c-4.644531-2.394532-10.230469-2.007813-14.5 1l-143.601563 101h-37.601562c-27.609375.011718-49.988282 22.390625-50 50v91.300781c.011718 27.609375 22.390625 49.988281 50 50h37.601562l143.601563 101c4.253906 3.023437 9.84375 3.414063 14.476562 1.011719 4.632813-2.402344 7.539063-7.191406 7.523438-12.414063v-370.398437c.085937-5.253906-2.824219-10.101563-7.5-12.5zm-12.402344 371.199218-133.597656-93.898437c-1.890625-2.585937-4.902344-4.109375-8.101563-4.101563h-41.601562c-16.546875-.046874-29.949219-13.449218-30-30v-91.300781c.050781-16.546875 13.453125-29.949219 30-30h41.601562c3.195313-.011719 6.199219-1.53125 8.101563-4.097656l133.597656-93.902344zm0 0" fill="#0635c9"/><path d="m290.417969 109.359375c-5.523438 0-10 4.476563-10 10s4.476562 10 10 10c38.546875 0 69.796875 31.25 69.796875 69.800781 0 38.546875-31.25 69.796875-69.796875 69.796875-5.523438 0-10 4.480469-10 10 0 5.523438 4.476562 10 10 10 49.59375 0 89.796875-40.203125 89.796875-89.796875 0-49.597656-40.203125-89.800781-89.796875-89.800781zm0 0" fill="#1ae5be"/></svg>