<svg height="410pt" viewBox="0 0 410 410" width="410pt" xmlns="http://www.w3.org/2000/svg"><path d="m234.800781 370c-107.582031 0-194.800781-87.300781-194.800781-195-.066406-44.425781 15.09375-87.53125 42.949219-122.132812-46.164063 36.992187-73.007813 92.972656-72.949219 152.132812 0 107.699219 87.214844 195 194.800781 195 59.058594.046875 114.929688-26.765625 151.84375-72.867188-34.519531 27.800782-77.523437 42.929688-121.84375 42.867188zm0 0" fill="#d4e1f4"/><path d="m204.800781 410c-112.925781 0-204.800781-91.960938-204.800781-205s91.875-205 204.800781-205 204.800781 91.960938 204.800781 205-91.875 205-204.800781 205zm0-390c-101.902343 0-184.800781 82.992188-184.800781 185s82.898438 185 184.800781 185c101.898438 0 184.800781-82.992188 184.800781-185s-82.902343-185-184.800781-185zm0 0" fill="#0635c9"/><path d="m198.519531 220.324219c-2.652343 0-5.199219-1.054688-7.074219-2.933594l-53.636718-53.707031c-3.921875-3.890625-3.945313-10.226563-.050782-14.144532 3.890626-3.917968 10.222657-3.941406 14.140626-.050781l.0625.0625 50.324218 50.390625 110.269532-10.082031c5.492187-.492187 10.351562 3.554687 10.855468 9.050781.5 5.496094-3.542968 10.359375-9.039062 10.867188l-114.9375 10.507812c-.304688.027344-.609375.039063-.914063.039063zm0 0" fill="#1ae5be"/></svg>