<svg height="400pt" viewBox="-58 0 400 400.00041" width="400pt" xmlns="http://www.w3.org/2000/svg"><path d="m50 230c.015625-45.40625 23.394531-87.609375 61.882812-111.703125 38.484376-24.09375 86.660157-26.6875 127.511719-6.867187-35.710937-39.324219-91.542969-53.367188-141.609375-35.617188s-84.585937 63.820312-87.554687 116.855469c-2.96875 53.039062 26.191406 102.675781 73.964843 125.902343-22.046874-24.226562-34.242187-55.816406-34.195312-88.570312zm0 0" fill="#d4e1f4"/><g fill="#1ae5be"><path d="m231.664062 112.863281c-5.140624-.007812-9.4375-3.910156-9.941406-9.027343l-6.484375-66.253907c-.945312-9.992187-9.347656-17.613281-19.382812-17.582031h-108.121094c-10.035156-.03125-18.441406 7.589844-19.386719 17.582031l-6.484375 66.253907c-.648437 5.398437-5.492187 9.289062-10.902343 8.761718-5.410157-.53125-9.40625-5.289062-8.996094-10.707031l6.484375-66.257813c1.914062-20.246093 18.949219-35.695312 39.285156-35.632812h108.121094c20.335937-.0664062 37.371093 15.382812 39.289062 35.632812l6.484375 66.257813c.539063 5.496094-3.480468 10.386719-8.976562 10.925781-.332032.03125-.65625.046875-.988282.046875zm0 0"/><path d="m195.855469 400h-108.121094c-20.339844.066406-37.375-15.382812-39.289063-35.632812l-6.484374-66.257813c-.539063-5.496094 3.480468-10.386719 8.976562-10.925781 5.496094-.535156 10.390625 3.484375 10.925781 8.980468l6.484375 66.253907c.945313 9.992187 9.351563 17.613281 19.386719 17.582031h108.121094c10.035156.03125 18.4375-7.589844 19.382812-17.582031l6.484375-66.253907c.652344-5.398437 5.492188-9.289062 10.902344-8.757812 5.414062.527344 9.410156 5.285156 9 10.703125l-6.484375 66.257813c-1.917969 20.246093-18.949219 35.695312-39.285156 35.632812zm0 0"/><path d="m178.894531 210h-37.101562c-5.523438 0-10-4.476562-10-10v-48.460938c0-5.523437 4.476562-10 10-10 5.523437 0 10 4.476563 10 10v38.460938h27.101562c5.523438 0 10 4.476562 10 10s-4.476562 10-10 10zm0 0"/></g><path d="m141.792969 100.640625c-54.875 0-99.359375 44.484375-99.359375 99.359375s44.484375 99.359375 99.359375 99.359375 99.363281-44.484375 99.363281-99.359375c-.0625-54.851562-44.511719-99.300781-99.363281-99.359375zm0 178.71875c-43.828125 0-79.359375-35.53125-79.359375-79.359375s35.53125-79.359375 79.359375-79.359375c43.832031 0 79.363281 35.53125 79.363281 79.359375s-35.53125 79.359375-79.363281 79.359375zm0 0" fill="#0635c9"/><path d="m141.792969 58.207031c-78.183594 0-141.792969 63.605469-141.792969 141.792969s63.609375 141.792969 141.792969 141.792969c78.1875 0 141.796875-63.605469 141.796875-141.792969s-63.609375-141.792969-141.796875-141.792969zm0 263.585938c-67.265625 0-121.792969-54.527344-121.792969-121.792969s54.527344-121.792969 121.792969-121.792969 121.796875 54.527344 121.796875 121.792969-54.53125 121.792969-121.796875 121.792969zm0 0" fill="#0635c9"/></svg>