<svg height="400pt" viewBox="-63 0 400 400.00314" width="400pt" xmlns="http://www.w3.org/2000/svg"><path d="m88.359375 199.519531c10.117187-13.867187 19.84375-28 29.183594-42.402343l57.179687-88.441407-37.929687-58.671875-69.25 107.109375c-9.320313 14.414063-19.046875 28.546875-29.183594 42.40625-40.539063 55.5625-37.613281 137.457031 8.777344 189.21875 11.890625 13.410157 26.519531 24.113281 42.902343 31.390625-39.472656-51.890625-40.039062-128.035156-1.679687-180.609375zm0 0" fill="#d4e1f4"/><path d="m154.945312 341.714844c-5.519531 0-10-4.476563-10-10 0-5.523438 4.480469-10 10-10 27.574219 0 50.007813-25.546875 50.007813-56.953125 0-5.523438 4.476563-10 10-10s10 4.476562 10 10c0 42.433593-31.402344 76.953125-70.007813 76.953125zm0 0" fill="#1ae5be"/><path d="m214.4375 111.683594-69.246094-107.109375c-1.84375-2.851563-5.003906-4.574219-8.398437-4.574219-3.398438 0-6.558594 1.722656-8.402344 4.574219l-69.246094 107.109375c-8.972656 13.878906-18.683593 27.988281-28.863281 41.941406-21.03125 28.824219-31.726562 65.175781-30.121094 102.359375 1.617188 37.480469 15.65625 72.789063 39.53125 99.429687 25.769532 28.753907 60.253906 44.589844 97.101563 44.589844 36.84375 0 71.328125-15.835937 97.097656-44.589844 23.875-26.640624 37.914063-61.949218 39.53125-99.429687 1.605469-37.183594-9.089844-73.535156-30.121094-102.359375-10.179687-13.953125-19.890625-28.0625-28.863281-41.941406zm39 143.441406c-1.417969 32.863281-13.644531 63.738281-34.445312 86.941406-21.921876 24.464844-51.113282 37.9375-82.199219 37.9375-31.085938 0-60.28125-13.476562-82.207031-37.9375-20.792969-23.203125-33.027344-54.078125-34.445313-86.941406-1.410156-32.675781 7.929687-64.535156 26.300781-89.710938 10.398438-14.253906 20.324219-28.679687 29.5-42.871093l60.851563-94.121094 60.851562 94.121094c9.175781 14.191406 19.097657 28.617187 29.5 42.871093 18.367188 25.175782 27.707031 57.035157 26.296875 89.710938zm0 0" fill="#0635c9"/></svg>