<svg height="420pt" viewBox="-78 0 420 420.0004" width="420pt" xmlns="http://www.w3.org/2000/svg"><path d="m90 145h140c0-22.089844-17.910156-40-40-40h-140c-22.089844 0-40 17.910156-40 40v130c0 22.089844 17.910156 40 40 40v-130c0-22.089844 17.910156-40 40-40zm0 0" fill="#d4e1f4"/><g fill="#0635c9"><path d="m213.351562 35.632812c-1.917968-20.25-18.953124-35.6992182-39.292968-35.632812h-108.117188c-20.339844-.0664062-37.375 15.382812-39.292968 35.632812 0 .042969-.007813.085938-.007813.125l-6.488281 76.257813 19.929687 1.695313 6.480469-76.1875c.96875-9.964844 9.363281-17.554688 19.378906-17.523438h108.117188c10.015625-.03125 18.410156 7.558594 19.378906 17.523438l6.480469 76.1875 19.929687-1.695313-6.488281-76.257813c0-.039062-.003906-.082031-.007813-.125zm0 0"/><path d="m193.4375 382.476562c-.96875 9.964844-9.363281 17.554688-19.378906 17.523438h-108.117188c-10.015625.03125-18.410156-7.558594-19.378906-17.523438l-6.480469-76.1875-19.929687 1.695313 6.488281 76.257813c0 .039062.003906.082031.007813.125 1.917968 20.25 18.953124 35.699218 39.292968 35.632812h108.117188c20.339844.066406 37.375-15.382812 39.292968-35.632812 0-.042969.007813-.085938.007813-.125l6.488281-76.257813-19.929687-1.695313zm0 0"/><path d="m120 151.539062c-5.523438 0-10 4.476563-10 10v48.460938c0 5.523438 4.476562 10 10 10h37.101562c5.523438 0 10-4.476562 10-10s-4.476562-10-10-10h-27.101562v-38.460938c0-5.523437-4.476562-10-10-10zm0 0"/><path d="m254 219c-5.523438 0-10 4.476562-10 10v28c0 5.523438 4.476562 10 10 10s10-4.476562 10-10v-28c0-5.523438-4.476562-10-10-10zm0 0"/><path d="m254 146c-5.523438 0-10 4.476562-10 10v28c0 5.523438 4.476562 10 10 10s10-4.476562 10-10v-28c0-5.523438-4.476562-10-10-10zm0 0"/></g><path d="m190 325h-140c-27.601562-.03125-49.96875-22.398438-50-50v-130c.03125-27.601562 22.398438-49.96875 50-50h140c27.601562.03125 49.96875 22.398438 50 50v130c-.03125 27.601562-22.398438 49.96875-50 50zm-140-210c-16.5625.019531-29.980469 13.4375-30 30v130c.019531 16.5625 13.4375 29.980469 30 30h140c16.5625-.019531 29.980469-13.4375 30-30v-130c-.019531-16.5625-13.4375-29.980469-30-30zm0 0" fill="#1ae5be"/></svg>