<svg height="399pt" viewBox="0 0 399 399.88458" width="399pt" xmlns="http://www.w3.org/2000/svg"><path d="m90.039062 270.15625c-60.59375-60.597656-66.625-156.820312-14.070312-224.511719-49.652344 38.914063-73.671875 102.128907-62.382812 164.199219 11.285156 62.066406 56.019531 112.78125 116.195312 131.722656 60.175781 18.945313 125.894531 3 170.699219-41.410156 5.015625-5.011719 9.714843-10.332031 14.070312-15.929688-67.691406 52.554688-163.910156 46.523438-224.511719-14.070312zm0 0" fill="#d4e1f4"/><path d="m240.257812 169.914062h-50.019531v-49.976562c0-5.523438-4.476562-10-10-10-5.519531 0-10 4.476562-10 10v49.976562h-49.980469c-5.519531 0-10 4.480469-10 10 0 5.523438 4.480469 10 10 10h49.980469v50.023438c0 5.519531 4.480469 10 10 10 5.523438 0 10-4.480469 10-10v-50.023438h50.019531c5.523438 0 10-4.476562 10-10 0-5.519531-4.476562-10-10-10zm0 0" fill="#1ae5be"/><path d="m314.425781 299.957031c63.230469-70.59375 60.945313-179.5-6.871093-247.316406-69.367188-69.300781-181.453126-70.304687-252.050782-2.253906-70.597656 68.046875-73.714844 180.09375-7.007812 251.960937 66.707031 71.867188 178.675781 77.09375 251.785156 11.753906l82.886719 82.886719c3.910156 3.875 10.21875 3.859375 14.113281-.03125 3.890625-3.894531 3.90625-10.203125.03125-14.113281zm-247.316406-6.871093c-62.78125-62.199219-63.253906-163.515626-1.054687-226.300782 62.199218-62.78125 163.515624-63.253906 226.300781-1.054687.351562.351562.703125.703125 1.054687 1.054687 62.390625 62.390625 62.390625 163.90625 0 226.300782-62.394531 62.390624-163.914062 62.390624-226.300781 0zm0 0" fill="#0635c9"/></svg>